<?xml version="1.0" encoding="utf-8"?>
<!-- Generator: Adobe Illustrator 16.0.0, SVG Export Plug-In . SVG Version: 6.00 Build 0)  -->
<!DOCTYPE svg PUBLIC "-//W3C//DTD SVG 1.1//EN" "http://www.w3.org/Graphics/SVG/1.1/DTD/svg11.dtd">
<svg version="1.1" id="レイヤー_1" xmlns="http://www.w3.org/2000/svg" xmlns:xlink="http://www.w3.org/1999/xlink" x="0px"
	 y="0px" width="287.298px" height="144.611px" viewBox="0 0 287.298 144.611" enable-background="new 0 0 287.298 144.611"
	 xml:space="preserve">
<g>
	<g>
		<path fill="#FFFFFF" d="M31.833,3.21h-9.359v1.439h11.549v6h-2.7V6.63h-8.85v5.79h-2.79V6.63h-8.729v3.96h-2.7v-5.94h11.429V3.21
			h-9.149V1.05h21.299V3.21z M30.933,23.219h-2.7v-0.75h-5.85v0.69c0,1.41,0.54,1.47,4.14,1.47c1.71,0,3.48-0.09,4.35-0.21
			c1.29-0.18,1.59-1.56,1.59-3.689c0-0.21,0-0.42,0-0.63c0,0,1.83,1.92,2.67,2.31c0.09,0.03,0.12,0.149,0.12,0.27
			c-0.45,4.17-3.03,4.351-8.85,4.351c-3.689,0-6.72-0.12-6.72-3.511v-1.05h-5.459v1.83h-2.64V13.38h19.349V23.219z M18.304,9.42
			h-6.149V7.83h6.149V9.42z M18.304,12.09h-6.149V10.5h6.149V12.09z M14.224,15.3v1.59h5.459V15.3H14.224z M14.224,18.689v1.8h5.459
			v-1.8H14.224z M22.384,15.3v1.59h5.85V15.3H22.384z M22.384,18.689v1.8h5.85v-1.8H22.384z M30.033,9.42h-6.209V7.83h6.209V9.42z
			 M30.033,12.09h-6.209V10.5h6.209V12.09z"/>
		<path fill="#FFFFFF" d="M68.193,5.31H50.764c-2.43,4.17-3.93,5.16-3.96,5.16c0,0-0.03,0-0.06-0.03
			c-0.72-0.479-3.03-1.109-3.03-1.109c3.45-2.37,5.64-6.51,6.479-9.33c0,0,2.4,0.57,3.09,0.81c0.21,0.091,0.33,0.21,0.33,0.36
			c0,0.21-0.3,0.42-0.99,0.45c-0.15,0.359-0.33,0.72-0.51,1.109h16.08V5.31z M60.094,25.679c-1.5-1.5-3.27-2.939-4.98-4.17
			c-3.72,3.72-7.979,5.43-8.07,5.43c-0.06,0-0.09,0-0.15-0.06c-0.57-0.63-3.03-2.01-3.03-2.01c3.9-1.08,6.78-2.88,8.939-4.95
			c-2.91-1.859-5.22-3.06-5.22-3.06l1.65-1.86c0,0,2.37,1.2,5.31,3c1.02-1.26,1.83-2.609,2.49-3.87c0,0,2.16,0.811,2.91,1.171
			c0.27,0.119,0.42,0.3,0.42,0.449c0,0.181-0.27,0.36-0.69,0.36c-0.12,0-0.21,0-0.33-0.03c-0.69,1.141-1.5,2.311-2.43,3.45
			c1.77,1.17,3.57,2.49,5.04,3.84L60.094,25.679z M46.054,13.529v-2.49h19.919c-0.03,0.66-0.24,2.7-0.24,4.98
			c0,6.21,1.59,7.409,1.92,7.409c0.9,0,1.26-3.569,1.26-4.979c0-0.06,0-0.12,0-0.15c0,0,1.62,2.28,2.37,2.79
			c0.06,0.061,0.09,0.15,0.09,0.24c-0.57,3.6-2.1,5.64-3.75,5.64c-1.32,0-4.62-1.92-4.62-10.92c0-1.229,0.06-2.159,0.06-2.52H46.054
			z M65.703,9.239H49.984V6.93h15.719V9.239z"/>
		<path fill="#FFFFFF" d="M81.484,3.81c0-0.06-0.03-0.09-0.03-0.149c0-0.061,0.03-0.09,0.12-0.09c0.03,0,0.09,0,0.18,0.029
			c0.87,0.33,2.13,0.51,3.51,0.51c1.77,0,3.72-0.3,5.069-0.869c0.24-0.091,0.36-0.271,0.51-0.271c0.36,0,2.16,2.28,2.16,2.521
			c0,0.27-0.42,0.239-0.69,0.27c-1.26,0.15-2.91,0.81-3.99,2.1c-0.69,0.811-4.08,5.01-4.08,9.66c0,5.189,3.9,5.22,4.38,5.22
			c2.459,0,5.64-1.92,6.81-5.7c0.6-1.949,0.93-5.399,0.93-8.76c0-1.949-0.03-3.449-0.33-4.979c0-0.06-0.03-0.12-0.03-0.15
			c0-0.119,0.06-0.149,0.15-0.149c0.03,0,0.06,0,0.09,0c0.69,0.03,2.4,0.24,2.85,0.3c0.3,0.06,0.39,0.15,0.39,0.271
			c0,0.18-0.21,0.449-0.21,0.72c0.03,3.81,2.94,8.249,6.09,10.109c0,0-2.7,2.01-2.94,2.16c-0.03,0.029-0.06,0.029-0.09,0.029
			c-0.18,0-2.22-2.43-3.21-4.979c-0.03-0.09-0.06-0.12-0.06-0.12c-0.03,0-0.03,0.03-0.03,0.181c0,2.069-0.06,4.02-0.6,6.299
			c-1.14,4.86-5.97,7.95-9.93,7.95c-3.72,0-7.32-2.76-7.32-8.16c0-5.43,4.05-10.349,4.59-11.009c-0.45,0.149-1.35,0.239-2.22,0.239
			c-0.57,0-1.11-0.029-1.59-0.119L81.484,3.81z"/>
		<path fill="#FFFFFF" d="M131.014,13.319c-5.669,0.24-13.529,2.34-13.529,6.149c0,2.79,4.08,3.15,6.21,3.15
			c2.82,0,6.089-0.6,8.85-1.59c-0.03,0.149-0.6,2.609-0.6,3.66c0,0.119-0.03,0.18-0.15,0.21c-2.34,0.569-4.8,0.869-7.11,0.869
			c-1.32,0-10.319-0.029-10.319-6.119c0-3.09,2.7-5.4,6.299-6.99c-0.69-1.529-0.78-3.029-0.78-3.96c0-1.05,0.06-2.279,0.09-3.689
			c0-0.96-0.03-2.31-0.15-3.75c0-0.06,0-0.12,0-0.149c0-0.091,0.03-0.15,0.12-0.15s2.58,0.33,3.66,0.51
			c0.3,0.061,0.48,0.21,0.48,0.36c0,0.18-0.21,0.359-0.72,0.51c-0.39,5.46-0.39,5.729-0.39,6.24c0,1.199,0.15,2.13,0.57,2.97
			c0.87-0.3,1.77-0.54,2.7-0.78c1.41-0.36,3.27-0.72,4.44-1.05c0.06-0.03,0.12-0.03,0.15-0.03c0.15,0,0.21,0.09,0.21,0.24
			L131.014,13.319z"/>
		<path fill="#FFFFFF" d="M155.404,4.95h-3.93c0.39,0.689,0.84,1.529,1.11,2.31l-2.55,0.75c-0.3-1.14-0.87-2.34-1.23-3.06h-1.47
			c-0.6,0.899-2.67,3.779-3,3.779c-0.03,0-0.06,0-0.09-0.03c-0.6-0.479-2.82-0.989-2.82-0.989c3.03-2.37,5.04-5.97,5.399-7.5
			c0,0,2.07,0.39,2.85,0.69c0.27,0.09,0.42,0.27,0.42,0.39c0,0.21-0.3,0.39-0.96,0.39c-0.12,0.3-0.27,0.63-0.48,0.99h6.75V4.95z
			 M168.663,4.95h-5.55c0.391,0.689,0.87,1.56,1.141,2.279l-2.16,0.72c0.18,0.061,0.24,0.15,0.24,0.271c0,0.21-0.271,0.42-0.75,0.51
			c-0.031,0.69-0.061,1.44-0.091,2.43h5.94c-0.09,10.29-0.121,15.87-5.49,15.87c-0.09,0-1.65,0-1.74-0.33
			c-0.18-0.69-1.229-2.4-1.56-2.94c-1.59,2.4-3.45,3.57-3.63,3.57c-0.03,0-0.03,0-0.061-0.03c-0.449-0.36-1.589-0.78-2.339-1.05
			c-0.81,0.479-1.86,0.66-2.94,0.66c-0.15,0-0.33,0-0.48,0c-0.09,0-0.18-0.03-0.21-0.12c-0.24-0.78-1.68-2.76-1.68-2.76
			c1.05,0.12,1.89,0.21,2.52,0.21c1.14,0,1.65-0.271,1.65-1.11v-3.18h-4.35c-0.54,5.31-2.37,7.109-2.49,7.109
			c-0.03,0-0.06,0-0.09-0.029c-0.72-0.391-2.85-0.811-2.85-0.811c3.06-2.91,3.12-7.529,3.12-11.939c0-1.68,0-1.979-0.09-5.64h9.299
			v11.369c0,1.38,0.06,3.15,0.06,3.45c0,0.51-0.06,0.96-0.21,1.32c3.87-3,4.679-7.41,4.829-11.189h-3.84v-2.431h3.87
			c0-0.39,0-0.779,0-1.17c0-0.989-0.03-1.83-0.06-2.31c0,0,2.129,0.12,3,0.21c-0.33-1.14-0.9-2.28-1.26-2.939h-1.621
			c-0.689,1.26-1.469,2.55-2.279,3.419c-0.03,0.061-0.09,0.061-0.12,0.061s-0.09,0-0.12-0.03c-0.63-0.42-2.699-0.84-2.699-0.84
			c2.489-2.1,3.989-5.85,4.319-7.38c0,0,2.19,0.42,2.88,0.63c0.24,0.091,0.42,0.24,0.42,0.391c0,0.18-0.27,0.359-0.9,0.42
			c-0.119,0.3-0.24,0.66-0.42,1.05h8.79V4.95z M147.334,15.359c0,0.81-0.03,1.62-0.06,2.46h4.2v-2.46H147.334z M147.334,10.92v2.34
			h4.14v-2.34H147.334z M161.463,13.59c-0.119,2.939-0.66,6.839-2.729,10.079c0.84,0.271,1.89,0.54,2.79,0.54
			c2.34,0,3.119-1.26,3.21-10.619H161.463z"/>
		<path fill="#FFFFFF" d="M179.975,9.09c0-3.66,2.729-6.81,8.039-6.81c5.43,0,7.74,2.88,7.74,6.119c0,2.19-1.351,4.47-3.84,4.95
			c3.149,0.63,4.709,2.819,4.709,5.729c0,5.58-5.069,6.96-8.76,6.96c-5.819,0-8.549-3.21-8.639-7.5h3.93
			c0.06,1.83,0.75,4.38,4.859,4.38c2.7,0,4.92-1.32,4.92-4.05s-2.58-3.81-4.8-3.81c-0.06,0-0.12,0-0.181,0l-2.489,0.06V11.88
			l2.55,0.06c0.061,0,0.09,0,0.15,0c2.34,0,4.049-1.38,4.049-3.42c0-3.149-3.779-3.149-4.169-3.149c-0.45,0-4.17,0-4.319,3.72
			H179.975z"/>
		<path fill="#FFFFFF" d="M224.704,5.85h-10.29l-0.93,5.97c1.29-1.26,3.33-1.68,4.59-1.68c0.061,0,0.15,0,0.21,0
			c5.19,0,7.979,3.42,7.979,7.68c0,4.92-3.51,8.22-8.67,8.22c-4.709,0-7.979-2.16-8.309-6.75h4.02c0.24,2.61,2.07,3.6,4.199,3.6
			c3.48,0,4.95-2.46,4.95-5.01s-1.17-4.89-4.59-4.89c-0.569,0-3.271,0.03-4.319,2.49h-3.811l1.71-12.72h13.26V5.85z"/>
		<path fill="#FFFFFF" d="M262.443,6.21h-9.299v4.14h7.92v2.7h-7.92v5.069h10.409v2.76h-10.409v6.6h-2.939v-6.6h-13.02v-2.76h5.249
			v-7.77h7.771V6.21h-5.791c-1.949,3.3-4.139,6.06-4.439,6.06c-0.061,0-0.09-0.03-0.15-0.061c-0.75-0.51-3.119-1.079-3.119-1.079
			c3-2.28,6.119-7.14,7.379-11.04c0,0,1.98,0.54,3.061,0.99c0.3,0.12,0.449,0.3,0.449,0.42c0,0.21-0.299,0.39-0.869,0.39
			c-0.03,0-0.09,0-0.15,0c-0.209,0.54-0.449,1.08-0.72,1.65h16.589V6.21z M245.314,13.05v5.069h4.891V13.05H245.314z"/>
		<path fill="#FFFFFF" d="M277.355,27.299c-2.4,0-4.351-1.95-4.351-4.35c0-2.43,1.95-4.35,4.351-4.35c2.398,0,4.35,1.92,4.35,4.35
			C281.705,25.349,279.754,27.299,277.355,27.299z M275.195,22.949c0,1.17,0.959,2.13,2.16,2.13c1.199,0,2.159-0.96,2.159-2.13
			c0-1.2-0.96-2.16-2.159-2.16C276.154,20.789,275.195,21.749,275.195,22.949z"/>
	</g>
	<g>
		<path fill="#FFFFFF" d="M26.12,57.422c0,0-1.103-0.027-1.967-0.04c0.346,0.412,0.957,1.05,1.821,1.688c0,0-0.758,0.306-1.01,0.585
			c-0.013,0.014-0.04,0.026-0.053,0.026c-0.066,0-0.531-0.545-1.09-1.408c0.04,0.73,0.093,1.834,0.093,2.073v1.581h-1.183
			l0.013-1.581c0-0.253,0.053-1.144,0.093-1.848c-0.851,1.502-1.661,2.246-1.728,2.246c-0.013,0-0.04-0.014-0.053-0.026
			c-0.226-0.239-1.143-0.571-1.143-0.571c1.276-0.891,2.14-2.061,2.579-2.765c-0.851,0.013-2.021,0.04-2.021,0.04v-1.037h2.286
			v-0.252c0,0-0.013-0.691-0.026-0.758c0.505,0,1.568,0.013,1.568,0.239c0,0.079-0.106,0.173-0.385,0.213
			c-0.013,0.026-0.013,0.411-0.013,0.411v0.146h2.219V57.422z M26.2,55.176h-5.915v-0.997h1.582
			c-0.173-0.784-0.598-1.582-0.598-1.582l1.01-0.278c0,0,0.492,0.943,0.665,1.728l-0.452,0.133h1.076
			c0.346-0.837,0.492-1.874,0.492-1.874s1.023,0.173,1.263,0.266c0.106,0.04,0.186,0.12,0.186,0.187
			c0,0.079-0.106,0.159-0.385,0.159c-0.013,0-0.027,0-0.04,0c-0.066,0.226-0.252,0.811-0.438,1.263H26.2V55.176z M26,52.186h-5.396
			v-1.023h2.087v-0.466c0,0,0-0.066,0-0.159c0-0.146,0-0.372-0.027-0.545c0.186,0,1.143,0.04,1.436,0.08
			c0.133,0.013,0.213,0.079,0.213,0.146c0,0.08-0.106,0.173-0.359,0.213c-0.014,0.12-0.027,0.372-0.027,0.372v0.359H26V52.186z
			 M32.247,55.202h-1.582v6.765H29.43v-6.765h-1.502c0,0.08,0,0.173,0,0.252c0,2.153-0.186,4.479-2.007,6.233
			c-0.026,0.014-0.04,0.027-0.066,0.027c-0.013,0-0.027,0-0.04-0.014c-0.332-0.199-1.435-0.398-1.435-0.398
			c2.14-1.489,2.352-3.549,2.352-5.648c0-0.399-0.013-0.784-0.013-1.17c-0.013-1.555-0.133-3.35-0.133-3.35l1.063,0.187
			c1.476-0.306,2.857-0.877,3.177-1.143c0,0,0.771,0.771,0.997,1.023c0.053,0.066,0.08,0.133,0.08,0.186
			c0,0.066-0.053,0.12-0.172,0.12c-0.08,0-0.2-0.027-0.333-0.094c0,0-1.528,0.571-3.522,0.971c0.013,0.479,0.027,1.062,0.027,1.635
			h4.346V55.202z"/>
		<path fill="#FFFFFF" d="M44.456,55.827c0,0.105,0.04,0.306,0.385,0.306c0.598,0,0.638-0.279,0.638-1.729
			c0,0,0.717,0.744,1.037,0.891c0.04,0.014,0.04,0.054,0.04,0.093c-0.12,1.369-0.531,1.795-1.847,1.795
			c-0.891,0-1.436-0.266-1.436-0.957v-0.479l-0.611,0.571c-0.385-0.505-0.957-0.983-1.289-1.236
			c-0.12,0.864-0.585,1.489-1.329,1.968c0.997,0.053,1.475,0.079,1.475,0.239c0,0.066-0.133,0.159-0.385,0.199
			c-0.013,0.053-0.013,0.252-0.013,0.346h5.037v1.05l-4.545-0.054c0.97,0.611,2.764,1.542,5.183,1.9c0,0-0.997,0.625-1.289,0.984
			c-0.013,0.013-0.04,0.026-0.08,0.026c-0.027,0-2.18-0.479-4.333-2.22c0.027,0.545,0.066,1.329,0.066,1.396v1.104h-1.196v-1.104
			c0-0.066,0.026-0.824,0.04-1.369c-2.113,1.794-4.239,2.286-4.425,2.286c-0.027,0-0.053-0.014-0.067-0.04
			c-0.279-0.332-1.223-0.891-1.223-0.891c2.499-0.425,4.227-1.435,5.117-2.073l-4.399,0.054v-1.05h4.958
			c0-0.106-0.013-0.532-0.027-0.731c-0.04,0.026-0.824,0.438-0.983,0.438c-0.013,0-0.04-0.013-0.053-0.026
			c-0.226-0.226-1.196-0.611-1.196-0.611c1.9-0.479,2.552-1.156,2.552-2.22V52.97h4.2V55.827z M46.184,51.8h-2.539
			c0.16,0.213,0.319,0.479,0.399,0.718l-1.09,0.332c-0.106-0.398-0.332-0.784-0.505-1.05h-0.784
			c-0.266,0.372-0.545,0.664-0.797,0.891c-0.027,0.013-0.053,0.04-0.08,0.04c0,0-0.013,0-0.026-0.014
			c-0.292-0.173-1.117-0.386-1.117-0.386c0.253-0.146,0.479-0.332,0.705-0.545h-1.741c0.173,0.239,0.359,0.532,0.439,0.784
			l-1.09,0.319c-0.106-0.412-0.346-0.838-0.519-1.104h-0.625c-0.372,0.479-0.771,0.878-1.143,1.196
			c-0.026,0.014-0.04,0.026-0.066,0.026c-0.013,0-0.026,0-0.04-0.013c-0.239-0.173-1.116-0.438-1.116-0.438
			c1.023-0.665,1.9-1.688,2.246-2.698c0,0,0.904,0.213,1.156,0.279c0.146,0.04,0.226,0.106,0.226,0.159
			c0,0.08-0.133,0.146-0.399,0.146c-0.013,0-0.026,0-0.04,0c-0.066,0.146-0.133,0.292-0.212,0.425h2.977v0.864
			c0.505-0.519,0.917-1.196,1.156-1.874c0,0,0.877,0.199,1.13,0.266c0.12,0.026,0.186,0.093,0.186,0.146
			c0,0.079-0.133,0.159-0.412,0.159c-0.066,0.146-0.133,0.293-0.213,0.438h3.934V51.8z M39.512,54.006h-1.449v1.104
			c0.745-0.227,1.316-0.426,1.608-0.545c0,0-0.013,0.332-0.013,0.611c0,0.146,0,0.278,0.013,0.346c0,0.013,0,0.026,0,0.039
			c0,0.027-0.013,0.04-0.053,0.054c-0.943,0.358-2.272,0.797-3.868,1.209c0.014,0.054,0.014,0.094,0.014,0.133
			c0,0.146-0.053,0.239-0.133,0.239c-0.066,0-0.12-0.04-0.186-0.146c-0.266-0.438-0.558-1.156-0.558-1.156
			c0.718-0.133,1.396-0.293,2.02-0.466v-1.422h-1.542v-0.931h4.146V54.006z M41.413,53.859c0,0.094-0.014,0.545-0.014,0.758
			l0.425-0.332c0,0,0.837,0.545,1.449,1.103v-1.528H41.413z"/>
		<path fill="#FFFFFF" d="M59.535,55.548c-0.492,1.209-1.09,2.339-1.794,3.282c0.824,0.878,1.608,1.701,2.219,2.353h-1.927
			c-0.386-0.438-0.784-0.877-1.183-1.315c-1.05,1.05-2.18,1.528-3.229,1.528c-1.688,0-2.95-1.236-2.95-2.698
			c0-1.01,0.638-2.113,2.113-3.163l0.093-0.066c-0.705-0.824-1.143-1.555-1.143-2.353c0-0.013,0-0.013,0-0.026
			c0-1.289,1.077-2.26,2.485-2.26c1.688,0,2.419,1.144,2.419,2.127c0.013,1.342-0.917,2.007-1.848,2.685
			c0.611,0.691,1.316,1.448,2.021,2.193c0.438-0.639,0.851-1.409,1.169-2.286H59.535z M53.514,56.518
			c-0.97,0.678-1.369,1.449-1.369,2.101c0,0.73,0.598,1.475,1.582,1.475c0.797,0,1.582-0.491,2.246-1.209
			c-0.771-0.824-1.528-1.661-2.286-2.485L53.514,56.518z M54.219,54.551c0.625-0.452,1.077-0.864,1.063-1.568
			c0-0.651-0.505-0.983-1.077-0.983c-0.532,0-1.077,0.346-1.077,1.104c0,0.584,0.438,1.156,0.851,1.635
			C54.059,54.671,54.139,54.617,54.219,54.551z"/>
		<path fill="#FFFFFF" d="M70.48,52.252c0,0.226-0.013,0.584-0.013,0.943c0,0.358,0.013,0.73,0.013,1.01
			c0,0.187,0.013,0.359,0.013,0.532c0,3.614-1.103,5.608-4.665,6.95c-0.027,0.014-0.053,0.014-0.067,0.014
			c-0.04,0-0.066-0.014-0.093-0.04c-0.346-0.398-1.462-1.116-1.462-1.116c3.841-0.957,4.745-2.525,4.745-6.074
			c0-0.079,0-0.159,0-0.239c0-0.491,0-2.458-0.04-3.415c0,0,1.183,0.013,1.728,0.079c0.173,0.014,0.239,0.08,0.239,0.16
			c0,0.106-0.133,0.226-0.372,0.266C70.48,51.653,70.48,51.985,70.48,52.252z M65.789,57.408h-1.475v-4.731c0,0,0-0.119,0-0.306
			c0-0.386,0-1.023-0.04-1.488c1.794,0.053,1.927,0.066,1.927,0.239c0,0.093-0.146,0.226-0.386,0.266
			c-0.026,0.372-0.026,1.037-0.026,1.037V57.408z"/>
		<path fill="#FFFFFF" d="M74.141,53.009v-1.422l7.749-0.04c0.173,0,0.212-0.106,0.319-0.106c0.173,0,1.143,0.812,1.143,0.944
			c0,0.079-0.093,0.146-0.292,0.212c-1.263,4.958-4.027,7.244-6.924,8.439c-0.04,0.014-0.066,0.027-0.093,0.027
			c-0.04,0-0.066-0.027-0.106-0.066c-0.306-0.386-1.515-1.156-1.515-1.156c3.774-0.971,6.087-3.615,6.884-6.871L74.141,53.009z"/>
		<path fill="#FFFFFF" d="M93.353,55.999h-1.914l0.026,2.845c0,0.505,0.026,0.917,0.026,1.01c0,0.026,0,0.04,0,0.066
			c0,1.462-1.289,1.635-2.392,1.635c-0.04,0-0.093,0-0.133,0H88.94c-0.053,0-0.08-0.04-0.093-0.093
			c-0.093-0.319-0.705-1.116-0.811-1.263c0.306,0.026,0.811,0.133,1.249,0.133c0.851,0,0.93-0.398,0.93-0.624
			c0,0,0-1.25-0.013-2.752c-0.93,1.303-2.353,2.605-3.881,3.629c-0.013,0.013-0.026,0.026-0.04,0.026
			c-0.014,0-0.027,0.014-0.04,0.014s-0.026-0.014-0.04-0.014l-0.013-0.026l-0.026-0.014c-0.252-0.252-1.077-0.73-1.276-0.811
			c2.06-0.784,3.655-2.353,4.598-3.762h-3.694v-1.156h4.399v-0.545c0-0.292-0.013-0.558-0.066-1.062
			c1.316,0.04,1.674,0.066,1.674,0.252c0,0.16-0.226,0.253-0.358,0.293c-0.014,0.252-0.014,0.531-0.014,0.531v0.531h1.927V55.999z"
			/>
		<path fill="#FFFFFF" d="M106.41,56.638H96.177v-1.436h10.233V56.638z"/>
		<path fill="#FFFFFF" d="M117.555,60.664c-0.027,0.014-0.04,0.027-0.053,0.027c-0.026,0-0.04-0.014-0.066-0.066
			c-0.213-0.492-0.425-0.944-0.651-1.383c-1.555,0.319-5.023,0.891-7.562,1.249c0,0.014,0,0.027,0,0.027
			c0,0.239-0.093,0.412-0.2,0.412c-0.066,0-0.146-0.08-0.212-0.267c-0.186-0.505-0.505-1.568-0.505-1.568
			c0.425-0.026,0.89-0.066,1.369-0.119c1.063-2.393,1.994-5.104,2.738-8.014c0,0,1.01,0.266,1.608,0.478
			c0.173,0.067,0.252,0.134,0.252,0.213c0,0.106-0.186,0.199-0.438,0.199c0,0-0.014,0-0.027,0c-0.678,2.153-1.568,4.745-2.578,6.938
			c1.728-0.239,3.522-0.531,4.851-0.783c-0.532-0.838-1.156-1.648-2.007-2.539l1.183-0.651c1.369,1.329,2.977,3.642,3.535,5.037
			L117.555,60.664z"/>
		<path fill="#FFFFFF" d="M132.713,53.461h-1.768v2.232h2.153v1.144h-2.153v4.971h-1.263v-4.971h-1.728
			c-0.093,1.993-0.611,3.947-2.658,5.156c-0.026,0.014-0.053,0.027-0.08,0.027c-0.013,0-0.04-0.014-0.053-0.027
			c-0.252-0.239-0.97-0.531-1.25-0.651v0.651h-1.289l0.053-5.116l0.04-1.648c-0.066,0.106-0.784,1.236-0.864,1.236
			c-0.026,0-0.04-0.014-0.053-0.04c-0.279-0.358-1.104-0.758-1.104-0.758c1.608-1.555,2.671-4,3.11-5.808
			c0.226,0.026,1.116,0.319,1.382,0.412c0.16,0.053,0.213,0.119,0.213,0.186c0,0.094-0.133,0.187-0.333,0.187
			c-0.04,0-0.066-0.014-0.106-0.014c-0.186,0.585-0.545,1.476-1.023,2.473c0.04,0,0.066,0.013,0.093,0.013
			c0.239,0.04,0.333,0.106,0.333,0.173c0,0.106-0.16,0.213-0.386,0.266c-0.013,0.253-0.026,0.957-0.026,0.957l-0.04,6.738
			c2.22-1.023,2.698-2.725,2.778-4.412h-2.06v-1.144h2.073v-0.239c0-0.306,0-1.143-0.013-1.993h-1.595v-1.116h1.927
			c-0.319-0.891-1.13-1.914-1.13-1.914l1.183-0.398c0,0,0.851,1.076,1.183,1.887l-1.05,0.426h2.007
			c0.186-0.346,0.665-1.289,0.957-2.393c0,0,0.931,0.199,1.449,0.359c0.133,0.039,0.199,0.106,0.199,0.173
			c0,0.079-0.12,0.159-0.412,0.159c-0.014,0-0.027,0-0.04,0c-0.186,0.479-0.571,1.223-0.837,1.701h2.18V53.461z M127.956,53.461
			c0,0.904,0.013,1.874,0.013,2.14v0.093h1.714v-2.232H127.956z"/>
		<path fill="#FFFFFF" d="M147.368,54.511c-0.013,0.04-0.027,0.054-0.08,0.054c-0.984,0-1.954,0.04-2.884,0.119
			c-0.053,0.704-0.133,1.355-0.239,1.821c-0.306,1.315-1.209,1.847-2.1,1.847c-0.346,0-0.678-0.079-0.984-0.226
			c-0.04-0.026-0.066-0.066-0.08-0.119c-0.026-0.412-0.372-1.489-0.372-1.489c0.252,0.199,0.837,0.545,1.355,0.545
			c0.811,0,1.01-0.704,1.13-2.232c-1.156,0.146-2.233,0.346-3.176,0.545c-0.014,0.558-0.027,1.09-0.027,1.528
			c0,0.213-0.013,0.412-0.013,0.598c0,1.13,0.186,2.073,2.299,2.073c0.97,0,2.1-0.199,3.15-0.438c0,0-0.292,0.997-0.346,1.516
			c-0.013,0.053-0.04,0.079-0.093,0.079c-0.717,0.094-1.608,0.16-2.392,0.16c-3.668,0-3.881-1.768-3.881-3.615
			c0-0.133,0-0.266,0-0.412c0-0.358,0.013-0.771,0.013-1.196c-0.186,0.04-0.358,0.094-0.518,0.133
			c-0.851,0.227-1.808,0.426-2.406,0.519l-0.465-1.275c-0.014-0.04-0.027-0.08-0.027-0.106c0-0.04,0.027-0.054,0.106-0.066
			c1.09-0.04,1.768-0.12,3.309-0.452c0-1.023-0.04-2.073-0.133-2.871c0,0,1.13,0.04,1.595,0.094
			c0.186,0.026,0.252,0.079,0.252,0.146c0,0.094-0.16,0.213-0.372,0.253c0,0.505-0.014,1.289-0.027,2.126
			c0.957-0.173,2.034-0.358,3.216-0.518c0.013-0.386,0.026-0.771,0.026-1.13c0-0.611-0.026-1.156-0.04-1.516
			c0,0,1.077,0.094,1.542,0.16c0.186,0.026,0.266,0.093,0.266,0.159c0,0.093-0.16,0.199-0.386,0.239
			c-0.04,0.545-0.066,1.223-0.106,1.914c0.944-0.106,1.954-0.199,2.991-0.266L147.368,54.511z"/>
		<path fill="#FFFFFF" d="M149.9,52.783c-0.026-0.053-0.04-0.093-0.04-0.119c0-0.04,0.04-0.067,0.146-0.067
			c2.1-0.026,5.13-0.956,9.369-1.408c0.066,0,0.106-0.014,0.159-0.04c0.066-0.026,0.12-0.053,0.16-0.053
			c0.238,0,0.638,1.368,0.638,1.382c0,0.066-0.04,0.106-0.12,0.106c-0.053,0-0.119-0.014-0.213-0.054
			c-0.744,0.04-1.223,0.146-1.701,0.333c-1.223,0.479-3.469,2.419-3.469,4.146c0,2.113,2.406,2.604,4.426,2.671
			c0,0-0.877,0.971-1.115,1.409c-0.027,0.04-0.054,0.053-0.094,0.053c-0.014,0-0.014,0-0.026,0c-2.499-0.385-4.532-1.688-4.532-3.92
			c0-1.409,0.983-3.11,2.724-4.399c-2.033,0.306-4.026,1.036-5.635,1.263L149.9,52.783z"/>
		<path fill="#FFFFFF" d="M169.311,53.342c-0.105-0.771-0.703-1.17-1.607-1.17c-1.236,0-2.365,1.09-2.445,3.455
			c0.598-0.771,1.635-1.169,2.552-1.169c2.272,0,3.429,1.555,3.429,3.376c0,1.661-1.037,3.521-3.721,3.521
			c-2.924,0-3.908-2.299-3.908-4.864c-0.014-2.751,1.01-5.622,4.107-5.622c1.768,0,3.162,0.944,3.27,2.473H169.311z M165.338,57.728
			c0,1.01,0.611,2.286,2.126,2.286c1.556,0,2.1-1.13,2.1-2.153c0-0.983-0.505-2.087-1.967-2.087
			C166.467,55.773,165.338,56.558,165.338,57.728z"/>
		<path fill="#FFFFFF" d="M176.428,60.864c0,1.089-0.278,2.272-1.82,2.445v-0.904c0.691-0.146,0.863-0.704,0.863-1.223h-0.863
			v-1.794h1.82V60.864z"/>
		<path fill="#FFFFFF" d="M187.688,56.133c0,3.469-1.476,5.263-3.881,5.263c-2.419,0-3.908-1.794-3.908-5.263
			c0-3.456,1.489-5.29,3.908-5.29C186.212,50.843,187.688,52.677,187.688,56.133z M181.587,56.133c0,2.697,0.903,3.907,2.22,3.907
			c1.262,0,2.193-1.21,2.193-3.907c0-2.765-0.932-3.987-2.193-3.987C182.49,52.146,181.587,53.368,181.587,56.133z"/>
		<path fill="#FFFFFF" d="M199.39,56.133c0,3.469-1.476,5.263-3.88,5.263c-2.42,0-3.908-1.794-3.908-5.263
			c0-3.456,1.488-5.29,3.908-5.29C197.914,50.843,199.39,52.677,199.39,56.133z M193.289,56.133c0,2.697,0.904,3.907,2.221,3.907
			c1.262,0,2.192-1.21,2.192-3.907c0-2.765-0.931-3.987-2.192-3.987C194.193,52.146,193.289,53.368,193.289,56.133z"/>
		<path fill="#FFFFFF" d="M211.092,56.133c0,3.469-1.476,5.263-3.881,5.263c-2.419,0-3.908-1.794-3.908-5.263
			c0-3.456,1.489-5.29,3.908-5.29C209.616,50.843,211.092,52.677,211.092,56.133z M204.991,56.133c0,2.697,0.903,3.907,2.22,3.907
			c1.262,0,2.193-1.21,2.193-3.907c0-2.765-0.932-3.987-2.193-3.987C205.895,52.146,204.991,53.368,204.991,56.133z"/>
		<path fill="#FFFFFF" d="M217.094,62.007h-1.289l0.039-4.426c0-0.319,0.027-1.409,0.04-2.379c-0.585,1.143-0.824,1.369-0.851,1.369
			c-0.014,0-0.027-0.014-0.04-0.027c-0.266-0.345-1.116-0.757-1.116-0.757c1.475-1.489,2.578-4.386,2.871-5.875
			c0,0,1.635,0.372,1.635,0.639c0,0.079-0.146,0.159-0.332,0.159c-0.041,0-0.08,0-0.134-0.014c-0.187,0.545-0.519,1.423-0.956,2.406
			c0.105,0,0.186,0.013,0.238,0.013c0.227,0.026,0.319,0.08,0.319,0.16c0,0.093-0.146,0.199-0.372,0.266
			c-0.014,0.119-0.027,0.585-0.027,0.585L217.094,62.007z M225.705,53.714h-3.123v2.498h3.588v1.21h-3.588v4.531h-1.289v-4.531
			h-3.602v-1.21h3.602v-2.498h-1.595c-0.679,1.647-1.104,2.047-1.104,2.047c-0.013,0-0.026,0-0.04-0.014
			c-0.332-0.199-1.328-0.306-1.328-0.306c1.436-1.648,1.98-4.014,2.1-5.011c0.199,0.04,1.062,0.187,1.355,0.266
			c0.146,0.04,0.213,0.106,0.213,0.173c0,0.106-0.146,0.199-0.398,0.199c-0.08,0.319-0.2,0.838-0.387,1.449h1.184v-1.502
			c0-0.106-0.014-0.625-0.04-1.01c0,0,1.156,0.039,1.515,0.093c0.146,0.026,0.213,0.093,0.213,0.159
			c0,0.093-0.119,0.199-0.371,0.253c-0.014,0.173-0.027,0.491-0.027,0.558v1.449h3.123V53.714z"/>
		<path fill="#FFFFFF" d="M231.654,57.595c1.568-0.718,2.95-1.476,3.256-1.662c0,0,0,0.239,0,0.519s0,0.585,0.026,0.744
			c0,0.014,0,0.014,0,0.027c0,0.146-3.748,2.033-5.249,2.631c0.013,0.066,0.013,0.12,0.013,0.173c0,0.173-0.054,0.253-0.133,0.253
			c-0.066,0-0.146-0.054-0.226-0.16c-0.266-0.372-0.758-1.302-0.758-1.302c0.559-0.173,1.17-0.399,1.794-0.651l-0.106-7.629
			c0,0,1.223,0,1.488,0.04c0.133,0.026,0.199,0.08,0.199,0.146c0,0.093-0.119,0.199-0.385,0.252L231.654,57.595z M237.86,57.395
			c0.519,0.864,1.595,2.433,3.058,3.442c0,0-0.998,0.399-1.369,0.691c-0.014,0.014-0.041,0.026-0.054,0.026
			c-0.054,0-1.036-0.863-2.339-3.004c-1.82,2.446-4.904,3.23-4.904,3.23c-0.014,0-0.04,0-0.053-0.027
			c-0.266-0.306-1.409-0.957-1.409-0.957c6.538-1.501,6.817-5.462,6.911-10.26c0,0,1.289,0.093,1.621,0.133
			c0.106,0.014,0.173,0.08,0.173,0.146c0,0.106-0.12,0.226-0.398,0.292C238.938,53.142,238.857,55.401,237.86,57.395z
			 M235.003,55.255c-0.784-1.728-2.379-3.349-2.379-3.349l1.05-0.638c0,0,1.635,1.635,2.459,3.176L235.003,55.255z"/>
		<path fill="#FFFFFF" d="M253.99,55.454h-4.586v4.572h5.396v1.289h-11.736v-1.289h4.904v-8.665c0,0-0.013-0.585-0.039-0.997
			c0,0,0.996,0.014,1.582,0.08c0.252,0.026,0.371,0.093,0.371,0.186c0,0.094-0.159,0.213-0.451,0.279
			c-0.027,0.199-0.027,0.372-0.027,0.479c0,0.066,0,0.106,0,0.106v2.658h4.586V55.454z"/>
		<path fill="#FFFFFF" d="M263.966,53.169c0,1.993-1.343,4.599-2.618,6.033c-0.479,0.532-0.957,0.771-1.408,0.771
			c-1.17,0-2.26-1.556-2.26-3.11c0-2.578,2.512-5.423,5.861-5.423c3.004,0,4.943,2.113,4.943,4.466c0,4.24-4.93,5.303-5.263,5.303
			c-0.026,0-0.054-0.013-0.066-0.039c-0.292-0.399-1.448-1.236-1.448-1.236c2.578-0.187,5.316-1.343,5.316-4.08
			c0-1.675-1.289-3.03-3.098-3.229C263.953,52.797,263.966,52.982,263.966,53.169z M258.982,56.837c0,1.023,0.638,1.608,0.917,1.608
			c0.159,0,0.332-0.106,0.491-0.279c1.051-1.156,2.153-3.323,2.153-4.997c0-0.146,0-0.306-0.026-0.452
			C260.577,53.222,258.982,55.188,258.982,56.837z"/>
		<path fill="#FFFFFF" d="M1.276,89.502c-0.013,0-0.026,0-0.04-0.014C0.944,89.33,0,89.197,0,89.197
			c1.037-0.943,1.489-2.366,1.648-2.857c0,0,0.837,0.213,1.209,0.398c0.08,0.04,0.12,0.106,0.12,0.173
			c0,0.08-0.093,0.173-0.279,0.173c-0.04,0-0.08,0-0.133-0.014C2.233,88.041,1.436,89.502,1.276,89.502z M4.678,86.1H3.602v-0.226
			H2.14v0.306H1.05v-8.2h3.628V86.1z M2.14,79.07v1.156h1.462V79.07H2.14z M2.14,81.289v1.196h1.462v-1.196H2.14z M2.14,83.548
			v1.249h1.462v-1.249H2.14z M12.081,79.362H7.004c0.014,0.531,0.027,1.143,0.027,1.688h3.774c0.066,0,0.16-0.079,0.226-0.079
			c0.08,0,0.851,0.638,0.851,0.771c0,0.08-0.106,0.146-0.239,0.187c-0.226,1.183-0.532,2.91-1.515,4.545
			c0.625,0.771,1.462,1.462,2.605,1.98c0,0-0.917,0.545-1.236,0.891c-0.013,0.013-0.04,0.026-0.053,0.026
			c-0.013,0-0.04-0.014-0.066-0.026c-0.811-0.519-1.462-1.144-1.994-1.821c-1.103,1.329-2.379,1.967-2.458,1.967
			c-0.026,0-0.04-0.013-0.053-0.026c-0.212-0.319-1.183-0.771-1.183-0.771c1.369-0.585,2.326-1.383,3.003-2.233
			c-0.837-1.502-1.169-3.109-1.302-4.332H7.031c-0.04,3.441-0.425,5.303-1.927,7.243c-0.026,0.04-0.053,0.053-0.08,0.053
			c-0.013,0-0.04,0-0.053-0.013c-0.346-0.213-1.342-0.372-1.342-0.372c0.438-0.412,0.784-0.851,1.076-1.316
			c-0.252,0.106-0.664,0.293-0.824,0.438c-0.013,0.014-0.027,0.027-0.04,0.027c-0.026,0-0.04-0.027-0.066-0.054
			c-0.438-0.664-0.744-1.542-0.744-1.542l0.917-0.385c0,0,0.319,0.811,0.851,1.355c0.837-1.476,1.05-3.203,1.05-5.196
			c0-0.359-0.053-3.27-0.08-4.174h6.313V79.362z M8.506,82.126c0.106,0.996,0.346,2.14,0.904,3.216
			c0.718-1.342,0.851-2.645,0.93-3.216H8.506z"/>
		<path fill="#FFFFFF" d="M19.917,85.169c-0.04,1.794-0.784,3.602-4.093,4.333c-0.013,0-0.04,0.013-0.053,0.013
			c-0.026,0-0.066-0.013-0.08-0.053c-0.213-0.332-1.223-1.05-1.223-1.05c3.628-0.359,4.133-1.9,4.133-3.256
			c0-0.625-0.027-0.878-0.053-1.037c0.199,0,1.223,0.066,1.462,0.08c0.16,0.013,0.279,0.079,0.279,0.159s-0.106,0.159-0.333,0.199
			C19.957,84.731,19.931,84.837,19.917,85.169z M26.124,79.748h-4.798v0.863h4.093v1.077h-9.396v-1.077h3.974v-0.863h-4.652v-1.104
			h4.652v-0.346c0,0,0-0.372-0.04-0.784c1.382,0,1.794,0.106,1.794,0.253c0,0.093-0.133,0.173-0.412,0.226
			c-0.013,0.173-0.013,0.306-0.013,0.479v0.173h4.798V79.748z M26.071,85.396h-1.276v-1.741h-8.147v1.728h-1.276v-2.817h10.699
			V85.396z M21.26,84.957c0,0,0-0.398-0.04-0.863c0.08,0.013,1.236,0.08,1.475,0.106c0.173,0.013,0.252,0.079,0.252,0.159
			s-0.106,0.159-0.345,0.199c-0.014,0.213-0.027,0.426-0.027,0.585c0,0,0,0.917,0,1.608c0,0.346,0,0.624,0,0.718
			c0.013,0.425,0.239,0.571,1.143,0.571c1.316,0,1.515-0.306,1.515-2.021c0,0,0.917,0.798,1.263,0.931
			c0.04,0.013,0.066,0.04,0.066,0.08c0,0.026-0.013,0.039-0.013,0.066c-0.186,1.581-0.625,2.152-3.097,2.152
			c-0.784,0-2.193-0.013-2.193-1.448V84.957z"/>
		<path fill="#FFFFFF" d="M31.738,85.09c-0.877,0-1.595-0.718-1.595-1.596c0-0.877,0.718-1.595,1.595-1.595
			c0.877,0,1.595,0.718,1.595,1.595C33.333,84.373,32.616,85.09,31.738,85.09z"/>
		<path fill="#FFFFFF" d="M48.663,80.292h-5.382c-0.186,0.372-0.399,0.744-0.638,1.09c1.09,0.053,1.462,0.079,1.462,0.252
			c0,0.08-0.106,0.173-0.345,0.226c-0.014,0.239-0.04,0.679-0.04,0.679v0.505l0.97-0.279v-1.01c0,0-0.013-0.705-0.04-1.104
			c0,0,1.077,0.04,1.342,0.093c0.133,0.027,0.2,0.08,0.2,0.16c0,0.079-0.12,0.186-0.359,0.239c-0.014,0.212-0.027,0.638-0.027,0.638
			v0.638l2.246-0.664c0,0.159,0,0.345,0,0.558c0,1.05-0.053,2.592-0.173,3.229c-0.172,0.864-0.651,1.355-1.555,1.396
			c-0.066,0-0.093-0.013-0.106-0.066c-0.053-0.239-0.266-0.651-0.412-0.93v0.97h-1.116v-3.07l-0.97,0.279l-0.013,3.27
			c0,0.718,0.744,0.718,1.688,0.718c0.465,0,0.944-0.026,1.422-0.093c0.824-0.12,0.97-0.452,0.97-1.901c0,0,0.851,0.784,1.169,0.957
			c0.04,0.027,0.04,0.066,0.04,0.12c-0.226,1.78-1.183,2.1-3.482,2.1c-1.501,0-2.924-0.053-2.924-1.635l0.014-3.203l-0.678,0.199
			l-0.239-0.996l0.917-0.279v-0.851c0,0,0-0.611-0.027-1.037c-0.013,0.027-0.332,0.452-0.385,0.452c-0.013,0-0.027,0-0.04-0.013
			c-0.332-0.227-1.236-0.399-1.236-0.399c0.306-0.292,0.571-0.611,0.811-0.943h-2.126c-0.013,0.386-0.04,0.837-0.066,1.343h2.1
			c0,1.183-0.067,4.452-0.386,5.675c-0.279,1.103-0.784,1.568-1.728,1.568c-0.146,0-0.319-0.014-0.492-0.04
			c-0.053-0.014-0.093,0-0.093-0.054c-0.04-0.252-0.306-0.797-0.479-1.129c-0.173,0.451-0.372,0.877-0.598,1.275
			c-0.013,0.04-0.026,0.066-0.053,0.066c-0.014,0-0.027,0-0.04-0.013c-0.306-0.16-1.369-0.267-1.369-0.267
			c1.914-2.392,1.954-6.485,1.98-8.426h-1.396v-1.156h1.661v-0.877c0,0,0-0.505-0.04-1.023c0,0,1.156,0.04,1.422,0.093
			c0.133,0.026,0.226,0.093,0.226,0.173s-0.106,0.173-0.386,0.226c-0.026,0.319-0.026,0.625-0.026,0.625v0.784h1.98v1.01
			c0.864-1.289,1.236-2.685,1.315-3.03c0.066,0.014,1.037,0.173,1.329,0.279c0.12,0.04,0.173,0.106,0.173,0.159
			c0,0.094-0.146,0.187-0.399,0.187c-0.013,0-0.026,0-0.04,0c-0.08,0.239-0.213,0.638-0.399,1.104h4.864V80.292z M39.466,83.03
			c-0.133,1.488-0.385,3.203-0.93,4.731c0.319,0.093,0.598,0.159,0.824,0.159c0.359,0,0.611-0.146,0.718-0.598
			c0.266-1.104,0.346-3.07,0.346-4.293H39.466z M45.806,83.508v2.206c0.133,0.026,0.266,0.04,0.372,0.04
			c0.651,0,0.758-0.559,0.758-2.578L45.806,83.508z"/>
		<path fill="#FFFFFF" d="M62.121,80.504h-4.346v6.526h5.183v1.315H51.263v-1.315h5.077v-6.526h-4.279v-1.289h10.061V80.504z"/>
		<path fill="#FFFFFF" d="M77.015,81.461h-1.103v0.704h-3.881l-0.013,0.864h3.668v1.023h-3.681v0.625c0,0.066,0,0.146-0.014,0.239
			h4.998v1.103l-4.625-0.04c0.571,0.904,1.94,2.047,5.303,2.047c0.04,0,0.08,0,0.12,0c0,0-0.877,0.891-1.09,1.303
			c-0.013,0.026-0.053,0.026-0.08,0.026c-2.991-0.199-4.453-1.701-5.117-2.804c-0.625,1.156-2.02,2.445-5.05,2.937
			c-0.013,0-0.026,0.014-0.04,0.014c-0.027,0-0.053-0.014-0.066-0.04c-0.187-0.332-1.063-1.13-1.063-1.13
			c3.123-0.279,4.572-1.183,5.17-2.339l-4.465,0.026v-1.103h4.784c0.027-0.133,0.04-0.267,0.04-0.399
			c0-0.146,0.013-0.306,0.013-0.465H67.26V83.03h3.588v-0.864h-3.801v-0.73h-1.103v-2.632h4.877v-0.438c0,0,0-0.465-0.04-0.891
			c0,0,1.037,0.014,1.555,0.08c0.133,0.014,0.252,0.106,0.252,0.187c0,0.093-0.12,0.199-0.425,0.252
			c-0.026,0.199-0.026,0.492-0.026,0.492v0.318h4.877V81.461z M67.207,79.92v1.209h3.628c0-0.479-0.013-0.811-0.013-0.877
			c0,0,1.023,0.026,1.382,0.079c0.199,0.027,0.266,0.094,0.266,0.16c0,0.093-0.172,0.199-0.412,0.239l-0.014,0.398h3.682V79.92
			H67.207z"/>
		<path fill="#FFFFFF" d="M80.664,88.904c-0.013,0-0.013,0-0.027,0c-0.266-0.105-1.05-0.159-1.05-0.159
			c0.731-1.595,0.904-3.469,0.917-3.788c1.143,0.213,1.223,0.227,1.223,0.346c0,0.094-0.093,0.173-0.319,0.213
			C81.355,86.18,80.863,88.904,80.664,88.904z M83.708,81.342c0.332,0.678,0.864,1.9,1.05,2.777l-0.89,0.386
			c-0.053-0.279-0.12-0.571-0.2-0.877c-0.212,0.053-0.479,0.105-0.784,0.172l0.04,5.729H81.78L81.82,84
			c-0.452,0.079-0.93,0.159-1.422,0.239c-0.013,0.212-0.093,0.372-0.186,0.372c-0.066,0-0.133-0.08-0.186-0.267
			c-0.106-0.372-0.279-1.183-0.279-1.183c0.332-0.013,0.665-0.026,1.01-0.066c0.239-0.318,0.479-0.678,0.705-1.023
			c-0.346-0.465-0.93-1.156-1.595-1.688l0.531-0.891c0.133,0.106,0.266,0.226,0.386,0.346c0.571-0.904,1.063-2.353,1.09-2.433
			c0.133,0.054,1.289,0.506,1.289,0.705c0,0.066-0.066,0.119-0.213,0.119c-0.04,0-0.093,0-0.146-0.013
			c-0.292,0.544-0.824,1.621-1.316,2.325c0.2,0.227,0.386,0.438,0.532,0.611c0.651-1.076,1.143-2.073,1.289-2.459
			c0.931,0.466,1.236,0.705,1.236,0.851c0,0.067-0.053,0.106-0.173,0.106c-0.053,0-0.12,0-0.213-0.026
			c-0.08,0.133-1.169,1.94-2.14,3.322c0.532-0.079,1.01-0.172,1.342-0.239c-0.133-0.385-0.306-0.744-0.479-1.022L83.708,81.342z
			 M83.88,84.757c0.093,0.253,0.545,1.648,0.731,2.911l-0.957,0.306c-0.093-1.343-0.492-2.751-0.598-2.99L83.88,84.757z
			 M87.867,88.027c0,0.08-0.093,0.146-0.252,0.146c-0.066,0-0.146-0.014-0.239-0.04c0,0-1.315,1.023-2.924,1.422
			c-0.013,0-0.04,0.014-0.053,0.014c-0.013,0-0.04-0.014-0.053-0.04c-0.186-0.239-1.037-0.811-1.037-0.811
			c2.153-0.306,3.509-1.436,3.509-1.436s0.665,0.372,0.957,0.599C87.841,87.92,87.867,87.974,87.867,88.027z M91.536,79.215h-2.964
			v0.559h2.645v0.771h-2.645v0.599h3.256v0.877h-7.469v-0.877h3.057v-0.599H84.97v-0.771h2.445v-0.559h-2.711v-0.851h2.711v-0.106
			c0,0-0.013-0.505-0.04-0.771c1.303,0,1.595,0.08,1.595,0.199c0,0.08-0.12,0.159-0.373,0.199c-0.013,0.146-0.026,0.412-0.026,0.412
			v0.066h2.964V79.215z M90.844,87.469h-1.103V87.15h-3.482v0.306h-1.077v-4.917h5.662V87.469z M86.259,83.323v0.531h3.482v-0.531
			H86.259z M86.259,84.572v0.571h3.482v-0.571H86.259z M86.259,85.847v0.572h3.482v-0.572H86.259z M89.157,87.216
			c0,0,1.262,0.983,3.136,1.369c0,0-0.851,0.545-1.05,0.824c-0.013,0.026-0.026,0.026-0.053,0.026c-0.013,0-0.026,0-0.053-0.014
			c-1.635-0.412-2.817-1.595-2.817-1.595L89.157,87.216z"/>
		<path fill="#FFFFFF" d="M101.67,80.053c-1.169,0.239-2.193,0.425-3.043,0.545c-0.279,0.491-0.704,1.103-1.09,1.595
			c-0.026,0.026-0.026,0.04-0.013,0.04c0.027,0,0.053-0.014,0.08-0.04c0.611-0.438,1.13-0.545,1.635-0.545
			c0.758,0.013,1.303,0.505,1.555,1.302c1.236-0.545,2.445-0.97,3.137-1.262l0.943,1.143c0.027,0.04,0.04,0.066,0.04,0.093
			c0,0.054-0.08,0.066-0.173,0.08c-1.236,0.213-2.618,0.664-3.814,1.209c-0.026,0.599-0.08,1.688-0.093,2.233l-1.303,0.119
			c0.013-0.438,0.053-1.156,0.08-1.728c-0.638,0.358-1.674,1.023-1.674,1.781c0,0.318,0.146,1.09,2.1,1.09
			c0.891,0,2.06-0.253,3.177-0.572c0,0-0.239,1.051-0.252,1.449c0,0.066-0.027,0.079-0.08,0.093
			c-0.665,0.173-1.768,0.332-2.791,0.332c-2.06,0-3.442-0.863-3.442-2.312c0-1.249,1.223-2.286,2.977-3.203
			c-0.066-0.638-0.319-0.89-0.824-0.89c-0.904,0-2.233,1.408-2.95,2.538l-1.276-0.412c-0.067-0.013-0.093-0.04-0.093-0.066
			s0.013-0.053,0.04-0.093c0.345-0.386,0.851-0.917,1.143-1.303c0.585-0.797,1.156-1.701,1.595-2.498
			c-0.173,0.013-0.333,0.026-0.479,0.026c-0.146,0.013-0.292,0.013-0.425,0.013c-0.519,0-0.93-0.066-1.289-0.239l-0.133-1.223
			c0-0.013,0-0.026,0-0.04c0-0.039,0.014-0.053,0.04-0.053c0.027,0,0.053,0.014,0.093,0.026c0.518,0.239,1.103,0.359,1.701,0.346
			c0.279,0,0.611-0.026,0.997-0.066c0.213-0.519,0.412-1.143,0.558-1.728c0,0,1.662,0.199,1.662,0.452
			c0,0.105-0.16,0.186-0.439,0.199c-0.093,0.226-0.239,0.558-0.385,0.877c0.771-0.133,1.622-0.332,2.552-0.585L101.67,80.053z"/>
		<path fill="#FFFFFF" d="M110.304,80.08h1.302v1.116h-1.302v1.888c0.558-0.213,0.997-0.426,1.209-0.545
			c0,0-0.014,0.239-0.014,0.505c0,0.226,0.014,0.465,0.04,0.598c0,0.014,0,0.026,0,0.04c0,0.053-0.412,0.266-1.236,0.611v2.246
			c0,0.651,0.04,1.143,0.04,1.236c0,1.302-0.851,1.621-1.94,1.621c-0.08,0-0.146,0-0.213,0c-0.053,0-0.08-0.014-0.093-0.053
			c-0.093-0.373-0.731-1.276-0.731-1.276c0.253,0.026,0.612,0.093,0.944,0.093c0.412,0,0.757-0.093,0.757-0.479v-2.884
			c-0.345,0.12-0.678,0.253-1.01,0.359c0,0.039,0,0.066,0,0.105c0,0.2-0.066,0.293-0.146,0.293c-0.053,0-0.12-0.054-0.172-0.146
			c-0.2-0.358-0.625-1.315-0.625-1.315c0.665-0.146,1.329-0.346,1.954-0.559v-2.339h-1.688V80.08h1.688v-1.555
			c0,0,0-0.585-0.04-1.037c0,0,1.01,0.04,1.382,0.08c0.172,0.013,0.266,0.093,0.266,0.159c0,0.08-0.106,0.173-0.346,0.213
			c-0.026,0.279-0.026,0.664-0.026,0.664V80.08z M118.717,80.146h-2.871v1.156h3.362v1.116h-7.722v-1.116h3.124v-1.156h-2.671V79.03
			h2.671v-0.466c0,0,0-0.558-0.04-1.036c0,0,1.09,0.013,1.462,0.066c0.146,0.026,0.213,0.08,0.213,0.146
			c0,0.093-0.12,0.186-0.373,0.226c-0.026,0.279-0.026,0.678-0.026,0.678v0.386h2.871V80.146z M119.235,84.824h-1.662v1.622
			c0,0.651,0.027,1.143,0.027,1.235c0,0.014,0,0.027,0,0.04c0,1.396-1.183,1.715-2.339,1.715c-0.186,0-0.372-0.014-0.545-0.026
			c-0.04,0-0.093-0.014-0.106-0.054c-0.093-0.386-0.811-1.315-0.811-1.315c0.465,0.08,0.997,0.159,1.449,0.159
			c0.611,0,1.09-0.146,1.09-0.678v-2.698h-4.665v-1.156h4.665v-0.053c0-0.133-0.013-0.625-0.04-0.931c0,0,0.997,0.054,1.409,0.106
			c0.173,0.014,0.252,0.093,0.252,0.173s-0.106,0.187-0.359,0.226c-0.013,0.106-0.013,0.319-0.027,0.479h1.662V84.824z
			 M114.065,87.642c-0.625-1.09-1.874-1.98-1.874-1.98l0.851-0.691c0,0,1.249,0.837,2.02,1.768L114.065,87.642z"/>
		<path fill="#FFFFFF" d="M121.555,82.02c-0.013-0.026-0.04-0.054-0.04-0.066c0-0.026,0.026-0.04,0.08-0.054
			c1.183-0.199,2.485-0.811,3.748-1.249c1.023-0.358,2.153-0.651,3.416-0.651c2.791,0,3.748,1.741,3.748,3.31
			c0,3.11-3.801,4.744-7.097,4.812c-0.066,0-0.08,0-0.12-0.054c-0.266-0.425-1.29-1.342-1.29-1.342c0.173,0,0.346,0.013,0.519,0.013
			c3.509,0,6.486-1.236,6.486-3.455c0-0.253-0.027-2.034-2.299-2.034c-1.063,0-1.994,0.267-2.897,0.651
			c-1.169,0.505-2.233,1.17-3.216,1.436L121.555,82.02z"/>
		<path fill="#FFFFFF" d="M145.778,78.817h-4.146v0.638h5.117v2.658h-1.196v-1.781h-3.921v2.565h-1.236v-2.565h-3.868v1.755h-1.196
			v-2.632h5.064v-0.638h-4.054V77.86h9.436V78.817z M145.38,87.681h-1.196v-0.332h-2.592v0.306c0,0.625,0.239,0.651,1.834,0.651
			c0.757,0,1.542-0.04,1.927-0.093c0.572-0.08,0.705-0.691,0.705-1.635c0-0.093,0-0.187,0-0.279c0,0,0.811,0.851,1.183,1.023
			c0.04,0.014,0.053,0.066,0.053,0.119c-0.199,1.848-1.342,1.928-3.92,1.928c-1.635,0-2.977-0.054-2.977-1.556v-0.465h-2.419v0.811
			h-1.169v-4.837h8.572V87.681z M139.785,81.568h-2.725v-0.704h2.725V81.568z M139.785,82.75h-2.725v-0.704h2.725V82.75z
			 M137.977,84.173v0.704h2.419v-0.704H137.977z M137.977,85.674v0.798h2.419v-0.798H137.977z M141.592,84.173v0.704h2.592v-0.704
			H141.592z M141.592,85.674v0.798h2.592v-0.798H141.592z M144.981,81.568h-2.751v-0.704h2.751V81.568z M144.981,82.75h-2.751
			v-0.704h2.751V82.75z"/>
		<path fill="#FFFFFF" d="M160.299,79.748h-7.721c-1.077,1.847-1.741,2.285-1.754,2.285c0,0-0.013,0-0.027-0.013
			c-0.319-0.213-1.342-0.492-1.342-0.492c1.529-1.05,2.499-2.884,2.871-4.133c0,0,1.063,0.252,1.369,0.358
			c0.093,0.04,0.146,0.093,0.146,0.16c0,0.093-0.133,0.186-0.439,0.199c-0.066,0.159-0.146,0.318-0.226,0.491h7.123V79.748z
			 M156.711,88.771c-0.664-0.664-1.449-1.302-2.206-1.847c-1.648,1.647-3.535,2.405-3.575,2.405c-0.027,0-0.04,0-0.066-0.026
			c-0.253-0.279-1.343-0.891-1.343-0.891c1.728-0.479,3.004-1.276,3.961-2.193c-1.29-0.823-2.312-1.355-2.312-1.355l0.731-0.824
			c0,0,1.05,0.532,2.352,1.329c0.452-0.558,0.811-1.156,1.104-1.714c0,0,0.957,0.358,1.289,0.519
			c0.119,0.053,0.186,0.133,0.186,0.199c0,0.079-0.119,0.159-0.305,0.159c-0.054,0-0.094,0-0.146-0.014
			c-0.307,0.506-0.665,1.023-1.076,1.528c0.783,0.519,1.581,1.104,2.232,1.701L156.711,88.771z M150.491,83.389v-1.104h8.825
			c-0.014,0.292-0.107,1.196-0.107,2.206c0,2.751,0.705,3.283,0.852,3.283c0.398,0,0.558-1.582,0.558-2.207c0-0.026,0-0.053,0-0.066
			c0,0,0.718,1.011,1.05,1.236c0.027,0.026,0.04,0.066,0.04,0.106c-0.253,1.595-0.931,2.499-1.661,2.499
			c-0.585,0-2.047-0.851-2.047-4.838c0-0.545,0.026-0.957,0.026-1.116H150.491z M159.196,81.488h-6.964v-1.023h6.964V81.488z"/>
		<path fill="#FFFFFF" d="M168.561,80.677h-4.811v-1.103h4.811V80.677z M173.863,82.963c0.08,0,0.146-0.093,0.24-0.093
			c0.066,0,0.982,0.558,0.982,0.758c0,0.093-0.146,0.159-0.279,0.199c-0.465,1.289-1.103,2.339-1.887,3.189
			c0.797,0.585,1.874,1.076,3.31,1.329c0,0-1.05,0.678-1.343,1.063c-0.014,0.026-0.026,0.026-0.053,0.026
			c0,0-1.462-0.386-2.831-1.582c-1.528,1.196-3.442,1.741-3.548,1.741c-0.027,0-0.054-0.013-0.066-0.04
			c-0.24-0.318-1.25-0.97-1.25-0.97c0.306-0.054,0.598-0.12,0.877-0.187h-0.97V88.24h-1.608v1.063h-1.156v-4.612h3.895v3.668
			c1.169-0.318,2.152-0.811,2.95-1.408c-0.731-0.904-1.223-1.9-1.528-2.871h-0.824v-1.116H173.863z M168.135,78.95h-3.801V77.9
			h3.801V78.95z M168.109,82.326h-3.762v-0.983h3.762V82.326z M168.096,83.96h-3.734V82.99h3.734V83.96z M165.438,85.714v1.462
			h1.608v-1.462H165.438z M173.744,80.797c0,0.093,0.039,0.306,0.492,0.306c0.346,0,0.611,0,0.611-1.17
			c0-0.199-0.014-0.386-0.014-0.491c0,0,0.784,0.784,1.129,0.956c0.041,0.014,0.041,0.066,0.041,0.106
			c-0.133,1.303-0.52,1.715-1.875,1.715c-0.903,0-1.621-0.199-1.621-1.116c0,0,0.014-1.928,0.014-2.061h-1.316
			c0,0.983,0,0.983,0,0.983c0,1.834-1.502,2.539-1.527,2.539c-0.014,0-0.027,0-0.054-0.014c-0.239-0.213-1.396-0.585-1.396-0.585
			c1.462-0.571,1.741-1.448,1.754-2.379c0-0.558-0.026-1.436-0.026-1.607h3.814L173.744,80.797z M170.82,84.08
			c0.226,0.665,0.584,1.409,1.183,2.101c0.624-0.651,1.063-1.369,1.315-2.101H170.82z"/>
		<path fill="#FFFFFF" d="M189.953,81.754h-6.898c0,0.212,0,1.195,0,1.9c0,3.974-0.983,5.568-1.05,5.568
			c-0.013,0-0.026,0-0.04-0.014c-0.279-0.133-0.957-0.226-1.183-0.252v0.571h-1.21l0.027-4.798l0.039-2.073
			c-0.398,0.891-0.703,1.382-0.77,1.382c0,0-0.014,0-0.027-0.013c-0.318-0.266-1.104-0.519-1.104-0.519
			c1.316-1.648,2.393-4.452,2.672-6.087c1.223,0.239,1.595,0.358,1.595,0.519c0,0.119-0.159,0.212-0.372,0.212
			c-0.014,0-0.039,0-0.053,0c-0.24,0.679-0.572,1.596-1.01,2.592c0.172,0.014,0.305,0.027,0.332,0.027
			c0.186,0.026,0.266,0.093,0.266,0.172c0,0.08-0.119,0.187-0.332,0.239c-0.027,0.359-0.027,0.812-0.027,0.812l-0.026,6.857
			c1.103-1.568,1.13-3.841,1.13-5.808c0-0.784-0.014-1.688-0.027-2.3h8.081L189.953,81.754z M189.939,79.641h-2.353v0.771h-1.183
			v-0.771h-1.462v0.771h-1.183v-0.771h-1.98v-1.023h1.98v-0.199c0,0-0.014-0.519-0.054-0.931c1.622,0,1.661,0.199,1.661,0.253
			c0,0.093-0.119,0.186-0.398,0.239c-0.026,0.252-0.026,0.545-0.026,0.545v0.093h1.462v-0.199c0,0-0.014-0.519-0.053-0.931
			c1.635,0,1.647,0.213,1.647,0.266c0,0.08-0.12,0.173-0.386,0.227c-0.026,0.252-0.026,0.545-0.026,0.545v0.093h2.353V79.641z
			 M189.408,87.07l0.026,1.144c0,0.013,0,0.026,0,0.04c0,0.97-0.851,1.195-1.647,1.195c-0.067,0-0.107,0-0.12-0.066
			c-0.067-0.345-0.545-1.062-0.545-1.062c0.187,0.039,0.425,0.079,0.651,0.079c0.292,0,0.545-0.079,0.545-0.358v-0.997h-1.303v2.339
			h-1.01v-2.339h-1.264v2.499h-1.062v-7.138h5.729V87.07z M184.742,83.255v0.997h1.264v-0.997H184.742z M184.742,85.117v1.063h1.264
			v-1.063H184.742z M187.016,83.255v0.997h1.303v-0.997H187.016z M187.016,85.117v1.063h1.303v-1.063H187.016z"/>
		<path fill="#FFFFFF" d="M199.145,80.731c0,1.993-1.342,4.599-2.618,6.033c-0.478,0.532-0.956,0.771-1.409,0.771
			c-1.169,0-2.259-1.556-2.259-3.11c0-2.578,2.512-5.423,5.86-5.423c3.004,0,4.945,2.113,4.945,4.466
			c0,4.24-4.932,5.303-5.264,5.303c-0.026,0-0.053-0.013-0.066-0.039c-0.293-0.399-1.449-1.236-1.449-1.236
			c2.579-0.187,5.316-1.343,5.316-4.08c0-1.675-1.289-3.03-3.096-3.229C199.131,80.359,199.145,80.544,199.145,80.731z
			 M194.16,84.399c0,1.023,0.639,1.608,0.918,1.608c0.159,0,0.332-0.106,0.492-0.279c1.049-1.156,2.152-3.323,2.152-4.997
			c0-0.146,0-0.306-0.026-0.452C195.756,80.784,194.16,82.75,194.16,84.399z"/>
		<path fill="#FFFFFF" d="M217.879,79.587h-5.012v0.731h3.789v4.638h-1.21v-0.332h-0.213v0.904h2.911v1.076h-2.911v0.266
			c0,0.346,0.026,0.824,0.026,0.997c0,0.026,0,0.053,0,0.08c0,1.289-1.129,1.528-2.272,1.528c-0.146,0-0.292-0.014-0.438-0.014
			c-0.053,0-0.093-0.014-0.106-0.066c-0.093-0.346-0.864-1.263-0.864-1.263c0.359,0.066,0.918,0.159,1.409,0.159
			c0.545,0,0.997-0.119,0.997-0.545v-1.143h-4.611c0.346,0.133,1.488,0.611,2.232,1.183l-0.758,1.104
			c-0.877-0.838-2.26-1.476-2.26-1.476l0.652-0.811h-2.766v-1.076h7.51v-0.904h-4.771v0.372h-1.195v-4.678h3.641v-0.731h-4.904
			v-1.09h4.904v-0.093c0,0-0.014-0.625-0.039-0.957c0.066,0.014,1.036,0.026,1.395,0.08c0.199,0.026,0.307,0.093,0.307,0.173
			c0,0.093-0.146,0.186-0.426,0.239c-0.014,0.133-0.027,0.491-0.027,0.491v0.066h5.012V79.587z M209.213,81.209v0.811h2.445v-0.811
			H209.213z M209.213,82.883v0.864h2.445v-0.864H209.213z M212.867,81.209v0.811h2.579v-0.811H212.867z M212.867,82.883v0.864h2.579
			v-0.864H212.867z"/>
		<path fill="#FFFFFF" d="M226.1,83.03h-1.183v-0.425h-2.392v7.004h-1.276V77.914h4.851V83.03z M222.525,78.95v0.837h2.392V78.95
			H222.525z M222.525,80.731v0.891h2.392v-0.891H222.525z M232.146,85.768c0,0,0.027,1.275,0.027,1.927
			c0,1.462-1.25,1.82-2.393,1.82c-0.146,0-0.292,0-0.438-0.013c-0.04,0-0.079-0.026-0.093-0.054
			c-0.186-0.505-0.971-1.368-0.971-1.368c0.346,0.04,0.918,0.133,1.436,0.133c0.611,0,1.156-0.133,1.156-0.678v-4.931h-2.472v0.425
			h-1.183v-5.116h4.93V85.768z M228.399,78.95v0.837h2.472V78.95H228.399z M228.399,80.731v0.891h2.472v-0.891H228.399z"/>
		<path fill="#FFFFFF" d="M245.008,81.741l-1.994-0.014c0.105,0.665,0.252,1.409,0.505,2.18c0.837-0.412,1.914-1.196,2.06-1.408
			c0,0,0.864,0.903,0.943,1.036c0.027,0.04,0.041,0.094,0.041,0.146s-0.027,0.093-0.107,0.093c-0.066,0-0.158-0.026-0.305-0.093
			c0,0-1.396,0.837-2.22,1.236c0.624,1.263,1.647,2.432,3.362,3.083c0,0-1.037,0.545-1.342,0.877
			c-0.014,0.014-0.027,0.026-0.054,0.026c-0.013,0-0.026-0.013-0.04-0.013c-2.459-1.303-3.654-4.745-3.974-7.177h-0.558
			c-0.187,0.173-0.466,0.398-0.824,0.651c1.448,1.355,1.794,3.282,1.794,4.319c0,1.754-0.957,2.791-2.485,2.791
			c-0.239,0-0.505-0.027-0.784-0.08c-0.04-0.014-0.066-0.014-0.079-0.053c-0.08-0.319-0.691-1.236-0.691-1.236
			c0.465,0.146,0.917,0.239,1.328,0.239c0.878,0,1.543-0.452,1.543-1.808c0-0.014,0-0.014,0-0.026c0-0.173-0.014-0.332-0.027-0.505
			c-2.007,2.033-4.918,2.725-4.918,2.725c-0.039,0-0.066-0.014-0.079-0.027c-0.199-0.278-1.169-0.93-1.169-0.93
			c2.949-0.452,4.851-1.861,5.9-2.911c-0.066-0.226-0.16-0.438-0.266-0.651c-2.127,1.755-4.293,2.18-4.293,2.18
			c-0.027,0-0.053-0.013-0.066-0.04c-0.173-0.266-1.076-0.877-1.076-0.877c2.379-0.306,4.173-1.448,4.943-2.086
			c-0.133-0.173-0.266-0.333-0.412-0.492c-0.877,0.505-1.953,1.01-3.109,1.223c-0.014,0-0.027,0-0.027,0
			c-0.039,0-0.066-0.014-0.093-0.04c-0.159-0.252-0.97-0.851-0.97-0.851c2.007-0.212,3.562-1.01,4.332-1.502l-2.697,0.014v-1.023
			h7.908V81.741z M246.615,81.449h-1.275V79.8h-8.626v1.635h-1.223V78.71h4.864v-0.319c0,0,0-0.491-0.04-0.956
			c0,0,1.011,0.039,1.542,0.093c0.133,0.013,0.239,0.093,0.239,0.186c0,0.08-0.106,0.187-0.412,0.239
			c-0.013,0.12-0.013,0.253-0.013,0.359s0,0.186,0,0.186v0.213h4.943V81.449z"/>
		<path fill="#FFFFFF" d="M257.162,83.295c-2.513,0.106-5.994,1.037-5.994,2.725c0,1.236,1.807,1.396,2.75,1.396
			c1.25,0,2.699-0.266,3.922-0.704c-0.014,0.066-0.267,1.156-0.267,1.621c0,0.054-0.013,0.08-0.066,0.094
			c-1.036,0.252-2.126,0.385-3.149,0.385c-0.585,0-4.572-0.013-4.572-2.711c0-1.369,1.196-2.393,2.791-3.097
			c-0.306-0.678-0.346-1.343-0.346-1.755c0-0.465,0.027-1.01,0.04-1.634c0-0.426-0.013-1.023-0.066-1.662c0-0.026,0-0.053,0-0.066
			c0-0.04,0.013-0.066,0.054-0.066c0.039,0,1.143,0.146,1.621,0.227c0.133,0.026,0.213,0.093,0.213,0.159
			c0,0.08-0.094,0.159-0.319,0.226c-0.173,2.419-0.173,2.539-0.173,2.765c0,0.531,0.066,0.943,0.252,1.315
			c0.387-0.133,0.785-0.239,1.197-0.346c0.624-0.159,1.448-0.318,1.967-0.465c0.026-0.013,0.053-0.013,0.066-0.013
			c0.066,0,0.093,0.039,0.093,0.105L257.162,83.295z"/>
		<path fill="#FFFFFF" d="M262.736,85.223c0,1.103,0.094,2.299,1.768,2.299c2.22,0,4.134-2.272,4.745-3.163
			c0,0,0.319,1.276,0.532,1.661c0.013,0.026,0.025,0.054,0.025,0.08c0,0.013-0.013,0.04-0.039,0.066
			c-0.744,0.891-2.857,2.777-5.316,2.777c-3.084,0-3.097-2.564-3.097-3.761c0-1.741,0.239-3.668,0.239-5.636
			c0-0.345-0.014-0.704-0.026-1.05c0.386,0.014,1.368,0.094,1.728,0.16c0.186,0.026,0.266,0.105,0.266,0.186
			c0,0.12-0.172,0.239-0.426,0.293C263.043,81.249,262.736,83.641,262.736,85.223z"/>
		<path fill="#FFFFFF" d="M270.877,80.345c-0.026-0.053-0.04-0.093-0.04-0.119c0-0.04,0.04-0.067,0.146-0.067
			c2.1-0.026,5.13-0.956,9.37-1.408c0.066,0,0.105-0.014,0.159-0.04c0.066-0.026,0.12-0.053,0.159-0.053
			c0.239,0,0.639,1.368,0.639,1.382c0,0.066-0.041,0.106-0.12,0.106c-0.054,0-0.12-0.014-0.213-0.054
			c-0.744,0.04-1.223,0.146-1.701,0.333c-1.223,0.479-3.469,2.419-3.469,4.146c0,2.113,2.405,2.604,4.426,2.671
			c0,0-0.877,0.971-1.116,1.409c-0.027,0.04-0.053,0.053-0.094,0.053c-0.013,0-0.013,0-0.025,0c-2.499-0.385-4.533-1.688-4.533-3.92
			c0-1.409,0.984-3.11,2.725-4.399c-2.033,0.306-4.026,1.036-5.635,1.263L270.877,80.345z"/>
		<path fill="#FFFFFF" d="M286.182,89.555c-0.771-0.996-1.834-1.979-2.831-2.645l0.943-0.864c0.891,0.506,2.246,1.556,3.004,2.34
			L286.182,89.555z"/>
		<path fill="#FFFFFF" d="M33.192,106.378h-4.146v0.638h5.117v2.658h-1.196v-1.781h-3.921v2.565H27.81v-2.565h-3.868v1.755h-1.196
			v-2.632h5.064v-0.638h-4.054v-0.957h9.436V106.378z M32.793,115.243h-1.196v-0.332h-2.592v0.306c0,0.625,0.239,0.651,1.834,0.651
			c0.757,0,1.542-0.04,1.927-0.093c0.572-0.08,0.705-0.691,0.705-1.635c0-0.093,0-0.187,0-0.279c0,0,0.811,0.851,1.183,1.023
			c0.04,0.014,0.053,0.066,0.053,0.119c-0.199,1.848-1.342,1.928-3.92,1.928c-1.635,0-2.977-0.054-2.977-1.556v-0.465h-2.419v0.811
			h-1.169v-4.837h8.572V115.243z M27.198,109.129h-2.725v-0.704h2.725V109.129z M27.198,110.312h-2.725v-0.704h2.725V110.312z
			 M25.391,111.735v0.704h2.419v-0.704H25.391z M25.391,113.236v0.798h2.419v-0.798H25.391z M29.005,111.735v0.704h2.592v-0.704
			H29.005z M29.005,113.236v0.798h2.592v-0.798H29.005z M32.395,109.129h-2.751v-0.704h2.751V109.129z M32.395,110.312h-2.751
			v-0.704h2.751V110.312z"/>
		<path fill="#FFFFFF" d="M40.271,117.064h-1.329l0.093-4.957c0-0.253,0.04-1.303,0.066-2.22c-0.824,1.13-1.396,1.714-1.422,1.714
			c-0.013,0-0.027-0.013-0.04-0.026c-0.266-0.239-1.183-0.651-1.183-0.651c2.179-1.728,3.508-4.837,3.774-5.768
			c0.983,0.292,1.542,0.465,1.542,0.638c0,0.093-0.12,0.173-0.332,0.173c-0.027,0-0.066-0.014-0.106-0.014
			c-0.252,0.599-0.691,1.462-1.25,2.406c0.186,0,0.346,0.013,0.372,0.013c0.213,0.027,0.306,0.094,0.306,0.173
			c0,0.094-0.159,0.199-0.398,0.266c-0.013,0.227-0.027,0.864-0.027,0.864L40.271,117.064z M42.61,106.431
			c0,0-0.013-0.771-0.04-1.143c0,0,1.103,0.053,1.528,0.106c0.146,0.026,0.253,0.093,0.253,0.173c0,0.066-0.106,0.159-0.373,0.213
			c-0.013,0.199-0.026,0.398-0.026,0.744c0,0.611,0,1.993-0.013,3.469c1.688-1.077,2.751-2.087,3.283-2.831
			c0,0,0.757,0.638,1.156,1.023c0.08,0.066,0.12,0.146,0.12,0.199c0,0.066-0.066,0.119-0.2,0.119c-0.066,0-0.159-0.013-0.279-0.053
			c-0.877,0.851-2.711,2.26-4.08,3.03c-0.013,1.768-0.013,3.31-0.013,3.362c0.026,0.519,0.358,0.638,1.382,0.638
			c1.861,0,2.126-0.226,2.126-2.896c0,0,0.97,0.89,1.316,1.062c0.04,0.014,0.04,0.066,0.04,0.106
			c-0.226,2.805-1.316,2.978-3.509,2.978c-1.329,0-2.698-0.027-2.698-1.622L42.61,106.431z"/>
		<path fill="#FFFFFF" d="M62.274,108.665c0,0,0.731,1.023,0.891,2.033l-0.744,0.452c-0.067-0.293-0.16-0.585-0.253-0.851
			c-0.292,0.053-0.651,0.119-1.076,0.186c0.212,0.146,0.558,0.438,0.784,0.771l-0.239,0.199h1.435v1.023h-3.349
			c0.133,0.505,0.292,0.943,0.465,1.302c0.492-0.518,0.784-0.996,0.917-1.263c0,0,0.824,0.466,1.116,0.691
			c0.053,0.04,0.08,0.093,0.08,0.146c0,0.08-0.066,0.146-0.226,0.146c-0.053,0-0.133-0.014-0.226-0.04
			c-0.346,0.398-0.704,0.824-1.143,1.249c0.559,0.718,0.891,0.784,1.01,0.784c0.465,0,0.558-0.891,0.611-1.9
			c0,0,0.678,0.891,1.023,1.103c0.026,0.014,0.04,0.054,0.04,0.08c0,0,0,0.014,0,0.026c-0.253,1.316-0.864,2.007-1.608,2.007
			c-0.532,0-1.342-0.479-1.94-1.355c-1.396,1.05-2.937,1.502-2.937,1.502c-0.013,0-0.04-0.014-0.053-0.026
			c-0.213-0.266-1.169-0.824-1.169-0.824c1.608-0.319,2.791-0.917,3.628-1.542c-0.279-0.585-0.531-1.275-0.731-2.086h-1.9
			c0,0.093,0,0.199-0.013,0.306c0.385,0.385,1.103,1.023,1.914,1.368c0,0-0.717,0.426-0.957,0.705c0,0-0.014,0.013-0.027,0.013
			s-0.026-0.013-0.04-0.013c-0.319-0.227-0.691-0.585-1.01-0.904c-0.16,0.931-0.558,1.994-1.528,2.857
			c-0.027,0.014-0.04,0.027-0.066,0.027c-0.014,0-0.027,0-0.04-0.014c-0.226-0.173-0.837-0.346-1.09-0.398v0.598h-1.196v-2.671
			c0-0.798,0.053-2.34,0.093-3.549c-0.425,1.728-0.851,2.564-0.904,2.564c0,0-0.013,0-0.026-0.013
			c-0.253-0.239-1.01-0.519-1.01-0.519c0.97-1.342,1.502-3.27,1.701-4.106h-1.143v-1.13h1.303v-1.542c0,0,0-0.518-0.04-0.93
			c0,0,0.864,0.026,1.329,0.079c0.173,0.014,0.252,0.094,0.252,0.16c0,0.093-0.106,0.199-0.346,0.252
			c-0.013,0.106-0.013,0.253-0.013,0.359c0,0.119,0,0.199,0,0.199v1.422h0.824l-0.2-0.159l0.492-0.731
			c0.106,0.093,0.226,0.187,0.333,0.293c0.452-0.665,0.864-1.635,0.917-1.795c0,0,0.598,0.266,0.957,0.505
			c0.053,0.04,0.093,0.106,0.093,0.16c0,0.066-0.053,0.133-0.186,0.133c-0.04,0-0.08,0-0.133-0.014
			c-0.266,0.466-0.651,1.063-1.063,1.608c0.2,0.213,0.373,0.412,0.492,0.571c0.385-0.598,0.665-1.103,0.771-1.355
			c0,0,0.678,0.438,0.811,0.559c0.013,0.013,0.026,0.026,0.04,0.053c-0.013-0.452-0.013-0.903-0.013-1.382
			c0-0.306-0.013-0.625-0.04-0.931c0,0,1.209,0.066,1.422,0.093c0.159,0.027,0.279,0.094,0.279,0.187
			c0,0.079-0.12,0.173-0.425,0.239c-0.026,0.531-0.053,1.036-0.053,1.528l0.425-0.625c0.133,0.106,0.266,0.227,0.385,0.346
			c0.438-0.625,0.851-1.502,0.891-1.621c0,0,0.611,0.306,0.943,0.519c0.066,0.039,0.093,0.105,0.093,0.159
			c0,0.066-0.053,0.133-0.173,0.133c-0.053,0-0.093-0.014-0.16-0.026c-0.279,0.479-0.651,1.01-0.997,1.462
			c0.173,0.186,0.319,0.372,0.438,0.505c0.452-0.665,0.811-1.223,0.93-1.488c0,0,0.678,0.465,0.797,0.584
			c0.066,0.066,0.12,0.16,0.12,0.239c0,0.054-0.04,0.106-0.146,0.106c-0.04,0-0.106-0.013-0.186-0.04
			c-0.16,0.227-0.997,1.356-1.808,2.313c0.452-0.04,0.851-0.106,1.156-0.146c-0.093-0.199-0.199-0.386-0.306-0.571L62.274,108.665z
			 M57.529,108.876c0,0,0.438,0.758,0.585,1.928l-0.758,0.346c-0.026-0.199-0.053-0.399-0.08-0.572
			c-0.492,0.094-1.156,0.213-1.967,0.319c-0.027,0.133-0.093,0.253-0.173,0.253c-0.053,0-0.106-0.054-0.146-0.213l-0.026-0.093
			c-0.213,0.079-0.505,0.212-0.638,0.318c-0.013,0.014-0.013,0.014-0.026,0.014s-0.04-0.014-0.053-0.04
			c-0.199-0.412-0.399-0.97-0.532-1.396c0.027,1.369,0.106,4.173,0.106,4.691v1.888c1.714-1.223,1.768-2.951,1.781-3.841h-1.05
			v-1.023h3.814c-0.199-1.063-0.333-2.312-0.385-3.748c-0.027,0-0.053,0.013-0.08,0.013c-0.04,0-0.106-0.013-0.173-0.026
			c-0.133,0.199-0.904,1.303-1.661,2.26c0.385-0.04,0.744-0.08,1.023-0.133c-0.08-0.227-0.16-0.452-0.279-0.691L57.529,108.876z
			 M54.778,108.731h-0.877c0.146,0.332,0.479,0.983,0.931,1.581l-0.08-0.292h0.279c0.292-0.359,0.571-0.744,0.824-1.104
			c-0.212-0.292-0.598-0.757-1.076-1.196V108.731z M59.589,109.794c0.292-0.333,0.571-0.679,0.837-1.037
			c-0.239-0.319-0.718-0.903-1.289-1.382c0,0.079,0,0.146,0,0.226c0,1.542,0.133,2.817,0.332,3.854h1.449
			c-0.319-0.426-0.665-0.639-0.665-0.639l0.412-0.266c-0.226,0.026-0.465,0.066-0.705,0.094c-0.026,0.186-0.093,0.306-0.173,0.306
			c-0.066,0-0.133-0.066-0.186-0.239c-0.053-0.16-0.266-0.917-0.266-0.917H59.589z"/>
		<path fill="#FFFFFF" d="M76.583,109.302h-1.116v-0.426h-2.273v0.479H72.13c-0.133,0.213-0.292,0.466-0.492,0.731h5.781v1.104
			l-3.548-0.027c0.797,0.611,2.046,1.289,4.106,1.741c0,0-0.864,0.651-1.09,0.997c-0.013,0.026-0.04,0.04-0.053,0.04
			c-0.013,0-0.026-0.014-0.04-0.014c-0.106-0.04-0.213-0.08-0.319-0.106l0.026,3.15h-1.156v-0.506h-2.14v0.572h-1.09v-4.492h1.86
			c-0.717-0.492-1.276-0.983-1.648-1.396h-1.528c-0.452,0.465-0.983,0.943-1.595,1.396h1.754v4.426h-1.103v-0.506h-1.927v0.572
			h-1.143l0.027-3.07c-0.146,0.053-0.279,0.119-0.426,0.173c-0.013,0-0.026,0.013-0.053,0.013c-0.014,0-0.04-0.013-0.053-0.026
			c-0.226-0.292-1.13-0.877-1.13-0.877c1.568-0.452,3.004-1.156,4.107-2.087l-3.615,0.027v-1.104h4.585
			c0.199-0.253,0.385-0.505,0.558-0.771h-0.93v-0.426h-2.207v0.479h-1.129v-3.867h4.439v3.509c0.066-0.12,0.133-0.239,0.186-0.359
			c0.04,0,0.584,0.159,0.957,0.279v-3.429h4.479V109.302z M67.651,106.498v1.449h2.207l0.013-1.449H67.651z M67.931,113.542v1.901
			h1.927v-1.901H67.931z M73.193,106.498v1.436h2.273v-1.436H73.193z M73.207,113.542v1.901h2.14v-1.901H73.207z"/>
		<path fill="#FFFFFF" d="M86.559,108.292c0,1.993-1.342,4.599-2.618,6.033c-0.479,0.532-0.957,0.771-1.409,0.771
			c-1.169,0-2.259-1.556-2.259-3.11c0-2.578,2.512-5.423,5.861-5.423c3.004,0,4.944,2.113,4.944,4.466
			c0,4.24-4.931,5.303-5.263,5.303c-0.026,0-0.053-0.013-0.066-0.039c-0.292-0.399-1.449-1.236-1.449-1.236
			c2.579-0.187,5.316-1.343,5.316-4.08c0-1.675-1.289-3.03-3.097-3.229C86.545,107.92,86.559,108.106,86.559,108.292z
			 M81.575,111.96c0,1.023,0.638,1.608,0.917,1.608c0.159,0,0.332-0.106,0.492-0.279c1.05-1.156,2.153-3.323,2.153-4.997
			c0-0.146,0-0.306-0.026-0.452C83.17,108.345,81.575,110.312,81.575,111.96z"/>
		<path fill="#FFFFFF" d="M94.673,117.064c-0.013,0-0.026,0-0.04-0.014c-0.292-0.159-1.236-0.292-1.236-0.292
			c1.037-0.943,1.489-2.366,1.648-2.857c0,0,0.837,0.213,1.209,0.398c0.08,0.04,0.12,0.106,0.12,0.173
			c0,0.08-0.093,0.173-0.279,0.173c-0.04,0-0.08,0-0.133-0.014C95.63,115.602,94.833,117.064,94.673,117.064z M98.076,113.662
			h-1.077v-0.226h-1.462v0.306h-1.09v-8.2h3.628V113.662z M95.537,106.631v1.156h1.462v-1.156H95.537z M95.537,108.85v1.196h1.462
			v-1.196H95.537z M95.537,111.11v1.249h1.462v-1.249H95.537z M105.479,106.923h-5.077c0.014,0.531,0.027,1.143,0.027,1.688h3.774
			c0.066,0,0.16-0.079,0.226-0.079c0.08,0,0.851,0.638,0.851,0.771c0,0.08-0.106,0.146-0.239,0.187
			c-0.226,1.183-0.532,2.91-1.515,4.545c0.625,0.771,1.462,1.462,2.605,1.98c0,0-0.917,0.545-1.236,0.891
			c-0.013,0.013-0.04,0.026-0.053,0.026c-0.013,0-0.04-0.014-0.066-0.026c-0.811-0.519-1.462-1.144-1.994-1.821
			c-1.103,1.329-2.379,1.967-2.458,1.967c-0.026,0-0.04-0.013-0.053-0.026c-0.212-0.319-1.183-0.771-1.183-0.771
			c1.369-0.585,2.326-1.383,3.003-2.233c-0.837-1.502-1.169-3.109-1.302-4.332h-0.359c-0.04,3.442-0.425,5.303-1.927,7.243
			c-0.026,0.04-0.053,0.053-0.08,0.053c-0.013,0-0.04,0-0.053-0.013c-0.346-0.213-1.342-0.372-1.342-0.372
			c0.438-0.412,0.784-0.851,1.076-1.316c-0.252,0.106-0.664,0.293-0.824,0.438c-0.013,0.014-0.027,0.027-0.04,0.027
			c-0.026,0-0.04-0.027-0.066-0.054c-0.438-0.664-0.744-1.542-0.744-1.542l0.917-0.385c0,0,0.319,0.811,0.851,1.355
			c0.837-1.476,1.05-3.203,1.05-5.196c0-0.359-0.053-3.27-0.08-4.174h6.313V106.923z M101.903,109.688
			c0.106,0.996,0.346,2.14,0.904,3.216c0.718-1.342,0.851-2.645,0.93-3.216H101.903z"/>
		<path fill="#FFFFFF" d="M113.314,112.731c-0.04,1.794-0.784,3.602-4.093,4.333c-0.013,0-0.04,0.013-0.053,0.013
			c-0.026,0-0.066-0.013-0.08-0.053c-0.213-0.332-1.223-1.05-1.223-1.05c3.628-0.359,4.133-1.9,4.133-3.256
			c0-0.625-0.027-0.878-0.053-1.037c0.199,0,1.223,0.066,1.462,0.08c0.16,0.013,0.279,0.079,0.279,0.159s-0.106,0.159-0.333,0.199
			C113.354,112.292,113.328,112.399,113.314,112.731z M119.521,107.309h-4.798v0.863h4.093v1.077h-9.396v-1.077h3.974v-0.863h-4.652
			v-1.104h4.652v-0.346c0,0,0-0.372-0.04-0.784c1.382,0,1.794,0.106,1.794,0.253c0,0.093-0.133,0.173-0.412,0.226
			c-0.013,0.173-0.013,0.306-0.013,0.479v0.173h4.798V107.309z M119.468,112.958h-1.276v-1.741h-8.147v1.728h-1.276v-2.817h10.699
			V112.958z M114.657,112.518c0,0,0-0.398-0.04-0.863c0.08,0.013,1.236,0.08,1.475,0.106c0.173,0.013,0.252,0.079,0.252,0.159
			s-0.106,0.159-0.345,0.199c-0.014,0.213-0.027,0.426-0.027,0.585c0,0,0,0.917,0,1.608c0,0.346,0,0.624,0,0.718
			c0.013,0.425,0.239,0.571,1.143,0.571c1.316,0,1.515-0.306,1.515-2.021c0,0,0.917,0.798,1.263,0.931
			c0.04,0.013,0.066,0.04,0.066,0.08c0,0.026-0.013,0.039-0.013,0.066c-0.186,1.581-0.625,2.152-3.097,2.152
			c-0.784,0-2.193-0.013-2.193-1.448V112.518z"/>
		<path fill="#FFFFFF" d="M125.364,117.117c-0.771-0.996-1.834-1.979-2.831-2.645l0.943-0.864c0.891,0.506,2.246,1.556,3.004,2.34
			L125.364,117.117z"/>
		<path fill="#FFFFFF" d="M141.157,108.066h-4.346v6.526h5.183v1.315h-11.695v-1.315h5.077v-6.526h-4.279v-1.289h10.061V108.066z"/>
		<path fill="#FFFFFF" d="M156.223,107.096h-5.129v0.611h3.76v2.618h-1.208v-0.266h-2.552v0.651h3.947v1.462h1.422v0.97h-1.422
			v1.967h-1.196v-0.412h-2.751c0.013,0.399,0.026,0.678,0.026,0.758c0,1.023-0.771,1.582-2.246,1.582c-0.199,0-0.412,0-0.638-0.027
			c-0.04,0-0.093-0.026-0.106-0.066c-0.093-0.345-0.824-1.263-0.824-1.263c0.651,0.094,1.169,0.146,1.568,0.146
			c0.691,0,1.023-0.159,1.023-0.624v-0.506h-4.041v-0.877h4.041v-0.704h-5.316v-0.931h5.316v-0.611h-3.96v-0.863h3.96v-0.651h-2.432
			v0.266h-1.156v-2.618h3.588v-0.611h-5.077v-0.983h5.077v-0.187c0,0-0.013-0.452-0.04-0.943c1.13,0.066,1.688,0.106,1.688,0.266
			c0,0.093-0.186,0.199-0.425,0.253c-0.026,0.226-0.026,0.545-0.026,0.545v0.066h5.129V107.096z M147.465,108.492v0.744h2.432
			v-0.744H147.465z M151.093,108.492v0.744h2.552v-0.744H151.093z M151.093,111.575v0.611h2.751v-0.611H151.093z M151.093,113.117
			v0.704h2.751v-0.704H151.093z"/>
		<path fill="#FFFFFF" d="M161.799,117.117c-0.77-0.996-1.834-1.979-2.83-2.645l0.943-0.864c0.891,0.506,2.246,1.556,3.004,2.34
			L161.799,117.117z"/>
		<path fill="#FFFFFF" d="M175.254,113.728c-0.027,0.014-0.04,0.04-0.066,0.04c-0.014,0-0.027-0.014-0.04-0.026
			c-0.571-0.718-1.249-1.383-1.968-1.98c-1.368,1.741-3.057,3.309-5.143,4.359c-0.014,0.013-0.04,0.013-0.053,0.013
			c-0.027,0-0.066-0.013-0.08-0.026c-0.412-0.386-1.463-0.917-1.463-0.917c2.354-1.01,4.188-2.552,5.596-4.306
			c-0.97-0.691-1.953-1.263-2.817-1.688l0.891-0.957c0.757,0.319,1.755,0.864,2.751,1.516c0.797-1.196,1.408-2.459,1.861-3.695
			c0,0,1.062,0.426,1.594,0.744c0.107,0.066,0.16,0.146,0.16,0.213c0,0.093-0.119,0.173-0.306,0.173c-0.067,0-0.12,0-0.187-0.014
			c-0.545,1.117-1.183,2.273-1.939,3.402c0.836,0.612,1.621,1.276,2.192,1.888L175.254,113.728z"/>
		<path fill="#FFFFFF" d="M182.65,110.219c-0.027,0.026-0.054,0.053-0.08,0.053c-0.027,0-0.04-0.013-0.066-0.039
			c-0.797-1.156-1.953-2.021-2.99-2.605l1.01-0.97c1.13,0.531,2.485,1.502,3.15,2.379L182.65,110.219z M181.029,116.226
			c-0.24,0-1.477-1.528-1.477-1.607c0-0.026,0.027-0.054,0.107-0.066c5.17-0.758,8.492-5.21,9.263-6.313
			c0,0,0.386,1.276,0.585,1.635c0.014,0.026,0.027,0.054,0.027,0.08c0,0.013-0.014,0.04-0.041,0.066
			c-2.285,2.765-4.838,4.705-8.279,5.834C181.201,116.081,181.135,116.226,181.029,116.226z"/>
		<path fill="#FFFFFF" d="M202.699,110.658h-3.934c-0.119,2.393-1.117,4.944-4.506,5.821c-0.026,0.014-0.053,0.014-0.066,0.014
			c-0.026,0-0.053-0.014-0.08-0.054c-0.266-0.398-1.315-1.143-1.315-1.143c3.642-0.678,4.293-2.605,4.438-4.639h-4.877v-1.382h10.34
			V110.658z M201.304,107.72h-7.562v-1.382h7.562V107.72z"/>
		<path fill="#FFFFFF" d="M215.904,110.06h-4.121c-0.158,2.817-1.461,5.09-4.545,6.22c-0.026,0-0.039,0.014-0.066,0.014
			c-0.026,0-0.053-0.014-0.08-0.04c-0.346-0.412-1.435-1.104-1.435-1.104c3.548-0.811,4.505-2.99,4.665-5.09h-4.824v-1.383h4.851
			c0-0.957-0.04-2.206-0.093-2.95c0,0,1.249,0.066,1.674,0.12c0.16,0.013,0.253,0.079,0.253,0.146c0,0.08-0.12,0.173-0.346,0.227
			c0,0.837-0.026,1.78-0.04,2.458h4.107V110.06z"/>
		<path fill="#FFFFFF" d="M221.746,110.219c-0.026,0.026-0.053,0.053-0.08,0.053c-0.026,0-0.039-0.013-0.066-0.039
			c-0.797-1.156-1.953-2.021-2.99-2.605l1.01-0.97c1.131,0.531,2.486,1.502,3.15,2.379L221.746,110.219z M220.125,116.226
			c-0.239,0-1.476-1.528-1.476-1.607c0-0.026,0.026-0.054,0.106-0.066c5.17-0.758,8.492-5.21,9.264-6.313
			c0,0,0.385,1.276,0.584,1.635c0.014,0.026,0.027,0.054,0.027,0.08c0,0.013-0.014,0.04-0.04,0.066
			c-2.286,2.765-4.838,4.705-8.28,5.834C220.297,116.081,220.23,116.226,220.125,116.226z"/>
		<path fill="#FFFFFF" d="M231.893,108.452l0.014-1.343l6.047-0.039c0.107,0,0.16-0.106,0.253-0.106c0.067,0,1.09,0.718,1.09,0.891
			c0,0.093-0.12,0.173-0.292,0.212c-0.492,1.011-1.143,2.22-1.994,3.416c1.25,0.931,2.965,2.405,4.041,3.642l-1.289,0.983
			c-0.027,0.014-0.041,0.014-0.054,0.014s-0.026,0-0.04-0.027c-0.957-1.275-2.312-2.604-3.469-3.548
			c-2.232,2.645-4.585,3.535-4.678,3.535c-0.027,0-0.053,0-0.08-0.026c-0.279-0.333-1.342-0.997-1.342-0.997
			c4.199-1.568,6.061-4.479,7.123-6.658L231.893,108.452z"/>
		<path fill="#FFFFFF" d="M251.863,107.947c-0.014,0.053-0.014,0.093-0.066,0.093c-0.944,0.173-1.954,0.319-2.924,0.438
			c0.013,0.559,0.025,1.116,0.039,1.635c0.891-0.133,1.848-0.346,2.592-0.651v1.289c-0.014,0.04-0.014,0.08-0.053,0.094
			c-0.665,0.186-1.582,0.346-2.486,0.465c0.041,0.744,0.094,1.422,0.12,1.967c1.436,0.426,2.671,1.037,3.628,1.808l-1.156,0.983
			c-0.013,0-0.025,0.014-0.039,0.014s-0.027-0.014-0.054-0.026c-0.638-0.665-1.608-1.21-2.339-1.516
			c-0.199,1.315-1.316,1.914-2.512,1.914c-1.369,0-2.752-0.784-2.752-1.848c0-0.957,1.156-1.647,2.978-1.647
			c0.333,0,0.665,0.026,0.983,0.066l-0.08-1.595c-0.266,0.026-0.504,0.039-0.73,0.039c-0.146,0-0.293,0.014-0.426,0.014
			c-1.448,0-2.312-0.332-2.312-0.891c0-0.438,0.373-0.718,0.864-1.09l1.116,0.199c-0.479,0.386-0.505,0.399-0.505,0.452
			c0,0.106,0.226,0.173,0.798,0.173c0.133,0,0.292-0.014,0.465-0.014c0.199-0.013,0.426-0.013,0.664-0.04
			c-0.025-0.544-0.039-1.089-0.053-1.661c-1.263,0.133-1.874,0.16-2.285,0.16c-0.599,0-1.236-0.054-1.742-0.253
			c0,0-0.186-1.183-0.213-1.249c0-0.026,0-0.054,0-0.066c0-0.054,0.014-0.08,0.054-0.08c0.014,0,0.04,0,0.066,0.014
			c0.798,0.278,1.436,0.385,2.153,0.385c0.093,0,0.598,0,1.94-0.133v-0.266c0-0.571-0.026-1.196-0.054-1.887
			c0,0,1.051,0.053,1.476,0.093c0.187,0.013,0.292,0.079,0.292,0.146c0,0.08-0.105,0.16-0.358,0.239
			c-0.026,0.399-0.054,1.077-0.066,1.529c0.957-0.12,2.007-0.279,3.017-0.492L251.863,107.947z M246.573,114.047
			c-0.146,0-1.409,0-1.409,0.571c0,0.451,0.864,0.638,1.369,0.638c0.705,0,1.25-0.332,1.342-1.037
			C247.477,114.114,247.025,114.047,246.573,114.047z"/>
		<path fill="#FFFFFF" d="M255.139,107.907c-0.025-0.053-0.039-0.093-0.039-0.119c0-0.04,0.039-0.067,0.146-0.067
			c2.1-0.026,5.129-0.956,9.369-1.408c0.066,0,0.106-0.014,0.16-0.04c0.066-0.026,0.119-0.053,0.158-0.053
			c0.24,0,0.639,1.368,0.639,1.382c0,0.066-0.04,0.106-0.119,0.106c-0.054,0-0.12-0.014-0.213-0.054
			c-0.744,0.04-1.223,0.146-1.701,0.333c-1.223,0.479-3.469,2.419-3.469,4.146c0,2.113,2.405,2.604,4.426,2.671
			c0,0-0.877,0.971-1.117,1.409c-0.026,0.04-0.053,0.053-0.093,0.053c-0.013,0-0.013,0-0.026,0c-2.498-0.385-4.532-1.688-4.532-3.92
			c0-1.409,0.983-3.11,2.725-4.399c-2.034,0.306-4.026,1.036-5.636,1.263L255.139,107.907z M264.562,110.923
			c-0.213-0.624-0.785-1.422-1.21-1.86l0.837-0.412c0.293,0.293,1.011,1.144,1.264,1.781L264.562,110.923z M266.023,110.246
			c-0.238-0.545-0.771-1.289-1.195-1.701l0.811-0.425c0.266,0.239,0.971,0.983,1.263,1.621L266.023,110.246z"/>
		<path fill="#FFFFFF" d="M57.486,136.849h-2.512l0.04,3.788c0.013,0.665,0.04,1.21,0.04,1.329c0,0.026,0,0.04,0,0.066
			c0,1.768-1.435,2.061-2.831,2.061c-0.106,0-0.213,0-0.319,0c-0.066-0.014-0.093-0.014-0.12-0.08
			c-0.133-0.452-0.931-1.476-0.931-1.476c0.492,0.04,1.077,0.146,1.582,0.146c0.638,0,1.156-0.173,1.156-0.891v-0.014
			c0,0-0.013-1.794-0.026-3.867c-2.286,3.296-5.13,4.931-5.276,4.931c-0.013,0-0.04-0.013-0.066-0.04
			c-0.346-0.345-1.409-0.943-1.436-0.956c2.592-0.997,4.705-3.15,5.901-4.998h-4.891v-1.329h5.755v-0.823
			c0-0.399-0.013-0.731-0.066-1.276c1.555,0.04,1.887,0.054,1.887,0.239c0,0.106-0.146,0.227-0.399,0.279
			c-0.013,0.358-0.013,0.771-0.013,0.771v0.811h2.525V136.849z"/>
		<path fill="#FFFFFF" d="M70.253,139.322H60.02v-1.436h10.233V139.322z"/>
		<path fill="#FFFFFF" d="M76.732,134.989c0,0.08-0.12,0.199-0.346,0.253c-0.013,0.412-0.013,1.329-0.013,1.621
			c0,0.053,0,0.093,0,0.133c0,4.612-2.871,6.658-2.977,6.658c-0.013,0-0.04,0-0.053-0.013c-0.333-0.293-1.475-0.784-1.475-0.784
			c2.166-1.223,3.097-3.522,3.097-5.715c0-0.066,0-0.12,0-0.187c0,0,0-0.239,0-0.585c0-0.505,0-1.209-0.053-1.607
			C76.506,134.763,76.732,134.856,76.732,134.989z M79.138,141.395c1.608-0.891,3.124-3.044,3.735-4.824
			c0,0,0.505,1.116,0.851,1.555c0.026,0.04,0.04,0.066,0.04,0.106c0,0.026-1.728,3.481-4.864,4.983
			c-0.026,0.133-0.053,0.213-0.133,0.213c-0.159,0-1.143-0.917-1.143-1.09c0-0.08,0.08-0.133,0.08-0.292l0.066-6.366
			c0-0.253,0-0.798-0.04-1.276c1.555,0.054,1.848,0.106,1.848,0.266c0,0.106-0.12,0.213-0.373,0.253
			c-0.013,0.358-0.026,0.811-0.026,0.811L79.138,141.395z"/>
		<path fill="#FFFFFF" d="M92.968,144.146h-1.515l0.04-6.034c-1.355,1.077-2.751,1.94-4,2.433c-0.04,0.013-0.08,0.026-0.106,0.026
			c-0.04,0-0.066-0.014-0.093-0.053c-0.346-0.386-1.396-1.023-1.396-1.023c3.456-1.104,6.751-3.895,8.213-6.181
			c0,0,0.957,0.438,1.502,0.824c0.106,0.066,0.146,0.146,0.146,0.199c0,0.08-0.093,0.12-0.226,0.12c-0.08,0-0.173-0.014-0.266-0.04
			c-0.678,0.824-1.462,1.647-2.299,2.419V144.146z"/>
		<path fill="#FFFFFF" d="M101.759,137.78c-0.026,0.026-0.053,0.053-0.08,0.053c-0.027,0-0.04-0.013-0.066-0.039
			c-0.797-1.156-1.954-2.021-2.99-2.605l1.01-0.97c1.13,0.531,2.485,1.502,3.15,2.379L101.759,137.78z M100.138,143.787
			c-0.239,0-1.476-1.528-1.476-1.607c0-0.026,0.027-0.054,0.106-0.066c5.17-0.758,8.493-5.21,9.263-6.313
			c0,0,0.386,1.276,0.585,1.635c0.013,0.026,0.027,0.054,0.027,0.08c0,0.013-0.014,0.04-0.04,0.066
			c-2.286,2.765-4.838,4.705-8.28,5.834C100.311,143.641,100.244,143.787,100.138,143.787z"/>
		<path fill="#FFFFFF" d="M113.183,135.441v3.203h-1.462v-4.492l7.509-0.014c0.12,0,0.173-0.106,0.266-0.106
			c0.16,0,1.196,0.665,1.196,0.838c0,0.093-0.093,0.159-0.266,0.226c-0.638,4.957-2.791,7.416-6.366,8.652
			c-0.013,0-0.04,0.013-0.053,0.013c-0.04,0-0.066-0.013-0.08-0.04c-0.333-0.398-1.515-1.169-1.515-1.169
			c4.253-0.891,6.007-3.456,6.366-7.124L113.183,135.441z"/>
		<path fill="#FFFFFF" d="M126.494,137.78c-0.026,0.026-0.053,0.053-0.08,0.053c-0.027,0-0.04-0.013-0.066-0.039
			c-0.797-1.156-1.954-2.021-2.99-2.605l1.01-0.97c1.13,0.531,2.485,1.502,3.15,2.379L126.494,137.78z M124.873,143.787
			c-0.239,0-1.476-1.528-1.476-1.607c0-0.026,0.027-0.054,0.106-0.066c5.17-0.758,8.493-5.21,9.263-6.313
			c0,0,0.386,1.276,0.585,1.635c0.013,0.026,0.027,0.054,0.027,0.08c0,0.013-0.014,0.04-0.04,0.066
			c-2.286,2.765-4.838,4.705-8.28,5.834C125.045,143.641,124.979,143.787,124.873,143.787z"/>
		<path fill="#FFFFFF" d="M135.951,135.467c-0.026-0.053-0.04-0.093-0.04-0.119c0-0.04,0.04-0.067,0.146-0.067
			c2.1-0.026,5.13-0.956,9.37-1.408c0.066,0,0.106-0.014,0.16-0.04c0.066-0.026,0.12-0.053,0.159-0.053
			c0.239,0,0.638,1.368,0.638,1.382c0,0.066-0.04,0.106-0.12,0.106c-0.053,0-0.12-0.014-0.213-0.054
			c-0.744,0.04-1.223,0.146-1.701,0.333c-1.223,0.479-3.469,2.419-3.469,4.146c0,2.113,2.406,2.604,4.426,2.671
			c0,0-0.877,0.971-1.116,1.409c-0.027,0.04-0.053,0.053-0.093,0.053c-0.013,0-0.013,0-0.026,0c-2.499-0.385-4.532-1.688-4.532-3.92
			c0-1.409,0.983-3.11,2.725-4.399c-2.034,0.306-4.027,1.036-5.635,1.263L135.951,135.467z M145.374,138.484
			c-0.212-0.624-0.784-1.422-1.209-1.86l0.837-0.412c0.292,0.293,1.01,1.144,1.263,1.781L145.374,138.484z M146.835,137.806
			c-0.239-0.545-0.771-1.289-1.196-1.701l0.811-0.425c0.266,0.239,0.97,0.983,1.263,1.621L146.835,137.806z"/>
		<path fill="#FFFFFF" d="M161.289,137.594h-2.99v0.066c0,3.282-1.17,5.223-4.332,6.405c-0.013,0-0.04,0.014-0.053,0.014
			c-0.026,0-0.053-0.014-0.08-0.04c-0.332-0.386-1.396-1.023-1.396-1.023c3.362-0.784,4.479-2.325,4.491-5.422h-2.644v2.99h-1.356
			v-2.99h-3.15v-1.316h3.15v-1.502c0,0,0-0.73-0.04-1.143c0.053,0,0.12,0,0.199,0c1.448,0,1.594,0.106,1.594,0.226
			c0,0.094-0.146,0.213-0.371,0.239c-0.026,0.319-0.026,0.851-0.026,0.851v1.329h2.644v-0.372c0-0.425,0-1.688-0.025-2.365
			c0.053,0,0.105,0,0.172,0c1.436,0,1.635,0.119,1.635,0.239c0,0.093-0.159,0.212-0.385,0.239c-0.027,0.252-0.041,0.678-0.041,0.93
			c-0.013,0.466-0.013,0.971-0.013,1.329h3.017V137.594z"/>
		<path fill="#FFFFFF" d="M165.072,142.525c-0.014,0-0.026-0.014-0.053-0.027c-0.373-0.239-1.383-0.558-1.409-0.558
			c1.476-1.063,2.3-2.605,2.698-3.762c0,0,0.943,0.319,1.329,0.532c0.12,0.066,0.187,0.146,0.187,0.212
			c0,0.08-0.094,0.146-0.307,0.146c-0.014,0-0.039,0-0.066,0C166.693,140.85,165.285,142.525,165.072,142.525z M174.734,136.969
			h-4.332v3.575c0,0.638,0.025,1.156,0.025,1.263c0,1.635-1.235,1.993-2.404,1.993c-0.187,0-0.386-0.014-0.572-0.026
			c-0.066,0-0.105-0.014-0.119-0.08c-0.146-0.465-0.811-1.448-0.824-1.475c0.398,0.066,0.971,0.186,1.475,0.186
			c0.559,0,1.023-0.159,1.023-0.771v-4.665h-4.465v-1.329h4.465v-0.585c0-0.398-0.013-0.851-0.039-1.289
			c0,0,1.143,0.026,1.541,0.066c0.199,0.014,0.279,0.093,0.279,0.173c0,0.093-0.133,0.213-0.359,0.253
			c-0.025,0.385-0.025,0.943-0.025,0.943v0.438h4.332V136.969z M173.871,142.312c-0.027,0.013-0.041,0.026-0.066,0.026
			c-0.014,0-0.027-0.014-0.041-0.053c-0.385-1.21-1.501-2.738-2.404-3.562l1.103-0.611c0.837,0.678,2.246,2.326,2.658,3.482
			L173.871,142.312z M173.884,135.467c-0.784,0-1.435-0.625-1.435-1.409c0-0.797,0.65-1.462,1.435-1.462
			c0.798,0,1.436,0.639,1.436,1.436C175.319,134.816,174.682,135.467,173.884,135.467z M173.206,134.032
			c0,0.372,0.306,0.678,0.678,0.678c0.386,0,0.679-0.306,0.679-0.678c0-0.385-0.293-0.678-0.679-0.678
			C173.512,133.354,173.206,133.647,173.206,134.032z"/>
		<path fill="#FFFFFF" d="M188.298,139.322h-10.233v-1.436h10.233V139.322z"/>
		<path fill="#FFFFFF" d="M197.728,140c-0.026,0.026-0.04,0.04-0.054,0.04c-0.025,0-0.039-0.014-0.066-0.027
			c-1.223-0.863-2.592-1.515-3.827-1.967v6.153h-1.489v-9.383c0,0,0-0.943-0.039-1.475c1.555,0.066,1.967,0.093,1.967,0.278
			c0,0.094-0.119,0.213-0.398,0.267c-0.04,0.438-0.04,0.956-0.04,0.956v1.729c1.488,0.479,3.642,1.315,4.944,2.06L197.728,140z"/>
		<path fill="#FFFFFF" d="M203.568,140.345c0,1.103,0.093,2.299,1.768,2.299c2.219,0,4.133-2.272,4.744-3.163
			c0,0,0.319,1.276,0.532,1.661c0.013,0.026,0.026,0.054,0.026,0.08c0,0.013-0.014,0.04-0.039,0.066
			c-0.745,0.891-2.858,2.777-5.316,2.777c-3.084,0-3.098-2.564-3.098-3.761c0-1.741,0.24-3.668,0.24-5.636
			c0-0.345-0.014-0.704-0.027-1.05c0.386,0.014,1.369,0.094,1.729,0.16c0.186,0.026,0.266,0.106,0.266,0.186
			c0,0.12-0.174,0.239-0.426,0.293C203.874,136.371,203.568,138.763,203.568,140.345z"/>
		<path fill="#FFFFFF" d="M221.77,135.507c-0.013,0.053-0.013,0.093-0.066,0.093c-0.943,0.173-1.953,0.319-2.924,0.438
			c0.014,0.559,0.027,1.116,0.04,1.635c0.891-0.133,1.848-0.346,2.592-0.651v1.289c-0.013,0.04-0.013,0.08-0.054,0.094
			c-0.664,0.186-1.581,0.346-2.484,0.465c0.039,0.744,0.093,1.422,0.119,1.967c1.436,0.426,2.672,1.037,3.629,1.808l-1.156,0.983
			c-0.014,0-0.027,0.014-0.041,0.014c-0.013,0-0.025-0.014-0.053-0.026c-0.638-0.665-1.607-1.21-2.339-1.516
			c-0.199,1.315-1.315,1.914-2.512,1.914c-1.369,0-2.751-0.784-2.751-1.848c0-0.957,1.156-1.647,2.977-1.647
			c0.332,0,0.664,0.026,0.984,0.066l-0.08-1.595c-0.266,0.026-0.506,0.039-0.731,0.039c-0.146,0-0.292,0.014-0.425,0.014
			c-1.449,0-2.312-0.332-2.312-0.891c0-0.438,0.371-0.718,0.863-1.09l1.117,0.199c-0.479,0.386-0.506,0.399-0.506,0.452
			c0,0.106,0.227,0.173,0.797,0.173c0.134,0,0.293-0.014,0.466-0.014c0.199-0.013,0.425-0.013,0.665-0.04
			c-0.027-0.544-0.041-1.089-0.054-1.661c-1.263,0.133-1.874,0.16-2.286,0.16c-0.598,0-1.236-0.054-1.74-0.253
			c0,0-0.187-1.183-0.213-1.249c0-0.026,0-0.054,0-0.066c0-0.054,0.014-0.08,0.053-0.08c0.014,0,0.04,0,0.066,0.014
			c0.798,0.278,1.436,0.385,2.153,0.385c0.093,0,0.599,0,1.94-0.133v-0.266c0-0.571-0.027-1.196-0.053-1.887
			c0,0,1.049,0.053,1.475,0.093c0.186,0.013,0.293,0.079,0.293,0.146c0,0.08-0.107,0.16-0.359,0.239
			c-0.026,0.399-0.053,1.077-0.066,1.529c0.957-0.12,2.007-0.279,3.018-0.492L221.77,135.507z M216.48,141.608
			c-0.146,0-1.408,0-1.408,0.571c0,0.451,0.863,0.638,1.368,0.638c0.704,0,1.249-0.332,1.343-1.037
			C217.385,141.674,216.932,141.608,216.48,141.608z"/>
		<path fill="#FFFFFF" d="M236.025,136.065c-0.014,0.066-0.014,0.066-0.08,0.066c-0.957-0.133-1.914-0.172-2.857-0.172
			c-0.319,0-0.652,0-0.971,0.013c-0.014,0.784-0.014,1.568-0.014,2.113c0.346,0.505,0.492,1.17,0.492,1.794
			c0,3.163-3.708,4.413-3.854,4.413c-0.041,0-0.054-0.014-0.094-0.04c-0.332-0.359-1.502-1.023-1.502-1.023
			c2.166-0.398,3.668-1.516,4-2.18l0.08-0.159c-0.465,0.332-0.93,0.398-1.249,0.398c-1.355,0-2.073-1.104-2.073-1.98
			c0-0.013,0-0.013,0-0.026c0-1.09,0.851-2.18,2.219-2.18c0.293,0,0.545,0.026,0.785,0.093c-0.014-0.358-0.014-0.758-0.027-1.169
			c-1.09,0.079-2.086,0.199-2.91,0.318c-0.771,0.12-1.688,0.253-2.525,0.293l-0.346-1.316c-0.014-0.026-0.014-0.053-0.014-0.079
			c0-0.04,0.027-0.066,0.094-0.066c0.014,0,0.026,0,0.04,0c0.278,0.013,0.585,0.026,0.89,0.026c0.572,0,1.17-0.04,1.742-0.093
			c0.837-0.094,1.873-0.173,2.977-0.253c-0.026-0.678-0.08-1.329-0.133-1.794c1.794,0.066,1.86,0.066,1.86,0.239
			c0,0.093-0.146,0.186-0.358,0.212c-0.027,0.319-0.053,0.771-0.066,1.263c0.891-0.04,1.794-0.066,2.658-0.066
			c0.425,0,0.85,0.014,1.262,0.026L236.025,136.065z M230.137,138.258c-0.783,0-0.996,0.531-0.996,0.903
			c0,0.452,0.305,0.904,0.863,0.904c0.918,0,0.943-0.957,0.943-1.156c0-0.12,0-0.253-0.013-0.386
			C230.734,138.351,230.482,138.258,230.137,138.258z"/>
		<path fill="#FFFFFF" d="M238.662,144.611c-1.062,0-1.927-0.863-1.927-1.927c0-1.076,0.864-1.927,1.927-1.927
			c1.063,0,1.928,0.851,1.928,1.927C240.59,143.748,239.726,144.611,238.662,144.611z M237.705,142.684
			c0,0.519,0.426,0.943,0.957,0.943s0.957-0.425,0.957-0.943c0-0.531-0.426-0.957-0.957-0.957S237.705,142.153,237.705,142.684z"/>
	</g>
</g>
</svg>
