<?xml version="1.0" encoding="utf-8"?>
<!-- Generator: Adobe Illustrator 16.0.0, SVG Export Plug-In . SVG Version: 6.00 Build 0)  -->
<!DOCTYPE svg PUBLIC "-//W3C//DTD SVG 1.1//EN" "http://www.w3.org/Graphics/SVG/1.1/DTD/svg11.dtd">
<svg version="1.1" id="レイヤー_1" xmlns="http://www.w3.org/2000/svg" xmlns:xlink="http://www.w3.org/1999/xlink" x="0px"
	 y="0px" width="180px" height="170px" viewBox="0 0 180 170" enable-background="new 0 0 180 170" xml:space="preserve">
<g>
	<g>
		<path fill="#FFFFFF" d="M87.899,118.732c0-16.441-0.111-106.321-0.111-107.676c3.756,0,61.168,0,78.014,0
			c0,1.355,0.107,90.912,0.107,107.352"/>
		<path fill="#B4CDF0" d="M123.065,45.905c-0.863,0-18.664,0.018-20.111,0.018c0,1.824,0,6.404,0,7.95c1.438,0,18.77,0,20.074,0
			C123.028,52.33,123.065,46.342,123.065,45.905L123.065,45.905z"/>
		<path fill="#B4CDF0" d="M152.157,45.905c-0.863,0-18.666,0.018-20.111,0.018c0,1.824,0,6.404,0,7.95c1.436,0,18.768,0,20.07,0
			C152.116,52.33,152.157,46.342,152.157,45.905L152.157,45.905z"/>
		<path fill="#FFFFFF" d="M160.294,53.873c-21.201,0-61.65,0-66.443,0"/>
		<path fill="#D6D6D6" d="M160.294,52.622c-10.131,0-20.264,0-30.395,0c-9.436,0-18.869,0-28.303,0c-2.582,0-5.164,0-7.746,0
			c-1.611,0-1.613,2.504,0,2.504c6.225,0,12.45,0,18.675,0c10.528,0,21.054,0,31.581,0c5.395,0,10.791,0,16.188,0
			C161.903,55.125,161.905,52.622,160.294,52.622L160.294,52.622L160.294,52.622z"/>
		<path fill="#B4CDF0" d="M123.065,59.701c-0.863,0-18.664,0.019-20.111,0.019c0,1.825,0,6.4,0,7.95c1.438,0,18.77,0,20.074,0
			C123.028,66.127,123.065,60.14,123.065,59.701L123.065,59.701z"/>
		<path fill="#B4CDF0" d="M152.157,59.701c-0.863,0-18.666,0.019-20.111,0.019c0,1.825,0,6.4,0,7.95c1.436,0,18.768,0,20.07,0
			C152.116,66.127,152.157,60.14,152.157,59.701L152.157,59.701z"/>
		<path fill="#FFFFFF" d="M160.294,73.498c-21.201,0-61.65,0-66.443,0"/>
		<path fill="#D6D6D6" d="M160.294,72.249c-10.131,0-20.264,0-30.395,0c-9.436,0-18.869,0-28.303,0c-2.582,0-5.164,0-7.746,0
			c-1.611,0-1.613,2.498,0,2.498c6.225,0,12.45,0,18.675,0c10.528,0,21.054,0,31.581,0c5.395,0,10.791,0,16.188,0
			C161.903,74.747,161.905,72.249,160.294,72.249L160.294,72.249L160.294,72.249z"/>
		<path fill="#FFFFFF" d="M160.294,67.669c-21.201,0-61.65,0-66.443,0"/>
		<path fill="#D6D6D6" d="M160.294,66.418c-10.131,0-20.264,0-30.395,0c-9.436,0-18.869,0-28.303,0c-2.582,0-5.164,0-7.746,0
			c-1.611,0-1.613,2.504,0,2.504c6.225,0,12.45,0,18.675,0c10.528,0,21.054,0,31.581,0c5.395,0,10.791,0,16.188,0
			C161.903,68.923,161.905,66.418,160.294,66.418L160.294,66.418L160.294,66.418z"/>
		<path fill="#D6D6D6" d="M91.856,11.056c0,3.073,0.008,6.149,0.012,9.224c0.009,7.15,0.018,14.304,0.027,21.456
			c0.01,8.992,0.021,17.979,0.031,26.965c0.008,8.604,0.041,48.429,0.041,48.863c0,1.61,2.502,1.611,2.502,0
			c-0.001-5.448-0.029-37.124-0.038-45.495c-0.009-9.058-0.021-18.116-0.032-27.177c-0.009-7.517-0.019-15.034-0.027-22.555
			c-0.004-3.676,0.074-7.366-0.014-11.04c-0.002-0.084,0-0.162,0-0.241C94.358,9.447,91.856,9.444,91.856,11.056L91.856,11.056
			L91.856,11.056z"/>
		<path fill="#D6D6D6" d="M86.538,11.056c0,3.073,0.008,6.149,0.012,9.224c0.008,7.15,0.017,14.304,0.025,21.456
			c0.012,8.992,0.023,17.979,0.032,26.965c0.009,8.604,0.042,48.429,0.042,48.863c0,1.61,2.501,1.611,2.501,0
			c-0.001-5.448-0.028-37.124-0.036-45.495c-0.012-9.058-0.021-18.116-0.033-27.177c-0.01-7.517-0.018-15.034-0.027-22.555
			c-0.004-3.676,0.074-7.366-0.012-11.04c-0.004-0.084-0.004-0.162-0.004-0.241C89.038,9.447,86.538,9.444,86.538,11.056
			L86.538,11.056L86.538,11.056z"/>
		<path fill="#D6D6D6" d="M165.946,9.806c-4.572,0-9.148,0-13.719,0c-6.289,0-12.576,0-18.863,0c-6.621,0-13.244,0-19.867,0
			c-5.482,0-10.965,0-16.445,0c-2.963,0-5.928,0-8.893,0c-0.125,0-0.246,0-0.371,0c-1.609,0-1.612,2.5,0,2.5
			c2.552,0,5.102,0,7.652,0c5.244,0,10.489,0,15.732,0c6.561,0,13.121,0,19.682,0c6.402,0,12.807,0,19.209,0
			c4.863,0,9.729,0,14.594,0c0.43,0,0.859,0,1.289,0C167.556,12.306,167.56,9.806,165.946,9.806L165.946,9.806L165.946,9.806z"/>
		<path fill="#D6D6D6" d="M162.142,117.363c-0.053-12.373-0.098-52.131-0.141-64.504c-0.039-10.931-0.074-21.857-0.104-32.787
			c-0.01-3.007-0.02-6.01-0.02-9.016c0-1.609-2.502-1.612-2.502,0c0,7.222,0.033,14.444,0.055,21.669
			c0.041,12.372,0.084,24.745,0.129,37.118c0.025,6.711,0.051,40.809,0.08,47.521C159.647,118.972,162.147,118.977,162.142,117.363
			L162.142,117.363L162.142,117.363z"/>
		<path fill="#D6D6D6" d="M164.55,11.056c0,2.281,0.008,4.56,0.01,6.84c0.01,5.277,0.018,10.556,0.027,15.831
			c0.01,6.728,0.021,13.452,0.031,20.176c0.01,6.624,0.018,13.247,0.027,19.866c0.006,4.985,0.012,37.359,0.014,42.344
			c0,0.418,0,0.833,0,1.251c0,1.608,2.502,1.613,2.502,0c0-4.649-0.006-36.687-0.014-41.331c-0.006-6.502-0.014-13-0.025-19.498
			c-0.008-6.799-0.02-13.597-0.031-20.396c-0.008-5.547-0.018-11.096-0.027-16.639c-0.004-2.746,0.066-5.504-0.012-8.244
			c-0.004-0.067,0-0.133,0-0.2C167.052,9.447,164.55,9.444,164.55,11.056L164.55,11.056L164.55,11.056z"/>
		<path fill="#FFFFFF" d="M160.294,59.701c-21.201,0-61.65,0-66.443,0"/>
		<path fill="#D6D6D6" d="M160.294,58.452c-10.131,0-20.264,0-30.395,0c-9.436,0-18.869,0-28.303,0c-2.582,0-5.164,0-7.746,0
			c-1.611,0-1.613,2.503,0,2.503c6.225,0,12.45,0,18.675,0c10.528,0,21.054,0,31.581,0c5.395,0,10.791,0,16.188,0
			C161.903,60.955,161.905,58.452,160.294,58.452L160.294,58.452L160.294,58.452z"/>
		<path fill="#B4CDF0" d="M123.065,32.108c-0.863,0-18.664,0.02-20.111,0.02c0,1.828,0,6.406,0,7.947c1.438,0,18.77,0,20.074,0
			C123.028,38.534,123.065,32.546,123.065,32.108L123.065,32.108z"/>
		<path fill="#B4CDF0" d="M152.157,32.108c-0.863,0-18.666,0.02-20.111,0.02c0,1.828,0,6.406,0,7.947c1.436,0,18.768,0,20.07,0
			C152.116,38.534,152.157,32.546,152.157,32.108L152.157,32.108z"/>
		<path fill="#FFFFFF" d="M160.294,40.075c-21.201,0-61.65,0-66.443,0"/>
		<path fill="#D6D6D6" d="M160.294,38.827c-10.131,0-20.264,0-30.395,0c-9.436,0-18.869,0-28.303,0c-2.582,0-5.164,0-7.746,0
			c-1.611,0-1.613,2.5,0,2.5c6.225,0,12.45,0,18.675,0c10.528,0,21.054,0,31.581,0c5.395,0,10.791,0,16.188,0
			C161.903,41.327,161.905,38.827,160.294,38.827L160.294,38.827L160.294,38.827z"/>
		<path fill="#FFFFFF" d="M160.294,32.108c-21.201,0-61.65,0-66.443,0"/>
		<path fill="#D6D6D6" d="M160.294,30.86c-10.131,0-20.264,0-30.395,0c-9.436,0-18.869,0-28.303,0c-2.582,0-5.164,0-7.746,0
			c-1.611,0-1.613,2.499,0,2.499c6.225,0,12.45,0,18.675,0c10.528,0,21.054,0,31.581,0c5.395,0,10.791,0,16.188,0
			C161.903,33.359,161.905,30.86,160.294,30.86L160.294,30.86L160.294,30.86z"/>
		<path fill="#FFFFFF" d="M160.294,31.723c-21.201,0-61.65,0-66.443,0"/>
		<path fill="#D6D6D6" d="M160.294,30.471c-10.131,0-20.264,0-30.395,0c-9.436,0-18.869,0-28.303,0c-2.582,0-5.164,0-7.746,0
			c-1.611,0-1.613,2.502,0,2.502c6.225,0,12.45,0,18.675,0c10.528,0,21.054,0,31.581,0c5.395,0,10.791,0,16.188,0
			C161.903,32.973,161.905,30.471,160.294,30.471L160.294,30.471L160.294,30.471z"/>
		<path fill="#B4CDF0" d="M123.065,17.927c-0.863,0-18.664,0.015-20.111,0.015c0,1.828,0,6.406,0,7.953c1.438,0,18.77,0,20.074,0
			C123.028,24.35,123.065,18.365,123.065,17.927L123.065,17.927z"/>
		<path fill="#B4CDF0" d="M152.157,17.927c-0.863,0-18.666,0.015-20.111,0.015c0,1.828,0,6.406,0,7.953c1.436,0,18.768,0,20.07,0
			C152.116,24.35,152.157,18.365,152.157,17.927L152.157,17.927z"/>
		<path fill="#FFFFFF" d="M160.294,25.895c-21.201,0-61.65,0-66.443,0"/>
		<path fill="#D6D6D6" d="M160.294,24.642c-10.131,0-20.264,0-30.395,0c-9.436,0-18.869,0-28.303,0c-2.582,0-5.164,0-7.746,0
			c-1.611,0-1.613,2.503,0,2.503c6.225,0,12.45,0,18.675,0c10.528,0,21.054,0,31.581,0c5.395,0,10.791,0,16.188,0
			C161.903,27.145,161.905,24.642,160.294,24.642L160.294,24.642L160.294,24.642z"/>
		<path fill="#FFFFFF" d="M160.294,17.927c-21.201,0-61.65,0-66.443,0"/>
		<path fill="#D6D6D6" d="M160.294,16.674c-10.131,0-20.264,0-30.395,0c-9.436,0-18.869,0-28.303,0c-2.582,0-5.164,0-7.746,0
			c-1.611,0-1.613,2.502,0,2.502c6.225,0,12.45,0,18.675,0c10.528,0,21.054,0,31.581,0c5.395,0,10.791,0,16.188,0
			C161.903,19.176,161.905,16.674,160.294,16.674L160.294,16.674L160.294,16.674z"/>
		<path fill="#B4CDF0" d="M123.065,73.885c-0.863,0-18.664,0.02-20.111,0.02c0,1.826,0,6.405,0,7.947c1.438,0,18.77,0,20.074,0
			C123.028,80.31,123.065,74.323,123.065,73.885L123.065,73.885z"/>
		<path fill="#B4CDF0" d="M152.157,73.885c-0.863,0-18.666,0.02-20.111,0.02c0,1.826,0,6.405,0,7.947c1.436,0,18.768,0,20.07,0
			C152.116,80.31,152.157,74.323,152.157,73.885L152.157,73.885z"/>
		<path fill="#FFFFFF" d="M160.294,81.852c-21.201,0-61.65,0-66.443,0"/>
		<path fill="#D6D6D6" d="M160.294,80.603c-10.131,0-20.264,0-30.395,0c-9.436,0-18.869,0-28.303,0c-2.582,0-5.164,0-7.746,0
			c-1.611,0-1.613,2.501,0,2.501c6.225,0,12.45,0,18.675,0c10.528,0,21.054,0,31.581,0c5.395,0,10.791,0,16.188,0
			C161.903,83.104,161.905,80.603,160.294,80.603L160.294,80.603L160.294,80.603z"/>
		<path fill="#FFFFFF" d="M160.294,73.885c-21.201,0-61.65,0-66.443,0"/>
		<path fill="#D6D6D6" d="M160.294,72.634c-10.131,0-20.264,0-30.395,0c-9.436,0-18.869,0-28.303,0c-2.582,0-5.164,0-7.746,0
			c-1.611,0-1.613,2.502,0,2.502c6.225,0,12.45,0,18.675,0c10.528,0,21.054,0,31.581,0c5.395,0,10.791,0,16.188,0
			C161.903,75.136,161.905,72.634,160.294,72.634L160.294,72.634L160.294,72.634z"/>
		<path fill="#FFFFFF" d="M160.294,45.905c-21.201,0-61.65,0-66.443,0"/>
		<path fill="#D6D6D6" d="M160.294,44.657c-10.131,0-20.264,0-30.395,0c-9.436,0-18.869,0-28.303,0c-2.582,0-5.164,0-7.746,0
			c-1.611,0-1.613,2.501,0,2.501c6.225,0,12.45,0,18.675,0c10.528,0,21.054,0,31.581,0c5.395,0,10.791,0,16.188,0
			C161.903,47.158,161.905,44.657,160.294,44.657L160.294,44.657L160.294,44.657z"/>
	</g>
	<g>
		<defs>
			<rect id="SVGID_1_" x="3.333" y="9.806" width="173.334" height="160"/>
		</defs>
		<clipPath id="SVGID_2_">
			<use xlink:href="#SVGID_1_"  overflow="visible"/>
		</clipPath>
		<g clip-path="url(#SVGID_2_)">
			<path fill="#FFFFFF" d="M72.448,58.754c0.676-0.607,1.674-0.901,2.606-0.762c0.935,0.139,1.784,0.702,2.212,1.47
				c0.302,0.539,0.398,1.151,0.455,1.75c0.205,2.353-0.261,4.758-1.328,6.907c-0.521,1.046-1.199,2.046-2.142,2.809
				c-0.759,0.604-2.127,0.562-3.078,0.732c-0.185,0.643-0.374,1.176-0.474,1.479c-0.691,1.877-4.355,8.222-9.084,11.183
				c-0.003,1.895-0.113,4.189,0.569,5.882c1.062,2.62,6.784,5.925,7.177,6.094c0,0-3.131,13.562-20.035,13.562
				c-16.903,0-17.296-14.021-17.296-14.021c0.396-0.173,5.221-3.016,6.282-5.636c0.754-1.866,0.539-4.466,0.579-6.456
				c-1.555-1.111-3.013-2.505-4.349-4.102c-2.326-2.785-3.596-5.899-4.319-8.592c-0.156,0.041-0.241,0.062-0.241,0.062
				c-1.299,0.323-2.324-0.328-3.047-0.905c-0.945-0.763-1.623-1.768-2.143-2.813c-1.068-2.147-1.533-4.547-1.33-6.904
				c0.057-0.599,0.154-1.212,0.457-1.75c0.426-0.771,1.277-1.331,2.211-1.471c0.934-0.143,1.932,0.154,2.607,0.764
				c0,0,0.27-19.154,21.3-19.154C74.411,38.884,72.448,58.754,72.448,58.754L72.448,58.754z"/>
			<path fill="#7A7473" d="M62.19,41.67c2.479,0.495,3.917,2.354,4.648,5.204c0.773,3.017,3.63,9.198,3.401,11.964
				c0.067-0.005,0.146-0.008,0.146-0.008l2.062-0.099c0.676-0.601,1.674-0.887,2.606-0.751c0.554,0.08,1.077,0.31,1.501,0.641
				c0.918-1.704,1.787-3.311,1.787-3.311c1.042-2.59,2.008-4.188,0.797-6.07c-1.885-3.094-0.771-5.053-1.251-6.982
				c-1.012-4.046-2.145-5.219-3.958-6.873c-1.023-0.936-2.412-3.735-3.662-4.328c-1.25-0.592-3.023-0.209-3.552,1.072l-3.743-3.656
				c-0.404-2.151-4.972-4.85-9.158-6.08c-3.365-0.99-7.119-1.728-10.115,0.099c-2.283,1.392-4.102,3.979-6.776,4.018
				c-0.679,0.007-1.354-0.158-2.031-0.091c-1.593,0.156-2.778,1.547-3.511,2.971c-0.732,1.42-1.217,3.006-2.273,4.207
				c0,0,0.18,0.699,0.404,1.576c-1.852,1.59-3.539,3.368-5.032,5.302c-1.132,1.462-2.2,3.323-1.597,5.073
				c0.279,0.812,0.906,1.521,0.951,2.382c0.046,0.846-0.044,2.468-0.377,3.245c-1.414,3.281,0.635,4.457,1.508,6.519
				c0.352-0.213,0.75-0.358,1.166-0.418c0.934-0.143,1.932,0.149,2.607,0.749l3.688-0.481c-1.253-3.749,6.415-5.83,7.814-9.276
				c1.396-3.441,8.967-5.104,11.877-7.29L62.19,41.67L62.19,41.67z"/>
			<path fill="#201614" d="M60.286,84.915c-0.016,1.985-0.065,4.11,0.753,5.961c0.515,1.161,1.473,2.122,2.419,2.943
				c1.055,0.922,2.197,1.749,3.371,2.511c0.599,0.388,1.211,0.819,1.862,1.117c0.651,0.294,1.431,0.185,1.817-0.479
				c0.332-0.567,0.179-1.517-0.477-1.812c-0.585-0.268-1.133-0.649-1.674-0.993c-0.489-0.313-0.972-0.64-1.445-0.98
				c-0.576-0.407-0.844-0.61-1.369-1.056c-0.475-0.406-0.937-0.829-1.355-1.289c-0.084-0.094-0.164-0.188-0.245-0.285
				c-0.097-0.118-0.103-0.121-0.015-0.008c-0.046-0.062-0.094-0.125-0.137-0.188c-0.143-0.203-0.277-0.414-0.383-0.643
				c-0.123-0.267,0.062,0.272-0.065-0.195c-0.065-0.232-0.14-0.466-0.192-0.704c-0.084-0.384-0.132-0.768-0.16-1.161
				c-0.07-0.911-0.06-1.824-0.053-2.738C62.95,83.206,60.298,83.204,60.286,84.915L60.286,84.915L60.286,84.915z"/>
			<path fill="#201614" d="M37.562,84.701c0.01,1.518,0.094,3.102-0.33,4.58c-0.105,0.365-0.088,0.35-0.26,0.669
				c-0.117,0.217-0.254,0.424-0.399,0.627c-0.093,0.12-0.103,0.137-0.03,0.041c-0.043,0.051-0.084,0.102-0.128,0.153
				c-0.09,0.102-0.179,0.206-0.271,0.305c-0.205,0.225-0.422,0.44-0.643,0.65c-0.867,0.815-1.531,1.313-2.506,1.968
				c-0.521,0.354-1.061,0.738-1.634,1c-0.651,0.299-0.812,1.24-0.476,1.815c0.393,0.668,1.16,0.773,1.812,0.475
				c0.646-0.294,1.252-0.732,1.834-1.13c1.072-0.736,2.122-1.538,3.049-2.451c0.968-0.947,1.785-2.026,2.184-3.335
				c0.525-1.72,0.461-3.589,0.449-5.367C40.206,82.994,37.552,82.989,37.562,84.701L37.562,84.701L37.562,84.701z"/>
			<path fill="#201614" d="M51.448,39.829c-1.543,1.135-3.41,1.813-5.152,2.572c-1.934,0.846-3.891,1.72-5.527,3.081
				c-1.33,1.104-1.77,2.718-2.988,3.824c-1.402,1.269-3.068,2.208-4.512,3.426c-1.527,1.29-2.755,3.085-2.121,5.164
				c0.494,1.627,3.057,0.933,2.557-0.708c-0.029-0.092-0.064-0.188-0.08-0.283c0.004,0.028,0.016,0.16-0.002,0.006
				c-0.006-0.068,0.014-0.463-0.018-0.25c0.055-0.387,0.082-0.397,0.301-0.754c0.299-0.494,0.963-1.082,1.509-1.519
				c1.386-1.11,2.925-2.015,4.241-3.209c0.607-0.55,1.192-1.187,1.574-1.914c0.367-0.692,0.582-1.162,1.154-1.681
				c1.359-1.239,3.202-1.989,4.865-2.724c1.863-0.821,3.883-1.524,5.538-2.741c0.577-0.421,0.864-1.148,0.477-1.816
				C52.931,39.737,52.029,39.403,51.448,39.829L51.448,39.829L51.448,39.829z"/>
			<path fill="#201614" d="M61.837,42.947c3.163,0.692,3.52,3.909,4.428,6.513c0.551,1.573,1.146,3.135,1.668,4.722
				c0.441,1.344,0.934,2.778,0.992,4.185c0.074,1.704,2.728,1.711,2.654,0c-0.148-3.515-1.85-6.917-2.96-10.207
				c-0.546-1.618-0.864-3.332-1.815-4.789c-1.002-1.527-2.469-2.587-4.262-2.978C60.878,40.028,60.167,42.584,61.837,42.947
				L61.837,42.947L61.837,42.947z"/>
			<g>
				<path fill="#201614" d="M67.862,32.795c0.302-0.63,1.039-0.852,1.701-0.599c0.657,0.248,1.148,1.103,1.541,1.659
					c0.549,0.777,1.064,1.614,1.725,2.306c0.518,0.538,1.1,1.012,1.594,1.576c1.143,1.296,1.74,3.048,2.15,4.729
					c0.187,0.773,0.106,1.557,0.09,2.349c-0.02,1.036,0.076,2.089,0.398,3.074c0.232,0.709,0.562,1.376,0.933,2.021
					c0.25,0.437,0.415,0.831,0.375,1.344c-0.1,1.27-0.833,2.545-1.306,3.704c-0.271,0.665,0.295,1.459,0.927,1.635
					c0.759,0.206,1.359-0.263,1.632-0.929c0.518-1.273,1.162-2.538,1.348-3.915c0.197-1.453-0.35-2.479-0.996-3.729
					c-1.072-2.072-0.336-4.361-0.917-6.541c-0.567-2.138-1.409-4.156-2.92-5.801c-0.556-0.603-1.228-1.104-1.739-1.748
					c-0.725-0.914-1.312-1.93-2.068-2.824c-0.851-1.007-1.93-1.636-3.278-1.646c-1.41-0.019-2.856,0.694-3.479,1.995
					C64.841,32.993,67.127,34.338,67.862,32.795L67.862,32.795L67.862,32.795z"/>
				<path fill="#201614" d="M64.253,28.122c-0.548-2.424-3.356-4.051-5.377-5.101c-2.795-1.454-5.893-2.454-9.02-2.848
					c-1.504-0.192-3.049-0.183-4.525,0.206c-1.496,0.389-2.74,1.2-3.932,2.154c-1.018,0.814-1.979,1.779-3.177,2.332
					c-1.337,0.618-2.758,0.003-4.147,0.357c-1.547,0.395-2.74,1.643-3.543,2.966c-0.871,1.435-1.27,3.169-2.361,4.469
					s0.775,3.186,1.876,1.876c0.924-1.099,1.483-2.337,2.073-3.631c0.479-1.043,1.025-2.191,2.021-2.835
					c1.099-0.711,2.587-0.108,3.825-0.345c1.174-0.23,2.225-0.857,3.162-1.57c0.994-0.754,1.9-1.634,2.943-2.328
					c1.125-0.741,2.385-1.09,3.732-1.122c2.701-0.062,5.549,0.775,8.024,1.807c1.409,0.585,2.796,1.313,4.033,2.212
					c0.74,0.537,1.653,1.312,1.832,2.105C62.07,30.491,64.629,29.788,64.253,28.122L64.253,28.122L64.253,28.122z"/>
			</g>
			<path fill="#201614" d="M35.063,29.694c-4.118,2.29-7.836,5.336-10.833,8.977c-1.503,1.826-3.162,4.011-2.782,6.525
				c0.156,1.043,0.98,1.898,1.066,2.912c0.076,0.888-0.033,1.882-0.336,2.715c-0.431,1.174-0.672,2.32-0.398,3.565
				c0.219,0.993,0.795,1.862,1.338,2.703c0.926,1.429,3.222,0.099,2.291-1.342c-0.46-0.709-1.029-1.447-1.104-2.322
				c-0.058-0.672,0.207-1.279,0.431-1.898c0.186-0.52,0.271-1.045,0.338-1.586c0.155-1.259,0.181-2.488-0.368-3.657
				c-0.23-0.498-0.584-0.979-0.661-1.531c-0.086-0.623,0.146-1.28,0.421-1.823c1.189-2.363,3.322-4.422,5.257-6.18
				c2.034-1.852,4.278-3.432,6.681-4.764C37.896,31.157,36.562,28.865,35.063,29.694L35.063,29.694L35.063,29.694z"/>
			<path fill="#201614" d="M45.153,34.103c0.498,0.009,0.996,0.034,1.492,0.086c0.113,0.011,0.229,0.022,0.342,0.036
				c0.25,0.034-0.309-0.053,0.128,0.021c0.229,0.039,0.457,0.075,0.687,0.121c0.5,0.102,0.996,0.223,1.484,0.377
				c0.22,0.068,0.438,0.144,0.656,0.225c0.129,0.047,0.258,0.095,0.385,0.149c-0.16-0.067,0.072,0.034,0.123,0.06
				c0.432,0.198,0.852,0.422,1.25,0.681c0.188,0.12,0.373,0.245,0.549,0.381c-0.169-0.131,0.148,0.128,0.147,0.128
				c0.085,0.071,0.165,0.145,0.247,0.221c0.178,0.166,0.347,0.34,0.508,0.523c0.059,0.063,0.115,0.132,0.173,0.199
				c0.255,0.307-0.104-0.182,0.114,0.154c0.121,0.186,0.246,0.374,0.357,0.566c0.066,0.118,0.129,0.24,0.189,0.362
				c0.016,0.034,0.164,0.377,0.087,0.188c0.268,0.662,0.884,1.13,1.632,0.926c0.631-0.171,1.197-0.965,0.928-1.634
				c-1.848-4.575-6.865-6.349-11.479-6.427C43.444,31.419,43.443,34.075,45.153,34.103L45.153,34.103L45.153,34.103z"/>
			<path fill="#201614" d="M56.914,33.123c0.12,0.071,0.237,0.151,0.354,0.231c0.145,0.102-0.031-0.01-0.07-0.055
				c0.039,0.047,0.109,0.09,0.158,0.136c0.195,0.173,0.351,0.384,0.539,0.563c-0.221-0.208-0.094-0.125-0.033-0.039
				c0.039,0.053,0.078,0.112,0.115,0.169c0.074,0.114,0.145,0.233,0.208,0.353c0.058,0.108,0.108,0.22,0.163,0.332
				c0.072,0.146-0.102-0.279-0.023-0.053c0.022,0.062,0.048,0.128,0.07,0.193c0.082,0.246,0.148,0.499,0.194,0.756
				c0.011,0.055,0.015,0.112,0.027,0.166c-0.083-0.343-0.021-0.166-0.013-0.066c0.014,0.14,0.021,0.278,0.025,0.418
				c0.002,0.124,0.001,0.252-0.006,0.377c-0.006,0.127-0.054,0.293-0.035,0.416c-0.016-0.104,0.042-0.281,0.003-0.061
				c-0.013,0.07-0.026,0.136-0.042,0.208c-0.03,0.139-0.066,0.274-0.107,0.411c-0.199,0.665,0.236,1.474,0.926,1.633
				c0.713,0.161,1.421-0.216,1.631-0.929c0.827-2.781-0.229-5.933-2.746-7.45c-0.596-0.362-1.484-0.152-1.816,0.475
				C56.098,31.949,56.279,32.741,56.914,33.123L56.914,33.123L56.914,33.123z"/>
			<path fill="#201614" d="M39.095,37.033c-1.523,0.114-3.128,0.39-4.424,1.257c-1.199,0.804-2.193,1.943-3.227,2.936
				c-0.896,0.858-0.141,2.159,0.938,2.265c-0.206-0.021-0.199-0.071-0.285-0.185c-0.031-0.043,0.055-0.191,0.033-0.207
				c0.012,0.006-0.186,0.315-0.203,0.34c-0.108,0.182-0.211,0.363-0.309,0.549c-0.307,0.585-0.591,1.183-0.882,1.775
				c-0.317,0.646-0.635,1.293-0.974,1.924c-0.15,0.28-0.304,0.559-0.469,0.827c-0.059,0.093-0.158,0.194-0.197,0.298
				c0.008-0.019,0.172-0.185-0.02,0.015c-1.188,1.224,0.686,3.105,1.875,1.876c0.521-0.539,0.876-1.244,1.219-1.899
				c0.439-0.836,0.847-1.687,1.262-2.53c0.322-0.652,0.717-1.272,1.027-1.924c0.791-1.655-0.32-3.344-2.078-3.512
				c0.314,0.756,0.627,1.507,0.939,2.268c0.691-0.664,1.381-1.326,2.072-1.989c0.108-0.104,0.218-0.21,0.331-0.312
				c0.056-0.047,0.12-0.097,0.177-0.147c0.172-0.164-0.25,0.156,0.033-0.021c0.951-0.605,1.85-0.848,3.16-0.944
				c0.715-0.054,1.328-0.571,1.328-1.325C40.423,37.685,39.813,36.983,39.095,37.033L39.095,37.033L39.095,37.033z"/>
			<path fill="#201614" d="M73.388,59.692c0.811-0.676,2.275-0.504,2.762,0.491c0.311,0.632,0.293,1.442,0.293,2.128
				c-0.001,0.825-0.084,1.635-0.261,2.438c-0.327,1.484-0.907,3.005-1.847,4.21c-0.355,0.459-0.77,0.955-1.346,1.107
				c-0.661,0.172-1.363,0.195-2.039,0.291c-0.711,0.1-1.098,1.007-0.926,1.633c0.209,0.765,0.917,1.026,1.629,0.927
				c0.958-0.136,1.917-0.159,2.808-0.575c0.958-0.45,1.701-1.375,2.295-2.222c1.274-1.817,1.972-4.039,2.241-6.223
				c0.248-2.026,0.251-4.636-1.396-6.107c-1.765-1.575-4.322-1.45-6.092,0.026c-0.549,0.458-0.473,1.399,0,1.875
				C72.056,60.237,72.837,60.154,73.388,59.692L73.388,59.692L73.388,59.692z"/>
			<path fill="#201614" d="M70.339,68.851c-0.048,1.148-0.363,2.26-0.721,3.348c-0.09,0.275-0.18,0.547-0.285,0.816
				c0.143-0.36-0.037,0.07-0.068,0.139c-0.053,0.105-0.102,0.213-0.154,0.318c-0.689,1.388-1.529,2.711-2.431,3.969
				c-2.099,2.938-4.955,6.11-8.606,6.966c-1.66,0.391-0.957,2.95,0.706,2.56c4.286-1.007,7.589-4.59,10.074-8.02
				c2.154-2.97,3.985-6.343,4.138-10.096C73.062,67.145,70.407,67.149,70.339,68.851L70.339,68.851L70.339,68.851z"/>
			<path fill="#201614" d="M29.677,57.1c-1.764-1.478-4.328-1.607-6.09-0.028c-1.742,1.558-1.642,4.339-1.35,6.459
				c0.531,3.838,3.279,9.865,8.098,8.866c1.67-0.342,0.963-2.901-0.705-2.559c-1.174,0.243-2.293-0.911-2.908-1.775
				c-0.898-1.264-1.461-2.76-1.766-4.27c-0.156-0.766-0.217-1.542-0.211-2.32c0.005-0.652,0-1.412,0.293-2.011
				c0.484-0.992,1.951-1.164,2.762-0.487c0.549,0.46,1.338,0.537,1.877,0C30.147,58.501,30.228,57.563,29.677,57.1L29.677,57.1
				L29.677,57.1z"/>
			<path fill="#201614" d="M27.993,66.196c0.549,4.466,1.707,8.881,4.283,12.638c2.957,4.308,7.523,8.16,12.824,8.961
				c0.707,0.108,1.425-0.176,1.631-0.923c0.174-0.629-0.215-1.525-0.927-1.633c-4.72-0.717-8.802-4.083-11.394-7.975
				c-2.195-3.297-3.302-7.299-3.765-11.069c-0.087-0.711-0.548-1.326-1.327-1.326C28.67,64.87,27.905,65.479,27.993,66.196
				L27.993,66.196L27.993,66.196z"/>
			<path fill="#FFFFFF" d="M20.144,179.087c-0.084-0.147-0.166-0.297-0.258-0.444c-0.469-0.799-0.945-1.614-1.424-2.433
				c-0.244-0.414-0.482-0.832-0.721-1.246c-0.008-0.005-0.013-0.02-0.02-0.028c-0.232-0.409-0.469-0.815-0.709-1.23
				c-0.734-1.272-1.469-2.55-2.185-3.805c-0.187-0.317-0.36-0.633-0.534-0.94c-0.205-0.355-0.4-0.703-0.6-1.052
				c-0.322-0.575-0.639-1.14-0.953-1.695c-0.941-1.668-1.818-3.246-2.592-4.677c-0.102-0.18-0.197-0.36-0.289-0.533
				c-0.188-0.357-0.373-0.688-0.547-1.021c-0.271-0.496-0.516-0.964-0.742-1.401c-0.083-0.152-0.154-0.29-0.225-0.427
				c-0.188-0.354-0.354-0.69-0.51-1.001c-0.231-0.461-0.432-0.869-0.593-1.218c-0.669-1.454-1.874-7.917-1.843-13.058
				c0-9.868,1.088-27.873,2.088-30.147c2.911-6.673,8.642-9.338,12.977-12.091c3.989-2.524,10.349-5.25,14.254-6.838
				c0,0,0.303-0.119,0.604-0.242c0-0.021,0.013-0.075,0.045-0.162c0.257-0.674,1.521-3.234,2.164-4.154
				c0.021-0.034,0.046-0.065,0.067-0.09c0.069-0.104,0.096-0.258,0.219-0.289c0.128-0.039,0.262,0.064,0.367,0.158
				c0.096,0.09,0.23,0.201,0.391,0.332c0.303,0.242,0.711,0.551,1.18,0.905c0.166,0.122,0.335,0.253,0.516,0.387
				c0.336,0.244,0.689,0.514,1.063,0.788c0.122,0.091,0.244,0.181,0.368,0.268c0.496,0.369,1.01,0.75,1.514,1.123
				c0.16,0.125,0.322,0.244,0.482,0.359c0.838,0.627,1.617,1.214,2.203,1.683c0.104,0.083,0.207,0.169,0.298,0.244
				c0.283,0.233,0.503,0.429,0.638,0.569c0.014,0.008,0.025,0.018,0.031,0.029c0.035,0.034,0.052,0.055,0.071,0.08
				c0.476,1.116,1.114,2.493,1.289,3.061c0.012,0.045,0.037,0.114,0.078,0.201c0.019,0.051,0.051,0.111,0.076,0.184
				c0.02,0.034,0.034,0.072,0.052,0.11c0.038,0.078,0.078,0.156,0.115,0.244c0.033,0.091,0.078,0.181,0.131,0.283
				c0.051,0.109,0.108,0.222,0.159,0.343c0.032,0.057,0.065,0.115,0.093,0.181c0.32,0.657,0.707,1.438,1.061,2.165
				c0.085,0.16,0.162,0.326,0.238,0.489c0.078,0.161,0.156,0.315,0.227,0.463c0.058-0.127,0.123-0.263,0.193-0.397
				c0.115-0.234,0.232-0.472,0.355-0.716c0.16-0.328,0.32-0.663,0.488-0.992c0.053-0.108,0.104-0.222,0.16-0.328
				c0.207-0.431,0.402-0.829,0.568-1.173c0.045-0.102,0.092-0.195,0.129-0.283c0.09-0.187,0.162-0.349,0.213-0.477
				c0.025-0.06,0.045-0.11,0.062-0.156c0.021-0.045,0.033-0.084,0.039-0.111c0.162-0.565,0.787-1.937,1.264-3.045
				c0.07-0.082,0.193-0.201,0.368-0.342c0.11-0.098,0.243-0.206,0.397-0.315c0.078-0.066,0.162-0.123,0.252-0.194
				c0.078-0.06,0.168-0.125,0.258-0.184c0.09-0.074,0.188-0.139,0.283-0.209c0.199-0.15,0.413-0.298,0.632-0.45
				c0.863-0.607,1.882-1.302,2.868-1.974c0.102-0.07,0.213-0.143,0.321-0.217c0.534-0.361,1.058-0.717,1.533-1.046
				c0.117-0.077,0.239-0.161,0.349-0.238c0.342-0.232,0.651-0.45,0.928-0.648c0.109-0.076,0.213-0.151,0.304-0.214
				c0.089-0.064,0.179-0.128,0.257-0.188c0.154-0.12,0.283-0.224,0.381-0.302c0.115-0.095,0.251-0.195,0.393-0.155
				c0.129,0.04,0.161,0.202,0.244,0.304c0.071,0.091,0.156,0.192,0.246,0.309c0.393,0.523,0.939,1.285,1.41,2.008
				c0.104,0.157,0.205,0.312,0.297,0.461c0.077,0.13,0.154,0.251,0.219,0.365c0.059,0.1,0.109,0.189,0.154,0.272
				c0.065,0.109,0.117,0.213,0.16,0.308c0.033,0.059,0.061,0.125,0.078,0.177c0.619,0.249,1.102,0.44,1.102,0.44
				c0.768,0.313,1.631,0.673,2.553,1.057c0.173,0.076,0.354,0.151,0.534,0.229c1.72,0.742,3.614,1.578,5.45,2.469
				c0.232,0.107,0.459,0.217,0.684,0.337c0.341,0.157,0.677,0.326,1.012,0.499c0.221,0.109,0.439,0.227,0.656,0.333
				c0.156,0.087,0.305,0.165,0.453,0.24c0.302,0.162,0.592,0.323,0.882,0.482c0.722,0.402,1.397,0.804,2.024,1.192
				c1.287,0.819,2.582,1.508,3.846,2.217c0.18,0.098,0.361,0.201,0.541,0.303c0.361,0.207,0.715,0.412,1.07,0.627
				c0.174,0.106,0.354,0.222,0.529,0.328c0.217,0.134,0.438,0.275,0.648,0.426c0.161,0.111,0.322,0.219,0.484,0.334
				c0.128,0.092,0.251,0.182,0.379,0.275c0.587,0.438,1.16,0.915,1.723,1.459c0.082,0.074,0.166,0.159,0.242,0.244
				c0.136,0.131,0.264,0.264,0.394,0.405c0.175,0.187,0.349,0.378,0.517,0.581c0.135,0.155,0.264,0.316,0.393,0.476
				c0.193,0.237,0.372,0.481,0.554,0.749c0.116,0.158,0.233,0.328,0.349,0.502c0.115,0.171,0.232,0.348,0.34,0.527
				c0.266,0.426,0.535,1.053,0.807,1.843l0.117,0.347c0.107,0.317,0.211,0.66,0.314,1.028c0.084,0.289,0.168,0.583,0.252,0.901
				c0.037,0.139,0.076,0.279,0.109,0.426c0.07,0.268,0.143,0.551,0.212,0.841c0.188,0.769,0.374,1.598,0.562,2.468
				c0.078,0.38,0.16,0.774,0.236,1.181c0.098,0.452,0.188,0.912,0.271,1.383c0.073,0.37,0.143,0.748,0.213,1.129
				c0.251,1.398,0.496,2.854,0.734,4.331c0.053,0.322,0.098,0.645,0.148,0.971c0.039,0.258,0.079,0.519,0.115,0.773
				c0.072,0.46,0.137,0.921,0.199,1.386c0.033,0.232,0.068,0.465,0.098,0.696c0.098,0.689,0.188,1.388,0.279,2.067
				c0,0,0.006,0.014,0,0.023c0.062,0.447,0.119,0.898,0.172,1.345c0.007,0.04,0.007,0.077,0.012,0.117
				c0.033,0.217,0.059,0.431,0.08,0.643c0.107,0.87,0.207,1.727,0.289,2.557c0.058,0.484,0.104,0.959,0.146,1.424
				c0.033,0.37,0.072,0.729,0.098,1.077c0.039,0.406,0.078,0.806,0.104,1.188c0.064,0.714,0.109,1.396,0.147,2.034
				c0.009,0.121,0.015,0.243,0.02,0.359c0.091,1.474,0.124,2.738,0.099,3.722c-0.073,1.176-0.176,2.458-0.305,3.811
				c-0.052,0.484-0.096,0.972-0.156,1.471c-0.115,1.119-0.256,2.287-0.403,3.466c-0.032,0.243-0.065,0.496-0.098,0.749
				c-0.128,0.985-0.264,1.976-0.405,2.975c-0.052,0.375-0.104,0.742-0.16,1.113c-0.099,0.646-0.188,1.285-0.285,1.917
				c-0.096,0.638-0.193,1.269-0.296,1.892c-0.032,0.207-0.065,0.406-0.097,0.607c-0.053,0.334-0.111,0.678-0.169,1.005
				c-0.026,0.181-0.058,0.36-0.09,0.539c0,0.022,0,0.039-0.006,0.054c-0.058,0.354-0.116,0.7-0.175,1.045
				c-0.057,0.347-0.115,0.689-0.172,1.024c-0.025,0.12-0.047,0.249-0.063,0.373c-0.041,0.2-0.073,0.4-0.104,0.593
				c-0.006,0.006-0.006,0.014-0.006,0.025c-0.053,0.304-0.109,0.606-0.162,0.902c-0.168,0.914-0.328,1.777-0.482,2.583
				c-0.027,0.162-0.06,0.317-0.092,0.471c-0.083,0.45-0.174,0.89-0.258,1.296c-0.038,0.201-0.076,0.399-0.121,0.593
				c-0.04,0.2-0.078,0.383-0.117,0.565c-0.019,0.104-0.045,0.206-0.064,0.303c-0.062,0.303-0.121,0.581-0.18,0.84
				c-0.045,0.173-0.078,0.334-0.117,0.485l-3.852,7.597c-3.377,0-65.012,0.586-66.006,0.586L20.144,179.087L20.144,179.087z"/>
			<path fill="#201614" d="M34.364,92.526c-4.758,1.936-9.58,3.943-13.982,6.607c-3.762,2.278-7.766,4.48-10.719,7.803
				c-1.445,1.625-2.871,3.6-3.545,5.693c-0.35,1.083-0.446,2.28-0.586,3.401c-0.498,3.967-0.746,7.971-0.972,11.963
				c-0.278,4.953-0.479,9.922-0.483,14.884c-0.002,1.709,2.652,1.712,2.654,0c0.004-8.342,0.391-16.746,1.25-25.048
				c0.146-1.409,0.23-2.32,0.492-3.655c0.295-1.488,1.102-2.767,1.998-4.029c2.51-3.539,6.306-5.671,9.92-7.893
				c4.656-2.865,9.619-5.109,14.678-7.169c0.664-0.27,1.133-0.882,0.928-1.629C35.823,92.825,35.032,92.256,34.364,92.526
				L34.364,92.526L34.364,92.526z"/>
			<path fill="#201614" d="M51.745,114.728c-0.008-3.684-0.018-7.367-0.018-11.051c0-1.71-2.652-1.712-2.652,0
				c0,3.684,0.008,7.367,0.018,11.051C49.096,116.436,51.749,116.438,51.745,114.728L51.745,114.728L51.745,114.728z"/>
			<path fill="#201614" d="M51.733,103.108c-0.453-0.942-0.92-1.881-1.381-2.818c-0.192-0.395-0.387-0.791-0.574-1.191
				c-0.073-0.152-0.143-0.307-0.213-0.459c-0.148-0.311,0.023,0.109-0.05-0.115c-0.35-1.049-0.839-2.055-1.282-3.063
				c-0.236-0.542-0.585-0.864-1.025-1.229c-1.199-1-2.469-1.922-3.723-2.852c-0.699-0.515-1.399-1.031-2.099-1.55
				c-0.292-0.218-0.587-0.434-0.88-0.655c-0.129-0.099-0.262-0.197-0.393-0.299c-0.069-0.049-0.416-0.315-0.232-0.174
				c-0.529-0.411-1.047-0.986-1.713-1.122c-1.23-0.25-1.828,1.021-2.396,1.884c-0.477,0.723-0.947,1.456-1.332,2.23
				c-0.3,0.604-0.604,1.251-0.402,1.93c0.396,1.338,1.373,2.639,2.086,3.814c1.045,1.717,2.131,3.422,3.35,5.021
				c0.885,1.159,2.342,1.215,3.147-0.057c0.37-0.586,0.788-1.137,1.206-1.688c1.098-1.446,2.413-2.922,3.041-4.648
				c0.584-1.609-1.979-2.304-2.559-0.709c-0.072,0.195,0.103-0.158-0.063,0.135c-0.065,0.114-0.126,0.234-0.192,0.348
				c-0.17,0.294-0.357,0.578-0.547,0.862c-0.424,0.619-0.875,1.224-1.328,1.823c-0.686,0.911-1.342,1.828-1.984,2.764
				c0.16-0.159,0.317-0.314,0.477-0.476c0.02-0.011,0.037-0.022,0.055-0.034c0.236,0,0.471,0,0.705,0
				c0.289,0.305,0.363,0.373,0.229,0.201c-0.057-0.07-0.111-0.148-0.167-0.219c-0.114-0.156-0.226-0.309-0.337-0.465
				c-0.216-0.301-0.428-0.606-0.637-0.913c-0.438-0.645-0.863-1.296-1.279-1.956c-0.748-1.186-1.478-2.387-2.156-3.617
				c-0.193-0.346-0.369-0.703-0.553-1.055c-0.11-0.209,0.08,0.283,0.053,0.125c-0.041-0.246,0.126,0.632,0.01,0.487
				c-0.015-0.016,0.119-0.329,0.062-0.188c-0.058,0.146,0.096-0.184,0.11-0.21c0.307-0.585,0.645-1.15,0.998-1.705
				c0.293-0.461,0.596-1.088,0.992-1.468c-0.432,0.114-0.861,0.228-1.291,0.341c-0.209-0.033-0.211-0.164-0.002,0.006
				c0.094,0.078,0.191,0.154,0.287,0.231c0.302,0.241,0.61,0.476,0.918,0.711c0.658,0.503,1.326,0.995,1.99,1.485
				c1.342,0.991,2.871,2.104,4.06,3.037c0.374,0.295,0.901,0.611,1.183,1.001c0.121,0.169,0.342,0.868,0.508,1.24
				c0.193,0.448,0.369,0.897,0.541,1.35c0.685,1.805,1.662,3.511,2.494,5.247C50.181,105.988,52.468,104.644,51.733,103.108
				L51.733,103.108L51.733,103.108z"/>
			<path fill="#201614" d="M51.472,104.46c0.846-1.768,1.858-3.499,2.516-5.349c0.176-0.493,0.381-0.972,0.59-1.456
				c0.094-0.214,0.244-0.473,0.306-0.698c0.102-0.38-0.023-0.146,0.097-0.304c0.371-0.492,0.584-0.49,1.125-0.878
				c2.535-1.831,5.386-3.769,7.813-5.448c-0.222,0.062-0.446,0.123-0.669,0.186c0.069-0.012,0.139-0.018,0.207-0.024
				c-0.312-0.132-0.625-0.263-0.938-0.39c0.783,0.712,1.586,2.114,2.199,3.161c0.115,0.195,0.203,0.47,0.346,0.643
				c-0.055-0.134-0.066-0.162-0.041-0.079c0.062,0.218,0.072,0.047,0.027-0.514c-0.021,0.156-0.024-0.055,0.021-0.033
				c-0.019-0.009,0.082-0.157-0.017,0.03c-0.045,0.086-0.086,0.173-0.129,0.255c-0.105,0.211-0.219,0.41-0.331,0.617
				c-0.675,1.207-1.403,2.39-2.153,3.555c-0.442,0.686-0.895,1.365-1.363,2.034c-0.375,0.539-0.746,1.194-1.246,1.632
				c0.195-0.111,0.391-0.226,0.586-0.34c0.144,0.031,0.289,0.062,0.432,0.1c0.158,0.155,0.317,0.315,0.477,0.477
				c-0.705-0.949-1.293-2.029-1.939-3.021c-0.435-0.662-0.866-1.332-1.279-2.011c-0.172-0.281-0.343-0.568-0.505-0.86
				c-0.069-0.127-0.14-0.255-0.205-0.383c-0.026-0.054-0.242-0.536-0.108-0.21c-0.271-0.662-0.883-1.133-1.633-0.927
				c-0.629,0.174-1.199,0.964-0.928,1.633c0.633,1.547,1.611,2.948,2.523,4.339c0.436,0.663,0.879,1.317,1.3,1.988
				c0.41,0.652,0.729,1.321,1.56,1.51c1.281,0.289,1.988-0.841,2.641-1.725c0.629-0.851,1.221-1.729,1.799-2.616
				c0.948-1.458,1.9-2.942,2.689-4.5c0.283-0.555,0.519-1.056,0.354-1.692c-0.191-0.756-0.712-1.475-1.132-2.113
				c-0.522-0.796-1.105-1.541-1.66-2.314c-0.754-1.052-1.741-1.086-2.779-0.273c-0.146,0.115,0.213-0.154-0.041,0.029
				c-0.102,0.075-0.203,0.15-0.305,0.224c-0.27,0.192-0.543,0.383-0.816,0.576c-0.666,0.462-1.336,0.916-2.005,1.372
				c-1.392,0.942-2.788,1.879-4.148,2.864c-0.526,0.378-1.089,0.755-1.556,1.212c-0.738,0.711-1.082,2.055-1.466,2.996
				c-0.093,0.222-0.18,0.447-0.257,0.672c-0.031,0.09-0.139,0.396-0.033,0.136c-0.178,0.439-0.402,0.868-0.609,1.298
				c-0.533,1.094-1.078,2.183-1.604,3.281C48.446,104.654,50.734,106.002,51.472,104.46L51.472,104.46L51.472,104.46z"/>
			<path fill="#201614" d="M21.417,117.802c0.254,7.125,0.454,14.254,0.59,21.381c0.031,1.555,0.061,3.111,0.061,4.667
				c0.001,1.708,2.656,1.711,2.654,0c-0.004-7.054-0.273-14.107-0.491-21.156c-0.05-1.63-0.103-3.262-0.16-4.892
				C24.01,116.099,21.356,116.091,21.417,117.802L21.417,117.802L21.417,117.802z"/>
			<g>
				<path fill="#201614" d="M22.067,143.85c0.039,2.347,0.936,4.671,1.824,6.81c0.945,2.273,2.076,4.46,3.227,6.637
					c2.635,4.99,5.474,9.867,8.285,14.761c1.276,2.222,2.556,4.444,3.764,6.704c0.807,1.505,3.098,0.168,2.291-1.34
					c-2.271-4.248-4.749-8.391-7.135-12.575c-2.619-4.591-5.317-9.209-7.496-14.034c-0.961-2.128-2.066-4.59-2.105-6.962
					C24.692,142.145,22.038,142.14,22.067,143.85L22.067,143.85L22.067,143.85z"/>
				<path fill="#201614" d="M22.347,180.194c-3.11-5.199-6.119-10.461-9.078-15.749c-1.383-2.472-2.758-4.952-4.043-7.478
					c-0.172-0.338-0.34-0.672-0.504-1.01c-0.061-0.123-0.117-0.24-0.176-0.359c-0.023-0.051-0.23-0.516-0.123-0.256
					c0.074,0.186-0.057-0.154-0.076-0.224c-0.062-0.191-0.121-0.384-0.174-0.578c-0.256-0.926-0.445-1.87-0.617-2.814
					c-0.527-2.916-0.834-5.887-0.828-8.849c0.005-1.708-2.648-1.712-2.652,0c-0.007,2.766,0.277,5.531,0.705,8.263
					c0.291,1.868,0.574,3.843,1.37,5.575c1.191,2.601,2.632,5.106,4.015,7.611c1.535,2.773,3.104,5.525,4.682,8.274
					c1.716,2.991,3.439,5.976,5.207,8.934C20.931,183,23.226,181.666,22.347,180.194L22.347,180.194L22.347,180.194z"/>
			</g>
			<path fill="#201614" d="M23.573,183.146c1.889-1.839,3.967-3.49,6.096-5.039c1.196-0.87,2.416-1.705,3.675-2.479
				c0.56-0.346,1.128-0.68,1.708-0.991c0.289-0.159,0.58-0.308,0.876-0.454c0.14-0.067,0.278-0.133,0.419-0.197
				c0.031-0.014,0.388-0.169,0.22-0.1c0.661-0.274,1.134-0.879,0.927-1.633c-0.172-0.62-0.969-1.2-1.633-0.925
				c-2.705,1.125-5.169,2.77-7.531,4.487c-2.309,1.682-4.582,3.462-6.633,5.454C20.47,182.459,22.347,184.335,23.573,183.146
				L23.573,183.146L23.573,183.146z"/>
			<path fill="#201614" d="M68.443,39.633c-0.39-0.053-0.104-0.007-0.021,0.018c0.047,0.01,0.287,0.068,0.074,0.015
				c-0.197-0.048,0.01,0.016,0.064,0.047c0.06,0.034,0.146,0.108,0.209,0.136c-0.104-0.037-0.197-0.164-0.041-0.023
				c0.054,0.049,0.104,0.097,0.154,0.15c0.045,0.048,0.116,0.162,0.172,0.195c-0.096-0.06-0.146-0.2-0.025-0.025
				c0.093,0.133,0.176,0.272,0.254,0.414c0.035,0.071,0.213,0.323,0.191,0.396c-0.07-0.17-0.089-0.211-0.053-0.117
				c0.014,0.036,0.027,0.069,0.04,0.104c0.021,0.056,0.041,0.11,0.065,0.164c0.051,0.132,0.104,0.263,0.159,0.393
				c0.502,1.2,1.034,2.426,1.769,3.512c0.387,0.576,1.184,0.882,1.814,0.477c0.569-0.372,0.891-1.198,0.474-1.817
				c-0.361-0.535-0.661-1.112-0.946-1.694c-0.156-0.314-0.305-0.631-0.447-0.948c-0.07-0.159-0.139-0.318-0.207-0.476
				c0.166,0.381-0.031-0.077-0.071-0.185c-0.31-0.791-0.64-1.491-1.196-2.14c-0.641-0.74-1.477-1.125-2.433-1.246
				c-0.312-0.042-0.728,0.174-0.938,0.386c-0.229,0.231-0.402,0.608-0.389,0.937c0.017,0.347,0.129,0.699,0.389,0.941
				C67.783,39.5,68.073,39.584,68.443,39.633L68.443,39.633L68.443,39.633z"/>
			<path fill="#201614" d="M66.432,95.078c0.87,0.355,1.751,0.683,2.628,1.022c0.501,0.193,1.002,0.389,1.498,0.586
				c0.25,0.099,0.496,0.196,0.743,0.298c0.067,0.029,0.401,0.169,0.187,0.08c-0.213-0.09-0.01-0.006,0.038,0.015
				c0.063,0.028,0.124,0.055,0.187,0.083c0.34,0.146,0.65,0.237,1.022,0.133c0.308-0.083,0.642-0.323,0.794-0.608
				c0.303-0.574,0.203-1.518-0.476-1.818c-1.946-0.847-3.949-1.553-5.917-2.347c-0.299-0.122-0.756-0.022-1.021,0.13
				c-0.275,0.163-0.537,0.48-0.609,0.797C65.329,94.217,65.74,94.801,66.432,95.078L66.432,95.078L66.432,95.078z"/>
			<path fill="#201614" d="M46.108,75.427c1.295,1.262,3.324,1.648,5.066,1.648c1.742-0.003,3.77-0.383,5.065-1.648
				c0.498-0.49,0.524-1.396,0-1.88c-0.534-0.49-1.347-0.519-1.876,0c-0.051,0.052-0.289,0.244-0.086,0.088s-0.107,0.067-0.177,0.11
				c-0.106,0.065-0.216,0.128-0.329,0.185c-0.074,0.038-0.152,0.071-0.23,0.107c0.141-0.065,0.193-0.075,0.02-0.015
				c-0.359,0.126-0.723,0.23-1.098,0.301c-0.017,0.003-0.41,0.062-0.146,0.029c-0.111,0.017-0.226,0.028-0.338,0.033
				c-0.268,0.024-0.537,0.034-0.805,0.034c-0.246,0-0.492-0.008-0.738-0.026c-0.137-0.01-0.271-0.02-0.406-0.041
				c0.191,0.025,0-0.003-0.088-0.018c-0.377-0.068-0.752-0.164-1.112-0.295c-0.071-0.025-0.353-0.162-0.026-0.003
				c-0.063-0.031-0.127-0.058-0.192-0.091c-0.125-0.062-0.245-0.127-0.366-0.201c-0.08-0.051-0.174-0.146-0.264-0.178
				c0.24,0.088,0.221,0.188,0.103,0.073c-0.031-0.032-0.066-0.062-0.099-0.094c-0.496-0.483-1.389-0.532-1.877,0
				C45.627,74.071,45.579,74.905,46.108,75.427L46.108,75.427L46.108,75.427z"/>
			<path fill="#201614" d="M50.481,65.775c0.184,0.699,0.359,1.406,0.465,2.123c-0.016-0.118-0.031-0.235-0.048-0.351
				c0.013,0.097,0.019,0.193,0.009,0.292c0.016-0.116,0.03-0.234,0.047-0.354c-0.007,0.044-0.018,0.087-0.033,0.136
				c0.045-0.104,0.092-0.214,0.135-0.318c-0.014,0.029-0.027,0.058-0.046,0.084c0.069-0.089,0.137-0.18,0.208-0.268
				c-0.023,0.025-0.045,0.046-0.071,0.067c0.091-0.071,0.179-0.139,0.27-0.209c-0.056,0.036-0.11,0.065-0.169,0.091
				c0.105-0.046,0.211-0.091,0.316-0.134c-0.093,0.037-0.185,0.066-0.283,0.083c0.117-0.017,0.234-0.032,0.353-0.047
				c-0.089,0.01-0.177,0.01-0.267,0c0.119,0.015,0.236,0.03,0.354,0.047c-0.102-0.014-0.199-0.04-0.3-0.052
				c-0.177-0.056-0.353-0.065-0.53-0.024c-0.175,0.008-0.34,0.06-0.49,0.158c-0.277,0.159-0.539,0.473-0.611,0.791
				c-0.076,0.34-0.061,0.723,0.133,1.022c0.172,0.268,0.463,0.564,0.794,0.61c0.251,0.034,0.491,0.1,0.745,0.106
				c0.4,0.02,0.77-0.106,1.127-0.269c0.445-0.206,0.794-0.62,0.914-1.099c0.1-0.408,0.059-0.748-0.012-1.159
				c-0.115-0.684-0.271-1.363-0.449-2.035c-0.084-0.32-0.324-0.626-0.609-0.793c-0.285-0.164-0.703-0.238-1.023-0.133
				C50.716,64.366,50.292,65.054,50.481,65.775L50.481,65.775L50.481,65.775z"/>
			<path fill="#201614" d="M39.471,59.692c-0.354,1.154-0.122,3.806,2.062,4.029c2.889-0.013,3.042-3.221,2.07-4.731
				C42.808,57.754,40.466,57.241,39.471,59.692L39.471,59.692z"/>
			<path fill="#201614" d="M62.601,59.692c0.355,1.154,0.123,3.806-2.061,4.029c-2.891-0.013-3.043-3.221-2.072-4.731
				C59.266,57.754,61.604,57.241,62.601,59.692L62.601,59.692z"/>
			<path fill="#A67958" d="M150.983,88.44c-0.672-3.431-1.248-7.984-1.322-13.929c0.275-3.151-0.01-7.707-0.135-9.454
				c-0.434-6.068-3.145-12.843-7.047-16.607c-1.688-1.627-2.178-2.387-4.014-3.383c0,0-1.438-0.779-2.877-1.562
				c-0.766-0.295-1.531-0.589-1.531-0.589c-2.713-1.046-5.236-1.552-9.996-1.552c-7.805,0-14.752,4.024-17.834,6.976
				c-5.113,4.894-8.359,13.836-7.949,26.17c0.002,8.985-0.683,15.47-1.642,19.149c-0.657,2.523-1.212,6.72-1.234,9.283
				c-0.034,4.19,4.188,8.783,10.415,7.368c0,0,7.316-1.889,16.486-2.165c9.17-0.279,21.559,0.961,21.559,0.961
				c5.568,2.147,10.086-2.844,10.051-7.036c-0.021-2.565-0.408-4.54-1.203-7.014C152.245,93.612,151.577,91.466,150.983,88.44
				L150.983,88.44z"/>
			<path fill="#FFFFFF" d="M106.292,110.654c0.295-0.13,8.393-4.229,9.191-6.196c0.607-1.504,0.377-3.641,0.445-5.162
				c-2.293-1.111-4.412-2.9-6.271-5.127c-2.242-2.684-3.41-5.699-4.051-8.253c-0.352-0.013-0.57-0.028-0.57-0.028
				c-0.861-0.131-1.672-0.523-2.334-1.051c-0.861-0.694-1.481-1.612-1.958-2.566c-0.976-1.965-1.399-4.161-1.212-6.314
				c0.051-0.547,0.139-1.105,0.414-1.599c0.392-0.702,1.168-1.217,2.023-1.347c0.773-0.111,1.598,0.098,2.203,0.554
				c4.637-4.948,10.079-8.868,14.775-13.478c-0.246,2.078-1.553,6.473-0.166,6.059c5.826-1.667,10.518-5.07,14.213-9.876
				c0.773,2.583,1.754,6.243,2.654,7.934c1.391,2.608,4.744,9.168,8.879,9.333c0.598-0.437,1.4-0.635,2.156-0.525
				c0.854,0.13,1.631,0.645,2.021,1.347c0.277,0.493,0.365,1.052,0.416,1.599c0.188,2.153-0.238,4.35-1.215,6.314
				c-0.475,0.954-1.094,1.872-1.957,2.566c-0.723,0.575-1.621,0.992-2.572,1.082c-0.217,0.994-0.537,1.888-0.672,2.305
				c-0.701,1.898-4.729,8.801-9.723,10.971c0.086,1.531-0.17,3.725,0.451,5.264c0.795,1.967,8.139,6.066,8.434,6.196
				c0,0-8.449,10.552-19.287,10.552C111.745,121.206,106.292,110.654,106.292,110.654L106.292,110.654z"/>
			<path fill="#201614" d="M96.951,74.512c-0.005,6.038-0.062,12.329-1.456,18.24c-0.709,3.001-1.227,6.048-1.385,9.133
				c-0.137,2.676,0.602,5.136,2.479,7.104c2.49,2.611,6.137,3.341,9.58,2.599c1.668-0.356,0.963-2.917-0.705-2.556
				c-2.535,0.546-5.174-0.003-6.999-1.922c-0.728-0.764-1.267-1.697-1.545-2.715c-0.304-1.121-0.185-2.301-0.095-3.445
				c0.207-2.676,0.734-5.252,1.312-7.86c0.521-2.347,0.803-4.744,1.017-7.131c0.34-3.806,0.448-7.629,0.452-11.447
				C99.607,72.806,96.954,72.803,96.951,74.512L96.951,74.512L96.951,74.512z"/>
			<path fill="#201614" d="M148.335,74.512c0.08,5.825,0.613,11.694,2.061,17.35c0.465,1.816,1.109,3.582,1.572,5.396
				c0.672,2.627,1.135,5.608-0.367,8.026c-1.615,2.595-4.535,3.595-7.387,2.543c-1.604-0.589-2.297,1.976-0.705,2.56
				c3.051,1.124,6.342,0.438,8.732-1.754c2.211-2.025,3.131-4.81,2.961-7.75c-0.166-2.817-1.025-5.41-1.803-8.094
				c-0.611-2.107-1.088-4.255-1.449-6.423c-0.652-3.914-0.908-7.888-0.963-11.854C150.964,72.806,148.312,72.8,148.335,74.512
				L148.335,74.512L148.335,74.512z"/>
			<path fill="#201614" d="M145.239,74.646c0.658-0.548,1.803-0.425,2.273,0.301c0.309,0.479,0.307,1.156,0.322,1.7
				c0.018,0.691-0.018,1.391-0.143,2.069c-0.447,2.46-1.697,5.402-4.428,5.894c-0.707,0.127-1.105,0.986-0.928,1.633
				c0.205,0.744,0.924,1.053,1.633,0.926c4.176-0.748,6.168-5.463,6.482-9.245c0.16-1.947,0.002-4.167-1.682-5.429
				c-1.656-1.24-3.859-1.016-5.406,0.279c-0.551,0.46-0.475,1.398,0,1.872C143.909,75.19,144.688,75.111,145.239,74.646
				L145.239,74.646L145.239,74.646z"/>
			<path fill="#201614" d="M142.261,84.302c-0.043,1.043-0.332,2.045-0.654,3.031c-0.084,0.25-0.166,0.502-0.264,0.746
				c0.145-0.374-0.143,0.291-0.195,0.399c-0.627,1.258-1.389,2.462-2.205,3.604c-1.902,2.666-4.494,5.549-7.809,6.328
				c-1.66,0.391-0.957,2.949,0.705,2.56c3.953-0.931,6.996-4.231,9.285-7.397c1.979-2.729,3.65-5.826,3.789-9.271
				C144.981,82.596,142.329,82.599,142.261,84.302L142.261,84.302L142.261,84.302z"/>
			<path fill="#201614" d="M105.288,72.774c-1.547-1.299-3.746-1.516-5.406-0.279c-1.684,1.256-1.842,3.482-1.68,5.429
				c0.314,3.782,2.308,8.497,6.482,9.245c0.705,0.127,1.43-0.189,1.633-0.926c0.175-0.645-0.219-1.506-0.928-1.633
				c-2.732-0.491-3.979-3.434-4.428-5.894c-0.119-0.645-0.154-1.3-0.145-1.95c0.009-0.559,0.002-1.236,0.275-1.741
				c0.435-0.796,1.642-0.943,2.32-0.379c0.549,0.462,1.338,0.538,1.875,0C105.761,74.177,105.842,73.234,105.288,72.774
				L105.288,72.774L105.288,72.774z"/>
			<path fill="#201614" d="M103.556,81.876c0.509,4.137,1.584,8.232,3.994,11.7c2.727,3.922,6.883,7.413,11.726,8.154
				c0.708,0.106,1.426-0.181,1.632-0.929c0.172-0.627-0.215-1.521-0.927-1.628c-4.259-0.655-7.941-3.665-10.3-7.171
				c-2.023-3.009-3.049-6.696-3.471-10.127c-0.089-0.712-0.547-1.326-1.328-1.326C104.233,80.55,103.468,81.157,103.556,81.876
				L103.556,81.876L103.556,81.876z"/>
			<path fill="#201614" d="M131.782,56.856c0.619,2.076,1.176,4.186,1.943,6.222c0.547,1.45,1.293,2.81,2.068,4.153
				c1.709,2.957,3.996,6.452,7.473,7.448c1.645,0.469,2.346-2.09,0.705-2.561c-1.412-0.401-2.502-1.499-3.424-2.59
				c-1.031-1.215-1.875-2.593-2.656-3.974c-0.666-1.181-1.316-2.354-1.771-3.632c-0.678-1.896-1.205-3.843-1.777-5.772
				C133.856,54.516,131.298,55.212,131.782,56.856L131.782,56.856L131.782,56.856z"/>
			<path fill="#201614" d="M132.044,55.348c-2.648,3.413-5.912,6.258-9.836,8.11c-0.939,0.448-1.91,0.819-2.903,1.139
				c-0.196,0.065-0.742,0.126-0.876,0.271c0.057-0.01,0.117-0.015,0.174-0.023c0.483,0.043,0.785,0.249,0.902,0.621
				c-0.043-0.006-0.016-0.01-0.02-0.108c-0.006-0.146-0.003-0.294,0.006-0.438c0.076-1.624,0.578-3.219,0.781-4.832
				c0.155-1.201-1.516-1.668-2.264-0.938c-4.76,4.666-9.896,8.935-14.773,13.477c-1.253,1.165,0.627,3.039,1.875,1.873
				c4.879-4.539,10.014-8.81,14.775-13.474c-0.754-0.312-1.51-0.626-2.264-0.938c-0.205,1.615-0.914,3.619-0.783,5.4
				c0.072,0.984,0.586,1.947,1.686,2.002c1.053,0.051,2.354-0.603,3.309-0.992c4.818-1.946,8.908-5.175,12.088-9.272
				c0.438-0.566,0.551-1.323,0-1.876C133.464,54.89,132.485,54.779,132.044,55.348L132.044,55.348L132.044,55.348z"/>
			<path fill="#201614" d="M134.411,41.636c-3.643-1.389-7.639-1.76-11.514-1.564c-4.42,0.222-8.753,1.586-12.606,3.735
				c-2.888,1.607-5.39,3.658-7.362,6.315c-2.064,2.783-3.463,6.057-4.393,9.38c-1.355,4.866-1.738,9.977-1.585,15.009
				c0.054,1.702,2.708,1.71,2.655,0c-0.23-7.414,0.66-15.409,4.746-21.792c3.635-5.676,10.529-9.141,17.111-9.879
				c4.082-0.46,8.391-0.113,12.24,1.354c0.67,0.258,1.455-0.279,1.633-0.927C135.542,42.524,135.083,41.893,134.411,41.636
				L134.411,41.636L134.411,41.636z"/>
			<path fill="#201614" d="M150.987,74.512c0.186-2.265,0.129-4.546,0.021-6.813c-0.094-2.005-0.225-4.006-0.59-5.982
				c-0.859-4.679-2.793-9.355-5.885-13.004c-1.52-1.8-3.328-3.642-5.398-4.79c-1.496-0.83-2.836,1.463-1.34,2.29
				c1.674,0.93,3.016,2.366,4.314,3.754c1.465,1.573,2.592,3.444,3.508,5.379c1.783,3.77,2.504,7.776,2.715,11.909
				c0.125,2.414,0.199,4.844,0.002,7.257C148.194,76.214,150.849,76.202,150.987,74.512L150.987,74.512L150.987,74.512z"/>
			<path fill="#201614" d="M131.673,99.705c0.021,1.685-0.143,3.501,0.482,5.106c0.348,0.895,1.031,1.583,1.75,2.193
				c1.732,1.477,3.688,2.707,5.645,3.859c0.537,0.32,1.078,0.672,1.648,0.936c0.65,0.3,1.43,0.184,1.816-0.475
				c0.334-0.574,0.176-1.514-0.477-1.814c-1.277-0.589-2.492-1.423-3.674-2.182c-0.461-0.296-0.92-0.598-1.373-0.91
				c-0.213-0.152-0.43-0.304-0.641-0.456c-0.111-0.079-0.221-0.161-0.334-0.245c-0.047-0.036-0.094-0.07-0.141-0.106
				c-0.17-0.128,0.238,0.192-0.047-0.036c-0.365-0.289-0.727-0.588-1.064-0.91c-0.137-0.133-0.27-0.27-0.396-0.41
				c-0.051-0.061-0.102-0.123-0.152-0.186c0.168,0.193,0.086,0.133,0.004-0.018c-0.041-0.07-0.082-0.138-0.117-0.212
				c0.127,0.267-0.039-0.179-0.064-0.275c-0.102-0.379-0.145-0.696-0.172-1.089c-0.064-0.921-0.027-1.848-0.039-2.771
				C134.304,97.999,131.651,97.994,131.673,99.705L131.673,99.705L131.673,99.705z"/>
			<path fill="#201614" d="M114.591,99.705c-0.01,0.836,0.02,1.67-0.021,2.503c-0.02,0.361-0.047,0.701-0.113,1.035
				c-0.039,0.189-0.102,0.371-0.145,0.562c-0.068,0.291,0.08-0.058-0.045,0.13c-0.037,0.055-0.078,0.117-0.111,0.175
				c-0.127,0.229,0.176-0.175,0.02-0.026c-0.145,0.137-0.271,0.293-0.416,0.431c-0.156,0.148-0.32,0.286-0.486,0.423
				c-0.091,0.077-0.182,0.15-0.273,0.223c0.227-0.179-0.077,0.052-0.154,0.108c-1.77,1.298-3.703,2.387-5.635,3.421
				c-0.523,0.28-1.047,0.575-1.586,0.822c-0.654,0.294-0.811,1.24-0.478,1.814c0.394,0.67,1.161,0.771,1.815,0.475
				c1.463-0.66,2.872-1.498,4.252-2.317c1.045-0.616,2.082-1.265,3.059-1.987c0.812-0.604,1.678-1.25,2.225-2.125
				c0.48-0.763,0.604-1.754,0.686-2.631c0.098-1.007,0.05-2.021,0.062-3.034C117.265,97.997,114.613,97.994,114.591,99.705
				L114.591,99.705L114.591,99.705z"/>
			<path fill="#FFFFFF" d="M166.575,153.517c-0.02,0.231-0.066,0.475-0.123,0.728c-0.445,1.745-1.906,3.779-3.752,4.137
				c-2.736,0.527-6.223,0.257-8.375-1.142c-0.107-0.07-0.219-0.141-0.328-0.219c-0.135-0.09-0.275-0.192-0.42-0.288
				c-0.16-0.117-0.32-0.238-0.488-0.369c-0.129-0.096-0.258-0.193-0.387-0.295c-0.014-0.015-0.027-0.028-0.037-0.033
				c-0.008,0-0.008-0.009-0.008-0.009c-0.547-0.436-1.113-0.919-1.676-1.423c-0.314,0.936-0.656,1.922-0.979,2.883
				c-0.09,0.249-0.174,0.507-0.258,0.759c-0.039,0.111-0.078,0.213-0.109,0.32c-0.031,0.093-0.064,0.182-0.092,0.268
				c-0.186,0.535-0.359,1.048-0.521,1.525v0.006c-0.037,0.104-0.07,0.207-0.104,0.31c-0.521,1.513-0.875,2.565-0.875,2.565
				c0.572,3.717,2.711,16.617,3.445,21.178l-51.653,0.424c0.192-0.716,0.397-3.937,0.604-4.856c0.161-0.729,0.323-1.509,0.491-2.319
				c0.039-0.2,0.076-0.408,0.123-0.621c0.082-0.436,0.172-0.882,0.256-1.331c0.072-0.386,0.143-0.774,0.213-1.168
				c0.014-0.069,0.025-0.14,0.04-0.217c0.108-0.6,0.219-1.205,0.321-1.804c0.031-0.218,0.072-0.439,0.11-0.65
				c0.366-2.161,0.694-4.24,0.933-5.91c0.064-0.479,0.129-0.92,0.188-1.321c0.02-0.16,0.039-0.315,0.058-0.464v-0.006
				c-0.419-0.089-0.825-0.187-1.216-0.285c-0.4-0.097-0.787-0.193-1.174-0.296c-0.193-0.051-0.381-0.102-0.574-0.16
				c-0.598-0.161-1.191-0.341-1.791-0.541c-0.418-0.138-0.838-0.284-1.27-0.437c-0.27-0.099-0.555-0.202-0.832-0.312
				c-0.25-0.097-0.501-0.192-0.76-0.288c-0.619-0.25-1.264-0.517-1.945-0.813c-1.418-0.611-2.616-1.889-3.305-3.678
				c-0.271-0.664-0.458-1.397-0.568-2.192c-0.134-0.996-0.226-2.085-0.262-3.278c-0.085-2.28-0.015-4.941,0.141-8.073v-0.005
				c0.031-0.639,0.07-1.299,0.103-1.973c0.147-2.469,0.335-5.199,0.536-8.241c0.469-4.421,1.216-11.411,5.654-16.02
				c0.092-0.086,0.182-0.187,0.271-0.268c0.697-0.716,1.431-1.366,2.172-1.968c1.483-1.205,3.01-2.196,4.428-2.958
				c1.354-0.728,2.609-1.241,3.626-1.523c0.413-0.112,0.786-0.188,1.108-0.228c3.713,2.424,10.529,4.839,17.088,5.084
				c0.348,0.012,0.689,0.02,1.033,0.02c4.549,0.014,10.262-1.289,14.264-2.951c1.617-0.682,2.957-1.416,3.828-2.152l1.035,0.738
				l2.533,1.82l1.785,1.275l5.232,3.755c0.168,0.155,0.33,0.312,0.488,0.479c0.066,0.051,0.129,0.115,0.195,0.186
				c0.051,0.037,0.09,0.083,0.129,0.128c0.197,0.196,0.391,0.394,0.572,0.595c0.07,0.068,0.137,0.139,0.193,0.214
				c0.109,0.106,0.213,0.218,0.303,0.333l0.008,0.006c0.07,0.071,0.135,0.142,0.191,0.219c0.064,0.065,0.123,0.137,0.174,0.199
				c0.156,0.174,0.297,0.348,0.439,0.522c0.129,0.156,0.258,0.31,0.379,0.471c0.072,0.092,0.143,0.188,0.213,0.278
				c0.154,0.198,0.303,0.39,0.451,0.598c0.059,0.075,0.117,0.155,0.176,0.238c0.121,0.17,0.244,0.344,0.365,0.516
				c0.117,0.17,0.232,0.336,0.342,0.502c0.064,0.096,0.131,0.192,0.193,0.297c0.145,0.207,0.277,0.42,0.406,0.631
				c0.244,0.39,0.484,0.78,0.715,1.18c0.156,0.264,0.311,0.536,0.453,0.807c0.203,0.373,0.402,0.746,0.598,1.126
				c0.121,0.241,0.244,0.477,0.361,0.718c0.207,0.422,0.412,0.855,0.605,1.291c0.096,0.208,0.186,0.414,0.277,0.627
				c0.102,0.227,0.199,0.459,0.289,0.688c0.143,0.344,0.283,0.685,0.412,1.026c0.109,0.277,0.213,0.552,0.316,0.831
				c0.109,0.302,0.219,0.604,0.322,0.909c0.096,0.271,0.188,0.541,0.277,0.815c0.264,0.808,0.508,1.622,0.727,2.438
				c0.104,0.369,0.201,0.733,0.291,1.094c0.09,0.356,0.174,0.71,0.25,1.056c0.008,0.023,0.014,0.041,0.02,0.065
				c0.072,0.315,0.135,0.624,0.201,0.942c0.012,0.039,0.018,0.078,0.025,0.109c0.006,0.014,0.006,0.021,0,0.026
				c0.16,0.741,0.297,1.482,0.412,2.215c0.059,0.368,0.117,0.735,0.16,1.103c0.053,0.329,0.092,0.655,0.131,0.986
				c0.012,0.04,0.012,0.076,0.012,0.115c0.014,0.061,0.02,0.123,0.02,0.188c0.039,0.304,0.072,0.604,0.098,0.902
				c0.012,0.095,0.02,0.191,0.025,0.283c0.012,0.079,0.018,0.156,0.018,0.231c0.021,0.193,0.035,0.38,0.047,0.573
				c0,0.008,0,0.008,0,0.008c0.025,0.36,0.043,0.715,0.064,1.07C166.749,149.935,166.724,151.761,166.575,153.517L166.575,153.517z"
				/>
			<path fill="#201614" d="M106.843,111.778c4.537,2.929,10.105,4.505,15.434,5.095c5.346,0.593,10.852-0.31,15.922-2.038
				c2.277-0.777,4.596-1.719,6.463-3.266c1.316-1.09-0.57-2.956-1.875-1.874c-1.271,1.05-3.191,1.836-4.838,2.422
				c-2.289,0.814-4.66,1.417-7.057,1.828c-5.215,0.893-10.439,0.362-15.479-1.206c-2.525-0.789-5.002-1.812-7.23-3.254
				C106.743,108.558,105.413,110.854,106.843,111.778L106.843,111.778L106.843,111.778z"/>
			<path fill="#201614" d="M107.513,109.306c-4.004,0.52-7.83,3.111-10.807,5.693c-1.836,1.591-3.418,3.415-4.547,5.571
				c-1.044,1.991-1.759,4.151-2.242,6.343c-0.49,2.201-0.752,4.449-0.992,6.689c-0.076,0.715,0.666,1.326,1.328,1.326
				c0.779,0,1.25-0.609,1.326-1.326c0.386-3.621,0.869-7.347,2.385-10.694c1.804-3.987,5.152-6.922,8.906-9.054
				c0.861-0.49,1.752-0.951,2.678-1.307c0.379-0.144,0.763-0.276,1.152-0.389c0.172-0.048,0.342-0.094,0.516-0.133
				c0.079-0.017,0.543-0.099,0.297-0.067c0.711-0.094,1.327-0.54,1.327-1.327C108.84,109.986,108.228,109.212,107.513,109.306
				L107.513,109.306L107.513,109.306z"/>
			<path fill="#201614" d="M146.763,163.589c1.098,7.072,2.305,14.117,3.447,21.182c0.115,0.707,0.994,1.102,1.633,0.926
				c0.752-0.207,1.041-0.921,0.926-1.633c-1.143-7.061-2.35-14.109-3.447-21.178c-0.109-0.711-0.998-1.1-1.633-0.926
				C146.933,162.167,146.651,162.881,146.763,163.589L146.763,163.589L146.763,163.589z"/>
			<path fill="#FFE673" d="M151.108,125.884c1.07,0.315,2.201,1.95,2.668,2.93c2.631,5.559,3.594,11.904,2.672,17.989
				c-0.455,2.993-1.377,5.97-3.15,8.425c-2.285,3.16-5.855,5.232-9.613,6.29c-3.754,1.052-7.711,1.168-11.611,1.007
				c-3.076-0.127-6.506-0.604-8.416-3.019l-4.001-1.739c-0.167-1.785-0.257-3.658,0.472-5.301c0.658-1.487,1.945-2.637,3.412-3.334
				c0.795-0.376,1.643-0.632,2.51-0.791c0.047-0.617,0.131-1.233,0.25-1.839c-0.25-0.099-0.496-0.224-0.729-0.352
				c-2.455-1.352-4.391-3.459-6.277-5.528c-1.398-1.53-2.795-3.06-4.191-4.592c0.975-1.067,1.949-2.135,2.923-3.202
				c0.243-0.271,0.509-0.554,0.86-0.64c0.444-0.112,0.898,0.109,1.297,0.337c1.49,0.848,2.896,1.852,4.184,2.984
				c1.061-3.304,3.695-5.82,6.232-8.186c0,0,0.182-0.171,0.361-0.335c0.799,0.2,1.6,0.402,1.6,0.402
				c3.279,0.829,12.584,0.593,17.795-1.354L151.108,125.884L151.108,125.884z"/>
			<path fill="#FFFFFF" d="M126.192,102.087c1.541-4.008,5.771-6.07,8.596-6.931c7.322-2.221,15.98,1.503,19.402,8.347
				c2.686,5.366,2.932,11.723-0.062,16.399c-0.977,1.526-3.701,4.368-2.646,5.649c-6.195,3.042-21.586,2.771-19.99,0.842
				c-1.285-0.346-2.482-1.032-3.402-1.997c-1.072-1.125-1.758-2.564-2.289-4.027c-2.102-5.765-2.016-12.304,0.242-18.013
				L126.192,102.087L126.192,102.087z"/>
			<path fill="#201614" d="M127.472,102.437c1.195-2.981,4.254-4.861,7.178-5.842c3.197-1.07,6.604-0.947,9.775,0.161
				c3.145,1.092,6.014,3.219,7.826,6.024c2.111,3.275,3.127,7.506,2.582,11.375c-0.289,2.055-1.047,4-2.27,5.68
				c-1.09,1.498-2.551,3.059-2.646,5.006c-0.086,1.708,2.568,1.703,2.652,0c0.025-0.537,0.592-1.332,0.953-1.856
				c0.531-0.771,1.137-1.493,1.658-2.271c1.195-1.792,1.934-3.905,2.236-6.028c0.635-4.44-0.373-9.234-2.752-13.049
				c-4.131-6.628-12.891-10.057-20.389-7.708c-4.029,1.261-7.75,3.777-9.363,7.805c-0.266,0.668,0.293,1.458,0.928,1.632
				C126.597,103.571,127.206,103.104,127.472,102.437L127.472,102.437L127.472,102.437z"/>
			<path fill="#201614" d="M124.763,102.003c-2.08,5.354-2.367,11.378-0.822,16.913c0.713,2.544,1.764,5.296,3.865,7.022
				c2.086,1.711,4.744,2.344,7.389,1.857c1.678-0.311,0.967-2.866-0.707-2.562c-1.973,0.366-4.076-0.329-5.459-1.776
				c-1.596-1.672-2.312-4.186-2.816-6.382c-1.1-4.783-0.664-9.801,1.109-14.366c0.258-0.669-0.287-1.456-0.928-1.633
				C125.644,100.872,125.022,101.331,124.763,102.003L124.763,102.003L124.763,102.003z"/>
			<path fill="#201614" d="M129.661,126.386c-2.703,2.521-5.373,5.186-6.574,8.773c0.738-0.196,1.479-0.392,2.219-0.584
				c-0.922-0.805-1.891-1.562-2.908-2.241c-0.898-0.599-1.992-1.44-3.111-1.485c-1.176-0.051-1.885,0.691-2.615,1.496
				c-0.836,0.915-1.673,1.835-2.508,2.75c-0.498,0.548-0.502,1.325,0,1.875c1.65,1.808,3.289,3.623,4.951,5.42
				c1.501,1.622,3.086,3.194,4.949,4.401c0.947,0.618,2,1.19,3.148,1.269c1.178,0.08,2.146-0.51,3.023-1.221
				c0.551-0.445,1.105-0.908,1.512-1.501c0.355-0.516,0.621-1.103,0.947-1.641c0.883-1.467-1.41-2.8-2.291-1.341
				c-0.291,0.485-0.547,0.986-0.832,1.467c-0.018,0.032-0.188,0.264-0.078,0.126c0.111-0.143-0.143,0.142-0.137,0.138
				c-0.23,0.208-0.457,0.421-0.693,0.622c-0.684,0.579-1.182,0.875-2.053,0.485c-0.818-0.361-1.594-0.914-2.293-1.468
				c-1.426-1.141-2.67-2.491-3.896-3.835c-1.463-1.599-2.922-3.201-4.382-4.797c0,0.623,0,1.249,0,1.875
				c0.591-0.648,1.185-1.298,1.776-1.948c0.312-0.342,0.626-0.687,0.939-1.03c0.115-0.124,0.258-0.248,0.359-0.389
				c0.051-0.05,0.104-0.102,0.156-0.157c-0.135,0.017-0.156,0.038-0.061,0.063c0.713,0.196,1.5,0.876,2.098,1.287
				c0.74,0.507,1.443,1.065,2.119,1.652c0.773,0.671,1.891,0.398,2.219-0.584c1.043-3.117,3.555-5.423,5.895-7.602
				C132.79,127.093,130.911,125.221,129.661,126.386L129.661,126.386L129.661,126.386z"/>
			<path fill="#201614" d="M132.95,147.825c-1.584-1.008-3.521-1.144-5.348-1.014c-1.854,0.139-3.717,0.547-5.336,1.492
				c-1.506,0.879-2.75,2.191-3.416,3.807c-0.746,1.797-0.695,3.756-0.521,5.656c0.065,0.718,0.563,1.33,1.326,1.33
				c0.667,0,1.394-0.609,1.327-1.33c-0.139-1.503-0.271-3.086,0.258-4.534c0.416-1.14,1.338-2.035,2.365-2.636
				c1.207-0.703,2.611-1.027,3.996-1.131c1.369-0.1,2.814-0.112,4.008,0.649C133.054,151.036,134.388,148.74,132.95,147.825
				L132.95,147.825L132.95,147.825z"/>
			<path fill="#FFFFFF" d="M118.851,131.033c0.203-0.825,0.095-1.729-0.305-2.476c-0.301-0.566-0.891-1.088-1.511-0.937
				c-0.497,0.119-0.796,0.612-1.04,1.062c-1.295-0.844-2.951-1.445-4.367-0.826c-1.539,0.672-2.206,2.678-1.677,4.272
				c0.53,1.596,2.011,2.74,3.618,3.229L118.851,131.033L118.851,131.033z"/>
			<path fill="#201614" d="M120.128,131.385c0.342-1.511,0.057-3.369-1.178-4.424c-0.666-0.569-1.527-0.854-2.389-0.584
				c-0.796,0.251-1.325,0.933-1.711,1.635c0.604-0.158,1.207-0.317,1.812-0.476c-1.447-0.928-3.262-1.576-4.984-1.102
				c-1.523,0.419-2.645,1.692-3.051,3.195c-0.886,3.273,1.621,6.07,4.589,7.012c0.683,0.212,1.447-0.258,1.632-0.93
				c0.196-0.714-0.242-1.416-0.928-1.633c-0.145-0.046-0.287-0.094-0.428-0.147c-0.086-0.034-0.082-0.03,0.016,0.009
				c-0.061-0.025-0.12-0.051-0.178-0.083c-0.254-0.118-0.501-0.261-0.735-0.417c-0.038-0.021-0.334-0.236-0.151-0.097
				c-0.103-0.078-0.199-0.165-0.295-0.254c-0.188-0.171-0.37-0.356-0.525-0.559c0.141,0.185-0.096-0.16-0.121-0.204
				c-0.068-0.107-0.127-0.22-0.186-0.334c-0.039-0.084-0.039-0.076,0.002,0.025c-0.031-0.079-0.062-0.16-0.088-0.24
				c-0.037-0.113-0.068-0.225-0.094-0.341c-0.016-0.065-0.027-0.392-0.023-0.112c-0.002-0.117-0.016-0.232-0.016-0.352
				s0.01-0.236,0.02-0.354c-0.025,0.304,0.023-0.103,0.039-0.171c0.027-0.115,0.063-0.227,0.098-0.339
				c0.017-0.056,0.039-0.107,0.061-0.164c-0.061,0.138-0.059,0.138,0.008,0c0.059-0.1,0.109-0.203,0.174-0.304
				c0.035-0.057,0.248-0.297,0.064-0.1c0.33-0.356,0.43-0.45,0.891-0.566c0.068-0.02,0.137-0.034,0.207-0.043
				c-0.098,0.009-0.099,0.011-0.004,0.003c0.165-0.008,0.328-0.003,0.492,0c0.141,0.006,0.353,0.055,0.638,0.138
				c0.56,0.168,0.98,0.395,1.54,0.754c0.593,0.381,1.479,0.135,1.814-0.478c0.084-0.151,0.168-0.307,0.268-0.448
				c-0.08,0.118-0.02,0.014,0.038-0.027c-0.114,0.085-0.056,0.005,0.027-0.021c-0.169,0.051-0.222,0.062-0.394,0.015
				c0.064,0.02,0.16,0.099,0.045,0.007c0.025,0.021,0.24,0.256,0.162,0.159c-0.062-0.082,0.068,0.112,0.08,0.133
				c0.02,0.031,0.107,0.208,0.092,0.171c0.029,0.071,0.104,0.339,0.136,0.484c0.051,0.231-0.005-0.143,0.017,0.092
				c0.01,0.099,0.013,0.2,0.013,0.3c-0.001,0.261,0.015,0.167-0.054,0.464c-0.156,0.696,0.213,1.438,0.928,1.633
				C119.163,132.491,119.97,132.087,120.128,131.385L120.128,131.385L120.128,131.385z"/>
			<path fill="#201614" d="M150.757,127.165c0.625,0.225,1.145,1.056,1.473,1.587c0.494,0.8,0.852,1.691,1.188,2.567
				c0.736,1.915,1.281,3.898,1.631,5.92c0.699,4.03,0.58,8.325-0.529,12.271c-1.062,3.78-3.295,6.855-6.699,8.844
				c-3.504,2.049-7.568,2.76-11.58,2.882c-2.197,0.067-4.473,0.082-6.65-0.248c-1.91-0.289-3.732-0.892-4.994-2.418
				c-1.09-1.32-2.955,0.565-1.877,1.875c2.793,3.384,7.809,3.448,11.824,3.465c4.695,0.019,9.477-0.595,13.699-2.763
				c3.977-2.04,6.902-5.372,8.404-9.578c1.568-4.386,1.773-9.297,1.141-13.876c-0.361-2.613-1.033-5.178-2.025-7.625
				c-0.861-2.119-1.975-4.629-4.299-5.463C149.853,124.028,149.157,126.59,150.757,127.165L150.757,127.165L150.757,127.165z"/>
			<path fill="#201614" d="M136.446,111.588c-0.533,0.06-1.072,0.065-1.604-0.005c-0.182-0.008-0.354,0.031-0.51,0.111
				c-0.164,0.055-0.309,0.148-0.428,0.275c-0.129,0.12-0.223,0.263-0.275,0.43c-0.08,0.157-0.119,0.327-0.113,0.509
				c0.016,0.343,0.129,0.698,0.389,0.941c0.088,0.068,0.18,0.136,0.268,0.206c0.207,0.119,0.43,0.178,0.67,0.178
				c0.531,0.072,1.07,0.066,1.604,0.007c0.184,0.005,0.352-0.028,0.508-0.113c0.166-0.055,0.309-0.144,0.428-0.274
				c0.131-0.123,0.223-0.263,0.275-0.428c0.082-0.157,0.121-0.326,0.115-0.512c-0.016-0.342-0.129-0.695-0.391-0.941
				c-0.088-0.064-0.176-0.135-0.268-0.203C136.907,111.647,136.685,111.588,136.446,111.588L136.446,111.588L136.446,111.588z"/>
			<path fill="#201614" d="M127.649,111.819c-0.049,0.009-0.096,0.015-0.143,0.023c0.117-0.018,0.234-0.031,0.354-0.049
				c-0.41,0.055-0.844,0.083-1.256,0.028c0.117,0.015,0.236,0.031,0.354,0.046c-0.014,0-0.027-0.003-0.041-0.003
				c-0.176-0.056-0.352-0.065-0.529-0.026c-0.176,0.01-0.34,0.062-0.492,0.159c-0.154,0.079-0.279,0.195-0.373,0.341
				c-0.115,0.131-0.195,0.28-0.236,0.454c-0.016,0.115-0.033,0.229-0.047,0.35c0,0.238,0.061,0.463,0.18,0.669
				c0.07,0.09,0.139,0.179,0.207,0.268c0.166,0.166,0.361,0.279,0.586,0.342c0.34,0.058,0.668,0.087,1.012,0.073
				c0.379-0.008,0.758-0.052,1.129-0.114c0.174-0.045,0.324-0.12,0.451-0.24c0.146-0.093,0.26-0.215,0.342-0.373
				c0.098-0.15,0.152-0.313,0.158-0.494c0.041-0.172,0.033-0.35-0.023-0.525c-0.104-0.32-0.303-0.63-0.609-0.795
				c-0.105-0.041-0.213-0.087-0.318-0.133C128.118,111.757,127.884,111.757,127.649,111.819L127.649,111.819L127.649,111.819z"/>
			<path fill="#201614" d="M130.89,119.281c-0.354-0.045-0.715-0.042-1.072-0.038c-0.182-0.007-0.352,0.033-0.512,0.114
				c-0.162,0.054-0.305,0.145-0.428,0.274c-0.127,0.123-0.219,0.265-0.273,0.429c-0.084,0.159-0.121,0.329-0.115,0.51
				c0.02,0.119,0.033,0.236,0.049,0.354c0.064,0.226,0.178,0.421,0.34,0.585c0.092,0.067,0.182,0.139,0.27,0.21
				c0.207,0.119,0.432,0.178,0.67,0.178c0.357-0.003,0.719-0.009,1.072,0.038c0.182,0.008,0.354-0.031,0.51-0.114
				c0.166-0.055,0.309-0.146,0.428-0.275c0.131-0.119,0.221-0.263,0.275-0.424c0.082-0.159,0.119-0.333,0.113-0.513
				c-0.016-0.117-0.031-0.236-0.047-0.355c-0.064-0.224-0.178-0.417-0.342-0.582c-0.088-0.07-0.178-0.141-0.268-0.208
				C131.353,119.344,131.13,119.281,130.89,119.281L130.89,119.281L130.89,119.281z"/>
			<path fill="#201614" d="M146.706,114.763c0.09-0.065,0.178-0.123,0.275-0.18c0.195-0.117-0.078-0.008,0.051-0.016
				c0.117-0.011,0.246-0.058,0.051-0.037c0.121-0.013,0.234-0.008,0.355-0.008c-0.039-0.005-0.08-0.01-0.119-0.019
				c0.078,0.014,0.154,0.029,0.229,0.053c0.223,0.039-0.047-0.053,0.053,0.015c0.104,0.074,0.186,0.126,0.049,0.004
				c0.039,0.034,0.078,0.068,0.113,0.106c0.066,0.067,0.051,0.046-0.047-0.072c0.088,0.233,0.014-0.092,0.041,0.06
				c0.018,0.094,0.043,0.189,0.07,0.282c-0.08-0.279,0.006,0.056,0.012,0.122c0.01,0.104,0.018,0.206,0.025,0.311
				c0.016,0.228,0.021,0.454,0.02,0.682c-0.002,0.102-0.006,0.203-0.012,0.305c-0.004,0.041-0.043,0.4-0.021,0.248
				c0.027-0.171-0.031,0.152-0.037,0.188c-0.027,0.117-0.057,0.236-0.094,0.353c-0.029,0.104-0.064,0.198-0.1,0.295
				c-0.033,0.088-0.031,0.077,0.01-0.025c-0.021,0.038-0.039,0.077-0.057,0.113c-0.107,0.188-0.207,0.375-0.326,0.547
				c-0.066,0.099-0.146,0.184-0.025,0.046c-0.076,0.084-0.148,0.166-0.229,0.25c-0.068,0.068-0.146,0.131-0.215,0.198
				c-0.115,0.112,0.125-0.062-0.043,0.028c-0.176,0.099-0.344,0.195-0.523,0.279c0.168-0.079,0.082-0.033-0.039,0.015
				c-0.086,0.027-0.172,0.059-0.26,0.087c-0.191,0.061-0.383,0.109-0.58,0.139c-0.686,0.113-1.131,1.001-0.928,1.633
				c0.242,0.743,0.896,1.049,1.633,0.927c2.637-0.437,4.326-2.742,4.486-5.319c0.078-1.25-0.008-2.848-1.041-3.705
				c-1.129-0.938-2.908-1.103-4.117-0.193c-0.553,0.413-0.895,1.164-0.477,1.814C145.241,114.833,146.112,115.209,146.706,114.763
				L146.706,114.763L146.706,114.763z"/>
			<path fill="#201614" d="M132.7,99.198c-0.023,0.059-0.047,0.121-0.072,0.182c0.045-0.104,0.09-0.21,0.135-0.318
				c-0.143,0.336-0.328,0.646-0.549,0.936c0.068-0.09,0.139-0.182,0.207-0.269c-0.225,0.282-0.482,0.538-0.77,0.762
				c0.09-0.07,0.178-0.138,0.268-0.206c-0.277,0.213-0.578,0.385-0.9,0.527c0.105-0.046,0.213-0.091,0.316-0.138
				c-0.107,0.047-0.217,0.089-0.326,0.125c-0.328,0.109-0.615,0.31-0.793,0.609c-0.166,0.288-0.236,0.704-0.133,1.023
				c0.104,0.32,0.303,0.629,0.609,0.793c0.307,0.162,0.682,0.245,1.021,0.131c0.82-0.269,1.559-0.705,2.182-1.306
				c0.625-0.602,1.062-1.338,1.361-2.146c0.115-0.306,0.027-0.751-0.133-1.024s-0.477-0.534-0.793-0.609
				c-0.34-0.076-0.721-0.062-1.023,0.135C133.005,98.603,132.825,98.858,132.7,99.198L132.7,99.198L132.7,99.198z"/>
			<path fill="#201614" d="M136.829,100.666c0.018,0.104,0.033,0.211,0.049,0.315c-0.016-0.117-0.031-0.232-0.049-0.352
				c0.057,0.45,0.068,0.907,0.012,1.356c0.016-0.116,0.033-0.231,0.047-0.351c-0.045,0.331-0.127,0.658-0.256,0.965
				c0.043-0.104,0.088-0.208,0.133-0.316c-0.094,0.21-0.205,0.404-0.344,0.59c0.068-0.094,0.139-0.182,0.209-0.271
				c-0.119,0.148-0.254,0.281-0.402,0.399c0.092-0.07,0.18-0.138,0.27-0.205c-0.154,0.115-0.318,0.209-0.496,0.289
				c0.105-0.047,0.211-0.092,0.318-0.133c-0.062,0.024-0.125,0.047-0.189,0.067c-0.326,0.109-0.613,0.306-0.791,0.608
				c-0.168,0.284-0.238,0.705-0.135,1.024c0.211,0.651,0.928,1.165,1.633,0.926c0.557-0.188,1.062-0.467,1.48-0.887
				c0.418-0.421,0.688-0.913,0.9-1.457c0.408-1.034,0.357-2.198,0.168-3.272c-0.053-0.31-0.346-0.642-0.607-0.794
				c-0.285-0.167-0.703-0.239-1.023-0.138c-0.32,0.106-0.631,0.309-0.793,0.613C136.788,99.978,136.765,100.298,136.829,100.666
				L136.829,100.666L136.829,100.666z"/>
			<path fill="#201614" d="M132.204,128.672c2.742,0.67,5.736,0.572,8.527,0.41c3.348-0.197,6.812-0.608,9.975-1.768
				c1.592-0.583,0.904-3.148-0.703-2.559c-2.955,1.083-6.146,1.488-9.271,1.672c-2.568,0.152-5.426,0.27-7.82-0.315
				C131.253,125.708,130.544,128.268,132.204,128.672L132.204,128.672L132.204,128.672z"/>
			<path fill="#FFFFFF" d="M153.528,140.696c-1.156-3.21-3.15-8.851-4.412-9.316c-0.35-0.131-1.273-0.062-1.654-0.065
				c-0.309-0.008-0.557,0.217-0.742,0.433c-1.23,1.426-0.717,2.839-0.018,4.515c-2.162-0.629-3.656-1.212-5.502-2.147
				c-1.74-0.889-4.295-2.529-5.268-1.406c-1.559,0.109-2.156,1.702-1.785,2.9c-0.588,0.755-0.451,1.828-0.123,2.932
				c1.779,5.979,5.01,7.605,11.031,9.298c0.541,0.148,2.533,1.576,3.016,1.839L153.528,140.696L153.528,140.696z"/>
			<path fill="#FFFFFF" d="M124.497,156.901c1.205,0.367,2.617,0.421,4.223-0.084c1.447-0.454,2.764-1.258,4.133-1.921
				c1.324-0.652,2.688-1.24,4.08-1.755c0.885-0.332,1.873-0.627,2.729-0.255c1.285,0.573,1.52,2.425,0.834,3.647
				c-0.693,1.218-1.98,1.957-3.217,2.63c1.236,0.043,2.48,0.559,3.943,0.129c1.479-0.439,3.273-0.955,4.604-1.733
				c0.693-0.404,1.426-0.806,2.232-0.89c0.807-0.069,1.705,0.261,2.051,0.995c0.551,1.152-0.502,2.405-1.463,3.258
				c-2.586,2.298-5.238,4.64-8.434,5.975c-3.193,1.323-7.09,1.479-9.938-0.479c-0.828-0.568-1.562-1.303-2.529-1.558
				c-0.836-0.234-3.021,0.157-3.879,0.312L124.497,156.901L124.497,156.901z"/>
			<path fill="#201614" d="M147.421,147.675c-0.557-0.359-1.111-0.748-1.725-1.003c-0.562-0.232-1.17-0.365-1.754-0.544
				c-0.951-0.292-1.904-0.604-2.812-1.011c-1.57-0.706-3.035-1.662-4.049-3.081c-0.574-0.808-1.029-1.703-1.373-2.633
				c-0.211-0.576-0.416-1.168-0.549-1.766c-0.059-0.266-0.115-0.546-0.082-0.819c0.041-0.333,0.266-0.535,0.354-0.858
				c0.178-0.648-0.42-1.551,0.436-1.906c0.32-0.131,0.574-0.113,0.871-0.309c0.305-0.203-0.084-0.075,0.102-0.091
				c0.373-0.039,0.85,0.179,1.195,0.323c1.314,0.559,2.529,1.334,3.83,1.923c1.457,0.658,2.955,1.191,4.488,1.641
				c0.881,0.259,2.031-0.673,1.631-1.63c-0.268-0.645-0.609-1.354-0.674-2.056c-0.021-0.237-0.006-0.468,0.076-0.697
				c0.051-0.138,0.135-0.258,0.209-0.386c0.064-0.104,0.344-0.281,0.113-0.191c-0.266,0.098,0.109,0.045,0.174,0.051
				c0.152,0.011,0.369,0.021,0.525-0.006c0.279-0.051,0.145-0.038,0.188-0.02c-0.223-0.083,0.025,0.039,0.137,0.178
				c-0.053-0.068,0.219,0.338,0.271,0.425c1.307,2.161,2.1,4.659,2.955,7.022c0.578,1.592,3.143,0.903,2.559-0.709
				c-0.646-1.782-1.307-3.562-2.062-5.305c-0.531-1.23-1.111-2.692-2.135-3.607c-1.15-1.027-3.502-0.895-4.537,0.193
				c-1.607,1.694-1.168,3.873-0.357,5.809c0.545-0.541,1.088-1.086,1.633-1.63c-2.252-0.66-4.324-1.558-6.393-2.657
				c-1.641-0.867-4.055-2.165-5.67-0.562c0.312-0.128,0.625-0.261,0.938-0.39c-2.289,0.288-3.686,2.322-3.061,4.586
				c0.043-0.339,0.09-0.68,0.135-1.019c-1.291,1.9-0.193,4.514,0.643,6.391c0.662,1.483,1.602,2.878,2.824,3.961
				c1.258,1.112,2.713,1.89,4.262,2.519c0.855,0.346,1.729,0.641,2.609,0.906c0.441,0.138,0.928,0.223,1.357,0.397
				c0.402,0.167,0.953,0.577,1.381,0.851C147.521,150.897,148.853,148.6,147.421,147.675L147.421,147.675L147.421,147.675z"/>
			<path fill="#201614" d="M125.909,158.489c1.932,0.119,3.732-0.499,5.441-1.342c1.818-0.895,3.594-1.833,5.49-2.559
				c0.984-0.375,2.852-1.156,2.707,0.609c-0.117,1.417-1.854,2.229-2.938,2.82c-1.213,0.664-0.58,2.4,0.67,2.471
				c1.367,0.08,2.633,0.449,4.008,0.153c1.287-0.272,2.658-0.56,3.865-1.087c0.533-0.237,2.545-1.729,3.115-0.905
				c0.455,0.66-1.402,2.026-1.803,2.385c-3.697,3.272-8.543,6.821-13.775,5.112c-1.443-0.473-2.424-1.619-3.768-2.248
				c-1.383-0.65-2.836-0.412-4.293-0.196c-0.711,0.104-1.102,0.999-0.928,1.63c0.211,0.764,0.922,1.034,1.633,0.927
				c0.629-0.091,1.344-0.23,1.975-0.137c0.557,0.083,1.154,0.593,1.635,0.953c1.248,0.931,2.609,1.62,4.154,1.915
				c3.121,0.594,6.258-0.11,9.055-1.535c2.648-1.348,5.113-3.383,7.209-5.475c1.096-1.093,2.01-2.613,1.42-4.187
				c-0.551-1.474-2.197-2.151-3.682-1.929c-0.93,0.146-1.736,0.58-2.551,1.027c-0.672,0.368-1.369,0.564-2.113,0.733
				c-0.854,0.197-1.729,0.527-2.609,0.505c-0.854-0.02-1.693-0.245-2.547-0.295c0.225,0.824,0.449,1.649,0.67,2.476
				c1.709-0.937,3.633-2.149,4.117-4.181c0.459-1.918-0.379-4.154-2.445-4.646c-1.197-0.284-2.379,0.12-3.486,0.544
				c-1.193,0.457-2.371,0.961-3.521,1.512c-2.16,1.033-4.213,2.447-6.705,2.293C124.202,155.731,124.208,158.386,125.909,158.489
				L125.909,158.489L125.909,158.489z"/>
			<path fill="#FFFFFF" d="M107.796,165.123c6.688,1.279,10.589,1.842,16.84,1.779c0.57-2.511,1.516-10.991,1.408-12.463
				c-7.659-1.805-16.314-3.769-23.516-5.862L107.796,165.123L107.796,165.123z"/>
			<path fill="#201614" d="M88.925,133.603c-0.297,4.494-0.638,8.994-0.771,13.5c-0.096,3.16-0.281,6.657,0.574,9.738
				c0.539,1.943,1.654,3.721,3.336,4.862c0.746,0.506,1.628,0.811,2.456,1.151c0.989,0.403,1.985,0.785,2.997,1.136
				c4.014,1.37,8.223,2.118,12.387,2.873c4.887,0.884,9.762,1.408,14.732,1.366c0.559-0.004,1.154-0.401,1.281-0.974
				c0.498-2.255,0.734-4.585,0.994-6.873c0.217-1.936,0.578-3.991,0.461-5.943c-0.033-0.567-0.387-1.14-0.975-1.277
				c-7.863-1.852-15.756-3.612-23.516-5.864c-1.645-0.479-2.348,2.085-0.707,2.557c7.761,2.253,15.656,4.012,23.518,5.866
				c-0.326-0.426-0.65-0.853-0.975-1.281c0.115,1.887-0.23,3.871-0.438,5.742c-0.238,2.121-0.459,4.281-0.922,6.366
				c0.424-0.322,0.852-0.648,1.277-0.975c-4.146,0.04-8.238-0.281-12.324-0.973c-4.062-0.683-8.172-1.396-12.13-2.549
				c-1.833-0.537-3.628-1.194-5.39-1.936c-1.555-0.657-2.658-1.653-3.273-3.256c-0.527-1.376-0.617-2.879-0.693-4.336
				c-0.076-1.51-0.076-3.025-0.043-4.535c0.105-4.8,0.48-9.594,0.797-14.387C91.692,131.896,89.038,131.903,88.925,133.603
				L88.925,133.603L88.925,133.603z"/>
			<path fill="#FFFFFF" d="M157.675,142.334c-1.729-1.4-2.635-2.059-3.506-2.849c-1.887,1.999-7.387,6.764-9.059,9.092
				c1.883,1.988,6.062,6.646,9.213,8.662c2.15,1.4,5.639,1.666,8.379,1.142c2.105-0.409,3.717-3.001,3.875-4.867L157.675,142.334
				L157.675,142.334z"/>
			<path fill="#201614" d="M153.872,119.632c5.959,5.869,9.275,14.168,10.754,22.276c0.373,2.046,0.611,4.112,0.711,6.19
				c0.088,1.826,0.256,3.92-0.146,5.717c-0.387,1.736-1.627,3.137-3.406,3.379c-2.037,0.274-4.439,0.169-6.291-0.811
				c-1.967-1.043-3.668-2.742-5.248-4.278c-1.463-1.427-2.875-2.911-4.197-4.474c0.07,0.539,0.141,1.077,0.209,1.611
				c0.377-0.516,1.143-1.335,1.717-1.925c0.846-0.871,1.723-1.715,2.602-2.554c1.514-1.439,3.088-2.83,4.527-4.344
				c-0.625,0-1.25,0-1.875,0c1.125,1.003,2.344,1.898,3.514,2.851c0.557,0.45,1.332,0.542,1.877,0c0.465-0.466,0.559-1.426,0-1.875
				c-1.172-0.951-2.391-1.847-3.516-2.852c-0.523-0.468-1.359-0.544-1.875,0c-3.01,3.165-6.672,5.812-9.262,9.36
				c-0.365,0.498-0.148,1.188,0.207,1.607c2.697,3.186,5.748,6.365,9.227,8.701c2.033,1.362,4.594,1.809,7.01,1.738
				c1.182-0.034,2.469-0.123,3.562-0.604c1.014-0.447,1.822-1.213,2.48-2.093c1.361-1.831,1.529-3.913,1.578-6.117
				c0.051-2.221-0.076-4.445-0.35-6.649c-0.582-4.717-1.742-9.35-3.559-13.745c-1.98-4.789-4.662-9.331-8.377-12.985
				C154.528,116.559,152.651,118.431,153.872,119.632L153.872,119.632L153.872,119.632z"/>
			<path fill="#201614" d="M120.147,90.196c1.205,1.181,3.086,1.545,4.711,1.543c1.621,0,3.504-0.362,4.711-1.543
				c0.498-0.484,0.523-1.395,0-1.874c-0.535-0.491-1.348-0.522-1.877,0c-0.051,0.048-0.275,0.231-0.068,0.07
				c0.215-0.163-0.082,0.052-0.148,0.094c-0.098,0.06-0.197,0.114-0.299,0.164c-0.049,0.026-0.172,0.062-0.211,0.099
				c0.078-0.072,0.258-0.099,0.045-0.021c-0.328,0.112-0.66,0.208-1.006,0.271c-0.035,0.01-0.404,0.061-0.102,0.026
				c-0.104,0.015-0.205,0.024-0.309,0.027c-0.244,0.023-0.492,0.035-0.736,0.035c-0.225,0-0.449-0.009-0.676-0.028
				c-0.123-0.01-0.246-0.018-0.371-0.034c0.188,0.024,0.068,0.008-0.051-0.015c-0.344-0.062-0.686-0.149-1.016-0.27
				c-0.174-0.062-0.172-0.143,0.004,0.008c-0.043-0.036-0.125-0.055-0.176-0.08c-0.115-0.055-0.227-0.117-0.334-0.183
				c-0.082-0.051-0.158-0.121-0.242-0.164c0.35,0.173,0.152,0.125,0.025,0c-0.496-0.484-1.389-0.532-1.875,0
				C119.665,88.847,119.618,89.681,120.147,90.196L120.147,90.196L120.147,90.196z"/>
			<path fill="#201614" d="M124.114,81.329c0.168,0.638,0.328,1.284,0.424,1.939c-0.016-0.114-0.031-0.233-0.045-0.351
				c0.01,0.089,0.014,0.177,0.006,0.271c0.018-0.119,0.031-0.238,0.047-0.355c-0.006,0.043-0.014,0.084-0.029,0.119
				c0.045-0.104,0.09-0.211,0.135-0.317c-0.012,0.031-0.025,0.055-0.043,0.08c0.068-0.091,0.139-0.179,0.207-0.271
				c-0.02,0.026-0.039,0.045-0.062,0.062c0.09-0.067,0.178-0.135,0.27-0.205c-0.051,0.031-0.102,0.057-0.156,0.081
				c0.107-0.045,0.213-0.091,0.318-0.134c-0.084,0.037-0.168,0.063-0.26,0.075c0.117-0.016,0.234-0.032,0.352-0.046
				c-0.082,0.008-0.162,0.008-0.242,0c0.117,0.014,0.234,0.03,0.352,0.046c-0.092-0.012-0.18-0.036-0.273-0.046
				c-0.176-0.058-0.352-0.065-0.529-0.025c-0.176,0.009-0.34,0.06-0.492,0.157c-0.275,0.162-0.539,0.474-0.609,0.791
				c-0.078,0.343-0.062,0.723,0.131,1.024c0.176,0.269,0.463,0.566,0.795,0.609c0.238,0.033,0.471,0.093,0.711,0.102
				c0.389,0.018,0.744-0.105,1.088-0.262c0.432-0.201,0.773-0.607,0.889-1.073c0.098-0.4,0.057-0.719-0.01-1.12
				c-0.105-0.626-0.25-1.244-0.412-1.858c-0.084-0.32-0.324-0.626-0.609-0.793c-0.285-0.168-0.703-0.239-1.021-0.133
				c-0.322,0.102-0.631,0.302-0.793,0.608C124.079,80.623,124.022,80.974,124.114,81.329L124.114,81.329L124.114,81.329z"/>
			<path fill="#201614" d="M114.159,75.737c-0.324,1.053-0.111,3.48,1.886,3.687c2.64-0.016,2.78-2.945,1.89-4.326
				C117.21,73.97,115.07,73.499,114.159,75.737L114.159,75.737z"/>
			<path fill="#201614" d="M135.302,75.737c0.324,1.053,0.113,3.48-1.885,3.687c-2.639-0.016-2.779-2.945-1.893-4.326
				C132.253,73.97,134.394,73.499,135.302,75.737L135.302,75.737z"/>
			<path fill="#FFFFFF" d="M92.505,112.095c-1.482,1.578-3.1,3.063-5.146,3.774c-0.776,0.269-1.624,0.468-2.412,0.237
				c-0.79-0.228-1.466-1.02-1.302-1.827c-3.95,3.177-8.395,6.525-13.456,6.272c-0.609-0.031-1.26-0.109-1.806,0.166
				c-1.273,0.637-1.498,2.896-3.075,2.65c-0.55-0.508-1.375-0.754-2.146-0.641c-0.765,0.113-1.46,0.575-1.81,1.207
				c-0.247,0.438-0.326,0.941-0.373,1.427c-0.168,1.931,0.213,3.897,1.088,5.653c0.424,0.855,0.98,1.676,1.752,2.302
				c0.592,0.474,1.334,0.992,2.311,0.729c0,0,0.165-0.042,0.453-0.122c0.695,1.993,1.87,4.302,3.801,6.459
				c1.577,1.763,3.366,3.198,5.296,4.134c-0.073,0.731-0.14,1.295-0.337,2.415c-0.227,1.309-0.152,2.483-1.985,3.146
				c-0.097,0.034-1.802,0.84-2.562,1.198c0.289,0.207,0.484,0.346,0.484,0.346c1.375,0.994,6.445,3.653,12.645,3.653
				c6.5,0,11.15-2.26,12.453-3.483c-0.064-0.031-0.147-0.073-0.262-0.122c-0.619-0.288-1.854-0.882-2.285-1.094
				c-1.727-0.872-1.818-1.904-2.051-3.216c-0.213-1.211-0.387-1.973-0.465-2.798c4.449-1.835,8.033-7.568,8.658-9.152
				c0.113-0.313,0.361-0.964,0.549-1.707c0.195,0.06,0.309,0.094,0.309,0.094c0.861,0.262,1.456-0.005,2.049-0.479
				c0.771-0.626,1.328-1.446,1.752-2.302c0.875-1.756,1.256-3.723,1.088-5.653c-0.045-0.485-0.123-0.989-0.373-1.427
				c-0.35-0.632-1.045-1.094-1.809-1.207c-0.766-0.113-1.582,0.128-2.134,0.626c-1.466-6.489-6.444-10.894-8.69-11.153"/>
			<path fill="#7A7473" d="M103.674,112.648c-0.663-2.565-1.864-5.221-3.89-7.834c-0.868-1.117-2.576-1.601-3.938-2.122
				c-3.863-5.436-7.939-5.503-12.328-5.539c-12.264-0.095-18.109,5.991-20.059,10.867c-1.065,2.662-2.596,9.496-1.078,14.957
				c0.242-0.122,0.506-0.209,0.78-0.25c0.771-0.113,1.597,0.133,2.144,0.646c1.58,0.241,1.805-2.019,3.078-2.655
				c0.546-0.275,1.196-0.197,1.806-0.166c5.062,0.253,9.506-3.096,13.456-6.272c-0.164,0.808,0.512,1.6,1.302,1.827
				c0.788,0.23,1.636,0.031,2.412-0.237c2.003-0.696,3.595-2.134,5.052-3.676c2.061-0.152,7.455,4.355,8.993,11.16
				c0.552-0.498,1.368-0.739,2.134-0.626c0.174,0.028,0.342,0.07,0.504,0.133C104.467,119.919,104.638,116.38,103.674,112.648
				L103.674,112.648z"/>
			<path fill="#201614" d="M63.578,122.31c-0.671-2.736-0.635-5.647-0.224-8.424c0.178-1.206,0.427-2.404,0.75-3.581
				c0.129-0.462,0.27-0.924,0.427-1.378c0.066-0.188,0.134-0.369,0.208-0.555c0.012-0.031,0.096-0.23,0.014-0.037
				c0.034-0.08,0.069-0.162,0.105-0.239c1.471-3.128,3.916-5.534,7.013-7.153c4.378-2.293,9.525-2.714,14.384-2.387
				c2.113,0.146,4.156,0.713,5.85,2.028c0.482,0.377,0.927,0.806,1.346,1.25c0.546,0.583,0.979,1.412,1.594,1.898
				c0.506,0.405,1.32,0.547,1.92,0.788c0.52,0.209,1.069,0.457,1.496,0.825c0.627,0.542,1.08,1.362,1.516,2.056
				c0.463,0.744,0.885,1.511,1.252,2.305c0.664,1.42,1.129,2.936,1.436,4.472c0.535,2.698,0.467,5.474,0.119,8.187
				c-0.092,0.715,0.676,1.325,1.326,1.325c0.794,0,1.236-0.61,1.328-1.325c0.488-3.809,0.336-7.725-0.873-11.392
				c-0.73-2.208-1.795-4.304-3.158-6.188c-0.65-0.902-1.311-1.65-2.301-2.184c-0.922-0.494-1.928-0.818-2.904-1.188
				c0.266,0.203,0.529,0.407,0.793,0.609c-1.309-1.809-2.845-3.469-4.822-4.555c-1.623-0.89-3.392-1.316-5.22-1.504
				c-4.046-0.415-8.354-0.147-12.261,1.009c-5.799,1.719-10.94,5.767-12.85,11.646c-1.472,4.528-1.961,9.748-0.82,14.399
				C61.425,124.674,63.985,123.971,63.578,122.31L63.578,122.31L63.578,122.31z"/>
			<path fill="#201614" d="M92.714,113.526c-0.508-0.068,0.051,0.033,0.178,0.073c0.074,0.026,0.145,0.058,0.217,0.079
				c-0.353-0.113-0.098-0.045-0.01-0.004c0.379,0.193,0.74,0.397,1.088,0.643c0.123,0.08,0.24,0.169,0.359,0.258
				c-0.188-0.143,0.029,0.023,0.094,0.075c0.191,0.157,0.375,0.317,0.557,0.481c0.445,0.412,0.865,0.842,1.264,1.301
				c1.732,1.987,3.045,4.588,3.664,7.272c0.163,0.7,0.963,1.113,1.633,0.926c0.715-0.195,1.09-0.931,0.927-1.633
				c-0.733-3.163-2.286-6.12-4.438-8.548c-1.434-1.612-3.316-3.288-5.531-3.577c-0.713-0.094-1.326,0.679-1.326,1.327
				C91.388,112.997,91.999,113.432,92.714,113.526L92.714,113.526L92.714,113.526z"/>
			<path fill="#201614" d="M91.565,111.157c-1.061,1.119-2.17,2.209-3.533,2.964c-0.501,0.274-3.209,1.493-3.062,0.158
				c0.143-1.274-1.481-1.563-2.264-0.935c-2.844,2.283-5.902,4.689-9.512,5.582c-0.854,0.214-1.711,0.316-2.59,0.31
				c-0.941-0.013-1.847-0.136-2.732,0.269c-0.701,0.321-1.181,0.894-1.611,1.52c-0.115,0.164-0.604,1.033-0.677,1.037
				c-0.712,0.078-1.327,0.555-1.327,1.326c0,0.66,0.611,1.404,1.327,1.329c0.839-0.091,1.521-0.406,2.067-1.063
				c0.402-0.48,0.704-1.325,1.229-1.68c0.525-0.361,1.646-0.068,2.27-0.091c1.012-0.04,2.033-0.198,3.01-0.463
				c3.961-1.07,7.281-3.679,10.424-6.2c-0.756-0.311-1.511-0.627-2.266-0.94c-0.125,1.146,0.576,2.235,1.545,2.797
				c1.13,0.655,2.529,0.513,3.719,0.118c2.34-0.778,4.195-2.398,5.861-4.161C94.616,111.791,92.743,109.913,91.565,111.157
				L91.565,111.157L91.565,111.157z"/>
			<path fill="#B4CDF0" d="M116.286,183.698c0.038,0.354,0.07,0.719,0.102,1.077H49.95c0.465-5.028,0.98-9.651,1.553-12.996
				c0.123-0.679,0.246-1.301,0.361-1.876c0.342-1.566,0.723-3.151,1.244-4.67c0.463-1.35,1.043-2.649,1.811-3.854
				c0.121-0.192,0.252-0.387,0.385-0.573c0.098-0.136,0.201-0.277,0.305-0.414c0.084-0.106,0.168-0.219,0.258-0.325
				c0.404-0.519,0.85-1,1.32-1.453c0.148-0.148,0.297-0.289,0.445-0.426c0.174-0.154,0.348-0.309,0.527-0.456
				c0.162-0.142,0.329-0.277,0.496-0.413c0.021-0.013,0.033-0.023,0.045-0.032c0.181-0.147,0.369-0.287,0.555-0.425
				c0.135-0.102,0.271-0.194,0.398-0.283c0.117-0.092,0.233-0.167,0.357-0.244c0.152-0.11,0.309-0.215,0.463-0.312
				c0.579-0.369,1.172-0.724,1.777-1.056c0.213-0.114,0.426-0.224,0.632-0.335c0.226-0.115,0.45-0.238,0.683-0.349
				c0.213-0.109,0.432-0.211,0.651-0.32c0.275-0.13,0.554-0.257,0.837-0.387c0.772-0.352,1.553-0.689,2.333-1.004
				c0.264-0.106,0.521-0.213,0.78-0.314c0.521-0.216,1.043-0.419,1.559-0.622c0,0,0.515-0.197,1.029-0.399
				c0.021,0.016,0.034,0.026,0.053,0.038c0.244,0.181,0.471,0.343,0.471,0.343c1.379,0.999,6.449,3.653,12.647,3.653
				c0.308,0,0.612-0.007,0.911-0.017c0.307-0.01,0.615-0.021,0.92-0.046c0.135-0.01,0.27-0.015,0.406-0.029
				c0.333-0.021,0.662-0.056,0.978-0.096c0.264-0.031,0.517-0.065,0.767-0.103c0.039-0.005,0.078-0.014,0.116-0.017
				c0.259-0.043,0.517-0.08,0.768-0.133c0.644-0.114,1.257-0.25,1.837-0.406c0.271-0.067,0.529-0.142,0.785-0.215
				c0.136-0.039,0.266-0.088,0.394-0.124c1.796-0.575,3.171-1.27,4.008-1.852c0.058-0.035,0.116-0.073,0.167-0.122l0.006-0.005
				c0.041-0.026,0.078-0.058,0.109-0.079c0.111-0.088,0.201-0.168,0.285-0.241c0.037-0.042,0.084-0.079,0.116-0.119
				c0.012-0.011,0.024-0.032,0.037-0.051c1.315,0.516,2.649,1.036,3.964,1.61c0.438,0.195,0.877,0.388,1.308,0.592
				c0.005,0,0.013,0.008,0.013,0.008c0.348,0.162,0.695,0.329,1.039,0.496c0.34,0.174,0.676,0.349,1.01,0.529
				c0.336,0.182,0.664,0.367,0.992,0.559c0.447,0.258,0.876,0.53,1.302,0.813c0.007,0,0.007,0.005,0.007,0.005
				c0.213,0.144,0.418,0.279,0.617,0.42c0.033,0.026,0.064,0.046,0.098,0.071c0.213,0.153,0.424,0.311,0.631,0.472
				c0.02,0.018,0.045,0.029,0.064,0.049c0.033,0.027,0.064,0.055,0.097,0.078c0.142,0.11,0.292,0.23,0.425,0.348
				c0.123,0.097,0.24,0.201,0.355,0.303c0.143,0.122,0.285,0.252,0.419,0.38c0.058,0.051,0.12,0.11,0.181,0.176
				c0.09,0.083,0.18,0.175,0.27,0.264c0.232,0.232,0.465,0.477,0.684,0.729c0.266,0.301,0.521,0.617,0.766,0.94
				c0.221,0.298,0.432,0.607,0.64,0.922c0.218,0.344,0.417,0.688,0.606,1.043c0.074,0.146,0.154,0.297,0.225,0.443
				c0.084,0.168,0.166,0.336,0.244,0.511c0.007,0.005,0.007,0.021,0.014,0.026c0.07,0.162,0.143,0.325,0.213,0.496
				c0.108,0.258,0.213,0.521,0.309,0.785c0.104,0.266,0.193,0.535,0.289,0.803c0.104,0.318,0.201,0.634,0.291,0.949
				c0.09,0.299,0.174,0.593,0.25,0.894c0.077,0.298,0.156,0.603,0.227,0.899c0.143,0.56,0.264,1.122,0.387,1.674
				c0.031,0.147,0.064,0.303,0.098,0.457c0.258,1.271,0.502,2.8,0.734,4.524c0.076,0.573,0.152,1.165,0.232,1.785
				c0.057,0.473,0.115,0.962,0.174,1.462c0.057,0.462,0.109,0.937,0.16,1.417c0.07,0.665,0.141,1.348,0.213,2.037
				c0.012,0.077,0.02,0.159,0.023,0.239C116.161,182.437,116.227,183.059,116.286,183.698L116.286,183.698z"/>
			<path fill="#201614" d="M89.991,144.575c0.107,1.084,0.338,2.15,0.526,3.225c0.138,0.803,0.295,1.627,0.767,2.312
				c0.586,0.848,1.398,1.377,2.311,1.819c0.826,0.397,1.662,0.88,2.529,1.179c0.656,0.224,1.48-0.257,1.633-0.927
				c0.166-0.738-0.225-1.392-0.926-1.632c0.443,0.153,0.17,0.068,0.06,0.02c-0.093-0.045-0.185-0.088-0.276-0.131
				c-0.181-0.085-0.361-0.169-0.539-0.255c-0.355-0.169-0.711-0.338-1.063-0.509c-0.333-0.159-0.669-0.315-0.979-0.516
				c-0.036-0.021-0.316-0.229-0.17-0.108c0.146,0.116-0.133-0.127-0.158-0.151c-0.027-0.028-0.189-0.184-0.182-0.195
				c-0.008,0.012,0.182,0.268,0.008,0c-0.042-0.07-0.084-0.138-0.121-0.209c-0.02-0.033-0.035-0.071-0.053-0.104
				c-0.043-0.094-0.025-0.05,0.056,0.134c-0.003-0.131-0.108-0.318-0.144-0.451c-0.091-0.352-0.145-0.709-0.209-1.067
				c-0.084-0.479-0.178-0.959-0.262-1.436c-0.037-0.198-0.072-0.396-0.104-0.594c-0.01-0.064-0.02-0.128-0.027-0.19
				c0.021,0.18,0.027,0.217,0.014,0.119c-0.011-0.111-0.025-0.222-0.036-0.332c-0.069-0.687-0.562-1.359-1.327-1.325
				C90.658,143.28,89.917,143.835,89.991,144.575L89.991,144.575L89.991,144.575z"/>
			<path fill="#201614" d="M71.114,152.58c0.93-0.404,1.838-0.866,2.757-1.289c0.278-0.128-0.153,0.031-0.163,0.065
				c0.004-0.018,0.678-0.281,0.535-0.219c0.113-0.05,0.225-0.102,0.332-0.159c0.508-0.273,0.924-0.657,1.261-1.124
				c0.466-0.641,0.609-1.408,0.724-2.173c0.155-1.058,0.34-2.103,0.445-3.166c0.071-0.692-0.658-1.354-1.325-1.323
				c-0.778,0.031-1.251,0.583-1.327,1.323c-0.016,0.17-0.034,0.341-0.053,0.507c-0.01,0.097-0.022,0.196-0.035,0.295
				c-0.037,0.306,0.029-0.195-0.004,0.043c-0.068,0.461-0.151,0.918-0.225,1.377c-0.053,0.331-0.092,0.667-0.16,0.995
				c-0.031,0.142-0.068,0.282-0.113,0.425c-0.01,0.035-0.027,0.064-0.035,0.104c-0.037,0.127,0.066-0.154,0.062-0.152
				c-0.056,0.061-0.092,0.186-0.139,0.256c-0.018,0.031-0.045,0.061-0.062,0.094c-0.055,0.11,0.08-0.12,0.092-0.12
				c-0.035,0.003-0.134,0.143-0.166,0.171c-0.027,0.028-0.062,0.053-0.092,0.082c-0.104,0.105,0.096-0.088,0.096-0.076
				c0,0.038-0.247,0.155-0.282,0.172c-0.086,0.049-0.352,0.155-0.121,0.069c-0.042,0.016-0.085,0.032-0.129,0.047
				c-0.147,0.06-0.293,0.123-0.44,0.19c-0.475,0.212-0.947,0.438-1.42,0.662c-0.448,0.214-0.895,0.437-1.35,0.637
				c-0.638,0.276-0.832,1.26-0.477,1.815C69.728,152.768,70.434,152.882,71.114,152.58L71.114,152.58L71.114,152.58z"/>
			<g>
				<path fill="#201614" d="M61.194,184.775c-0.135-3.645-0.294-7.292-0.297-10.942c-0.002-1.705-2.656-1.711-2.654,0
					c0.004,3.65,0.164,7.298,0.297,10.942c0.026,0.714,0.592,1.325,1.326,1.325C60.565,186.101,61.221,185.495,61.194,184.775
					L61.194,184.775L61.194,184.775z"/>
				<path fill="#201614" d="M108.019,184.775c0.145-4.269,0.324-8.538,0.326-12.812c0.001-1.705-2.65-1.709-2.652,0
					c-0.004,4.273-0.186,8.543-0.328,12.812C105.308,186.484,107.961,186.481,108.019,184.775L108.019,184.775L108.019,184.775z"/>
			</g>
			<path fill="#201614" d="M96.253,152.915c1.646,0.644,3.279,1.309,4.883,2.047c-0.218-0.383-0.437-0.768-0.655-1.148v0.006
				c0,0.445,0.247,0.941,0.655,1.147c3.838,1.918,7.537,4.052,9.666,7.993c2.174,4.025,2.807,8.924,3.363,13.402
				c0.35,2.799,0.645,5.604,0.896,8.413c0.064,0.714,0.565,1.325,1.327,1.325c0.668,0,1.393-0.607,1.327-1.325
				c-0.464-5.166-0.909-10.428-2.028-15.504c-0.527-2.38-1.162-4.746-2.234-6.948c-1.069-2.196-2.631-4.132-4.518-5.682
				c-0.967-0.795-1.818-1.4-2.748-1.978c-1.195-0.747-2.451-1.358-3.71-1.987c0.219,0.38,0.437,0.762,0.655,1.143v-0.006
				c0-0.43-0.242-0.954-0.655-1.145c-1.812-0.83-3.659-1.584-5.517-2.309c-0.668-0.262-1.457,0.285-1.633,0.926
				C95.12,152.038,95.584,152.653,96.253,152.915L96.253,152.915L96.253,152.915z"/>
			<path fill="#201614" d="M69.372,150.36c-5.172,2.008-10.711,4.246-14.268,8.548c-3.571,4.318-4.596,10.105-5.335,15.51
				c-0.47,3.442-0.825,6.896-1.146,10.357c-0.065,0.714,0.659,1.325,1.327,1.325c0.773,0,1.26-0.607,1.326-1.325
				c0.496-5.343,0.947-10.761,2.203-15.987c0.616-2.578,1.422-5.134,2.971-7.314c1.387-1.947,3.295-3.46,5.318-4.695
				c2.612-1.594,5.465-2.758,8.31-3.863c0.667-0.257,1.13-0.89,0.928-1.629C70.829,150.647,70.044,150.099,69.372,150.36
				L69.372,150.36L69.372,150.36z"/>
			<path fill="#201614" d="M70.611,152.766c2.704,1.923,6.265,3.022,9.506,3.519c4.438,0.678,9.204,0.266,13.396-1.402
				c1.386-0.553,2.852-1.204,3.922-2.275c1.211-1.207-0.664-3.086-1.875-1.877c-0.105,0.108-0.215,0.205-0.329,0.302
				c0.259-0.22-0.124,0.085-0.177,0.122c-0.268,0.18-0.543,0.343-0.825,0.495c-0.763,0.417-1.56,0.748-2.378,1.028
				c-2.504,0.853-5.133,1.252-7.773,1.271c-4.088,0.015-8.74-1.064-12.127-3.474c-0.584-0.417-1.478-0.104-1.814,0.478
				C69.745,151.614,70.026,152.349,70.611,152.766L70.611,152.766L70.611,152.766z"/>
			<path fill="#201614" d="M102.343,124.292c0.271-0.228,0.708-0.298,1.004-0.254c0.379,0.058,0.701,0.272,0.855,0.564
				c0.221,0.418,0.217,0.976,0.227,1.438c0.012,0.59-0.018,1.185-0.123,1.766c-0.217,1.178-0.619,2.312-1.258,3.329
				c-0.262,0.411-0.584,0.827-0.965,1.135c-0.08,0.064-0.17,0.118-0.257,0.176c-0.33,0.205,0.046,0.008-0.153,0.086
				c-0.217,0.08-0.233,0.055-0.49-0.013c-1.65-0.442-2.355,2.119-0.703,2.556c1.998,0.534,3.568-0.744,4.658-2.299
				c1.062-1.515,1.64-3.368,1.862-5.191c0.213-1.739,0.194-3.929-1.209-5.192c-1.543-1.388-3.778-1.27-5.323,0.023
				c-0.553,0.458-0.477,1.398,0,1.877C101.011,124.836,101.792,124.753,102.343,124.292L102.343,124.292L102.343,124.292z"/>
			<path fill="#201614" d="M99.435,132.135c-0.036,0.851-0.301,1.676-0.578,2.474c-0.053,0.145-0.128,0.299-0.163,0.449
				c-0.048,0.215,0.151-0.278,0.034-0.083c-0.097,0.164-0.168,0.352-0.259,0.519c-0.553,1.045-1.255,2.089-1.946,2.986
				c-1.735,2.244-4.094,4.611-6.945,5.233c-1.67,0.366-0.963,2.925,0.705,2.56c3.459-0.756,6.23-3.475,8.323-6.186
				c1.794-2.321,3.354-4.938,3.483-7.952C102.165,130.425,99.511,130.429,99.435,132.135L99.435,132.135L99.435,132.135z"/>
			<path fill="#201614" d="M66.232,122.415c-1.544-1.293-3.784-1.407-5.323-0.023c-1.445,1.303-1.42,3.564-1.19,5.346
				c0.237,1.827,0.854,3.684,1.948,5.186c1.127,1.548,2.805,2.846,4.814,2.403c0.701-0.154,1.109-0.968,0.928-1.633
				c-0.2-0.723-0.93-1.082-1.634-0.926c-0.386,0.084-0.714-0.156-1.041-0.405c-0.303-0.233-0.721-0.678-0.984-1.076
				c-0.68-1.021-1.106-2.184-1.339-3.387c-0.109-0.57-0.148-1.155-0.143-1.737c0.004-0.505-0.008-1.101,0.23-1.56
				c0.146-0.294,0.475-0.502,0.854-0.564c0.295-0.051,0.734,0.026,1.004,0.254c0.549,0.459,1.338,0.537,1.876,0
				C66.704,123.817,66.784,122.877,66.232,122.415L66.232,122.415L66.232,122.415z"/>
			<path fill="#201614" d="M64.628,131.814c0.715,3.48,2.383,6.745,4.729,9.405c2.485,2.82,5.814,5.149,9.599,5.688
				c0.71,0.103,1.428-0.174,1.633-0.924c0.172-0.623-0.211-1.529-0.926-1.631c-6.465-0.926-11.226-7.15-12.479-13.244
				C66.841,129.439,64.282,130.145,64.628,131.814L64.628,131.814L64.628,131.814z"/>
			<path fill="#201614" d="M80.133,137.584c0.962,0.944,2.447,1.249,3.747,1.246c1.299,0,2.783-0.302,3.748-1.246
				c0.496-0.483,0.523-1.395,0-1.876c-0.535-0.49-1.347-0.518-1.875,0c-0.053,0.049-0.24,0.198-0.018,0.028
				c0.229-0.179-0.014,0-0.077,0.04c-0.073,0.046-0.147,0.085-0.224,0.124c-0.051,0.026-0.107,0.047-0.156,0.076
				c0.057-0.033,0.322-0.126,0.114-0.056c-0.245,0.085-0.491,0.157-0.747,0.203c-0.041,0.01-0.084,0.019-0.123,0.023
				c-0.102,0.018-0.057,0.011,0.133-0.018c-0.008,0.023-0.205,0.023-0.229,0.025c-0.182,0.02-0.363,0.024-0.547,0.024
				c-0.168,0-0.336-0.005-0.504-0.021c-0.088-0.005-0.187-0.028-0.275-0.028c0.121,0,0.258,0.045,0.053,0.004
				c-0.256-0.046-0.51-0.111-0.757-0.2c-0.106-0.038-0.278-0.146,0.083,0.043c-0.041-0.024-0.088-0.043-0.131-0.063
				c-0.083-0.041-0.168-0.088-0.248-0.137c-0.061-0.037-0.117-0.081-0.18-0.121c0.389,0.243,0.193,0.154,0.088,0.053
				c-0.495-0.486-1.389-0.532-1.876,0C79.649,136.232,79.603,137.066,80.133,137.584L80.133,137.584L80.133,137.584z"/>
			<path fill="#201614" d="M83.187,129.781c0.15,0.573,0.295,1.161,0.381,1.75c-0.016-0.118-0.029-0.237-0.047-0.354
				c0.012,0.084,0.018,0.161,0.008,0.244c0.016-0.119,0.032-0.234,0.048-0.354c-0.007,0.036-0.015,0.072-0.028,0.109
				c0.045-0.107,0.092-0.211,0.134-0.316c-0.01,0.024-0.022,0.045-0.036,0.07c0.067-0.09,0.138-0.182,0.205-0.269
				c-0.017,0.022-0.033,0.036-0.057,0.057c0.09-0.072,0.178-0.14,0.27-0.21c-0.045,0.029-0.092,0.055-0.139,0.075
				c0.105-0.046,0.21-0.09,0.316-0.136c-0.076,0.031-0.152,0.058-0.235,0.07c0.12-0.015,0.237-0.033,0.354-0.049
				c-0.074,0.008-0.146,0.008-0.219,0c0.117,0.013,0.232,0.03,0.352,0.049c-0.082-0.013-0.164-0.036-0.247-0.044
				c-0.177-0.055-0.353-0.062-0.528-0.023c-0.178,0.009-0.342,0.06-0.494,0.156c-0.275,0.162-0.539,0.479-0.608,0.794
				c-0.077,0.339-0.062,0.719,0.133,1.022c0.069,0.089,0.136,0.18,0.206,0.267c0.166,0.163,0.361,0.28,0.586,0.343
				c0.227,0.031,0.445,0.085,0.678,0.097c0.373,0.017,0.714-0.099,1.045-0.256c0.419-0.195,0.75-0.595,0.861-1.045
				c0.096-0.385,0.057-0.691-0.008-1.08c-0.096-0.563-0.227-1.122-0.372-1.676c-0.083-0.321-0.323-0.629-0.609-0.792
				c-0.282-0.169-0.704-0.237-1.022-0.136c-0.32,0.104-0.631,0.302-0.793,0.611C83.151,129.073,83.094,129.424,83.187,129.781
				L83.187,129.781L83.187,129.781z"/>
			<path fill="#201614" d="M74.437,125.06c-0.287,0.928-0.1,3.067,1.66,3.25c2.33-0.014,2.452-2.602,1.67-3.816
				C77.125,123.498,75.239,123.085,74.437,125.06L74.437,125.06z"/>
			<path fill="#201614" d="M93.005,125.06c0.285,0.928,0.1,3.067-1.664,3.25c-2.327-0.014-2.451-2.602-1.667-3.816
				C90.315,123.498,92.203,123.085,93.005,125.06L93.005,125.06z"/>
		</g>
	</g>
</g>
</svg>
