<?xml version="1.0" encoding="utf-8"?>
<!-- Generator: Adobe Illustrator 16.0.0, SVG Export Plug-In . SVG Version: 6.00 Build 0)  -->
<!DOCTYPE svg PUBLIC "-//W3C//DTD SVG 1.1//EN" "http://www.w3.org/Graphics/SVG/1.1/DTD/svg11.dtd">
<svg version="1.1" id="レイヤー_1" xmlns="http://www.w3.org/2000/svg" xmlns:xlink="http://www.w3.org/1999/xlink" x="0px"
	 y="0px" width="180px" height="170px" viewBox="0 0 180 170" enable-background="new 0 0 180 170" xml:space="preserve">
<g>
	<g>
		<g>
			<g>
				<path fill="none" stroke="#CDCDCD" stroke-width="3.0769" d="M87.104,92.365c-0.016-17.01-0.053-49.094-0.053-52.981
					c4.938-3.441,32.405-21.713,43.542-28.919c11.1,7.181,38.406,25.342,43.488,28.878c0,3.743,0.055,53.612,0.055,61.722
					c-0.041-0.002-0.055-0.002-0.055-0.002s-43.488,0-86.974,0C87.108,99.257,87.106,96.192,87.104,92.365L87.104,92.365z"/>
				<path fill="none" stroke="#CDCDCD" stroke-width="3.0769" d="M130.273,11.016c2.697,1.744,5.383,3.507,8.068,5.27
					c3.357,2.207,6.709,4.423,10.059,6.641c3.447,2.285,6.893,4.572,10.334,6.864c2.967,1.98,5.934,3.958,8.893,5.944
					c1.91,1.284,3.828,2.567,5.723,3.874c0.137,0.097,0.273,0.188,0.408,0.284c0.285,0.199,0.711,0.051,0.875-0.229
					c0.186-0.319,0.055-0.678-0.229-0.878c-1.732-1.199-3.486-2.374-5.234-3.554c-2.865-1.924-5.732-3.84-8.604-5.754
					c-3.414-2.278-6.832-4.547-10.25-6.812c-3.393-2.25-6.785-4.494-10.184-6.729c-2.789-1.834-5.578-3.666-8.379-5.484
					c-0.277-0.18-0.559-0.36-0.836-0.541C130.225,9.463,129.586,10.566,130.273,11.016L130.273,11.016L130.273,11.016z"/>
				<path fill="none" stroke="#CDCDCD" stroke-width="3.0769" d="M130.273,9.912c-2.697,1.745-5.385,3.506-8.07,5.272
					c-3.356,2.204-6.709,4.421-10.059,6.638c-3.447,2.283-6.892,4.571-10.334,6.865c-2.968,1.977-5.932,3.959-8.893,5.944
					c-1.911,1.283-3.824,2.566-5.722,3.874c-0.137,0.092-0.273,0.188-0.41,0.28c-0.283,0.2-0.412,0.562-0.229,0.878
					c0.163,0.275,0.588,0.428,0.873,0.229c1.732-1.205,3.486-2.378,5.237-3.556c2.86-1.925,5.729-3.841,8.6-5.756
					c3.414-2.274,6.831-4.546,10.251-6.813c3.392-2.247,6.785-4.491,10.183-6.729c2.787-1.834,5.578-3.664,8.377-5.481
					c0.281-0.18,0.561-0.36,0.84-0.541C131.604,10.566,130.965,9.463,130.273,9.912L130.273,9.912L130.273,9.912z"/>
			</g>
			<path fill="none" stroke="#CDCDCD" stroke-width="3.0769" d="M173.445,39.343c0,0.778,0,1.558,0,2.338
				c0.002,1.485,0.004,2.978,0.004,4.464c0.002,2.051,0.004,4.097,0.006,6.146c0.002,2.438,0.006,4.876,0.008,7.313
				c0.002,2.651,0.006,5.303,0.008,7.955c0.002,2.726,0.006,5.448,0.006,8.171c0.004,2.615,0.006,5.225,0.008,7.835
				c0.004,2.357,0.004,4.716,0.006,7.073c0.002,1.928,0.006,3.857,0.006,5.784c0,1.329,0,2.657,0.002,3.987c0,0.216,0,0.436,0,0.652
				c0,0.82,1.277,0.822,1.277,0c0-1.163-0.002-2.33-0.002-3.494c-0.002-1.791-0.004-3.582-0.004-5.371
				c-0.004-2.266-0.004-4.533-0.006-6.802c-0.002-2.575-0.006-5.148-0.008-7.722c0-2.702-0.004-5.402-0.006-8.107
				c-0.002-2.691-0.006-5.387-0.008-8.08c-0.004-2.494-0.006-4.992-0.008-7.488c-0.002-2.158-0.004-4.318-0.006-6.479
				c-0.002-1.645-0.004-3.291-0.006-4.936c0-0.961,0-1.93-0.002-2.893c0-0.116,0-0.232,0-0.348
				C174.721,38.518,173.445,38.518,173.445,39.343L173.445,39.343L173.445,39.343z"/>
			<path fill="none" stroke="#CDCDCD" stroke-width="3.0769" d="M86.414,39.343c0,0.827,0.001,1.658,0.001,2.483
				c0.002,1.489,0.003,2.98,0.004,4.471c0.002,2.014,0.004,4.028,0.007,6.043c0.002,2.37,0.005,4.742,0.008,7.111
				c0.002,2.588,0.005,5.173,0.007,7.766c0.004,2.668,0.006,5.337,0.009,8.006c0.002,2.592,0.005,5.18,0.007,7.77
				c0.003,2.345,0.005,4.691,0.008,7.042c0.001,1.966,0.002,3.94,0.005,5.907c0.001,1.453,0.001,2.902,0.001,4.354
				c0,0.256,0,0.512,0,0.768c0,0.82,1.277,0.822,1.277,0c0-1.296,0-2.594-0.001-3.893c-0.003-1.854-0.003-3.712-0.006-5.564
				c0-2.283-0.003-4.562-0.005-6.844c-0.002-2.533-0.004-5.067-0.008-7.604c-0.002-2.651-0.005-5.301-0.008-7.951
				c-0.002-2.637-0.005-5.265-0.009-7.896c-0.001-2.446-0.005-4.896-0.007-7.344c-0.001-2.109-0.004-4.214-0.007-6.323
				c-0.001-1.628-0.003-3.259-0.003-4.887c-0.004-1.005-0.004-2.01-0.004-3.021c0-0.13,0-0.264,0-0.394
				C87.69,38.518,86.414,38.518,86.414,39.343L86.414,39.343L86.414,39.343z"/>
			<path fill="none" stroke="#CDCDCD" stroke-width="3.0769" d="M169.469,95.623c0-4.013,0-18.99,0-21.382
				c-3.676,0-9.652,0-12.949,0c0.018,5.281,0,17.33,0,21.382"/>
			<path fill="none" stroke="#CDCDCD" stroke-width="3.0769" d="M174.189,95.65c0,1.534,0,4.037,0,5.412
				c-8.434-0.004-17.047,0-23.518,0c0-1.299,0-4.027,0-5.412C157.084,95.65,170.371,95.65,174.189,95.65L174.189,95.65z"/>
			<g>
				<path fill="none" stroke="#CDCDCD" stroke-width="3.0769" d="M159.535,84.782c0.014,0.983,0,1.968,0,2.95
					c0,0.335,0.293,0.655,0.639,0.64c0.346-0.017,0.639-0.28,0.639-0.64c0-0.982,0.014-1.967,0-2.95
					c-0.008-0.335-0.291-0.655-0.639-0.637C159.832,84.158,159.527,84.425,159.535,84.782L159.535,84.782L159.535,84.782z"/>
				<path fill="none" stroke="#CDCDCD" stroke-width="3.0769" d="M87.108,101.702c5.542,0,11.083,0,16.624,0
					c6.826,0,13.655,0,20.479,0c6.941,0,13.883,0,20.824,0c5.889,0,11.773,0,17.66,0c3.574,0,7.146,0,10.719,0
					c0.223,0,0.443,0,0.668,0c0.82,0,0.822-1.277,0-1.277c-3.236,0-6.473,0-9.709,0c-5.648,0-11.293,0-16.941,0
					c-6.873,0-13.746,0-20.619,0c-6.939,0-13.877,0-20.818,0c-5.732,0-11.464,0-17.197,0c-0.562,0-1.126,0-1.689,0
					C86.286,100.425,86.285,101.702,87.108,101.702L87.108,101.702L87.108,101.702z"/>
			</g>
			<path fill="none" stroke="#CDCDCD" stroke-width="3.0769" d="M128.934,45.412c-2.408,0-6.324,0-8.485,0
				c0.016,2.854,0,5.772,0,7.963c2.038,0,6.315,0,8.485,0C128.934,51.203,128.934,46.705,128.934,45.412L128.934,45.412z"/>
			<path fill="none" stroke="#CDCDCD" stroke-width="3.0769" d="M140.74,45.412c-2.408,0-6.324,0-8.484,0
				c0.014,2.854,0,5.772,0,7.963c2.037,0,6.314,0,8.484,0C140.74,51.203,140.74,46.705,140.74,45.412L140.74,45.412z"/>
			<path fill="none" stroke="#CDCDCD" stroke-width="3.0769" d="M128.934,34.138c-2.408,0-6.324,0-8.485,0
				c0.016,2.856,0,5.769,0,7.962c2.038,0,6.315,0,8.485,0C128.934,39.932,128.934,35.43,128.934,34.138L128.934,34.138z"/>
			<path fill="none" stroke="#CDCDCD" stroke-width="3.0769" d="M140.74,34.138c-2.408,0-6.324,0-8.484,0
				c0.014,2.856,0,5.769,0,7.962c2.037,0,6.314,0,8.484,0C140.74,39.932,140.74,35.43,140.74,34.138L140.74,34.138z"/>
		</g>
		<g>
			<g>
				<path fill="#FFFFFF" d="M87.104,92.365c-0.016-17.01-0.053-49.094-0.053-52.981c4.938-3.441,32.405-21.713,43.542-28.919
					c11.1,7.181,38.406,25.342,43.488,28.878c0,3.743,0.055,53.612,0.055,61.722c-0.041-0.002-0.055-0.002-0.055-0.002
					s-43.488,0-86.974,0C87.108,99.257,87.106,96.192,87.104,92.365L87.104,92.365z"/>
				<path fill="#CDCDCD" d="M130.273,11.016c2.697,1.744,5.383,3.507,8.068,5.27c3.357,2.207,6.709,4.423,10.059,6.641
					c3.447,2.285,6.893,4.572,10.334,6.864c2.967,1.98,5.934,3.958,8.893,5.944c1.91,1.284,3.828,2.567,5.723,3.874
					c0.137,0.097,0.273,0.188,0.408,0.284c0.285,0.199,0.711,0.051,0.875-0.229c0.186-0.319,0.055-0.678-0.229-0.878
					c-1.732-1.199-3.486-2.374-5.234-3.554c-2.865-1.924-5.732-3.84-8.604-5.754c-3.414-2.278-6.832-4.547-10.25-6.812
					c-3.393-2.25-6.785-4.494-10.184-6.729c-2.789-1.834-5.578-3.666-8.379-5.484c-0.277-0.18-0.559-0.36-0.836-0.541
					C130.225,9.463,129.586,10.566,130.273,11.016L130.273,11.016L130.273,11.016z"/>
				<path fill="#CDCDCD" d="M130.273,9.912c-2.697,1.745-5.385,3.506-8.07,5.272c-3.356,2.204-6.709,4.421-10.059,6.638
					c-3.447,2.283-6.892,4.571-10.334,6.865c-2.968,1.977-5.932,3.959-8.893,5.944c-1.911,1.283-3.824,2.566-5.722,3.874
					c-0.137,0.092-0.273,0.188-0.41,0.28c-0.283,0.2-0.412,0.562-0.229,0.878c0.163,0.275,0.588,0.428,0.873,0.229
					c1.732-1.205,3.486-2.378,5.237-3.556c2.86-1.925,5.729-3.841,8.6-5.756c3.414-2.274,6.831-4.546,10.251-6.813
					c3.392-2.247,6.785-4.491,10.183-6.729c2.787-1.834,5.578-3.664,8.377-5.481c0.281-0.18,0.561-0.36,0.84-0.541
					C131.604,10.566,130.965,9.463,130.273,9.912L130.273,9.912L130.273,9.912z"/>
			</g>
			<path fill="#CDCDCD" d="M173.445,39.343c0,0.778,0,1.558,0,2.338c0.002,1.485,0.004,2.978,0.004,4.464
				c0.002,2.051,0.004,4.097,0.006,6.146c0.002,2.438,0.006,4.876,0.008,7.313c0.002,2.651,0.006,5.303,0.008,7.955
				c0.002,2.726,0.006,5.448,0.006,8.171c0.004,2.615,0.006,5.225,0.008,7.835c0.004,2.357,0.004,4.716,0.006,7.073
				c0.002,1.928,0.006,3.857,0.006,5.784c0,1.329,0,2.657,0.002,3.987c0,0.216,0,0.436,0,0.652c0,0.82,1.277,0.822,1.277,0
				c0-1.163-0.002-2.33-0.002-3.494c-0.002-1.791-0.004-3.582-0.004-5.371c-0.004-2.266-0.004-4.533-0.006-6.802
				c-0.002-2.575-0.006-5.148-0.008-7.722c0-2.702-0.004-5.402-0.006-8.107c-0.002-2.691-0.006-5.387-0.008-8.08
				c-0.004-2.494-0.006-4.992-0.008-7.488c-0.002-2.158-0.004-4.318-0.006-6.479c-0.002-1.645-0.004-3.291-0.006-4.936
				c0-0.961,0-1.93-0.002-2.893c0-0.116,0-0.232,0-0.348C174.721,38.518,173.445,38.518,173.445,39.343L173.445,39.343
				L173.445,39.343z"/>
			<path fill="#CDCDCD" d="M86.414,39.343c0,0.827,0.001,1.658,0.001,2.483c0.002,1.489,0.003,2.98,0.004,4.471
				c0.002,2.014,0.004,4.028,0.007,6.043c0.002,2.37,0.005,4.742,0.008,7.111c0.002,2.588,0.005,5.173,0.007,7.766
				c0.004,2.668,0.006,5.337,0.009,8.006c0.002,2.592,0.005,5.18,0.007,7.77c0.003,2.345,0.005,4.691,0.008,7.042
				c0.001,1.966,0.002,3.94,0.005,5.907c0.001,1.453,0.001,2.902,0.001,4.354c0,0.256,0,0.512,0,0.768c0,0.82,1.277,0.822,1.277,0
				c0-1.296,0-2.594-0.001-3.893c-0.003-1.854-0.003-3.712-0.006-5.564c0-2.283-0.003-4.562-0.005-6.844
				c-0.002-2.533-0.004-5.067-0.008-7.604c-0.002-2.651-0.005-5.301-0.008-7.951c-0.002-2.637-0.005-5.265-0.009-7.896
				c-0.001-2.446-0.005-4.896-0.007-7.344c-0.001-2.109-0.004-4.214-0.007-6.323c-0.001-1.628-0.003-3.259-0.003-4.887
				c-0.004-1.005-0.004-2.01-0.004-3.021c0-0.13,0-0.264,0-0.394C87.69,38.518,86.414,38.518,86.414,39.343L86.414,39.343
				L86.414,39.343z"/>
			<path fill="#A8998D" d="M169.469,95.623c0-4.013,0-18.99,0-21.382c-3.676,0-9.652,0-12.949,0c0.018,5.281,0,17.33,0,21.382"/>
			<path fill="#CDCDCD" d="M174.189,95.65c0,1.534,0,4.037,0,5.412c-8.434-0.004-17.047,0-23.518,0c0-1.299,0-4.027,0-5.412
				C157.084,95.65,170.371,95.65,174.189,95.65L174.189,95.65z"/>
			<g>
				<path fill="#FFFFFF" d="M159.535,84.782c0.014,0.983,0,1.968,0,2.95c0,0.335,0.293,0.655,0.639,0.64
					c0.346-0.017,0.639-0.28,0.639-0.64c0-0.982,0.014-1.967,0-2.95c-0.008-0.335-0.291-0.655-0.639-0.637
					C159.832,84.158,159.527,84.425,159.535,84.782L159.535,84.782L159.535,84.782z"/>
				<path fill="#CDCDCD" d="M87.108,101.702c5.542,0,11.083,0,16.624,0c6.826,0,13.655,0,20.479,0c6.941,0,13.883,0,20.824,0
					c5.889,0,11.773,0,17.66,0c3.574,0,7.146,0,10.719,0c0.223,0,0.443,0,0.668,0c0.82,0,0.822-1.277,0-1.277
					c-3.236,0-6.473,0-9.709,0c-5.648,0-11.293,0-16.941,0c-6.873,0-13.746,0-20.619,0c-6.939,0-13.877,0-20.818,0
					c-5.732,0-11.464,0-17.197,0c-0.562,0-1.126,0-1.689,0C86.286,100.425,86.285,101.702,87.108,101.702L87.108,101.702
					L87.108,101.702z"/>
			</g>
			<path fill="#B4CDF0" d="M128.934,45.412c-2.408,0-6.324,0-8.485,0c0.016,2.854,0,5.772,0,7.963c2.038,0,6.315,0,8.485,0
				C128.934,51.203,128.934,46.705,128.934,45.412L128.934,45.412z"/>
			<path fill="#B4CDF0" d="M140.74,45.412c-2.408,0-6.324,0-8.484,0c0.014,2.854,0,5.772,0,7.963c2.037,0,6.314,0,8.484,0
				C140.74,51.203,140.74,46.705,140.74,45.412L140.74,45.412z"/>
			<path fill="#B4CDF0" d="M128.934,34.138c-2.408,0-6.324,0-8.485,0c0.016,2.856,0,5.769,0,7.962c2.038,0,6.315,0,8.485,0
				C128.934,39.932,128.934,35.43,128.934,34.138L128.934,34.138z"/>
			<path fill="#B4CDF0" d="M140.74,34.138c-2.408,0-6.324,0-8.484,0c0.014,2.856,0,5.769,0,7.962c2.037,0,6.314,0,8.484,0
				C140.74,39.932,140.74,35.43,140.74,34.138L140.74,34.138z"/>
		</g>
	</g>
	<g>
		<defs>
			<rect id="SVGID_1_" x="3.333" y="9.807" width="173.333" height="160"/>
		</defs>
		<clipPath id="SVGID_2_">
			<use xlink:href="#SVGID_1_"  overflow="visible"/>
		</clipPath>
		<g clip-path="url(#SVGID_2_)">
			<path fill="#FFFFFF" d="M105.906,124.246c-0.943-2.537-2.341-4.981-4.693-5.818c-0.805,10.23-2.903,15.752-5.639,30.453
				c-0.586,3.14-0.934,29.602-0.907,37.166c0.545-0.229,0.933-0.389,0.933-0.389c5.29-2.909,12.999-6.189,17.368-10.357
				c1.986-1.896,1.908-4.093,2.283-6.816c0.229-1.667-0.174-3.353-0.58-4.993c-3.102-12.498-4.439-24.925-8.113-37.271
				C106.366,125.574,106.149,124.906,105.906,124.246L105.906,124.246z"/>
			<path fill="#FFFFFF" d="M16.093,125.346c0.921-2.84,2.324-5.828,4.903-6.854c0.811,10.194,2.906,15.72,5.637,30.39
				c0.59,3.162,1.047,29.977,0.936,37.323c-0.515-0.237-0.87-0.399-0.87-0.399c-5.29-2.911-12.915-6.336-17.286-10.504
				c-1.988-1.896-3.958-4.093-4.334-6.816c-0.229-1.667,0.174-3.353,0.58-4.993c3.102-12.498,6.491-24.925,10.164-37.271
				C15.907,125.934,15.999,125.641,16.093,125.346L16.093,125.346z"/>
			<path fill="#201614" d="M77.943,109.502c-0.994-0.459-1.987-0.923-2.981-1.381c-0.504-0.229,0.375,0.148-0.021-0.007
				c-0.308-0.123-0.62-0.245-0.909-0.411c-0.553-0.313-1.014-0.736-1.379-1.25c-0.514-0.723-0.679-1.586-0.809-2.44
				c-0.201-1.341-0.436-2.669-0.536-4.017c-0.058-0.734,0.686-1.439,1.401-1.408c0.811,0.039,1.346,0.618,1.406,1.408
				c0.089,1.181,0.244,2.006,0.43,3.222c0.054,0.36,0.104,0.724,0.193,1.079c0.021,0.089,0.045,0.173,0.071,0.254
				c0.088,0.272,0.075,0.055-0.02-0.01c0.046,0.033,0.086,0.179,0.117,0.234c0.032,0.058,0.243,0.299,0.088,0.152
				c-0.169-0.152,0.07,0.069,0.106,0.102c0.032,0.033,0.288,0.232,0.123,0.118c-0.172-0.116,0.139,0.082,0.175,0.102
				c0.104,0.063,0.212,0.118,0.321,0.169c0.213,0.106-0.314-0.122,0.104,0.041c0.124,0.049,0.246,0.103,0.37,0.156
				c0.093,0.04,0.184,0.085,0.276,0.127c0.964,0.443,1.924,0.891,2.889,1.335c0.668,0.31,0.887,1.325,0.504,1.92
				C79.417,109.687,78.657,109.834,77.943,109.502L77.943,109.502L77.943,109.502z"/>
			<path fill="#201614" d="M51.2,99.987c-0.108,1.405-0.342,2.784-0.551,4.178c-0.147,0.992-0.422,1.923-1.1,2.691
				c-0.378,0.429-0.869,0.771-1.385,1.013c-0.193,0.088-0.391,0.168-0.587,0.242c-0.453,0.179,0.343-0.161,0.149-0.067
				c-0.12,0.06-0.244,0.11-0.366,0.17c-1.08,0.505-2.159,1.019-3.235,1.528c-0.662,0.313-1.545,0.207-1.92-0.503
				c-0.331-0.626-0.206-1.587,0.502-1.923c1.027-0.483,2.053-0.968,3.08-1.453c0.297-0.141,0.594-0.283,0.9-0.401
				c0.168-0.065,0.174-0.069,0.058-0.02c0.114-0.05,0.227-0.106,0.337-0.171c0.098-0.054,0.189-0.119,0.285-0.182
				c-0.281,0.189,0.007-0.016,0.068-0.078c0.033-0.036,0.068-0.069,0.099-0.105c0.078-0.095,0.081-0.095,0.005-0.006
				c-0.052,0.188,0.032-0.056,0.068-0.12c0.031-0.057,0.127-0.329,0.066-0.11c-0.066,0.236,0.038-0.127,0.051-0.166
				c0.106-0.355,0.162-0.72,0.217-1.085c0.184-1.233,0.354-2.199,0.451-3.432c0.056-0.732,0.605-1.445,1.403-1.405
				C50.508,98.613,51.262,99.202,51.2,99.987L51.2,99.987L51.2,99.987z"/>
			<path fill="#201614" d="M98.983,164.765c-0.268-0.136-0.536-0.269-0.809-0.394c-0.156-0.073-0.311-0.141-0.471-0.211
				c-0.302-0.131,0.143,0.054-0.139-0.056c-0.58-0.228-1.162-0.444-1.754-0.627c-1.167-0.362-2.362-0.623-3.574-0.79
				c-0.729-0.104-1.192-1.074-0.981-1.729c0.26-0.801,0.945-1.087,1.727-0.98c2.593,0.356,5.09,1.177,7.419,2.361
				c0.656,0.336,0.896,1.312,0.504,1.922C100.471,164.93,99.684,165.119,98.983,164.765L98.983,164.765L98.983,164.765z"/>
			<path fill="#201614" d="M21.762,162.287c2.33-1.183,4.828-2.003,7.419-2.361c0.392-0.053,0.726-0.065,1.08,0.141
				c0.292,0.172,0.57,0.503,0.647,0.839c0.148,0.662-0.203,1.619-0.98,1.726c-1.211,0.17-2.408,0.432-3.574,0.794
				c-0.574,0.177-1.137,0.38-1.696,0.604c-0.06,0.021-0.12,0.049-0.179,0.072c0.138-0.058,0.13-0.055-0.02,0.008
				c-0.139,0.058-0.275,0.121-0.412,0.184c-0.292,0.133-0.582,0.273-0.868,0.417c-0.652,0.333-1.552,0.195-1.919-0.499
				C20.92,163.567,21.065,162.644,21.762,162.287L21.762,162.287L21.762,162.287z"/>
			<path fill="#FFFFFF" d="M43.417,108.53c1.705-0.808,3.577-1.692,3.654-1.72c2.145-0.775,2.062-2.154,2.33-3.695
				c0.183-1.041,0.317-2.087,0.396-3.131c-5.019-3.106-8.912-9.844-9.645-11.834c-0.154-0.47-0.512-1.458-0.759-2.574
				c-0.221,0.065-0.347,0.103-0.347,0.103c-1.108,0.339-1.874-0.007-2.641-0.618c-0.993-0.804-1.708-1.857-2.257-2.963
				c-1.126-2.266-1.617-4.798-1.4-7.281c0.059-0.633,0.16-1.277,0.48-1.846c0.449-0.809,1.347-1.401,2.33-1.551
				c1.092-0.163,2.266,0.236,2.966,1.023c0.493-1.854,1.081-3.676,1.081-3.676c0.04-4.097,2.074-12.588,7.234-14.555
				c4.383-1.907,7.218-2.122,10.929-2.417c3.032-0.249,10.145,0.683,13.679,1.116c1.782,0.219,4.01,0.649,6.217,2.224
				c5.036,3.592,1.997,11.999,4.577,14.188c0,0,0.774,1.841,2.655,2.844c0.7-0.596,1.706-0.884,2.654-0.754
				c0.009,0.003,0.018,0.006,0.027,0.006c0.984,0.149,1.88,0.742,2.332,1.551c0.317,0.568,0.42,1.213,0.478,1.846
				c0.217,2.483-0.274,5.016-1.4,7.281c-0.547,1.105-1.263,2.159-2.257,2.963c-0.766,0.611-1.721,1.28-2.976,0.944
				c0,0-0.229,0.022-0.576,0.062c-0.895,2.756-2.407,5.957-4.904,8.946c-1.685,2.018-3.556,3.722-5.563,4.983
				c0.08,1.069,0.214,2.042,0.404,3.119c0.272,1.541,0.185,2.92,2.33,3.695c0.066,0.022,1.57,0.724,3.205,1.479
				c0,0-1.964,9.353-16.649,9.353C47.313,117.643,43.417,108.53,43.417,108.53L43.417,108.53z"/>
			<path fill="#C3C3C3" d="M34.04,59.398c0.162-2.031,0.471-4.055,0.943-5.93c1.714-6.814,5.152-11.331,11.898-13.333
				c4.238-5.545,14.658-7.214,20.805-4.338c0.571,0.268,3.116,0.81,3.801,0.89c4.841,0.568,9.939,4.646,12.777,9.479
				c2.688,4.575,4.12,9.56,4.303,14.985c0.109,3.219-0.22,6.595-0.988,10.136c0,0-0.01,0.045-0.029,0.13
				c-0.946-0.133-1.952,0.155-2.652,0.751c-1.881-1.003-2.655-2.844-2.655-2.844c-2.58-2.189,0.459-10.597-4.577-14.188
				c-2.207-1.574-4.435-2.005-6.217-2.224c-3.534-0.434-10.646-1.365-13.679-1.116c-3.711,0.295-6.546,0.51-10.929,2.417
				c-5.16,1.967-7.194,10.458-7.234,14.555c0,0-0.588,1.822-1.081,3.676c-0.7-0.787-1.874-1.187-2.966-1.023
				c-0.178,0.027-0.356,0.072-0.527,0.127C34.066,68.554,33.678,63.962,34.04,59.398L34.04,59.398z"/>
			<path fill="#B4CDF0" d="M21,118.513c1.076-0.844,2.237-1.577,3.438-2.228c6.979-3.795,12.906-6.425,21.086-9.208
				c2.366,3.861,4.488,7.719,7.699,10.912c0.959-1.183,2.752-3.321,4.18-5.07c1.09-1.334,1.967-2.439,2.1-2.708
				c0.086-0.182,0.176-0.387,0.116-0.573l2.644-0.208c-0.062,0.197,0.031,0.404,0.119,0.588c0.137,0.277,1.033,1.41,2.15,2.776
				c1.461,1.789,3.301,3.985,4.283,5.195c3.241-3.22,5.398-7.104,7.779-11.001c8.316,2.818,14.295,5.459,21.346,9.297
				c1.143,0.619,2.247,1.309,3.275,2.099c-0.752,10.757-4.21,20.976-5.771,31.628c-0.73,14.252-0.866,28.899-0.676,43.111H27.385
				c0.407-13.483,0.091-28.249-0.537-41.992C25.593,140.146,21.728,129.595,21,118.513L21,118.513z"/>
			<path fill="#201614" d="M38.202,68.768c0.043-2.926,0.746-5.941,1.847-8.642c1.256-3.073,3.173-6.068,6.421-7.264
				c0.713-0.264,1.537,0.293,1.727,0.979c0.217,0.783-0.267,1.463-0.98,1.729c-0.97,0.358-1.974,1.219-2.699,2.166
				c-0.805,1.053-1.48,2.388-1.954,3.632c-0.509,1.329-0.894,2.712-1.173,4.107c-0.066,0.331-0.128,0.666-0.179,0.999
				c-0.064,0.398-0.048,0.251-0.099,0.699c-0.058,0.528-0.093,1.061-0.104,1.594C40.985,70.572,38.174,70.578,38.202,68.768
				L38.202,68.768L38.202,68.768z"/>
			<path fill="#201614" d="M50.585,52.398c0.394-1.435,0.841-2.883,1.8-4.051c0.405-0.499,0.935-0.883,1.456-1.245
				c0.593-0.413,1.207-0.761,1.877-1.031c0.316-0.125,0.802-0.021,1.083,0.142c0.291,0.174,0.568,0.505,0.645,0.84
				c0.082,0.361,0.064,0.763-0.143,1.082c-0.209,0.326-0.479,0.5-0.837,0.645c0.498-0.199,0.072-0.025-0.049,0.034
				c-0.127,0.064-0.251,0.139-0.375,0.209c-0.258,0.149-0.508,0.312-0.753,0.483c-0.123,0.083-0.242,0.174-0.364,0.264
				c-0.139,0.1,0.267-0.215,0.093-0.075c-0.05,0.045-0.099,0.084-0.146,0.124c-0.065,0.057-0.533,0.444-0.502,0.512
				c-0.008-0.017,0.246-0.331,0.07-0.087c-0.035,0.052-0.07,0.104-0.105,0.157c-0.065,0.097-0.124,0.198-0.182,0.303
				c-0.061,0.108-0.116,0.218-0.17,0.33c-0.029,0.065-0.058,0.128-0.088,0.192c-0.11,0.244,0.119-0.302,0.028-0.064
				c-0.247,0.651-0.446,1.313-0.63,1.984c-0.193,0.708-1.007,1.216-1.728,0.983C50.842,53.892,50.379,53.16,50.585,52.398
				L50.585,52.398L50.585,52.398z"/>
			<path fill="#201614" d="M56.188,51.883c0.785-1.047,1.619-1.985,2.664-2.779c0.838-0.638,1.77-1.153,2.727-1.597
				c0.91-0.417,1.885-0.696,2.858-0.914c1.025-0.232,2.117-0.445,3.171-0.388c0.758,0.041,1.404,0.614,1.404,1.405
				c0,0.728-0.643,1.443-1.404,1.402c-0.407-0.022-0.812,0.007-1.218,0.056c-0.155,0.02,0.168-0.029-0.097,0.017
				c-0.137,0.021-0.275,0.047-0.413,0.07c-0.233,0.044-0.466,0.092-0.695,0.146c-0.466,0.105-0.929,0.222-1.384,0.362
				c-0.189,0.06-0.377,0.118-0.562,0.187c-0.084,0.025-0.164,0.056-0.246,0.087c-0.312,0.107,0.262-0.141,0.004-0.005
				c-0.846,0.436-1.685,0.847-2.461,1.4c-0.067,0.045-0.24,0.181-0.087,0.06c-0.106,0.085-0.212,0.173-0.313,0.261
				c-0.175,0.153-0.346,0.314-0.511,0.479c-0.362,0.365-0.738,0.804-1.015,1.171c-0.452,0.606-1.213,0.916-1.919,0.505
				C56.093,53.454,55.729,52.492,56.188,51.883L56.188,51.883L56.188,51.883z"/>
			<path fill="#201614" d="M71.875,51.945c2.13,0.107,4.319,0.533,6.102,1.768c1.656,1.156,3.113,2.895,3.67,4.858
				c0.518,1.826,0.52,3.796,0.652,5.676c0.06,0.858,0.119,1.704,0.294,2.536c0.076,0.359,0.163,0.729,0.306,1.068
				c0.041,0.102,0.22,0.371,0.334,0.479c1.306,1.256-0.68,3.239-1.985,1.986c-1.219-1.168-1.455-3.005-1.63-4.596
				c-0.191-1.735-0.176-3.532-0.432-5.234c-0.104-0.674-0.273-1.443-0.508-1.854c-0.479-0.835-1.038-1.601-1.776-2.228
				c-1.397-1.182-3.243-1.56-5.026-1.649C70.079,54.662,70.067,51.854,71.875,51.945L71.875,51.945L71.875,51.945z"/>
			<path fill="#201614" d="M37.316,73.219c-0.844-0.707-2.331-0.53-2.876,0.459c-0.32,0.588-0.32,1.358-0.334,2.01
				c-0.018,0.787,0.029,1.581,0.171,2.355c0.282,1.542,0.815,3.033,1.651,4.364c0.57,0.903,1.538,2.237,2.746,1.918
				c1.747-0.468,2.49,2.239,0.746,2.708c-2.432,0.647-4.332-0.933-5.658-2.822c-1.337-1.905-2.076-4.24-2.358-6.534
				c-0.263-2.151-0.278-4.906,1.47-6.472c1.859-1.667,4.564-1.527,6.426,0.03c0.583,0.483,0.502,1.481,0,1.983
				C38.724,73.794,37.897,73.705,37.316,73.219L37.316,73.219L37.316,73.219z"/>
			<path fill="#201614" d="M40.54,83.629c0.047,1.211,0.382,2.382,0.759,3.527c0.096,0.288,0.189,0.578,0.3,0.861
				c-0.15-0.385,0.039,0.072,0.072,0.143c0.055,0.11,0.106,0.221,0.16,0.334c0.73,1.465,1.612,2.859,2.563,4.19
				c2.214,3.091,5.224,6.437,9.071,7.339c1.758,0.414,1.014,3.122-0.746,2.708c-4.521-1.059-8.004-4.839-10.625-8.456
				c-2.271-3.137-4.203-6.688-4.364-10.646C37.657,81.822,40.465,81.824,40.54,83.629L40.54,83.629L40.54,83.629z"/>
			<path fill="#201614" d="M83.837,71.235c1.86-1.558,4.568-1.697,6.427-0.03c1.789,1.6,1.731,4.438,1.45,6.627
				c-0.302,2.316-1.089,4.669-2.476,6.57c-1.369,1.873-3.416,3.49-5.858,2.951c-1.761-0.384-1.016-3.094,0.747-2.705
				c1.18,0.262,2.387-1.189,2.955-2.049c0.889-1.339,1.452-2.862,1.756-4.432c0.146-0.767,0.203-1.541,0.196-2.321
				c-0.005-0.698,0.011-1.538-0.337-2.169c-0.549-0.989-2.029-1.168-2.875-0.459c-0.58,0.483-1.414,0.568-1.985,0
				C83.338,72.718,83.252,71.722,83.837,71.235L83.837,71.235L83.837,71.235z"/>
			<path fill="#201614" d="M85.672,81.244c-0.594,4.741-2.368,9.37-5.209,13.227c-3.216,4.374-7.789,8.297-13.316,9.139
				c-0.75,0.114-1.51-0.19-1.728-0.982c-0.181-0.664,0.226-1.61,0.979-1.727c4.904-0.742,9.004-4.16,11.823-8.099
				c1.403-1.955,2.542-4.1,3.351-6.366c0.587-1.645,1.097-3.632,1.293-5.191c0.094-0.752,0.578-1.403,1.403-1.403
				C84.954,79.841,85.768,80.486,85.672,81.244L85.672,81.244L85.672,81.244z"/>
			<path fill="#201614" d="M46.84,38.322c3.077-3.042,7.372-4.527,11.602-4.981c2.132-0.228,4.295-0.14,6.398,0.275
				c0.97,0.191,1.913,0.474,2.828,0.854c0.24,0.099,0.476,0.222,0.718,0.311c-0.278-0.104,0-0.015,0.121,0.02
				c0.431,0.114,0.862,0.229,1.295,0.326c0.426,0.098,0.854,0.189,1.284,0.27c0.156,0.03,0.314,0.057,0.473,0.084
				c0.187,0.029-0.068-0.007-0.089-0.01c0.244,0.036,0.491,0.062,0.736,0.1c1.108,0.172,2.168,0.513,3.199,0.95
				c2.282,0.967,4.339,2.423,6.121,4.138c3.616,3.475,6.015,8.155,7.31,12.963c1.566,5.803,1.378,11.874,0.191,17.728
				c-0.362,1.769-3.068,1.019-2.709-0.745c1.84-9.061,0.823-19.556-5.587-26.727c-1.481-1.657-3.19-3.096-5.144-4.165
				c-1.717-0.938-3.447-1.265-5.336-1.624c-0.727-0.142-1.453-0.296-2.167-0.489c-0.747-0.2-1.433-0.555-2.164-0.798
				c-1.791-0.592-3.661-0.805-5.541-0.771c-4.112,0.072-8.568,1.322-11.554,4.277C47.54,41.579,45.555,39.594,46.84,38.322
				L46.84,38.322L46.84,38.322z"/>
			<path fill="#201614" d="M44.459,42.841c-4.651,1.956-6.988,6.852-8.099,11.491c-0.702,2.922-0.964,5.941-0.937,8.94
				c0.021,2.612,0.249,5.24,0.982,7.75c0.511,1.739-2.198,2.482-2.706,0.747c-1.341-4.588-1.342-9.682-0.726-14.385
				c0.612-4.68,2.004-9.414,5.054-13.107c1.532-1.859,3.478-3.217,5.685-4.145c0.699-0.295,1.544,0.315,1.728,0.979
				C45.663,41.924,45.163,42.542,44.459,42.841L44.459,42.841L44.459,42.841z"/>
			<g>
				<path fill="#201614" d="M100.849,116.874c4.966,1.083,6.511,6.9,7.678,11.124c1.679,6.065,2.868,12.247,4.032,18.426
					c0.588,3.116,1.171,6.234,1.811,9.343c0.642,3.117,1.535,6.207,2.1,9.337c0.268,1.486,0.238,2.855,0.064,4.345
					c-0.137,1.2-0.234,2.429-0.594,3.59c-0.756,2.458-2.697,4.022-4.699,5.487c-4.621,3.371-9.939,5.609-14.933,8.346
					c-1.584,0.868-3.003-1.555-1.417-2.425c4.174-2.284,8.53-4.233,12.572-6.757c1.744-1.091,3.955-2.379,5.148-4.104
					c0.58-0.838,0.809-1.84,0.957-2.835c0.175-1.174,0.381-2.415,0.341-3.604c-0.053-1.451-0.499-2.878-0.837-4.282
					c-0.35-1.446-0.678-2.896-0.99-4.352c-0.618-2.882-1.18-5.778-1.729-8.676c-1.093-5.779-2.145-11.57-3.543-17.282
					c-0.699-2.858-1.363-5.818-2.495-8.546c-0.81-1.946-2.017-3.948-4.212-4.427C98.339,119.194,99.085,116.486,100.849,116.874
					L100.849,116.874L100.849,116.874z"/>
				<path fill="#201614" d="M22.279,119.582c-1.94,0.423-3.062,2.001-3.886,3.701c-1.061,2.188-1.611,4.631-2.29,6.95
					c-1.681,5.737-3.298,11.493-4.856,17.271c-1.551,5.764-3.146,11.534-4.471,17.354c-0.307,1.337-0.532,2.729-0.178,4.084
					c0.297,1.131,0.916,2.159,1.64,3.07c1.425,1.792,3.202,3.335,5.07,4.647c4.425,3.101,9.374,5.343,14.099,7.935
					c1.584,0.87,0.17,3.293-1.418,2.423c-4.45-2.44-9.082-4.572-13.314-7.399c-4.065-2.716-9.053-6.787-9.066-12.135
					c-0.003-1.59,0.4-3.16,0.781-4.693c0.388-1.567,0.781-3.125,1.179-4.686c0.794-3.12,1.606-6.235,2.438-9.348
					c1.646-6.166,3.361-12.315,5.148-18.441c1.369-4.7,2.638-12.184,8.378-13.44C23.292,116.486,24.046,119.194,22.279,119.582
					L22.279,119.582L22.279,119.582z"/>
			</g>
			<path fill="#201614" d="M25.981,193.123c0.294-9.813,0.214-19.631-0.068-29.441c-0.07-2.436-0.152-4.876-0.249-7.311
				c-0.093-2.394-0.126-4.788-0.472-7.162c-0.697-4.803-1.82-9.525-2.881-14.255c-1.212-5.394-2.319-10.82-2.709-16.348
				c-0.126-1.802,2.683-1.794,2.811,0c0.688,9.807,3.82,19.203,5.339,28.878c0.755,4.796,0.769,9.682,0.92,14.526
				c0.152,4.913,0.253,9.819,0.288,14.731c0.037,5.462-0.008,10.921-0.172,16.381C28.734,194.926,25.926,194.934,25.981,193.123
				L25.981,193.123L25.981,193.123z"/>
			<path fill="#201614" d="M76.766,105.566c4.545,1.537,9.03,3.248,13.398,5.24c4.222,1.926,8.666,3.933,12.33,6.811
				c0.597,0.47,0.49,1.493,0,1.983c-0.59,0.591-1.387,0.472-1.986,0c-1.801-1.411-3.875-2.446-5.898-3.501
				c-1.929-1.005-3.883-1.968-5.862-2.865c-4.146-1.896-8.412-3.504-12.729-4.961C74.316,107.697,75.046,104.985,76.766,105.566
				L76.766,105.566L76.766,105.566z"/>
			<path fill="#201614" d="M93.366,193.123c-0.134-9.926-0.109-19.861,0.159-29.789c0.063-2.396,0.145-4.794,0.237-7.194
				c0.097-2.491,0.09-5.025,0.479-7.492c0.743-4.715,1.835-9.364,2.871-14.024c1.173-5.289,2.273-10.602,2.684-16.017
				c0.138-1.786,2.947-1.802,2.809,0c-0.736,9.671-3.555,18.976-5.268,28.484c-0.856,4.771-0.812,9.691-0.956,14.528
				c-0.146,4.923-0.231,9.849-0.267,14.774c-0.04,5.574-0.016,11.152,0.059,16.729C96.196,194.931,93.391,194.932,93.366,193.123
				L93.366,193.123L93.366,193.123z"/>
			<path fill="#FFFFFF" d="M53.223,117.989c-3.26-3.239-5.395-7.161-7.801-11.081c0.875-1.688,2.047-3.408,3.535-4.777
				c2.903,2.943,6.607,5.467,10.15,7.072c0.209,0.096,0.442,0.212,0.511,0.435c0.06,0.187-0.03,0.392-0.116,0.573
				c-0.133,0.269-1.01,1.374-2.1,2.708C55.975,114.668,54.182,116.807,53.223,117.989L53.223,117.989z"/>
			<path fill="#FFFFFF" d="M68.815,117.989c3.34-3.319,5.526-7.339,7.992-11.353c-0.897-1.729-2.097-3.494-3.623-4.897
				c-2.975,3.015-6.769,5.602-10.397,7.248c-0.215,0.097-0.455,0.217-0.524,0.442c-0.062,0.197,0.031,0.404,0.119,0.588
				c0.137,0.277,1.033,1.41,2.15,2.776C65.993,114.583,67.833,116.779,68.815,117.989L68.815,117.989z"/>
			<path fill="#201614" d="M52.23,118.981c-2.531-2.548-4.497-5.558-6.352-8.613c-0.46-0.757-0.915-1.515-1.376-2.271
				c-0.267-0.439-0.521-0.842-0.459-1.377c0.055-0.462,0.378-0.926,0.605-1.325c0.898-1.563,2.003-3.024,3.316-4.258
				c0.551-0.519,1.437-0.554,1.986,0c1.665,1.674,3.498,3.157,5.48,4.44c0.957,0.619,1.945,1.199,2.961,1.724
				c0.928,0.479,2.268,0.821,2.577,1.961c0.241,0.868-0.208,1.638-0.705,2.298c-0.653,0.868-1.344,1.708-2.031,2.547
				c-1.334,1.629-2.69,3.24-4.021,4.874C53.735,119.568,52.728,119.48,52.23,118.981c-0.583-0.582-0.48-1.395,0-1.987
				c1.109-1.363,2.238-2.707,3.357-4.066c0.63-0.76,1.257-1.529,1.874-2.301c0.179-0.229,0.362-0.456,0.531-0.687
				c0.066-0.088,0.141-0.232,0.221-0.31c0.123-0.121-0.014-0.201,0.002,0.007c0.062,0.235,0.129,0.47,0.191,0.704
				c0.205,0.172,0.202,0.196-0.007,0.074c-0.081-0.036-0.159-0.074-0.237-0.108c-0.238-0.113-0.477-0.225-0.713-0.342
				c-0.48-0.241-0.957-0.489-1.426-0.753c-0.97-0.539-1.91-1.122-2.824-1.751c-1.869-1.286-3.632-2.733-5.234-4.338
				c0.663,0,1.324,0,1.986,0c-1.381,1.296-2.439,2.821-3.318,4.494c0-0.474,0-0.945,0-1.421c2.304,3.76,4.449,7.65,7.58,10.797
				C55.491,118.278,53.506,120.268,52.23,118.981L52.23,118.981z"/>
			<path fill="#201614" d="M67.823,116.994c3.212-3.226,5.412-7.216,7.771-11.068c0,0.477,0,0.947,0,1.422
				c-0.901-1.715-1.986-3.281-3.402-4.616c0.661,0,1.323,0,1.984,0c-1.637,1.646-3.443,3.125-5.355,4.441
				c-0.935,0.642-1.9,1.243-2.893,1.794c-0.441,0.248-0.889,0.485-1.341,0.71c-0.241,0.122-0.483,0.24-0.729,0.356
				c-0.12,0.055-0.241,0.112-0.362,0.166c-0.212,0.124-0.22,0.104-0.022-0.062c0.064-0.233,0.129-0.471,0.193-0.707
				c0.01-0.159-0.136-0.127,0.006,0.012c0.072,0.068,0.123,0.175,0.182,0.262c0.188,0.26,0.393,0.514,0.594,0.768
				c0.633,0.79,1.274,1.577,1.921,2.357c1.146,1.392,2.304,2.771,3.438,4.166c0.479,0.589,0.576,1.414,0,1.987
				c-0.493,0.493-1.504,0.59-1.984,0c-1.335-1.64-2.695-3.259-4.035-4.892c-0.711-0.868-1.421-1.737-2.102-2.629
				c-0.525-0.691-1.03-1.484-0.777-2.404c0.309-1.121,1.593-1.459,2.505-1.924c1.041-0.533,2.054-1.119,3.034-1.753
				c2.079-1.335,4-2.882,5.744-4.632c0.549-0.549,1.432-0.521,1.984,0c1.311,1.23,2.419,2.683,3.322,4.234
				c0.232,0.395,0.541,0.838,0.663,1.278c0.166,0.608-0.145,1.087-0.443,1.574c-0.472,0.776-0.938,1.552-1.407,2.328
				c-1.9,3.129-3.91,6.212-6.504,8.818C68.532,120.264,66.545,118.278,67.823,116.994L67.823,116.994z"/>
			<path fill="#201614" d="M46.363,108.273c-4.318,1.457-8.583,3.064-12.729,4.961c-1.981,0.897-3.935,1.86-5.864,2.865
				c-2.024,1.055-4.098,2.09-5.898,3.501c-0.596,0.468-1.404,0.581-1.984,0c-0.488-0.486-0.602-1.514,0-1.983
				c3.663-2.878,8.107-4.882,12.328-6.811c4.367-1.993,8.854-3.703,13.398-5.24C47.33,104.985,48.067,107.697,46.363,108.273
				L46.363,108.273L46.363,108.273z"/>
			<path fill="#201614" d="M53.74,87.438c-0.262,0.203-0.494,0.436-0.698,0.698c0.075-0.097,0.146-0.19,0.22-0.283
				c-0.216,0.281-0.396,0.587-0.533,0.917c0.046-0.113,0.093-0.226,0.14-0.336c-0.079,0.192-0.146,0.396-0.195,0.604
				c-0.082,0.335-0.35,0.666-0.646,0.839c-0.3,0.174-0.744,0.252-1.08,0.14c-0.34-0.108-0.667-0.318-0.839-0.644
				c-0.18-0.341-0.232-0.705-0.142-1.08c0.082-0.336,0.211-0.643,0.344-0.959c0.09-0.214,0.198-0.414,0.324-0.61
				c0.305-0.476,0.676-0.922,1.123-1.274c0.127-0.136,0.275-0.232,0.45-0.29c0.167-0.088,0.348-0.13,0.54-0.121
				c0.346,0,0.757,0.154,0.993,0.411c0.246,0.268,0.427,0.621,0.411,0.993c-0.017,0.122-0.032,0.25-0.049,0.376
				C54.035,87.055,53.914,87.263,53.74,87.438L53.74,87.438L53.74,87.438z"/>
			<path fill="#201614" d="M66.329,90.697c-1.373,1.347-3.529,1.753-5.376,1.753c-1.848-0.003-4.005-0.406-5.379-1.753
				c-0.525-0.514-0.554-1.474,0-1.98c0.565-0.521,1.425-0.553,1.985,0c0.054,0.053,0.307,0.256,0.094,0.092
				c-0.217-0.167,0.113,0.074,0.185,0.115c0.114,0.07,0.233,0.136,0.352,0.195c0.079,0.042,0.161,0.077,0.244,0.113
				c-0.147-0.068-0.204-0.076-0.02-0.012c0.382,0.133,0.767,0.242,1.166,0.319c0.017,0.003,0.436,0.067,0.159,0.03
				c0.117,0.017,0.237,0.028,0.357,0.037c0.285,0.025,0.57,0.035,0.856,0.035c0.263,0,0.521-0.01,0.782-0.026
				c0.145-0.014,0.29-0.027,0.432-0.046c-0.2,0.025,0.005-0.005,0.096-0.019c0.401-0.074,0.799-0.173,1.183-0.315
				c0.073-0.024,0.372-0.174,0.028-0.004c0.066-0.032,0.137-0.064,0.203-0.096c0.133-0.067,0.264-0.133,0.389-0.213
				c0.087-0.051,0.188-0.152,0.281-0.188c-0.251,0.092-0.234,0.201-0.108,0.077c0.036-0.036,0.072-0.065,0.106-0.096
				c0.525-0.518,1.468-0.566,1.984,0C66.839,89.27,66.889,90.149,66.329,90.697L66.329,90.697L66.329,90.697z"/>
			<path fill="#201614" d="M61.683,80.453c-0.195,0.74-0.382,1.494-0.494,2.254c0.017-0.123,0.034-0.246,0.05-0.37
				c-0.014,0.103-0.02,0.203-0.007,0.31c-0.017-0.123-0.036-0.25-0.051-0.373c0.006,0.047,0.017,0.09,0.034,0.141
				c-0.048-0.111-0.095-0.226-0.142-0.338c0.012,0.033,0.03,0.062,0.048,0.092c-0.071-0.095-0.146-0.188-0.22-0.282
				c0.026,0.026,0.046,0.049,0.074,0.073c-0.094-0.073-0.188-0.149-0.283-0.224c0.058,0.038,0.117,0.067,0.179,0.099
				c-0.112-0.05-0.225-0.099-0.335-0.145c0.097,0.043,0.194,0.074,0.301,0.09c-0.124-0.016-0.249-0.037-0.372-0.049
				c0.094,0.007,0.188,0.007,0.282,0c-0.126,0.012-0.249,0.033-0.373,0.049c0.106-0.014,0.211-0.044,0.318-0.055
				c0.187-0.059,0.373-0.066,0.56-0.025c0.186,0.007,0.36,0.064,0.521,0.164c0.293,0.172,0.568,0.506,0.646,0.839
				c0.081,0.36,0.063,0.764-0.143,1.083c-0.182,0.282-0.487,0.596-0.84,0.646c-0.264,0.036-0.521,0.102-0.791,0.112
				c-0.424,0.021-0.814-0.112-1.191-0.286c-0.473-0.22-0.844-0.655-0.969-1.163c-0.107-0.436-0.062-0.793,0.009-1.227
				c0.124-0.727,0.294-1.452,0.479-2.162c0.09-0.34,0.346-0.665,0.645-0.841c0.302-0.176,0.744-0.251,1.083-0.143
				C61.433,78.959,61.881,79.688,61.683,80.453L61.683,80.453L61.683,80.453z"/>
			<path fill="#201614" d="M73.385,73.992c0.377,1.221,0.131,4.043-2.192,4.283c-3.067-0.021-3.229-3.428-2.197-5.03
				C69.842,71.933,72.329,71.391,73.385,73.992L73.385,73.992z"/>
			<path fill="#201614" d="M48.813,73.992c-0.377,1.221-0.131,4.043,2.189,4.283c3.068-0.021,3.232-3.428,2.199-5.03
				C52.356,71.933,49.87,71.391,48.813,73.992L48.813,73.992z"/>
			<g>
				<path fill="#FFFFFF" d="M142.566,120.232c-0.396-0.134-6.871-3.163-7.006-3.211c-2.049-0.74-1.967-2.057-2.225-3.527
					c-0.213-1.211-0.359-2.289-0.424-3.537c2.529-1.189,4.861-3.143,6.906-5.586c2.281-2.731,3.525-5.786,4.234-8.425
					c0.156,0.036,0.24,0.057,0.24,0.057c1.275,0.321,2.279-0.321,2.99-0.888c0.924-0.748,1.586-1.732,2.1-2.76
					c1.047-2.104,1.502-4.463,1.303-6.773c-0.057-0.587-0.15-1.188-0.447-1.718c-0.418-0.753-1.252-1.302-2.168-1.442
					c-0.961-0.141-1.99,0.184-2.652,0.841c-0.617-1.201-1.906-3.709-1.906-3.709c-0.195-1.646-0.162-0.798-0.723-2.36
					c-0.559-1.559-1.52-3.032-2.939-3.897c-1.727-1.047-3.879-1.074-5.758-1.812c-0.682-0.264-1.406-0.545-2.113-0.863
					c-1.234,0.201-2.26,0.321-2.26,0.321c-3.139-0.115-5.471-0.474-8.439-1.511c-2.964-1.039-5.763-1.949-6.91-4.873l-4.216,1.879
					c-4.394,4.44-5.678,7.453-6.228,13.711c0,0-0.846,2.075-1.249,3.064c-0.659-0.624-1.663-0.927-2.599-0.791
					c-0.915,0.141-1.752,0.689-2.168,1.442c-0.297,0.53-0.394,1.131-0.449,1.718c-0.198,2.311,0.258,4.67,1.305,6.773
					c0.511,1.027,1.176,2.012,2.102,2.76c0.694,0.553,1.91,0.553,2.83,0.687c0.221,0.952,0.52,1.779,0.653,2.184
					c0.729,1.985,4.84,9.046,9.993,11.575c-0.053,1.319-0.205,2.624-0.432,3.934c-0.26,1.471-0.18,2.787-2.227,3.527
					c-0.136,0.048-5.942,2.812-6.15,2.895c0,0-0.178,0.076-0.438,0.183c2.93,6.053,12.857,10.133,19.271,10.106
					c6.863-0.018,15.012-5.304,18.934-10.078"/>
				<path fill="#C3C3C3" d="M150.055,69.955c-0.705-5.958-3.078-10.022-5.322-11.939c-1.65-1.408-3.574-2.448-5.484-3.471
					c-2.027-1.093-4.055-2.186-6.084-3.274c-1.385-0.745-2.775-1.492-4.252-2.023c-3.471-1.243-8.624-0.245-12.613,1.764
					c-1.049,0.529-2.019,1.126-2.856,1.772c0,0-0.447,0.348-0.896,0.693c-1.581,0.436-3.163,0.869-3.163,0.869
					c-1.759,0.482-3.731,2.018-5.033,3.295c-5.243,5.16-7.704,15.518-5.575,24.621c0,0,0.051,0.216,0.135,0.584
					c0.352-0.211,0.754-0.359,1.168-0.424c0.936-0.136,1.939,0.167,2.599,0.791c0.403-0.989,1.249-3.064,1.249-3.064
					c0.55-6.258,1.834-9.271,6.228-13.711l4.216-1.879c1.146,2.924,3.945,3.834,6.91,4.873c2.969,1.037,5.301,1.396,8.439,1.511
					c0,0,1.025-0.12,2.26-0.321c0.707,0.318,1.432,0.6,2.113,0.863c1.879,0.737,4.031,0.765,5.758,1.812
					c1.42,0.865,2.381,2.339,2.939,3.897c0.561,1.562,0.527,0.715,0.723,2.36c0,0,1.289,2.508,1.906,3.709
					c0.662-0.657,1.691-0.981,2.652-0.841c0.385,0.06,0.758,0.191,1.086,0.381c1.438-4.258,1.285-8.363,1.012-11.734
					C150.137,70.688,150.1,70.316,150.055,69.955L150.055,69.955z"/>
				<path fill="#201614" d="M147.805,82.427c1.348-4.109,1.4-8.599,0.799-12.86c-0.463-3.257-1.518-6.709-3.633-9.293
					c-1.09-1.334-2.518-2.297-3.99-3.165c-1.988-1.172-4.057-2.224-6.088-3.315c-2.027-1.09-4.043-2.35-6.207-3.139
					c-1.436-0.524-2.932-0.636-4.449-0.555c-3.379,0.178-7.319,1.258-9.8,3.677c-1.294,1.265-3.281-0.718-1.985-1.987
					c2.656-2.586,6.511-3.859,10.12-4.336c1.785-0.236,3.588-0.259,5.365,0.077c2.111,0.404,4.064,1.521,5.939,2.529
					c2.393,1.282,4.791,2.552,7.172,3.862c1.857,1.02,3.764,2.127,5.264,3.648c2.498,2.533,3.945,6.072,4.682,9.496
					c1.119,5.199,1.184,11.033-0.479,16.109C149.951,84.884,147.24,84.154,147.805,82.427L147.805,82.427L147.805,82.427z"/>
				<path fill="#201614" d="M109.792,56.001c-4.703,1.035-7.607,6.205-8.968,10.411c-1.61,4.968-1.856,10.385-0.694,15.474
					c0.401,1.759-2.305,2.511-2.706,0.746c-1.31-5.726-1.062-11.896,0.858-17.462c0.871-2.521,2.076-4.902,3.73-7.005
					c1.738-2.214,4.232-4.251,7.031-4.87C110.805,52.91,111.558,55.614,109.792,56.001L109.792,56.001L109.792,56.001z"/>
				<path fill="#201614" d="M111.147,67.434c-3.319,3.186-5.356,7.318-5.801,11.908c-0.074,0.754-0.594,1.402-1.404,1.402
					c-0.703,0-1.479-0.645-1.404-1.402c0.518-5.338,2.743-10.167,6.623-13.897C110.463,64.195,112.452,66.177,111.147,67.434
					L111.147,67.434L111.147,67.434z"/>
				<path fill="#201614" d="M115.723,64.186c0.896,2.17,3.359,2.99,5.39,3.705c2.828,0.992,5.613,1.531,8.605,1.645
					c1.803,0.07,1.812,2.883,0,2.811c-3.479-0.134-6.721-0.799-9.991-1.977c-1.345-0.484-2.721-1.012-3.894-1.847
					c-1.311-0.937-2.206-2.11-2.819-3.589c-0.288-0.703,0.315-1.546,0.981-1.729C114.803,62.984,115.432,63.48,115.723,64.186
					L115.723,64.186L115.723,64.186z"/>
				<path fill="#201614" d="M125.904,62.146c0.941,2.036,2.236,3.932,3.895,5.452c1.627,1.488,3.928,2.426,6.045,2.964
					c2.264,0.575,4.521,0.952,6.207,2.727c1.518,1.594,2.33,3.782,2.812,5.894c0.4,1.76-2.307,2.51-2.707,0.747
					c-0.428-1.879-1.104-4.041-2.727-5.233c-0.852-0.624-1.906-0.865-2.916-1.101c-1.137-0.263-2.238-0.53-3.326-0.962
					c-2.148-0.849-4.127-1.801-5.783-3.444c-1.621-1.606-2.967-3.559-3.926-5.624c-0.318-0.688-0.193-1.516,0.504-1.92
					C124.588,61.289,125.582,61.454,125.904,62.146L125.904,62.146L125.904,62.146z"/>
				<path fill="#201614" d="M101.644,84.166c-0.749-0.629-2.086-0.45-2.544,0.444c-0.305,0.595-0.279,1.405-0.279,2.049
					c0.002,0.8,0.081,1.585,0.254,2.368c0.318,1.443,0.881,2.93,1.799,4.102c0.338,0.435,0.727,0.897,1.258,1.04
					c0.652,0.169,1.34,0.193,2.004,0.286c0.751,0.105,1.163,1.065,0.979,1.729c-0.222,0.805-0.971,1.084-1.726,0.979
					c-0.9-0.128-1.9-0.16-2.778-0.575c-0.955-0.448-1.693-1.369-2.287-2.213c-1.261-1.799-1.948-3.997-2.211-6.157
					c-0.248-2.017-0.239-4.6,1.399-6.066c1.772-1.582,4.339-1.458,6.116,0.028c0.583,0.486,0.503,1.483,0,1.986
					C103.051,84.743,102.225,84.651,101.644,84.166L101.644,84.166L101.644,84.166z"/>
				<path fill="#201614" d="M104.808,93.779c0.046,1.12,0.356,2.196,0.704,3.256c0.09,0.271,0.178,0.54,0.279,0.803
					c-0.149-0.387,0.157,0.318,0.213,0.432c0.674,1.353,1.488,2.642,2.367,3.87c2.047,2.862,4.83,5.964,8.391,6.802
					c1.759,0.414,1.016,3.12-0.744,2.706c-4.238-0.994-7.501-4.536-9.954-7.928c-2.119-2.927-3.913-6.246-4.062-9.94
					C101.929,91.976,104.737,91.979,104.808,93.779L104.808,93.779L104.808,93.779z"/>
				<path fill="#201614" d="M144.521,82.18c1.771-1.484,4.348-1.612,6.117-0.028c1.736,1.562,1.641,4.321,1.35,6.438
					c-0.531,3.835-3.277,9.762-8.068,8.77c-0.742-0.155-1.172-1.03-0.98-1.729c0.213-0.769,0.982-1.134,1.727-0.979
					c1.102,0.227,2.162-0.89,2.736-1.694c0.877-1.229,1.426-2.692,1.723-4.166c0.15-0.739,0.207-1.493,0.203-2.248
					c-0.008-0.607,0.016-1.376-0.279-1.932c-0.469-0.885-1.787-1.079-2.543-0.444c-0.582,0.485-1.416,0.569-1.984,0
					C144.021,83.666,143.938,82.668,144.521,82.18L144.521,82.18L144.521,82.18z"/>
				<path fill="#201614" d="M146.344,91.178c-0.543,4.444-1.701,8.846-4.297,12.57c-2.924,4.188-7.373,7.924-12.555,8.715
					c-0.748,0.113-1.51-0.187-1.727-0.978c-0.184-0.667,0.225-1.612,0.98-1.729c4.562-0.695,8.512-3.919,11.045-7.672
					c2.186-3.239,3.295-7.214,3.748-10.906c0.09-0.755,0.578-1.406,1.402-1.406C145.629,89.771,146.439,90.417,146.344,91.178
					L146.344,91.178L146.344,91.178z"/>
				<path fill="#201614" d="M134.336,110.295c0.064,0.929,0.18,1.816,0.336,2.729c0.098,0.566,0.148,1.148,0.303,1.702
					c0.033,0.119,0.203,0.434,0.033,0.146c0.062,0.102,0.117,0.208,0.178,0.313c0.088,0.155-0.178-0.139-0.029-0.031
					c0.043,0.028,0.08,0.085,0.117,0.121c0.053,0.051,0.111,0.108,0.172,0.155c-0.164-0.131-0.014-0.017,0.076,0.033
					c0.301,0.168,0.557,0.26,0.938,0.433c1.623,0.738,3.234,1.498,4.854,2.243c0.418,0.192,0.836,0.389,1.256,0.572
					c0.15,0.07,0.301,0.138,0.449,0.203c0.312,0.141-0.359-0.136-0.078-0.034c0.713,0.255,1.191,0.956,0.98,1.724
					c-0.189,0.692-1.012,1.241-1.729,0.982c-0.67-0.237-1.318-0.572-1.965-0.869c-0.996-0.456-1.988-0.916-2.982-1.377
					c-0.734-0.344-1.469-0.682-2.203-1.021c-0.059-0.024-0.121-0.051-0.178-0.079c-0.01-0.005,0.516,0.206,0.246,0.106
					c-0.133-0.048-0.262-0.104-0.389-0.159c-0.232-0.1-0.459-0.2-0.674-0.336c-0.77-0.482-1.312-1.151-1.645-1.992
					c-0.238-0.604-0.297-1.246-0.402-1.88c-0.201-1.224-0.387-2.442-0.471-3.684c-0.053-0.756,0.682-1.402,1.404-1.402
					C133.736,108.893,134.285,109.539,134.336,110.295L134.336,110.295L134.336,110.295z"/>
				<path fill="#201614" d="M115.739,109.754c-0.09,1.77-0.326,3.55-0.663,5.287c-0.312,1.617-1.354,2.678-2.858,3.275
					c-0.456,0.178,0.383-0.186,0.061-0.031c-0.108,0.053-0.22,0.102-0.327,0.152c-0.343,0.158-0.686,0.322-1.025,0.482
					c-0.926,0.439-1.854,0.877-2.778,1.316c-0.633,0.301-1.258,0.619-1.901,0.893c-0.698,0.298-1.507,0.209-1.922-0.503
					c-0.344-0.59-0.198-1.621,0.503-1.922c1.365-0.579,2.691-1.268,4.032-1.899c0.651-0.309,1.3-0.623,1.954-0.92
					c0.405-0.187,0.635-0.271,0.984-0.467c0.014-0.005,0.188-0.135,0.069-0.039c-0.128,0.1,0.059-0.061,0.089-0.088
					c0.041-0.039,0.077-0.082,0.117-0.123c-0.037,0.039-0.145,0.239-0.018,0.025c0.052-0.088,0.1-0.189,0.158-0.274
					c-0.139,0.194-0.054,0.155-0.021,0.044c0.021-0.066,0.047-0.131,0.065-0.196c0.186-0.631,0.242-1.298,0.349-1.941
					c0.168-1.018,0.272-2.039,0.328-3.071c0.039-0.757,0.615-1.402,1.402-1.402C115.067,108.352,115.78,108.992,115.739,109.754
					L115.739,109.754L115.739,109.754z"/>
				<path fill="#FFE673" d="M95.717,193.335c-0.18-0.215-5.162-6.582-5.31-6.792c-2.868-3.923-5.963-8.469-7.377-10.901
					c-3.017-5.216-1.791-11.665-1.226-17.527c0.028-0.271,0.055-0.534,0.08-0.795c0.015-0.155,0.028-0.308,0.047-0.466
					c0.748-7.35,1.737-12.418,3.38-19.848c0.054-0.251,0.107-0.507,0.162-0.761c0.06-0.249,0.12-0.506,0.174-0.76l-0.001-0.005
					c0.678-2.744,1.787-5.378,4.248-8.045c3.58-3.871,14.749-8.664,19.57-10.021c0.087,0.316,0.144,0.51,0.144,0.51
					c0.192,2.563,2.356,17.129,2.938,33.887c0.732,21.032,1.506,39.686,1.479,39.006c0,0-0.026,0.187-0.063,0.46
					c0.146,0.172,0.291,0.342,0.436,0.514l1.048,1.543L95.717,193.335L95.717,193.335z"/>
				<path fill="#FFE673" d="M151.314,193.335c1.023-1.226,2.025-2.476,3.002-3.729v-0.005c0.801-1.025,1.568-2.046,2.307-3.059
					c2.869-3.923,5.959-8.469,7.373-10.901c3.021-5.216,1.789-11.665,1.232-17.527c-0.043-0.413-0.084-0.81-0.123-1.206
					c-0.707-6.925-1.609-11.765-3.074-18.494c-0.189-0.863-0.385-1.753-0.594-2.686c-0.014-0.055-0.02-0.103-0.033-0.158l0,0
					c-0.785-2.892-2.061-5.787-4.229-8.135c-3.721-4.027-14.926-8.758-18.873-9.868c-0.363,0.854-0.613,1.429-0.613,1.429
					c-1.18,5.016-3.119,25.492-3.373,30.424c-0.639,12.436-0.207,33.961-0.174,40.713c-0.314,0.396-2.225,2.465-2.84,3.201
					L151.314,193.335L151.314,193.335z"/>
				<path fill="#FFFFFF" d="M131.303,193.334c1.096-1.095,2.191-2.492,3.186-3.674c-0.035-1.004-0.062-1.633-0.062-1.633
					c0-5.857-0.773-25.722-0.105-38.611c0.006-0.106,0.012-0.219,0.02-0.348c0.006-0.085,0.006-0.169,0.012-0.264
					c0.008-0.061,0.008-0.123,0.014-0.181c0-0.028,0-0.062,0.008-0.097c0-0.02,0-0.037,0.006-0.059
					c0.014-0.276,0.035-0.58,0.062-0.902c0.02-0.33,0.047-0.687,0.078-1.064c0.021-0.256,0.041-0.524,0.061-0.801
					c0.049-0.598,0.102-1.238,0.162-1.91c0.029-0.33,0.061-0.666,0.088-1.01c0.074-0.821,0.146-1.682,0.236-2.578
					c0.014-0.149,0.025-0.29,0.039-0.438c0.016-0.142,0.027-0.292,0.041-0.438c0.027-0.291,0.055-0.576,0.088-0.868
					c0.027-0.311,0.055-0.627,0.088-0.938c0.045-0.498,0.094-0.992,0.146-1.499c0.021-0.193,0.041-0.396,0.062-0.591
					c0.121-1.15,0.242-2.311,0.361-3.447c0.008-0.047,0.016-0.093,0.016-0.136c0.031-0.259,0.059-0.524,0.086-0.778
					c0.074-0.615,0.143-1.212,0.209-1.806c0.01-0.107,0.021-0.208,0.035-0.308c0.082-0.676,0.16-1.328,0.234-1.959
					c0.049-0.391,0.096-0.774,0.141-1.146c0.008-0.059,0.014-0.113,0.021-0.166c0.066-0.485,0.127-0.951,0.188-1.402
					c0.008-0.085,0.021-0.183,0.033-0.268h-0.004c-3.898,1.459-8.645,2.529-13.199,2.539c-1.072,0.006-2.197-0.062-3.354-0.19
					c-0.564-0.054-1.129-0.13-1.702-0.213c-0.283-0.051-0.573-0.097-0.867-0.145c-0.574-0.1-1.147-0.208-1.711-0.329h-0.007
					c-0.572-0.121-1.139-0.25-1.689-0.396c-0.007,0.007-0.007,0-0.007,0c-0.523-0.131-1.03-0.276-1.535-0.426
					c-0.854-0.248-1.682-0.515-2.461-0.801v0.008c0.032,0.302,0.072,0.607,0.105,0.916c0.021,0.154,0.035,0.31,0.054,0.47
					c0.02,0.157,0.034,0.316,0.054,0.485c0.006,0.065,0.021,0.134,0.021,0.206c0,0,0.007,0,0.007,0.012
					c0.006,0.058,0.014,0.117,0.021,0.184c0.019,0.148,0.032,0.303,0.054,0.468c0.006,0.079,0.014,0.161,0.026,0.242
					c0.012,0.101,0.02,0.209,0.034,0.316c0.006,0.026,0.006,0.047,0.006,0.073c0.007,0.025,0.007,0.053,0.013,0.088
					c0.008,0.087,0.021,0.18,0.027,0.276c0,0.012,0.008,0.028,0.008,0.039c0.019,0.18,0.038,0.372,0.06,0.558
					c0.194,1.832,0.403,3.847,0.604,6.005c0.035,0.433,0.076,0.867,0.115,1.306c0.015,0.128,0.026,0.256,0.034,0.392
					c0.055,0.592,0.108,1.196,0.154,1.811c0.055,0.604,0.101,1.225,0.15,1.857c0,0.013,0,0.027,0.003,0.046
					c0.009,0.157,0.023,0.318,0.028,0.472c0.013,0.143,0.027,0.289,0.034,0.434c0.041,0.454,0.076,0.928,0.101,1.396
					c0.013,0.178,0.028,0.358,0.04,0.533c0.034,0.499,0.068,1.002,0.097,1.509c0.02,0.296,0.04,0.59,0.054,0.888
					c0.031,0.464,0.061,0.936,0.08,1.407c0.1,1.748,0.182,3.546,0.24,5.362c0.089,2.577,0.184,5.116,0.271,7.589
					c0.019,0.463,0.039,0.92,0.053,1.379c0.08,2.135,0.162,4.205,0.236,6.2c0.02,0.422,0.033,0.849,0.047,1.261
					c0.033,0.859,0.066,1.699,0.1,2.52c0.021,0.41,0.034,0.822,0.047,1.219c0.108,2.751,0.215,5.283,0.312,7.531
					c0.012,0.305,0.025,0.607,0.033,0.897c0.031,0.714,0.061,1.391,0.086,2.04c0.007,0.166,0.014,0.327,0.02,0.487
					c0.068,1.53,0.326,7.432,0.326,7.432c-0.016,0.155-0.109,1.126-0.231,2.459c-0.02,0.159-0.032,0.336-0.046,0.51L131.303,193.334
					L131.303,193.334z"/>
				<path fill="#201614" d="M111.012,117.925c0.243,3.12,0.732,6.228,1.076,9.335c0.66,5.966,1.196,11.942,1.552,17.934
					c0.742,12.594,0.978,25.232,1.476,37.838c0.103,2.604,0.206,5.202,0.312,7.804c0.075,1.806-2.73,1.804-2.807,0v-0.012
					c-0.074-1.812,2.732-1.81,2.807-0.006v0.013c-0.934,0.005-1.869,0.005-2.807,0.005c-0.295-7.315-0.584-14.633-0.86-21.95
					c-0.497-13.266-0.868-26.505-2.272-39.713c-0.396-3.744-0.991-7.487-1.283-11.247
					C108.065,116.127,110.873,116.135,111.012,117.925L111.012,117.925L111.012,117.925z"/>
				<path fill="#201614" d="M139.045,119.371c-0.867,3.724-1.178,7.516-1.602,11.313c-0.537,4.778-1.006,9.565-1.406,14.359
					c-0.846,10.187-0.711,20.448-0.629,30.661c0.039,4.711,0.137,9.428,0.139,14.141c0.002,1.807-2.807,1.811-2.807,0
					c-0.006-10.043-0.26-20.086-0.127-30.131c0.123-9.193,0.857-18.287,1.846-27.424c0.49-4.536,0.842-9.213,1.879-13.667
					C136.746,116.863,139.453,117.61,139.045,119.371L139.045,119.371L139.045,119.371z"/>
				<g>
					<path fill="#201614" d="M137.699,115.992c1.229,0.183,2.439,0.67,3.596,1.102c1.988,0.736,3.947,1.566,5.875,2.458
						c3.744,1.729,7.859,3.69,10.791,6.673c2.412,2.459,3.889,5.689,4.797,8.971c0.482,1.744-2.225,2.488-2.709,0.748
						c-0.754-2.731-1.912-5.415-3.867-7.516c-1.174-1.261-2.635-2.23-4.1-3.126c-3.504-2.142-7.283-3.892-11.121-5.347
						c-1.283-0.489-2.637-1.051-4.006-1.254c-0.75-0.111-1.164-1.062-0.982-1.73C136.195,116.17,136.949,115.881,137.699,115.992
						L137.699,115.992L137.699,115.992z"/>
					<path fill="#201614" d="M99.601,168.451c5.034,8.227,10.471,16.148,16.739,23.491c1.166,1.366-0.812,3.366-1.986,1.987
						c-6.421-7.527-12.02-15.633-17.176-24.062C96.231,168.321,98.659,166.909,99.601,168.451L99.601,168.451L99.601,168.451z"/>
					<path fill="#201614" d="M94.726,194.329c-3.856-4.675-7.466-9.586-10.806-14.638c-1.163-1.765-2.358-3.535-3.123-5.521
						c-0.892-2.319-1.146-4.876-1.125-7.345c0.023-2.48,0.331-4.944,0.594-7.408c0.274-2.551,0.521-5.104,0.866-7.648
						c0.757-5.61,1.954-11.131,3.162-16.656c0.386-1.768,3.093-1.021,2.708,0.742c-1.039,4.757-2.096,9.509-2.829,14.323
						c-0.727,4.763-1.284,9.614-1.604,14.421c-0.158,2.394-0.174,4.842,0.418,7.183c0.503,1.989,1.536,3.678,2.635,5.381
						c1.276,1.982,2.611,3.927,3.972,5.851c0.671,0.949,1.358,1.89,2.035,2.832c0.062,0.09,0.278,0.363-0.003,0
						c0.147,0.19,0.292,0.379,0.44,0.568c1.54,1.977,3.048,3.992,4.645,5.93C97.852,193.727,95.875,195.724,94.726,194.329
						L94.726,194.329L94.726,194.329z"/>
					<path fill="#201614" d="M150.32,192.344c1.025-1.227,2.02-2.472,3.002-3.732c-0.137,0.336-0.271,0.666-0.41,0.995
						c0-0.837,0.893-1.618,1.369-2.249c0.633-0.836,1.254-1.684,1.867-2.535c1.16-1.609,2.299-3.232,3.41-4.872
						c1.846-2.722,3.906-5.46,4.615-8.726c0.781-3.621,0.256-7.438-0.141-11.071c-0.414-3.836-0.787-7.667-1.414-11.476
						c-0.705-4.276-1.65-8.498-2.57-12.732c-0.383-1.76,2.324-2.514,2.709-0.748c0.836,3.854,1.697,7.699,2.375,11.586
						c0.686,3.948,1.15,7.924,1.553,11.906c0.381,3.762,0.963,7.562,0.506,11.342c-0.234,1.935-0.709,3.787-1.57,5.54
						c-0.664,1.36-1.537,2.63-2.365,3.889c-2.502,3.811-5.145,7.538-7.947,11.133c0.137-0.331,0.275-0.661,0.41-0.991
						c0,0.847-0.963,1.705-1.465,2.338c-0.643,0.802-1.291,1.599-1.947,2.39C151.148,195.719,149.174,193.723,150.32,192.344
						L150.32,192.344L150.32,192.344z"/>
					<path fill="#201614" d="M149.025,171.315c-4.248,6.043-8.406,12.148-12.846,18.057c-1.262,1.677-2.541,3.347-3.887,4.957
						c-1.158,1.388-3.135-0.606-1.984-1.985c4.947-5.932,9.293-12.391,13.699-18.727c0.863-1.241,1.725-2.483,2.594-3.717
						C147.633,168.432,150.066,169.834,149.025,171.315L149.025,171.315L149.025,171.315z"/>
				</g>
				<path fill="#201614" d="M111.132,118.46c-0.168,0.017,0.343-0.08-0.026,0.009c-0.111,0.021-0.224,0.041-0.334,0.064
					c-0.309,0.064-0.613,0.146-0.918,0.233c-0.743,0.206-1.479,0.449-2.209,0.704c-1.906,0.667-3.778,1.422-5.621,2.246
					c-2.096,0.944-4.165,1.959-6.16,3.105c-1.572,0.899-3.147,1.861-4.46,3.088c-2.274,2.137-3.65,4.957-4.403,7.945
					c-0.439,1.753-3.147,1.008-2.707-0.744c0.777-3.093,2.165-5.889,4.273-8.295c1.347-1.535,3.064-2.718,4.799-3.777
					c3.996-2.451,8.368-4.398,12.77-6.004c1.611-0.585,3.277-1.199,4.997-1.383c0.755-0.082,1.404,0.703,1.404,1.402
					C112.537,117.882,111.89,118.377,111.132,118.46L111.132,118.46L111.132,118.46z"/>
				<path fill="#201614" d="M150.738,142.883c0.156,5.177-0.227,10.247-1.141,15.346c-0.322,1.792-0.459,3.504-0.506,5.53
					c-0.053,2.234-0.045,4.472,0.051,6.704c0.08,1.803-2.727,1.8-2.805,0c-0.182-4.122-0.283-8.396,0.459-12.47
					c0.918-5.022,1.287-10.006,1.137-15.11C147.879,141.074,150.686,141.074,150.738,142.883L150.738,142.883L150.738,142.883z"/>
				<path fill="#201614" d="M99.007,142.883c-0.188,4.892,0.344,9.646,1.071,14.468c0.646,4.288,0.592,8.64,0.594,12.966
					c0,1.806-2.805,1.812-2.807,0c-0.002-4.222,0.066-8.543-0.562-12.659c-0.748-4.921-1.296-9.786-1.105-14.774
					C96.266,141.081,99.076,141.072,99.007,142.883L99.007,142.883L99.007,142.883z"/>
				<path fill="#201614" d="M137.229,125.371c-4.439,1.646-9.24,2.647-13.99,2.582c-4.5-0.058-9.071-1.026-13.3-2.534
					c-1.691-0.601-0.964-3.315,0.745-2.705c4.004,1.426,8.292,2.376,12.555,2.437c4.518,0.061,9.023-0.922,13.246-2.484
					C138.182,122.033,138.914,124.747,137.229,125.371L137.229,125.371L137.229,125.371z"/>
				<path fill="#201614" d="M116.351,97.607c-0.213,0.168-0.407,0.362-0.575,0.577c0.074-0.094,0.146-0.192,0.221-0.284
					c-0.179,0.232-0.326,0.483-0.44,0.754c0.048-0.112,0.094-0.223,0.142-0.334c-0.066,0.158-0.122,0.327-0.162,0.496
					c-0.043,0.183-0.128,0.344-0.252,0.479c-0.1,0.152-0.228,0.271-0.394,0.363c-0.159,0.102-0.335,0.157-0.522,0.167
					c-0.185,0.039-0.373,0.031-0.559-0.029c-0.34-0.11-0.667-0.319-0.838-0.643c-0.18-0.343-0.235-0.702-0.143-1.084
					c0.071-0.294,0.188-0.567,0.309-0.846c0.075-0.177,0.162-0.343,0.267-0.503c0.157-0.247,0.342-0.486,0.536-0.701
					c0.131-0.148,0.271-0.275,0.426-0.397c0.129-0.14,0.278-0.234,0.453-0.29c0.166-0.087,0.348-0.13,0.541-0.121
					c0.193-0.009,0.373,0.034,0.541,0.121c0.173,0.056,0.324,0.15,0.45,0.29c0.245,0.267,0.428,0.617,0.411,0.992
					c-0.018,0.125-0.033,0.249-0.05,0.37C116.646,97.225,116.527,97.432,116.351,97.607L116.351,97.607L116.351,97.607z"/>
				<path fill="#201614" d="M128.547,100.854c-1.291,1.262-3.307,1.648-5.041,1.647c-1.736-0.001-3.752-0.386-5.044-1.647
					c-0.525-0.516-0.553-1.477,0-1.986c0.567-0.517,1.426-0.547,1.987,0c0.053,0.057,0.294,0.25,0.076,0.079
					c-0.227-0.173,0.09,0.059,0.16,0.101c0.104,0.062,0.212,0.125,0.321,0.178c0.047,0.026,0.195,0.07,0.227,0.107
					c-0.07-0.079-0.275-0.107-0.043-0.024c0.354,0.124,0.707,0.228,1.076,0.296c0.035,0.007,0.432,0.062,0.119,0.025
					c0.107,0.015,0.221,0.024,0.33,0.033c0.262,0.021,0.527,0.031,0.791,0.032c0.24,0,0.482-0.009,0.723-0.028
					c0.133-0.007,0.266-0.02,0.398-0.037c-0.201,0.025-0.061,0.005,0.059-0.017c0.371-0.063,0.738-0.161,1.092-0.288
					c0.043-0.017,0.086-0.033,0.129-0.051c0.102-0.038,0.059-0.019-0.127,0.059c0.039-0.042,0.135-0.062,0.186-0.088
					c0.123-0.062,0.244-0.127,0.359-0.197c0.088-0.053,0.17-0.133,0.26-0.174c-0.363,0.176-0.162,0.129-0.023-0.006
					c0.525-0.512,1.469-0.564,1.986,0C129.055,99.424,129.105,100.304,128.547,100.854L128.547,100.854L128.547,100.854z"/>
				<path fill="#201614" d="M124.283,91.342c-0.18,0.687-0.354,1.384-0.455,2.086c0.016-0.125,0.033-0.246,0.049-0.372
					c-0.012,0.096-0.018,0.192-0.008,0.288c-0.018-0.125-0.033-0.252-0.051-0.374c0.008,0.046,0.016,0.087,0.033,0.128
					c-0.049-0.111-0.094-0.223-0.141-0.336c0.012,0.031,0.025,0.059,0.045,0.085c-0.076-0.096-0.146-0.191-0.221-0.285
					c0.021,0.026,0.041,0.048,0.068,0.069c-0.094-0.075-0.191-0.147-0.283-0.223c0.053,0.037,0.107,0.062,0.164,0.09
					c-0.109-0.048-0.223-0.095-0.336-0.143c0.092,0.04,0.184,0.067,0.279,0.082c-0.123-0.018-0.248-0.034-0.371-0.051
					c0.088,0.011,0.172,0.011,0.262,0c-0.127,0.017-0.252,0.033-0.375,0.051c0.098-0.014,0.193-0.038,0.291-0.054
					c0.189-0.056,0.375-0.062,0.562-0.021c0.186,0.007,0.359,0.061,0.521,0.164c0.291,0.17,0.568,0.5,0.646,0.838
					c0.08,0.361,0.062,0.762-0.143,1.082c-0.182,0.283-0.488,0.597-0.84,0.646c-0.254,0.036-0.5,0.101-0.76,0.109
					c-0.41,0.017-0.789-0.111-1.154-0.281c-0.459-0.215-0.822-0.643-0.945-1.138c-0.104-0.422-0.061-0.768,0.012-1.19
					c0.113-0.671,0.268-1.338,0.441-1.997c0.088-0.339,0.344-0.661,0.643-0.839c0.303-0.175,0.746-0.25,1.084-0.141
					c0.34,0.11,0.666,0.319,0.838,0.646C124.318,90.598,124.381,90.965,124.283,91.342L124.283,91.342L124.283,91.342z"/>
				<path fill="#201614" d="M134.984,85.35c0.35,1.132,0.121,3.734-2.021,3.954c-2.834-0.015-2.984-3.163-2.029-4.643
					C131.713,83.449,134.008,82.947,134.984,85.35L134.984,85.35z"/>
				<path fill="#201614" d="M112.296,85.35c-0.349,1.132-0.121,3.734,2.022,3.954c2.833-0.015,2.983-3.163,2.031-4.643
					C115.57,83.449,113.273,82.947,112.296,85.35L112.296,85.35z"/>
			</g>
		</g>
	</g>
</g>
</svg>
