<?xml version="1.0" encoding="utf-8"?>
<!-- Generator: Adobe Illustrator 16.0.0, SVG Export Plug-In . SVG Version: 6.00 Build 0)  -->
<!DOCTYPE svg PUBLIC "-//W3C//DTD SVG 1.1//EN" "http://www.w3.org/Graphics/SVG/1.1/DTD/svg11.dtd">
<svg version="1.1" id="レイヤー_1" xmlns="http://www.w3.org/2000/svg" xmlns:xlink="http://www.w3.org/1999/xlink" x="0px"
	 y="0px" width="500px" height="80px" viewBox="0 0 500 80" enable-background="new 0 0 500 80" xml:space="preserve">
<g>
	<defs>
		<rect id="SVGID_1_" width="500" height="80"/>
	</defs>
	<clipPath id="SVGID_2_">
		<use xlink:href="#SVGID_1_"  overflow="visible"/>
	</clipPath>
	<rect x="-0.75" clip-path="url(#SVGID_2_)" fill="#FFFFFF" width="501.964" height="78.025"/>
	<g clip-path="url(#SVGID_2_)">
		
			<rect x="39.784" y="65" fill="none" stroke="#B4CDF0" stroke-linejoin="round" stroke-miterlimit="10" width="20.553" height="13.025"/>
		
			<polygon fill-rule="evenodd" clip-rule="evenodd" fill="none" stroke="#B4CDF0" stroke-linejoin="round" stroke-miterlimit="10" points="
			60.337,65 50.061,58.711 39.784,65 		"/>
		<rect x="51.976" y="72.461" fill-rule="evenodd" clip-rule="evenodd" fill="#B4CDF0" width="5.225" height="5.564"/>
		<g>
			<rect x="46.978" y="68.01" fill-rule="evenodd" clip-rule="evenodd" fill="#B4CDF0" width="2.736" height="2.531"/>
			<rect x="42.654" y="68.01" fill-rule="evenodd" clip-rule="evenodd" fill="#B4CDF0" width="2.735" height="2.531"/>
			<rect x="51.976" y="68.01" fill-rule="evenodd" clip-rule="evenodd" fill="#B4CDF0" width="5.225" height="2.547"/>
			<rect x="46.978" y="73.139" fill-rule="evenodd" clip-rule="evenodd" fill="#B4CDF0" width="2.736" height="2.528"/>
			<rect x="42.653" y="73.139" fill-rule="evenodd" clip-rule="evenodd" fill="#B4CDF0" width="2.736" height="2.528"/>
		</g>
	</g>
	<g clip-path="url(#SVGID_2_)">
		<polygon fill="none" stroke="#B4CDF0" stroke-linejoin="round" stroke-miterlimit="10" points="108.286,65 108.286,78.025 
			118.627,78.025 123.059,78.025 125.719,78.025 125.719,65 		"/>
		<rect x="114.958" y="67.229" fill-rule="evenodd" clip-rule="evenodd" fill="#B4CDF0" width="2.737" height="2.529"/>
		<rect x="110.635" y="67.229" fill-rule="evenodd" clip-rule="evenodd" fill="#B4CDF0" width="2.734" height="2.529"/>
		<rect x="118.182" y="72.875" fill-rule="evenodd" clip-rule="evenodd" fill="#B4CDF0" width="5.6" height="2.532"/>
		<g>
			<rect x="108.286" y="63.18" fill="#B4CDF0" stroke="#B4CDF0" stroke-miterlimit="10" width="17.434" height="1.811"/>
		</g>
		<path fill="#B4CDF0" d="M115.795,73.84c0-1.733-1.101-2.516-2.427-2.516c-1.323,0-2.425,0.782-2.425,2.516h-0.003v4.186h4.858
			V73.84H115.795z"/>
	</g>
	<g clip-path="url(#SVGID_2_)">
		
			<ellipse fill-rule="evenodd" clip-rule="evenodd" fill="#FFFFFF" stroke="#B4CDF0" stroke-linejoin="round" stroke-miterlimit="10" cx="21.517" cy="61.481" rx="14.741" ry="13.084"/>
		<polygon fill="#FFFFFF" stroke="#B4CDF0" stroke-linejoin="round" stroke-miterlimit="10" points="25.922,68.571 22.24,71.676 
			21.534,65.93 20.717,72.285 17.776,69.601 20.566,73.816 19.985,78.025 23.081,78.025 22.388,73.166 		"/>
	</g>
	<g clip-path="url(#SVGID_2_)">
		
			<polygon fill-rule="evenodd" clip-rule="evenodd" fill="none" stroke="#B4CDF0" stroke-linejoin="round" stroke-miterlimit="10" points="
			290.553,69.609 286.367,60.262 289.352,60.262 280.757,41.058 272.162,60.262 275.145,60.262 270.961,69.609 		"/>
		<polygon fill="#FFFFFF" stroke="#B4CDF0" stroke-linejoin="round" stroke-miterlimit="10" points="281.436,70.041 280.755,63.967 
			280.076,70.041 279.184,78.025 282.329,78.025 		"/>
	</g>
	<g clip-path="url(#SVGID_2_)">
		
			<rect x="309.225" y="58.269" fill="none" stroke="#B4CDF0" stroke-linejoin="round" stroke-miterlimit="10" width="49.322" height="19.757"/>
		
			<polygon fill-rule="evenodd" clip-rule="evenodd" fill="none" stroke="#B4CDF0" stroke-linejoin="round" stroke-miterlimit="10" points="
			358.547,58.269 354.48,49.438 313.301,49.438 309.225,58.269 		"/>
		
			<rect x="340.664" y="73.036" fill="none" stroke="#B4CDF0" stroke-linejoin="round" stroke-miterlimit="10" width="13.545" height="4.989"/>
		<g>
			<g>
				<g>
					<rect x="316.035" y="60.972" fill-rule="evenodd" clip-rule="evenodd" fill="#B4CDF0" width="2.663" height="3.165"/>
					<rect x="312.699" y="60.972" fill-rule="evenodd" clip-rule="evenodd" fill="#B4CDF0" width="2.662" height="3.165"/>
				</g>
				<g>
					<rect x="325.078" y="60.972" fill-rule="evenodd" clip-rule="evenodd" fill="#B4CDF0" width="2.662" height="3.165"/>
					<rect x="321.74" y="60.972" fill-rule="evenodd" clip-rule="evenodd" fill="#B4CDF0" width="2.662" height="3.165"/>
				</g>
				<g>
					<rect x="334.117" y="60.972" fill-rule="evenodd" clip-rule="evenodd" fill="#B4CDF0" width="2.662" height="3.165"/>
					<rect x="330.779" y="60.972" fill-rule="evenodd" clip-rule="evenodd" fill="#B4CDF0" width="2.664" height="3.165"/>
				</g>
				<g>
					<rect x="343.156" y="60.972" fill-rule="evenodd" clip-rule="evenodd" fill="#B4CDF0" width="2.663" height="3.165"/>
					<rect x="339.822" y="60.972" fill-rule="evenodd" clip-rule="evenodd" fill="#B4CDF0" width="2.66" height="3.165"/>
				</g>
				<g>
					<rect x="352.197" y="60.972" fill-rule="evenodd" clip-rule="evenodd" fill="#B4CDF0" width="2.664" height="3.165"/>
					<rect x="348.861" y="60.972" fill-rule="evenodd" clip-rule="evenodd" fill="#B4CDF0" width="2.662" height="3.165"/>
				</g>
			</g>
			<g>
				<g>
					<rect x="316.035" y="66.862" fill-rule="evenodd" clip-rule="evenodd" fill="#B4CDF0" width="2.662" height="3.166"/>
					<rect x="312.699" y="66.862" fill-rule="evenodd" clip-rule="evenodd" fill="#B4CDF0" width="2.662" height="3.166"/>
				</g>
				<g>
					<rect x="325.076" y="66.862" fill-rule="evenodd" clip-rule="evenodd" fill="#B4CDF0" width="2.662" height="3.166"/>
					<rect x="321.74" y="66.862" fill-rule="evenodd" clip-rule="evenodd" fill="#B4CDF0" width="2.662" height="3.166"/>
				</g>
				<g>
					<rect x="334.116" y="66.862" fill-rule="evenodd" clip-rule="evenodd" fill="#B4CDF0" width="2.661" height="3.166"/>
					<rect x="330.779" y="66.862" fill-rule="evenodd" clip-rule="evenodd" fill="#B4CDF0" width="2.664" height="3.166"/>
				</g>
				<g>
					<rect x="343.156" y="66.862" fill-rule="evenodd" clip-rule="evenodd" fill="#B4CDF0" width="2.663" height="3.166"/>
					<rect x="339.818" y="66.862" fill-rule="evenodd" clip-rule="evenodd" fill="#B4CDF0" width="2.664" height="3.166"/>
				</g>
				<g>
					<rect x="352.197" y="66.862" fill-rule="evenodd" clip-rule="evenodd" fill="#B4CDF0" width="2.662" height="3.166"/>
					<rect x="348.861" y="66.862" fill-rule="evenodd" clip-rule="evenodd" fill="#B4CDF0" width="2.662" height="3.166"/>
				</g>
			</g>
			<g>
				<g>
					<rect x="316.035" y="72.753" fill-rule="evenodd" clip-rule="evenodd" fill="#B4CDF0" width="2.662" height="3.164"/>
					<rect x="312.699" y="72.753" fill-rule="evenodd" clip-rule="evenodd" fill="#B4CDF0" width="2.662" height="3.164"/>
				</g>
				<g>
					<rect x="325.076" y="72.753" fill-rule="evenodd" clip-rule="evenodd" fill="#B4CDF0" width="2.662" height="3.164"/>
					<rect x="321.74" y="72.753" fill-rule="evenodd" clip-rule="evenodd" fill="#B4CDF0" width="2.662" height="3.164"/>
				</g>
				<g>
					<rect x="334.116" y="72.753" fill-rule="evenodd" clip-rule="evenodd" fill="#B4CDF0" width="2.661" height="3.164"/>
					<rect x="330.779" y="72.753" fill-rule="evenodd" clip-rule="evenodd" fill="#B4CDF0" width="2.664" height="3.164"/>
				</g>
			</g>
		</g>
	</g>
	<g clip-path="url(#SVGID_2_)">
		<g>
			<polygon fill-rule="evenodd" clip-rule="evenodd" fill="#B4CDF0" stroke="#B4CDF0" stroke-miterlimit="10" points="
				379.439,59.447 374.216,64.669 374.216,66.902 379.439,61.684 384.666,66.902 384.666,64.669 			"/>
			<polygon fill="none" stroke="#B4CDF0" stroke-linejoin="round" stroke-miterlimit="10" points="374.216,66.902 374.216,78.025 
				384.666,78.025 384.666,66.902 379.439,61.684 			"/>
			<g>
				<rect x="379.777" y="67.277" fill-rule="evenodd" clip-rule="evenodd" fill="#B4CDF0" width="2.661" height="3.162"/>
				<rect x="376.441" y="67.277" fill-rule="evenodd" clip-rule="evenodd" fill="#B4CDF0" width="2.66" height="3.162"/>
			</g>
			<path fill-rule="evenodd" clip-rule="evenodd" fill="#B4CDF0" d="M381.156,74.284c0-1.5-0.779-2.183-1.717-2.183
				c-0.937,0-1.716,0.683-1.716,2.183h-0.001v3.741h3.434V74.284L381.156,74.284z"/>
		</g>
		<g>
			<polygon fill="#B4CDF0" stroke="#B4CDF0" stroke-miterlimit="10" points="368.992,59.447 363.768,64.669 363.768,66.902 
				368.992,61.684 374.216,66.902 374.216,64.669 			"/>
			
				<polygon fill-rule="evenodd" clip-rule="evenodd" fill="none" stroke="#B4CDF0" stroke-linejoin="round" stroke-miterlimit="10" points="
				363.768,66.902 363.768,78.025 374.216,78.025 374.216,66.902 368.992,61.684 			"/>
			<rect x="369.328" y="67.277" fill-rule="evenodd" clip-rule="evenodd" fill="#B4CDF0" width="2.662" height="3.162"/>
			<rect x="365.992" y="67.277" fill-rule="evenodd" clip-rule="evenodd" fill="#B4CDF0" width="2.66" height="3.162"/>
			<path fill="#B4CDF0" d="M370.709,74.284c0-1.5-0.779-2.183-1.717-2.183s-1.717,0.683-1.717,2.183h-0.002v3.741h3.437
				L370.709,74.284L370.709,74.284z"/>
		</g>
		<g>
			<polygon fill="#B4CDF0" stroke="#B4CDF0" stroke-miterlimit="10" points="389.89,59.447 384.664,64.669 384.664,66.902 
				389.89,61.684 395.115,66.902 395.115,64.669 			"/>
			
				<polygon fill-rule="evenodd" clip-rule="evenodd" fill="none" stroke="#B4CDF0" stroke-linejoin="round" stroke-miterlimit="10" points="
				384.664,66.902 384.664,78.025 395.115,78.025 395.115,66.902 389.89,61.684 			"/>
			<rect x="390.225" y="67.277" fill-rule="evenodd" clip-rule="evenodd" fill="#B4CDF0" width="2.664" height="3.162"/>
			<rect x="386.891" y="67.277" fill-rule="evenodd" clip-rule="evenodd" fill="#B4CDF0" width="2.662" height="3.162"/>
			<path fill="#B4CDF0" d="M391.605,74.284c0-1.5-0.777-2.183-1.716-2.183c-0.937,0-1.718,0.683-1.718,2.183h-0.001v3.741h3.437
				v-3.741H391.605z"/>
		</g>
	</g>
	<g clip-path="url(#SVGID_2_)">
		<path fill-rule="evenodd" clip-rule="evenodd" fill="none" stroke="#B4CDF0" stroke-linejoin="round" stroke-miterlimit="10" d="
			M398.855,66.445c0,4.274,3.756,7.737,8.389,7.737c4.632,0,8.389-3.463,8.389-7.737c0-4.27-3.757-7.735-8.389-7.735
			C402.611,58.71,398.855,62.176,398.855,66.445z"/>
		<polygon fill="#FFFFFF" stroke="#B4CDF0" stroke-linejoin="round" stroke-miterlimit="10" points="409.666,70.459 407.676,72.14 
			407.294,69.03 406.853,72.468 405.263,71.017 406.771,73.294 406.455,78.025 408.129,78.025 407.756,72.944 		"/>
	</g>
	<g clip-path="url(#SVGID_2_)">
		
			<polygon fill-rule="evenodd" clip-rule="evenodd" fill="none" stroke="#B4CDF0" stroke-linejoin="round" stroke-miterlimit="10" points="
			498.018,71.236 494.461,63.292 496.998,63.292 489.695,46.97 482.387,63.292 484.924,63.292 481.366,71.236 		"/>
		<polygon fill="#FFFFFF" stroke="#B4CDF0" stroke-linejoin="round" stroke-miterlimit="10" points="490.27,71.236 489.693,66.074 
			489.116,71.236 488.355,78.025 491.028,78.025 		"/>
	</g>
	<g clip-path="url(#SVGID_2_)">
		
			<rect x="422.271" y="65.97" fill-rule="evenodd" clip-rule="evenodd" fill="none" stroke="#B4CDF0" stroke-linejoin="round" stroke-miterlimit="10" width="19.022" height="12.056"/>
		<polygon fill="none" stroke="#B4CDF0" stroke-linejoin="round" stroke-miterlimit="10" points="431.781,60.146 428.93,61.896 
			428.93,57.982 426.193,57.982 426.193,63.57 422.271,65.97 425.303,65.97 438.264,65.97 441.294,65.97 		"/>
		<rect x="433.557" y="72.875" fill-rule="evenodd" clip-rule="evenodd" fill="#B4CDF0" width="4.834" height="5.15"/>
		<g>
			<rect x="428.252" y="73.498" fill-rule="evenodd" clip-rule="evenodd" fill="#B4CDF0" width="2.531" height="2.345"/>
			<rect x="424.248" y="73.498" fill-rule="evenodd" clip-rule="evenodd" fill="#B4CDF0" width="2.534" height="2.345"/>
			<rect x="428.375" y="68.754" fill-rule="evenodd" clip-rule="evenodd" fill="#B4CDF0" width="2.531" height="2.343"/>
			<rect x="424.182" y="68.754" fill-rule="evenodd" clip-rule="evenodd" fill="#B4CDF0" width="2.531" height="2.343"/>
			<rect x="436.76" y="68.754" fill-rule="evenodd" clip-rule="evenodd" fill="#B4CDF0" width="2.531" height="2.343"/>
			<rect x="432.566" y="68.754" fill-rule="evenodd" clip-rule="evenodd" fill="#B4CDF0" width="2.533" height="2.343"/>
		</g>
	</g>
	<g clip-path="url(#SVGID_2_)">
		
			<rect x="441.294" y="35.693" fill="none" stroke="#B4CDF0" stroke-linejoin="round" stroke-miterlimit="10" width="17.151" height="42.315"/>
		<g>
			<rect x="450.631" y="39.371" fill-rule="evenodd" clip-rule="evenodd" fill="#B4CDF0" width="2.114" height="3.146"/>
			<rect x="453.332" y="39.371" fill-rule="evenodd" clip-rule="evenodd" fill="#B4CDF0" width="2.111" height="3.146"/>
			<rect x="444.293" y="39.371" fill-rule="evenodd" clip-rule="evenodd" fill="#B4CDF0" width="2.115" height="3.146"/>
			<rect x="446.994" y="39.371" fill-rule="evenodd" clip-rule="evenodd" fill="#B4CDF0" width="2.114" height="3.146"/>
			<rect x="450.631" y="46.169" fill-rule="evenodd" clip-rule="evenodd" fill="#B4CDF0" width="2.113" height="3.149"/>
			<rect x="453.332" y="46.169" fill-rule="evenodd" clip-rule="evenodd" fill="#B4CDF0" width="2.111" height="3.149"/>
			<rect x="444.293" y="46.169" fill-rule="evenodd" clip-rule="evenodd" fill="#B4CDF0" width="2.115" height="3.149"/>
			<rect x="446.994" y="46.169" fill-rule="evenodd" clip-rule="evenodd" fill="#B4CDF0" width="2.113" height="3.149"/>
			<rect x="450.631" y="52.97" fill-rule="evenodd" clip-rule="evenodd" fill="#B4CDF0" width="2.113" height="3.148"/>
			<rect x="453.332" y="52.97" fill-rule="evenodd" clip-rule="evenodd" fill="#B4CDF0" width="2.111" height="3.148"/>
			<rect x="444.293" y="52.97" fill-rule="evenodd" clip-rule="evenodd" fill="#B4CDF0" width="2.115" height="3.148"/>
			<rect x="446.994" y="52.97" fill-rule="evenodd" clip-rule="evenodd" fill="#B4CDF0" width="2.113" height="3.148"/>
			<rect x="450.631" y="59.77" fill-rule="evenodd" clip-rule="evenodd" fill="#B4CDF0" width="2.113" height="3.148"/>
			<rect x="453.332" y="59.77" fill-rule="evenodd" clip-rule="evenodd" fill="#B4CDF0" width="2.111" height="3.148"/>
			<rect x="444.293" y="59.77" fill-rule="evenodd" clip-rule="evenodd" fill="#B4CDF0" width="2.115" height="3.148"/>
			<rect x="446.994" y="59.77" fill-rule="evenodd" clip-rule="evenodd" fill="#B4CDF0" width="2.113" height="3.148"/>
			<rect x="450.631" y="66.567" fill-rule="evenodd" clip-rule="evenodd" fill="#B4CDF0" width="2.113" height="3.149"/>
			<rect x="453.332" y="66.567" fill-rule="evenodd" clip-rule="evenodd" fill="#B4CDF0" width="2.111" height="3.149"/>
			<rect x="444.293" y="66.567" fill-rule="evenodd" clip-rule="evenodd" fill="#B4CDF0" width="2.115" height="3.149"/>
			<rect x="446.994" y="66.567" fill-rule="evenodd" clip-rule="evenodd" fill="#B4CDF0" width="2.113" height="3.149"/>
			<rect x="444.293" y="73.368" fill-rule="evenodd" clip-rule="evenodd" fill="#B4CDF0" width="4.814" height="4.657"/>
			<rect x="450.631" y="73.368" fill-rule="evenodd" clip-rule="evenodd" fill="#B4CDF0" width="4.812" height="4.657"/>
		</g>
		<polygon fill="none" stroke="#B4CDF0" stroke-linejoin="round" stroke-miterlimit="10" points="458.445,35.819 441.294,35.819 
			443.904,28.342 455.834,28.342 		"/>
	</g>
	<g clip-path="url(#SVGID_2_)">
		
			<rect x="463.594" y="59.535" fill="none" stroke="#B4CDF0" stroke-linejoin="round" stroke-miterlimit="10" width="13.227" height="18.49"/>
		
			<rect x="463.594" y="57.712" fill-rule="evenodd" clip-rule="evenodd" fill="#B4CDF0" stroke="#B4CDF0" stroke-miterlimit="10" width="13.227" height="1.812"/>
		<g>
			<rect x="471.015" y="61.762" fill-rule="evenodd" clip-rule="evenodd" fill="#B4CDF0" width="2.735" height="2.53"/>
			<rect x="466.688" y="61.762" fill-rule="evenodd" clip-rule="evenodd" fill="#B4CDF0" width="2.737" height="2.53"/>
			<rect x="471.015" y="66.611" fill-rule="evenodd" clip-rule="evenodd" fill="#B4CDF0" width="2.735" height="2.527"/>
			<rect x="466.688" y="66.611" fill-rule="evenodd" clip-rule="evenodd" fill="#B4CDF0" width="2.737" height="2.527"/>
		</g>
		<path fill="none" stroke="#B4CDF0" stroke-linejoin="round" stroke-miterlimit="10" d="M473.666,73.298
			c-0.24-1.405-1.63-2.478-3.312-2.478c-1.682,0-3.072,1.072-3.314,2.478h-0.041v4.364h6.712v-4.364H473.666z"/>
	</g>
	<g clip-path="url(#SVGID_2_)">
		
			<rect x="60.337" y="55.899" fill-rule="evenodd" clip-rule="evenodd" fill="none" stroke="#B4CDF0" stroke-linejoin="round" stroke-miterlimit="10" width="16.89" height="21.901"/>
		<polygon fill="none" stroke="#B4CDF0" stroke-linejoin="round" stroke-miterlimit="10" points="77.227,55.899 68.782,49.607 
			60.337,55.899 		"/>
		<g>
			<rect x="62.652" y="58.328" fill-rule="evenodd" clip-rule="evenodd" fill="#B4CDF0" width="4.102" height="2.236"/>
			<rect x="71.025" y="58.328" fill-rule="evenodd" clip-rule="evenodd" fill="#B4CDF0" width="1.626" height="2.236"/>
			<rect x="73.285" y="58.328" fill-rule="evenodd" clip-rule="evenodd" fill="#B4CDF0" width="1.628" height="2.236"/>
			<rect x="68.763" y="58.328" fill-rule="evenodd" clip-rule="evenodd" fill="#B4CDF0" width="1.627" height="2.236"/>
			<rect x="62.652" y="63.238" fill-rule="evenodd" clip-rule="evenodd" fill="#B4CDF0" width="4.102" height="2.236"/>
			<rect x="71.025" y="63.238" fill-rule="evenodd" clip-rule="evenodd" fill="#B4CDF0" width="1.626" height="2.236"/>
			<rect x="73.285" y="63.238" fill-rule="evenodd" clip-rule="evenodd" fill="#B4CDF0" width="1.628" height="2.236"/>
			<rect x="68.763" y="63.238" fill-rule="evenodd" clip-rule="evenodd" fill="#B4CDF0" width="1.627" height="2.236"/>
			<rect x="62.652" y="68.146" fill-rule="evenodd" clip-rule="evenodd" fill="#B4CDF0" width="4.102" height="2.24"/>
			<rect x="71.025" y="68.146" fill-rule="evenodd" clip-rule="evenodd" fill="#B4CDF0" width="1.626" height="2.24"/>
			<rect x="73.285" y="68.146" fill-rule="evenodd" clip-rule="evenodd" fill="#B4CDF0" width="1.628" height="2.24"/>
			<rect x="68.763" y="68.146" fill-rule="evenodd" clip-rule="evenodd" fill="#B4CDF0" width="1.627" height="2.24"/>
			<rect x="62.652" y="73.058" fill-rule="evenodd" clip-rule="evenodd" fill="#B4CDF0" width="4.102" height="2.239"/>
		</g>
		<polygon fill="#B4CDF0" points="68.841,73.018 68.841,78.025 74.913,78.025 74.913,73.018 71.875,71.453 		"/>
	</g>
	<g clip-path="url(#SVGID_2_)">
		<polygon fill="none" stroke="#B4CDF0" stroke-linejoin="round" stroke-miterlimit="10" points="96.833,39.248 94.597,43.463 
			83.455,43.463 83.455,78.025 104.564,78.025 104.564,39.248 		"/>
		<g>
			
				<rect x="86.245" y="72.353" fill="none" stroke="#B4CDF0" stroke-linejoin="round" stroke-miterlimit="10" width="6.464" height="5.673"/>
			<rect x="95.485" y="72.353" fill-rule="evenodd" clip-rule="evenodd" fill="#B4CDF0" width="1.685" height="3.406"/>
			<rect x="98.094" y="72.353" fill-rule="evenodd" clip-rule="evenodd" fill="#B4CDF0" width="1.686" height="3.406"/>
			<rect x="100.704" y="72.353" fill-rule="evenodd" clip-rule="evenodd" fill="#B4CDF0" width="1.686" height="3.406"/>
		</g>
		<g>
			<rect x="89.993" y="67.256" fill-rule="evenodd" clip-rule="evenodd" fill="#B4CDF0" width="3.372" height="2.611"/>
			<rect x="85.671" y="67.256" fill-rule="evenodd" clip-rule="evenodd" fill="#B4CDF0" width="3.201" height="2.611"/>
			<rect x="94.485" y="67.256" fill-rule="evenodd" clip-rule="evenodd" fill="#B4CDF0" width="3.37" height="2.611"/>
			<rect x="98.976" y="67.256" fill-rule="evenodd" clip-rule="evenodd" fill="#B4CDF0" width="3.372" height="2.611"/>
			<rect x="89.993" y="61.961" fill-rule="evenodd" clip-rule="evenodd" fill="#B4CDF0" width="3.372" height="2.611"/>
			<rect x="85.671" y="61.961" fill-rule="evenodd" clip-rule="evenodd" fill="#B4CDF0" width="3.201" height="2.611"/>
			<rect x="94.485" y="61.961" fill-rule="evenodd" clip-rule="evenodd" fill="#B4CDF0" width="3.37" height="2.611"/>
			<rect x="98.976" y="61.961" fill-rule="evenodd" clip-rule="evenodd" fill="#B4CDF0" width="3.372" height="2.611"/>
			<rect x="89.993" y="56.667" fill-rule="evenodd" clip-rule="evenodd" fill="#B4CDF0" width="3.372" height="2.61"/>
			<rect x="85.671" y="56.667" fill-rule="evenodd" clip-rule="evenodd" fill="#B4CDF0" width="3.201" height="2.61"/>
			<rect x="94.485" y="56.667" fill-rule="evenodd" clip-rule="evenodd" fill="#B4CDF0" width="3.37" height="2.61"/>
			<rect x="98.976" y="56.667" fill-rule="evenodd" clip-rule="evenodd" fill="#B4CDF0" width="3.372" height="2.61"/>
			<rect x="89.993" y="51.373" fill-rule="evenodd" clip-rule="evenodd" fill="#B4CDF0" width="3.372" height="2.611"/>
			<rect x="85.671" y="51.373" fill-rule="evenodd" clip-rule="evenodd" fill="#B4CDF0" width="3.201" height="2.611"/>
			<rect x="94.485" y="51.373" fill-rule="evenodd" clip-rule="evenodd" fill="#B4CDF0" width="3.37" height="2.611"/>
			<rect x="98.976" y="51.373" fill-rule="evenodd" clip-rule="evenodd" fill="#B4CDF0" width="3.372" height="2.611"/>
			<rect x="89.993" y="46.078" fill-rule="evenodd" clip-rule="evenodd" fill="#B4CDF0" width="3.372" height="2.61"/>
			<rect x="85.671" y="46.078" fill-rule="evenodd" clip-rule="evenodd" fill="#B4CDF0" width="3.201" height="2.61"/>
			<rect x="94.485" y="46.078" fill-rule="evenodd" clip-rule="evenodd" fill="#B4CDF0" width="3.37" height="2.61"/>
			<rect x="98.976" y="46.078" fill-rule="evenodd" clip-rule="evenodd" fill="#B4CDF0" width="3.372" height="2.61"/>
			<rect x="98.976" y="40.784" fill-rule="evenodd" clip-rule="evenodd" fill="#B4CDF0" width="3.372" height="2.609"/>
		</g>
	</g>
	<g clip-path="url(#SVGID_2_)">
		<polygon fill-rule="evenodd" clip-rule="evenodd" fill="#B4CDF0" stroke="#B4CDF0" stroke-miterlimit="10" points="133.98,59.269 
			131.735,59.269 131.735,62.92 133.98,61.112 		"/>
		<polygon fill-rule="evenodd" clip-rule="evenodd" fill="#B4CDF0" stroke="#B4CDF0" stroke-miterlimit="10" points="
			136.053,59.447 133.98,61.112 131.735,62.92 129.562,64.669 129.562,66.902 136.053,61.684 142.546,66.902 142.546,64.669 		"/>
		
			<polygon fill-rule="evenodd" clip-rule="evenodd" fill="none" stroke="#B4CDF0" stroke-linejoin="round" stroke-miterlimit="10" points="
			129.562,66.902 129.562,78.025 142.546,78.025 142.546,66.902 136.053,61.684 		"/>
		<g>
			<rect x="136.472" y="67.367" fill-rule="evenodd" clip-rule="evenodd" fill="#B4CDF0" width="3.309" height="2.24"/>
			<rect x="132.327" y="67.367" fill-rule="evenodd" clip-rule="evenodd" fill="#B4CDF0" width="3.308" height="2.24"/>
			<rect x="136.472" y="72.587" fill-rule="evenodd" clip-rule="evenodd" fill="#B4CDF0" width="3.309" height="2.237"/>
			<rect x="132.327" y="72.587" fill-rule="evenodd" clip-rule="evenodd" fill="#B4CDF0" width="3.308" height="2.237"/>
		</g>
	</g>
	<g clip-path="url(#SVGID_2_)">
		<path fill-rule="evenodd" clip-rule="evenodd" fill="none" stroke="#B4CDF0" stroke-linejoin="round" stroke-miterlimit="10" d="
			M152.993,75.261c3.295,0.055,6.207-1.298,6.207-4.806c0-3.713-2.984-8.634-5.777-8.632c-2.888,0-5.751,4.809-5.751,8.52
			C147.671,73.854,151.211,75.229,152.993,75.261z"/>
		<polygon fill="#FFFFFF" stroke="#B4CDF0" stroke-linejoin="round" stroke-miterlimit="10" points="154.238,75.109 153.436,70.36 
			152.636,75.078 152.136,78.025 154.733,78.025 		"/>
	</g>
	<g clip-path="url(#SVGID_2_)">
		<path fill-rule="evenodd" clip-rule="evenodd" fill="none" stroke="#B4CDF0" stroke-linejoin="round" stroke-miterlimit="10" d="
			M178.009,59.518c0.054-0.425,0.083-0.859,0.083-1.306c0-4.642-3.066-8.402-6.848-8.402c-3.783,0-6.847,3.761-6.847,8.402
			c0,0.336,0.018,0.667,0.049,0.993c-1.81,1.158-3.015,3.225-3.015,5.579c0,3.632,2.859,6.57,6.39,6.57
			c0.455,0,0.899-0.049,1.328-0.14c1.228,1.304,2.885,2.107,4.709,2.107c3.783,0,6.849-3.444,6.849-7.691
			C180.707,63.139,179.648,60.925,178.009,59.518z"/>
		<polygon fill="#FFFFFF" stroke="#B4CDF0" stroke-linejoin="round" stroke-miterlimit="10" points="173.083,78.025 171.386,64.588 
			170.836,68.95 167.54,67.866 170.673,70.229 169.69,78.025 		"/>
	</g>
	<g clip-path="url(#SVGID_2_)">
		
			<rect x="185.897" y="52.672" fill="none" stroke="#B4CDF0" stroke-linejoin="round" stroke-miterlimit="10" width="40.116" height="25.075"/>
		<g>
			<rect x="215.687" y="72.595" fill="#B4CDF0" width="4.958" height="5.431"/>
			<rect x="209.216" y="72.595" fill="#B4CDF0" width="4.957" height="5.431"/>
		</g>
		<g>
			<rect x="207.261" y="55.787" fill-rule="evenodd" clip-rule="evenodd" fill="#B4CDF0" width="3.568" height="2.864"/>
			<rect x="219.351" y="55.787" fill-rule="evenodd" clip-rule="evenodd" fill="#B4CDF0" width="3.483" height="2.864"/>
			<rect x="213.436" y="55.787" fill-rule="evenodd" clip-rule="evenodd" fill="#B4CDF0" width="3.309" height="2.864"/>
			<rect x="201.169" y="55.787" fill-rule="evenodd" clip-rule="evenodd" fill="#B4CDF0" width="3.482" height="2.864"/>
			<rect x="195.254" y="55.787" fill-rule="evenodd" clip-rule="evenodd" fill="#B4CDF0" width="3.308" height="2.864"/>
			<rect x="189.078" y="55.787" fill-rule="evenodd" clip-rule="evenodd" fill="#B4CDF0" width="3.569" height="2.864"/>
			<rect x="207.261" y="61.22" fill-rule="evenodd" clip-rule="evenodd" fill="#B4CDF0" width="3.568" height="2.867"/>
			<rect x="219.351" y="61.22" fill-rule="evenodd" clip-rule="evenodd" fill="#B4CDF0" width="3.483" height="2.867"/>
			<rect x="213.436" y="61.22" fill-rule="evenodd" clip-rule="evenodd" fill="#B4CDF0" width="3.309" height="2.867"/>
			<rect x="201.169" y="61.22" fill-rule="evenodd" clip-rule="evenodd" fill="#B4CDF0" width="3.482" height="2.867"/>
			<rect x="195.254" y="61.22" fill-rule="evenodd" clip-rule="evenodd" fill="#B4CDF0" width="3.308" height="2.867"/>
			<rect x="189.078" y="61.22" fill-rule="evenodd" clip-rule="evenodd" fill="#B4CDF0" width="3.569" height="2.867"/>
			<rect x="207.261" y="66.653" fill-rule="evenodd" clip-rule="evenodd" fill="#B4CDF0" width="3.568" height="2.867"/>
			<rect x="219.351" y="66.653" fill-rule="evenodd" clip-rule="evenodd" fill="#B4CDF0" width="3.483" height="2.867"/>
			<rect x="213.436" y="66.653" fill-rule="evenodd" clip-rule="evenodd" fill="#B4CDF0" width="3.309" height="2.867"/>
			<rect x="201.169" y="66.653" fill-rule="evenodd" clip-rule="evenodd" fill="#B4CDF0" width="3.482" height="2.867"/>
			<rect x="195.254" y="66.653" fill-rule="evenodd" clip-rule="evenodd" fill="#B4CDF0" width="3.308" height="2.867"/>
			<rect x="189.078" y="66.653" fill-rule="evenodd" clip-rule="evenodd" fill="#B4CDF0" width="3.569" height="2.867"/>
			<g>
				<rect x="201.169" y="72.09" fill-rule="evenodd" clip-rule="evenodd" fill="#B4CDF0" width="3.482" height="2.867"/>
				<rect x="195.254" y="72.09" fill-rule="evenodd" clip-rule="evenodd" fill="#B4CDF0" width="3.309" height="2.867"/>
				<rect x="189.078" y="72.09" fill-rule="evenodd" clip-rule="evenodd" fill="#B4CDF0" width="3.569" height="2.867"/>
			</g>
		</g>
	</g>
	<g clip-path="url(#SVGID_2_)">
		
			<rect x="226.013" y="28.537" fill-rule="evenodd" clip-rule="evenodd" fill="none" stroke="#B4CDF0" stroke-linejoin="round" stroke-miterlimit="10" width="20.059" height="49.488"/>
		<polygon fill="none" stroke="#B4CDF0" stroke-linejoin="round" stroke-miterlimit="10" points="226.013,28.537 236.042,20.186 
			246.072,28.537 		"/>
		<g>
			<rect x="234.68" y="31.87" fill-rule="evenodd" clip-rule="evenodd" fill="#B4CDF0" width="2.801" height="2.866"/>
			<rect x="229.27" y="31.87" fill-rule="evenodd" clip-rule="evenodd" fill="#B4CDF0" width="3.022" height="2.866"/>
			<rect x="239.868" y="31.87" fill-rule="evenodd" clip-rule="evenodd" fill="#B4CDF0" width="2.95" height="2.866"/>
			<rect x="234.68" y="38.176" fill-rule="evenodd" clip-rule="evenodd" fill="#B4CDF0" width="2.801" height="2.864"/>
			<rect x="229.27" y="38.176" fill-rule="evenodd" clip-rule="evenodd" fill="#B4CDF0" width="3.022" height="2.864"/>
			<rect x="239.868" y="38.176" fill-rule="evenodd" clip-rule="evenodd" fill="#B4CDF0" width="2.95" height="2.864"/>
			<rect x="234.68" y="44.479" fill-rule="evenodd" clip-rule="evenodd" fill="#B4CDF0" width="2.801" height="2.865"/>
			<rect x="229.27" y="44.479" fill-rule="evenodd" clip-rule="evenodd" fill="#B4CDF0" width="3.022" height="2.865"/>
			<rect x="239.868" y="44.479" fill-rule="evenodd" clip-rule="evenodd" fill="#B4CDF0" width="2.95" height="2.865"/>
			<rect x="234.68" y="50.785" fill-rule="evenodd" clip-rule="evenodd" fill="#B4CDF0" width="2.801" height="2.864"/>
			<rect x="229.27" y="50.785" fill-rule="evenodd" clip-rule="evenodd" fill="#B4CDF0" width="3.022" height="2.864"/>
			<rect x="239.868" y="50.785" fill-rule="evenodd" clip-rule="evenodd" fill="#B4CDF0" width="2.95" height="2.864"/>
			<rect x="234.68" y="57.089" fill-rule="evenodd" clip-rule="evenodd" fill="#B4CDF0" width="2.801" height="2.866"/>
			<rect x="229.27" y="57.089" fill-rule="evenodd" clip-rule="evenodd" fill="#B4CDF0" width="3.022" height="2.866"/>
			<rect x="239.868" y="57.089" fill-rule="evenodd" clip-rule="evenodd" fill="#B4CDF0" width="2.95" height="2.866"/>
			<rect x="234.68" y="63.395" fill-rule="evenodd" clip-rule="evenodd" fill="#B4CDF0" width="2.801" height="2.865"/>
			<rect x="229.27" y="63.395" fill-rule="evenodd" clip-rule="evenodd" fill="#B4CDF0" width="3.022" height="2.865"/>
			<rect x="239.868" y="63.395" fill-rule="evenodd" clip-rule="evenodd" fill="#B4CDF0" width="2.95" height="2.865"/>
		</g>
		<g>
			<rect x="234.507" y="70.152" fill-rule="evenodd" clip-rule="evenodd" fill="#B4CDF0" width="3.156" height="7.873"/>
			<rect x="228.418" y="70.152" fill-rule="evenodd" clip-rule="evenodd" fill="#B4CDF0" width="3.402" height="7.873"/>
			<rect x="240.348" y="70.152" fill-rule="evenodd" clip-rule="evenodd" fill="#B4CDF0" width="3.32" height="7.873"/>
		</g>
	</g>
	<g clip-path="url(#SVGID_2_)">
		<polygon fill="#B4CDF0" stroke="#B4CDF0" stroke-miterlimit="10" points="257.02,59.811 251.898,64.93 251.898,67.122 
			257.02,62.005 262.144,67.122 262.144,64.93 		"/>
		<polygon fill="none" stroke="#B4CDF0" stroke-linejoin="round" stroke-miterlimit="10" points="251.898,67.122 251.898,78.025 
			262.144,78.025 262.144,67.122 257.02,62.005 		"/>
		<g>
			<rect x="257.35" y="67.488" fill-rule="evenodd" clip-rule="evenodd" fill="#B4CDF0" width="2.613" height="3.1"/>
			<rect x="254.08" y="67.488" fill-rule="evenodd" clip-rule="evenodd" fill="#B4CDF0" width="2.611" height="3.1"/>
		</g>
		<path fill="#B4CDF0" d="M258.705,74.357c0-1.474-0.766-2.138-1.682-2.138c-0.922,0-1.687,0.664-1.687,2.138h-0.001v3.653h3.369
			V74.357L258.705,74.357z"/>
	</g>
	<g clip-path="url(#SVGID_2_)">
		<path fill-rule="evenodd" clip-rule="evenodd" fill="none" stroke="#B4CDF0" stroke-linejoin="round" stroke-miterlimit="10" d="
			M298.922,75.261c3.295,0.055,6.207-1.298,6.207-4.806c0-3.713-2.984-8.634-5.779-8.632c-2.885,0-5.75,4.809-5.75,8.52
			C293.6,73.854,297.141,75.228,298.922,75.261z"/>
		<polygon fill="#FFFFFF" stroke="#B4CDF0" stroke-linejoin="round" stroke-miterlimit="10" points="300.168,75.109 299.363,70.36 
			298.566,75.078 298.066,78.025 300.662,78.025 		"/>
	</g>
	
		<line clip-path="url(#SVGID_2_)" fill-rule="evenodd" clip-rule="evenodd" fill="none" stroke="#B4CDF0" stroke-width="3" stroke-linejoin="round" stroke-miterlimit="10" x1="-0.75" y1="78.428" x2="501.515" y2="78.428"/>
</g>
</svg>
