<?xml version="1.0" encoding="utf-8"?>
<!-- Generator: Adobe Illustrator 16.0.0, SVG Export Plug-In . SVG Version: 6.00 Build 0)  -->
<!DOCTYPE svg PUBLIC "-//W3C//DTD SVG 1.1//EN" "http://www.w3.org/Graphics/SVG/1.1/DTD/svg11.dtd">
<svg version="1.1" id="レイヤー_1" xmlns="http://www.w3.org/2000/svg" xmlns:xlink="http://www.w3.org/1999/xlink" x="0px"
	 y="0px" width="145px" height="20px" viewBox="0 0 145 20" enable-background="new 0 0 145 20" xml:space="preserve">
<g>
	<g>
		<path fill="#231815" d="M49.97,13.251l-5.064-0.067c1.853,1.377,3.621,2.073,5.66,2.735c0.322,0.103,0.476,0.356,0.476,0.597
			c0,0.373-0.323,0.764-0.765,0.764c-0.442,0-3.654-1.359-6.034-3.264l0.051,3.161v0.019c0,0.373-0.34,0.578-0.696,0.578
			c-0.341,0-0.681-0.205-0.681-0.578v-0.019l0.034-3.145c-2.381,2.006-5.592,3.313-6.018,3.313c-0.425,0-0.73-0.322-0.73-0.662
			c0-0.221,0.152-0.459,0.51-0.596c2.176-0.766,3.773-1.514,5.49-2.906l-4.963,0.068h-0.018c-0.356,0-0.543-0.273-0.543-0.545
			c0-0.289,0.187-0.561,0.561-0.561l5.711,0.032l-0.018-0.918l-3.978,0.019c-0.323,0-0.493-0.254-0.493-0.492
			c0-0.256,0.17-0.494,0.493-0.494l3.978,0.018l-0.017-0.901l-4.828,0.017c-0.374,0-0.562-0.271-0.562-0.544
			c0-0.255,0.188-0.526,0.562-0.526h3.146c-0.119-0.307-0.307-0.612-0.459-0.833c-0.051-0.085-0.086-0.153-0.086-0.221
			c0-0.272,0.357-0.442,0.681-0.442c0.696,0,1.104,1.054,1.207,1.394c0.017,0.034,0.017,0.068,0.017,0.103l0.561,0.017l1.479-0.017
			c0.171-0.323,0.341-0.833,0.408-1.19c0.034-0.204,0.204-0.322,0.392-0.356l-1.836-0.018L37.138,6.81
			c-0.392,0-0.596-0.307-0.596-0.595c0-0.307,0.204-0.596,0.596-0.596l2.465,0.018c-0.272-0.459-0.629-0.867-0.986-1.258
			c-0.086-0.103-0.137-0.204-0.137-0.289c0-0.306,0.392-0.578,0.748-0.578c0.119,0,0.222,0.017,0.323,0.085
			c0.442,0.289,1.394,1.768,1.394,2.057h0.8l-0.034-2.38c0-0.407,0.323-0.611,0.646-0.611c0.322,0,0.646,0.204,0.646,0.611v2.397
			h1.14V3.272c0-0.407,0.322-0.611,0.646-0.611s0.646,0.204,0.646,0.611l-0.017,2.397l0.748-0.018
			c0.374-0.526,0.731-1.24,0.952-1.768c0.136-0.306,0.373-0.442,0.629-0.442c0.357,0,0.73,0.272,0.73,0.646
			c0,0.255-0.373,0.85-0.918,1.547l2.567-0.018h0.017c0.392,0,0.578,0.289,0.578,0.596c0,0.288-0.187,0.595-0.595,0.595h-4.454
			c0.322,0.068,0.662,0.29,0.662,0.596c0,0.153-0.221,0.646-0.374,0.952h3.11c0.357,0,0.545,0.271,0.545,0.544
			c0,0.255-0.188,0.526-0.545,0.526l-4.793-0.017v0.901l3.927-0.018c0.34,0,0.51,0.256,0.51,0.494c0,0.254-0.17,0.492-0.51,0.492
			H44.26l-0.017,0.899l5.729-0.032c0.375,0,0.545,0.271,0.545,0.561c0,0.271-0.17,0.545-0.527,0.545L49.97,13.251L49.97,13.251z"/>
		<path fill="#231815" d="M60.375,8.916v4.25c0,0.271,0.017,1.717,0.034,2.312v0.084c0,1.037-0.527,1.871-2.006,1.871
			c-0.663,0-1.496-0.035-1.496-0.783c0-0.34,0.203-0.662,0.561-0.662c0.034,0,0.068,0.018,0.119,0.018
			c0.255,0.051,0.51,0.084,0.73,0.084c0.459,0,0.783-0.17,0.8-0.766c0-0.594,0.017-3.145,0.017-3.145
			c0-0.441,0.018-0.867,0.018-1.273c-0.68,1.121-1.479,2.191-2.244,2.99c-0.17,0.17-0.34,0.237-0.51,0.237
			c-0.357,0-0.646-0.305-0.646-0.661c0-0.171,0.085-0.357,0.271-0.527c0.951-0.832,2.227-2.432,3.06-4.011L56.704,9h-0.018
			c-0.356,0-0.543-0.271-0.543-0.561s0.187-0.578,0.561-0.595c0.73-0.018,1.854-0.018,2.924-0.018L59.61,7.792
			c-0.424-0.577-1.139-1.02-1.563-1.258c-0.153-0.085-0.221-0.221-0.221-0.356c0-0.289,0.272-0.578,0.595-0.578
			c0.238,0,0.782,0.34,1.105,0.561c0.459-0.425,1.24-1.309,1.24-1.495c0-0.085-0.067-0.119-0.17-0.119
			c-0.781,0-3.246,0.102-3.246,0.102h-0.018c-0.391,0-0.596-0.289-0.596-0.595c0-0.289,0.205-0.595,0.613-0.595
			c0,0,2.821-0.034,3.875-0.034c0.713,0,1.104,0.391,1.104,0.9c0,0.238-0.085,0.511-0.289,0.766
			c-0.442,0.561-1.207,1.343-1.683,1.751l0.136,0.152c0.103,0.119,0.136,0.255,0.136,0.374c0,0.188-0.068,0.34-0.188,0.459
			c0.392,0,0.766,0.018,1.072,0.018c0.629,0.017,1.223,0.374,1.223,1.036c0,0.255-0.17,0.714-0.356,1.122
			c0.068-0.119,0.187-0.22,0.392-0.271c1.07-0.289,1.938-0.681,2.617-1.14c-0.629-0.577-1.156-1.24-1.529-2.005
			c-0.731,0.951-0.936,1.139-1.275,1.139s-0.663-0.238-0.663-0.562c0-0.136,0.068-0.289,0.222-0.441
			c0.935-0.901,1.733-2.193,2.227-3.468C64.472,3,64.692,2.898,64.931,2.898c0.34,0,0.715,0.238,0.715,0.578
			c0,0.085-0.035,0.323-0.51,1.156l4.76-0.051c0.391,0,0.578,0.289,0.578,0.577c0,0.289-0.188,0.578-0.578,0.578h-1.055
			c-0.238,0.918-0.714,1.887-1.547,2.771c0.833,0.459,1.818,0.748,2.891,0.936c0.356,0.067,0.526,0.322,0.526,0.578
			c0,0.357-0.289,0.73-0.782,0.73c-0.221,0-1.887-0.254-3.586-1.393c-1.41,1.053-3.094,1.547-3.349,1.547
			c-0.408,0-0.681-0.324-0.681-0.646c0-0.051,0-0.068,0.018-0.137c-0.119,0.238-0.238,0.442-0.307,0.545
			c-0.187,0.271-0.424,0.373-0.646,0.373c-0.306,0-0.577-0.203-0.577-0.476c0-0.085,0.033-0.188,0.102-0.289
			c0.119-0.188,0.561-0.936,0.561-1.173c0-0.119-0.085-0.17-0.322-0.188L60.375,8.916L60.375,8.916z M66.104,12.962
			c-0.986,3.808-4.572,4.59-4.76,4.59c-0.425,0-0.697-0.342-0.697-0.663c0-0.238,0.137-0.459,0.459-0.562
			c2.057-0.629,3.246-1.804,3.723-3.351l-2.262,0.051h-0.017c-0.407,0-0.612-0.286-0.612-0.575c0-0.272,0.205-0.578,0.612-0.578
			c0.697-0.019,1.581-0.019,2.482-0.019c0.017-0.203,0.034-0.407,0.034-0.61c0-0.154-0.018-0.289-0.018-0.443V10.77
			c0-0.374,0.34-0.579,0.663-0.579s0.646,0.188,0.646,0.629c0,0.356-0.017,0.697-0.051,1.02c0.646,0,1.241,0,1.752,0.018
			c1.121,0.019,1.598,0.597,1.598,1.461c0,1.105-0.289,3.979-2.94,3.979c-0.442,0-0.918-0.067-1.462-0.221
			c-0.306-0.086-0.441-0.357-0.441-0.629c0-0.324,0.203-0.646,0.561-0.646c0.068,0,0.136,0.019,0.221,0.035
			c0.442,0.152,0.816,0.236,1.156,0.236c0.425,0,1.479-0.152,1.564-2.531c0-0.394-0.221-0.578-0.629-0.578h-1.582V12.962z
			 M64.676,5.737c0.374,0.851,0.935,1.564,1.615,2.108c0.629-0.646,1.021-1.36,1.224-2.108H64.676z"/>
		<path fill="#231815" d="M89.528,15.239v0.032c0,1.021-0.662,2.177-2.838,2.177c-1.463,0-1.836-0.255-1.836-0.832
			c0-0.341,0.221-0.681,0.594-0.681c0.053,0,0.086,0.017,0.137,0.017c0.441,0.086,0.85,0.137,1.225,0.137
			c0.748,0,1.258-0.254,1.258-1.069c0-4.521-0.018-5.866-0.067-7.243c-0.033-0.867-0.308-1.207-1.258-1.224
			c-1.056-0.018-2.093-0.018-3.146-0.018c-0.068,0.663-0.205,1.292-0.408,1.921h0.068c0.561,0,4.062,2.33,4.062,3.28
			c0,0.459-0.408,0.851-0.834,0.851c-0.221,0-0.424-0.103-0.594-0.356c-0.681-1.002-1.854-1.954-2.959-2.601
			c-0.052-0.034-0.119-0.067-0.152-0.102c-1.02,2.176-2.838,3.383-3.4,3.383c-0.424,0-0.746-0.375-0.746-0.748
			c0-0.224,0.117-0.443,0.406-0.597c2.143-1.069,2.941-3.06,3.145-5.031c-0.951,0-1.887,0-2.77,0.018
			c-1.004,0.017-1.293,0.322-1.309,1.207c-0.051,2.057-0.051,4.129-0.051,6.186v3.095c0,0.426-0.357,0.629-0.716,0.629
			s-0.713-0.203-0.713-0.61V17.04c0.033-3.146,0.033-6.561,0.084-9.909c0.019-1.037,0.8-1.803,2.074-1.819
			c1.121-0.017,2.276-0.034,3.45-0.034V3.324c0-0.477,0.355-0.697,0.714-0.697s0.729,0.238,0.729,0.714c0,0.527,0,1.292-0.016,1.938
			c1.24,0,2.498,0,3.756,0.034c1.055,0.017,2.006,0.765,2.023,1.955c0.033,1.921,0.016,3.96,0.051,5.865L89.528,15.239z"/>
		<path fill="#231815" d="M103.249,9.851c-0.188-0.188-0.34-0.272-0.494-0.272c-0.152,0-0.305,0.085-0.475,0.272
			c-1.955,2.056-5.219,4.318-6.002,4.318c-0.406,0-0.662-0.34-0.662-0.683c0-0.271,0.137-0.524,0.459-0.661
			c1.904-0.781,4.029-2.447,5.27-3.774c0.373-0.391,0.85-0.595,1.344-0.595c0.476,0,0.984,0.188,1.429,0.578
			c1.598,1.412,3.245,2.55,5.2,3.349c0.341,0.135,0.476,0.408,0.476,0.662c0,0.375-0.271,0.73-0.713,0.73
			C108.331,13.775,105.526,11.977,103.249,9.851z M103.521,4.394c1.31,0,2.617,0.018,3.875,0.034
			c0.986,0.017,1.888,0.51,1.922,1.563c0.016,0.205,0.016,0.477,0.016,0.749c0,0.731-0.051,1.19-0.764,1.19
			c-0.357,0-0.697-0.204-0.697-0.578V7.318c0.018-0.119,0.018-0.306,0.018-0.493c0-1.003-0.068-1.24-1.02-1.258
			c-1.326-0.017-3.01-0.034-4.641-0.034c-1.326,0-2.619,0.018-3.64,0.034c-0.899,0.018-1.036,0.272-1.053,0.816v0.951
			c0,0.392-0.356,0.612-0.697,0.612c-0.715,0-0.715-0.527-0.715-1.241c0-1.07,0.051-2.261,1.817-2.277
			c1.312-0.017,2.687-0.034,4.08-0.034V3.306c0-0.459,0.375-0.68,0.748-0.68c0.375,0,0.748,0.221,0.748,0.68v1.088H103.521z
			 M97.3,10.241c-0.408,0-0.697-0.339-0.697-0.679c0-0.238,0.119-0.459,0.424-0.578c1.123-0.442,2.193-1.275,2.925-2.278
			c0.118-0.17,0.288-0.237,0.442-0.237c0.34,0,0.68,0.322,0.68,0.68C101.073,7.93,98.048,10.241,97.3,10.241z M105.22,17.364
			c-0.85,0.032-1.666,0.032-2.465,0.032c-0.781,0-1.562,0-2.361-0.032c-1.088-0.035-1.633-0.646-1.684-1.496
			c-0.018-0.289-0.018-0.597-0.018-0.9c0-0.407,0-0.799,0.018-1.155c0.033-0.715,0.477-1.445,1.648-1.479
			c0.629-0.019,1.358-0.035,2.106-0.035c0.918,0,1.888,0.019,2.822,0.035c0.969,0.017,1.547,0.694,1.582,1.377
			c0.017,0.322,0.032,0.681,0.032,1.037c0,0.354-0.018,0.729-0.032,1.104C106.835,16.648,106.274,17.329,105.22,17.364z
			 M105.56,14.898c0-0.256,0-0.51-0.016-0.766c-0.035-0.713-0.34-0.713-2.551-0.713c-0.764,0-1.547,0.016-2.244,0.033
			c-0.764,0.033-0.764,0.578-0.764,1.344c0,0.236,0,0.475,0.016,0.713c0.053,0.715,0.357,0.715,2.551,0.715
			c0.73,0,1.496-0.018,2.244-0.035C105.544,16.157,105.56,15.611,105.56,14.898z M107.142,9.528
			c-0.748-0.782-1.785-1.479-2.754-1.955c-0.256-0.119-0.356-0.306-0.356-0.493c0-0.306,0.271-0.595,0.663-0.595
			c0.425,0,2.517,1.088,3.435,2.04c0.17,0.17,0.236,0.356,0.236,0.544c0,0.391-0.322,0.714-0.681,0.714
			C107.499,9.783,107.312,9.714,107.142,9.528z"/>
	</g>
	<g>
		
			<line fill="none" stroke="#231815" stroke-width="1.1363" stroke-linecap="round" stroke-miterlimit="10" x1="1.573" y1="0.536" x2="12.5" y2="19.464"/>
		
			<line fill="none" stroke="#231815" stroke-width="1.1363" stroke-linecap="round" stroke-miterlimit="10" x1="143.427" y1="0.536" x2="132.501" y2="19.464"/>
	</g>
</g>
</svg>
