<?xml version="1.0" encoding="utf-8"?>
<!-- Generator: Adobe Illustrator 16.0.0, SVG Export Plug-In . SVG Version: 6.00 Build 0)  -->
<!DOCTYPE svg PUBLIC "-//W3C//DTD SVG 1.1//EN" "http://www.w3.org/Graphics/SVG/1.1/DTD/svg11.dtd">
<svg version="1.1" id="レイヤー_1" xmlns="http://www.w3.org/2000/svg" xmlns:xlink="http://www.w3.org/1999/xlink" x="0px"
	 y="0px" width="418px" height="20px" viewBox="-136.5 0 418 20" enable-background="new -136.5 0 418 20" xml:space="preserve">
<g>
	<g>
		<g>
			<path fill="#231815" d="M-95.406,7.149c-0.45,0-0.684-0.36-0.684-0.72c0-0.378,0.234-0.738,0.72-0.757
				c1.314-0.054,3.997-0.09,5.833-0.09c1.188,0,1.891,0.576,1.891,1.332c0,0.234-0.072,0.486-0.216,0.757
				c-0.612,1.08-1.278,2.16-2.052,3.151c1.098,0.666,4.916,3.041,4.916,4.211c0,0.504-0.396,0.938-0.847,0.938
				c-0.216,0-0.432-0.092-0.612-0.324c-0.9-1.135-2.863-2.863-4.375-3.746c-2.809,3.133-6.05,4.322-6.446,4.322
				c-0.468,0-0.756-0.361-0.756-0.738c0-0.324,0.18-0.648,0.648-0.811c4.879-1.746,7.832-6.787,7.832-7.309
				c0-0.306-0.288-0.323-0.792-0.323c-1.261,0-3.583,0.071-5.042,0.107H-95.406z"/>
			<path fill="#231815" d="M-71.5,14.494c0,0.504-0.414,0.9-0.846,0.9c-0.252,0-0.504-0.127-0.684-0.416
				c-0.684-1.115-2.917-3.006-4.411-3.707c-0.252-0.127-0.36-0.324-0.36-0.539c0-0.361,0.342-0.756,0.828-0.756
				c0.703,0,2.809,1.528,2.917,1.618c0.522-0.305,4.213-2.896,4.213-3.544c0-0.144-0.126-0.27-0.45-0.27h-1.278
				c-2.449,0-6.068,0.035-8.427,0.126h-0.036c-0.558,0-0.864-0.396-0.864-0.774s0.288-0.757,0.882-0.757
				c2.143-0.036,5.203-0.09,7.868-0.09c0.882,0,1.729,0,2.485,0.019c1.116,0.018,1.944,0.684,1.944,1.477
				c0,0.323-0.126,0.647-0.414,0.972c-1.044,1.171-3.025,2.752-4.681,3.833C-71.68,13.611-71.5,14.242-71.5,14.494z"/>
			<path fill="#231815" d="M-60.973,10.499c-0.558,0-0.81-0.36-0.81-0.738c0-0.396,0.288-0.793,0.81-0.793h11.344
				c0.522,0,0.774,0.379,0.774,0.774c0,0.378-0.252,0.757-0.774,0.757H-60.973z"/>
			<path fill="#231815" d="M-40.073,16.438c0,0.631-0.45,0.955-0.882,0.955c-0.396,0-0.792-0.289-0.792-0.865v-0.053
				c0.09-2.053,0.144-6.103,0.144-9.271c0-1.387-0.018-2.611-0.036-3.403V3.782c0-0.504,0.396-0.756,0.792-0.756
				c0.396,0,0.81,0.252,0.81,0.774v0.018l-0.054,4.376H-40c0.27,0,3.475,0.611,4.646,1.584c0.234,0.18,0.324,0.433,0.324,0.666
				c0,0.451-0.36,0.9-0.792,0.9c-0.162,0-0.324-0.055-0.486-0.18c-0.828-0.611-2.827-1.35-3.799-1.512v2.069
				c0,1.854,0.018,3.602,0.036,4.699V16.438z"/>
			<path fill="#231815" d="M-15.735,6.105c-0.018-0.469-0.18-0.721-1.062-0.738c-1.117-0.019-2.647-0.036-4.195-0.036v2.935
				c0,0.486-0.36,0.721-0.72,0.721c-0.36,0-0.72-0.234-0.72-0.721V5.331c-1.584,0-3.097,0.018-4.159,0.036
				c-0.9,0.018-1.099,0.234-1.117,0.756v1.171c0,0.378-0.378,0.576-0.738,0.576c-0.342,0-0.702-0.181-0.702-0.595
				c0-0.216-0.018-0.45-0.018-0.684c0-0.253,0.018-0.505,0.018-0.774c0.036-0.811,0.576-1.459,1.927-1.477
				c1.422-0.018,3.079-0.036,4.79-0.036V3.422h-4.447c-0.433,0-0.648-0.307-0.648-0.595c0-0.306,0.216-0.594,0.648-0.594h10.389
				c0.414,0,0.63,0.288,0.63,0.594c0,0.288-0.216,0.595-0.63,0.595h-4.501v0.882c1.656,0,3.295,0.019,4.699,0.036
				c1.044,0.018,1.999,0.45,2.035,1.458c0.018,0.234,0.018,0.54,0.018,0.847c0,0.702-0.018,1.188-0.756,1.188
				c-0.378,0-0.738-0.198-0.738-0.576V6.105z M-26.646,8.679c-0.36,0-0.558-0.233-0.558-0.468s0.198-0.468,0.558-0.468h2.863
				c0.36,0,0.54,0.233,0.54,0.468s-0.18,0.468-0.54,0.468H-26.646z M-21.064,15.357c0.036,0.883,0.63,0.9,2.503,0.9
				c2.017,0,3.061-0.018,3.061-1.584c0-0.432,0.342-0.631,0.685-0.631c0.378,0,0.774,0.234,0.774,0.631
				c0,2.771-2.34,2.771-4.483,2.771c-2.251,0-3.872,0-3.872-1.891v-0.594c-0.882,0-1.747-0.018-2.646-0.035
				c-1.296-0.037-1.927-0.613-1.963-1.459c-0.018-0.449-0.018-0.883-0.018-1.297c0-0.432,0-0.844,0.018-1.24
				c0.036-0.684,0.541-1.386,1.891-1.421c0.864-0.019,2.071-0.036,3.313-0.036c1.261,0,2.557,0.018,3.583,0.036
				c1.081,0.018,1.765,0.647,1.819,1.314c0.036,0.414,0.036,0.861,0.036,1.312c0,0.449,0,0.9-0.036,1.314
				c-0.054,0.811-0.756,1.439-1.909,1.477c-0.937,0.018-1.836,0.035-2.755,0.035V15.357z M-26.394,7.042
				c-0.36,0-0.558-0.234-0.558-0.469s0.198-0.468,0.558-0.468h2.611c0.36,0,0.54,0.233,0.54,0.468s-0.18,0.469-0.54,0.469H-26.394z
				 M-22.397,10.499c-0.882,0-1.692,0.017-2.323,0.035c-0.954,0.02-0.954,0.541-0.954,1.15h3.277V10.499z M-22.397,12.639h-3.277
				c0,0.18,0.018,0.359,0.018,0.521c0.018,0.541,0.342,0.703,0.954,0.721c0.667,0.018,1.477,0.018,2.305,0.018V12.639z
				 M-21.064,12.639l-0.018,1.26c0.829,0,1.639,0,2.359-0.018c0.954-0.035,0.954-0.539,0.954-1.242H-21.064z M-17.77,11.684
				c0-0.162-0.018-0.322-0.018-0.467c-0.036-0.718-0.342-0.718-3.277-0.718v1.185H-17.77z M-19.66,7.042
				c-0.36,0-0.54-0.234-0.54-0.469s0.18-0.468,0.54-0.468h2.593c0.378,0,0.559,0.233,0.559,0.468s-0.18,0.469-0.559,0.469H-19.66z
				 M-19.66,8.679c-0.36,0-0.54-0.233-0.54-0.468s0.18-0.468,0.54-0.468h2.845c0.378,0,0.558,0.233,0.558,0.468
				s-0.18,0.468-0.558,0.468H-19.66z"/>
			<path fill="#231815" d="M-6.072,16.869l0.198-8.802c-2.071,2.251-2.413,2.305-2.719,2.305c-0.45,0-0.792-0.396-0.792-0.81
				c0-0.216,0.09-0.433,0.324-0.612c1.962-1.494,3.907-3.619,5.204-6.194c0.144-0.288,0.378-0.414,0.63-0.414
				c0.432,0,0.864,0.379,0.864,0.829c0,0.521-1.458,2.448-2.035,3.168l-0.126,10.531c0,0.506-0.396,0.758-0.792,0.758
				c-0.378,0-0.756-0.252-0.756-0.738V16.869z M5.271,12.818c0.306,0,0.864,0.145,0.864,0.793c0,3.475-1.999,3.529-3.979,3.529
				c-2.107,0-3.457-0.396-3.457-2.125c0-0.756,0-11.377,0.036-11.936c0.018-0.432,0.378-0.63,0.738-0.63
				c0.378,0,0.738,0.234,0.756,0.666c0,0.378-0.018,2.719-0.036,5.222C1.49,7.689,3.201,6.735,4.209,5.979
				c0.126-0.09,0.252-0.126,0.378-0.126c0.414,0,0.792,0.414,0.792,0.864c0,0.252-0.108,0.504-0.415,0.702
				c-1.17,0.756-3.457,1.854-4.789,2.395c-0.018,2.375-0.036,4.553-0.036,4.877c0.036,0.936,0.864,1.008,2.088,1.008
				c1.477,0,2.341,0,2.341-2.07v-0.107C4.569,13.035,4.912,12.818,5.271,12.818z"/>
			<path fill="#231815" d="M11.981,12.404c0-0.721,0.054-1.439,0.126-2.14c0.216-2.07,0.667-4.016,0.829-5.113
				c0.072-0.505,0.414-0.702,0.756-0.702c0.36,0,0.738,0.252,0.738,0.666c0,0.036,0,0.09-0.018,0.144
				c-0.216,1.099-0.684,3.098-0.9,4.861c-0.072,0.613-0.126,1.207-0.126,1.746c0,0.18,0.018,1.35,0.234,1.35
				c0.036,0,0.09-0.072,0.144-0.18c0.036-0.09,0.396-0.756,0.468-0.883c0.144-0.234,0.342-0.324,0.522-0.324
				c0.324,0,0.63,0.307,0.63,0.648c0,0.09-0.018,0.197-0.072,0.289c-1.044,1.871-1.152,2.646-1.152,3.258
				c0,0.756-0.504,0.918-0.738,0.918C12.342,16.941,11.981,13.988,11.981,12.404z M21.218,16.096c-2.665,0-4.051-1.08-4.051-1.764
				c0-0.414,0.342-0.775,0.756-0.775c0.18,0,0.378,0.072,0.558,0.234c0.54,0.504,1.422,0.684,2.341,0.684
				c0.828,0,1.71-0.143,2.395-0.287c0.09-0.018,0.18-0.037,0.271-0.037c0.504,0,0.756,0.379,0.756,0.775
				c0,0.377-0.234,0.773-0.702,0.9C22.857,16.006,22.047,16.096,21.218,16.096z M22.641,7.563c-0.648-0.144-1.35-0.233-2.07-0.233
				s-1.477,0.09-2.251,0.288c-0.054,0.018-0.126,0.018-0.18,0.018c-0.396,0-0.685-0.36-0.685-0.738c0-0.288,0.18-0.594,0.63-0.702
				c0.882-0.216,1.854-0.324,2.755-0.324c1.962,0,2.737,0.288,2.737,0.99c0,0.378-0.27,0.721-0.72,0.721
				C22.785,7.582,22.713,7.582,22.641,7.563z"/>
			<path fill="#231815" d="M35.258,16.33c-0.594,0-0.9-0.379-0.9-0.775c0-0.395,0.288-0.791,0.846-0.863
				c4.862-0.684,6.842-3.025,6.842-4.751c0-1.404-1.333-2.557-3.493-2.557c-1.692,0-3.511,0.792-4.663,1.351
				c-0.811,0.396-1.657,0.846-2.557,1.26c-0.18,0.091-0.36,0.126-0.522,0.126c-0.522,0-0.846-0.414-0.846-0.846
				c0-0.324,0.18-0.648,0.612-0.828c0.792-0.324,1.711-0.738,2.683-1.135c2.737-1.116,4.267-1.314,5.33-1.314
				c3.583,0,5.096,2.305,5.096,4.033c0,1.314-0.756,2.664-2.071,3.761C38.985,15.988,35.33,16.33,35.258,16.33z"/>
			<path fill="#231815" d="M49.926,8.86c-0.054-0.864-0.09-1.225-0.09-1.692c0-0.307,0-1.116,0.828-1.116
				c0.648,0,0.756,0.504,0.756,1.278c0,0.216-0.018,0.378-0.018,0.611c0,4.877,1.909,5.67,2.161,5.67
				c0.234,0,0.612-0.162,1.242-1.584c0.145-0.324,0.396-0.451,0.63-0.451c0.414,0,0.828,0.342,0.828,0.756
				c0,0.361-1.098,2.99-2.754,2.99C52.033,15.322,50.196,13.232,49.926,8.86z M61.792,11.451c-0.27-1.458-1.08-2.862-2.089-3.564
				c-0.198-0.144-0.288-0.324-0.288-0.504c0-0.342,0.306-0.685,0.721-0.685c1.026,0,3.277,2.881,3.277,4.483
				c0,0.594-0.45,0.936-0.882,0.936C62.206,12.117,61.882,11.9,61.792,11.451z"/>
			<path fill="#231815" d="M79,16.834h-0.035c-3.908,0-6.032-2.629-6.032-5.527c0-1.925,0.937-3.437,1.495-4.103
				c0.125-0.145,0.197-0.234,0.197-0.289c0-0.018-0.018-0.035-0.055-0.035c-0.035,0-0.197,0.018-2.863,0.972
				c-0.45,0.162-1.674,0.595-2.088,0.595c-0.576,0-0.918-0.433-0.918-0.864c0-0.36,0.234-0.721,0.756-0.828
				c4.484-1.026,5.438-1.278,6.375-1.549c0.953-0.271,3.709-1.062,5.059-1.062c0.666,0,0.955,0.45,0.955,0.883
				c0,0.647-0.703,0.81-1.459,0.81h-0.359c-0.9,0-1.909,0.288-2.576,0.522c-1.404,0.504-3.078,2.539-3.078,4.717
				c0,2.086,1.422,4.031,4.321,4.031H79c0.774,0,1.171,0.432,1.171,0.865C80.171,16.402,79.793,16.834,79,16.834z"/>
			<path fill="#231815" d="M87.367,6.285c-0.451,0-0.666-0.324-0.666-0.63c0-0.324,0.215-0.648,0.666-0.648h5.329
				c0.45,0,0.666,0.324,0.666,0.63c0,0.324-0.216,0.648-0.666,0.648H87.367z M91.311,17.213c-0.379,0.018-0.865,0.035-1.369,0.035
				c-0.486,0-0.954-0.018-1.314-0.035c-0.792-0.055-1.278-0.576-1.297-1.334c0-0.467-0.018-0.881-0.018-1.295
				s0.018-0.811,0.018-1.207c0.019-0.684,0.433-1.26,1.261-1.314c0.36-0.018,0.811-0.035,1.261-0.035c0.54,0,1.098,0.018,1.53,0.035
				c0.685,0.035,1.368,0.486,1.386,1.207c0.019,0.414,0.019,0.863,0.019,1.314c0,0.449,0,0.881-0.019,1.277
				C92.75,16.617,92.191,17.158,91.311,17.213z M88.105,3.818c-0.414,0-0.613-0.306-0.613-0.63c0-0.307,0.199-0.612,0.613-0.612
				h3.871c0.414,0,0.629,0.306,0.629,0.612c0,0.324-0.215,0.63-0.629,0.63H88.105z M88.141,8.625c-0.414,0-0.63-0.306-0.63-0.612
				c0-0.324,0.216-0.63,0.63-0.63h3.871c0.414,0,0.631,0.306,0.631,0.612c0,0.324-0.217,0.63-0.631,0.63H88.141z M88.141,10.947
				c-0.414,0-0.63-0.305-0.63-0.611c0-0.324,0.216-0.631,0.63-0.631h3.871c0.414,0,0.631,0.307,0.631,0.612
				c0,0.325-0.217,0.629-0.631,0.629H88.141z M91.508,14.619c0-0.324,0-0.666-0.018-0.918c0-0.469-0.324-0.521-1.459-0.521
				c-0.342,0-0.666,0-0.883,0.018c-0.576,0.035-0.576,0.287-0.576,1.439c0,0.324,0.019,0.648,0.019,0.918
				c0.019,0.416,0.271,0.506,1.405,0.506c1.17,0,1.457-0.072,1.494-0.523C91.508,15.268,91.508,14.943,91.508,14.619z
				 M98.386,13.197l0.019,3.816c0,0.451-0.379,0.666-0.756,0.666c-0.361,0-0.738-0.215-0.738-0.666l0.018-3.816l-3.17,0.018
				c-0.449,0-0.666-0.324-0.666-0.648c0-0.307,0.217-0.629,0.666-0.629l3.17,0.018l0.018-2.069l-2.431,0.018
				c-0.433,0-0.647-0.324-0.647-0.648c0-0.306,0.215-0.63,0.647-0.63l2.431,0.018V6.789l-2.736,0.019
				c-0.433,0-0.648-0.324-0.648-0.648c0-0.306,0.216-0.63,0.648-0.63H97.9c0.414-0.702,1.115-2.106,1.367-2.917
				c0.109-0.342,0.361-0.486,0.631-0.486c0.396,0,0.828,0.307,0.828,0.738c0,0.271-0.342,0.954-1.422,2.665h2.358
				c0.414,0,0.63,0.324,0.63,0.63c0,0.324-0.216,0.648-0.63,0.648l-3.296-0.019v1.854l2.539-0.018c0.414,0,0.631,0.324,0.631,0.63
				c0,0.324-0.217,0.648-0.631,0.648l-2.521-0.018v2.069l3.638-0.018c0.414,0,0.63,0.322,0.63,0.629c0,0.324-0.216,0.648-0.63,0.648
				L98.386,13.197z M95.793,4.791c-0.27-0.63-0.864-1.297-1.116-1.585c-0.108-0.107-0.144-0.233-0.144-0.359
				c0-0.324,0.324-0.631,0.701-0.631c0.595,0,1.873,1.639,1.873,2.215c0,0.433-0.396,0.756-0.756,0.756
				C96.135,5.186,95.92,5.079,95.793,4.791z"/>
			<path fill="#231815" d="M112.659,16.996c-2.034,0-3.655-1.062-3.745-3.547c-0.018-0.289-0.018-0.559-0.018-0.828
				c0-1.529,0.162-2.897,0.234-4.518c0.053-1.044,0.143-2.557,0.143-3.673V3.999c-0.018-0.828,0.757-0.828,0.811-0.828
				c0.433,0,0.883,0.287,0.883,0.773c0,0.702-0.198,3.421-0.252,4.105c-0.108,1.692-0.324,3.167-0.324,4.716
				c0,0.936,0.035,2.682,2.232,2.682c1.242,0,2.881-0.666,4.483-1.943c0.216-0.182,0.433-0.254,0.63-0.254
				c0.451,0,0.811,0.434,0.811,0.883c0,0.234-0.107,0.504-0.359,0.703C116.512,16.186,114.441,16.996,112.659,16.996z"/>
			<path fill="#231815" d="M128.752,16.924c-0.99-2.035-2.594-4.43-3.854-5.904c-0.559-0.648-0.846-1.278-0.846-1.89
				c0-0.684,0.342-1.368,1.043-2.088c1.243-1.279,2.684-2.629,3.746-4.105c0.197-0.271,0.449-0.378,0.684-0.378
				c0.469,0,0.9,0.396,0.9,0.864c0,0.18-0.054,0.359-0.197,0.54c-0.973,1.206-2.773,2.719-3.962,3.907
				c-0.45,0.45-0.647,0.81-0.647,1.17c0,0.307,0.144,0.63,0.449,0.99c1.746,2.177,3.295,3.958,4.213,5.941
				c0.072,0.143,0.109,0.287,0.109,0.432c0,0.539-0.505,0.973-0.973,0.973C129.166,17.375,128.914,17.248,128.752,16.924z"/>
			<path fill="#231815" d="M141.98,10.228c-0.036,0.577-0.09,1.151-0.217,1.69c0.162,0.109,3.26,2.18,3.26,3.26
				c0,0.469-0.414,0.863-0.811,0.863c-0.234,0-0.449-0.107-0.611-0.395c-0.451-0.793-1.441-1.801-2.215-2.432
				c-0.595,1.584-1.693,2.971-3.494,4.141c-0.197,0.127-0.377,0.182-0.558,0.182c-0.433,0-0.757-0.344-0.757-0.721
				c0-0.217,0.109-0.451,0.396-0.631c2.594-1.584,3.439-3.582,3.602-5.958h-2.791c-0.45,0-0.666-0.306-0.666-0.63
				c0-0.343,0.234-0.685,0.666-0.685h2.826V5.96l-1.08,0.036c-0.846,2.089-1.225,2.269-1.71,2.269c-0.396,0-0.738-0.252-0.738-0.612
				c0-0.144,0.054-0.288,0.181-0.468c1.043-1.387,1.548-3.097,1.8-4.663c0.054-0.307,0.324-0.45,0.612-0.45
				c0.396,0,0.846,0.252,0.846,0.648c0,0.396-0.414,1.656-0.504,1.944h3.926c0.449,0,0.666,0.324,0.666,0.666
				c0,0.324-0.217,0.666-0.666,0.666h-0.019l-1.908-0.036v2.953h2.341c0.432,0,0.648,0.324,0.648,0.648
				c0,0.342-0.217,0.666-0.648,0.666H141.98z M148.895,16.779c-1.801,0-3.188-0.035-3.241-1.871
				c-0.036-1.369-0.054-2.846-0.054-4.303c0-1.476,0.018-2.953,0.054-4.302c0.054-1.693,1.729-1.693,3.097-1.693
				c0.486,0,0.99,0.019,1.459,0.036c1.062,0.036,1.801,0.685,1.836,1.783c0.055,1.224,0.072,2.593,0.072,3.979
				c0,1.53-0.018,3.077-0.072,4.463c-0.035,1.08-0.666,1.801-1.854,1.873C149.812,16.762,149.345,16.779,148.895,16.779z
				 M150.659,10.588c0-1.386-0.019-2.737-0.054-3.799c-0.037-0.899-0.666-0.918-1.729-0.918c-1.314,0-1.747,0.145-1.766,0.918
				c-0.035,1.045-0.053,2.323-0.053,3.638c0,1.439,0.018,2.933,0.053,4.103c0.019,0.865,0.541,0.918,1.838,0.918
				c1.367,0,1.638-0.252,1.656-0.953C150.641,13.359,150.659,11.955,150.659,10.588z"/>
			<path fill="#231815" d="M160.593,17.807c-0.45,0-0.792-0.307-0.792-0.684c0-0.271,0.18-0.576,0.576-0.848
				c2.215-1.439,3.691-4.105,3.691-7.001c0-0.396-0.072-3.961-1.837-3.961c-1.296,0-2.251,1.476-2.251,3.745
				c0,0.323,0.018,0.666,0.036,1.062v0.091c0,0.719-0.433,1.061-0.864,1.061c-0.773,0-0.828-0.684-0.828-1.421
				c0-1.278,0.252-2.683,0.432-3.565c0.199-0.937,0.523-2.124,0.666-3.241c0.055-0.449,0.396-0.647,0.757-0.647
				c0.378,0,0.774,0.252,0.774,0.72c0,0.162-0.162,1.207-0.469,1.909c-0.071,0.161-0.107,0.233-0.107,0.27
				c0,0.019,0.018,0.019,0.018,0.019c0.019,0,0.127-0.127,0.217-0.253c0.701-1.008,1.729-1.026,1.908-1.026
				c2.898,0,3.133,4.322,3.133,5.42c0,2.843-1.206,5.849-4.23,8.046C161.133,17.717,160.846,17.807,160.593,17.807z"/>
			<path fill="#231815" d="M173.822,7.456c-1.872,0-2.178-0.631-2.178-1.062c0-0.324,0.197-0.631,0.611-0.631
				c0.127,0,0.252,0.019,0.396,0.072c0.45,0.162,0.954,0.234,1.477,0.234c0.396,0,0.811-0.054,1.206-0.126
				c0.054-0.307,0.072-0.576,0.072-0.828c0-0.396-0.036-0.774-0.072-1.225V3.836c0-0.433,0.36-0.648,0.738-0.648
				c0.63,0,0.864,0.36,0.864,1.314c0,0.324-0.018,0.63-0.072,0.954c0.342-0.144,0.666-0.324,0.955-0.504
				c0.125-0.09,0.27-0.126,0.396-0.126c0.396,0,0.738,0.342,0.738,0.738c0,0.45-0.485,0.846-2.448,1.458
				c-1.135,3.979-2.449,7.147-3.35,9.163c-0.18,0.396-0.521,0.576-0.846,0.576c-0.396,0-0.756-0.27-0.756-0.738
				c0-0.162,0.035-0.359,0.143-0.576c0.793-1.621,2.125-4.482,3.242-8.083C174.561,7.419,174.183,7.456,173.822,7.456z
				 M181.745,16.654c-2.323,0-4.231-0.973-4.231-1.908c0-0.451,0.36-0.865,0.774-0.865c0.181,0,0.378,0.09,0.558,0.289
				c0.595,0.648,1.333,0.846,2.413,0.846c0.54,0,1.171-0.055,1.909-0.127h0.125c0.522,0,0.793,0.379,0.793,0.758
				C184.086,16.24,183.707,16.654,181.745,16.654z M183.438,9.184c-0.666-0.234-1.566-0.396-2.395-0.396
				c-0.504,0-0.99,0.054-1.369,0.198c-0.09,0.036-0.162,0.054-0.252,0.054c-0.359,0-0.594-0.324-0.594-0.648
				c0-0.954,1.963-1.026,2.574-1.026c0.738,0,1.566,0.108,2.395,0.415c0.415,0.144,0.576,0.468,0.576,0.756
				c0,0.36-0.252,0.702-0.647,0.702C183.636,9.238,183.545,9.219,183.438,9.184z"/>
			<path fill="#231815" d="M191.048,8.86c-0.054-0.864-0.09-1.225-0.09-1.692c0-0.307,0-1.116,0.828-1.116
				c0.648,0,0.757,0.504,0.757,1.278c0,0.216-0.019,0.378-0.019,0.611c0,4.877,1.909,5.67,2.161,5.67
				c0.234,0,0.611-0.162,1.242-1.584c0.145-0.324,0.396-0.451,0.63-0.451c0.414,0,0.828,0.342,0.828,0.756
				c0,0.361-1.099,2.99-2.755,2.99C193.154,15.322,191.318,13.232,191.048,8.86z M202.914,11.451
				c-0.271-1.458-1.08-2.862-2.09-3.564c-0.197-0.144-0.287-0.324-0.287-0.504c0-0.342,0.306-0.685,0.721-0.685
				c1.025,0,3.276,2.881,3.276,4.483c0,0.594-0.45,0.936-0.882,0.936C203.328,12.117,203.004,11.9,202.914,11.451z"/>
			<path fill="#231815" d="M218.031,5.979c-0.072,0.756-0.18,1.512-0.342,2.232c0.703-0.018,1.477-0.018,2.215-0.018h0.9
				c1.17,0.018,1.873,0.702,1.873,1.872c0,6.264-2.449,7.399-4.557,7.399c-0.701,0-1.494-0.145-2.376-0.414
				c-0.324-0.109-0.468-0.379-0.468-0.686c0-0.395,0.27-0.811,0.701-0.811c0.109,0,0.199,0.02,0.307,0.055
				c0.666,0.252,1.297,0.396,1.854,0.396c1.044,0,3.007-0.486,3.007-5.76c0-0.558-0.378-0.773-0.828-0.773h-0.576
				c-0.773,0-1.621,0.018-2.377,0.018c-1.025,3.438-3.15,6.299-6.518,7.975c-0.162,0.072-0.324,0.107-0.469,0.107
				c-0.468,0-0.81-0.379-0.81-0.773c0-0.271,0.144-0.541,0.504-0.703c4.304-2.053,6.104-6.011,6.392-10.117l-5.707,0.036
				c-0.486,0-0.721-0.343-0.721-0.685c0-0.36,0.252-0.738,0.721-0.738h6.014V2.666c0-0.45,0.396-0.684,0.792-0.684
				s0.792,0.233,0.792,0.684v1.927h5.941c0.451,0,0.686,0.36,0.686,0.721c0,0.359-0.217,0.702-0.686,0.702L218.031,5.979z"/>
			<path fill="#231815" d="M231.458,16.275c-0.324-1.043-0.45-2.25-0.45-3.51c0-0.92,0.055-1.871,0.162-2.808
				c0.234-2.196,0.648-4.267,0.738-5.455c0.036-0.576,0.414-0.811,0.773-0.811c0.396,0,0.793,0.271,0.793,0.721
				c0,0.036-0.018,0.09-0.018,0.126c-0.127,0.828-0.414,2.448-0.648,3.997c-0.198,1.26-0.379,2.664-0.379,3.599
				c0,0.756,0.127,0.846,0.127,0.846c0.054,0,0.107-0.107,0.197-0.287c0.09-0.162,0.324-0.738,0.396-0.883
				c0.107-0.234,0.307-0.322,0.504-0.322c0.307,0,0.613,0.25,0.613,0.682c0,0.162-0.037,0.344-0.127,0.541
				c-0.864,1.873-1.08,2.754-1.08,3.385c0,0.703-0.45,0.918-0.793,0.918C231.944,17.014,231.62,16.799,231.458,16.275z
				 M241.973,13.342c0.793,0.359,1.514,0.846,2.09,1.367c0.233,0.217,0.323,0.451,0.323,0.686c0,0.467-0.36,0.863-0.774,0.863
				c-0.18,0-0.359-0.072-0.54-0.252c-0.36-0.379-0.81-0.721-1.278-1.045c-0.414,1.08-1.711,2.035-3.15,2.035
				c-1.441,0-2.737-0.973-2.737-2.197c0-1.17,1.225-2.16,3.097-2.16c0.522,0,1.045,0.072,1.566,0.197
				c0-0.342-0.018-0.684-0.054-1.098c-0.054-0.756-0.126-2.23-0.181-3.707c-0.701,0.126-1.404,0.197-2.124,0.197
				c-0.919,0-1.71-0.035-1.71-0.792c0-0.36,0.27-0.738,0.791-0.738c0.072,0,0.145,0,0.217,0.019c0.324,0.054,0.648,0.071,0.99,0.071
				c0.576,0,1.188-0.054,1.801-0.161c0-0.541-0.018-1.045-0.018-1.477c0-0.45,0.018-0.847,0.018-1.135
				c0.018-0.486,0.378-0.702,0.756-0.702c0.379,0,0.738,0.216,0.738,0.612V3.98c-0.035,0.54-0.072,1.387-0.072,2.341l1.117-0.324
				c0.09-0.036,0.18-0.036,0.27-0.036c0.45,0,0.793,0.36,0.793,0.738c0,0.288-0.217,0.595-0.738,0.721l-1.423,0.342
				c0.019,1.458,0.071,2.917,0.126,3.833c0.018,0.451,0.09,1.045,0.107,1.639V13.342z M240.443,14.242
				c-0.811-0.271-1.225-0.344-1.657-0.344c-1.206,0-1.566,0.504-1.566,0.865c0,0.811,1.206,0.828,1.333,0.828
				c0.828,0,1.691-0.451,1.891-1.297V14.242z"/>
		</g>
		<g>
			
				<line fill="none" stroke="#231815" stroke-width="1.1363" stroke-linecap="round" stroke-miterlimit="10" x1="-135.05" y1="0.538" x2="-124.123" y2="19.463"/>
			
				<line fill="none" stroke="#231815" stroke-width="1.1363" stroke-linecap="round" stroke-miterlimit="10" x1="280.051" y1="0.538" x2="269.123" y2="19.463"/>
		</g>
	</g>
</g>
</svg>
