<?xml version="1.0" encoding="utf-8"?>
<!-- Generator: Adobe Illustrator 16.0.0, SVG Export Plug-In . SVG Version: 6.00 Build 0)  -->
<!DOCTYPE svg PUBLIC "-//W3C//DTD SVG 1.1//EN" "http://www.w3.org/Graphics/SVG/1.1/DTD/svg11.dtd">
<svg version="1.1" id="レイヤー_1" xmlns="http://www.w3.org/2000/svg" xmlns:xlink="http://www.w3.org/1999/xlink" x="0px"
	 y="0px" width="150px" height="20px" viewBox="5 0 150 20" enable-background="new 5 0 150 20" xml:space="preserve">
<g>
	<g>
		<path fill="#231815" d="M51.622,4.769c-0.204-0.238-0.374-0.356-0.527-0.356s-0.306,0.118-0.493,0.356
			c-1.394,1.768-3.586,3.876-5.524,5.134c-0.221,0.136-0.425,0.204-0.612,0.204c-0.459,0-0.799-0.374-0.799-0.766
			c0-0.255,0.153-0.51,0.476-0.68c2.006-1.037,4.165-3.179,5.457-4.878c0.374-0.511,0.867-0.766,1.394-0.766
			c0.493,0,1.02,0.238,1.496,0.766c1.683,1.802,3.536,3.314,5.575,4.368c0.289,0.153,0.408,0.374,0.408,0.612
			c0,0.425-0.374,0.866-0.867,0.866C56.79,9.63,53.628,7.013,51.622,4.769z M50.568,12.078c-0.323,1.037-0.799,2.413-1.343,3.569
			c1.717-0.136,3.417-0.34,5.048-0.595c-0.459-0.425-0.935-0.833-1.445-1.173c-0.204-0.153-0.306-0.323-0.306-0.493
			c0-0.306,0.306-0.578,0.68-0.578c1.037,0,4.028,2.941,4.028,3.808c0,0.442-0.408,0.782-0.816,0.782
			c-0.221,0-0.459-0.103-0.595-0.374c-0.187-0.357-0.408-0.68-0.646-0.986c-3.349,0.714-8.346,1.173-9.298,1.173
			c-0.425,0-0.646-0.356-0.646-0.696c0-0.323,0.204-0.646,0.595-0.663c0.629-0.017,1.275-0.068,1.904-0.102
			c0.51-1.055,0.986-2.482,1.292-3.655l-3.4,0.018c-0.459,0-0.68-0.307-0.68-0.629c0-0.323,0.238-0.663,0.68-0.663h10.862
			c0.459,0,0.697,0.322,0.697,0.646s-0.238,0.646-0.697,0.646L50.568,12.078z M48.665,8.95c-0.442,0-0.663-0.323-0.663-0.646
			c0-0.323,0.221-0.646,0.663-0.646h5.031c0.442,0,0.663,0.323,0.663,0.646c0,0.322-0.221,0.646-0.68,0.646H48.665z"/>
		<path fill="#231815" d="M67.62,17.059c0,0.391-0.357,0.578-0.697,0.578c-0.374,0-0.731-0.188-0.731-0.578v-0.018l0.068-5.796
			c-0.119,0.119-1.598,1.462-2.278,1.462c-0.425,0-0.73-0.323-0.73-0.68c0-0.222,0.119-0.442,0.408-0.596
			c2.89-1.563,4.454-4.352,4.454-4.726c0-0.152-0.136-0.237-0.374-0.237h-0.306c-1.003,0-1.989,0.067-3.008,0.085h-0.017
			c-0.442,0-0.663-0.307-0.663-0.629c0-0.307,0.221-0.612,0.646-0.612l1.802-0.034V3.46c0-0.442,0.357-0.663,0.714-0.663
			S67.62,3.018,67.62,3.46l-0.017,1.802c0.238,0,0.458,0.017,0.68,0.017c0.901,0.018,1.36,0.425,1.36,1.037
			c0,0.918-1.411,2.771-2.108,3.604c0.017,2.227,0.085,7.122,0.085,7.122V17.059z M69.625,12.163
			c-0.357-0.527-1.02-1.054-1.462-1.292c-0.153-0.085-0.221-0.221-0.221-0.357c0-0.306,0.289-0.629,0.663-0.629
			c0.323,0,2.193,1.003,2.193,1.785c0,0.408-0.34,0.765-0.697,0.765C69.932,12.435,69.762,12.35,69.625,12.163z M69.218,16.871
			c-0.442,0-0.68-0.322-0.68-0.646s0.238-0.646,0.68-0.646l3.569,0.018L72.77,9.409l-2.431,0.017c-0.442,0-0.68-0.322-0.68-0.646
			s0.238-0.646,0.68-0.646l2.431,0.017V3.715c0-0.442,0.357-0.663,0.714-0.663c0.374,0,0.731,0.221,0.731,0.663v4.437l2.686-0.017
			c0.459,0,0.68,0.322,0.68,0.646s-0.221,0.646-0.68,0.646l-2.686-0.017l-0.017,6.188l3.501-0.018c0.459,0,0.68,0.323,0.68,0.646
			s-0.221,0.646-0.68,0.646H69.218z"/>
		<path fill="#231815" d="M96.773,13.659l-4.963-0.068c1.784,1.189,3.518,1.785,5.456,2.295c0.34,0.085,0.476,0.322,0.476,0.578
			c0,0.34-0.289,0.714-0.73,0.714c-0.544,0-3.672-1.207-5.881-2.822l0.051,2.788v0.017c0,0.374-0.34,0.562-0.664,0.562
			c-0.34,0-0.68-0.188-0.68-0.562v-0.017l0.034-2.737c-2.413,1.819-5.507,2.89-5.915,2.89s-0.68-0.306-0.68-0.611
			c0-0.238,0.152-0.493,0.543-0.595c2.092-0.596,3.672-1.275,5.355-2.499l-4.828,0.068H84.33c-0.391,0-0.577-0.272-0.577-0.544
			c0-0.289,0.204-0.578,0.595-0.578l5.508,0.017l-0.018-0.833v-0.017c0-0.392,0.323-0.578,0.663-0.578
			c0.341,0,0.663,0.187,0.663,0.578v0.017l-0.018,0.833l5.627-0.017c0.391,0,0.578,0.289,0.578,0.561
			c0,0.289-0.188,0.562-0.561,0.562H96.773z M93.322,7.522c-0.17,0.561-0.407,1.07-0.713,1.513c1.479,0.34,2.754,0.816,3.62,1.377
			c0.222,0.136,0.306,0.323,0.306,0.51c0,0.34-0.306,0.68-0.68,0.68c-0.136,0-0.271-0.033-0.408-0.136
			c-0.951-0.663-2.192-1.207-3.62-1.563c-1.326,1.122-3.434,1.699-6.579,1.699h-0.662c-0.426-0.017-0.629-0.306-0.629-0.577
			c0-0.272,0.188-0.544,0.595-0.544h0.034c0.34,0.017,0.662,0.017,0.986,0.017c2.09,0,3.688-0.255,4.793-0.901
			c-0.68-0.102-1.395-0.187-2.125-0.221l-0.085,0.136c-0.17,0.238-0.442,0.357-0.696,0.357c-0.34,0-0.629-0.188-0.629-0.459
			c0-0.085,0.033-0.187,0.119-0.306c0.407-0.544,0.713-1.071,0.969-1.581l-3.621,0.017c-0.374,0-0.561-0.271-0.561-0.526
			c0-0.272,0.187-0.527,0.561-0.527l4.062,0.017c0.119-0.306,0.255-0.611,0.374-0.951c0.085-0.238,0.34-0.357,0.595-0.357
			c0.34,0,0.68,0.188,0.68,0.442c0,0.034,0,0.085-0.017,0.119L89.686,6.52l7.088-0.034c0.357,0,0.544,0.255,0.544,0.527
			c0,0.255-0.187,0.526-0.544,0.526L93.322,7.522z M94.496,4.922c-1.174-0.018-2.635-0.034-4.062-0.034
			c-1.445,0-2.855,0.017-3.961,0.034c-0.714,0.017-0.867,0.17-0.884,0.476v0.408c0,0.323-0.323,0.493-0.663,0.493
			c-0.714,0-0.714-0.527-0.714-0.885c0-0.595,0.085-1.495,1.784-1.513c1.293-0.017,2.567-0.017,3.842-0.017V3.171
			c0-0.459,0.375-0.697,0.748-0.697c0.357,0,0.73,0.238,0.73,0.697v0.714c1.174,0,2.363,0,3.57,0.017
			c1.887,0.018,1.938,0.799,1.938,1.513c0,0.459-0.033,0.816-0.697,0.816c-0.34,0-0.68-0.153-0.68-0.425V5.363
			C95.431,5.074,95.277,4.938,94.496,4.922z M89.26,7.522c-0.152,0.34-0.322,0.663-0.492,0.985c0.884,0.052,1.75,0.137,2.566,0.272
			c0.289-0.357,0.51-0.765,0.663-1.258H89.26z"/>
		<path fill="#231815" d="M116.748,15.239v0.034c0,1.02-0.662,2.176-2.838,2.176c-1.462,0-1.836-0.255-1.836-0.833
			c0-0.34,0.221-0.68,0.595-0.68c0.052,0,0.085,0.017,0.136,0.017c0.442,0.085,0.851,0.137,1.225,0.137
			c0.748,0,1.258-0.255,1.258-1.071c0-4.521-0.018-5.864-0.068-7.241c-0.033-0.867-0.306-1.207-1.258-1.224
			c-1.054-0.018-2.091-0.018-3.145-0.018c-0.068,0.663-0.204,1.292-0.408,1.921h0.068c0.561,0,4.062,2.329,4.062,3.281
			c0,0.459-0.408,0.85-0.833,0.85c-0.222,0-0.425-0.102-0.595-0.357c-0.68-1.003-1.854-1.954-2.958-2.601
			c-0.051-0.034-0.118-0.067-0.153-0.102c-1.02,2.176-2.838,3.383-3.399,3.383c-0.425,0-0.747-0.374-0.747-0.748
			c0-0.222,0.118-0.442,0.407-0.595c2.142-1.071,2.94-3.061,3.145-5.032c-0.952,0-1.887,0-2.771,0.018
			c-1.003,0.017-1.292,0.322-1.309,1.207c-0.051,2.057-0.051,4.13-0.051,6.187v3.094c0,0.426-0.357,0.629-0.715,0.629
			c-0.356,0-0.713-0.203-0.713-0.611v-0.018c0.033-3.145,0.033-6.561,0.084-9.909c0.018-1.037,0.799-1.803,2.074-1.819
			c1.122-0.017,2.277-0.034,3.451-0.034V3.324c0-0.477,0.356-0.697,0.713-0.697c0.357,0,0.731,0.238,0.731,0.714
			c0,0.527,0,1.292-0.017,1.938c1.24,0,2.498,0,3.756,0.034c1.055,0.017,2.006,0.765,2.023,1.955
			c0.033,1.921,0.017,3.96,0.051,5.864L116.748,15.239z"/>
	</g>
	<g>
		
			<line fill="none" stroke="#231815" stroke-width="1.1363" stroke-linecap="round" stroke-miterlimit="10" x1="9.072" y1="0.536" x2="20" y2="19.464"/>
		
			<line fill="none" stroke="#231815" stroke-width="1.1363" stroke-linecap="round" stroke-miterlimit="10" x1="150.928" y1="0.536" x2="140" y2="19.464"/>
	</g>
</g>
</svg>
