<?xml version="1.0" encoding="utf-8"?>
<!-- Generator: Adobe Illustrator 16.0.0, SVG Export Plug-In . SVG Version: 6.00 Build 0)  -->
<!DOCTYPE svg PUBLIC "-//W3C//DTD SVG 1.1//EN" "http://www.w3.org/Graphics/SVG/1.1/DTD/svg11.dtd">
<svg version="1.1" id="レイヤー_1" xmlns="http://www.w3.org/2000/svg" xmlns:xlink="http://www.w3.org/1999/xlink" x="0px"
	 y="0px" width="145px" height="20px" viewBox="82.667 0 145 20" enable-background="new 82.667 0 145 20" xml:space="preserve">
<g>
	<g>
		<path fill="#231815" d="M132.637,13.251l-5.065-0.068c1.853,1.377,3.621,2.074,5.66,2.736c0.323,0.102,0.476,0.357,0.476,0.596
			c0,0.373-0.323,0.764-0.765,0.764s-3.654-1.359-6.034-3.264l0.051,3.162v0.018c0,0.373-0.34,0.578-0.697,0.578
			c-0.34,0-0.68-0.205-0.68-0.578v-0.018l0.034-3.145c-2.38,2.006-5.592,3.314-6.017,3.314c-0.425,0-0.731-0.322-0.731-0.662
			c0-0.221,0.153-0.459,0.51-0.596c2.176-0.766,3.773-1.514,5.49-2.906l-4.963,0.068h-0.017c-0.357,0-0.544-0.273-0.544-0.545
			c0-0.289,0.187-0.561,0.561-0.561l5.711,0.033l-0.017-0.918l-3.978,0.018c-0.323,0-0.493-0.254-0.493-0.492
			c0-0.256,0.17-0.494,0.493-0.494l3.978,0.018l-0.017-0.901l-4.828,0.017c-0.374,0-0.561-0.271-0.561-0.544
			c0-0.255,0.187-0.526,0.561-0.526h3.145c-0.119-0.307-0.306-0.612-0.459-0.833c-0.051-0.085-0.085-0.153-0.085-0.221
			c0-0.272,0.357-0.442,0.68-0.442c0.697,0,1.104,1.054,1.207,1.394c0.017,0.034,0.017,0.068,0.017,0.103l0.561,0.017l1.479-0.017
			c0.17-0.323,0.34-0.833,0.408-1.19c0.034-0.204,0.204-0.322,0.391-0.356l-1.836-0.018l-6.459,0.018
			c-0.391,0-0.595-0.307-0.595-0.595c0-0.307,0.204-0.596,0.595-0.596l2.465,0.018c-0.272-0.459-0.629-0.867-0.986-1.258
			c-0.085-0.103-0.136-0.204-0.136-0.289c0-0.306,0.391-0.578,0.748-0.578c0.119,0,0.221,0.017,0.323,0.085
			c0.442,0.289,1.394,1.768,1.394,2.057h0.799l-0.034-2.38c0-0.407,0.323-0.611,0.646-0.611c0.323,0,0.646,0.204,0.646,0.611v2.397
			h1.139V3.272c0-0.407,0.323-0.611,0.646-0.611s0.646,0.204,0.646,0.611l-0.017,2.397l0.748-0.018
			c0.374-0.526,0.731-1.24,0.952-1.768c0.136-0.306,0.374-0.442,0.629-0.442c0.357,0,0.731,0.272,0.731,0.646
			c0,0.255-0.374,0.85-0.918,1.547l2.567-0.018h0.017c0.391,0,0.578,0.289,0.578,0.596c0,0.288-0.187,0.595-0.595,0.595h-4.454
			C128.66,6.875,129,7.097,129,7.403c0,0.153-0.221,0.646-0.374,0.952h3.111c0.357,0,0.544,0.271,0.544,0.544
			c0,0.255-0.187,0.526-0.544,0.526l-4.793-0.017v0.901l3.926-0.018c0.34,0,0.51,0.256,0.51,0.494c0,0.254-0.17,0.492-0.51,0.492
			h-3.943l-0.017,0.9l5.729-0.033c0.374,0,0.544,0.271,0.544,0.561c0,0.271-0.17,0.545-0.527,0.545H132.637z"/>
		<path fill="#231815" d="M143.042,8.916v4.25c0,0.271,0.017,1.717,0.034,2.312v0.084c0,1.037-0.527,1.871-2.006,1.871
			c-0.663,0-1.496-0.035-1.496-0.783c0-0.34,0.204-0.662,0.561-0.662c0.034,0,0.068,0.018,0.119,0.018
			c0.255,0.051,0.51,0.084,0.731,0.084c0.459,0,0.782-0.17,0.799-0.766c0-0.594,0.017-3.145,0.017-3.145
			c0-0.441,0.017-0.867,0.017-1.273c-0.68,1.121-1.479,2.191-2.244,2.99c-0.17,0.17-0.34,0.238-0.51,0.238
			c-0.357,0-0.646-0.305-0.646-0.662c0-0.17,0.085-0.357,0.271-0.527c0.952-0.832,2.227-2.432,3.06-4.011L139.371,9h-0.017
			c-0.357,0-0.544-0.271-0.544-0.561s0.187-0.578,0.561-0.595c0.731-0.018,1.853-0.018,2.924-0.018l-0.017-0.034
			c-0.425-0.577-1.139-1.02-1.564-1.258c-0.153-0.085-0.221-0.221-0.221-0.356c0-0.289,0.272-0.578,0.595-0.578
			c0.238,0,0.782,0.34,1.105,0.561c0.459-0.425,1.241-1.309,1.241-1.495c0-0.085-0.068-0.119-0.17-0.119
			c-0.782,0-3.247,0.102-3.247,0.102H140c-0.391,0-0.595-0.289-0.595-0.595c0-0.289,0.204-0.595,0.612-0.595
			c0,0,2.822-0.034,3.875-0.034c0.714,0,1.105,0.391,1.105,0.9c0,0.238-0.085,0.511-0.289,0.766
			c-0.442,0.561-1.207,1.343-1.683,1.751l0.136,0.152c0.102,0.119,0.136,0.255,0.136,0.374c0,0.188-0.068,0.34-0.187,0.459
			c0.391,0,0.765,0.018,1.071,0.018c0.629,0.017,1.224,0.374,1.224,1.036c0,0.255-0.17,0.714-0.357,1.122
			c0.068-0.119,0.187-0.22,0.391-0.271c1.071-0.289,1.938-0.681,2.618-1.14c-0.629-0.577-1.156-1.24-1.53-2.005
			c-0.731,0.951-0.935,1.139-1.275,1.139s-0.663-0.238-0.663-0.562c0-0.136,0.068-0.289,0.221-0.441
			c0.935-0.901,1.734-2.193,2.227-3.468c0.102-0.255,0.323-0.357,0.561-0.357c0.34,0,0.714,0.238,0.714,0.578
			c0,0.085-0.034,0.323-0.51,1.156l4.76-0.051c0.391,0,0.578,0.289,0.578,0.577c0,0.289-0.187,0.578-0.578,0.578h-1.054
			c-0.238,0.918-0.714,1.887-1.547,2.771c0.833,0.459,1.819,0.748,2.89,0.936c0.357,0.067,0.527,0.322,0.527,0.578
			c0,0.357-0.289,0.73-0.782,0.73c-0.221,0-1.887-0.254-3.586-1.393c-1.411,1.053-3.094,1.547-3.349,1.547
			c-0.408,0-0.68-0.324-0.68-0.646c0-0.051,0-0.068,0.017-0.137c-0.119,0.238-0.238,0.443-0.306,0.545
			c-0.187,0.271-0.425,0.373-0.646,0.373c-0.306,0-0.578-0.203-0.578-0.475c0-0.086,0.034-0.188,0.102-0.289
			c0.119-0.188,0.561-0.936,0.561-1.173c0-0.119-0.085-0.17-0.323-0.188H143.042z M148.771,12.962
			c-0.986,3.807-4.572,4.59-4.759,4.59c-0.425,0-0.697-0.342-0.697-0.664c0-0.238,0.136-0.459,0.458-0.561
			c2.057-0.629,3.247-1.803,3.723-3.35l-2.261,0.051h-0.017c-0.408,0-0.612-0.287-0.612-0.576c0-0.273,0.204-0.578,0.612-0.578
			c0.697-0.018,1.581-0.018,2.482-0.018c0.017-0.203,0.034-0.408,0.034-0.611c0-0.154-0.017-0.289-0.017-0.443v-0.033
			c0-0.373,0.34-0.578,0.663-0.578c0.323,0,0.646,0.188,0.646,0.629c0,0.357-0.017,0.697-0.051,1.02c0.646,0,1.241,0,1.751,0.018
			c1.122,0.018,1.598,0.596,1.598,1.461c0,1.105-0.289,3.979-2.94,3.979c-0.442,0-0.918-0.068-1.462-0.221
			c-0.306-0.086-0.442-0.357-0.442-0.629c0-0.324,0.204-0.646,0.561-0.646c0.068,0,0.136,0.018,0.221,0.035
			c0.442,0.152,0.816,0.236,1.156,0.236c0.425,0,1.479-0.152,1.564-2.531c0-0.393-0.221-0.578-0.629-0.578H148.771z M147.343,5.737
			c0.374,0.851,0.935,1.564,1.615,2.108c0.629-0.646,1.02-1.36,1.224-2.108H147.343z"/>
		<path fill="#231815" d="M172.195,15.239v0.033c0,1.02-0.662,2.176-2.838,2.176c-1.463,0-1.836-0.254-1.836-0.832
			c0-0.34,0.221-0.68,0.594-0.68c0.053,0,0.086,0.016,0.137,0.016c0.441,0.086,0.85,0.137,1.225,0.137
			c0.748,0,1.258-0.254,1.258-1.07c0-4.521-0.018-5.865-0.068-7.242c-0.033-0.867-0.307-1.207-1.258-1.224
			c-1.055-0.018-2.092-0.018-3.145-0.018c-0.068,0.663-0.205,1.292-0.408,1.921h0.068c0.561,0,4.062,2.33,4.062,3.281
			c0,0.459-0.408,0.85-0.834,0.85c-0.221,0-0.424-0.102-0.594-0.357c-0.68-1.002-1.854-1.953-2.959-2.6
			c-0.051-0.034-0.119-0.067-0.152-0.102c-1.02,2.176-2.838,3.383-3.4,3.383c-0.424,0-0.746-0.375-0.746-0.748
			c0-0.223,0.117-0.443,0.406-0.596c2.143-1.07,2.941-3.06,3.145-5.032c-0.951,0-1.887,0-2.77,0.018
			c-1.004,0.017-1.293,0.322-1.309,1.207c-0.051,2.057-0.051,4.129-0.051,6.186v3.094c0,0.426-0.357,0.629-0.715,0.629
			s-0.713-0.203-0.713-0.611V17.04c0.033-3.145,0.033-6.561,0.084-9.909c0.018-1.037,0.799-1.803,2.074-1.819
			c1.121-0.017,2.277-0.034,3.451-0.034V3.324c0-0.477,0.355-0.697,0.713-0.697s0.73,0.238,0.73,0.714c0,0.527,0,1.292-0.016,1.938
			c1.24,0,2.498,0,3.756,0.034c1.055,0.017,2.006,0.765,2.023,1.955c0.033,1.921,0.016,3.96,0.051,5.865L172.195,15.239z"/>
		<path fill="#231815" d="M185.916,9.851c-0.188-0.188-0.34-0.272-0.494-0.272c-0.152,0-0.305,0.085-0.475,0.272
			c-1.955,2.056-5.219,4.318-6.002,4.318c-0.406,0-0.662-0.34-0.662-0.682c0-0.271,0.137-0.525,0.459-0.662
			c1.904-0.781,4.029-2.447,5.27-3.774c0.373-0.391,0.85-0.595,1.344-0.595c0.475,0,0.984,0.188,1.428,0.578
			c1.598,1.412,3.246,2.55,5.201,3.349c0.34,0.135,0.475,0.408,0.475,0.662c0,0.375-0.271,0.73-0.713,0.73
			C190.998,13.776,188.193,11.976,185.916,9.851z M186.188,4.394c1.309,0,2.617,0.018,3.875,0.034
			c0.986,0.017,1.887,0.51,1.922,1.563C192,6.196,192,6.468,192,6.74c0,0.731-0.051,1.19-0.764,1.19
			c-0.357,0-0.697-0.204-0.697-0.578V7.318c0.018-0.119,0.018-0.306,0.018-0.493c0-1.003-0.068-1.24-1.02-1.258
			c-1.326-0.017-3.01-0.034-4.641-0.034c-1.326,0-2.619,0.018-3.639,0.034c-0.9,0.018-1.037,0.272-1.053,0.816v0.951
			c0,0.392-0.357,0.612-0.697,0.612c-0.715,0-0.715-0.527-0.715-1.241c0-1.07,0.051-2.261,1.818-2.277
			c1.311-0.017,2.686-0.034,4.08-0.034V3.306c0-0.459,0.375-0.68,0.748-0.68c0.375,0,0.748,0.221,0.748,0.68V4.394z M179.967,10.241
			c-0.408,0-0.697-0.339-0.697-0.679c0-0.238,0.119-0.459,0.424-0.578c1.123-0.442,2.193-1.275,2.924-2.278
			c0.119-0.17,0.289-0.237,0.443-0.237c0.34,0,0.68,0.322,0.68,0.68C183.74,7.93,180.715,10.241,179.967,10.241z M187.887,17.364
			c-0.85,0.033-1.666,0.033-2.465,0.033c-0.781,0-1.562,0-2.361-0.033c-1.088-0.035-1.633-0.646-1.684-1.496
			c-0.018-0.289-0.018-0.596-0.018-0.9c0-0.408,0-0.799,0.018-1.156c0.033-0.715,0.477-1.445,1.648-1.479
			c0.629-0.018,1.359-0.035,2.107-0.035c0.918,0,1.887,0.018,2.822,0.035c0.969,0.016,1.547,0.695,1.582,1.377
			c0.016,0.322,0.033,0.68,0.033,1.037c0,0.355-0.018,0.73-0.033,1.104C189.502,16.649,188.941,17.329,187.887,17.364z
			 M188.227,14.899c0-0.256,0-0.51-0.016-0.766c-0.035-0.713-0.34-0.713-2.551-0.713c-0.764,0-1.547,0.016-2.244,0.033
			c-0.764,0.033-0.764,0.578-0.764,1.344c0,0.236,0,0.475,0.016,0.713c0.053,0.715,0.357,0.715,2.551,0.715
			c0.73,0,1.496-0.018,2.244-0.035C188.211,16.157,188.227,15.612,188.227,14.899z M189.809,9.528
			c-0.748-0.782-1.785-1.479-2.754-1.955c-0.256-0.119-0.357-0.306-0.357-0.493c0-0.306,0.271-0.595,0.664-0.595
			c0.424,0,2.516,1.088,3.434,2.04c0.17,0.17,0.236,0.356,0.236,0.544c0,0.391-0.322,0.714-0.68,0.714
			C190.166,9.783,189.979,9.714,189.809,9.528z"/>
	</g>
	<g>
		
			<line fill="none" stroke="#231815" stroke-width="1.1363" stroke-linecap="round" stroke-miterlimit="10" x1="84.24" y1="0.536" x2="95.167" y2="19.464"/>
		
			<line fill="none" stroke="#231815" stroke-width="1.1363" stroke-linecap="round" stroke-miterlimit="10" x1="226.094" y1="0.536" x2="215.168" y2="19.464"/>
	</g>
</g>
</svg>
