<?xml version="1.0" encoding="utf-8"?>
<!-- Generator: Adobe Illustrator 16.0.0, SVG Export Plug-In . SVG Version: 6.00 Build 0)  -->
<!DOCTYPE svg PUBLIC "-//W3C//DTD SVG 1.1//EN" "http://www.w3.org/Graphics/SVG/1.1/DTD/svg11.dtd">
<svg version="1.1" id="レイヤー_1" xmlns="http://www.w3.org/2000/svg" xmlns:xlink="http://www.w3.org/1999/xlink" x="0px"
	 y="0px" width="475px" height="20px" viewBox="0 0 475 20" enable-background="new 0 0 475 20" xml:space="preserve">
<g>
	<g>
		<g>
			<path fill="#231815" d="M39.032,16.781c-3.835,0-5.798-1.62-5.798-2.448c0-0.45,0.36-0.811,0.792-0.811
				c0.216,0,0.432,0.09,0.648,0.306c0.864,0.919,2.269,1.297,3.817,1.297c1.134,0,2.358-0.198,3.511-0.54
				c0.145-0.036,0.271-0.055,0.378-0.055c0.522,0,0.81,0.379,0.81,0.793c0,0.378-0.234,0.792-0.774,0.954
				C41.319,16.619,40.148,16.781,39.032,16.781z M41.031,7.473c-0.072,0-0.18-0.018-0.27-0.036
				c-0.918-0.198-1.891-0.288-2.881-0.288c-0.882,0-1.765,0.072-2.611,0.234C35.179,7.4,35.107,7.4,35.035,7.4
				c-0.486,0-0.774-0.342-0.774-0.72s0.306-0.811,0.955-0.9c0.828-0.126,1.89-0.198,2.917-0.198c3.007,0,3.763,0.36,3.763,1.116
				C41.895,7.095,41.571,7.473,41.031,7.473z"/>
			<path fill="#231815" d="M56.582,7.202c0,1.711-2.539,8.211-5.023,8.211c-1.35,0-2.539-1.62-2.539-3.476
				c0-2.719,2.395-6.571,7.166-6.571c3.457,0,5.924,2.305,5.924,5.275c0,4.537-4.916,6.067-5.671,6.067
				c-0.576,0-0.918-0.378-0.918-0.773c0-0.343,0.234-0.667,0.792-0.793c2.287-0.504,4.25-2.017,4.25-4.555
				c0-2.107-1.657-3.907-4.25-4.016C56.492,6.717,56.582,6.914,56.582,7.202z M50.46,11.794c0,1.278,0.702,1.944,1.17,1.944
				c1.026,0,3.151-3.871,3.385-6.572c0.018-0.216,0.072-0.396,0.162-0.521C52.315,7.148,50.46,9.669,50.46,11.794z"/>
			<path fill="#231815" d="M68.82,16.493c-0.45-1.368-0.612-2.755-0.612-4.087c0-1.314,0.144-2.593,0.522-4.916l0.432-2.593
				c0.072-0.45,0.45-0.666,0.81-0.666c0.378,0,0.756,0.234,0.756,0.648c0,0.036-0.018,0.072-0.018,0.126
				c-0.126,0.738-0.36,1.656-0.522,2.539c-0.288,1.603-0.63,3.15-0.63,4.447c0,0.072,0,1.206,0.18,1.206
				c0.054,0,0.126-0.09,0.216-0.288c0.522-1.044,0.576-1.135,0.9-1.135c0.324,0,0.648,0.307,0.648,0.685
				c0,0.09-0.018,0.198-0.072,0.307c-0.54,1.008-1.08,2.431-1.08,3.097c0,0.144,0.018,0.306,0.018,0.45
				c0,0.882-0.594,0.918-0.72,0.918C69.325,17.231,69,17.016,68.82,16.493z M77.499,8.589c0-1.008-0.144-1.188-0.252-1.782
				c0-0.036-0.018-0.072-0.018-0.126c0-0.396,0.396-0.631,0.774-0.631c0.558,0,0.882,0.45,0.882,1.639
				c0,0.145-0.018,0.307-0.018,0.486c0.342-0.126,0.666-0.252,0.918-0.378c0.126-0.055,0.234-0.09,0.342-0.09
				c0.396,0,0.702,0.324,0.702,0.684c0,0.45-0.432,0.757-2.035,1.261c-0.018,0.414-0.036,0.774-0.036,1.17
				c0,0.612,0.036,1.081,0.18,2.629c0.828,0.378,1.566,0.883,2.161,1.44c0.18,0.181,0.252,0.378,0.252,0.595
				c0,0.414-0.342,0.828-0.738,0.828c-0.18,0-0.378-0.072-0.559-0.271c-0.36-0.378-0.774-0.738-1.206-1.026
				c-0.342,1.099-1.53,1.999-2.953,1.999c-1.44,0-2.845-0.918-2.845-2.106c0-1.351,1.657-2.053,3.259-2.053
				c0.45,0,0.882,0.054,1.314,0.144c0-0.144-0.018-0.306-0.036-0.486c-0.072-0.936-0.09-1.674-0.09-2.502
				c-0.774,0.18-1.584,0.306-2.323,0.306c-1.386,0-1.908-0.252-1.908-0.828c0-0.36,0.252-0.702,0.702-0.702
				c0.09,0,0.18,0,0.288,0.036c0.252,0.071,0.576,0.107,0.936,0.107c0.685,0,1.513-0.126,2.305-0.323V8.589z M75.573,5.996
				c-1.333,0-1.783-0.18-1.783-0.756c0-0.343,0.252-0.685,0.72-0.685c0.054,0,0.126,0,0.198,0.019
				c0.216,0.035,0.468,0.054,0.756,0.054c1.314,0,3.151-0.433,3.925-0.648c0.09-0.018,0.162-0.036,0.252-0.036
				c0.414,0,0.72,0.342,0.72,0.702c0,0.288-0.198,0.595-0.702,0.721C78.525,5.672,76.941,5.996,75.573,5.996z M77.517,14.333
				c-0.504-0.181-1.008-0.288-1.495-0.288c-0.774,0-1.656,0.27-1.656,0.828c0,0.576,0.81,0.864,1.44,0.864
				c0.774,0,1.477-0.433,1.656-1.188L77.517,14.333z"/>
			<path fill="#231815" d="M90.025,9.129c-0.774,0.126-1.458,0.198-1.927,0.198c-0.522,0-0.774-0.342-0.774-0.702
				s0.252-0.721,0.738-0.756c0.576-0.036,1.134-0.036,1.782-0.091l0.99-0.09c0.216-0.81,0.486-1.944,0.612-3.007
				c0.054-0.468,0.432-0.702,0.811-0.702c0.378,0,0.738,0.252,0.738,0.721c0,0.432-0.504,2.557-0.576,2.826l0.811-0.071
				c0.09,0,0.18-0.019,0.27-0.019c1.062,0,2.323,0.522,2.323,2.953c0,5.401-2.629,5.96-3.727,5.96c-0.342,0-1.765-0.072-1.765-0.955
				c0-0.378,0.306-0.738,0.738-0.738c0.072,0,0.144,0,0.216,0.019c0.288,0.072,0.558,0.126,0.811,0.126
				c2.25,0,2.269-4.105,2.269-4.411c0-1.062-0.288-1.639-1.116-1.639c-0.144,0-0.414,0.018-1.188,0.09
				c-0.9,2.809-2.106,5.294-3.529,7.311c-0.234,0.342-0.576,0.486-0.882,0.486c-0.415,0-0.792-0.288-0.792-0.721
				c0-0.216,0.09-0.45,0.324-0.72c1.242-1.387,2.431-3.638,3.277-6.141L90.025,9.129z M100.018,11.344
				c-0.432-1.026-1.351-2.431-2.737-3.187c-0.216-0.126-0.324-0.307-0.324-0.505c0-0.324,0.306-0.647,0.72-0.647
				c0.99,0,3.817,2.664,3.817,3.942c0,0.522-0.432,0.864-0.828,0.864C100.396,11.812,100.144,11.668,100.018,11.344z"/>
			<path fill="#231815" d="M107.07,12.658c0-0.721,0.054-1.44,0.126-2.143c0.216-2.07,0.667-4.016,0.829-5.113
				c0.072-0.505,0.414-0.702,0.756-0.702c0.36,0,0.738,0.252,0.738,0.666c0,0.036,0,0.09-0.018,0.144
				c-0.216,1.099-0.684,3.098-0.9,4.861c-0.072,0.612-0.126,1.207-0.126,1.747c0,0.18,0.018,1.351,0.234,1.351
				c0.036,0,0.09-0.072,0.144-0.181c0.036-0.09,0.396-0.756,0.468-0.882c0.144-0.234,0.342-0.324,0.522-0.324
				c0.324,0,0.63,0.306,0.63,0.648c0,0.09-0.018,0.197-0.072,0.288c-1.044,1.872-1.152,2.646-1.152,3.259
				c0,0.756-0.504,0.918-0.738,0.918C107.431,17.195,107.07,14.242,107.07,12.658z M116.307,16.35c-2.665,0-4.051-1.081-4.051-1.765
				c0-0.414,0.342-0.774,0.756-0.774c0.18,0,0.378,0.072,0.558,0.234c0.54,0.504,1.422,0.684,2.341,0.684
				c0.828,0,1.71-0.144,2.395-0.288c0.09-0.018,0.18-0.036,0.271-0.036c0.504,0,0.756,0.379,0.756,0.774
				c0,0.378-0.234,0.774-0.702,0.9C117.946,16.259,117.136,16.35,116.307,16.35z M117.729,7.814c-0.648-0.144-1.35-0.233-2.07-0.233
				s-1.477,0.09-2.251,0.288c-0.054,0.018-0.126,0.018-0.18,0.018c-0.396,0-0.685-0.36-0.685-0.738c0-0.288,0.18-0.594,0.63-0.702
				c0.882-0.216,1.854-0.324,2.755-0.324c1.962,0,2.737,0.288,2.737,0.99c0,0.378-0.27,0.721-0.72,0.721
				C117.874,7.833,117.802,7.833,117.729,7.814z"/>
			<path fill="#231815" d="M127.483,7.4c-0.45,0-0.684-0.36-0.684-0.72c0-0.378,0.234-0.738,0.72-0.757
				c1.314-0.054,3.997-0.09,5.833-0.09c1.188,0,1.891,0.576,1.891,1.332c0,0.234-0.072,0.486-0.216,0.757
				c-0.612,1.08-1.278,2.16-2.052,3.15c1.098,0.667,4.916,3.043,4.916,4.214c0,0.504-0.396,0.937-0.847,0.937
				c-0.216,0-0.432-0.091-0.612-0.324c-0.9-1.135-2.863-2.863-4.375-3.745c-2.809,3.133-6.05,4.321-6.446,4.321
				c-0.468,0-0.756-0.36-0.756-0.738c0-0.324,0.18-0.648,0.648-0.811c4.879-1.746,7.832-6.788,7.832-7.311
				c0-0.306-0.288-0.323-0.792-0.323c-1.261,0-3.583,0.071-5.042,0.107H127.483z"/>
			<path fill="#231815" d="M151.389,14.747c0,0.504-0.414,0.9-0.846,0.9c-0.252,0-0.504-0.126-0.684-0.415
				c-0.684-1.116-2.917-3.007-4.411-3.709c-0.252-0.126-0.36-0.324-0.36-0.54c0-0.36,0.342-0.756,0.828-0.756
				c0.703,0,2.809,1.53,2.917,1.62c0.522-0.306,4.213-2.898,4.213-3.547c0-0.144-0.126-0.27-0.45-0.27h-1.278
				c-2.449,0-6.068,0.035-8.427,0.126h-0.036c-0.558,0-0.864-0.396-0.864-0.774s0.288-0.757,0.882-0.757
				c2.143-0.036,5.203-0.09,7.868-0.09c0.882,0,1.729,0,2.485,0.019c1.116,0.018,1.944,0.684,1.944,1.477
				c0,0.323-0.126,0.647-0.414,0.972c-1.044,1.171-3.025,2.755-4.681,3.835C151.209,13.864,151.389,14.495,151.389,14.747z"/>
			<path fill="#231815" d="M161.917,10.75c-0.558,0-0.81-0.36-0.81-0.738c0-0.396,0.288-0.793,0.81-0.793h11.344
				c0.522,0,0.774,0.379,0.774,0.774c0,0.378-0.252,0.757-0.774,0.757H161.917z"/>
			<path fill="#231815" d="M182.817,16.691c0,0.63-0.45,0.954-0.882,0.954c-0.396,0-0.792-0.288-0.792-0.864v-0.054
				c0.09-2.053,0.144-6.104,0.144-9.272c0-1.387-0.018-2.611-0.036-3.403V4.033c0-0.504,0.396-0.756,0.792-0.756
				c0.396,0,0.81,0.252,0.81,0.774v0.018l-0.054,4.376h0.09c0.27,0,3.475,0.611,4.646,1.584c0.234,0.18,0.324,0.433,0.324,0.666
				c0,0.45-0.36,0.9-0.792,0.9c-0.162,0-0.324-0.054-0.486-0.18c-0.828-0.612-2.827-1.351-3.799-1.513v2.07
				c0,1.854,0.018,3.602,0.036,4.7V16.691z"/>
			<path fill="#231815" d="M207.155,6.356c-0.018-0.469-0.18-0.721-1.062-0.738c-1.117-0.019-2.647-0.036-4.195-0.036v2.935
				c0,0.486-0.36,0.721-0.72,0.721c-0.36,0-0.72-0.234-0.72-0.721V5.582c-1.584,0-3.097,0.018-4.159,0.036
				c-0.9,0.018-1.099,0.234-1.117,0.756v1.171c0,0.378-0.378,0.576-0.738,0.576c-0.342,0-0.702-0.181-0.702-0.595
				c0-0.216-0.018-0.45-0.018-0.684c0-0.253,0.018-0.505,0.018-0.774c0.036-0.811,0.576-1.459,1.927-1.477
				c1.422-0.018,3.079-0.036,4.79-0.036V3.674h-4.447c-0.433,0-0.648-0.307-0.648-0.595c0-0.306,0.216-0.594,0.648-0.594h10.389
				c0.414,0,0.63,0.288,0.63,0.594c0,0.288-0.216,0.595-0.63,0.595h-4.501v0.882c1.656,0,3.295,0.019,4.699,0.036
				c1.044,0.018,1.999,0.45,2.035,1.458c0.018,0.234,0.018,0.54,0.018,0.847c0,0.702-0.018,1.188-0.756,1.188
				c-0.378,0-0.738-0.198-0.738-0.576V6.356z M196.244,8.931c-0.36,0-0.558-0.233-0.558-0.468s0.198-0.468,0.558-0.468h2.863
				c0.36,0,0.54,0.233,0.54,0.468s-0.18,0.468-0.54,0.468H196.244z M201.825,15.611c0.036,0.882,0.63,0.9,2.503,0.9
				c2.017,0,3.061-0.019,3.061-1.585c0-0.432,0.342-0.63,0.685-0.63c0.378,0,0.774,0.233,0.774,0.63c0,2.772-2.34,2.772-4.483,2.772
				c-2.251,0-3.872,0-3.872-1.891v-0.594c-0.882,0-1.747-0.018-2.646-0.036c-1.296-0.036-1.927-0.612-1.963-1.458
				c-0.018-0.45-0.018-0.883-0.018-1.297c0-0.432,0-0.846,0.018-1.242c0.036-0.685,0.541-1.387,1.891-1.422
				c0.864-0.019,2.071-0.036,3.313-0.036c1.261,0,2.557,0.018,3.583,0.036c1.081,0.018,1.765,0.647,1.819,1.313
				c0.036,0.415,0.036,0.864,0.036,1.314s0,0.9-0.036,1.314c-0.054,0.811-0.756,1.44-1.909,1.477
				c-0.937,0.019-1.836,0.036-2.755,0.036V15.611z M196.496,7.293c-0.36,0-0.558-0.234-0.558-0.469s0.198-0.468,0.558-0.468h2.611
				c0.36,0,0.54,0.233,0.54,0.468s-0.18,0.469-0.54,0.469H196.496z M200.493,10.75c-0.882,0-1.692,0.018-2.323,0.035
				c-0.954,0.019-0.954,0.541-0.954,1.152h3.277V10.75z M200.493,12.893h-3.277c0,0.18,0.018,0.359,0.018,0.521
				c0.018,0.54,0.342,0.702,0.954,0.721c0.667,0.018,1.477,0.018,2.305,0.018V12.893z M201.825,12.893l-0.018,1.26
				c0.829,0,1.639,0,2.359-0.018c0.954-0.036,0.954-0.54,0.954-1.242H201.825z M205.12,11.938c0-0.162-0.018-0.323-0.018-0.468
				c-0.036-0.72-0.342-0.72-3.277-0.72v1.188H205.12z M203.229,7.293c-0.36,0-0.54-0.234-0.54-0.469s0.18-0.468,0.54-0.468h2.593
				c0.378,0,0.559,0.233,0.559,0.468s-0.18,0.469-0.559,0.469H203.229z M203.229,8.931c-0.36,0-0.54-0.233-0.54-0.468
				s0.18-0.468,0.54-0.468h2.845c0.378,0,0.558,0.233,0.558,0.468s-0.18,0.468-0.558,0.468H203.229z"/>
			<path fill="#231815" d="M216.818,17.123l0.198-8.805c-2.071,2.251-2.413,2.305-2.719,2.305c-0.45,0-0.792-0.396-0.792-0.81
				c0-0.216,0.09-0.433,0.324-0.612c1.962-1.494,3.907-3.619,5.204-6.194c0.144-0.288,0.378-0.414,0.63-0.414
				c0.432,0,0.864,0.379,0.864,0.829c0,0.521-1.458,2.448-2.035,3.168l-0.126,10.533c0,0.505-0.396,0.757-0.792,0.757
				c-0.378,0-0.756-0.252-0.756-0.738V17.123z M228.161,13.072c0.306,0,0.864,0.145,0.864,0.792c0,3.476-1.999,3.529-3.979,3.529
				c-2.107,0-3.457-0.396-3.457-2.125c0-0.756,0-11.379,0.036-11.938c0.018-0.432,0.378-0.63,0.738-0.63
				c0.378,0,0.738,0.234,0.756,0.666c0,0.378-0.018,2.719-0.036,5.222c1.296-0.648,3.007-1.603,4.015-2.358
				c0.126-0.09,0.252-0.126,0.378-0.126c0.414,0,0.792,0.414,0.792,0.864c0,0.252-0.108,0.504-0.415,0.702
				c-1.17,0.756-3.457,1.854-4.789,2.395c-0.018,2.377-0.036,4.556-0.036,4.88c0.036,0.936,0.864,1.008,2.088,1.008
				c1.477,0,2.341,0,2.341-2.07v-0.108C227.459,13.288,227.801,13.072,228.161,13.072z"/>
			<path fill="#231815" d="M241.804,7.202c0,1.711-2.539,8.211-5.023,8.211c-1.35,0-2.539-1.62-2.539-3.476
				c0-2.719,2.395-6.571,7.166-6.571c3.457,0,5.924,2.305,5.924,5.275c0,4.537-4.915,6.067-5.671,6.067
				c-0.576,0-0.919-0.378-0.919-0.773c0-0.343,0.234-0.667,0.793-0.793c2.286-0.504,4.249-2.017,4.249-4.555
				c0-2.107-1.657-3.907-4.249-4.016C241.714,6.717,241.804,6.914,241.804,7.202z M235.682,11.794c0,1.278,0.702,1.944,1.17,1.944
				c1.026,0,3.15-3.871,3.385-6.572c0.018-0.216,0.072-0.396,0.162-0.521C237.537,7.148,235.682,9.669,235.682,11.794z"/>
			<path fill="#231815" d="M254.618,11.434c-1.297,0.54-1.585,0.576-1.729,0.576c-0.469,0-0.757-0.378-0.757-0.738
				c0-0.288,0.162-0.558,0.522-0.666c0.721-0.234,1.368-0.432,1.963-0.648L254.6,7.059h-1.675c-0.432,0-0.666-0.342-0.666-0.666
				c0-0.343,0.234-0.666,0.666-0.666h1.675V2.863c0-0.486,0.378-0.738,0.757-0.738c0.342,0,0.701,0.234,0.701,0.721l-0.018,2.881
				h1.242c0.451,0,0.685,0.323,0.685,0.666c0,0.324-0.233,0.666-0.685,0.666h-1.242v2.322c0.36-0.162,0.721-0.324,1.08-0.521
				c0.09-0.055,0.198-0.072,0.289-0.072c0.324,0,0.611,0.306,0.611,0.648c0,0.432-0.234,0.576-1.98,1.386v2.467
				c0,0.288,0.036,1.818,0.055,2.449v0.09c0,1.099-0.576,1.999-2.143,1.999c-0.99,0-1.585-0.127-1.585-0.847
				c0-0.36,0.216-0.721,0.595-0.721c0.035,0,0.09,0.019,0.125,0.019c0.271,0.054,0.541,0.09,0.757,0.09
				c0.45,0,0.756-0.18,0.774-0.811V11.434z M263.062,17.34c0,0.414-0.343,0.63-0.702,0.63c-0.342,0-0.703-0.216-0.703-0.648v-0.018
				l0.072-4.34c-1.639,2.396-3.816,3.907-4.393,3.907c-0.396,0-0.666-0.324-0.666-0.684c0-0.252,0.125-0.505,0.414-0.666
				c1.854-1.062,3.168-2.323,4.213-3.872l-3.277,0.055h-0.018c-0.414,0-0.631-0.324-0.631-0.631c0-0.323,0.217-0.647,0.648-0.647
				l3.674,0.036l-0.037-1.188V9.255c0-0.432,0.343-0.666,0.703-0.647c0.359-0.019,0.702,0.216,0.702,0.647v0.019l-0.019,1.188
				l4.142-0.036c0.414,0,0.63,0.324,0.63,0.647c0,0.324-0.197,0.631-0.611,0.631h-0.019l-3.853-0.072
				c1.277,1.513,2.844,2.701,4.41,3.529c0.289,0.144,0.414,0.396,0.414,0.647c0,0.433-0.323,0.847-0.773,0.847
				c-0.631,0-2.936-1.927-4.375-3.799l0.054,4.465V17.34z M258.471,4.988c-0.485,0-0.72-0.343-0.72-0.667
				c0-0.323,0.216-0.647,0.63-0.647c2.305-0.036,4.628-0.307,7.166-1.045c0.091-0.036,0.181-0.036,0.271-0.036
				c0.432,0,0.702,0.36,0.702,0.702c0,0.271-0.162,0.541-0.522,0.648C262.99,4.735,258.921,4.988,258.471,4.988z M259.839,8.643
				c-0.233,0-0.468-0.126-0.558-0.414c-0.181-0.558-0.45-1.116-0.882-1.53c-0.108-0.108-0.162-0.234-0.162-0.36
				c0-0.306,0.324-0.576,0.701-0.576c0.667,0,1.639,1.585,1.639,2.161C260.577,8.354,260.199,8.643,259.839,8.643z M262.468,8.157
				c-0.27,0-0.521-0.162-0.576-0.486c-0.107-0.576-0.342-1.099-0.666-1.549c-0.072-0.108-0.107-0.216-0.107-0.306
				c0-0.307,0.324-0.559,0.684-0.559c0.774,0,1.404,1.621,1.404,2.179C263.206,7.887,262.828,8.157,262.468,8.157z M264.431,8.949
				c-0.359,0-0.684-0.252-0.684-0.595c0-0.126,0.054-0.27,0.162-0.414c0.629-0.81,1.152-1.891,1.458-2.7
				c0.09-0.252,0.306-0.36,0.54-0.36c0.396,0,0.846,0.324,0.846,0.738c0,0.252-0.756,1.891-1.729,3.043
				C264.862,8.859,264.647,8.949,264.431,8.949z"/>
			<path fill="#231815" d="M285.312,12.226h-4.285v4.682c0,0.486-0.379,0.721-0.738,0.721c-0.379,0-0.757-0.234-0.757-0.721
				l0.019-4.682h-4.088c-0.216,2.251-1.025,5.636-2.358,5.636c-0.433,0-0.792-0.306-0.792-0.684c0-0.145,0.054-0.307,0.162-0.45
				c1.439-1.963,1.692-5.149,1.692-8.049c0-1.314-0.054-2.574-0.072-3.619V5.006c0-1.423,0.72-2.089,2.305-2.125
				c1.566-0.035,3.024-0.054,4.52-0.054c1.188,0,2.395,0.019,3.709,0.054c1.099,0.036,2.089,0.721,2.106,1.927
				c0.055,2.629,0.036,6.428,0.072,8.409l0.036,2.286v0.036c0,1.17-0.667,2.287-2.791,2.287c-1.566,0-2.053-0.289-2.053-0.937
				c0-0.36,0.234-0.702,0.648-0.702c0.054,0,0.108,0,0.162,0.018c0.504,0.09,0.918,0.145,1.261,0.145
				c0.918,0,1.242-0.36,1.242-1.081V12.226z M279.55,8.211h-3.926c0,0.882-0.018,1.801-0.072,2.719h3.998V8.211z M279.55,4.142
				c-0.973,0-1.927,0.018-2.918,0.036c-0.72,0.018-1.043,0.378-1.043,1.026c0,0.522,0.018,1.099,0.018,1.71h3.943V4.142z
				 M285.293,6.914l-0.036-1.603c-0.018-0.72-0.359-1.116-1.135-1.134c-1.043-0.036-2.088-0.036-3.114-0.036v2.772H285.293z
				 M285.312,8.211h-4.304v2.719h4.304V8.211z"/>
			<path fill="#231815" d="M306.065,12.893c0,0.99-0.037,2.034-1.837,2.053c-0.954,0-1.98,0.018-3.062,0.018
				c0,0.36,0.019,0.882,0.019,0.954c0,1.009-0.702,1.999-2.539,1.999c-1.152,0-1.8-0.234-1.8-0.828c0-0.36,0.27-0.703,0.701-0.703
				c0.055,0,0.127,0,0.199,0.019c0.377,0.09,0.738,0.144,1.044,0.144c0.576,0,0.99-0.216,0.99-0.918V14.98
				c-1.639,0-3.277,0-4.718-0.018c-0.378,0-0.576-0.288-0.576-0.576s0.18-0.559,0.559-0.559h0.018
				c1.332,0.019,3.025,0.036,4.718,0.036V12.82h-6.771c-0.359,0-0.54-0.288-0.54-0.576c0-0.271,0.181-0.559,0.54-0.559h6.771V10.75
				c-1.729,0-3.476,0.018-4.718,0.035h-0.018c-0.324,0-0.504-0.252-0.504-0.521c0-0.288,0.197-0.576,0.576-0.576
				c1.368-0.019,3.006-0.019,4.663-0.019V8.877c-4.304,0-4.718-0.018-4.718-1.566c0-1.08,0.09-1.692,1.801-1.711
				c0.702,0,1.782-0.018,2.917-0.018V4.735h-5.6c-0.415,0-0.612-0.306-0.612-0.611c0-0.307,0.197-0.612,0.612-0.612l5.6,0.018v-0.9
				c0-0.45,0.36-0.684,0.702-0.684s0.684,0.216,0.684,0.684v0.9l5.51-0.018c0.414,0,0.631,0.306,0.631,0.612
				c0,0.306-0.217,0.611-0.631,0.611h-5.51v0.847c1.135,0,2.233,0,2.953,0.018c1.513,0.019,1.693,0.595,1.693,1.621
				c0,1.639-0.199,1.656-4.646,1.656v0.792c1.099,0,2.143,0.019,3.062,0.036c1.837,0.036,1.837,1.026,1.837,1.909h1.746
				c0.396,0,0.594,0.323,0.594,0.63c0,0.324-0.197,0.648-0.594,0.648H306.065z M299.781,6.59c-1.044,0-2.017,0-2.61,0.019
				c-0.433,0-0.613,0.09-0.648,0.324V7.4c0,0.342,0.27,0.414,3.259,0.414V6.59z M301.167,7.814c3.205,0,3.205,0,3.205-0.612
				c0-0.504-0.162-0.594-0.684-0.594c-0.559-0.019-1.494-0.019-2.521-0.019V7.814z M304.696,11.686c0-0.126-0.018-0.233-0.018-0.342
				c-0.018-0.36-0.271-0.559-0.721-0.559c-0.792-0.018-1.764-0.035-2.791-0.035v0.936H304.696z M301.167,12.82v1.026
				c0.99,0,1.945,0,2.791-0.019c0.486-0.018,0.703-0.216,0.721-0.594c0-0.126,0.018-0.271,0.018-0.414H301.167z"/>
			<path fill="#231815" d="M314.306,17.34l0.197-8.841c-0.756,1.099-1.152,1.639-1.674,1.639c-0.378,0-0.684-0.288-0.684-0.667
				c0-0.144,0.053-0.323,0.197-0.485c1.639-1.873,2.701-3.728,3.547-6.194c0.108-0.342,0.36-0.468,0.631-0.468
				c0.414,0,0.846,0.324,0.846,0.756c0,0.469-1.188,2.683-1.387,3.025l-0.215,11.235c-0.019,0.45-0.379,0.684-0.757,0.684
				c-0.36,0-0.702-0.216-0.702-0.666V17.34z M320.302,4.483c-0.09,0.667-0.234,1.333-0.396,1.98c0.63,0,1.206-0.018,1.351-0.018
				c0.81,0,1.44,0.396,1.44,1.332c0,0.072-0.45,6.464-4.718,9.886c-0.198,0.162-0.414,0.233-0.595,0.233
				c-0.414,0-0.737-0.342-0.737-0.702c0-0.216,0.108-0.45,0.36-0.63c1.656-1.188,2.754-2.953,3.42-4.735
				c-0.414-0.234-0.846-0.396-1.277-0.54c-0.289-0.091-0.396-0.307-0.396-0.54c0-0.379,0.288-0.774,0.721-0.774
				c0.035,0,0.684,0.144,1.367,0.521c0.234-0.882,0.415-2.106,0.415-2.395c0-0.324-0.253-0.432-0.45-0.432
				c-0.072,0-0.756,0.018-1.242,0.018c-0.469,1.459-1.062,2.827-1.711,3.907c-0.198,0.307-0.45,0.433-0.702,0.433
				c-0.36,0-0.685-0.253-0.685-0.612c0-0.126,0.036-0.252,0.127-0.396c1.188-1.782,2.034-3.979,2.412-6.536h-0.973
				c-0.432,0-0.648-0.324-0.648-0.647c0-0.307,0.217-0.631,0.648-0.631h4.394c0.45,0,0.685,0.324,0.685,0.631
				c0,0.323-0.234,0.647-0.685,0.647H320.302z M323.614,4.285c0-0.449,0.342-0.684,0.684-0.684c0.343,0,0.686,0.234,0.686,0.684
				v9.31c0,0.396-0.343,0.594-0.686,0.594c-0.342,0-0.684-0.198-0.684-0.594V4.285z M326.369,3.205c0-0.486,0.378-0.72,0.738-0.72
				c0.378,0,0.738,0.233,0.738,0.72c0,3.025,0.019,7.257,0.019,9.903c0,0.288,0.035,1.963,0.053,2.593v0.072
				c0,1.044-0.684,2.053-2.467,2.053c-1.439,0-1.691-0.36-1.691-0.865c0-0.359,0.216-0.702,0.594-0.702c0.055,0,0.09,0,0.145,0.019
				c0.342,0.072,0.684,0.126,0.972,0.126c0.54,0,0.919-0.216,0.937-1.026c0-0.378,0.018-3.079,0.018-6.014
				c0-2.215,0-4.556-0.054-6.14V3.205z"/>
			<path fill="#231815" d="M341.128,12.568c0,0.324,0,0.648-0.018,0.954c-0.036,0.648-0.45,0.973-0.828,0.973
				c-0.343,0-0.666-0.271-0.666-0.774v-0.108c0.035-0.45,0.035-0.954,0.035-1.422c-0.252,0.144-2.395,1.332-2.395,2.538
				c0,0.612,0.576,1.369,2.215,1.369c0.9,0,1.873-0.198,2.412-0.379c0.162-0.054,0.307-0.071,0.433-0.071
				c0.522,0,0.828,0.359,0.828,0.756c0,0.36-0.271,0.756-0.882,0.918c-0.576,0.162-1.494,0.307-2.432,0.307
				c-2.719,0-4.033-1.333-4.033-2.683c0-1.459,1.477-2.989,3.728-4.214c-0.216-0.882-0.702-1.261-1.296-1.261
				c-0.559,0-1.225,0.343-1.999,1.117c-0.558,0.738-0.918,0.936-1.261,0.936c-0.377,0-0.701-0.252-0.701-0.594
				c0-0.198,0.107-0.414,0.359-0.648c1.225-1.134,1.945-2.395,2.467-3.637c-0.396,0.054-0.756,0.09-1.062,0.09
				c-0.216,0-1.891,0-1.891-1.044c0-0.36,0.289-0.685,0.703-0.685c0.18,0,0.377,0.054,0.594,0.198
				c0.18,0.126,0.468,0.162,0.792,0.162c0.306,0,0.667-0.036,0.99-0.09l0.36-0.072c0.145-0.576,0.198-0.937,0.234-1.621
				c0.035-0.45,0.414-0.666,0.792-0.666c0.126,0,0.756,0.036,0.756,0.721c0,0.324-0.09,0.72-0.233,1.17
				c0.414-0.144,0.792-0.288,1.044-0.432c0.144-0.091,0.288-0.126,0.414-0.126c0.378,0,0.685,0.324,0.685,0.702
				c0,0.63-0.703,0.936-2.646,1.386c-0.253,0.648-0.613,1.387-0.991,2.071c0.271-0.072,0.559-0.108,0.829-0.108
				c1.008,0,1.908,0.54,2.357,1.729c0.775-0.396,1.567-0.774,2.305-1.099c0.433-0.18,0.955-0.414,1.459-0.684
				c0.198-0.108,0.396-0.162,0.559-0.162c0.486,0,0.792,0.396,0.792,0.81c0,0.271-0.144,0.576-0.486,0.738
				c-0.558,0.271-0.954,0.36-1.908,0.721c-0.829,0.306-1.675,0.702-2.449,1.08C341.128,11.775,341.128,12.172,341.128,12.568z"/>
			<path fill="#231815" d="M351.674,18.023c-0.486,0-0.792-0.378-0.792-0.756c0-0.307,0.216-0.612,0.684-0.666
				c2.413-0.324,3.997-1.387,4.771-3.043c0.162-0.342,0.414-0.469,0.666-0.469c0.396,0,0.811,0.324,0.811,0.757
				c0,0.09-0.018,0.18-0.072,0.288C356.121,17.664,351.764,18.023,351.674,18.023z M355.923,12.712
				c-1.297-0.036-2.035-0.774-2.07-1.782c-0.036-0.918-0.055-2.467-0.055-3.89c0-1.026,0.019-1.962,0.036-2.557
				c0.036-0.828,0.595-1.71,1.944-1.746c0.847-0.036,1.891-0.036,2.971-0.036c1.081,0,2.18,0,3.098,0.036
				c1.062,0.036,1.801,0.792,1.836,1.603c0.037,0.792,0.055,1.908,0.055,3.024c0,1.314-0.018,2.647-0.055,3.529
				c-0.035,0.973-0.773,1.782-1.926,1.818c-0.324,0.019-0.666,0.019-0.99,0.019c-0.019,0.738-0.036,1.692-0.036,2.286
				c0,1.135,0.323,1.351,1.891,1.351c1.458,0,2.413-0.234,2.413-1.98c0-0.504,0.359-0.721,0.72-0.721c0.071,0,0.828,0,0.828,0.793
				c0,3.061-2.196,3.276-4.015,3.276c-1.621,0-3.295-0.107-3.295-2.106c0-0.504,0-1.908,0.018-2.881
				C358.12,12.748,356.968,12.748,355.923,12.712z M362.297,6.879h-7.095v1.638h7.095V6.879z M362.278,5.708
				c0-1.188,0-1.675-1.008-1.71c-0.594-0.019-1.387-0.036-2.232-0.036c-1.026,0-2.089,0.018-2.846,0.036
				c-0.972,0.035-0.972,0.684-0.972,1.71H362.278z M355.221,9.688c0,0.324,0.019,0.63,0.019,0.882
				c0.018,0.666,0.377,0.864,0.972,0.883c0.847,0.036,1.747,0.054,2.683,0.054c0.811,0,1.621-0.018,2.395-0.054
				c0.973-0.036,0.99-0.576,0.99-1.765H355.221z"/>
			<path fill="#231815" d="M374.21,7.707c-1.872,0-2.178-0.631-2.178-1.062c0-0.324,0.197-0.631,0.611-0.631
				c0.127,0,0.252,0.019,0.396,0.072c0.45,0.162,0.954,0.234,1.477,0.234c0.396,0,0.811-0.054,1.206-0.126
				c0.054-0.307,0.072-0.576,0.072-0.828c0-0.396-0.036-0.774-0.072-1.225V4.088c0-0.433,0.36-0.648,0.738-0.648
				c0.63,0,0.864,0.36,0.864,1.314c0,0.324-0.018,0.63-0.072,0.954c0.342-0.144,0.666-0.324,0.955-0.504
				c0.125-0.09,0.27-0.126,0.396-0.126c0.396,0,0.738,0.342,0.738,0.738c0,0.45-0.486,0.846-2.448,1.458
				c-1.135,3.979-2.449,7.148-3.35,9.165c-0.18,0.396-0.521,0.576-0.846,0.576c-0.396,0-0.757-0.271-0.757-0.738
				c0-0.162,0.036-0.36,0.145-0.576c0.792-1.621,2.124-4.483,3.241-8.085C374.948,7.671,374.57,7.707,374.21,7.707z M382.133,16.907
				c-2.323,0-4.231-0.972-4.231-1.908c0-0.45,0.36-0.864,0.774-0.864c0.18,0,0.378,0.09,0.558,0.288
				c0.595,0.648,1.333,0.846,2.413,0.846c0.54,0,1.171-0.054,1.909-0.126h0.125c0.522,0,0.793,0.379,0.793,0.757
				C384.474,16.493,384.095,16.907,382.133,16.907z M383.825,9.436c-0.666-0.234-1.566-0.396-2.395-0.396
				c-0.504,0-0.99,0.054-1.369,0.198c-0.09,0.036-0.162,0.054-0.252,0.054c-0.359,0-0.594-0.324-0.594-0.648
				c0-0.954,1.963-1.026,2.574-1.026c0.738,0,1.566,0.108,2.396,0.415c0.414,0.144,0.576,0.468,0.576,0.756
				c0,0.36-0.253,0.702-0.648,0.702C384.023,9.489,383.933,9.471,383.825,9.436z"/>
			<path fill="#231815" d="M391.436,9.111c-0.054-0.864-0.09-1.225-0.09-1.692c0-0.307,0-1.116,0.828-1.116
				c0.648,0,0.757,0.504,0.757,1.278c0,0.216-0.019,0.378-0.019,0.611c0,4.88,1.909,5.672,2.161,5.672
				c0.233,0,0.611-0.162,1.242-1.584c0.144-0.324,0.396-0.45,0.63-0.45c0.414,0,0.828,0.342,0.828,0.756
				c0,0.36-1.099,2.989-2.755,2.989C393.542,15.575,391.706,13.486,391.436,9.111z M403.302,11.704
				c-0.271-1.459-1.081-2.863-2.089-3.565c-0.198-0.144-0.288-0.324-0.288-0.504c0-0.342,0.306-0.685,0.72-0.685
				c1.026,0,3.277,2.881,3.277,4.483c0,0.595-0.45,0.937-0.882,0.937C403.716,12.37,403.392,12.154,403.302,11.704z"/>
			<path fill="#231815" d="M418.42,6.23c-0.072,0.756-0.181,1.512-0.343,2.232c0.703-0.018,1.477-0.018,2.215-0.018h0.9
				c1.171,0.018,1.873,0.702,1.873,1.872c0,6.266-2.449,7.4-4.556,7.4c-0.702,0-1.494-0.145-2.376-0.414
				c-0.324-0.108-0.469-0.378-0.469-0.685c0-0.396,0.27-0.811,0.702-0.811c0.108,0,0.198,0.019,0.306,0.055
				c0.667,0.252,1.297,0.396,1.855,0.396c1.044,0,3.006-0.485,3.006-5.762c0-0.558-0.377-0.773-0.828-0.773h-0.576
				c-0.773,0-1.62,0.018-2.376,0.018c-1.026,3.439-3.151,6.302-6.519,7.977c-0.162,0.072-0.324,0.108-0.468,0.108
				c-0.468,0-0.81-0.379-0.81-0.774c0-0.271,0.144-0.54,0.504-0.702c4.303-2.053,6.104-6.014,6.392-10.119l-5.708,0.036
				c-0.486,0-0.72-0.343-0.72-0.685c0-0.36,0.252-0.738,0.72-0.738h6.014V2.917c0-0.45,0.396-0.684,0.793-0.684
				c0.396,0,0.792,0.233,0.792,0.684v1.927h5.941c0.45,0,0.685,0.36,0.685,0.721c0,0.359-0.217,0.702-0.685,0.702L418.42,6.23z"/>
			<path fill="#231815" d="M431.847,16.529c-0.324-1.044-0.451-2.251-0.451-3.511c0-0.919,0.055-1.873,0.162-2.81
				c0.234-2.196,0.648-4.267,0.738-5.455c0.037-0.576,0.414-0.811,0.774-0.811c0.396,0,0.792,0.271,0.792,0.721
				c0,0.036-0.018,0.09-0.018,0.126c-0.126,0.828-0.414,2.448-0.648,3.997c-0.197,1.26-0.378,2.665-0.378,3.601
				c0,0.757,0.126,0.847,0.126,0.847c0.055,0,0.108-0.108,0.198-0.288c0.09-0.162,0.324-0.738,0.396-0.882
				c0.108-0.234,0.307-0.324,0.505-0.324c0.306,0,0.612,0.252,0.612,0.684c0,0.162-0.036,0.343-0.127,0.54
				c-0.863,1.873-1.08,2.755-1.08,3.386c0,0.702-0.449,0.918-0.792,0.918C432.333,17.268,432.009,17.052,431.847,16.529z
				 M442.361,13.595c0.792,0.359,1.513,0.846,2.089,1.368c0.234,0.216,0.324,0.45,0.324,0.685c0,0.468-0.36,0.864-0.774,0.864
				c-0.181,0-0.36-0.072-0.54-0.253c-0.36-0.378-0.811-0.72-1.279-1.044c-0.414,1.08-1.71,2.035-3.15,2.035
				s-2.736-0.973-2.736-2.197c0-1.17,1.225-2.16,3.097-2.16c0.522,0,1.044,0.071,1.566,0.197c0-0.342-0.019-0.684-0.054-1.098
				c-0.055-0.757-0.127-2.232-0.181-3.709c-0.702,0.126-1.404,0.197-2.124,0.197c-0.919,0-1.711-0.035-1.711-0.792
				c0-0.36,0.27-0.738,0.792-0.738c0.072,0,0.145,0,0.216,0.019c0.324,0.054,0.648,0.071,0.99,0.071
				c0.576,0,1.189-0.054,1.801-0.161c0-0.541-0.018-1.045-0.018-1.477c0-0.45,0.018-0.847,0.018-1.135
				c0.019-0.486,0.379-0.702,0.756-0.702c0.379,0,0.738,0.216,0.738,0.612v0.054c-0.035,0.54-0.071,1.387-0.071,2.341l1.116-0.324
				c0.09-0.036,0.18-0.036,0.27-0.036c0.451,0,0.793,0.36,0.793,0.738c0,0.288-0.217,0.595-0.738,0.721l-1.422,0.342
				c0.018,1.458,0.071,2.917,0.125,3.835c0.019,0.45,0.09,1.045,0.108,1.639V13.595z M440.831,14.495
				c-0.811-0.271-1.225-0.343-1.656-0.343c-1.207,0-1.566,0.504-1.566,0.864c0,0.811,1.206,0.828,1.332,0.828
				c0.828,0,1.692-0.45,1.891-1.296V14.495z"/>
		</g>
		<g>
			
				<line fill="none" stroke="#231815" stroke-width="1.1363" stroke-miterlimit="10" x1="1.155" y1="0.789" x2="12.083" y2="19.716"/>
			
				<line fill="none" stroke="#231815" stroke-width="1.1363" stroke-miterlimit="10" x1="473.845" y1="0.789" x2="462.917" y2="19.716"/>
		</g>
	</g>
</g>
</svg>
