<?xml version="1.0" encoding="utf-8"?>
<!-- Generator: Adobe Illustrator 16.0.0, SVG Export Plug-In . SVG Version: 6.00 Build 0)  -->
<!DOCTYPE svg PUBLIC "-//W3C//DTD SVG 1.1//EN" "http://www.w3.org/Graphics/SVG/1.1/DTD/svg11.dtd">
<svg version="1.1" id="レイヤー_1" xmlns="http://www.w3.org/2000/svg" xmlns:xlink="http://www.w3.org/1999/xlink" x="0px"
	 y="0px" width="160px" height="20px" viewBox="-7.5 0 160 20" enable-background="new -7.5 0 160 20" xml:space="preserve">
<g>
	<g>
		<path fill="#231815" d="M24.471,14.628v0.187c0,1.326-0.782,1.802-1.7,1.802c-1.207,0-2.89-0.85-2.89-1.869
			c0-1.122,1.632-2.432,3.212-3.349c-0.017-0.782-0.017-1.599-0.017-2.347c-0.476,0.103-0.969,0.153-1.428,0.153
			c-1.054,0-1.462-0.221-1.462-0.765c0-0.323,0.255-0.663,0.748-0.663c0.085,0,0.17,0.017,0.272,0.034
			c0.136,0.034,0.306,0.051,0.476,0.051c0.425,0,0.901-0.085,1.411-0.221V7.183c0-0.629-0.017-1.122-0.051-1.649
			c-0.034-0.629,0.442-0.799,0.748-0.799c0.374,0,0.731,0.238,0.731,0.714v0.068L24.42,7.165c0.323-0.152,0.646-0.306,0.901-0.492
			c0.136-0.085,0.272-0.137,0.408-0.137c0.374,0,0.697,0.323,0.697,0.697c0,0.476-0.527,0.867-2.108,1.462
			c0,0.306-0.017,0.629-0.017,0.985c0,0.341,0.017,0.715,0.017,1.088c1.785-0.866,3.179-0.866,3.434-0.866
			c1.615,0,3.91,0.696,3.91,2.771c0,1.818-1.581,3.502-3.791,3.502c-0.476,0-2.618-0.272-2.618-1.241
			c0-0.34,0.255-0.663,0.646-0.663c0.119,0,0.238,0.018,0.374,0.085c0.595,0.289,1.173,0.459,1.7,0.459
			c1.581,0,2.209-1.513,2.209-2.125c0-1.139-1.36-1.529-2.481-1.529c-1.003,0-2.193,0.306-3.349,0.884L24.471,14.628z
			 M21.327,14.645c0,0.612,1.173,0.731,1.241,0.731c0.561,0,0.578-0.307,0.578-1.547c0-0.341,0-0.697-0.017-1.071
			C22.856,12.944,21.327,14.032,21.327,14.645z M32.036,8.814c-0.17,0-0.357-0.068-0.527-0.222
			c-0.425-0.391-1.275-0.747-2.091-0.747c-0.102,0-0.204,0-0.306,0.017H29.01c-0.408,0-0.663-0.323-0.663-0.646
			c0-0.663,0.816-0.663,1.071-0.663c1.088,0,3.366,0.51,3.366,1.529C32.784,8.475,32.427,8.814,32.036,8.814z"/>
		<path fill="#231815" d="M39.262,10.463c0,1.853-0.017,4.165-0.068,6.578c0,0.426-0.357,0.646-0.714,0.646
			c-0.34,0-0.68-0.204-0.68-0.595v-0.034c0.119-3.128,0.102-8.551,0.119-12.239c0-1.581,1.19-1.581,2.839-1.581
			c0.629,0,1.292,0,1.615,0.018C43.239,3.29,43.8,3.816,43.834,4.53c0.017,0.562,0.034,1.225,0.034,1.854
			c0,2.261-0.034,2.532-3.501,2.532c-0.408,0-0.799-0.017-1.105-0.034V10.463z M42.61,5.602c0-1.275,0-1.292-1.649-1.292
			c-1.326,0-1.648,0.034-1.683,0.731c0,0.17-0.017,0.356-0.017,0.561H42.61z M39.262,6.57v1.258
			c0.374,0.018,1.139,0.034,1.768,0.034c1.088,0,1.547,0,1.563-0.646c0-0.188,0.017-0.408,0.017-0.646H39.262z M46.061,15.324
			c-0.391,0.034-0.918,0.052-1.445,0.052c-0.612,0-1.241-0.018-1.683-0.052c-1.037-0.067-1.513-0.68-1.547-1.529
			c-0.017-0.357-0.017-0.748-0.017-1.139c0-0.408,0-0.8,0.017-1.14c0.051-0.85,0.646-1.428,1.53-1.462
			c0.425-0.017,1.02-0.033,1.598-0.033c0.595,0,1.19,0.017,1.581,0.033c0.799,0.034,1.513,0.612,1.547,1.429
			c0.017,0.356,0.034,0.747,0.034,1.139c0,0.374-0.017,0.765-0.034,1.139C47.591,14.645,47.047,15.239,46.061,15.324z
			 M44.497,11.109c-1.819,0-1.819,0-1.819,1.784c0,1.19,0.017,1.275,1.836,1.275s1.853,0,1.853-1.496
			C46.367,11.143,46.367,11.109,44.497,11.109z M48.679,8.916c-2.125,0-3.366-0.017-3.417-1.444
			c-0.017-0.323-0.017-0.697-0.017-1.088c0-0.612,0.017-1.275,0.034-1.854c0.034-0.714,0.561-1.24,1.428-1.274
			c0.323-0.018,1.02-0.018,1.683-0.018c0.493,0,0.952,0,1.241,0.018c1.258,0.068,1.717,0.73,1.717,1.462
			c0,2.924,0.034,6.068,0.034,8.601c0,0.799,0.017,1.53,0.017,2.125c0,1.156-0.527,2.159-2.448,2.159
			c-1.53,0-1.683-0.34-1.683-0.765c0-0.323,0.221-0.646,0.595-0.646h0.102c0.357,0.051,0.697,0.102,0.986,0.102
			c0.629,0,1.037-0.221,1.054-1.088c0.017-0.68,0.034-1.41,0.034-2.158c0-1.156-0.017-2.329-0.017-3.434V8.882
			C49.665,8.899,49.189,8.916,48.679,8.916z M49.988,5.602c0-1.275-0.034-1.292-1.717-1.292c-1.428,0-1.7,0.034-1.734,0.612
			c0,0.204-0.017,0.441-0.017,0.68H49.988z M46.52,6.57c0,0.238,0.017,0.459,0.017,0.646c0.017,0.611,0.306,0.646,1.598,0.646
			c0.697,0,1.513-0.017,1.887-0.034c0-0.425-0.017-0.85-0.017-1.258H46.52z"/>
		<path fill="#231815" d="M57.333,9.29c-0.051-0.815-0.085-1.155-0.085-1.598c0-0.289,0-1.054,0.782-1.054
			c0.612,0,0.714,0.476,0.714,1.207c0,0.203-0.017,0.356-0.017,0.577c0,4.606,1.802,5.354,2.04,5.354
			c0.221,0,0.578-0.152,1.173-1.495c0.136-0.307,0.374-0.426,0.595-0.426c0.391,0,0.782,0.323,0.782,0.715
			c0,0.34-1.037,2.821-2.601,2.821C59.321,15.393,57.587,13.421,57.333,9.29z M68.534,11.738c-0.255-1.377-1.02-2.703-1.972-3.366
			c-0.187-0.136-0.272-0.306-0.272-0.476c0-0.323,0.289-0.646,0.68-0.646c0.969,0,3.094,2.72,3.094,4.233
			c0,0.561-0.425,0.884-0.833,0.884C68.925,12.367,68.62,12.163,68.534,11.738z"/>
		<path fill="#231815" d="M88.68,9.852c-1.055,0-4.998-4.097-5.746-4.93c-0.203-0.238-0.391-0.357-0.561-0.357
			c-0.188,0-0.357,0.119-0.543,0.357c-1.344,1.717-3.537,3.893-5.32,5.167c-0.223,0.17-0.459,0.238-0.646,0.238
			c-0.459,0-0.799-0.357-0.799-0.731c0-0.221,0.119-0.459,0.408-0.629c1.887-1.088,4.096-3.365,5.354-5.014
			c0.375-0.493,0.885-0.731,1.41-0.731c0.545,0,1.105,0.255,1.547,0.731c1.615,1.75,3.451,3.349,5.457,4.487
			c0.238,0.136,0.34,0.34,0.34,0.544C89.58,9.409,89.172,9.852,88.68,9.852z M85.264,17.059c-1.004,0.034-1.955,0.051-2.891,0.051
			s-1.854-0.017-2.805-0.051c-1.207-0.051-1.836-0.731-1.869-1.666c-0.018-0.306-0.018-0.663-0.018-1.02c0-0.477,0-0.97,0.018-1.36
			c0.033-0.782,0.527-1.598,1.836-1.632c0.713-0.017,1.562-0.034,2.465-0.034c1.088,0,2.242,0.018,3.348,0.034
			c1.037,0.018,1.717,0.765,1.768,1.496c0.018,0.323,0.035,0.697,0.035,1.088c0,0.459-0.018,0.952-0.035,1.411
			C87.082,16.26,86.418,17.024,85.264,17.059z M79.568,9.341c-0.441,0-0.662-0.306-0.662-0.629c0-0.322,0.221-0.646,0.662-0.646
			h5.848c0.441,0,0.662,0.323,0.662,0.629c0,0.323-0.221,0.646-0.68,0.646H79.568z M82.645,12.537c-0.934,0-1.887,0.017-2.701,0.034
			c-0.902,0.033-0.902,0.747-0.902,1.648c0,1.139,0.068,1.581,0.918,1.598c0.73,0.018,1.564,0.034,2.396,0.034
			c0.834,0,1.701-0.017,2.482-0.034c0.781-0.017,0.885-0.374,0.885-1.479c0-1.326,0-1.717-0.918-1.768
			C84.176,12.554,83.41,12.537,82.645,12.537z"/>
		<path fill="#231815" d="M98.848,10.565c1.053-0.782,2.957-2.091,5.268-2.091c2.229,0,3.945,1.274,3.945,3.076
			c0,2.907-4.352,4.896-4.98,4.896c-0.459,0-0.799-0.374-0.799-0.782c0-0.288,0.186-0.595,0.645-0.747
			c2.703-0.97,3.588-2.346,3.588-3.332c0-0.952-0.852-1.802-2.465-1.802c-1.973,0-4.148,1.326-5.305,2.396
			c-0.016,0.527-0.033,1.054-0.033,1.564c0,0.969,0.051,1.869,0.17,2.583c0.018,0.052,0.018,0.103,0.018,0.153
			c0,0.476-0.408,0.765-0.799,0.765c-0.783,0-0.816-0.781-0.816-1.988c0-0.527,0.018-1.14,0.051-1.769
			c-0.119,0.188-0.459,0.681-1.174,1.904c-0.203,0.357-0.51,0.51-0.781,0.51c-0.391,0-0.73-0.289-0.73-0.714
			c0-0.204,0.068-0.441,0.713-1.224c0.715-1.122,1.717-2.873,2.244-4.199l0.068-0.68c-0.033,0-0.086,0.018-0.137,0.034
			c-0.441,0.204-1.104,0.612-1.529,0.867c-0.188,0.119-0.357,0.17-0.492,0.17c-0.391,0-0.629-0.34-0.629-0.697
			c0-0.255,0.135-0.526,0.424-0.663c0.664-0.306,1.598-0.748,2.482-1.121L98.1,4.514c0.033-0.459,0.373-0.663,0.713-0.663
			c0.357,0,0.715,0.221,0.715,0.612v0.102c-0.104,0.646-0.238,1.564-0.357,2.635h0.033c0.391,0,0.697,0.289,0.697,0.748
			c0,0.272-0.102,0.578-0.34,0.935l-0.68,1.225L98.848,10.565z"/>
		<path fill="#231815" d="M122.035,5.414c0-0.441,0.373-0.696,0.748-0.696c0.355,0,0.713,0.238,0.713,0.748
			c0,0.136,0,0.221-0.102,2.669c0.033,0,2.074-0.272,2.939-0.272c0.613,0,1.242,0.068,1.242,0.68c0,0.374-0.324,0.748-0.9,0.748
			h-0.086c-0.289-0.017-0.561-0.017-0.832-0.017c-0.953,0-1.955,0.102-2.432,0.152c-0.033,0.629-0.307,3.944-2.277,3.944
			c-0.375,0-0.748-0.153-1.07-0.511c-0.715-0.866-0.783-1.054-0.783-1.258c0-0.322,0.256-0.577,0.561-0.577
			c0.17,0,0.375,0.085,0.527,0.306c0.307,0.425,0.561,0.611,0.766,0.611c0.322,0,0.832-0.662,0.986-2.346
			c-1.496,0.222-2.959,0.544-4.148,0.851c0.068,3.723,0.221,4.878,2.498,4.878c0.969,0,1.701-0.221,2.67-0.441
			c0.102-0.018,0.188-0.034,0.271-0.034c0.477,0,0.748,0.34,0.748,0.714c0,0.306-0.188,0.629-0.629,0.748
			c-0.867,0.238-1.854,0.356-2.703,0.356c-3.773,0-3.994-2.005-4.164-5.847c-2.346,0.781-3.383,0.985-3.4,0.985
			c-0.475,0-0.764-0.356-0.764-0.73c0-0.34,0.221-0.697,0.748-0.816l2.787-0.663l0.578-0.152L116.51,9.12l-0.102-2.465V6.604
			c0-0.476,0.391-0.731,0.781-0.731c0.375,0,0.748,0.238,0.748,0.731c0,0.544,0,1.359-0.033,2.159c0,0.118-0.018,0.237-0.018,0.373
			c1.189-0.255,2.703-0.561,4.199-0.799c0-0.544-0.018-1.07-0.018-1.547c0-0.441-0.018-0.918-0.033-1.359V5.414z"/>
	</g>
	<g>
		
			<line fill="none" stroke="#231815" stroke-width="1.1363" stroke-linecap="round" stroke-miterlimit="10" x1="-6.932" y1="0.536" x2="3.996" y2="19.464"/>
		
			<line fill="none" stroke="#231815" stroke-width="1.1363" stroke-linecap="round" stroke-miterlimit="10" x1="151.932" y1="0.536" x2="141.006" y2="19.464"/>
	</g>
</g>
</svg>
