<?xml version="1.0" encoding="utf-8"?>
<!-- Generator: Adobe Illustrator 16.0.0, SVG Export Plug-In . SVG Version: 6.00 Build 0)  -->
<!DOCTYPE svg PUBLIC "-//W3C//DTD SVG 1.1//EN" "http://www.w3.org/Graphics/SVG/1.1/DTD/svg11.dtd">
<svg version="1.1" id="レイヤー_1" xmlns="http://www.w3.org/2000/svg" xmlns:xlink="http://www.w3.org/1999/xlink" x="0px"
	 y="0px" width="310px" height="20px" viewBox="0 0 310 20" enable-background="new 0 0 310 20" xml:space="preserve">
<g>
	<g>
		<path fill="#231815" d="M35.803,7.147c-0.45,0-0.684-0.36-0.684-0.72c0-0.378,0.234-0.738,0.72-0.757
			c1.314-0.054,3.997-0.09,5.833-0.09c1.188,0,1.891,0.576,1.891,1.332c0,0.234-0.072,0.486-0.216,0.757
			c-0.612,1.08-1.278,2.16-2.052,3.15c1.098,0.667,4.916,3.043,4.916,4.214c0,0.504-0.396,0.937-0.847,0.937
			c-0.216,0-0.432-0.091-0.612-0.324c-0.9-1.135-2.863-2.863-4.375-3.745c-2.809,3.133-6.05,4.321-6.446,4.321
			c-0.468,0-0.756-0.36-0.756-0.738c0-0.324,0.18-0.648,0.648-0.811c4.879-1.746,7.832-6.788,7.832-7.311
			c0-0.306-0.288-0.323-0.792-0.323c-1.261,0-3.583,0.071-5.042,0.107H35.803z"/>
		<path fill="#231815" d="M60.429,14.494c0,0.504-0.414,0.9-0.846,0.9c-0.252,0-0.504-0.126-0.684-0.415
			c-0.684-1.116-2.917-3.007-4.411-3.709c-0.252-0.126-0.36-0.324-0.36-0.54c0-0.36,0.342-0.756,0.828-0.756
			c0.702,0,2.809,1.53,2.917,1.62c0.522-0.306,4.213-2.898,4.213-3.547c0-0.144-0.126-0.27-0.45-0.27h-1.278
			c-2.449,0-6.068,0.035-8.427,0.126h-0.036c-0.559,0-0.864-0.396-0.864-0.774s0.288-0.757,0.882-0.757
			c2.143-0.036,5.204-0.09,7.869-0.09c0.882,0,1.729,0,2.485,0.019c1.116,0.018,1.944,0.684,1.944,1.477
			c0,0.323-0.126,0.647-0.414,0.972c-1.044,1.171-3.025,2.755-4.682,3.835C60.249,13.611,60.429,14.242,60.429,14.494z"/>
		<path fill="#231815" d="M71.677,10.497c-0.559,0-0.811-0.36-0.811-0.738c0-0.396,0.288-0.793,0.811-0.793H83.02
			c0.522,0,0.774,0.379,0.774,0.774c0,0.378-0.252,0.757-0.774,0.757H71.677z"/>
		<path fill="#231815" d="M93.296,16.438c0,0.63-0.45,0.954-0.882,0.954c-0.396,0-0.792-0.288-0.792-0.864v-0.054
			c0.09-2.053,0.144-6.104,0.144-9.272c0-1.387-0.018-2.611-0.036-3.403V3.78c0-0.504,0.396-0.756,0.792-0.756
			c0.396,0,0.81,0.252,0.81,0.774v0.018l-0.054,4.376h0.09c0.27,0,3.475,0.611,4.646,1.584c0.234,0.18,0.324,0.433,0.324,0.666
			c0,0.45-0.36,0.9-0.792,0.9c-0.162,0-0.324-0.054-0.486-0.18c-0.828-0.612-2.827-1.351-3.799-1.513v2.07
			c0,1.854,0.018,3.602,0.036,4.7V16.438z"/>
		<path fill="#231815" d="M118.354,6.103c-0.018-0.469-0.18-0.721-1.062-0.738c-1.117-0.019-2.647-0.036-4.195-0.036v2.935
			c0,0.486-0.36,0.721-0.72,0.721c-0.36,0-0.72-0.234-0.72-0.721V5.329c-1.584,0-3.097,0.018-4.159,0.036
			c-0.9,0.018-1.099,0.234-1.117,0.756v1.171c0,0.378-0.378,0.576-0.738,0.576c-0.342,0-0.702-0.181-0.702-0.595
			c0-0.216-0.018-0.45-0.018-0.684c0-0.253,0.018-0.505,0.018-0.774c0.036-0.811,0.576-1.459,1.927-1.477
			c1.422-0.018,3.079-0.036,4.79-0.036V3.42h-4.447c-0.433,0-0.648-0.307-0.648-0.595c0-0.306,0.216-0.594,0.648-0.594h10.389
			c0.414,0,0.63,0.288,0.63,0.594c0,0.288-0.216,0.595-0.63,0.595h-4.501v0.882c1.656,0,3.295,0.019,4.699,0.036
			c1.044,0.018,1.999,0.45,2.035,1.458c0.018,0.234,0.018,0.54,0.018,0.847c0,0.702-0.018,1.188-0.756,1.188
			c-0.378,0-0.738-0.198-0.738-0.576V6.103z M107.443,8.677c-0.36,0-0.558-0.233-0.558-0.468s0.198-0.468,0.558-0.468h2.863
			c0.36,0,0.54,0.233,0.54,0.468s-0.18,0.468-0.54,0.468H107.443z M113.024,15.358c0.036,0.882,0.63,0.9,2.503,0.9
			c2.017,0,3.061-0.019,3.061-1.585c0-0.432,0.342-0.63,0.685-0.63c0.378,0,0.774,0.233,0.774,0.63c0,2.772-2.34,2.772-4.483,2.772
			c-2.251,0-3.872,0-3.872-1.891v-0.594c-0.882,0-1.747-0.018-2.646-0.036c-1.296-0.036-1.927-0.612-1.963-1.458
			c-0.018-0.45-0.018-0.883-0.018-1.297c0-0.432,0-0.846,0.018-1.242c0.036-0.685,0.541-1.387,1.891-1.422
			c0.864-0.019,2.071-0.036,3.313-0.036c1.261,0,2.557,0.018,3.583,0.036c1.081,0.018,1.765,0.647,1.819,1.313
			c0.036,0.415,0.036,0.864,0.036,1.314s0,0.9-0.036,1.314c-0.054,0.811-0.756,1.44-1.909,1.477
			c-0.937,0.019-1.836,0.036-2.755,0.036V15.358z M107.695,7.04c-0.36,0-0.558-0.234-0.558-0.469s0.198-0.468,0.558-0.468h2.611
			c0.36,0,0.54,0.233,0.54,0.468s-0.18,0.469-0.54,0.469H107.695z M111.692,10.497c-0.882,0-1.692,0.018-2.323,0.035
			c-0.954,0.019-0.954,0.541-0.954,1.152h3.277V10.497z M111.692,12.639h-3.277c0,0.18,0.018,0.359,0.018,0.521
			c0.018,0.54,0.342,0.702,0.954,0.721c0.667,0.018,1.477,0.018,2.305,0.018V12.639z M113.024,12.639l-0.018,1.26
			c0.829,0,1.639,0,2.359-0.018c0.954-0.036,0.954-0.54,0.954-1.242H113.024z M116.319,11.684c0-0.162-0.018-0.323-0.018-0.468
			c-0.036-0.72-0.342-0.72-3.277-0.72v1.188H116.319z M114.429,7.04c-0.36,0-0.54-0.234-0.54-0.469s0.18-0.468,0.54-0.468h2.593
			c0.378,0,0.559,0.233,0.559,0.468s-0.18,0.469-0.559,0.469H114.429z M114.429,8.677c-0.36,0-0.54-0.233-0.54-0.468
			s0.18-0.468,0.54-0.468h2.845c0.378,0,0.558,0.233,0.558,0.468s-0.18,0.468-0.558,0.468H114.429z"/>
		<path fill="#231815" d="M128.737,16.87l0.198-8.805c-2.071,2.251-2.413,2.305-2.719,2.305c-0.45,0-0.792-0.396-0.792-0.81
			c0-0.216,0.09-0.433,0.324-0.612c1.962-1.494,3.907-3.619,5.204-6.194c0.144-0.288,0.378-0.414,0.63-0.414
			c0.432,0,0.864,0.379,0.864,0.829c0,0.521-1.458,2.448-2.035,3.168l-0.126,10.533c0,0.505-0.396,0.757-0.792,0.757
			c-0.378,0-0.756-0.252-0.756-0.738V16.87z M140.081,12.819c0.306,0,0.864,0.145,0.864,0.792c0,3.476-1.999,3.529-3.979,3.529
			c-2.106,0-3.457-0.396-3.457-2.125c0-0.756,0-11.379,0.036-11.938c0.018-0.432,0.378-0.63,0.738-0.63
			c0.378,0,0.738,0.234,0.756,0.666c0,0.378-0.018,2.719-0.036,5.222c1.297-0.648,3.007-1.603,4.016-2.358
			c0.126-0.09,0.252-0.126,0.378-0.126c0.414,0,0.792,0.414,0.792,0.864c0,0.252-0.108,0.504-0.414,0.702
			c-1.17,0.756-3.457,1.854-4.789,2.395c-0.018,2.377-0.036,4.556-0.036,4.88c0.036,0.936,0.864,1.008,2.088,1.008
			c1.477,0,2.341,0,2.341-2.07v-0.108C139.378,13.035,139.721,12.819,140.081,12.819z"/>
		<path fill="#231815" d="M147.511,12.405c0-0.721,0.054-1.44,0.126-2.143c0.216-2.07,0.667-4.016,0.829-5.113
			c0.072-0.505,0.414-0.702,0.756-0.702c0.36,0,0.738,0.252,0.738,0.666c0,0.036,0,0.09-0.018,0.144
			c-0.216,1.099-0.684,3.098-0.9,4.861c-0.072,0.612-0.126,1.207-0.126,1.747c0,0.18,0.018,1.351,0.234,1.351
			c0.036,0,0.09-0.072,0.144-0.181c0.036-0.09,0.396-0.756,0.468-0.882c0.144-0.234,0.342-0.324,0.522-0.324
			c0.324,0,0.63,0.306,0.63,0.648c0,0.09-0.018,0.197-0.072,0.288c-1.044,1.872-1.152,2.646-1.152,3.259
			c0,0.756-0.504,0.918-0.738,0.918C147.871,16.942,147.511,13.989,147.511,12.405z M156.748,16.096
			c-2.665,0-4.051-1.081-4.051-1.765c0-0.414,0.342-0.774,0.756-0.774c0.18,0,0.378,0.072,0.558,0.234
			c0.54,0.504,1.422,0.684,2.341,0.684c0.829,0,1.71-0.144,2.395-0.288c0.09-0.018,0.18-0.036,0.27-0.036
			c0.504,0,0.756,0.379,0.756,0.774c0,0.378-0.233,0.774-0.701,0.9C158.386,16.005,157.577,16.096,156.748,16.096z M158.17,7.561
			c-0.648-0.144-1.351-0.233-2.071-0.233s-1.477,0.09-2.251,0.288c-0.054,0.018-0.126,0.018-0.18,0.018
			c-0.396,0-0.685-0.36-0.685-0.738c0-0.288,0.18-0.594,0.63-0.702c0.882-0.216,1.854-0.324,2.755-0.324
			c1.963,0,2.736,0.288,2.736,0.99c0,0.378-0.27,0.721-0.72,0.721C158.314,7.58,158.243,7.58,158.17,7.561z"/>
		<path fill="#231815" d="M171.327,16.997c-2.034,0-3.654-1.062-3.744-3.548c-0.019-0.288-0.019-0.558-0.019-0.828
			c0-1.53,0.162-2.898,0.233-4.52c0.055-1.044,0.145-2.557,0.145-3.673V3.997c-0.018-0.828,0.756-0.828,0.811-0.828
			c0.432,0,0.883,0.287,0.883,0.773c0,0.702-0.199,3.421-0.252,4.105c-0.109,1.692-0.324,3.169-0.324,4.718
			c0,0.936,0.035,2.683,2.232,2.683c1.242,0,2.881-0.666,4.482-1.944c0.217-0.181,0.433-0.253,0.631-0.253
			c0.45,0,0.811,0.433,0.811,0.883c0,0.234-0.108,0.504-0.36,0.702C175.18,16.186,173.11,16.997,171.327,16.997z"/>
		<path fill="#231815" d="M192.029,16.834h-0.036c-3.907,0-6.031-2.629-6.031-5.528c0-1.927,0.936-3.438,1.494-4.104
			c0.126-0.145,0.197-0.234,0.197-0.289c0-0.018-0.018-0.035-0.053-0.035c-0.037,0-0.199,0.018-2.863,0.972
			c-0.451,0.162-1.675,0.595-2.089,0.595c-0.576,0-0.919-0.433-0.919-0.864c0-0.36,0.234-0.721,0.757-0.828
			c4.483-1.026,5.438-1.278,6.374-1.549c0.954-0.271,3.709-1.062,5.06-1.062c0.666,0,0.954,0.45,0.954,0.883
			c0,0.647-0.702,0.81-1.459,0.81h-0.359c-0.9,0-1.908,0.288-2.574,0.522c-1.405,0.504-3.08,2.539-3.08,4.718
			c0,2.088,1.423,4.033,4.322,4.033h0.306c0.774,0,1.171,0.432,1.171,0.864C193.2,16.402,192.821,16.834,192.029,16.834z"/>
		<path fill="#231815" d="M206.554,14.944c-0.396,1.134-1.729,2.143-3.295,2.143c-0.864,0-3.079-0.559-3.079-2.251
			c0-0.144,0-2.07,3.35-2.07c0.594,0,1.242,0.071,1.872,0.216v-0.378c0-0.288,0-0.576-0.019-0.847
			c-0.215-3.475-0.414-5.275-0.414-7.706V3.745c0-0.541,0.396-0.793,0.811-0.793s0.846,0.271,0.846,0.757v0.054
			c-0.035,0.685-0.053,1.368-0.053,2.053v0.702c0.558,0,1.584-0.072,2.268-0.468c0.162-0.091,0.324-0.127,0.486-0.127
			c0.469,0,0.865,0.396,0.865,0.811c0,1.171-2.881,1.225-3.17,1.225c-0.125,0-0.27-0.019-0.396-0.019l0.145,3.691
			c0.018,0.342,0.036,0.757,0.036,1.171c0,0.197,0,0.396-0.019,0.594c0.703,0.252,2.99,1.188,2.99,2.322
			c0,0.486-0.324,0.883-0.775,0.883c-0.234,0-0.504-0.108-0.756-0.378c-0.469-0.505-1.062-0.954-1.692-1.297V14.944z
			 M203.368,14.025c-0.865,0-1.729,0.234-1.729,0.774c0,0.469,0.63,0.883,1.566,0.883c0.846,0,1.674-0.414,1.944-1.225l0.036-0.126
			C204.574,14.133,203.944,14.025,203.368,14.025z"/>
		<path fill="#231815" d="M220.287,8.875c-0.774,0.126-1.458,0.198-1.927,0.198c-0.521,0-0.773-0.342-0.773-0.702
			s0.252-0.721,0.738-0.756c0.576-0.036,1.134-0.036,1.781-0.091l0.99-0.09c0.217-0.81,0.486-1.944,0.613-3.007
			c0.054-0.468,0.432-0.702,0.811-0.702c0.377,0,0.737,0.252,0.737,0.721c0,0.432-0.504,2.557-0.576,2.826l0.811-0.071
			c0.09,0,0.181-0.019,0.271-0.019c1.062,0,2.322,0.522,2.322,2.953c0,5.401-2.629,5.96-3.727,5.96
			c-0.343,0-1.766-0.072-1.766-0.955c0-0.378,0.307-0.738,0.738-0.738c0.072,0,0.145,0,0.217,0.019
			c0.287,0.072,0.558,0.126,0.811,0.126c2.25,0,2.268-4.105,2.268-4.411c0-1.062-0.287-1.639-1.115-1.639
			c-0.145,0-0.414,0.018-1.189,0.09c-0.9,2.809-2.105,5.294-3.529,7.311c-0.233,0.342-0.576,0.486-0.881,0.486
			c-0.415,0-0.793-0.288-0.793-0.721c0-0.216,0.09-0.45,0.324-0.72c1.242-1.387,2.431-3.638,3.277-6.141L220.287,8.875z
			 M230.28,11.09c-0.432-1.026-1.351-2.431-2.736-3.187c-0.217-0.126-0.324-0.307-0.324-0.505c0-0.324,0.306-0.647,0.72-0.647
			c0.99,0,3.817,2.664,3.817,3.942c0,0.522-0.433,0.864-0.828,0.864C230.658,11.558,230.406,11.415,230.28,11.09z"/>
		<path fill="#231815" d="M244.209,9.056c2.539,0,3.854,1.566,3.854,3.061c0,1.008-0.594,2.053-1.584,2.881
			c-1.908,1.603-4.609,1.872-4.699,1.872c-0.522,0-0.793-0.342-0.793-0.702c0-0.342,0.252-0.684,0.738-0.756
			c4.771-0.666,4.861-3.187,4.861-3.313c0-1.08-1.08-1.764-2.43-1.764c-1.01,0-1.891,0.306-3.35,0.99
			c-0.612,0.288-1.207,0.612-1.836,0.9c-0.162,0.071-0.307,0.107-0.434,0.107c-0.467,0-0.756-0.378-0.756-0.756
			c0-0.288,0.145-0.576,0.522-0.721C241.347,9.578,242.608,9.056,244.209,9.056z"/>
		<path fill="#231815" d="M257.151,7.454c-1.873,0-2.179-0.631-2.179-1.062c0-0.324,0.198-0.631,0.612-0.631
			c0.126,0,0.252,0.019,0.396,0.072c0.449,0.162,0.953,0.234,1.477,0.234c0.396,0,0.81-0.054,1.205-0.126
			c0.055-0.307,0.072-0.576,0.072-0.828c0-0.396-0.035-0.774-0.072-1.225V3.834c0-0.433,0.361-0.648,0.738-0.648
			c0.631,0,0.865,0.36,0.865,1.314c0,0.324-0.019,0.63-0.072,0.954c0.342-0.144,0.666-0.324,0.954-0.504
			c0.126-0.09,0.271-0.126,0.396-0.126c0.396,0,0.738,0.342,0.738,0.738c0,0.45-0.486,0.846-2.448,1.458
			c-1.134,3.979-2.448,7.148-3.349,9.165c-0.18,0.396-0.522,0.576-0.847,0.576c-0.396,0-0.757-0.271-0.757-0.738
			c0-0.162,0.037-0.36,0.145-0.576c0.793-1.621,2.125-4.483,3.241-8.085C257.889,7.417,257.51,7.454,257.151,7.454z M265.073,16.654
			c-2.322,0-4.23-0.972-4.23-1.908c0-0.45,0.359-0.864,0.773-0.864c0.18,0,0.379,0.09,0.559,0.288
			c0.594,0.648,1.332,0.846,2.412,0.846c0.541,0,1.171-0.054,1.909-0.126h0.126c0.521,0,0.793,0.379,0.793,0.757
			C267.415,16.24,267.036,16.654,265.073,16.654z M266.766,9.182c-0.666-0.234-1.566-0.396-2.395-0.396
			c-0.505,0-0.99,0.054-1.369,0.198c-0.09,0.036-0.162,0.054-0.252,0.054c-0.36,0-0.594-0.324-0.594-0.648
			c0-0.954,1.962-1.026,2.574-1.026c0.738,0,1.566,0.108,2.395,0.415c0.414,0.144,0.576,0.468,0.576,0.756
			c0,0.36-0.252,0.702-0.648,0.702C266.963,9.236,266.874,9.217,266.766,9.182z"/>
		<path fill="#231815" d="M277.276,17.104c-0.432,0-1.117-0.306-1.117-1.062c0-0.594,0.451-1.134,1.117-1.134
			c0.811,0,1.116,0.576,1.116,1.098C278.392,16.762,277.725,17.104,277.276,17.104z M277.258,13.359
			c-0.324,0-0.648-0.234-0.648-0.702v-0.468c0-1.819-0.162-6.014-0.252-8.679V3.474c0-0.595,0.449-0.882,0.9-0.882
			c0.467,0,0.936,0.306,0.936,0.918c0,2.143-0.252,7.021-0.252,8.786v0.307C277.942,13.107,277.6,13.359,277.258,13.359z"/>
	</g>
	<g>
		
			<line fill="none" stroke="#231815" stroke-width="1.1363" stroke-linecap="round" stroke-miterlimit="10" x1="1.751" y1="0.537" x2="12.679" y2="19.463"/>
		
			<line fill="none" stroke="#231815" stroke-width="1.1363" stroke-linecap="round" stroke-miterlimit="10" x1="308.249" y1="0.537" x2="297.321" y2="19.463"/>
	</g>
</g>
</svg>
