<?xml version="1.0" encoding="utf-8"?>
<!-- Generator: Adobe Illustrator 16.0.0, SVG Export Plug-In . SVG Version: 6.00 Build 0)  -->
<!DOCTYPE svg PUBLIC "-//W3C//DTD SVG 1.1//EN" "http://www.w3.org/Graphics/SVG/1.1/DTD/svg11.dtd">
<svg version="1.1" id="レイヤー_1" xmlns="http://www.w3.org/2000/svg" xmlns:xlink="http://www.w3.org/1999/xlink" x="0px"
	 y="0px" width="330px" height="90px" viewBox="0 0 330 90" enable-background="new 0 0 330 90" xml:space="preserve">
<g>
	<g>
		<path fill="#FFE673" d="M329.999,45c0,24.75-20.25,45-45,45H45C20.25,90,0,69.75,0,45l0,0C0,20.25,20.25,0,45,0h239.999
			C309.749,0,329.999,20.25,329.999,45L329.999,45z"/>
	</g>
	<g>
		<path fill="#231815" d="M87.311,36.802c-2.564,1.3-3.53,1.528-3.794,1.528c-0.597,0-0.931-0.475-0.931-0.949
			c0-0.386,0.211-0.772,0.686-0.913c1.562-0.491,2.722-0.913,4.039-1.615v-3.794l-3.354,0.018c-0.649,0-0.966-0.457-0.966-0.913
			c0-0.475,0.316-0.931,0.966-0.931h3.354l0.018-3.53c0-0.615,0.491-0.913,0.983-0.913s0.983,0.298,0.983,0.913v13.559
			c0,0.579-0.491,0.878-0.983,0.878s-0.983-0.299-0.983-0.878L87.311,36.802z M97.058,35.08c0.545,0,1.106,0.369,1.106,1.055
			c0,3.635-2.002,3.652-3.775,3.652c-2.213,0-3.407-0.421-3.407-2.354c0-0.737,0.018-11.24,0.053-11.784
			c0.035-0.562,0.509-0.825,0.983-0.825c0.966,0,0.966,0.79,0.966,1.229c0,0.737-0.018,2.37-0.035,4.162
			c1.071-0.562,2.301-1.317,3.161-1.949c0.176-0.123,0.352-0.176,0.527-0.176c0.544,0,1.019,0.526,1.019,1.089
			c0,0.333-0.158,0.667-0.545,0.913c-1.124,0.72-2.968,1.563-4.127,2.02c-0.018,0-0.035,0.018-0.053,0.018
			c-0.018,2.424-0.035,4.654-0.035,4.988c0,0.649,0.457,0.772,1.476,0.772c1.3,0,1.738-0.053,1.738-1.738v-0.123
			C96.109,35.361,96.566,35.08,97.058,35.08z"/>
		<path fill="#231815" d="M104.591,31.813c-0.579-0.456-1.159-0.79-1.756-1.001c-0.369-0.123-0.51-0.386-0.51-0.667
			c0-0.457,0.422-0.966,0.984-0.966c0.526,0,1.738,0.474,2.353,0.913c0.316,0.211,0.439,0.526,0.439,0.825
			c0,0.545-0.439,1.106-0.966,1.106C104.96,32.024,104.784,31.954,104.591,31.813z M103.537,39.893
			c-0.562,0-1.054-0.456-1.054-0.983c0-0.211,0.088-0.422,0.264-0.632c1.036-1.159,1.721-2.477,2.424-4.216
			c0.158-0.386,0.491-0.544,0.808-0.544c0.475,0,0.966,0.352,0.966,0.931c0,0.562-1.054,3.231-2.477,4.953
			C104.188,39.752,103.836,39.893,103.537,39.893z M105.312,27.845c-0.457-0.58-1.036-1.001-1.44-1.265
			c-0.264-0.176-0.387-0.404-0.387-0.632c0-0.457,0.457-0.914,1.001-0.914c0.492,0,2.529,1.071,2.529,2.056
			c0,0.579-0.509,1.106-1.036,1.106C105.75,28.196,105.505,28.091,105.312,27.845z M109.579,27.862
			c-1.511,2.336-2.002,2.477-2.389,2.477c-0.526,0-0.983-0.387-0.983-0.879c0-0.21,0.088-0.438,0.299-0.649
			c1.142-1.177,1.949-2.512,2.599-3.898c0.176-0.352,0.475-0.51,0.809-0.51c0.491,0,1.001,0.369,1.001,0.878
			c0,0.264-0.176,0.598-0.281,0.773l6.357-0.035c0.58,0,0.879,0.456,0.879,0.913c0,0.474-0.299,0.931-0.879,0.931H109.579z
			 M116.112,37.768c-0.509,1.722-1.598,2.547-3.108,2.547c-0.439,0-0.913-0.07-1.423-0.211c-0.369-0.088-0.544-0.422-0.544-0.755
			c0-0.475,0.315-0.983,0.843-0.983c0.105,0,0.193,0.018,0.299,0.053c0.315,0.087,0.579,0.14,0.808,0.14
			c0.544,0,0.896-0.245,1.159-0.772l-4.707,0.035h-0.035c-1.317,0-1.896-0.737-1.896-1.633c0-0.211,0.035-0.422,0.088-0.633
			c0.123-0.439,0.229-0.948,0.315-1.511h-0.438c-0.65,0-0.948-0.403-0.948-0.825c0-0.438,0.333-0.896,0.948-0.896h0.702l0.211-1.581
			c0.193-1.439,0.755-1.896,2.195-1.932c0.755-0.018,1.704-0.035,2.6-0.035c0.562,0,1.089,0,1.545,0.018
			c1.229,0.035,2.003,0.598,2.003,1.739c0,0.526-0.018,1.142-0.035,1.791h1.106c0.597,0,0.896,0.422,0.896,0.86
			c0,0.422-0.299,0.86-0.896,0.86h-1.177c-0.053,0.721-0.123,1.44-0.193,2.073l0.825-0.018c0.562,0,0.825,0.403,0.825,0.825
			c0,0.421-0.28,0.843-0.825,0.843H116.112z M111.055,36.152c0.105-0.686,0.192-1.44,0.28-2.179h-1.65
			c-0.105,0.668-0.211,1.317-0.299,1.757v0.07c0,0.193,0.176,0.352,0.422,0.352H111.055z M111.493,32.376l0.141-2.037
			c-1.3,0-1.493,0.07-1.545,0.562l-0.193,1.476H111.493z M114.602,36.117c0.105-0.633,0.176-1.388,0.211-2.144h-1.756
			c-0.088,0.738-0.176,1.493-0.281,2.161L114.602,36.117z M114.865,32.376v-1.511c0-0.509-0.386-0.526-1.527-0.526
			c-0.035,0.632-0.07,1.317-0.123,2.037H114.865z"/>
		<path fill="#231815" d="M123.645,40.104c-0.614,0-1.142-0.545-1.142-1.071c0-0.281,0.141-0.562,0.492-0.755
			c0.931-0.527,1.703-1.106,2.266-1.757c0.018-0.825,0.035-1.527,0.035-2.23c0-0.931-0.018-0.931-0.721-0.931h-0.597
			c-0.246,0-1.089,0-1.089-0.86c0-0.457,0.316-0.913,0.86-0.913c0.686,0,1.159,0,1.722,0.018c1.159,0.035,1.703,0.544,1.703,1.721
			c0,1.019-0.035,2.248-0.035,3.319c1.001,1.229,2.459,1.669,5.146,1.669c1.756,0,3.688-0.193,5.022-0.299h0.105
			c0.614,0,0.948,0.474,0.948,0.948s-0.316,0.931-1.001,1.001c-1.089,0.105-2.67,0.211-4.268,0.211
			c-4.654,0-5.673-0.913-6.885-2.125C124.522,39.945,123.996,40.104,123.645,40.104z M125.56,28.529
			c-0.439-0.667-1.124-1.159-1.616-1.439c-0.281-0.176-0.404-0.404-0.404-0.633c0-0.456,0.457-0.913,1.019-0.913
			c0.58,0,2.758,1.3,2.758,2.283c0,0.597-0.527,1.124-1.054,1.124C125.998,28.951,125.752,28.828,125.56,28.529z M133.393,28.318
			l-0.176,0.721c1.721,0,3.196,0.018,3.267,1.598c0.035,0.879,0.053,1.757,0.053,2.635c0,0.79-0.018,1.546-0.053,2.283
			c-0.053,1.001-0.58,1.651-1.896,1.704c-0.492,0.018-1.142,0.035-1.792,0.035c-0.808,0-1.615-0.018-2.178-0.035
			c-1.071-0.035-1.896-0.527-1.949-1.687c-0.035-0.702-0.053-1.458-0.053-2.213c0-0.878,0.018-1.791,0.053-2.705
			c0.07-1.527,1.527-1.598,2.669-1.598c0.053-0.246,0.07-0.457,0.105-0.738h-2.968c-0.562,0-0.86-0.403-0.86-0.79
			c0-0.403,0.298-0.79,0.86-0.79h1.686l-0.052-0.088c-0.281-0.58-0.475-0.737-0.562-0.878c-0.088-0.123-0.123-0.229-0.123-0.334
			c0-0.404,0.527-0.685,1.001-0.685c0.703,0,1.388,1.106,1.388,1.475c0,0.193-0.088,0.369-0.229,0.51h1.282
			c0.246-0.475,0.439-0.878,0.737-1.687c0.105-0.298,0.404-0.421,0.721-0.421c0.526,0,1.106,0.333,1.106,0.79
			c0,0.193-0.105,0.404-0.686,1.317h2.283c0.562,0,0.844,0.387,0.844,0.79c0,0.387-0.281,0.79-0.844,0.79H133.393z M130.441,32.622
			c0,0.298-0.018,0.632-0.018,0.931h4.25c0-0.299-0.018-0.633-0.018-0.931H130.441z M134.639,31.041
			c-0.018-0.597-0.018-0.614-2.178-0.614c-1.826,0-1.949,0.018-1.984,0.632l-0.018,0.264h4.18V31.041z M130.459,34.817
			c0,0.158,0.018,0.333,0.018,0.474c0.035,0.58,0.299,0.598,1.81,0.598c2.301,0,2.335-0.018,2.353-0.615
			c0-0.141,0.018-0.298,0.018-0.456H130.459z"/>
		<path fill="#231815" d="M150.813,29.952c0,1.423-1.615,5.339-3.583,7.166c-0.509,0.474-1.054,0.685-1.562,0.685
			c-1.229,0-2.635-1.37-2.635-3.53c0-2.88,2.512-6.586,7.184-6.586c3.582,0,5.918,2.441,5.918,5.339
			c0,4.514-4.741,6.024-5.655,6.024c-0.737,0-1.177-0.492-1.177-1.001c0-0.439,0.316-0.878,1.02-1.036
			c2.739-0.633,3.793-2.336,3.793-4.11c0-1.633-1.106-3.372-3.565-3.617C150.726,29.46,150.813,29.671,150.813,29.952z
			 M144.895,34.097c0,0.756,0.334,1.511,0.844,1.511c0.825,0,2.792-3.284,3.003-5.638c0.018-0.211,0.07-0.404,0.158-0.562
			C146.036,30.128,144.895,32.763,144.895,34.097z"/>
		<path fill="#231815" d="M173.468,28.267c-1.035-0.018-2.389-0.035-3.793-0.035v2.458c0,0.65-0.475,0.984-0.949,0.984
			c-0.473,0-0.947-0.334-0.947-0.984v-2.458c-1.406,0-2.758,0.018-3.759,0.035c-0.737,0.018-0.878,0.192-0.913,0.614v0.966
			c0,0.475-0.474,0.737-0.931,0.737s-0.913-0.245-0.931-0.772c0-0.211-0.018-0.421-0.018-0.632c0-1.019,0.018-2.178,1.896-2.195
			c1.44-0.018,3.037-0.035,4.654-0.035v-0.615h-3.969c-0.58,0-0.861-0.368-0.861-0.755c0-0.369,0.281-0.737,0.861-0.737h9.869
			c0.545,0,0.826,0.368,0.826,0.737c0,0.387-0.281,0.755-0.826,0.755h-4.004v0.615c1.545,0,3.057,0.018,4.408,0.035
			c0.879,0.018,2.125,0.351,2.143,1.439c0.018,0.229,0.018,0.51,0.018,0.809c0,0.211,0,0.421-0.018,0.614
			c-0.035,0.527-0.527,0.772-1.002,0.772c-0.473,0-0.93-0.245-0.93-0.737v-1.071C174.276,28.441,174.136,28.284,173.468,28.267z
			 M169.569,37.838c0.035,0.58,0.352,0.614,2.195,0.614c1.914,0,2.67-0.017,2.67-1.229c0-0.545,0.439-0.791,0.895-0.791
			c0.51,0,1.02,0.281,1.02,0.773c0,2.722-2.283,2.792-4.531,2.792c-0.756,0-1.527-0.018-2.178-0.07
			c-1.23-0.088-1.826-0.79-1.826-1.949v-0.492c-0.791,0-1.617-0.018-2.564-0.035c-1.247-0.018-1.932-0.685-1.967-1.527
			c-0.018-0.457-0.018-0.878-0.018-1.282s0-0.79,0.018-1.159c0.035-0.72,0.475-1.44,1.949-1.476
			c0.721-0.018,1.791-0.035,2.969-0.035c1.404,0,2.949,0.018,4.092,0.035c1.264,0.018,1.809,0.721,1.861,1.458
			c0.035,0.404,0.053,0.808,0.053,1.212c0,0.403-0.018,0.808-0.053,1.229c-0.053,0.79-0.633,1.51-1.949,1.545
			c-0.984,0.018-1.826,0.035-2.635,0.035V37.838z M164.002,31.516c-0.421,0-0.649-0.281-0.649-0.545
			c0-0.281,0.229-0.544,0.649-0.544h2.476c0.439,0,0.65,0.28,0.65,0.544c0,0.281-0.211,0.545-0.65,0.545H164.002z M164.266,29.882
			c-0.421,0-0.649-0.264-0.649-0.544c0-0.264,0.229-0.527,0.649-0.527h2.212c0.439,0,0.65,0.264,0.65,0.545
			c0,0.263-0.211,0.526-0.65,0.526H164.266z M167.849,33.219c-0.809,0-1.564,0-2.107,0.018c-0.51,0.018-0.668,0.264-0.703,0.562
			c-0.018,0.07-0.035,0.175-0.035,0.263h2.828L167.849,33.219z M167.831,35.256h-2.811c0,0.123,0.018,0.246,0.018,0.352
			c0.018,0.404,0.229,0.545,0.703,0.562c0.613,0.018,1.334,0.018,2.09,0.018V35.256z M169.569,35.256v0.932
			c0.721,0,1.439-0.018,2.072-0.018c0.457,0,0.668-0.158,0.686-0.58c0-0.105,0.018-0.229,0.018-0.334H169.569z M172.345,34.062
			c0-0.088-0.018-0.175-0.018-0.263c-0.018-0.264-0.211-0.545-0.721-0.562c-0.492-0.018-1.229-0.018-2.02-0.018v0.843H172.345z
			 M170.938,29.882c-0.438,0-0.648-0.264-0.648-0.526c0-0.281,0.211-0.545,0.648-0.545h2.213c0.439,0,0.65,0.264,0.65,0.527
			c0,0.28-0.211,0.544-0.65,0.544H170.938z M170.938,31.516c-0.438,0-0.648-0.264-0.648-0.545c0-0.264,0.211-0.544,0.648-0.544
			h2.459c0.439,0,0.65,0.263,0.65,0.544c0,0.264-0.211,0.545-0.65,0.545H170.938z"/>
		<path fill="#231815" d="M184.249,31.41c-1.545,1.545-1.703,1.703-2.195,1.703c-0.578,0-1.053-0.526-1.053-1.089
			c0-0.281,0.123-0.579,0.422-0.808c1.809-1.37,3.512-3.214,4.775-5.673c0.193-0.387,0.51-0.545,0.826-0.545
			c0.58,0,1.16,0.492,1.16,1.089c0,0.176-0.053,0.352-0.158,0.527c-0.615,1.001-1.195,1.826-1.811,2.6l-0.086,9.905
			c0,0.685-0.527,1.036-1.037,1.036s-1.002-0.334-1.002-1.001V39.12L184.249,31.41z M195.296,35.08c0.545,0,1.125,0.352,1.125,1.02
			c0,3.6-2.107,3.635-4.074,3.635c-1.529,0-3.602-0.053-3.602-2.283c0-0.72,0-10.994,0.035-11.521
			c0.035-0.527,0.51-0.791,0.967-0.791c1,0,1,0.773,1,1.212c0,0.756-0.018,2.424-0.035,4.232c1.16-0.597,2.635-1.439,3.443-2.037
			c0.158-0.123,0.334-0.176,0.492-0.176c0.543,0,1,0.545,1,1.124c0,0.316-0.141,0.65-0.525,0.896
			c-1.072,0.685-3.268,1.686-4.428,2.143c-0.018,2.195-0.033,4.162-0.033,4.461c0.016,0.474,0.156,0.808,1.65,0.808
			c1.475,0,2.02,0,2.02-1.686v-0.105C194.331,35.361,194.806,35.08,195.296,35.08z"/>
		<path fill="#231815" d="M200.425,32.042c0-0.211,0.07-0.421,0.209-0.667c0.422-0.703,0.615-1.528,0.615-2.406
			c0-0.562,0.387-0.825,0.809-0.825c0.141,0,0.877,0.035,0.877,1.001c0,1.177-0.473,3.775-1.65,3.775
			C200.827,32.92,200.425,32.569,200.425,32.042z M203.163,25.544c0-0.614,0.457-0.896,0.932-0.896s0.967,0.299,0.967,0.896v1.791
			c0.086-0.035,0.209-0.07,0.314-0.07c0.545,0,1.705,1.212,1.705,1.774c0,0.474-0.439,0.825-0.861,0.825
			c-0.211,0-0.439-0.105-0.562-0.369c-0.176-0.368-0.404-0.667-0.596-0.896v10.819c0,0.562-0.475,0.843-0.949,0.843
			s-0.949-0.281-0.949-0.843V25.544z M206.765,31.41c-0.545,0-0.791-0.334-0.791-0.668c0-0.368,0.281-0.737,0.791-0.737l3.582,0.018
			v-0.685l-2.283,0.018c-0.51,0-0.754-0.316-0.754-0.633s0.244-0.632,0.754-0.632l2.283,0.018l-0.018-0.668h-2.969
			c-0.543,0-0.824-0.351-0.824-0.702s0.281-0.702,0.807-0.702h2.986v-0.721c0-0.597,0.492-0.896,0.967-0.896
			c0.492,0,0.982,0.299,0.982,0.896v0.721h3.215c0.545,0,0.809,0.351,0.809,0.702s-0.264,0.702-0.809,0.702h-3.232v0.668
			l2.354-0.018c0.492,0,0.738,0.315,0.738,0.632s-0.246,0.633-0.738,0.633l-2.354-0.018v0.685l3.812-0.018
			c0.508,0,0.754,0.352,0.754,0.702c0,0.352-0.246,0.703-0.754,0.703H206.765z M213.386,37.363h-4.162
			c0,0.756,0.018,1.511,0.035,2.195v0.035c0,0.545-0.439,0.826-0.879,0.826c-0.475,0-0.932-0.299-0.949-0.861
			c0-0.948-0.018-1.967-0.018-2.968c0-1.019,0.018-2.02,0.018-2.933c0.018-0.948,0.422-1.581,1.74-1.634
			c0.666-0.035,1.387-0.035,2.125-0.035c0.719,0,1.457,0,2.107,0.035c1.176,0.035,1.738,0.58,1.756,1.546
			c0,0.246,0.018,1.668,0.035,2.23c0.018,0.299,0.018,0.755,0.018,1.212v1.212c0,1.001-0.633,2.037-2.389,2.037
			c-1.334,0-1.809-0.334-1.809-1.001c0-0.422,0.281-0.825,0.791-0.825c0.068,0,0.121,0,0.191,0.017
			c0.264,0.053,0.492,0.088,0.686,0.088c0.439,0,0.686-0.192,0.703-0.79V37.363z M209.224,35.361v0.773h4.18
			c0-0.264-0.018-0.51-0.018-0.773H209.224z M213.333,33.799c-0.035-0.404-0.035-0.457-2.107-0.457c-1.617,0-1.967,0-1.967,0.457
			l-0.018,0.333h4.109L213.333,33.799z"/>
		<path fill="#231815" d="M225.081,30.198l-3.127,0.018c-0.578,0-0.842-0.369-0.842-0.738c0-0.403,0.299-0.808,0.842-0.808h2.248
			v-0.931h-1.633c-0.598,0-0.877-0.369-0.877-0.737c0-0.404,0.314-0.826,0.877-0.826l1.615,0.018l-0.018-0.772v-0.018
			c0-0.579,0.475-0.878,0.932-0.878c0.475,0,0.949,0.299,0.949,0.878v0.018l-0.018,0.772l1.615-0.018
			c0.562,0,0.824,0.387,0.824,0.773c0,0.403-0.262,0.79-0.824,0.79h-1.615l-0.018,0.931h2.09c0.543,0,0.807,0.387,0.807,0.773
			c0,0.386-0.264,0.772-0.807,0.772L225.081,30.198z M226.03,36.854l0.018,2.564c0,0.579-0.475,0.878-0.949,0.878
			s-0.932-0.281-0.932-0.878l0.018-2.564l-1.879,0.018c-0.596,0-0.877-0.369-0.877-0.737c0-0.404,0.314-0.826,0.877-0.826h1.896
			v-1.071l-2.248,0.018c-0.578,0-0.842-0.368-0.842-0.737c0-0.404,0.299-0.808,0.842-0.808h1.529
			c-0.141-0.07-0.246-0.158-0.334-0.352c-0.246-0.545-0.475-0.825-0.545-0.931s-0.105-0.229-0.105-0.334
			c0-0.404,0.492-0.702,0.932-0.702c0.666,0,1.316,1.089,1.316,1.475c0,0.387-0.334,0.738-0.703,0.861h1.09
			c0-0.158,0.053-0.316,0.176-0.51c0.264-0.387,0.545-0.913,0.738-1.493c0.088-0.28,0.332-0.403,0.596-0.403
			c0.492,0,1.072,0.368,1.072,0.843c0,0.457-0.791,1.458-0.861,1.546h1.23c0.543,0,0.807,0.386,0.807,0.772
			s-0.264,0.772-0.807,0.772l-2.072-0.018v1.071h1.896c0.561,0,0.824,0.387,0.824,0.773c0,0.403-0.264,0.79-0.824,0.79
			L226.03,36.854z M231.456,39.787c-0.246,0-0.457-0.088-0.633-0.245c-0.105,0.456-0.525,0.702-0.93,0.702
			c-0.475,0-0.949-0.316-0.949-0.948c0,0,0-10.433,0.07-12.312c0.035-0.948,0.615-1.581,1.844-1.634
			c0.58-0.018,1.283-0.035,1.969-0.035c0.438,0,0.859,0,1.246,0.018c1.193,0.035,1.879,0.772,1.879,1.757
			c0,1.773-0.369,3.073-2.441,3.073c-1.492,0-2.02-0.387-2.02-1.054c0-0.422,0.264-0.825,0.756-0.825
			c0.105,0,0.211,0.018,0.316,0.052c0.299,0.088,0.561,0.123,0.754,0.123c0.387,0,0.703-0.141,0.703-0.948
			c0-0.597-0.352-0.597-1.668-0.597c-1.301,0-1.477,0.088-1.512,0.632c-0.018,0.422-0.018,1.651-0.018,3.144
			c0.615-0.018,1.652-0.035,2.512-0.035c1.564,0,2.6,0.053,2.6,1.493c0,1.036-0.58,3.179-1.334,4.549
			c0.492,0.492,1.088,0.896,1.791,1.282c0.299,0.158,0.439,0.439,0.439,0.72c0,0.51-0.439,1.071-1.055,1.071
			c-0.842,0-2.107-1.439-2.213-1.545C232.983,38.909,232.001,39.787,231.456,39.787z M231.263,33.605
			c0-0.51,0.439-0.825,0.844-0.825c0.316,0,0.615,0.175,0.721,0.562c0.156,0.649,0.367,1.212,0.613,1.721
			c0.492-1.229,0.598-2.37,0.598-2.563s-0.193-0.246-0.264-0.246c-0.668,0.035-2.16,0.035-2.951,0.035
			c0,2.178,0.018,4.549,0.018,5.884l0.176-0.105c0.58-0.369,1.055-0.825,1.459-1.317C231.509,35.203,231.263,33.887,231.263,33.605z
			"/>
		<path fill="#231815" d="M43.861,61.484c0-0.297,0.123-0.596,0.457-0.807c0.825-0.527,1.791-1.652,2.195-2.336
			c0.193-0.334,0.475-0.457,0.772-0.457c0.475,0,0.931,0.352,0.931,0.861c0,0.176-0.035,0.35-0.157,0.543
			c-0.316,0.527-2.056,3.268-3.18,3.268C44.301,62.557,43.861,62.012,43.861,61.484z M51.624,52.527
			c-0.018,0.51-0.018,1.266-0.035,2.125c0.65-0.018,1.3-0.018,1.933-0.018c0.649,0,1.282,0,1.896,0.018
			c0.737,0,1.089,0.475,1.089,0.932c0,0.492-0.369,0.967-1.089,0.967h-0.07c-1.247-0.053-2.512-0.07-3.776-0.07
			c0,0.49-0.018,1-0.018,1.51c0,0.861,0.018,1.721,0.053,2.477c0.018,0.562,0.018,0.824,0.018,1.316c0,1.143-0.456,2.23-2.371,2.23
			c-0.702,0-2.09-0.07-2.09-1.105c0-0.527,0.404-1.037,0.967-1.037c0.104,0,0.21,0.018,0.315,0.053
			c0.229,0.07,0.475,0.141,0.703,0.141c0.333,0,0.597-0.158,0.597-0.686v-4.881c-1.353,0.035-2.705,0.088-4.057,0.141h-0.053
			c-0.668,0-1.019-0.475-1.019-0.949c0-0.439,0.315-0.896,1.019-0.914c1.353-0.053,2.739-0.088,4.109-0.105
			c0-0.859-0.018-1.58-0.035-2.055V52.58c0-0.701,0.475-1.035,0.948-1.035c0.475,0,0.966,0.352,0.966,0.965V52.527z M55.418,61.643
			c-0.527-0.824-1.738-1.861-2.424-2.266c-0.299-0.176-0.421-0.422-0.421-0.684c0-0.457,0.403-0.932,0.966-0.932
			c0.72,0,3.688,2.125,3.688,3.215c0,0.596-0.526,1.105-1.071,1.105C55.893,62.082,55.629,61.959,55.418,61.643z M55.207,53.969
			c-1.019,0-1.826-0.809-1.826-1.826c0-1.02,0.808-1.863,1.826-1.863s1.862,0.844,1.862,1.863
			C57.069,53.16,56.226,53.969,55.207,53.969z M55.207,51.316c-0.438,0-0.79,0.387-0.79,0.826c0,0.438,0.352,0.789,0.79,0.789
			c0.439,0,0.808-0.352,0.808-0.789C56.015,51.703,55.646,51.316,55.207,51.316z"/>
		<path fill="#231815" d="M63.161,58.342c-0.72,0-1.071-0.475-1.071-0.967c0-0.527,0.387-1.053,1.071-1.053h10.994
			c0.686,0,1.019,0.508,1.019,1.018c0,0.492-0.333,1.002-1.019,1.002H63.161z"/>
		<path fill="#231815" d="M81.935,64.576c-0.228,0.088-0.421,0.123-0.614,0.123c-0.649,0-1.054-0.457-1.054-0.949
			c0-0.367,0.246-0.736,0.808-0.93c2.336-0.756,4.232-2.213,5.673-3.812c-0.544-0.314-1.106-0.596-1.58-0.719
			c-0.439-0.105-0.633-0.422-0.633-0.756c0-0.457,0.369-0.912,1.001-0.912c0.51,0,1.581,0.438,2.441,0.859
			c0.702-1,1.528-2.6,1.528-2.863c0-0.123-0.088-0.141-0.264-0.141c-0.369,0-2.16,0.123-2.985,0.246
			c-1.247,1.617-2.863,3.461-4.022,4.268c-0.264,0.176-0.509,0.264-0.737,0.264c-0.58,0-1.001-0.473-1.001-1
			c0-0.334,0.158-0.668,0.579-0.932c1.687-1.053,3.97-3.916,4.584-5.391c0.246-0.615,0.686-0.844,1.089-0.844
			c0.58,0,1.142,0.475,1.142,1.037c0,0.227-0.035,0.279-0.316,0.754c1.95-0.176,2.003-0.176,2.547-0.176
			c1.247,0,1.774,0.58,1.774,1.354c0,0.387-0.141,0.824-0.369,1.246c-0.633,1.143-1.229,2.195-1.879,3.162
			c1.334,0.965,1.404,1.562,1.404,1.773c0,0.58-0.474,1.053-1.001,1.053c-0.246,0-0.509-0.088-0.737-0.332
			c-0.229-0.246-0.562-0.51-0.931-0.809C86.853,61.959,84.938,63.418,81.935,64.576z"/>
		<path fill="#231815" d="M95.756,62.662c0-0.369,0.229-0.738,0.737-0.967c2.354-1.053,3.899-3.512,3.899-6.568
			c0-0.158,0-0.334-0.018-0.492v-0.088c0-0.701,0.491-1.035,1.001-1.035s1.054,0.352,1.071,0.982v0.404
			c0,5.48-4.373,8.746-5.603,8.746C96.213,63.645,95.756,63.172,95.756,62.662z M105.644,54.285l-0.193,5.672v0.053
			c0,0.176,0.053,0.246,0.158,0.246c0.229,0,2.143-0.932,3.97-4.303c0.228-0.439,0.579-0.615,0.913-0.615
			c0.544,0,1.071,0.457,1.071,1.055c0,0.176-0.053,0.367-0.158,0.561c-1.914,3.426-5.198,5.85-6.568,5.85
			c-0.79,0-1.44-0.527-1.44-1.582v-0.209c0.123-1.582,0.246-5.709,0.246-6.727c0-0.721,0.51-1.09,1.001-1.09
			c0.51,0,1.001,0.369,1.001,1.072V54.285z"/>
		<path fill="#231815" d="M129.686,54.582c0.896,0,1.265,0.439,1.265,0.896c0,0.51-0.456,1.055-1.194,1.055h-0.035
			c-1.019-0.035-2.09-0.053-3.161-0.053v0.211c0,3.389-1.422,6.199-4.637,8.043c-0.315,0.176-0.597,0.246-0.825,0.246
			c-0.597,0-0.966-0.439-0.966-0.914c0-0.352,0.176-0.701,0.597-0.93c2.67-1.459,3.829-3.619,3.829-6.377V56.48
			c-0.843,0-1.686,0.018-2.512,0.035v2.457c0,0.703-0.526,1.037-1.036,1.037c-0.509,0-1.001-0.316-1.001-0.949v-0.07
			c0.035-0.666,0.053-1.527,0.053-2.422c-1.054,0.035-2.055,0.053-2.985,0.105h-0.088c-0.738,0-1.089-0.457-1.089-0.914
			c0-0.475,0.351-0.949,1.054-0.967c1.001-0.035,2.037-0.07,3.091-0.088c-0.018-0.754-0.035-1.457-0.07-2.02v-0.07
			c0-0.666,0.492-1.035,0.983-1.035c0.475,0,0.966,0.334,1.001,1.035c0.035,0.545,0.053,1.266,0.07,2.055l2.547-0.035
			c0-0.842-0.018-1.615-0.035-2.09c0-0.088-0.053-1.229,0.966-1.229c0.527,0,1.054,0.422,1.054,1.193v2.09
			c1.054-0.018,2.107-0.018,3.108-0.018H129.686z"/>
		<path fill="#231815" d="M140.364,63.697c0.018-1.316,0.088-3.898,0.105-5.9c-1.3,1.229-2.688,2.301-4.374,3.338
			c-0.386,0.227-0.737,0.332-1.036,0.332c-0.702,0-1.142-0.508-1.142-1.035c0-0.334,0.193-0.668,0.615-0.879
			c3.091-1.475,6.48-4.707,8.447-7.797c0.264-0.422,0.633-0.598,0.966-0.598c0.562,0,1.054,0.457,1.054,1.002
			c0,0.279,0,0.578-2.493,3.494c-0.035,1.158-0.053,3.459-0.053,5.41c0,1.035,0,1.967,0.018,2.58v0.035
			c0,0.773-0.562,1.195-1.106,1.195c-0.51,0-1.001-0.369-1.001-1.16V63.697z"/>
		<path fill="#231815" d="M153.92,63.715c0.018,0.809-0.544,1.266-1.124,1.266c-0.526,0-1.036-0.369-1.036-1.107v-0.07
			c0.088-1.967,0.141-5.848,0.141-8.887c0-1.334-0.018-2.494-0.035-3.266c-0.018-0.721,0.545-1.02,1.036-1.02
			c0.527,0,1.054,0.334,1.054,1.002v0.035l-0.053,3.969c0.404,0,3.268,0.527,4.409,1.51c0.28,0.246,0.403,0.545,0.403,0.861
			c0,0.598-0.474,1.176-1.054,1.176c-0.193,0-0.404-0.07-0.614-0.229c-0.703-0.525-2.248-1.158-3.162-1.369
			C153.885,59.939,153.885,62.328,153.92,63.715z"/>
		<path fill="#231815" d="M166.812,64.154c0,0.387-0.246,0.562-0.475,0.562c-0.264,0-0.527-0.193-0.545-0.545
			c-0.018-1.51-0.035-3.371-0.035-5.285c0-2.67,0.018-5.428,0.053-7.518c0.018-1.23,0.721-2.072,2.037-2.125
			c0.422-0.018,0.791-0.018,1.16-0.018c0.492,0,0.965,0,1.492,0.018c0.352,0,0.51,0.246,0.51,0.492c0,0.244-0.176,0.508-0.51,0.508
			h-0.07c-0.105-0.018-0.598-0.053-2.424-0.053c-0.686,0.018-1.176,0.387-1.211,1.266c-0.035,1.07-0.053,2.494-0.053,4.039
			c0,2.916,0.053,6.27,0.07,8.641V64.154z"/>
		<path fill="#231815" d="M182.722,52.703c2.107-0.613,3.619-1.018,4.883-1.018c0.932,0,1.299,0.613,1.299,1.176
			c0,0.633-0.385,1.02-1.51,1.02c-0.123,0-0.246,0-0.404-0.018h-0.246c-0.912,0-1.844,0.316-2.318,0.492
			c-1.141,0.402-2.809,2.055-2.809,4.215c0,1.879,1.299,3.635,3.811,3.635h0.193c1.158-0.035,1.633,0.615,1.633,1.16
			c0,0.543-0.475,1.088-1.51,1.088c-3.777,0-6.008-2.635-6.008-5.619c0-1.898,0.879-3.215,1.16-3.602
			c0.105-0.141,0.158-0.229,0.158-0.264s-0.018-0.053-0.07-0.053s-0.141,0.018-0.246,0.053c-0.826,0.211-1.264,0.598-1.914,0.861
			c-1.213,0.51-1.65,0.598-1.949,0.598c-0.756,0-1.178-0.58-1.178-1.16c0-0.475,0.299-0.947,0.949-1.088
			C177.401,54.039,179.911,53.494,182.722,52.703z M187.481,58.465c-0.211-0.246-1.123-0.896-1.439-1.037
			c-0.369-0.158-0.51-0.404-0.51-0.65c0-0.402,0.387-0.789,0.879-0.789c0.508,0,1.844,0.807,2.178,1.158
			c0.174,0.193,0.262,0.404,0.262,0.615c0,0.492-0.42,0.967-0.859,0.967C187.815,58.729,187.64,58.641,187.481,58.465z
			 M189.396,56.76c-0.211-0.227-1.158-0.842-1.475-0.965c-0.369-0.141-0.527-0.387-0.527-0.633c0-0.404,0.404-0.824,0.914-0.824
			c0.229,0,2.406,0.701,2.406,1.721c0,0.475-0.404,0.93-0.826,0.93C189.712,56.988,189.554,56.918,189.396,56.76z"/>
		<path fill="#231815" d="M203.515,64.33c-1.316,0-2.424-0.721-2.424-2.617V61.66c0-0.701,0.088-1.176,0.088-1.791
			c0-0.633-0.139-1.07-0.666-1.07c-0.826,0-2.02,0.912-2.301,1.422c-0.439,0.773-0.896,1.492-1.072,2.354
			c-0.299,1.387-0.648,1.562-1.316,1.562c-0.527,0-1.143-0.299-1.143-0.965c0-0.422,0.703-2.371,2.916-5.867l2.775-4.426
			c0.299-0.475,0.771-1.105,0.965-1.439c0.211-0.352,0.527-0.51,0.844-0.51c0.562,0,1.141,0.475,1.141,1.107
			c0,0.314-0.033,0.578-0.982,1.615c-1.914,2.072-3.074,3.986-3.074,4.039c0,0.018,0,0.018,0.018,0.018s0.053-0.035,0.088-0.07
			c0.123-0.123,0.738-0.475,1.688-0.475c1.65,0,2.16,1.318,2.16,2.512c0,0.545-0.105,0.984-0.105,1.527
			c0,0.756,0.367,1.107,0.877,1.107c0.668,0,1.984-0.633,2.969-3.092c0.193-0.49,0.562-0.701,0.93-0.701
			c0.58,0,1.16,0.473,1.16,1.141c0,0.211-0.053,0.422-0.176,0.65C207.274,63.365,205.237,64.33,203.515,64.33z"/>
		<path fill="#231815" d="M213.683,61.484c0-0.297,0.123-0.596,0.457-0.807c0.826-0.527,1.791-1.652,2.195-2.336
			c0.193-0.334,0.475-0.457,0.773-0.457c0.475,0,0.93,0.352,0.93,0.861c0,0.176-0.035,0.35-0.156,0.543
			c-0.316,0.527-2.057,3.268-3.18,3.268C214.122,62.557,213.683,62.012,213.683,61.484z M221.446,52.527
			c-0.018,0.51-0.018,1.266-0.035,2.125c0.65-0.018,1.299-0.018,1.932-0.018c0.65,0,1.283,0,1.896,0.018
			c0.738,0,1.09,0.475,1.09,0.932c0,0.492-0.369,0.967-1.09,0.967h-0.07c-1.246-0.053-2.512-0.07-3.775-0.07
			c0,0.49-0.018,1-0.018,1.51c0,0.861,0.018,1.721,0.053,2.477c0.018,0.562,0.018,0.824,0.018,1.316c0,1.143-0.457,2.23-2.371,2.23
			c-0.703,0-2.09-0.07-2.09-1.105c0-0.527,0.404-1.037,0.967-1.037c0.104,0,0.209,0.018,0.314,0.053
			c0.229,0.07,0.475,0.141,0.703,0.141c0.334,0,0.598-0.158,0.598-0.686v-4.881c-1.354,0.035-2.705,0.088-4.057,0.141h-0.053
			c-0.668,0-1.02-0.475-1.02-0.949c0-0.439,0.316-0.896,1.02-0.914c1.352-0.053,2.738-0.088,4.109-0.105
			c0-0.859-0.018-1.58-0.035-2.055V52.58c0-0.701,0.475-1.035,0.947-1.035c0.475,0,0.967,0.352,0.967,0.965V52.527z M225.239,61.643
			c-0.527-0.824-1.738-1.861-2.424-2.266c-0.299-0.176-0.42-0.422-0.42-0.684c0-0.457,0.402-0.932,0.965-0.932
			c0.721,0,3.688,2.125,3.688,3.215c0,0.596-0.525,1.105-1.07,1.105C225.714,62.082,225.45,61.959,225.239,61.643z M225.028,53.969
			c-1.018,0-1.826-0.809-1.826-1.826c0-1.02,0.809-1.863,1.826-1.863c1.02,0,1.863,0.844,1.863,1.863
			C226.892,53.16,226.048,53.969,225.028,53.969z M225.028,51.316c-0.438,0-0.789,0.387-0.789,0.826
			c0,0.438,0.352,0.789,0.789,0.789c0.439,0,0.809-0.352,0.809-0.789C225.837,51.703,225.468,51.316,225.028,51.316z"/>
		<path fill="#231815" d="M234.194,64.576c-0.229,0.088-0.422,0.123-0.615,0.123c-0.648,0-1.053-0.457-1.053-0.949
			c0-0.367,0.246-0.736,0.807-0.93c2.336-0.756,4.232-2.213,5.674-3.812c-0.545-0.314-1.107-0.596-1.58-0.719
			c-0.439-0.105-0.633-0.422-0.633-0.756c0-0.457,0.369-0.912,1-0.912c0.51,0,1.582,0.438,2.441,0.859
			c0.703-1,1.529-2.6,1.529-2.863c0-0.123-0.088-0.141-0.264-0.141c-0.369,0-2.16,0.123-2.986,0.246
			c-1.246,1.617-2.863,3.461-4.021,4.268c-0.264,0.176-0.51,0.264-0.738,0.264c-0.58,0-1-0.473-1-1c0-0.334,0.158-0.668,0.578-0.932
			c1.688-1.053,3.971-3.916,4.584-5.391c0.246-0.615,0.686-0.844,1.09-0.844c0.58,0,1.141,0.475,1.141,1.037
			c0,0.227-0.035,0.279-0.316,0.754c1.951-0.176,2.004-0.176,2.547-0.176c1.248,0,1.775,0.58,1.775,1.354
			c0,0.387-0.141,0.824-0.369,1.246c-0.633,1.143-1.23,2.195-1.879,3.162c1.334,0.965,1.404,1.562,1.404,1.773
			c0,0.58-0.475,1.053-1.002,1.053c-0.246,0-0.508-0.088-0.736-0.332c-0.229-0.246-0.562-0.51-0.932-0.809
			C239.112,61.959,237.198,63.418,234.194,64.576z"/>
		<path fill="#231815" d="M253.39,50.49c0-0.387,0.246-0.561,0.475-0.561c0.264,0,0.527,0.191,0.545,0.543
			c0.018,1.512,0.035,3.373,0.035,5.287c0,2.67-0.018,5.428-0.053,7.518c-0.018,1.229-0.721,2.072-2.039,2.125
			c-0.42,0.018-0.789,0.018-1.158,0.018c-0.492,0-0.967,0-1.492-0.018c-0.352,0-0.51-0.246-0.51-0.492s0.176-0.51,0.51-0.51h0.07
			c0.105,0.018,0.596,0.053,2.424,0.053c0.684-0.018,1.176-0.387,1.211-1.264c0.035-1.072,0.053-2.494,0.053-4.041
			c0-2.914-0.053-6.27-0.07-8.641V50.49z"/>
		<path fill="#231815" d="M270.513,60.115c-3.529-3.057-3.758-3.25-4.303-3.25c-0.299,0-0.562,0.141-0.896,0.404
			c-0.824,0.65-1.65,1.441-2.562,1.984c-0.229,0.141-0.457,0.193-0.668,0.193c-0.65,0-1.213-0.543-1.213-1.105
			c0-0.352,0.211-0.721,0.721-0.984c0.334-0.176,1.756-1,2.635-1.615c0.721-0.51,1.369-0.738,2.002-0.738
			c0.721,0,1.387,0.299,2.072,0.791c1.143,0.809,2.318,1.738,3.531,2.635c1.158,0.859,2.354,1.668,3.529,2.283
			c0.404,0.211,0.58,0.561,0.58,0.93c0,0.615-0.51,1.248-1.23,1.248C273.728,62.891,271.55,61.012,270.513,60.115z"/>
	</g>
	<polyline fill="none" stroke="#FFFFFF" stroke-width="3" stroke-miterlimit="10" points="297.647,37.418 304.851,45 
		297.647,52.578 	"/>
</g>
</svg>
