<?xml version="1.0" encoding="utf-8"?>
<!-- Generator: Adobe Illustrator 16.0.0, SVG Export Plug-In . SVG Version: 6.00 Build 0)  -->
<!DOCTYPE svg PUBLIC "-//W3C//DTD SVG 1.1//EN" "http://www.w3.org/Graphics/SVG/1.1/DTD/svg11.dtd">
<svg version="1.1" id="レイヤー_1" xmlns="http://www.w3.org/2000/svg" xmlns:xlink="http://www.w3.org/1999/xlink" x="0px"
	 y="0px" width="655px" height="90px" viewBox="0 0 655 90" enable-background="new 0 0 655 90" xml:space="preserve">
<g>
	<g>
		<path fill="#FFE673" d="M655,45.03C655,69.764,634.764,90,610.03,90H44.97C20.236,90,0,69.764,0,45.03V44.97
			C0,20.236,20.236,0,44.97,0H610.03C634.764,0,655,20.236,655,44.97V45.03z"/>
	</g>
	<g>
		<path fill="#231815" d="M71.479,51.269c-3.284,1.664-4.521,1.957-4.858,1.957c-0.765,0-1.192-0.607-1.192-1.215
			c0-0.495,0.27-0.989,0.877-1.169c2.001-0.63,3.486-1.17,5.173-2.069v-4.858l-4.296,0.022c-0.832,0-1.237-0.585-1.237-1.17
			c0-0.607,0.405-1.191,1.237-1.191h4.296l0.022-4.521c0-0.787,0.63-1.169,1.26-1.169c0.629,0,1.259,0.382,1.259,1.169v17.363
			c0,0.743-0.63,1.125-1.259,1.125c-0.63,0-1.26-0.382-1.26-1.125L71.479,51.269z M83.961,49.064c0.697,0,1.417,0.473,1.417,1.35
			c0,4.655-2.564,4.678-4.836,4.678c-2.834,0-4.363-0.539-4.363-3.014c0-0.944,0.022-14.395,0.067-15.092
			c0.045-0.72,0.652-1.057,1.26-1.057c1.237,0,1.237,1.012,1.237,1.574c0,0.944-0.022,3.036-0.045,5.33
			c1.372-0.72,2.946-1.687,4.048-2.496c0.225-0.157,0.45-0.225,0.675-0.225c0.697,0,1.305,0.675,1.305,1.395
			c0,0.427-0.203,0.854-0.697,1.169c-1.439,0.922-3.801,2.002-5.286,2.587c-0.022,0-0.045,0.022-0.067,0.022
			c-0.022,3.104-0.045,5.96-0.045,6.388c0,0.832,0.585,0.989,1.889,0.989c1.665,0,2.227-0.067,2.227-2.227v-0.157
			C82.747,49.425,83.332,49.064,83.961,49.064z"/>
		<path fill="#231815" d="M93.611,44.881c-0.742-0.585-1.484-1.012-2.249-1.282c-0.472-0.157-0.652-0.494-0.652-0.854
			c0-0.585,0.54-1.236,1.26-1.236c0.675,0,2.227,0.606,3.014,1.169c0.405,0.271,0.562,0.675,0.562,1.058
			c0,0.697-0.562,1.417-1.237,1.417C94.084,45.151,93.859,45.061,93.611,44.881z M92.262,55.228c-0.72,0-1.35-0.585-1.35-1.26
			c0-0.271,0.112-0.54,0.337-0.81c1.327-1.484,2.204-3.172,3.104-5.398c0.202-0.494,0.629-0.697,1.034-0.697
			c0.607,0,1.237,0.45,1.237,1.192c0,0.72-1.35,4.139-3.171,6.343C93.094,55.047,92.645,55.228,92.262,55.228z M94.534,39.798
			c-0.585-0.742-1.327-1.282-1.844-1.619c-0.337-0.225-0.495-0.518-0.495-0.81c0-0.585,0.584-1.17,1.282-1.17
			c0.63,0,3.239,1.372,3.239,2.632c0,0.742-0.652,1.417-1.327,1.417C95.096,40.248,94.781,40.113,94.534,39.798z M99.999,39.82
			c-1.934,2.991-2.564,3.172-3.059,3.172c-0.675,0-1.26-0.495-1.26-1.125c0-0.27,0.113-0.562,0.382-0.832
			c1.462-1.507,2.497-3.217,3.329-4.993c0.225-0.45,0.607-0.652,1.034-0.652c0.63,0,1.282,0.473,1.282,1.125
			c0,0.337-0.225,0.765-0.36,0.989l8.142-0.045c0.742,0,1.125,0.585,1.125,1.17c0,0.606-0.382,1.191-1.125,1.191H99.999z
			 M108.366,52.506c-0.652,2.204-2.046,3.261-3.981,3.261c-0.562,0-1.169-0.09-1.822-0.27c-0.472-0.112-0.697-0.54-0.697-0.967
			c0-0.607,0.405-1.26,1.08-1.26c0.135,0,0.248,0.022,0.382,0.067c0.405,0.112,0.742,0.18,1.035,0.18
			c0.697,0,1.147-0.314,1.484-0.989l-6.027,0.045h-0.045c-1.687,0-2.429-0.944-2.429-2.092c0-0.27,0.045-0.54,0.112-0.81
			c0.158-0.562,0.292-1.215,0.405-1.935H97.3c-0.833,0-1.215-0.518-1.215-1.057c0-0.562,0.428-1.147,1.215-1.147H98.2l0.27-2.024
			c0.248-1.844,0.967-2.429,2.812-2.474c0.967-0.022,2.182-0.045,3.329-0.045c0.72,0,1.395,0,1.979,0.022
			c1.574,0.045,2.564,0.765,2.564,2.227c0,0.675-0.022,1.462-0.045,2.294h1.417c0.765,0,1.147,0.54,1.147,1.103
			c0,0.539-0.382,1.102-1.147,1.102h-1.507c-0.067,0.922-0.157,1.845-0.247,2.654l1.057-0.022c0.72,0,1.057,0.518,1.057,1.057
			c0,0.54-0.36,1.08-1.057,1.08H108.366z M101.888,50.437c0.135-0.877,0.248-1.845,0.36-2.789h-2.114
			c-0.135,0.854-0.27,1.687-0.383,2.249v0.09c0,0.248,0.225,0.45,0.54,0.45H101.888z M102.451,45.601l0.18-2.608
			c-1.664,0-1.912,0.09-1.979,0.72l-0.248,1.889H102.451z M106.432,50.392c0.135-0.81,0.225-1.777,0.27-2.744h-2.249
			c-0.113,0.944-0.225,1.912-0.36,2.767L106.432,50.392z M106.769,45.601v-1.934c0-0.652-0.495-0.675-1.957-0.675
			c-0.045,0.81-0.09,1.687-0.158,2.608H106.769z"/>
		<path fill="#231815" d="M118.016,55.497c-0.787,0-1.462-0.697-1.462-1.372c0-0.359,0.18-0.72,0.63-0.967
			c1.192-0.675,2.182-1.417,2.901-2.249c0.022-1.058,0.045-1.957,0.045-2.856c0-1.192-0.022-1.192-0.922-1.192h-0.765
			c-0.315,0-1.395,0-1.395-1.103c0-0.584,0.405-1.169,1.102-1.169c0.877,0,1.484,0,2.204,0.022c1.485,0.045,2.182,0.697,2.182,2.204
			c0,1.305-0.045,2.879-0.045,4.251c1.282,1.574,3.149,2.137,6.59,2.137c2.249,0,4.723-0.248,6.433-0.383h0.135
			c0.787,0,1.214,0.607,1.214,1.215s-0.405,1.192-1.282,1.282c-1.395,0.135-3.419,0.27-5.465,0.27c-5.96,0-7.265-1.17-8.817-2.722
			C119.141,55.295,118.466,55.497,118.016,55.497z M120.468,40.675c-0.562-0.854-1.439-1.484-2.069-1.844
			c-0.36-0.226-0.517-0.518-0.517-0.81c0-0.585,0.584-1.17,1.304-1.17c0.742,0,3.531,1.664,3.531,2.924
			c0,0.765-0.675,1.439-1.35,1.439C121.03,41.215,120.715,41.058,120.468,40.675z M130.499,40.405l-0.225,0.922
			c2.204,0,4.093,0.022,4.184,2.047c0.045,1.125,0.067,2.249,0.067,3.374c0,1.012-0.022,1.979-0.067,2.924
			c-0.067,1.282-0.742,2.114-2.429,2.182c-0.63,0.022-1.462,0.045-2.294,0.045c-1.035,0-2.069-0.022-2.789-0.045
			c-1.372-0.045-2.429-0.675-2.497-2.159c-0.045-0.899-0.067-1.867-0.067-2.834c0-1.125,0.022-2.294,0.067-3.464
			c0.09-1.957,1.957-2.047,3.418-2.047c0.068-0.314,0.09-0.584,0.135-0.944h-3.801c-0.72,0-1.102-0.518-1.102-1.012
			c0-0.518,0.382-1.013,1.102-1.013h2.159l-0.067-0.112c-0.36-0.742-0.607-0.944-0.72-1.125c-0.112-0.157-0.157-0.292-0.157-0.427
			c0-0.518,0.674-0.877,1.282-0.877c0.9,0,1.777,1.417,1.777,1.889c0,0.248-0.112,0.473-0.292,0.652h1.642
			c0.315-0.607,0.562-1.124,0.944-2.159c0.135-0.382,0.518-0.54,0.922-0.54c0.675,0,1.417,0.428,1.417,1.013
			c0,0.247-0.135,0.518-0.877,1.687h2.924c0.72,0,1.08,0.495,1.08,1.013c0,0.494-0.36,1.012-1.08,1.012H130.499z M126.72,45.916
			c0,0.382-0.022,0.81-0.022,1.191h5.443c0-0.382-0.022-0.81-0.022-1.191H126.72z M132.096,43.892
			c-0.022-0.765-0.022-0.787-2.789-0.787c-2.339,0-2.497,0.022-2.542,0.81l-0.022,0.337h5.353V43.892z M126.743,48.728
			c0,0.202,0.022,0.427,0.022,0.606c0.045,0.742,0.382,0.765,2.317,0.765c2.946,0,2.991-0.022,3.014-0.787
			c0-0.18,0.022-0.382,0.022-0.584H126.743z"/>
		<path fill="#231815" d="M152.812,42.497c0,1.821-2.069,6.837-4.588,9.177c-0.652,0.607-1.35,0.877-2.002,0.877
			c-1.574,0-3.374-1.755-3.374-4.521c0-3.689,3.216-8.435,9.199-8.435c4.588,0,7.58,3.126,7.58,6.837
			c0,5.78-6.072,7.715-7.242,7.715c-0.944,0-1.507-0.63-1.507-1.282c0-0.562,0.405-1.124,1.305-1.327
			c3.509-0.81,4.858-2.991,4.858-5.263c0-2.092-1.417-4.318-4.565-4.633C152.699,41.867,152.812,42.137,152.812,42.497z
			 M145.232,47.805c0,0.968,0.428,1.935,1.08,1.935c1.057,0,3.576-4.206,3.846-7.22c0.022-0.27,0.09-0.518,0.203-0.72
			C146.694,42.722,145.232,46.096,145.232,47.805z"/>
		<path fill="#231815" d="M181.828,40.338c-1.327-0.022-3.059-0.045-4.858-0.045v3.148c0,0.832-0.607,1.26-1.215,1.26
			c-0.607,0-1.214-0.428-1.214-1.26v-3.148c-1.799,0-3.531,0.022-4.813,0.045c-0.944,0.022-1.125,0.247-1.169,0.787v1.237
			c0,0.607-0.607,0.944-1.192,0.944s-1.169-0.314-1.192-0.989c0-0.271-0.023-0.54-0.023-0.81c0-1.305,0.023-2.789,2.429-2.812
			c1.844-0.022,3.891-0.045,5.96-0.045v-0.788h-5.083c-0.742,0-1.102-0.472-1.102-0.967c0-0.473,0.36-0.944,1.102-0.944h12.64
			c0.697,0,1.057,0.472,1.057,0.944c0,0.495-0.36,0.967-1.057,0.967h-5.128v0.788c1.979,0,3.913,0.022,5.645,0.045
			c1.125,0.022,2.722,0.449,2.744,1.844c0.022,0.293,0.022,0.652,0.022,1.035c0,0.27,0,0.539-0.022,0.787
			c-0.045,0.675-0.675,0.989-1.282,0.989c-0.607,0-1.192-0.314-1.192-0.944v-1.372C182.862,40.562,182.682,40.36,181.828,40.338z
			 M176.834,52.596c0.045,0.742,0.45,0.787,2.812,0.787c2.452,0,3.419-0.022,3.419-1.574c0-0.697,0.562-1.013,1.147-1.013
			c0.652,0,1.304,0.36,1.304,0.99c0,3.486-2.924,3.576-5.803,3.576c-0.967,0-1.957-0.022-2.789-0.09
			c-1.574-0.112-2.339-1.013-2.339-2.497v-0.63c-1.012,0-2.069-0.022-3.284-0.045c-1.597-0.022-2.474-0.877-2.519-1.956
			c-0.022-0.585-0.022-1.125-0.022-1.643c0-0.517,0-1.012,0.022-1.484c0.045-0.922,0.607-1.844,2.497-1.889
			c0.922-0.022,2.294-0.045,3.801-0.045c1.799,0,3.779,0.022,5.241,0.045c1.619,0.022,2.316,0.922,2.384,1.866
			c0.045,0.518,0.068,1.035,0.068,1.552c0,0.518-0.022,1.035-0.068,1.574c-0.067,1.013-0.81,1.935-2.496,1.979
			c-1.26,0.022-2.339,0.045-3.374,0.045V52.596z M169.705,44.499c-0.54,0-0.832-0.36-0.832-0.697c0-0.36,0.292-0.697,0.832-0.697
			h3.171c0.562,0,0.833,0.359,0.833,0.697c0,0.359-0.27,0.697-0.833,0.697H169.705z M170.042,42.407
			c-0.54,0-0.832-0.338-0.832-0.697c0-0.338,0.292-0.675,0.832-0.675h2.834c0.562,0,0.833,0.337,0.833,0.697
			c0,0.337-0.27,0.675-0.833,0.675H170.042z M174.63,46.681c-1.035,0-2.002,0-2.699,0.022c-0.652,0.022-0.855,0.337-0.9,0.72
			c-0.022,0.09-0.045,0.225-0.045,0.337h3.621L174.63,46.681z M174.608,49.289h-3.599c0,0.158,0.022,0.315,0.022,0.45
			c0.022,0.518,0.292,0.697,0.9,0.72c0.787,0.022,1.709,0.022,2.676,0.022V49.289z M176.834,49.289v1.192
			c0.922,0,1.844-0.022,2.654-0.022c0.584,0,0.854-0.202,0.877-0.742c0-0.135,0.022-0.292,0.022-0.428H176.834z M180.388,47.76
			c0-0.112-0.022-0.225-0.022-0.337c-0.022-0.338-0.27-0.697-0.922-0.72c-0.629-0.022-1.574-0.022-2.586-0.022v1.079H180.388z
			 M178.589,42.407c-0.562,0-0.832-0.338-0.832-0.675c0-0.36,0.27-0.697,0.832-0.697h2.834c0.562,0,0.832,0.337,0.832,0.675
			c0,0.359-0.27,0.697-0.832,0.697H178.589z M178.589,44.499c-0.562,0-0.832-0.338-0.832-0.697c0-0.338,0.27-0.697,0.832-0.697
			h3.149c0.562,0,0.832,0.337,0.832,0.697c0,0.337-0.27,0.697-0.832,0.697H178.589z"/>
		<path fill="#231815" d="M195.639,44.363c-1.979,1.979-2.182,2.183-2.812,2.183c-0.742,0-1.349-0.675-1.349-1.395
			c0-0.36,0.157-0.742,0.54-1.035c2.317-1.754,4.499-4.116,6.118-7.265c0.248-0.495,0.652-0.697,1.057-0.697
			c0.742,0,1.484,0.63,1.484,1.395c0,0.225-0.067,0.45-0.202,0.675c-0.788,1.282-1.53,2.339-2.317,3.329l-0.112,12.685
			c0,0.877-0.675,1.327-1.327,1.327s-1.282-0.428-1.282-1.282v-0.045L195.639,44.363z M209.786,49.064
			c0.697,0,1.439,0.45,1.439,1.305c0,4.61-2.699,4.655-5.218,4.655c-1.957,0-4.611-0.067-4.611-2.924c0-0.922,0-14.079,0.045-14.754
			s0.652-1.013,1.237-1.013c1.282,0,1.282,0.99,1.282,1.553c0,0.967-0.022,3.104-0.045,5.42c1.484-0.765,3.374-1.845,4.408-2.609
			c0.203-0.157,0.428-0.225,0.63-0.225c0.697,0,1.282,0.697,1.282,1.439c0,0.405-0.18,0.832-0.675,1.147
			c-1.372,0.877-4.184,2.159-5.668,2.743c-0.022,2.812-0.045,5.331-0.045,5.713c0.022,0.607,0.203,1.035,2.114,1.035
			c1.889,0,2.586,0,2.586-2.159v-0.135C208.549,49.425,209.156,49.064,209.786,49.064z"/>
		<path fill="#231815" d="M216.355,45.174c0-0.271,0.09-0.54,0.27-0.855c0.54-0.899,0.787-1.956,0.787-3.081
			c0-0.72,0.495-1.057,1.035-1.057c0.18,0,1.125,0.045,1.125,1.281c0,1.508-0.607,4.836-2.114,4.836
			C216.872,46.298,216.355,45.849,216.355,45.174z M219.863,36.852c0-0.787,0.585-1.147,1.192-1.147
			c0.607,0,1.237,0.383,1.237,1.147v2.294c0.112-0.045,0.27-0.09,0.405-0.09c0.697,0,2.182,1.552,2.182,2.271
			c0,0.607-0.562,1.058-1.102,1.058c-0.27,0-0.562-0.135-0.72-0.473c-0.225-0.473-0.517-0.854-0.765-1.146V54.62
			c0,0.72-0.607,1.079-1.214,1.079c-0.607,0-1.215-0.359-1.215-1.079V36.852z M224.474,44.363c-0.697,0-1.012-0.427-1.012-0.854
			c0-0.472,0.36-0.944,1.012-0.944l4.588,0.022V41.71l-2.924,0.022c-0.652,0-0.967-0.405-0.967-0.81c0-0.405,0.315-0.81,0.967-0.81
			l2.924,0.022l-0.022-0.855h-3.801c-0.697,0-1.057-0.449-1.057-0.899c0-0.449,0.36-0.899,1.035-0.899h3.824V36.56
			c0-0.765,0.629-1.147,1.237-1.147c0.63,0,1.26,0.383,1.26,1.147v0.922h4.116c0.697,0,1.035,0.45,1.035,0.899
			c0,0.45-0.337,0.899-1.035,0.899h-4.138v0.855l3.014-0.022c0.63,0,0.945,0.404,0.945,0.81c0,0.404-0.315,0.81-0.945,0.81
			l-3.014-0.022v0.877l4.88-0.022c0.652,0,0.967,0.45,0.967,0.899c0,0.45-0.315,0.899-0.967,0.899H224.474z M232.954,51.988h-5.331
			c0,0.967,0.022,1.935,0.045,2.812v0.045c0,0.697-0.562,1.058-1.125,1.058c-0.607,0-1.192-0.383-1.215-1.103
			c0-1.215-0.022-2.519-0.022-3.801c0-1.305,0.022-2.587,0.022-3.757c0.022-1.214,0.54-2.023,2.227-2.091
			c0.854-0.045,1.777-0.045,2.721-0.045c0.922,0,1.867,0,2.699,0.045c1.507,0.045,2.227,0.742,2.249,1.979
			c0,0.315,0.022,2.137,0.045,2.856c0.022,0.383,0.022,0.968,0.022,1.552v1.553c0,1.281-0.81,2.608-3.059,2.608
			c-1.709,0-2.317-0.427-2.317-1.282c0-0.539,0.36-1.057,1.012-1.057c0.09,0,0.157,0,0.248,0.022
			c0.337,0.067,0.629,0.112,0.877,0.112c0.562,0,0.877-0.247,0.9-1.012V51.988z M227.623,49.425v0.989h5.353
			c0-0.338-0.022-0.652-0.022-0.989H227.623z M232.886,47.423c-0.045-0.518-0.045-0.585-2.699-0.585c-2.069,0-2.519,0-2.519,0.585
			l-0.022,0.427h5.263L232.886,47.423z"/>
		<path fill="#231815" d="M247.934,42.812l-4.003,0.022c-0.742,0-1.08-0.472-1.08-0.944c0-0.518,0.382-1.034,1.08-1.034h2.879
			v-1.192h-2.092c-0.765,0-1.125-0.473-1.125-0.944c0-0.518,0.405-1.058,1.125-1.058l2.069,0.022l-0.022-0.989v-0.022
			c0-0.742,0.607-1.125,1.192-1.125c0.607,0,1.214,0.383,1.214,1.125v0.022l-0.022,0.989l2.069-0.022c0.72,0,1.057,0.495,1.057,0.99
			c0,0.517-0.337,1.012-1.057,1.012h-2.069l-0.022,1.192h2.677c0.697,0,1.035,0.494,1.035,0.989s-0.337,0.989-1.035,0.989
			L247.934,42.812z M249.148,51.336l0.022,3.284c0,0.742-0.607,1.124-1.214,1.124s-1.192-0.359-1.192-1.124l0.022-3.284
			l-2.407,0.022c-0.765,0-1.125-0.472-1.125-0.944c0-0.518,0.405-1.058,1.125-1.058h2.429v-1.371l-2.879,0.022
			c-0.742,0-1.08-0.473-1.08-0.945c0-0.517,0.382-1.034,1.08-1.034h1.957c-0.18-0.09-0.315-0.202-0.427-0.45
			c-0.315-0.697-0.607-1.057-0.697-1.191c-0.09-0.136-0.135-0.293-0.135-0.428c0-0.518,0.63-0.899,1.192-0.899
			c0.854,0,1.687,1.395,1.687,1.889c0,0.495-0.427,0.945-0.9,1.103h1.395c0-0.202,0.067-0.405,0.225-0.652
			c0.337-0.495,0.697-1.17,0.944-1.912c0.113-0.359,0.428-0.517,0.765-0.517c0.629,0,1.372,0.472,1.372,1.079
			c0,0.585-1.012,1.867-1.102,1.979h1.575c0.697,0,1.035,0.495,1.035,0.989c0,0.495-0.337,0.99-1.035,0.99l-2.654-0.022v1.371h2.429
			c0.72,0,1.057,0.495,1.057,0.99c0,0.518-0.337,1.012-1.057,1.012L249.148,51.336z M256.099,55.092
			c-0.315,0-0.585-0.112-0.81-0.314c-0.135,0.585-0.674,0.899-1.192,0.899c-0.607,0-1.214-0.404-1.214-1.214
			c0,0,0-13.36,0.09-15.767c0.045-1.215,0.787-2.024,2.362-2.092c0.742-0.022,1.642-0.045,2.519-0.045c0.562,0,1.102,0,1.597,0.022
			c1.529,0.045,2.407,0.989,2.407,2.249c0,2.271-0.473,3.936-3.126,3.936c-1.912,0-2.586-0.494-2.586-1.35
			c0-0.539,0.337-1.057,0.967-1.057c0.135,0,0.27,0.022,0.405,0.067c0.382,0.112,0.72,0.157,0.967,0.157c0.495,0,0.9-0.18,0.9-1.214
			c0-0.766-0.45-0.766-2.137-0.766c-1.665,0-1.889,0.113-1.935,0.811c-0.022,0.539-0.022,2.114-0.022,4.025
			c0.788-0.022,2.114-0.045,3.216-0.045c2.002,0,3.329,0.067,3.329,1.912c0,1.327-0.742,4.07-1.709,5.825
			c0.63,0.63,1.395,1.147,2.294,1.642c0.382,0.202,0.562,0.562,0.562,0.922c0,0.652-0.562,1.372-1.35,1.372
			c-1.08,0-2.699-1.844-2.834-1.979C258.055,53.968,256.796,55.092,256.099,55.092z M255.851,47.175c0-0.651,0.562-1.057,1.08-1.057
			c0.405,0,0.787,0.225,0.922,0.72c0.202,0.832,0.472,1.552,0.787,2.204c0.63-1.574,0.765-3.036,0.765-3.284
			c0-0.247-0.248-0.314-0.337-0.314c-0.854,0.045-2.767,0.045-3.779,0.045c0,2.789,0.022,5.825,0.022,7.535l0.225-0.136
			c0.742-0.472,1.35-1.057,1.867-1.687C256.166,49.222,255.851,47.535,255.851,47.175z"/>
		<path fill="#231815" d="M268.65,50.864c0-0.383,0.157-0.766,0.584-1.035c1.057-0.675,2.294-2.114,2.812-2.991
			c0.248-0.428,0.607-0.585,0.99-0.585c0.607,0,1.192,0.45,1.192,1.103c0,0.225-0.045,0.449-0.202,0.697
			c-0.405,0.675-2.632,4.183-4.071,4.183C269.212,52.235,268.65,51.538,268.65,50.864z M278.591,39.394
			c-0.022,0.651-0.022,1.619-0.045,2.721c0.833-0.022,1.665-0.022,2.474-0.022c0.833,0,1.642,0,2.429,0.022
			c0.945,0,1.395,0.607,1.395,1.192c0,0.63-0.473,1.237-1.395,1.237h-0.09c-1.597-0.067-3.216-0.09-4.836-0.09
			c0,0.63-0.022,1.281-0.022,1.934c0,1.103,0.022,2.204,0.067,3.172c0.022,0.72,0.022,1.057,0.022,1.687
			c0,1.462-0.584,2.856-3.036,2.856c-0.899,0-2.676-0.09-2.676-1.417c0-0.675,0.517-1.327,1.237-1.327
			c0.135,0,0.27,0.022,0.405,0.067c0.292,0.09,0.607,0.181,0.9,0.181c0.427,0,0.765-0.203,0.765-0.878v-6.252
			c-1.732,0.045-3.464,0.112-5.196,0.18h-0.067c-0.854,0-1.304-0.607-1.304-1.215c0-0.562,0.405-1.146,1.304-1.169
			c1.732-0.067,3.509-0.113,5.263-0.136c0-1.102-0.022-2.023-0.045-2.631v-0.045c0-0.9,0.607-1.327,1.214-1.327
			s1.237,0.449,1.237,1.237V39.394z M283.45,51.066c-0.675-1.058-2.227-2.385-3.104-2.901c-0.382-0.226-0.54-0.54-0.54-0.877
			c0-0.585,0.517-1.192,1.237-1.192c0.922,0,4.723,2.722,4.723,4.116c0,0.765-0.675,1.417-1.372,1.417
			C284.057,51.629,283.72,51.471,283.45,51.066z M283.18,41.237c-1.304,0-2.339-1.034-2.339-2.339s1.035-2.384,2.339-2.384
			c1.305,0,2.384,1.079,2.384,2.384S284.484,41.237,283.18,41.237z M283.18,37.841c-0.562,0-1.012,0.495-1.012,1.058
			s0.45,1.012,1.012,1.012c0.562,0,1.035-0.449,1.035-1.012S283.742,37.841,283.18,37.841z"/>
		<path fill="#231815" d="M293.37,46.838c-0.922,0-1.372-0.607-1.372-1.237c0-0.675,0.495-1.35,1.372-1.35h14.08
			c0.877,0,1.304,0.652,1.304,1.305c0,0.63-0.427,1.282-1.304,1.282H293.37z"/>
		<path fill="#231815" d="M317.414,54.822c-0.292,0.112-0.54,0.157-0.787,0.157c-0.832,0-1.35-0.585-1.35-1.214
			c0-0.473,0.315-0.945,1.035-1.192c2.991-0.967,5.42-2.834,7.265-4.881c-0.697-0.404-1.417-0.765-2.024-0.922
			c-0.562-0.135-0.81-0.54-0.81-0.968c0-0.584,0.473-1.169,1.282-1.169c0.652,0,2.024,0.562,3.126,1.102
			c0.899-1.281,1.957-3.328,1.957-3.666c0-0.157-0.112-0.18-0.337-0.18c-0.472,0-2.766,0.157-3.823,0.315
			c-1.597,2.068-3.667,4.431-5.151,5.465c-0.337,0.225-0.652,0.338-0.944,0.338c-0.742,0-1.282-0.607-1.282-1.282
			c0-0.428,0.203-0.854,0.742-1.192c2.159-1.35,5.083-5.016,5.87-6.904c0.315-0.788,0.877-1.08,1.395-1.08
			c0.742,0,1.462,0.607,1.462,1.327c0,0.292-0.045,0.359-0.405,0.967c2.497-0.225,2.564-0.225,3.261-0.225
			c1.597,0,2.272,0.742,2.272,1.731c0,0.495-0.181,1.058-0.473,1.598c-0.81,1.462-1.574,2.811-2.406,4.048
			c1.709,1.237,1.8,2.002,1.8,2.271c0,0.742-0.607,1.35-1.283,1.35c-0.315,0-0.652-0.112-0.945-0.427
			c-0.292-0.315-0.72-0.652-1.192-1.035C323.712,51.471,321.26,53.338,317.414,54.822z"/>
		<path fill="#231815" d="M335.117,52.371c0-0.473,0.292-0.945,0.944-1.237c3.014-1.35,4.993-4.498,4.993-8.412
			c0-0.202,0-0.427-0.023-0.63v-0.112c0-0.899,0.631-1.327,1.283-1.327s1.35,0.45,1.371,1.26v0.518c0,7.018-5.6,11.2-7.174,11.2
			C335.701,53.63,335.117,53.023,335.117,52.371z M347.779,41.643l-0.248,7.265v0.067c0,0.225,0.068,0.314,0.203,0.314
			c0.293,0,2.744-1.191,5.083-5.51c0.292-0.562,0.742-0.787,1.169-0.787c0.697,0,1.373,0.584,1.373,1.349
			c0,0.226-0.068,0.473-0.203,0.72c-2.451,4.387-6.657,7.49-8.412,7.49c-1.012,0-1.844-0.675-1.844-2.024v-0.27
			c0.158-2.024,0.314-7.31,0.314-8.614c0-0.923,0.652-1.395,1.283-1.395c0.651,0,1.281,0.472,1.281,1.372V41.643z"/>
		<path fill="#231815" d="M378.572,42.024c1.146,0,1.619,0.562,1.619,1.147c0,0.652-0.585,1.35-1.529,1.35h-0.045
			c-1.305-0.045-2.677-0.067-4.049-0.067v0.27c0,4.341-1.822,7.939-5.938,10.301c-0.405,0.226-0.766,0.315-1.057,0.315
			c-0.766,0-1.238-0.562-1.238-1.17c0-0.449,0.226-0.899,0.766-1.192c3.418-1.866,4.902-4.633,4.902-8.164v-0.359
			c-1.079,0-2.158,0.022-3.216,0.045v3.148c0,0.899-0.675,1.327-1.327,1.327s-1.281-0.405-1.281-1.215v-0.09
			c0.045-0.854,0.066-1.957,0.066-3.104c-1.35,0.045-2.631,0.067-3.823,0.135h-0.112c-0.945,0-1.395-0.585-1.395-1.17
			c0-0.607,0.449-1.214,1.35-1.236c1.281-0.045,2.609-0.09,3.959-0.113c-0.023-0.967-0.045-1.866-0.09-2.586v-0.09
			c0-0.854,0.629-1.327,1.259-1.327c0.607,0,1.237,0.427,1.282,1.327c0.045,0.697,0.067,1.619,0.09,2.631l3.262-0.045
			c0-1.079-0.023-2.069-0.045-2.676c0-0.113-0.068-1.575,1.236-1.575c0.675,0,1.35,0.54,1.35,1.53v2.676
			c1.35-0.022,2.699-0.022,3.98-0.022H378.572z"/>
		<path fill="#231815" d="M392.248,53.697c0.023-1.687,0.113-4.992,0.135-7.557c-1.664,1.574-3.441,2.946-5.6,4.273
			c-0.495,0.292-0.945,0.428-1.327,0.428c-0.899,0-1.462-0.652-1.462-1.327c0-0.428,0.247-0.855,0.787-1.125
			c3.959-1.89,8.299-6.027,10.818-9.986c0.338-0.54,0.811-0.765,1.236-0.765c0.721,0,1.35,0.585,1.35,1.282
			c0,0.359,0,0.742-3.193,4.476c-0.045,1.484-0.066,4.431-0.066,6.928c0,1.327,0,2.519,0.021,3.306v0.045
			c0,0.99-0.719,1.53-1.416,1.53c-0.652,0-1.283-0.473-1.283-1.484V53.697z"/>
		<path fill="#231815" d="M409.613,53.721c0.021,1.034-0.697,1.619-1.439,1.619c-0.676,0-1.328-0.473-1.328-1.417v-0.09
			c0.113-2.52,0.182-7.49,0.182-11.381c0-1.71-0.023-3.194-0.045-4.184c-0.023-0.922,0.695-1.305,1.326-1.305
			c0.674,0,1.35,0.428,1.35,1.282v0.045l-0.068,5.083c0.518,0,4.184,0.675,5.646,1.935c0.359,0.314,0.518,0.697,0.518,1.102
			c0,0.765-0.607,1.507-1.35,1.507c-0.248,0-0.518-0.09-0.787-0.292c-0.9-0.675-2.879-1.484-4.049-1.754
			C409.568,48.885,409.568,51.943,409.613,53.721z"/>
		<path fill="#231815" d="M426.121,54.282c0,0.495-0.314,0.72-0.607,0.72c-0.336,0-0.674-0.247-0.697-0.697
			c-0.021-1.934-0.045-4.318-0.045-6.77c0-3.419,0.023-6.95,0.068-9.626c0.021-1.575,0.922-2.654,2.609-2.722
			c0.539-0.022,1.012-0.022,1.484-0.022c0.629,0,1.236,0,1.912,0.022c0.449,0,0.652,0.314,0.652,0.63
			c0,0.314-0.227,0.652-0.652,0.652h-0.09c-0.137-0.022-0.766-0.068-3.105-0.068c-0.877,0.022-1.506,0.495-1.551,1.62
			c-0.045,1.372-0.068,3.193-0.068,5.173c0,3.733,0.068,8.029,0.09,11.065V54.282z"/>
		<path fill="#231815" d="M446.5,39.618c2.699-0.787,4.635-1.305,6.254-1.305c1.191,0,1.664,0.787,1.664,1.507
			c0,0.81-0.494,1.305-1.934,1.305c-0.158,0-0.316,0-0.518-0.022h-0.314c-1.17,0-2.363,0.405-2.971,0.63
			c-1.461,0.518-3.598,2.631-3.598,5.397c0,2.407,1.664,4.656,4.881,4.656h0.248c1.484-0.045,2.09,0.787,2.09,1.484
			s-0.605,1.395-1.934,1.395c-4.836,0-7.691-3.374-7.691-7.197c0-2.43,1.125-4.116,1.484-4.611c0.135-0.18,0.201-0.292,0.201-0.337
			s-0.021-0.067-0.09-0.067c-0.066,0-0.18,0.022-0.314,0.067c-1.057,0.27-1.619,0.765-2.451,1.102
			c-1.553,0.652-2.113,0.766-2.496,0.766c-0.967,0-1.508-0.742-1.508-1.485c0-0.606,0.383-1.214,1.215-1.394
			C439.686,41.327,442.902,40.63,446.5,39.618z M452.596,46.995c-0.27-0.314-1.439-1.146-1.844-1.327
			c-0.473-0.202-0.652-0.517-0.652-0.832c0-0.518,0.494-1.012,1.125-1.012c0.652,0,2.361,1.034,2.789,1.484
			c0.225,0.247,0.336,0.518,0.336,0.787c0,0.63-0.539,1.237-1.102,1.237C453.023,47.333,452.799,47.22,452.596,46.995z
			 M455.047,44.813c-0.27-0.292-1.484-1.079-1.889-1.237c-0.473-0.18-0.674-0.494-0.674-0.81c0-0.517,0.516-1.057,1.168-1.057
			c0.293,0,3.082,0.899,3.082,2.204c0,0.607-0.518,1.192-1.057,1.192C455.453,45.106,455.25,45.016,455.047,44.813z"/>
		<path fill="#231815" d="M473.131,54.508c-1.686,0-3.104-0.923-3.104-3.352v-0.067c0-0.899,0.113-1.507,0.113-2.294
			c0-0.81-0.18-1.372-0.855-1.372c-1.057,0-2.586,1.169-2.945,1.821c-0.562,0.99-1.148,1.912-1.373,3.014
			c-0.383,1.777-0.832,2.002-1.686,2.002c-0.676,0-1.463-0.382-1.463-1.236c0-0.54,0.9-3.037,3.734-7.513l3.553-5.668
			c0.383-0.607,0.99-1.417,1.236-1.844c0.271-0.45,0.676-0.652,1.08-0.652c0.721,0,1.463,0.607,1.463,1.417
			c0,0.404-0.045,0.742-1.26,2.069c-2.451,2.653-3.936,5.105-3.936,5.173c0,0.022,0,0.022,0.021,0.022
			c0.023,0,0.068-0.045,0.113-0.09c0.156-0.158,0.943-0.607,2.158-0.607c2.115,0,2.768,1.687,2.768,3.216
			c0,0.697-0.135,1.26-0.135,1.957c0,0.967,0.471,1.417,1.123,1.417c0.855,0,2.543-0.81,3.801-3.958c0.248-0.63,0.721-0.9,1.193-0.9
			c0.742,0,1.484,0.607,1.484,1.462c0,0.271-0.068,0.54-0.225,0.832C477.945,53.271,475.336,54.508,473.131,54.508z"/>
		<path fill="#231815" d="M486.154,50.864c0-0.383,0.158-0.766,0.584-1.035c1.059-0.675,2.295-2.114,2.812-2.991
			c0.246-0.428,0.607-0.585,0.988-0.585c0.607,0,1.193,0.45,1.193,1.103c0,0.225-0.045,0.449-0.203,0.697
			c-0.404,0.675-2.631,4.183-4.07,4.183C486.717,52.235,486.154,51.538,486.154,50.864z M496.096,39.394
			c-0.023,0.651-0.023,1.619-0.045,2.721c0.832-0.022,1.664-0.022,2.475-0.022c0.832,0,1.641,0,2.428,0.022
			c0.945,0,1.395,0.607,1.395,1.192c0,0.63-0.473,1.237-1.395,1.237h-0.09c-1.596-0.067-3.217-0.09-4.836-0.09
			c0,0.63-0.021,1.281-0.021,1.934c0,1.103,0.021,2.204,0.066,3.172c0.023,0.72,0.023,1.057,0.023,1.687
			c0,1.462-0.586,2.856-3.037,2.856c-0.898,0-2.676-0.09-2.676-1.417c0-0.675,0.518-1.327,1.236-1.327
			c0.135,0,0.27,0.022,0.406,0.067c0.291,0.09,0.605,0.181,0.898,0.181c0.428,0,0.766-0.203,0.766-0.878v-6.252
			c-1.732,0.045-3.465,0.112-5.195,0.18h-0.068c-0.855,0-1.305-0.607-1.305-1.215c0-0.562,0.404-1.146,1.305-1.169
			c1.732-0.067,3.508-0.113,5.264-0.136c0-1.102-0.023-2.023-0.045-2.631v-0.045c0-0.9,0.607-1.327,1.213-1.327
			c0.607,0,1.238,0.449,1.238,1.237V39.394z M500.953,51.066c-0.674-1.058-2.227-2.385-3.104-2.901
			c-0.383-0.226-0.539-0.54-0.539-0.877c0-0.585,0.518-1.192,1.236-1.192c0.922,0,4.723,2.722,4.723,4.116
			c0,0.765-0.674,1.417-1.371,1.417C501.561,51.629,501.223,51.471,500.953,51.066z M500.684,41.237c-1.305,0-2.34-1.034-2.34-2.339
			s1.035-2.384,2.34-2.384s2.385,1.079,2.385,2.384S501.988,41.237,500.684,41.237z M500.684,37.841
			c-0.562,0-1.012,0.495-1.012,1.058s0.449,1.012,1.012,1.012s1.035-0.449,1.035-1.012S501.246,37.841,500.684,37.841z"/>
		<path fill="#231815" d="M512.426,54.822c-0.293,0.112-0.541,0.157-0.787,0.157c-0.832,0-1.35-0.585-1.35-1.214
			c0-0.473,0.314-0.945,1.035-1.192c2.99-0.967,5.42-2.834,7.264-4.881c-0.697-0.404-1.416-0.765-2.023-0.922
			c-0.562-0.135-0.811-0.54-0.811-0.968c0-0.584,0.473-1.169,1.281-1.169c0.652,0,2.025,0.562,3.127,1.102
			c0.9-1.281,1.957-3.328,1.957-3.666c0-0.157-0.113-0.18-0.338-0.18c-0.473,0-2.766,0.157-3.822,0.315
			c-1.598,2.068-3.666,4.431-5.15,5.465c-0.338,0.225-0.652,0.338-0.945,0.338c-0.742,0-1.281-0.607-1.281-1.282
			c0-0.428,0.201-0.854,0.742-1.192c2.158-1.35,5.082-5.016,5.869-6.904c0.314-0.788,0.877-1.08,1.395-1.08
			c0.742,0,1.463,0.607,1.463,1.327c0,0.292-0.045,0.359-0.406,0.967c2.498-0.225,2.564-0.225,3.262-0.225
			c1.598,0,2.271,0.742,2.271,1.731c0,0.495-0.18,1.058-0.473,1.598c-0.809,1.462-1.574,2.811-2.406,4.048
			c1.709,1.237,1.799,2.002,1.799,2.271c0,0.742-0.607,1.35-1.281,1.35c-0.314,0-0.652-0.112-0.945-0.427
			c-0.291-0.315-0.719-0.652-1.191-1.035C518.723,51.471,516.271,53.338,512.426,54.822z"/>
		<path fill="#231815" d="M537.01,36.784c0-0.495,0.314-0.72,0.607-0.72c0.336,0,0.674,0.247,0.697,0.697
			c0.021,1.935,0.045,4.318,0.045,6.77c0,3.419-0.023,6.95-0.068,9.627c-0.021,1.574-0.922,2.653-2.609,2.721
			c-0.539,0.023-1.012,0.023-1.484,0.023c-0.629,0-1.236,0-1.912-0.023c-0.449,0-0.65-0.314-0.65-0.629
			c0-0.315,0.225-0.652,0.65-0.652h0.092c0.135,0.022,0.764,0.067,3.104,0.067c0.877-0.022,1.506-0.495,1.551-1.619
			c0.045-1.372,0.068-3.194,0.068-5.174c0-3.733-0.068-8.029-0.09-11.065V36.784z"/>
		<path fill="#231815" d="M558.939,49.109c-4.521-3.913-4.812-4.161-5.51-4.161c-0.383,0-0.721,0.181-1.148,0.518
			c-1.057,0.832-2.113,1.845-3.283,2.542c-0.293,0.18-0.584,0.247-0.855,0.247c-0.832,0-1.551-0.697-1.551-1.417
			c0-0.45,0.27-0.922,0.922-1.26c0.428-0.225,2.25-1.282,3.373-2.069c0.924-0.652,1.756-0.944,2.564-0.944
			c0.922,0,1.777,0.383,2.654,1.012c1.463,1.035,2.969,2.227,4.521,3.374c1.484,1.103,3.014,2.137,4.52,2.924
			c0.518,0.271,0.742,0.72,0.742,1.192c0,0.787-0.652,1.597-1.574,1.597C563.055,52.663,560.266,50.257,558.939,49.109z"/>
	</g>
	<polyline fill="none" stroke="#FFFFFF" stroke-width="3" stroke-miterlimit="10" points="598.471,35.401 607.596,45.002 
		598.471,54.599 	"/>
</g>
</svg>
