<?xml version="1.0" encoding="utf-8"?>
<!-- Generator: Adobe Illustrator 16.0.0, SVG Export Plug-In . SVG Version: 6.00 Build 0)  -->
<!DOCTYPE svg PUBLIC "-//W3C//DTD SVG 1.1//EN" "http://www.w3.org/Graphics/SVG/1.1/DTD/svg11.dtd">
<svg version="1.1" id="レイヤー_1" xmlns="http://www.w3.org/2000/svg" xmlns:xlink="http://www.w3.org/1999/xlink" x="0px"
	 y="0px" width="102px" height="101.999px" viewBox="-8.754 -9.641 102 101.999" enable-background="new -8.754 -9.641 102 101.999"
	 xml:space="preserve">
<g>
	<path fill="#FFFFFF" stroke="#005ABE" stroke-width="2" stroke-miterlimit="10" d="M92.246,41.359
		c0,27.613-22.387,49.999-50,49.999c-27.619,0-49.999-22.386-49.999-49.999c0-27.612,22.38-50,49.999-50
		C69.859-8.641,92.246,13.747,92.246,41.359z"/>
	<g>
		<path fill="#005ABE" d="M13.879,38.89c-3.058,0-5.291-1.252-5.291-2.328c0-0.523,0.412-0.982,0.935-0.982
			c0.238,0,0.507,0.095,0.776,0.364c0.729,0.729,1.774,1.014,2.946,1.014c1.014,0,2.122-0.206,3.215-0.507
			c0.143-0.031,0.27-0.048,0.38-0.048c0.618,0,0.967,0.46,0.967,0.951c0,0.427-0.27,0.902-0.887,1.093
			C15.938,38.748,14.893,38.89,13.879,38.89z M15.589,30.828c-0.095,0-0.206,0-0.316-0.031c-0.761-0.158-1.584-0.237-2.424-0.237
			c-0.713,0-1.457,0.063-2.153,0.189c-0.096,0.017-0.19,0.032-0.27,0.032c-0.586,0-0.903-0.412-0.903-0.84
			c0-0.459,0.364-0.966,1.125-1.077c0.729-0.11,1.6-0.174,2.455-0.174c2.297,0,3.469,0.253,3.469,1.235
			C16.571,30.401,16.223,30.828,15.589,30.828z"/>
		<path fill="#005ABE" d="M27.339,38.89c-3.058,0-5.291-1.252-5.291-2.328c0-0.523,0.412-0.982,0.935-0.982
			c0.238,0,0.507,0.095,0.776,0.364c0.729,0.729,1.774,1.014,2.946,1.014c1.014,0,2.122-0.206,3.215-0.507
			c0.143-0.031,0.27-0.048,0.38-0.048c0.618,0,0.967,0.46,0.967,0.951c0,0.427-0.27,0.902-0.887,1.093
			C29.397,38.748,28.353,38.89,27.339,38.89z M29.049,30.828c-0.095,0-0.206,0-0.316-0.031c-0.761-0.158-1.584-0.237-2.424-0.237
			c-0.713,0-1.457,0.063-2.153,0.189c-0.096,0.017-0.19,0.032-0.27,0.032c-0.586,0-0.903-0.412-0.903-0.84
			c0-0.459,0.364-0.966,1.125-1.077c0.729-0.11,1.6-0.174,2.455-0.174c2.297,0,3.469,0.253,3.469,1.235
			C30.031,30.401,29.683,30.828,29.049,30.828z"/>
		<path fill="#005ABE" d="M39.485,30.463c-0.824,0.127-1.553,0.222-2.408,0.222c-0.712,0-1.093-0.475-1.093-0.918
			c0-0.428,0.333-0.84,1.046-0.84c0.063,0,0.127,0.016,0.206,0.016c0.222,0.017,0.443,0.032,0.681,0.032
			c0.443,0,0.935-0.032,1.568-0.127c0-0.396-0.016-0.776-0.016-1.108c0-0.333,0.016-0.618,0.016-0.855
			c0.016-0.665,0.428-0.935,0.871-0.935c0.475,0,0.966,0.333,0.966,0.855v0.063c-0.031,0.522-0.063,1.077-0.079,1.663l0.855-0.19
			c0.095-0.016,0.174-0.031,0.253-0.031c0.539,0,0.871,0.396,0.871,0.808c0,0.396-0.301,0.792-1.013,0.902
			c-0.364,0.048-0.696,0.111-1.014,0.158c0,0.507,0,1.014,0.017,1.521l0.997-0.316c0.159-0.048,0.302-0.079,0.445-0.079
			c0.553,0,0.918,0.396,0.918,0.808c0,0.364-0.285,0.761-0.951,0.95c-0.491,0.143-0.934,0.254-1.346,0.364
			c0.032,0.491,0.048,0.967,0.096,1.395c0.031,0.38,0.095,0.902,0.127,1.425c1.979,0.776,2.391,1.489,2.391,2.043
			c0,0.507-0.363,0.935-0.855,0.935c-0.238,0-0.506-0.11-0.776-0.348c-0.27-0.254-0.602-0.491-0.935-0.713
			c-0.428,0.935-1.584,1.789-2.962,1.789c-1.394,0-2.771-0.887-2.771-2.074c0-1.679,2.233-2.139,3.374-2.139
			c0.284,0,0.586,0.016,0.871,0.063c-0.017-0.27-0.032-0.555-0.063-0.84c-0.032-0.348-0.048-0.744-0.079-1.172
			c-0.745,0.143-1.331,0.19-1.854,0.19c-0.808,0-1.727-0.048-1.727-0.95c0-0.443,0.317-0.871,0.919-0.871
			c0.095,0,0.189,0.016,0.301,0.031c0.174,0.032,0.396,0.048,0.665,0.048c0.412,0,0.935-0.032,1.6-0.158
			c-0.031-0.539-0.047-1.077-0.063-1.616H39.485z M38.487,37.211c-1.029,0-1.347,0.348-1.347,0.633c0,0.412,0.603,0.539,1.014,0.539
			c0.682,0,1.378-0.364,1.521-0.855l0.032-0.127C39.295,37.274,38.883,37.211,38.487,37.211z"/>
		<path fill="#005ABE" d="M53.865,28.579c1.9-0.554,3.262-0.918,4.402-0.918c0.84,0,1.172,0.554,1.172,1.061
			c0,0.57-0.348,0.919-1.361,0.919c-0.111,0-0.223,0-0.365-0.016h-0.221c-0.824,0-1.664,0.285-2.092,0.443
			c-1.029,0.364-2.533,1.853-2.533,3.801c0,1.695,1.172,3.279,3.438,3.279h0.174c1.045-0.032,1.473,0.554,1.473,1.045
			s-0.428,0.982-1.361,0.982c-3.406,0-5.418-2.376-5.418-5.068c0-1.711,0.793-2.898,1.045-3.247
			c0.096-0.127,0.143-0.206,0.143-0.237c0-0.032-0.016-0.048-0.062-0.048s-0.127,0.016-0.223,0.048
			c-0.744,0.189-1.139,0.538-1.725,0.775c-1.094,0.46-1.49,0.539-1.76,0.539c-0.68,0-1.061-0.522-1.061-1.046
			c0-0.428,0.27-0.855,0.855-0.981C49.066,29.783,51.33,29.292,53.865,28.579z M58.156,33.774c-0.189-0.222-1.014-0.808-1.299-0.935
			c-0.332-0.143-0.459-0.364-0.459-0.586c0-0.364,0.35-0.713,0.793-0.713c0.459,0,1.662,0.729,1.963,1.046
			c0.158,0.174,0.238,0.364,0.238,0.554c0,0.443-0.381,0.871-0.775,0.871C58.458,34.011,58.298,33.932,58.156,33.774z
			 M59.882,32.238c-0.189-0.206-1.045-0.761-1.33-0.871c-0.332-0.127-0.475-0.349-0.475-0.57c0-0.364,0.363-0.744,0.824-0.744
			c0.205,0,2.17,0.633,2.17,1.552c0,0.428-0.365,0.84-0.746,0.84C60.167,32.444,60.025,32.38,59.882,32.238z"/>
		<path fill="#005ABE" d="M65.724,39.349c-0.379,0-0.775-0.253-0.965-0.855c-0.285-0.935-0.396-2.011-0.396-3.12
			c0-0.808,0.047-1.647,0.143-2.455c0.205-1.9,0.555-3.643,0.617-4.656c0.049-0.681,0.492-0.966,0.92-0.966
			c0.459,0,0.934,0.316,0.934,0.854c0,0.048-0.016,0.096-0.016,0.143c-0.111,0.713-0.381,2.027-0.586,3.374
			c-0.189,1.235-0.348,2.407-0.348,2.978c0,0.27,0.031,0.364,0.062,0.364c0.016,0,0.031-0.048,0.062-0.143
			c0.207-0.617,0.461-0.744,0.713-0.744c0.35,0,0.713,0.301,0.713,0.839c0,0.206-0.062,0.444-0.189,0.713
			c-0.49,1.03-0.729,2.154-0.729,2.693C66.595,39.349,65.804,39.349,65.724,39.349z M74.722,29.324
			c0.109-0.032,0.236-0.048,0.332-0.048c0.555,0,0.967,0.428,0.967,0.871c0,0.349-0.238,0.697-0.871,0.84l-1.031,0.253
			c0.018,1.727,0.049,2.392,0.191,4.419c0.648,0.301,1.234,0.697,1.711,1.125c0.268,0.253,0.379,0.538,0.379,0.823
			c0,0.538-0.428,1.045-0.902,1.045c-0.205,0-0.428-0.095-0.617-0.301c-0.238-0.253-0.539-0.507-0.84-0.729
			c-0.492,0.903-1.615,1.679-2.867,1.679c-1.234,0-2.518-0.791-2.518-2.074c0-1.156,1.123-2.186,3.025-2.186
			c0.332,0,0.648,0.031,0.98,0.095c-0.062-0.729-0.062-0.744-0.174-3.58c-0.506,0.08-1.029,0.111-1.568,0.111
			c-0.902,0-1.678-0.031-1.678-0.887c0-0.443,0.316-0.888,0.949-0.888c0.08,0,0.158,0,0.238,0.017
			c0.27,0.047,0.555,0.063,0.84,0.063c0.379,0,0.775-0.032,1.172-0.096c-0.016-0.586-0.016-1.14-0.016-1.584v-0.49
			c0.016-0.57,0.459-0.824,0.871-0.824c0.428,0,0.855,0.254,0.855,0.729v0.063c-0.033,0.412-0.049,1.029-0.049,1.742L74.722,29.324z
			 M71.3,36.514c-0.76,0-1.094,0.316-1.094,0.634c0,0.349,0.477,0.507,0.889,0.507c0.602,0,1.234-0.317,1.424-0.888
			C72.091,36.609,71.681,36.514,71.3,36.514z"/>
		<path fill="#005ABE" d="M11.519,56.418c-0.539,0-0.792-0.35-0.792-0.713c0-0.381,0.285-0.775,0.792-0.775h1.773v-1.854h-2.091
			c-0.522,0-0.775-0.35-0.775-0.713c0-0.381,0.285-0.777,0.775-0.777h2.091v-1.361c-0.823,0.967-1.172,1.141-1.488,1.141
			c-0.46,0-0.888-0.381-0.888-0.809c0-0.189,0.096-0.412,0.317-0.602c1.141-0.982,1.9-1.996,2.534-3.311
			c0.143-0.301,0.396-0.412,0.649-0.412c0.459,0,0.935,0.365,0.935,0.824c0,0.238-0.127,0.475-0.649,1.283h7.84
			c0.491,0,0.744,0.365,0.744,0.713c0,0.363-0.253,0.729-0.744,0.729h-0.84v1.805h2.027c0.491,0,0.745,0.365,0.745,0.746
			c0,0.363-0.254,0.744-0.745,0.744h-2.027v1.854h1.647c0.507,0,0.744,0.363,0.744,0.744c0,0.363-0.237,0.744-0.744,0.744H11.519z
			 M11.027,59.744c0-0.254,0.143-0.539,0.522-0.777c0.364-0.236,1.077-0.887,1.22-1.424c0.111-0.428,0.443-0.604,0.776-0.604
			c0.443,0,0.902,0.301,0.902,0.762c0,0.648-1.141,2.85-2.455,2.85C11.455,60.551,11.027,60.188,11.027,59.744z M15.668,49.781
			h-0.919v1.805h0.919V49.781z M15.668,53.076h-0.919v1.854h0.919V53.076z M16.19,60.457c-0.396,0-0.775-0.254-0.775-0.809v-0.285
			c0-0.586-0.096-1.156-0.27-1.584c-0.032-0.094-0.048-0.189-0.048-0.27c0-0.379,0.364-0.57,0.745-0.57
			c0.301,0,0.602,0.111,0.76,0.35c0.364,0.539,0.57,1.457,0.57,2.186C17.173,60.107,16.666,60.457,16.19,60.457z M17.933,49.781
			h-0.95v1.805h0.95V49.781z M17.933,53.076h-0.95v1.854h0.95V53.076z M19.39,60.441c-0.364,0-0.729-0.223-0.808-0.713
			c-0.143-0.777-0.396-1.299-0.696-1.775c-0.079-0.125-0.127-0.252-0.127-0.363c0-0.381,0.396-0.633,0.823-0.633
			c1.141,0,1.774,2.248,1.774,2.549C20.356,60.092,19.865,60.441,19.39,60.441z M20.198,49.781h-0.935v1.805h0.935V49.781z
			 M20.198,53.076h-0.935v1.854h0.935V53.076z M22.922,60.33c-0.301,0-0.602-0.158-0.775-0.523c-0.333-0.682-0.809-1.25-1.362-1.711
			c-0.175-0.143-0.254-0.316-0.254-0.459c0-0.363,0.46-0.697,0.935-0.697c0.808,0,2.471,1.6,2.471,2.439
			C23.936,59.918,23.429,60.33,22.922,60.33z"/>
		<path fill="#005ABE" d="M31.709,59.822c0,0.492-0.443,0.744-0.871,0.744c-0.443,0-0.871-0.252-0.871-0.744v-0.016l0.063-4.355
			c-1.282,2.107-1.806,2.17-2.059,2.17c-0.46,0-0.887-0.396-0.887-0.824c0-0.205,0.095-0.41,0.301-0.586
			c0.823-0.68,1.932-1.963,2.66-3.262v-0.016l-1.6,0.047h-0.031c-0.539,0-0.792-0.363-0.792-0.744c0-0.396,0.285-0.809,0.808-0.809
			h1.6l-0.016-1.219c-0.095,0.363-0.443,0.617-0.776,0.617c-0.222,0-0.459-0.127-0.57-0.412c-0.189-0.475-0.602-0.965-0.823-1.219
			c-0.11-0.127-0.174-0.27-0.174-0.396c0-0.379,0.443-0.664,0.854-0.664c0.666,0,1.347,1.219,1.489,1.646l-0.048-2.486v-0.016
			c0-0.523,0.428-0.793,0.871-0.793c0.444,0,0.871,0.27,0.871,0.793v0.016c0,0-0.016,1.107-0.031,2.533
			c0.222-0.332,0.57-0.949,0.761-1.377c0.126-0.27,0.332-0.381,0.569-0.381c0.412,0,0.855,0.35,0.855,0.777
			c0,0.332-0.38,0.791-1.141,1.742c-0.143,0.174-0.348,0.252-0.538,0.252s-0.396-0.078-0.522-0.221l-0.016,0.807h1.521
			c0.507,0,0.744,0.381,0.744,0.762c0,0.395-0.254,0.791-0.729,0.791h-0.016l-1.537-0.031v0.664
			c0.096-0.047,0.206-0.062,0.301-0.062c0.412,0,1.774,0.918,1.774,1.631c0,0.443-0.412,0.855-0.823,0.855
			c-0.206,0-0.412-0.094-0.57-0.316c-0.222-0.301-0.46-0.602-0.682-0.824c0.017,2.74,0.079,4.91,0.079,4.91V59.822z M37.966,59.775
			l0.031-3.484l-3.785,1.061c-0.111,0.031-0.206,0.049-0.285,0.049c-0.491,0-0.776-0.396-0.776-0.793
			c0-0.316,0.206-0.664,0.618-0.775l4.244-1.188l-0.047-7.35c0-0.523,0.428-0.777,0.871-0.777s0.887,0.27,0.887,0.777l-0.031,6.889
			l1.299-0.348c0.095-0.031,0.174-0.031,0.253-0.031c0.476,0,0.761,0.395,0.761,0.791c0,0.316-0.175,0.635-0.586,0.744l-1.727,0.477
			l0.031,3.959c0,0.459-0.443,0.697-0.887,0.697s-0.871-0.223-0.871-0.682V59.775z M35.954,53.709
			c-0.491-0.428-1.141-0.76-1.473-0.918c-0.285-0.143-0.412-0.365-0.412-0.57c0-0.381,0.38-0.76,0.919-0.76
			c0.681,0,1.869,0.791,1.948,0.854c0.253,0.223,0.364,0.492,0.364,0.746c0,0.475-0.349,0.871-0.776,0.871
			C36.334,53.932,36.145,53.867,35.954,53.709z M36.049,50.51c-0.428-0.459-0.981-0.855-1.378-1.076
			c-0.222-0.127-0.316-0.318-0.316-0.492c0-0.396,0.428-0.824,0.919-0.824c0.348,0,2.201,0.855,2.201,1.791
			c0,0.49-0.38,0.902-0.823,0.902C36.461,50.811,36.239,50.715,36.049,50.51z"/>
		<path fill="#005ABE" d="M51.251,49.195c1.9-0.555,3.264-0.918,4.404-0.918c0.838,0,1.172,0.553,1.172,1.061
			c0,0.57-0.35,0.918-1.363,0.918c-0.109,0-0.221,0-0.363-0.016h-0.223c-0.822,0-1.662,0.285-2.09,0.443
			c-1.029,0.365-2.535,1.854-2.535,3.801c0,1.695,1.172,3.279,3.438,3.279h0.174c1.047-0.031,1.475,0.555,1.475,1.045
			c0,0.492-0.428,0.982-1.363,0.982c-3.404,0-5.416-2.375-5.416-5.068c0-1.711,0.791-2.898,1.045-3.246
			c0.096-0.127,0.143-0.207,0.143-0.238s-0.016-0.047-0.064-0.047c-0.047,0-0.125,0.016-0.221,0.047
			c-0.744,0.189-1.141,0.539-1.727,0.775c-1.094,0.461-1.488,0.539-1.758,0.539c-0.682,0-1.061-0.523-1.061-1.045
			c0-0.428,0.268-0.855,0.854-0.982C46.453,50.398,48.718,49.908,51.251,49.195z M55.544,54.391
			c-0.189-0.223-1.014-0.809-1.299-0.936c-0.332-0.143-0.459-0.363-0.459-0.586c0-0.363,0.348-0.713,0.791-0.713
			c0.459,0,1.664,0.729,1.965,1.047c0.158,0.174,0.236,0.363,0.236,0.553c0,0.443-0.379,0.871-0.775,0.871
			C55.845,54.627,55.687,54.549,55.544,54.391z M57.271,52.854c-0.189-0.205-1.045-0.76-1.33-0.871
			c-0.334-0.127-0.477-0.348-0.477-0.57c0-0.363,0.365-0.744,0.824-0.744c0.205,0,2.17,0.633,2.17,1.553
			c0,0.428-0.363,0.84-0.744,0.84C57.556,53.061,57.414,52.996,57.271,52.854z"/>
		<path fill="#005ABE" d="M69.353,49.369c0.395-0.016,0.76-0.031,1.076-0.031h2.375c0.746,0.016,1.109,0.49,1.109,0.967
			c0,0.443-0.332,0.871-0.982,0.871h-0.109c-1.109-0.08-1.49-0.096-2.473-0.111c-0.316,0-0.664,0-1.029,0.016
			c0.016,0.475,0.033,0.934,0.033,1.346c0,0.207,0.031,0.508,0.047,0.84c0.381,0.602,0.539,1.283,0.539,1.98
			c0,2.186-1.885,5.338-3.342,5.338c-0.539,0-0.982-0.35-0.982-0.809c0-0.301,0.189-0.65,0.68-0.998
			c0.666-0.475,1.236-1.188,1.617-1.963c-0.27,0.109-0.555,0.158-0.824,0.158c-1.33,0-2.17-1.252-2.17-2.488
			c0-1.789,1.646-2.264,2.629-2.264h0.127l-0.031-1.029c-1.283,0.127-2.551,0.301-3.342,0.428c-1.156,0.174-1.838,0.379-2.312,0.459
			c-0.064,0.016-0.143,0.016-0.207,0.016c-0.537,0-0.871-0.428-0.871-0.887c0-0.412,0.285-0.84,0.936-0.951
			c0.729-0.127,3.99-0.586,5.766-0.76l0.016-0.158v-0.174c0-0.809-0.096-0.871-0.096-1.348c0-0.648,0.443-0.934,0.902-0.934
			c0.254,0,0.998,0.078,0.998,0.998c0,0.396-0.047,1.014-0.078,1.393V49.369z M68.148,54.453v-0.078
			c-0.301-0.65-0.697-0.65-0.807-0.65c-0.555,0-0.92,0.35-0.92,0.84c0,0.555,0.412,0.871,0.855,0.871
			C68.085,55.436,68.148,54.596,68.148,54.453z"/>
	</g>
</g>
</svg>
