<?xml version="1.0" encoding="utf-8"?>
<!-- Generator: Adobe Illustrator 16.0.0, SVG Export Plug-In . SVG Version: 6.00 Build 0)  -->
<!DOCTYPE svg PUBLIC "-//W3C//DTD SVG 1.1//EN" "http://www.w3.org/Graphics/SVG/1.1/DTD/svg11.dtd">
<svg version="1.1" id="レイヤー_1" xmlns="http://www.w3.org/2000/svg" xmlns:xlink="http://www.w3.org/1999/xlink" x="0px"
	 y="0px" width="36px" height="60px" viewBox="23.73 13.229 36 60" enable-background="new 23.73 13.229 36 60"
	 xml:space="preserve">
<g>
	<path fill="#FFFFFF" stroke="#005ABE" stroke-width="3" stroke-miterlimit="10" d="M53.412,39.561
		c-2.611,2.204-4.602,3.451-5.85,4.782c-0.961,1.02-1.736,2.228-2.164,4.016c-0.34,1.419-0.504,2.198-0.686,3.655
		c-0.193,1.563-1.092,3.37-2.909,3.604c-2.539,0.324-3.867-0.037-4.745-1.736c-1.312-2.971-0.763-5.753-0.002-9.196
		c1.874-5.57,5.537-7.331,9.035-10.289c2.785-2.307,2.15-6.361-0.141-8.174c-2.145-1.868-5.787-1.654-7.744-0.145
		c-1.748,1.209-2.549,1.862-4.694,6.12c-0.34,0.676-1.302,1.61-2.451,1.903c-3.349,1.019-4.814-1.731-5.121-3.207
		c-1.029-3.81,0.743-7.049,3.741-10.341c5.504-6.03,17.746-7.328,23.894-0.737C58.542,25.143,59.933,34.066,53.412,39.561
		L53.412,39.561z"/>
	<path fill="#FFFFFF" stroke="#005ABE" stroke-width="3" stroke-miterlimit="10" d="M46.167,67.979
		c-0.773,2.082-2.838,3.219-4.675,3.041c-1.703-0.161-2.751-1.462-2.989-1.756c-0.201-0.249-1.663-2.13-0.972-4.27
		c0.669-2.061,3.032-3.425,5.203-2.956C45.136,62.559,47.017,65.327,46.167,67.979L46.167,67.979z"/>
</g>
</svg>
