<?xml version="1.0" encoding="utf-8"?>
<!-- Generator: Adobe Illustrator 16.0.0, SVG Export Plug-In . SVG Version: 6.00 Build 0)  -->
<!DOCTYPE svg PUBLIC "-//W3C//DTD SVG 1.1//EN" "http://www.w3.org/Graphics/SVG/1.1/DTD/svg11.dtd">
<svg version="1.1" id="レイヤー_1" xmlns="http://www.w3.org/2000/svg" xmlns:xlink="http://www.w3.org/1999/xlink" x="0px"
	 y="0px" width="83.999px" height="84px" viewBox="-0.177 -0.355 83.999 84" enable-background="new -0.177 -0.355 83.999 84"
	 xml:space="preserve">
<g>
	<circle fill="#005ABE" cx="41.823" cy="41.645" r="42"/>
	<g>
		<path fill="#FFFFFF" d="M20.271,32.867c0-0.386-0.099-0.676-0.296-0.875c-0.197-0.196-0.556-0.401-1.075-0.613
			c-0.948-0.359-1.63-0.781-2.046-1.264c-0.415-0.483-0.623-1.053-0.623-1.712c0-0.797,0.282-1.436,0.848-1.918
			c0.564-0.483,1.282-0.724,2.153-0.724c0.58,0,1.098,0.122,1.552,0.366c0.455,0.245,0.805,0.59,1.049,1.037
			c0.245,0.446,0.367,0.953,0.367,1.519h-1.903c0-0.441-0.094-0.778-0.282-1.009s-0.46-0.348-0.815-0.348
			c-0.333,0-0.593,0.099-0.779,0.296c-0.186,0.196-0.279,0.462-0.279,0.794c0,0.26,0.104,0.495,0.312,0.706
			c0.207,0.21,0.575,0.427,1.104,0.652c0.922,0.333,1.592,0.743,2.01,1.227c0.419,0.486,0.627,1.104,0.627,1.852
			c0,0.823-0.262,1.465-0.785,1.929c-0.524,0.464-1.236,0.695-2.138,0.695c-0.61,0-1.167-0.126-1.669-0.376
			c-0.502-0.251-0.896-0.611-1.179-1.079c-0.283-0.467-0.425-1.02-0.425-1.656h1.916c0,0.545,0.105,0.942,0.317,1.189
			c0.213,0.246,0.559,0.37,1.039,0.37C19.938,33.925,20.271,33.572,20.271,32.867z"/>
		<path fill="#FFFFFF" d="M29.407,31.256h-2.974v2.507h3.52v1.584h-5.43v-9.457h5.417v1.592h-3.507v2.234h2.974V31.256z"/>
		<path fill="#FFFFFF" d="M34.979,31.893h-0.948v3.455h-1.91v-9.457h3.046c0.957,0,1.697,0.249,2.219,0.744
			c0.522,0.496,0.783,1.2,0.783,2.114c0,1.255-0.457,2.135-1.371,2.637l1.656,3.871v0.091h-2.053L34.979,31.893z M34.031,30.301
			h1.084c0.382,0,0.667-0.126,0.858-0.38c0.189-0.253,0.285-0.592,0.285-1.016c0-0.949-0.371-1.422-1.11-1.422h-1.117V30.301z"/>
		<path fill="#FFFFFF" d="M43.501,32.75l1.591-6.859h2.131l-2.729,9.457h-1.986l-2.709-9.457h2.117L43.501,32.75z"/>
		<path fill="#FFFFFF" d="M51.17,35.348h-1.909v-9.457h1.909V35.348z"/>
		<path fill="#FFFFFF" d="M60.249,32.198c-0.048,1.079-0.35,1.894-0.909,2.449c-0.559,0.554-1.347,0.832-2.363,0.832
			c-1.07,0-1.89-0.352-2.459-1.056c-0.569-0.704-0.854-1.707-0.854-3.01v-1.591c0-1.299,0.294-2.301,0.882-3.004
			c0.59-0.703,1.408-1.055,2.456-1.055c1.031,0,1.812,0.287,2.348,0.863c0.534,0.576,0.839,1.403,0.913,2.481h-1.916
			c-0.018-0.667-0.12-1.127-0.309-1.38c-0.188-0.253-0.534-0.379-1.036-0.379c-0.51,0-0.872,0.179-1.085,0.536
			c-0.213,0.357-0.324,0.944-0.337,1.763v1.787c0,0.94,0.104,1.584,0.314,1.936c0.209,0.35,0.569,0.526,1.082,0.526
			c0.502,0,0.848-0.123,1.038-0.368c0.192-0.244,0.299-0.688,0.324-1.328H60.249z"/>
		<path fill="#FFFFFF" d="M67.374,31.256h-2.975v2.507h3.52v1.584h-5.43v-9.457h5.417v1.592h-3.507v2.234h2.975V31.256z"/>
	</g>
	<g>
		<path fill="#FFFFFF" d="M48.343,65.29H35.608v-2.969l5.848-7.435c0.742-1.029,1.289-1.932,1.64-2.709
			c0.351-0.776,0.528-1.521,0.528-2.232c0-0.96-0.167-1.712-0.499-2.257c-0.331-0.543-0.809-0.815-1.432-0.815
			c-0.683,0-1.225,0.315-1.625,0.949c-0.4,0.633-0.601,1.523-0.601,2.671h-4.215c0-1.325,0.274-2.537,0.823-3.636
			c0.55-1.099,1.321-1.952,2.315-2.561s2.119-0.913,3.376-0.913c1.93,0,3.426,0.533,4.49,1.597c1.062,1.064,1.594,2.574,1.594,4.533
			c0,1.217-0.294,2.452-0.882,3.703c-0.59,1.251-1.656,2.792-3.199,4.623l-2.774,3.962h7.347V65.29z"/>
	</g>
</g>
</svg>
