<?xml version="1.0" encoding="utf-8"?>
<!-- Generator: Adobe Illustrator 16.0.0, SVG Export Plug-In . SVG Version: 6.00 Build 0)  -->
<!DOCTYPE svg PUBLIC "-//W3C//DTD SVG 1.1//EN" "http://www.w3.org/Graphics/SVG/1.1/DTD/svg11.dtd">
<svg version="1.1" id="レイヤー_1" xmlns="http://www.w3.org/2000/svg" xmlns:xlink="http://www.w3.org/1999/xlink" x="0px"
	 y="0px" width="84px" height="84px" viewBox="-0.177 -0.355 84 84" enable-background="new -0.177 -0.355 84 84"
	 xml:space="preserve">
<g>
	<circle fill="#005ABE" cx="41.823" cy="41.645" r="42"/>
	<g>
		<path fill="#FFFFFF" d="M20.27,32.867c0-0.385-0.098-0.677-0.295-0.874c-0.197-0.197-0.555-0.401-1.075-0.614
			c-0.948-0.359-1.63-0.78-2.046-1.263c-0.416-0.483-0.624-1.053-0.624-1.711c0-0.797,0.283-1.438,0.848-1.92
			c0.565-0.482,1.283-0.724,2.153-0.724c0.58,0,1.098,0.123,1.553,0.367c0.455,0.244,0.804,0.59,1.049,1.036
			c0.245,0.446,0.367,0.953,0.367,1.52h-1.903c0-0.441-0.094-0.778-0.283-1.01c-0.188-0.231-0.46-0.347-0.815-0.347
			c-0.333,0-0.593,0.099-0.779,0.295c-0.187,0.197-0.28,0.462-0.28,0.795c0,0.26,0.104,0.495,0.312,0.705
			c0.208,0.209,0.576,0.427,1.104,0.653c0.922,0.333,1.592,0.743,2.01,1.227c0.419,0.485,0.627,1.102,0.627,1.852
			c0,0.822-0.262,1.465-0.786,1.929c-0.524,0.464-1.236,0.695-2.137,0.695c-0.61,0-1.167-0.125-1.669-0.377
			c-0.502-0.251-0.896-0.61-1.179-1.078c-0.283-0.468-0.425-1.02-0.425-1.656h1.916c0,0.545,0.106,0.941,0.318,1.188
			c0.212,0.247,0.559,0.371,1.039,0.371C19.936,33.926,20.27,33.573,20.27,32.867z"/>
		<path fill="#FFFFFF" d="M29.407,31.256h-2.975v2.507h3.521v1.585h-5.43v-9.457h5.417v1.591h-3.507v2.234h2.975L29.407,31.256
			L29.407,31.256z"/>
		<path fill="#FFFFFF" d="M34.979,31.893H34.03v3.456h-1.909v-9.457h3.046c0.957,0,1.696,0.248,2.218,0.744
			c0.522,0.496,0.783,1.201,0.783,2.114c0,1.256-0.457,2.135-1.371,2.637l1.656,3.871v0.091H36.4L34.979,31.893z M34.031,30.302
			h1.084c0.381,0,0.667-0.127,0.857-0.38c0.191-0.253,0.287-0.592,0.287-1.016c0-0.949-0.371-1.423-1.111-1.423H34.03L34.031,30.302
			L34.031,30.302z"/>
		<path fill="#FFFFFF" d="M43.5,32.75l1.592-6.859h2.131l-2.729,9.457h-1.987l-2.709-9.457h2.117L43.5,32.75z"/>
		<path fill="#FFFFFF" d="M51.17,35.348h-1.91v-9.457h1.91V35.348z"/>
		<path fill="#FFFFFF" d="M60.249,32.198c-0.048,1.078-0.351,1.895-0.909,2.449c-0.559,0.555-1.346,0.832-2.363,0.832
			c-1.07,0-1.891-0.352-2.459-1.055c-0.568-0.704-0.854-1.708-0.854-3.011v-1.591c0-1.299,0.295-2.301,0.883-3.004
			c0.59-0.704,1.408-1.055,2.456-1.055c1.03,0,1.812,0.288,2.349,0.864c0.533,0.576,0.84,1.403,0.912,2.481h-1.916
			c-0.017-0.667-0.121-1.127-0.31-1.381c-0.188-0.253-0.533-0.379-1.035-0.379c-0.511,0-0.872,0.178-1.085,0.536
			c-0.213,0.357-0.324,0.945-0.338,1.764v1.786c0,0.939,0.105,1.584,0.314,1.935c0.211,0.351,0.569,0.526,1.082,0.526
			c0.502,0,0.849-0.122,1.039-0.367c0.19-0.245,0.299-0.687,0.324-1.328h1.909V32.198z"/>
		<path fill="#FFFFFF" d="M67.374,31.256H64.4v2.507h3.52v1.585h-5.43v-9.457h5.417v1.591H64.4v2.234h2.975L67.374,31.256
			L67.374,31.256z"/>
	</g>
	<g>
		<path fill="#FFFFFF" d="M44.854,65.291H40.64V48.787l-4.111,1.588v-3.502l7.881-3.221h0.443V65.291z"/>
	</g>
</g>
</svg>
