<?xml version="1.0" encoding="utf-8"?>
<!-- Generator: Adobe Illustrator 16.0.0, SVG Export Plug-In . SVG Version: 6.00 Build 0)  -->
<!DOCTYPE svg PUBLIC "-//W3C//DTD SVG 1.1//EN" "http://www.w3.org/Graphics/SVG/1.1/DTD/svg11.dtd">
<svg version="1.1" id="レイヤー_1" xmlns="http://www.w3.org/2000/svg" xmlns:xlink="http://www.w3.org/1999/xlink" x="0px"
	 y="0px" width="50px" height="58px" viewBox="-8 0 50 58" enable-background="new -8 0 50 58" xml:space="preserve">
<g>
	<path fill="#FFFFFF" d="M2.557,51.479c0.054,0.252,0.156,0.496,0.317,0.756c0.374,0.602,1.318,1.152,1.967,1.447
		c1.707,0.777,5.112,2.24,6.496,2.508c0.729,0.142,1.87-0.426,2.27-0.705c0.135-0.094,0.557-0.618,0.805-1.094
		c1.195-2.291,3.521-7.906,3.231-8.605c0,0-0.026-0.424-0.056-0.885c-2.94-0.866-7.892-2.724-11.556-4.793
		c-0.258,0.438-0.434,0.734-0.434,0.734c-0.632,1.072-2.564,6.885-3.031,9.551C2.495,50.8,2.484,51.146,2.557,51.479L2.557,51.479z"
		/>
	<path fill="#FFE673" d="M27.963,19.481c0.305,0.346,0.604,0.72,0.896,1.123c0.709,0.984,2.481,3.509,2.779,7.251
		c0.258,3.271-0.761,5.733-1.271,6.925c-1.193,2.776-2.881,4.489-3.955,5.56c-1.831,1.822-3.545,2.825-4.111,3.143
		c-1.5,0.845-2.875,1.34-3.914,1.641c-2.955-0.781-9.083-3.016-13.127-5.467c-2.167-2.047-3.185-6.887-3.024-9.502
		c0.117-1.896,0.365-3.848,1.036-5.623c1.051-2.774,2.59-4.584,3.324-5.368c1.031-1.098,3.346-3.501,7.125-4.373
		c2.688-0.62,4.988-0.206,6.066-0.003c0.572,0.108,1.672,0.323,2.977,0.871C23.287,15.876,25.73,16.941,27.963,19.481L27.963,19.481
		z"/>
	<path fill="#201614" d="M26.949,20.495c1.469,1.705,2.553,3.72,3.037,5.927c0.553,2.523,0.1,5.117-0.803,7.27
		c-1.966,4.688-6.341,8.574-11.179,9.574c0.254,0,0.508,0,0.762,0c-3.68-1-7.308-2.188-10.695-3.926
		c-0.736-0.379-1.686-0.605-2.217-1.262c-0.512-0.635-0.885-1.35-1.175-2.108c-0.62-1.622-0.999-3.36-1.026-5.1
		c-0.062-3.935,1.264-7.815,3.956-10.708c2.515-2.705,5.71-4.382,9.482-4.267c3.874,0.117,7.27,1.716,9.857,4.596
		c1.234,1.376,3.26-0.656,2.027-2.026c-4.533-5.047-12.163-6.99-18.421-4.076c-2.389,1.113-4.438,2.953-6.041,5.028
		C2.068,22.584,0.939,26.355,0.79,30.33c-0.111,3.018,0.696,6.59,2.424,9.095c1.037,1.502,2.551,2.218,4.156,3.003
		c1.71,0.84,3.47,1.588,5.247,2.273c1.488,0.574,2.993,1.109,4.524,1.561c0.73,0.217,1.299,0.353,2.059,0.113
		c1.008-0.316,1.994-0.721,2.94-1.188c2.769-1.363,5.23-3.465,7.143-5.877c2.393-3.021,3.939-6.894,3.822-10.79
		c-0.112-3.782-1.688-7.223-4.131-10.054C27.77,17.066,25.749,19.103,26.949,20.495L26.949,20.495z"/>
	<path fill="#201614" d="M21.666,1.802c0.018,1.523,0.042,3.047,0.075,4.569c0.017,0.75,0.647,1.47,1.435,1.435
		c0.762-0.035,1.451-0.631,1.434-1.435c-0.032-1.522-0.057-3.046-0.073-4.569c-0.009-0.749-0.654-1.468-1.435-1.434
		C22.33,0.403,21.658,0.999,21.666,1.802L21.666,1.802L21.666,1.802z"/>
	<g>
		<path fill="#201614" d="M32.006,8.886c0.78-1.061,1.514-2.153,2.2-3.277c0.392-0.642,0.161-1.605-0.515-1.962
			c-0.699-0.37-1.545-0.169-1.963,0.515c-0.687,1.122-1.42,2.216-2.199,3.276c-0.207,0.283-0.232,0.784-0.146,1.106
			c0.095,0.332,0.351,0.692,0.66,0.856c0.332,0.176,0.735,0.265,1.104,0.145c0.113-0.048,0.229-0.097,0.343-0.145
			C31.707,9.272,31.88,9.102,32.006,8.886L32.006,8.886L32.006,8.886z"/>
		<path fill="#201614" d="M36.711,14.918c1.332-0.775,2.686-1.521,4.081-2.182c0.31-0.146,0.571-0.54,0.659-0.857
			c0.096-0.343,0.053-0.8-0.145-1.104c-0.197-0.307-0.492-0.576-0.857-0.66c-0.395-0.089-0.738-0.027-1.104,0.146
			c-1.396,0.66-2.75,1.406-4.084,2.183c-0.648,0.376-0.935,1.311-0.515,1.962C35.168,15.057,36.016,15.322,36.711,14.918
			L36.711,14.918L36.711,14.918z"/>
	</g>
	<path fill="#201614" d="M4.304,47.968c3.419,1.517,6.933,2.854,10.495,3.996c0.737,0.236,1.564-0.276,1.764-1.002
		c0.213-0.774-0.261-1.526-1.002-1.764c-3.327-1.066-6.744-2.349-9.809-3.707c-0.707-0.313-1.541-0.206-1.961,0.515
		C3.433,46.617,3.593,47.65,4.304,47.968L4.304,47.968L4.304,47.968z"/>
	<path fill="#201614" d="M4.36,40.118c-0.477,0.838-0.787,1.797-1.107,2.702c-0.443,1.244-0.845,2.502-1.216,3.769
		c-0.353,1.208-0.709,2.435-0.892,3.683c-0.292,2,0.785,3.479,2.494,4.408c1.234,0.672,2.589,1.18,3.888,1.709
		c1.157,0.471,2.375,1.027,3.62,1.209c1.462,0.213,3.118-0.549,3.993-1.711c0.728-0.967,1.19-2.144,1.675-3.246
		c0.606-1.384,1.19-2.781,1.687-4.209c0.306-0.877,0.822-2.09,0.523-3.029c-0.554-1.752-3.324-1.002-2.766,0.764
		c0.052,0.164-0.027-0.264-0.026-0.24c0.002,0.18-0.06,0.084,0.012,0.021c0.075-0.066,0.035-0.143-0.009,0.025
		c-0.021,0.088-0.037,0.176-0.058,0.26c-0.097,0.406-0.228,0.809-0.362,1.203c-0.346,1.023-0.743,2.032-1.164,3.028
		c-0.383,0.91-0.787,1.815-1.227,2.701c-0.203,0.413-0.404,0.836-0.709,1.185c-0.166,0.19,0.211-0.133-0.004,0.004
		c-0.119,0.073-0.248,0.145-0.376,0.203c-0.194,0.088-0.421,0.17-0.631,0.211c-0.104,0.021-0.312-0.01-0.104,0.015
		c-0.079-0.009-0.186-0.041-0.257-0.063c-0.201-0.062-0.403-0.115-0.604-0.179c-0.556-0.181-1.105-0.386-1.651-0.599
		C8,53.518,6.924,53.057,5.857,52.575c-0.923-0.416-2.065-0.828-1.869-2.009c0.169-1.021,0.472-2.028,0.759-3.022
		c0.368-1.272,0.772-2.539,1.212-3.792c0.332-0.945,0.523-1.561,0.878-2.188C7.75,39.959,5.272,38.511,4.36,40.118L4.36,40.118
		L4.36,40.118z"/>
	<path fill="#201614" d="M23.463,34.832c-0.066-1.693-0.812-3.126-1.893-4.396c-1.037-1.217-2.449-2.596-4.076-2.873
		c-3.348-0.574-6.555,2.464-5.484,5.871c0.476,1.508,1.674,2.575,3.189,2.988c0.736,0.201,1.572,0.298,2.311,0.049
		c0.805-0.271,1.556-0.844,2.113-1.475c2.393-2.702,1.086-6.272-1.465-8.311c-1.547-1.235-3.436-2.05-5.453-1.825
		c-1.983,0.22-3.689,1.349-4.917,2.892c-0.482,0.604-0.591,1.436,0,2.028c0.5,0.499,1.543,0.608,2.028,0
		c1.305-1.643,3.163-2.667,5.233-1.716c1.43,0.656,3.295,2.368,2.99,3.977c-0.131,0.699-0.861,1.557-1.447,1.715
		c0.204-0.055-0.227-0.011-0.258-0.015c-0.214-0.028-0.437-0.095-0.639-0.166c-0.178-0.064-0.594-0.341-0.706-0.493
		c-0.351-0.477-0.507-1.314-0.058-1.916c0.372-0.499,1.064-0.848,1.809-0.818c1.012,0.043,1.95,1.172,2.593,1.879
		c0.679,0.75,1.225,1.658,1.261,2.605C20.666,36.672,23.535,36.682,23.463,34.832L23.463,34.832L23.463,34.832z"/>
</g>
</svg>
