<?xml version="1.0" encoding="utf-8"?>
<!-- Generator: Adobe Illustrator 16.0.0, SVG Export Plug-In . SVG Version: 6.00 Build 0)  -->
<!DOCTYPE svg PUBLIC "-//W3C//DTD SVG 1.1//EN" "http://www.w3.org/Graphics/SVG/1.1/DTD/svg11.dtd">
<svg version="1.1" xmlns="http://www.w3.org/2000/svg" xmlns:xlink="http://www.w3.org/1999/xlink" x="0px" y="0px"
	 width="124.642px" height="139.354px" viewBox="0 0 124.642 139.354" enable-background="new 0 0 124.642 139.354"
	 xml:space="preserve">
<g id="ベース">
</g>
<g id="レイヤー_1">
	<g>
		<g>
			<path fill="#FFFFFF" d="M4.177,133.434c-1.184,0-2.147-0.964-2.147-2.148V4.177c0-1.184,0.964-2.147,2.147-2.147H46.67
				c1.184,0,2.147,0.963,2.147,2.147v47.104c0,0.662,0.349,1.274,0.919,1.612c-0.57,0.337-0.919,0.951-0.919,1.613v46.89
				c0,0.662,0.349,1.274,0.919,1.612c-0.57,0.337-0.919,0.951-0.919,1.613v26.666c0,1.185-0.964,2.148-2.147,2.148H4.177z"/>
			<path d="M4.177,135.463c-2.303,0-4.177-1.874-4.177-4.177V4.177C0,1.874,1.874,0,4.177,0H46.67c2.303,0,4.177,1.874,4.177,4.177
				v127.108c0,2.304-1.874,4.177-4.177,4.177H4.177z M5.932,105.037c-1.034,0-1.873,0.839-1.873,1.874v22.621
				c0,1.035,0.839,1.874,1.873,1.874h38.983c1.034,0,1.873-0.839,1.873-1.874v-22.621c0-1.035-0.839-1.874-1.873-1.874H5.932z
				 M5.932,54.923c-1.034,0-1.873,0.839-1.873,1.874v42.309c0,1.035,0.839,1.874,1.873,1.874h38.983
				c1.034,0,1.873-0.839,1.873-1.874V56.796c0-1.035-0.839-1.874-1.873-1.874H5.932z M5.932,13.008
				c-1.034,0-1.873,0.839-1.873,1.874v34.11c0,1.035,0.839,1.874,1.873,1.874h38.983c1.034,0,1.873-0.839,1.873-1.874v-34.11
				c0-1.035-0.839-1.874-1.873-1.874H5.932z M5.932,4.059c-1.034,0-1.873,0.839-1.873,1.874v1.144c0,1.035,0.839,1.874,1.873,1.874
				h38.983c1.034,0,1.873-0.839,1.873-1.874V5.932c0-1.035-0.839-1.874-1.873-1.874H5.932z"/>
		</g>
		<g>
			<g>
				<path fill="#FFFFFF" d="M65.551,130.322c-1.185,0-2.147-0.964-2.147-2.147V87.579c0-1.184,0.963-2.147,2.147-2.147h46.231
					c1.185,0,2.148,0.964,2.148,2.147v13.896c0,1.186,0.943,2.351,2.102,2.597l4.48,0.959c1.139,0.243,2.1,1.433,2.1,2.597v20.548
					c0,1.184-0.963,2.147-2.148,2.147H65.551z"/>
			</g>
			<g>
				<g>
					<g>
						<path d="M65.551,132.352c-2.304,0-4.177-1.874-4.177-4.177V87.579c0-2.303,1.873-4.177,4.177-4.177h46.231
							c2.304,0,4.178,1.874,4.178,4.177v12.887c0,0.884,0.617,1.647,1.48,1.832l3.496,0.748c2.078,0.444,3.705,2.457,3.705,4.581
							v20.548c0,2.303-1.873,4.177-4.178,4.177H65.551z M67.306,87.461c-1.035,0-1.873,0.839-1.873,1.873v37.086
							c0,1.034,0.838,1.873,1.873,1.873h51.404c1.034,0,1.873-0.839,1.873-1.873v-17.784c0-0.884-0.617-1.647-1.481-1.832
							l-0.876-0.188c-0.131-0.027-0.262-0.041-0.393-0.041c-0.425,0-0.842,0.145-1.178,0.416c-0.439,0.356-0.695,0.892-0.695,1.457
							v15.871h-4.059V89.334c0-1.034-0.84-1.873-1.874-1.873H67.306z"/>
					</g>
					<path d="M72.2,139.354h-5.012l-0.965-8.59h6.942L72.2,139.354z M111.108,130.764h-6.941l0.965,8.59h5.012L111.108,130.764z"/>
					<g>
						<circle cx="87.332" cy="107.878" r="16.905"/>
					</g>
				</g>
				<path fill="#808080" d="M92.286,94.432c-0.391-0.392-0.391-1.024,0-1.415c0.391-0.393,1.024-0.393,1.416-0.001
					c0.391,0.391,0.391,1.024-0.001,1.416C93.311,94.823,92.677,94.823,92.286,94.432z M93.702,97.262
					c0.391-0.391,0.391-1.023-0.001-1.415c-0.391-0.392-1.024-0.392-1.415,0s-0.391,1.024,0,1.415
					C92.677,97.653,93.311,97.653,93.702,97.262z M90.87,94.431c0.391-0.391,0.391-1.023,0-1.415s-1.024-0.391-1.415,0
					c-0.392,0.392-0.392,1.024,0,1.415C89.846,94.823,90.479,94.823,90.87,94.431z M99.362,100.093c0.393-0.391,0.393-1.025,0-1.415
					c-0.391-0.392-1.024-0.392-1.414,0c-0.393,0.391-0.393,1.024,0,1.415C98.339,100.484,98.972,100.484,99.362,100.093z
					 M99.362,102.923c0.393-0.39,0.393-1.023,0-1.415c-0.391-0.391-1.023-0.391-1.414,0c-0.393,0.392-0.393,1.025,0,1.415
					C98.339,103.314,98.972,103.314,99.362,102.923z M102.193,102.923c0.392-0.391,0.392-1.023,0-1.415
					c-0.39-0.392-1.024-0.391-1.415,0c-0.392,0.392-0.392,1.024,0,1.415C101.169,103.314,101.804,103.314,102.193,102.923z
					 M96.532,100.093c0.391-0.391,0.391-1.024,0-1.415c-0.391-0.392-1.024-0.392-1.415,0c-0.392,0.391-0.392,1.024-0.001,1.415
					C95.508,100.484,96.142,100.484,96.532,100.093z M95.448,97.483c0.119,0.047,0.248,0.072,0.376,0.072s0.257-0.025,0.376-0.072
					c0.121-0.051,0.234-0.123,0.332-0.222c0.392-0.391,0.392-1.024,0-1.416c-0.391-0.391-1.024-0.391-1.416,0.001
					c-0.391,0.392-0.391,1.024,0,1.415C95.214,97.36,95.328,97.433,95.448,97.483z M102.193,105.755
					c0.392-0.392,0.392-1.025,0-1.415c-0.392-0.392-1.024-0.392-1.415,0c-0.392,0.39-0.392,1.023,0,1.415
					C101.169,106.146,101.804,106.146,102.193,105.755z M89.455,95.846c-0.392,0.392-0.392,1.025,0,1.415
					c0.392,0.392,1.024,0.393,1.417,0.001c0.39-0.391,0.39-1.024-0.002-1.416C90.479,95.455,89.846,95.455,89.455,95.846z
					 M88.04,100.093c0.391-0.391,0.391-1.024,0-1.415c-0.392-0.392-1.025-0.392-1.416,0c-0.392,0.391-0.392,1.024,0,1.415
					C87.015,100.484,87.648,100.484,88.04,100.093z M88.04,102.923c0.391-0.39,0.391-1.023,0-1.415
					c-0.392-0.391-1.025-0.391-1.416,0c-0.391,0.392-0.391,1.025,0,1.415C87.015,103.314,87.648,103.314,88.04,102.923z
					 M89.455,98.678c-0.39,0.391-0.392,1.024,0,1.415c0.392,0.392,1.024,0.391,1.417,0c0.39-0.391,0.39-1.024,0-1.415
					C90.479,98.286,89.847,98.286,89.455,98.678z M88.04,97.261c0.391-0.39,0.391-1.023,0-1.415c-0.392-0.391-1.025-0.391-1.416,0
					c-0.391,0.392-0.391,1.025,0,1.415C87.015,97.652,87.648,97.652,88.04,97.261z M95.824,108.879c0.128,0,0.257-0.023,0.376-0.074
					c0.121-0.047,0.234-0.121,0.332-0.219s0.171-0.212,0.221-0.332c0.146-0.361,0.073-0.79-0.221-1.084
					c-0.391-0.391-1.024-0.391-1.416,0c-0.195,0.195-0.293,0.452-0.293,0.708c0,0.257,0.098,0.512,0.293,0.707
					C95.312,108.781,95.567,108.879,95.824,108.879z M95.117,101.508c-0.392,0.391-0.392,1.024,0,1.415
					c0.391,0.392,1.024,0.392,1.415,0c0.392-0.39,0.392-1.023,0-1.415C96.142,101.116,95.508,101.116,95.117,101.508z
					 M93.701,105.755c0.392-0.392,0.392-1.025,0.001-1.415c-0.392-0.392-1.025-0.392-1.418,0c-0.39,0.39-0.389,1.023,0.002,1.415
					C92.677,106.146,93.311,106.146,93.701,105.755z M93.701,108.585c0.392-0.39,0.392-1.024,0-1.415
					c-0.391-0.391-1.024-0.391-1.415,0s-0.391,1.025,0,1.415C92.677,108.976,93.311,108.976,93.701,108.585z M95.117,104.34
					c-0.392,0.39-0.392,1.023,0,1.415c0.391,0.391,1.024,0.391,1.415,0c0.392-0.392,0.392-1.025,0-1.415
					C96.142,103.948,95.508,103.948,95.117,104.34z M90.87,105.755c0.391-0.392,0.391-1.025,0-1.415
					c-0.391-0.392-1.024-0.392-1.415,0c-0.392,0.39-0.392,1.023-0.001,1.415C89.846,106.146,90.479,106.146,90.87,105.755z
					 M92.286,101.508c-0.391,0.391-0.391,1.024,0,1.415c0.391,0.392,1.024,0.391,1.416,0c0.391-0.391,0.391-1.024,0-1.415
					C93.311,101.116,92.677,101.116,92.286,101.508z M89.455,108.585c0.099,0.098,0.211,0.171,0.331,0.22
					c0.361,0.146,0.791,0.074,1.086-0.22c0.39-0.39,0.389-1.024-0.002-1.415s-1.024-0.391-1.415,0
					c-0.294,0.294-0.367,0.723-0.22,1.084C89.284,108.374,89.357,108.487,89.455,108.585z M92.993,98.384
					c-0.256,0-0.512,0.099-0.707,0.294s-0.294,0.451-0.294,0.706c0,0.257,0.099,0.515,0.294,0.709
					c0.098,0.098,0.211,0.171,0.332,0.22c0.119,0.049,0.248,0.074,0.375,0.074c0.129,0,0.257-0.025,0.377-0.074
					c0.121-0.049,0.234-0.122,0.332-0.22c0.391-0.391,0.391-1.024,0-1.415C93.507,98.482,93.25,98.384,92.993,98.384z
					 M90.162,101.216c-0.256,0-0.513,0.098-0.707,0.292c-0.196,0.195-0.294,0.452-0.294,0.708c0,0.257,0.098,0.513,0.294,0.707
					c0.391,0.392,1.024,0.392,1.415,0c0.391-0.39,0.392-1.023,0-1.415C90.675,101.313,90.419,101.216,90.162,101.216z
					 M102.194,108.585c0.391-0.39,0.391-1.024-0.001-1.415c-0.39-0.391-1.024-0.391-1.415,0c-0.392,0.391-0.392,1.025,0,1.415
					C101.169,108.976,101.804,108.976,102.194,108.585z M99.362,111.418c0.393-0.392,0.393-1.027,0-1.418
					c-0.391-0.39-1.024-0.39-1.414,0c-0.393,0.391-0.393,1.025,0,1.416C98.338,111.807,98.972,111.809,99.362,111.418z
					 M102.194,111.416c0.391-0.391,0.391-1.025,0-1.416c-0.391-0.39-1.025-0.39-1.416,0c-0.391,0.391-0.392,1.025,0,1.416
					C101.169,111.807,101.804,111.807,102.194,111.416z M96.532,111.416c0.391-0.391,0.391-1.025,0-1.416
					c-0.391-0.39-1.024-0.39-1.416,0c-0.391,0.391-0.392,1.025,0,1.416S96.142,111.807,96.532,111.416z M97.948,107.17
					c-0.393,0.391-0.393,1.025,0,1.415c0.391,0.391,1.023,0.391,1.414,0c0.393-0.39,0.393-1.024,0-1.415
					C98.972,106.777,98.339,106.779,97.948,107.17z M97.948,104.34c-0.393,0.39-0.393,1.023,0,1.415
					c0.391,0.391,1.024,0.391,1.414,0c0.393-0.392,0.393-1.025,0-1.415C98.972,103.948,98.339,103.948,97.948,104.34z
					 M88.039,111.418c0.392-0.392,0.392-1.027,0.001-1.418c-0.392-0.39-1.025-0.39-1.416,0c-0.392,0.391-0.392,1.025,0,1.416
					C87.015,111.807,87.648,111.809,88.039,111.418z M90.872,111.416c0.39-0.391,0.39-1.025,0-1.416c-0.393-0.39-1.025-0.39-1.417,0
					c-0.39,0.391-0.392,1.025,0,1.416S90.479,111.807,90.872,111.416z M86.624,107.17c-0.391,0.391-0.391,1.025,0,1.415
					c0.391,0.391,1.024,0.391,1.416,0c0.391-0.39,0.391-1.024,0-1.415C87.648,106.779,87.015,106.779,86.624,107.17z M93.37,111.636
					c0.121-0.049,0.234-0.122,0.332-0.22c0.194-0.196,0.293-0.451,0.293-0.707c0-0.129-0.025-0.256-0.074-0.378
					c-0.049-0.12-0.122-0.232-0.219-0.331c-0.195-0.194-0.452-0.292-0.709-0.292c-0.127,0-0.256,0.024-0.375,0.072
					c-0.121,0.05-0.234,0.122-0.332,0.22c-0.391,0.391-0.391,1.025,0,1.416C92.579,111.708,93.009,111.783,93.37,111.636z
					 M92.286,121.324c-0.391,0.391-0.391,1.025,0,1.415c0.391,0.392,1.024,0.392,1.416,0c0.391-0.39,0.391-1.024,0-1.415
					C93.311,120.934,92.677,120.934,92.286,121.324z M93.702,119.909c0.391-0.392,0.391-1.024,0-1.416
					c-0.392-0.391-1.025-0.391-1.416,0c-0.391,0.392-0.391,1.024,0,1.416S93.311,120.301,93.702,119.909z M89.455,121.324
					c-0.392,0.391-0.39,1.025,0,1.415c0.392,0.392,1.024,0.392,1.415,0c0.392-0.39,0.392-1.024,0.002-1.415
					C90.479,120.934,89.847,120.934,89.455,121.324z M97.948,115.663c-0.393,0.391-0.393,1.024,0,1.416
					c0.391,0.391,1.024,0.391,1.414,0c0.393-0.392,0.393-1.025,0-1.417C98.972,115.271,98.339,115.272,97.948,115.663z
					 M97.948,112.831c-0.393,0.393-0.393,1.025,0,1.417c0.391,0.391,1.023,0.391,1.414,0c0.393-0.392,0.393-1.024,0-1.415
					C98.972,112.441,98.339,112.441,97.948,112.831z M96.532,117.079c0.392-0.392,0.392-1.025,0-1.416
					c-0.391-0.391-1.024-0.391-1.415,0c-0.392,0.391-0.392,1.024,0,1.416C95.508,117.47,96.142,117.47,96.532,117.079z
					 M95.824,118.2c-0.257,0-0.513,0.098-0.707,0.293c-0.392,0.392-0.392,1.024,0,1.416c0.391,0.392,1.024,0.392,1.415,0
					c0.392-0.392,0.392-1.024,0-1.416C96.337,118.298,96.081,118.2,95.824,118.2z M89.455,118.493c-0.39,0.392-0.39,1.024,0,1.416
					c0.392,0.392,1.024,0.392,1.417,0c0.39-0.392,0.391-1.024,0-1.416C90.479,118.103,89.847,118.103,89.455,118.493z
					 M86.624,117.079c0.391,0.391,1.025,0.391,1.416,0c0.391-0.392,0.391-1.026,0-1.417c-0.392-0.391-1.025-0.39-1.416,0.001
					S86.233,116.688,86.624,117.079z M88.04,114.247c0.391-0.391,0.391-1.023,0-1.414c-0.392-0.393-1.025-0.393-1.416-0.002
					c-0.391,0.393-0.391,1.024,0,1.417C87.015,114.638,87.648,114.639,88.04,114.247z M89.455,115.663
					c-0.39,0.391-0.39,1.024,0.001,1.416c0.391,0.391,1.023,0.391,1.416,0c0.391-0.392,0.391-1.025,0-1.416
					C90.479,115.272,89.847,115.272,89.455,115.663z M88.04,119.909c0.391-0.392,0.391-1.024,0-1.416
					c-0.391-0.391-1.025-0.391-1.416,0c-0.391,0.392-0.39,1.024,0,1.416C87.015,120.301,87.649,120.301,88.04,119.909z
					 M87.332,121.031c-0.007,0-0.015,0.005-0.022,0.005c-0.249,0.005-0.496,0.1-0.686,0.288c-0.391,0.391-0.391,1.025,0,1.415
					c0.293,0.295,0.725,0.367,1.085,0.221c0.121-0.048,0.233-0.122,0.331-0.221c0.391-0.39,0.391-1.024,0-1.415
					C87.845,121.13,87.589,121.031,87.332,121.031z M96.2,112.612c-0.119-0.048-0.246-0.073-0.375-0.073
					c-0.258,0-0.512,0.099-0.708,0.294c-0.392,0.391-0.392,1.023,0,1.415c0.292,0.293,0.722,0.365,1.083,0.22
					c0.121-0.049,0.234-0.123,0.332-0.22c0.098-0.098,0.171-0.211,0.221-0.331c0.146-0.361,0.073-0.792-0.221-1.084
					C96.435,112.735,96.321,112.662,96.2,112.612z M102.194,112.831c-0.391-0.391-1.025-0.391-1.415,0
					c-0.392,0.392-0.392,1.024-0.001,1.416c0.391,0.391,1.025,0.391,1.416,0C102.586,113.855,102.586,113.223,102.194,112.831z
					 M93.702,114.248c0.391-0.392,0.391-1.024,0-1.415c-0.392-0.392-1.025-0.392-1.416,0c-0.391,0.391-0.391,1.023,0,1.415
					C92.679,114.639,93.311,114.639,93.702,114.248z M92.286,115.663c-0.391,0.391-0.391,1.024,0,1.416
					c0.393,0.391,1.024,0.391,1.416,0c0.391-0.392,0.391-1.025,0-1.416C93.311,115.272,92.679,115.272,92.286,115.663z
					 M89.455,114.247c0.392,0.392,1.024,0.392,1.417,0.001c0.391-0.392,0.39-1.025-0.002-1.417
					c-0.391-0.391-1.023-0.391-1.415,0.002C89.065,113.224,89.063,113.855,89.455,114.247z M78.132,97.262
					c0.195,0.196,0.452,0.294,0.709,0.294c0.256,0,0.511-0.098,0.707-0.294c0.391-0.391,0.391-1.023,0-1.415s-1.025-0.392-1.416,0
					c-0.195,0.196-0.293,0.451-0.293,0.708C77.839,96.811,77.937,97.066,78.132,97.262z M82.379,94.432
					c0.391-0.392,0.392-1.024,0-1.415c-0.392-0.392-1.024-0.393-1.416-0.001c-0.392,0.391-0.391,1.024,0,1.416
					C81.354,94.823,81.987,94.823,82.379,94.432z M80.963,95.847c-0.391,0.392-0.391,1.024,0,1.415c0.392,0.392,1.024,0.392,1.416,0
					c0.391-0.391,0.391-1.023,0-1.415C81.987,95.455,81.354,95.455,80.963,95.847z M85.21,94.432c0.391-0.392,0.39-1.024,0-1.415
					c-0.391-0.392-1.024-0.392-1.416,0c-0.391,0.391-0.391,1.023,0,1.415S84.819,94.823,85.21,94.432z M76.717,100.093
					c0.391-0.391,0.391-1.024,0-1.415c-0.39-0.392-1.024-0.392-1.416,0c-0.391,0.391-0.391,1.024,0,1.415
					C75.692,100.484,76.327,100.484,76.717,100.093z M75.301,101.508c-0.391,0.392-0.391,1.025,0,1.415
					c0.392,0.392,1.024,0.392,1.415,0c0.392-0.39,0.392-1.023,0-1.415C76.325,101.117,75.692,101.117,75.301,101.508z
					 M72.47,101.509c-0.391,0.392-0.391,1.025,0,1.416c0.392,0.391,1.025,0.391,1.416,0s0.391-1.024,0-1.416
					C73.495,101.118,72.861,101.117,72.47,101.509z M78.132,98.678c-0.391,0.391-0.391,1.024,0,1.415
					c0.391,0.392,1.025,0.392,1.416,0c0.391-0.391,0.391-1.024,0-1.415C79.157,98.286,78.522,98.286,78.132,98.678z M72.47,104.34
					c-0.391,0.39-0.391,1.023,0,1.415c0.392,0.391,1.025,0.391,1.416,0c0.391-0.392,0.391-1.025,0-1.415
					C73.495,103.948,72.861,103.948,72.47,104.34z M86.624,94.432c0.293,0.294,0.725,0.366,1.085,0.219
					c0.121-0.048,0.233-0.121,0.331-0.22c0.194-0.195,0.293-0.451,0.293-0.707s-0.099-0.513-0.293-0.708l0,0l0,0
					c-0.391-0.392-1.025-0.392-1.416,0c-0.196,0.194-0.293,0.452-0.293,0.708S86.428,94.236,86.624,94.432z M80.743,99.762
					c0.048,0.121,0.121,0.234,0.22,0.331c0.39,0.392,1.024,0.392,1.416,0c0.39-0.391,0.39-1.024,0-1.415
					c-0.392-0.392-1.026-0.392-1.416,0c-0.099,0.098-0.172,0.211-0.22,0.33c-0.05,0.121-0.074,0.25-0.074,0.378
					S80.693,99.641,80.743,99.762z M83.794,102.925c0.195,0.195,0.451,0.293,0.707,0.293s0.513-0.098,0.709-0.295
					c0.39-0.39,0.391-1.023,0-1.415c-0.391-0.391-1.025-0.391-1.416,0c-0.195,0.195-0.293,0.452-0.293,0.708
					C83.501,102.473,83.599,102.729,83.794,102.925z M85.21,97.262c0.39-0.391,0.39-1.024,0-1.416
					c-0.391-0.391-1.025-0.391-1.416,0.001s-0.391,1.024-0.001,1.415C84.184,97.653,84.819,97.653,85.21,97.262z M85.21,100.093
					c0.39-0.391,0.39-1.024-0.002-1.415c-0.391-0.392-1.023-0.392-1.415,0c-0.39,0.391-0.39,1.024,0,1.415
					C84.184,100.484,84.819,100.484,85.21,100.093z M79.548,102.923c0.391-0.39,0.391-1.023,0-1.415
					c-0.392-0.391-1.025-0.391-1.416,0c-0.391,0.392-0.391,1.025,0,1.415C78.522,103.314,79.156,103.314,79.548,102.923z
					 M80.963,104.34c-0.391,0.39-0.391,1.023,0,1.416c0.392,0.391,1.024,0.39,1.416-0.001c0.392-0.392,0.392-1.025,0-1.415
					C81.987,103.948,81.354,103.948,80.963,104.34z M80.963,107.17c-0.391,0.393-0.391,1.025,0,1.415
					c0.392,0.393,1.024,0.393,1.416,0.001c0.391-0.391,0.391-1.023,0-1.416C81.987,106.78,81.354,106.779,80.963,107.17z
					 M79.548,105.755c0.391-0.392,0.391-1.025,0-1.415c-0.392-0.392-1.025-0.392-1.416,0c-0.391,0.39-0.391,1.023,0,1.415
					C78.522,106.146,79.156,106.146,79.548,105.755z M83.794,104.34c-0.391,0.39-0.391,1.023,0,1.415
					c0.392,0.391,1.025,0.391,1.416,0c0.391-0.392,0.391-1.025,0-1.415C84.819,103.948,84.186,103.948,83.794,104.34z
					 M80.963,101.508c-0.391,0.392-0.391,1.025,0,1.415c0.39,0.392,1.024,0.392,1.416,0c0.391-0.39,0.39-1.023,0-1.415
					C81.987,101.117,81.354,101.116,80.963,101.508z M73.886,108.585c0.391-0.39,0.391-1.024,0-1.415s-1.024-0.391-1.416,0
					c-0.391,0.391-0.391,1.025,0,1.415C72.86,108.976,73.495,108.976,73.886,108.585z M75.301,110
					c-0.391,0.391-0.391,1.026,0.001,1.418c0.391,0.391,1.025,0.391,1.415,0c0.391-0.393,0.391-1.027,0-1.416
					C76.327,109.61,75.692,109.61,75.301,110z M73.886,111.416c0.391-0.391,0.391-1.025,0-1.416c-0.392-0.39-1.024-0.39-1.416,0
					c-0.391,0.391-0.391,1.025,0,1.416S73.495,111.807,73.886,111.416z M78.132,110c-0.391,0.391-0.391,1.025,0,1.416
					c0.391,0.393,1.025,0.393,1.416,0c0.391-0.391,0.391-1.025,0-1.416C79.157,109.61,78.522,109.61,78.132,110z M75.301,107.17
					c-0.391,0.391-0.391,1.025,0,1.415c0.392,0.391,1.024,0.391,1.415,0c0.392-0.39,0.392-1.024,0-1.415
					C76.325,106.779,75.692,106.779,75.301,107.17z M75.632,105.975c0.121,0.049,0.249,0.073,0.377,0.073s0.256-0.024,0.377-0.073
					c0.119-0.05,0.233-0.122,0.33-0.22c0.392-0.392,0.392-1.025,0-1.415c-0.391-0.392-1.023-0.392-1.415,0
					c-0.194,0.195-0.292,0.451-0.292,0.707c0,0.257,0.096,0.512,0.292,0.708C75.398,105.853,75.512,105.925,75.632,105.975z
					 M78.132,107.17c-0.391,0.391-0.391,1.025,0,1.416c0.391,0.392,1.025,0.392,1.416-0.001c0.391-0.39,0.391-1.022,0-1.414
					S78.522,106.779,78.132,107.17z M87.709,104.119c-0.36-0.146-0.792-0.073-1.085,0.221c-0.293,0.293-0.367,0.722-0.219,1.084l0,0
					c0.048,0.12,0.121,0.233,0.219,0.331c0.391,0.391,1.025,0.391,1.416,0c0.391-0.392,0.391-1.025,0-1.415
					C87.942,104.241,87.83,104.168,87.709,104.119z M83.794,107.17c-0.098,0.098-0.172,0.21-0.22,0.33
					c-0.05,0.122-0.073,0.25-0.073,0.378c0,0.257,0.097,0.512,0.293,0.707c0.39,0.391,1.025,0.391,1.416,0
					c0.39-0.39,0.39-1.024,0-1.415C84.819,106.779,84.185,106.779,83.794,107.17z M85.21,111.416c0.39-0.391,0.39-1.025-0.002-1.416
					c-0.391-0.39-1.023-0.39-1.414,0c-0.391,0.391-0.391,1.025,0,1.416C84.184,111.807,84.819,111.807,85.21,111.416z
					 M81.671,111.708c0.127,0,0.255-0.023,0.376-0.072c0.12-0.048,0.234-0.122,0.332-0.22c0.194-0.196,0.292-0.451,0.292-0.707
					s-0.098-0.513-0.292-0.709c-0.392-0.39-1.024-0.39-1.416,0c-0.392,0.391-0.392,1.025,0,1.416
					C81.158,111.611,81.413,111.708,81.671,111.708z M80.963,121.324c-0.392,0.391-0.392,1.026-0.001,1.416
					c0.391,0.392,1.025,0.391,1.417-0.001c0.391-0.39,0.391-1.024,0-1.415C81.987,120.934,81.353,120.934,80.963,121.324z
					 M80.963,118.493c-0.392,0.392-0.392,1.024,0,1.416c0.39,0.392,1.024,0.392,1.415,0s0.392-1.024,0-1.416
					C81.987,118.103,81.353,118.103,80.963,118.493z M83.794,121.324c-0.391,0.391-0.391,1.025,0,1.415
					c0.391,0.392,1.025,0.392,1.416,0c0.39-0.39,0.39-1.024,0-1.415C84.819,120.934,84.185,120.934,83.794,121.324z M75.301,115.663
					c-0.392,0.391-0.392,1.024,0,1.416c0.392,0.391,1.024,0.391,1.415,0c0.392-0.392,0.392-1.025,0-1.416
					C76.325,115.272,75.692,115.272,75.301,115.663z M76.716,114.248c0.392-0.392,0.392-1.024,0-1.415
					c-0.391-0.392-1.023-0.392-1.415,0c-0.392,0.391-0.392,1.023,0,1.415C75.692,114.639,76.325,114.639,76.716,114.248z
					 M72.47,112.833c-0.391,0.391-0.391,1.023,0,1.415c0.392,0.391,1.025,0.391,1.416,0c0.391-0.392,0.391-1.024,0-1.415
					C73.495,112.441,72.861,112.441,72.47,112.833z M78.132,115.663c-0.391,0.391-0.391,1.024,0,1.416
					c0.391,0.391,1.024,0.391,1.416,0c0.391-0.392,0.391-1.025,0-1.416C79.156,115.272,78.522,115.272,78.132,115.663z
					 M78.132,118.493c-0.391,0.392-0.393,1.024,0,1.416c0.391,0.392,1.024,0.392,1.416,0c0.391-0.392,0.391-1.024,0-1.416
					C79.156,118.103,78.522,118.103,78.132,118.493z M85.208,119.909c0.098-0.098,0.172-0.211,0.221-0.331s0.073-0.248,0.073-0.375
					c0-0.129-0.024-0.257-0.073-0.377s-0.123-0.235-0.221-0.333c-0.195-0.195-0.451-0.293-0.707-0.293s-0.512,0.098-0.708,0.293
					c-0.195,0.196-0.294,0.453-0.294,0.709c0.002,0.256,0.099,0.512,0.294,0.707C84.184,120.301,84.817,120.301,85.208,119.909z
					 M85.208,117.079c0.391-0.392,0.392-1.025,0-1.416c-0.391-0.391-1.024-0.391-1.415,0c-0.39,0.391-0.39,1.024,0,1.416
					C84.184,117.47,84.817,117.47,85.208,117.079z M79.548,114.248c0.293-0.293,0.365-0.722,0.219-1.084
					c-0.049-0.12-0.121-0.234-0.221-0.331c-0.096-0.098-0.211-0.171-0.33-0.221c-0.362-0.146-0.791-0.073-1.084,0.221
					c-0.393,0.391-0.393,1.023,0,1.415C78.522,114.639,79.156,114.639,79.548,114.248z M82.378,114.248
					c0.391-0.392,0.391-1.024,0-1.415c-0.391-0.392-1.025-0.392-1.416,0c-0.391,0.391-0.391,1.023,0,1.415
					C81.353,114.639,81.986,114.639,82.378,114.248z M82.378,117.079c0.391-0.392,0.391-1.025,0-1.416
					c-0.392-0.391-1.025-0.391-1.416,0s-0.391,1.024,0,1.416C81.353,117.47,81.986,117.47,82.378,117.079z M84.501,114.541
					c0.256,0,0.513-0.098,0.709-0.293c0.39-0.392,0.39-1.024,0-1.415c-0.294-0.295-0.724-0.368-1.086-0.221
					c-0.12,0.048-0.232,0.123-0.33,0.219c-0.098,0.098-0.172,0.213-0.22,0.333c-0.147,0.362-0.075,0.791,0.219,1.084
					C83.989,114.443,84.245,114.541,84.501,114.541z"/>
			</g>
		</g>
	</g>
</g>
<g id="ヘッダー">
</g>
<g id="web用">
</g>
<g id="ケイ">
</g>
</svg>
