<?xml version="1.0" encoding="utf-8"?>
<!-- Generator: Adobe Illustrator 16.0.0, SVG Export Plug-In . SVG Version: 6.00 Build 0)  -->
<!DOCTYPE svg PUBLIC "-//W3C//DTD SVG 1.1//EN" "http://www.w3.org/Graphics/SVG/1.1/DTD/svg11.dtd">
<svg version="1.1" id="レイヤー_1" xmlns="http://www.w3.org/2000/svg" xmlns:xlink="http://www.w3.org/1999/xlink" x="0px"
	 y="0px" width="275.57px" height="38.494px" viewBox="0 0 275.57 38.494" enable-background="new 0 0 275.57 38.494"
	 xml:space="preserve">
<g>
	<g>
		<g>
			<path fill="#FFFFFF" d="M84.257,32.241c-1.643,0.72-3.151,1.282-4.749,1.71c-0.113,0.023-0.225,0.045-0.338,0.045
				c-0.675,0-1.103-0.63-1.103-1.237c0-0.473,0.27-0.945,0.833-1.103c1.801-0.473,3.443-1.035,5.356-1.846v-5.087h-4.366
				c-0.63,0-0.968-0.585-0.968-1.147c0-0.586,0.338-1.148,0.968-1.148h4.366v-4.659c0-0.72,0.653-1.08,1.283-1.08
				c0.652,0,1.283,0.36,1.283,1.08V36.63c0,0.72-0.63,1.081-1.283,1.081c-0.63,0-1.283-0.361-1.283-1.081V32.241z M92.72,24.297
				c1.305-0.766,2.521-1.644,3.668-2.679c0.27-0.248,0.562-0.338,0.833-0.338c0.675,0,1.261,0.585,1.261,1.237
				c0,0.316-0.135,0.653-0.473,0.924c-1.711,1.373-3.511,2.543-5.289,3.42v6.933c0,0.72,0.27,0.923,1.733,0.923
				c1.823,0,2.25-0.314,2.408-1.936c0.067-0.652,0.607-0.968,1.148-0.968c0.607,0,1.193,0.36,1.193,1.058
				c0,0.788-0.225,1.868-0.63,2.521c-0.653,1.035-1.755,1.529-4.119,1.529c-3.489,0-4.254-0.765-4.254-2.655v-16.43
				c0-0.788,0.63-1.17,1.26-1.17c0.63,0,1.261,0.382,1.261,1.17V24.297z"/>
			<path fill="#FFFFFF" d="M105.598,24.499c0.27,0.315,0.382,0.607,0.382,0.899c0,0.676-0.607,1.216-1.238,1.216
				c-0.315,0-0.63-0.135-0.878-0.405c-0.518-0.585-1.305-1.305-1.8-1.71c-0.315-0.271-0.45-0.563-0.45-0.855
				c0-0.585,0.585-1.103,1.238-1.103c0.27,0,0.541,0.09,0.811,0.27C104.337,23.261,105.103,23.936,105.598,24.499z M105.935,28.955
				c0.63,0,1.283,0.45,1.283,1.148c0,0.111,0,0.225-0.045,0.359c-0.607,2.094-1.575,4.344-2.521,5.896
				c-0.315,0.496-0.765,0.698-1.193,0.698c-0.653,0-1.26-0.45-1.26-1.103c0-0.226,0.067-0.451,0.225-0.698
				c0.9-1.485,1.778-3.533,2.386-5.491C104.99,29.203,105.462,28.955,105.935,28.955z M106.993,19.052
				c0.271,0.315,0.36,0.608,0.36,0.901c0,0.652-0.585,1.192-1.193,1.192c-0.315,0-0.608-0.136-0.9-0.45
				c-0.54-0.586-1.215-1.238-1.71-1.666c-0.315-0.27-0.428-0.563-0.428-0.833c0-0.585,0.585-1.08,1.238-1.08
				c0.27,0,0.54,0.067,0.81,0.27C105.8,17.859,106.498,18.489,106.993,19.052z M121.893,27.38c0.585,0,0.877,0.495,0.877,0.968
				c0,0.495-0.292,0.968-0.877,0.968h-1.778c-0.067,0.923-0.158,1.868-0.27,2.79h1.373c0.585,0,0.877,0.496,0.877,0.969
				c0,0.494-0.292,0.967-0.877,0.967h-1.621c-0.045,0.361-0.112,0.698-0.158,1.036c-0.27,1.688-1.215,2.408-2.633,2.408
				c-0.45,0-1.193-0.067-1.575-0.136c-0.63-0.111-0.9-0.584-0.9-1.057c0-0.541,0.36-1.081,0.99-1.081h0.135
				c0.225,0.022,0.855,0.112,1.08,0.112c0.405,0,0.585-0.135,0.675-0.585c0.045-0.226,0.09-0.45,0.113-0.698h-6.707l-0.113,0.496
				c-0.135,0.585-0.653,0.877-1.193,0.877c-0.562,0-1.103-0.314-1.103-0.922c0-0.068,0-0.158,0.022-0.248
				c0.382-1.688,0.72-3.309,1.013-4.929h-1.238c-0.563,0-0.855-0.495-0.855-0.968c0-0.496,0.292-0.968,0.855-0.968h1.553
				c0.113-0.766,0.225-1.554,0.315-2.341c0.203-1.576,0.855-2.07,2.476-2.07h5.537c1.71,0,2.498,0.63,2.498,1.957v0.158
				c0,0.766-0.067,1.53-0.135,2.296H121.893z M121.24,19.39c0.607,0,0.9,0.54,0.9,1.081c0,0.539-0.293,1.08-0.9,1.08h-10.128
				c-0.473,0.765-0.99,1.508-1.576,2.205c-0.315,0.36-0.698,0.518-1.035,0.518c-0.608,0-1.125-0.473-1.125-1.058
				c0-0.247,0.09-0.54,0.338-0.81c1.08-1.216,2.228-3.376,2.835-4.952c0.203-0.54,0.653-0.765,1.125-0.765
				c0.608,0,1.238,0.428,1.238,1.035c0,0.135-0.022,0.27-0.09,0.428c-0.158,0.383-0.338,0.81-0.54,1.238H121.24z M113.092,32.105
				c0.158-0.922,0.292-1.867,0.405-2.79h-2.003c-0.157,0.923-0.337,1.868-0.495,2.79H113.092z M113.723,27.38
				c0.112-0.833,0.18-1.644,0.248-2.476h-1.306c-0.45,0-0.54,0.066-0.607,0.494l-0.271,1.981H113.723z M117.594,32.105
				c0.112-0.922,0.18-1.867,0.292-2.79h-2.183c-0.113,0.923-0.27,1.868-0.405,2.79H117.594z M118.021,27.38
				c0.023-0.675,0.09-1.328,0.09-1.958v-0.113c0-0.338-0.113-0.404-0.585-0.404h-1.395l-0.203,2.476H118.021z"/>
			<path fill="#FFFFFF" d="M136.143,26.659c-0.36,4.411-2.454,7.788-5.694,9.745c-0.248,0.136-0.473,0.203-0.698,0.203
				c-0.72,0-1.283-0.652-1.283-1.328c0-0.383,0.18-0.787,0.675-1.103c2.611-1.665,4.051-3.983,4.389-7.518h-6.91
				c-0.653,0-0.968-0.607-0.968-1.192c0-0.607,0.315-1.193,0.968-1.193h16.092c0.653,0,0.99,0.586,0.99,1.193
				c0,0.585-0.337,1.192-0.99,1.192H136.143z M139.879,18.962c0.653,0,0.99,0.608,0.99,1.216s-0.337,1.215-0.99,1.215h-10.488
				c-0.653,0-0.968-0.607-0.968-1.215s0.315-1.216,0.968-1.216H139.879z"/>
			<path fill="#FFFFFF" d="M151.405,26.885c0.046,0.135,0.068,0.27,0.068,0.404c0,0.653-0.652,1.104-1.283,1.104
				c-0.428,0-0.832-0.203-1.035-0.697c-0.405-0.99-0.923-2.049-1.44-2.904c-0.112-0.18-0.157-0.359-0.157-0.54
				c0-0.585,0.607-1.035,1.238-1.035c0.382,0,0.787,0.181,1.035,0.585C150.415,24.724,151.023,25.85,151.405,26.885z
				 M160.521,22.855c0.631,0,1.307,0.405,1.307,1.08c0,0.091-0.023,0.181-0.045,0.293c-1.418,5.312-4.997,10.038-9.318,12.379
				c-0.225,0.112-0.428,0.18-0.631,0.18c-0.652,0-1.147-0.585-1.147-1.192c0-0.405,0.202-0.811,0.698-1.081
				c4.028-2.272,6.707-5.986,8.035-10.87C159.575,23.081,160.026,22.855,160.521,22.855z M155.728,25.805
				c0.045,0.135,0.067,0.27,0.067,0.383c0,0.652-0.63,1.08-1.237,1.08c-0.428,0-0.855-0.226-1.036-0.743
				c-0.382-1.013-0.854-2.003-1.351-2.858c-0.112-0.18-0.157-0.359-0.157-0.518c0-0.586,0.585-0.99,1.216-0.99
				c0.404,0,0.81,0.157,1.057,0.585C154.85,23.688,155.39,24.77,155.728,25.805z"/>
			<path fill="#FFFFFF" d="M177.628,20.92c1.869-0.022,2.814,0.721,2.814,2.07c0,0.361-0.068,0.766-0.203,1.193
				c-1.553,5.244-5.401,10.016-10.309,12.738c-0.27,0.158-0.518,0.203-0.742,0.203c-0.742,0-1.283-0.607-1.283-1.283
				c0-0.428,0.248-0.9,0.788-1.215c4.479-2.633,7.472-6.414,8.845-10.691c0.045-0.111,0.068-0.225,0.068-0.314
				c0-0.248-0.18-0.36-0.607-0.36l-5.042,0.046c-1.103,1.619-2.386,3.128-3.669,4.275c-0.338,0.315-0.697,0.428-1.035,0.428
				c-0.676,0-1.26-0.518-1.26-1.193c0-0.337,0.18-0.72,0.562-1.08c2.138-1.936,4.254-4.974,5.424-7.742
				c0.248-0.585,0.742-0.855,1.238-0.855c0.675,0,1.328,0.473,1.328,1.193c0,0.157-0.046,0.337-0.113,0.518
				c-0.293,0.697-0.631,1.396-1.013,2.115L177.628,20.92z"/>
			<path fill="#FFFFFF" d="M185.374,23.824c-0.562,0-0.854-0.541-0.854-1.081s0.292-1.08,0.833-1.08h2.16v-4.142
				c0-0.585,0.586-0.877,1.148-0.877c0.584,0,1.147,0.292,1.147,0.877v4.142h1.553c0.563,0,0.855,0.54,0.855,1.08
				s-0.292,1.081-0.855,1.081h-1.553v2.183c0.833,0.652,1.733,1.62,2.386,2.521c0.18,0.248,0.248,0.473,0.248,0.697
				c0,0.541-0.496,0.945-0.99,0.945c-0.293,0-0.608-0.135-0.811-0.449c-0.248-0.383-0.541-0.766-0.833-1.125v8.146
				c0,0.652-0.563,0.969-1.147,0.969c-0.562,0-1.148-0.316-1.148-0.969v-3.24l0.067-4.614c-0.427,1.147-0.945,2.228-1.508,3.151
				c-0.226,0.359-0.54,0.518-0.854,0.518c-0.519,0-1.036-0.451-1.036-1.014c0-0.202,0.067-0.404,0.202-0.63
				c1.193-1.868,2.184-4.276,2.904-7.089H185.374z M204.348,25.826c0.608,0,0.9,0.541,0.9,1.081s-0.292,1.08-0.9,1.08h-3.669
				c1.261,1.958,2.859,3.759,4.479,5.132c0.382,0.338,0.54,0.697,0.54,1.035c0,0.63-0.518,1.17-1.17,1.17
				c-0.315,0-0.653-0.135-0.969-0.449c-1.529-1.554-2.791-3.151-3.758-4.771l0.09,3.758v2.858c0,0.653-0.586,0.991-1.148,0.991
				c-0.585,0-1.17-0.338-1.17-0.991v-2.858l0.09-3.736c-1.058,1.756-2.498,3.602-4.23,5.154c-0.293,0.248-0.586,0.36-0.879,0.36
				c-0.607,0-1.125-0.518-1.125-1.103c0-0.315,0.158-0.652,0.496-0.945c1.8-1.508,3.375-3.488,4.613-5.604h-3.174
				c-0.585,0-0.9-0.54-0.9-1.08s0.315-1.081,0.9-1.081h4.209v-2.678h-2.386c-0.181,0.383-0.337,0.742-0.518,1.08
				c-0.271,0.495-0.698,0.697-1.103,0.697c-0.586,0-1.148-0.427-1.148-1.035c0-0.18,0.045-0.383,0.158-0.584
				c0.697-1.171,1.26-2.611,1.71-4.322c0.157-0.563,0.585-0.811,1.058-0.811c0.562,0,1.171,0.405,1.171,1.081
				c0,0.09-0.022,0.202-0.046,0.315c-0.135,0.494-0.292,0.99-0.449,1.463h1.553v-3.376c0-0.675,0.585-0.99,1.17-0.99
				c0.562,0,1.148,0.315,1.148,0.99v3.376h3.578c0.586,0,0.878,0.518,0.878,1.057c0,0.519-0.292,1.059-0.878,1.059h-3.578v2.678
				H204.348z"/>
			<path fill="#FFFFFF" d="M219.138,20.65c-0.045-0.99-0.066-2.048-0.066-3.151c0-0.72,0.63-1.058,1.237-1.058
				c0.63,0,1.261,0.337,1.261,1.035c0,1.125,0.022,2.184,0.067,3.174h5.717c0.607,0,0.923,0.562,0.923,1.103
				c0,0.562-0.315,1.126-0.923,1.126h-5.604c0.248,3.105,0.721,5.514,1.373,7.427c1.193,3.466,2.07,4.299,2.723,4.299
				c0.428,0,0.698-0.226,0.855-1.733c0.068-0.652,0.586-0.968,1.104-0.968c0.585,0,1.17,0.405,1.17,1.103v0.113
				c-0.27,2.746-1.328,3.983-3.084,3.983c-2.047,0-3.623-1.53-5.086-5.897c-0.721-2.137-1.26-4.883-1.53-8.326h-10.038
				c-0.585,0-0.9-0.563-0.9-1.126c0-0.54,0.315-1.103,0.9-1.103H219.138z M212.927,28.279h-2.477c-0.607,0-0.9-0.539-0.9-1.08
				c0-0.54,0.293-1.08,0.9-1.08h7.045c0.607,0,0.923,0.54,0.923,1.08c0,0.541-0.315,1.08-0.923,1.08h-2.138v4.771
				c1.058-0.225,2.093-0.473,3.016-0.72c0.112-0.022,0.226-0.045,0.338-0.045c0.652,0,1.08,0.54,1.08,1.103
				c0,0.428-0.247,0.855-0.854,1.035c-2.634,0.743-6.213,1.508-9.004,1.823h-0.157c-0.765,0-1.147-0.562-1.147-1.147
				c0-0.518,0.338-1.035,1.035-1.125c1.013-0.113,2.139-0.271,3.264-0.473V28.279z M225.688,18.219
				c0.292,0.293,0.427,0.585,0.427,0.878c0,0.584-0.54,1.081-1.125,1.081c-0.271,0-0.54-0.09-0.788-0.338
				c-0.449-0.45-0.787-0.765-1.283-1.148c-0.292-0.248-0.428-0.54-0.428-0.81c0-0.54,0.496-1.013,1.081-1.013
				c0.226,0,0.473,0.067,0.698,0.225C224.765,17.454,225.216,17.792,225.688,18.219z"/>
			<path fill="#FFFFFF" d="M251.53,24.297c0.584,0.292,0.832,0.765,0.832,1.215c0,0.652-0.473,1.238-1.215,1.238
				c-0.248,0-0.496-0.045-0.788-0.203c-3.106-1.598-6.37-4.141-8.755-6.91c-2.387,2.814-5.515,5.447-8.732,7.271
				c-0.226,0.135-0.428,0.18-0.631,0.18c-0.652,0-1.17-0.585-1.17-1.192c0-0.383,0.202-0.788,0.697-1.08
				c3.443-2.004,6.572-4.75,8.867-7.855c0.293-0.383,0.698-0.562,1.104-0.562c0.652,0,1.26,0.45,1.26,1.08
				c0,0.113-0.021,0.225-0.066,0.36C245.138,20.402,248.379,22.766,251.53,24.297z M240.952,30.463
				c-0.676,1.351-1.418,2.656-2.229,3.916c2.025-0.157,4.051-0.314,6.055-0.585c-0.316-0.337-0.653-0.652-0.945-0.923
				c-0.271-0.248-0.383-0.518-0.383-0.766c0-0.562,0.539-1.057,1.192-1.057c0.292,0,0.585,0.111,0.878,0.337
				c1.328,1.081,2.812,2.61,3.804,3.894c0.247,0.315,0.36,0.631,0.36,0.9c0,0.652-0.586,1.125-1.216,1.125
				c-0.405,0-0.833-0.18-1.171-0.63c-0.247-0.337-0.539-0.698-0.832-1.035c-3.895,0.63-7.067,0.968-11.254,1.216
				c-0.157,0-0.697,0.045-0.922,0.045c-0.743,0-1.126-0.586-1.126-1.148s0.36-1.103,1.147-1.147l1.553-0.067
				c0.855-1.328,1.689-2.656,2.363-4.074h-4.636c-0.653,0-0.99-0.562-0.99-1.103c0-0.563,0.337-1.103,0.99-1.103h16.272
				c0.676,0,0.99,0.539,0.99,1.103c0,0.54-0.314,1.103-0.99,1.103H240.952z M245.251,24.184c0.674,0,0.99,0.54,0.99,1.104
				c0,0.539-0.316,1.102-0.99,1.102h-7.09c-0.653,0-0.99-0.562-0.99-1.102c0-0.563,0.337-1.104,0.99-1.104H245.251z"/>
			<path fill="#FFFFFF" d="M260.131,36.72c0,0.63-0.585,0.945-1.171,0.945c-0.607,0-1.192-0.315-1.192-0.945v-7.112
				c-0.518,0.428-1.035,0.811-1.553,1.171c-0.247,0.18-0.518,0.247-0.743,0.247c-0.607,0-1.08-0.54-1.08-1.103
				c0-0.36,0.18-0.72,0.586-0.99c2.183-1.396,4.186-3.714,5.108-5.672c0.045-0.112,0.067-0.18,0.067-0.247
				c0-0.158-0.135-0.226-0.405-0.226h-4.006c-0.563,0-0.833-0.54-0.833-1.08c0-0.518,0.27-1.058,0.833-1.058h2.025v-3.106
				c0-0.63,0.585-0.923,1.192-0.923c0.586,0,1.171,0.292,1.171,0.923v3.106h0.653c1.282,0,2.002,0.585,2.002,1.62
				c0,0.36-0.09,0.788-0.292,1.261c-0.495,1.17-1.261,2.363-2.183,3.488c0.945,0.45,1.957,1.058,2.61,1.576
				c0.382,0.292,0.54,0.629,0.54,0.944c0,0.585-0.495,1.081-1.058,1.081c-0.247,0-0.495-0.09-0.743-0.293
				c-0.449-0.36-0.968-0.721-1.53-1.059V36.72z M267.716,26.997h-3.241c-0.653,0-0.99-0.585-0.99-1.147
				c0-0.586,0.337-1.148,0.99-1.148h3.241v-6.594c0-0.743,0.63-1.103,1.26-1.103c0.631,0,1.261,0.36,1.261,1.103v6.594h3.646
				c0.676,0,0.99,0.562,0.99,1.148c0,0.562-0.314,1.147-0.99,1.147h-3.646v7.292h4.344c0.675,0,0.99,0.562,0.99,1.148
				c0,0.562-0.315,1.147-0.99,1.147h-11.501c-0.652,0-0.99-0.585-0.99-1.147c0-0.586,0.338-1.148,0.99-1.148h4.637V26.997z"/>
		</g>
		<g>
			<path fill="#FFFFFF" d="M82.584,4.003c0.483,0.976,0.848,1.488,1.626,2.267c-0.197,0.296-0.354,0.621-0.502,1.084
				c-0.611-0.769-0.887-1.192-1.232-1.961c0.03,0.345,0.04,0.71,0.04,1.626v2.218c0,0.454,0.02,0.769,0.059,1.075h-1.173
				c0.04-0.296,0.059-0.641,0.059-1.065v-2.05c0-0.562,0.03-1.272,0.069-1.646c-0.404,1.124-0.848,1.942-1.479,2.721
				c-0.148-0.414-0.295-0.71-0.572-1.094c0.7-0.68,1.36-1.824,1.824-3.174h-0.769c-0.345,0-0.493,0.01-0.709,0.049V2.978
				c0.207,0.04,0.384,0.049,0.769,0.049h0.867V2.111c0-0.375-0.02-0.621-0.059-0.897h1.173c-0.039,0.276-0.059,0.512-0.059,0.907
				v0.907h0.759c0.354,0,0.532-0.01,0.789-0.049v1.075c-0.247-0.04-0.444-0.049-0.769-0.049H82.584z M85.867,1.263
				c-0.049,0.335-0.069,0.739-0.069,1.114v6.358c0,0.246,0.147,0.295,0.848,0.295c0.384,0,0.621-0.069,0.729-0.197
				c0.158-0.217,0.187-0.542,0.197-2.001c0.454,0.217,0.572,0.266,1.075,0.365c-0.049,1.606-0.148,2.139-0.454,2.503
				c-0.236,0.276-0.72,0.395-1.636,0.395c-0.739,0-1.124-0.04-1.37-0.148c-0.345-0.148-0.503-0.414-0.503-0.857V2.377
				c0-0.375-0.02-0.769-0.069-1.114H85.867z"/>
			<path fill="#FFFFFF" d="M91.586,3.875v3.332c0,0.532,0,0.729,0.029,1.005h-0.917c0.029-0.296,0.049-0.651,0.049-1.064V3.776
				c0-0.453-0.01-0.631-0.04-0.897c0.247,0.03,0.463,0.04,0.808,0.04h0.404V2.071c0-0.463-0.02-0.68-0.059-0.927h1.055
				c-0.04,0.247-0.049,0.434-0.049,0.927v0.848h0.493c0.315,0,0.463-0.01,0.69-0.04c-0.02,0.207-0.02,0.355-0.02,0.838v3.509
				c0,0.65-0.197,0.848-0.838,0.848c-0.02,0-0.079,0-0.128,0c-0.03-0.562-0.059-0.7-0.178-0.986c0.108,0.03,0.138,0.03,0.168,0.03
				c0.108,0,0.167-0.049,0.167-0.138V3.875h-0.355v5.481c0,0.443,0.01,0.69,0.049,0.946h-1.055c0.04-0.256,0.059-0.483,0.059-0.946
				V3.875H91.586z M95.292,4.604c-0.365,0-0.621,0.01-0.887,0.03c0.03-0.315,0.04-0.513,0.04-0.848V2.249
				c0-0.345-0.02-0.562-0.049-0.848c0.276,0.03,0.473,0.04,0.937,0.04h2.928c0.483,0,0.67-0.01,0.926-0.04
				c-0.029,0.296-0.029,0.493-0.029,0.887v1.479c0,0.375,0.01,0.621,0.029,0.868c-0.256-0.02-0.502-0.03-0.867-0.03h-1.025V6.28
				h0.996l-0.7-0.384c0.306-0.375,0.522-0.739,0.769-1.282l0.877,0.434c-0.256,0.512-0.473,0.857-0.759,1.232h0.354
				c0.414,0,0.621-0.01,0.818-0.04v1.035c-0.207-0.03-0.395-0.04-0.749-0.04h-1.005V9.03c0,0.099,0.01,0.128,0.069,0.148
				c0.049,0.03,0.227,0.049,0.365,0.049c0.306,0,0.414-0.059,0.463-0.227c0.029-0.148,0.049-0.503,0.049-1.005
				c0.335,0.187,0.512,0.256,0.897,0.354c-0.049,1.006-0.158,1.439-0.424,1.646c-0.168,0.128-0.542,0.187-1.193,0.187
				c-0.946,0-1.193-0.138-1.193-0.66V7.236h-0.67c-0.079,0.996-0.227,1.439-0.621,1.972c-0.365,0.483-0.75,0.779-1.528,1.163
				c-0.178-0.335-0.345-0.552-0.641-0.838c0.611-0.247,0.966-0.463,1.262-0.789c0.355-0.384,0.503-0.789,0.542-1.508h-0.256
				c-0.375,0-0.621,0.01-0.789,0.04V6.241c0.187,0.03,0.375,0.04,0.779,0.04h0.049c-0.158-0.394-0.345-0.729-0.68-1.232l0.808-0.434
				c0.345,0.513,0.542,0.838,0.749,1.292l-0.7,0.375h1.025V4.604H95.292z M95.45,2.672h2.691V2.239H95.45V2.672z M95.45,3.846h2.691
				V3.422H95.45V3.846z"/>
			<path fill="#FFFFFF" d="M101.602,2.604c0.217,0.01,0.325,0.01,0.375,0.01c0.177,0,0.177,0,1.626-0.099
				c0.552-0.029,2.188-0.118,4.919-0.246c0.808-0.04,0.956-0.049,1.133-0.089l0.069,1.252c-0.108-0.01-0.108-0.01-0.207-0.01
				c-0.591,0-1.321,0.197-1.952,0.532c-1.251,0.65-1.991,1.636-1.991,2.632c0,0.769,0.483,1.36,1.311,1.606
				c0.483,0.148,1.114,0.256,1.469,0.256c0.01,0,0.099,0,0.197-0.01l-0.177,1.341c-0.119-0.03-0.167-0.03-0.335-0.059
				c-1.084-0.138-1.705-0.315-2.307-0.651c-0.907-0.513-1.409-1.351-1.409-2.375c0-0.838,0.335-1.666,0.936-2.316
				c0.375-0.404,0.729-0.67,1.371-0.996c-0.799,0.118-1.183,0.158-3.322,0.315c-0.66,0.049-1.252,0.118-1.636,0.197L101.602,2.604z
				 M108.354,4.053c0.395,0.453,0.572,0.719,0.877,1.331l-0.749,0.394c-0.296-0.582-0.532-0.946-0.877-1.35L108.354,4.053z
				 M109.577,5.226c-0.276-0.542-0.513-0.907-0.848-1.311l0.72-0.355c0.375,0.414,0.591,0.729,0.868,1.271L109.577,5.226z"/>
			<path fill="#FFFFFF" d="M113.925,2.269c-0.434,0-0.709,0.01-1.035,0.039V1.352c0.354,0.04,0.7,0.059,1.114,0.059h5.205
				c0.443,0,0.779-0.02,1.114-0.059v0.956c-0.325-0.029-0.572-0.039-1.015-0.039h-2.257v0.375h2.642c0.661,0,0.937-0.01,1.222-0.04
				c-0.039,0.247-0.039,0.434-0.039,0.809v0.621c0,0.345,0.01,0.513,0.049,0.779h-1.015v-1.39h-2.858v0.976
				c0,0.473,0,0.661,0.04,0.927h-1.134c0.03-0.286,0.049-0.522,0.049-0.927V3.422h-2.711v1.39h-1.025
				c0.04-0.266,0.059-0.443,0.059-0.779V3.412c0-0.355-0.01-0.552-0.04-0.809c0.276,0.03,0.552,0.04,1.212,0.04h2.504V2.269H113.925
				z M120.115,7.996c0.345,0.197,0.641,0.305,1.035,0.394c-0.03,0.857-0.138,1.271-0.395,1.488
				c-0.286,0.247-0.848,0.315-2.533,0.315c-1.932,0-2.218-0.098-2.218-0.759v-0.67h-1.883v0.503h-1.094
				c0.04-0.306,0.059-0.621,0.059-0.976V6.478c0-0.375-0.02-0.651-0.049-0.946c0.267,0.029,0.513,0.04,0.937,0.04h5.205
				c0.444,0,0.71-0.01,0.976-0.04c-0.03,0.266-0.04,0.513-0.04,0.956V7.996z M113.708,3.678c0.158,0.029,0.237,0.029,0.513,0.029
				h0.868c0.217,0,0.375-0.01,0.502-0.029v0.66c-0.158-0.02-0.266-0.029-0.502-0.029h-0.868c-0.237,0-0.355,0.01-0.513,0.029V3.678z
				 M113.708,4.604c0.158,0.03,0.237,0.03,0.513,0.03h0.868c0.227,0,0.375-0.01,0.502-0.03v0.661c-0.138-0.02-0.256-0.03-0.502-0.03
				h-0.868c-0.247,0-0.345,0.01-0.513,0.03V4.604z M114.122,6.33v0.454h1.883V6.33H114.122z M114.122,7.483v0.493h1.883V7.483
				H114.122z M117.03,6.783h2.05V6.33h-2.05V6.783z M117.03,7.976h2.05V7.483h-2.05V7.976z M117.03,9.119
				c0,0.079,0.02,0.128,0.069,0.148c0.128,0.069,0.591,0.108,1.39,0.108c0.72,0,1.242-0.049,1.4-0.128
				c0.118-0.059,0.158-0.147,0.187-0.483h-3.046V9.119z M117.493,3.678c0.148,0.029,0.237,0.029,0.513,0.029h1.005
				c0.227,0,0.365-0.01,0.503-0.029v0.66c-0.168-0.02-0.266-0.029-0.503-0.029h-1.005c-0.237,0-0.365,0.01-0.513,0.029V3.678z
				 M117.493,4.604c0.148,0.03,0.237,0.03,0.513,0.03h1.005c0.227,0,0.375-0.01,0.503-0.03v0.661c-0.148-0.02-0.256-0.03-0.503-0.03
				h-1.005c-0.247,0-0.345,0.01-0.513,0.03V4.604z"/>
			<path fill="#FFFFFF" d="M125.321,2.938c-0.434,0.651-0.867,1.153-1.469,1.715c-0.256-0.325-0.463-0.532-0.769-0.769
				c0.837-0.739,1.38-1.419,1.784-2.228c0.128-0.247,0.188-0.414,0.217-0.621l1.183,0.178c-0.089,0.167-0.089,0.167-0.345,0.69
				h4.544c0.562,0,0.907-0.02,1.232-0.069v1.163c-0.325-0.04-0.709-0.06-1.232-0.06H125.321z M128.624,10.036
				c-0.591-0.572-1.035-0.976-1.715-1.518c-0.759,0.65-1.429,1.074-2.849,1.774c-0.197-0.345-0.345-0.532-0.739-0.926
				c1.341-0.572,2.011-0.937,2.73-1.499c-0.601-0.443-0.937-0.66-1.715-1.124l0.72-0.661c0.72,0.414,1.045,0.621,1.745,1.094
				c0.463-0.493,0.739-0.897,0.858-1.262l1.055,0.503c-0.099,0.108-0.207,0.256-0.424,0.552c-0.237,0.335-0.395,0.542-0.641,0.818
				c0.602,0.473,1.094,0.877,1.715,1.429L128.624,10.036z M124.799,5.807c-0.513,0-0.838,0.02-1.133,0.059V4.831
				c0.227,0.04,0.463,0.049,0.848,0.049h5.007c0.65,0,0.857-0.01,1.153-0.039c-0.04,0.315-0.049,0.572-0.049,0.897
				c0,1.045,0.099,1.902,0.276,2.533c0.119,0.384,0.178,0.513,0.345,0.67c0.138-0.188,0.207-0.651,0.236-1.459
				c0.325,0.306,0.522,0.434,0.848,0.591c-0.158,1.548-0.463,2.179-1.064,2.179c-0.443,0-0.946-0.513-1.222-1.262
				c-0.306-0.809-0.434-1.735-0.454-3.184H124.799z M125.036,3.382c0.128,0.02,0.443,0.04,0.739,0.04h4.13
				c0.493,0,0.828-0.02,1.045-0.049v0.976c-0.295-0.039-0.552-0.049-1.045-0.049h-3.933c-0.404,0-0.67,0.01-0.937,0.04V3.382z"/>
			<path fill="#FFFFFF" d="M136.077,3.126c-0.542,0-0.887,0.02-1.271,0.059V2.022c0.345,0.04,0.68,0.059,1.281,0.059h5.303
				c0.582,0,0.896-0.02,1.271-0.059v1.163c-0.404-0.04-0.729-0.059-1.262-0.059h-2.168v5.273h2.641c0.572,0,0.947-0.02,1.341-0.069
				v1.193c-0.364-0.049-0.808-0.069-1.341-0.069h-6.289c-0.512,0-0.926,0.02-1.34,0.069V8.331c0.404,0.049,0.759,0.069,1.36,0.069
				h2.464V3.126H136.077z"/>
			<path fill="#FFFFFF" d="M149.139,6.152h-2.336c-0.354,0-0.642,0.01-0.907,0.039V5.334c0.236,0.03,0.493,0.04,0.927,0.04h2.316
				V4.999h-2.09c-0.354,0-0.601,0.01-0.827,0.029c0.02-0.207,0.029-0.414,0.029-0.66V3.717c0-0.276-0.01-0.453-0.029-0.69
				c0.256,0.02,0.463,0.03,0.838,0.03h2.079V2.683h-2.7c-0.483,0-0.809,0.02-1.154,0.059V1.766c0.307,0.04,0.641,0.059,1.213,0.059
				h2.642c-0.01-0.345-0.02-0.453-0.06-0.67h1.193c-0.049,0.217-0.059,0.315-0.069,0.67h2.771c0.571,0,0.896-0.02,1.212-0.059v0.976
				c-0.335-0.04-0.681-0.059-1.153-0.059h-2.829v0.375h2.228c0.375,0,0.592-0.01,0.828-0.03c-0.02,0.217-0.029,0.385-0.029,0.69
				v0.651c0,0.295,0.01,0.443,0.029,0.66c-0.217-0.02-0.473-0.029-0.789-0.029h-2.267v0.375h2.208c0.582,0,0.779-0.01,1.055-0.03
				c-0.029,0.247-0.029,0.385-0.029,0.897v0.345c0.424,0,0.66-0.02,0.857-0.049v0.937c-0.236-0.03-0.424-0.049-0.857-0.049v0.572
				c0,0.512,0.01,0.779,0.049,1.064h-1.104V8.676h-2.179v0.552c0,0.887-0.246,1.075-1.448,1.075c-0.237,0-0.631-0.02-0.947-0.04
				c-0.059-0.395-0.117-0.591-0.305-0.976c0.531,0.059,0.896,0.089,1.252,0.089c0.305,0,0.384-0.049,0.384-0.227V8.676h-2.316
				c-0.443,0-0.681,0.01-0.976,0.049V7.808c0.266,0.03,0.434,0.04,0.936,0.04h2.356V7.424h-2.829c-0.562,0-0.828,0.01-1.084,0.049
				V6.537c0.256,0.04,0.502,0.049,1.064,0.049h2.849V6.152z M147.296,3.826V4.23h1.843V3.826H147.296z M150.203,4.23h1.981V3.826
				h-1.981V4.23z M152.382,6.586V6.152h-2.179v0.434H152.382z M150.203,7.848h2.179V7.424h-2.179V7.848z"/>
			<path fill="#FFFFFF" d="M159.499,5.738c0,0.65-0.521,1.173-1.172,1.173c-0.651,0-1.174-0.522-1.174-1.173
				c0-0.651,0.522-1.173,1.174-1.173C158.978,4.565,159.499,5.087,159.499,5.738z"/>
			<path fill="#FFFFFF" d="M169.9,9.809c-0.818-1.005-1.952-2.109-3.026-2.927c-1.113,1.242-2.247,2.109-3.756,2.849
				c-0.275-0.513-0.395-0.67-0.798-1.094c0.759-0.296,1.231-0.562,1.972-1.084c1.488-1.045,2.671-2.474,3.312-4.012l0.108-0.256
				c-0.158,0.01-0.158,0.01-3.263,0.059c-0.474,0.01-0.739,0.03-1.074,0.079l-0.04-1.262c0.276,0.049,0.464,0.059,0.868,0.059
				c0.039,0,0.118,0,0.236,0l3.47-0.049c0.553-0.01,0.631-0.02,0.877-0.108l0.65,0.67c-0.127,0.147-0.207,0.286-0.314,0.532
				c-0.453,1.055-0.938,1.912-1.538,2.72c0.621,0.414,1.153,0.828,1.823,1.43c0.246,0.217,0.246,0.217,1.439,1.37L169.9,9.809z"/>
			<path fill="#FFFFFF" d="M174.831,4.752c0.521,0.434,0.817,0.7,1.222,1.094c0.542,0.552,0.542,0.552,0.611,0.611
				c0.513-0.434,0.927-0.828,1.291-1.242c0.424-0.473,0.966-1.212,1.202-1.607c0.03-0.049,0.03-0.049,0.06-0.088
				c0.01-0.03,0.01-0.03,0.021-0.049c-0.1,0.01-0.247,0.02-0.454,0.02h-3.588c-0.354,0-0.642,0-1.114,0
				c-0.799,0.01-0.896,0.01-1.262,0.049V2.288c0.385,0.059,0.611,0.069,1.281,0.069l5.48-0.01c0.424,0,0.572-0.01,0.818-0.079
				l0.69,0.779c-0.147,0.158-0.207,0.227-0.435,0.582c-0.936,1.508-1.971,2.72-3.184,3.736c0.414,0.473,0.789,0.946,1.302,1.646
				l-1.035,0.828c-0.552-0.887-1.074-1.567-1.902-2.484c-0.759-0.837-1.252-1.321-1.972-1.902L174.831,4.752z"/>
			<path fill="#FFFFFF" d="M183.013,5.019c0.435,0.059,0.621,0.069,1.598,0.069h5.254c0.976,0,1.163-0.01,1.597-0.069v1.37
				c-0.394-0.049-0.503-0.049-1.606-0.049h-5.234c-1.104,0-1.213,0-1.607,0.049V5.019z"/>
			<path fill="#FFFFFF" d="M195.021,9.927c0.05-0.315,0.06-0.582,0.06-1.104V2.505c0-0.483-0.021-0.739-0.06-1.005h1.351
				c-0.039,0.296-0.039,0.424-0.039,1.035v1.833c1.351,0.473,2.897,1.192,4.476,2.08l-0.69,1.163
				c-0.818-0.562-1.843-1.124-3.489-1.882c-0.227-0.108-0.257-0.119-0.336-0.168c0.029,0.276,0.04,0.395,0.04,0.67v2.603
				c0,0.512,0.01,0.769,0.039,1.094H195.021z"/>
			<path fill="#FFFFFF" d="M204.947,2.269c-0.434,0-0.71,0.01-1.034,0.039V1.352c0.354,0.04,0.699,0.059,1.113,0.059h5.205
				c0.443,0,0.778-0.02,1.113-0.059v0.956c-0.325-0.029-0.572-0.039-1.016-0.039h-2.257v0.375h2.642c0.66,0,0.937-0.01,1.223-0.04
				c-0.039,0.247-0.039,0.434-0.039,0.809v0.621c0,0.345,0.01,0.513,0.049,0.779h-1.016v-1.39h-2.858v0.976
				c0,0.473,0,0.661,0.04,0.927h-1.135c0.03-0.286,0.05-0.522,0.05-0.927V3.422h-2.711v1.39h-1.024
				c0.039-0.266,0.059-0.443,0.059-0.779V3.412c0-0.355-0.01-0.552-0.039-0.809c0.275,0.03,0.552,0.04,1.212,0.04h2.504V2.269
				H204.947z M211.138,7.996c0.346,0.197,0.641,0.305,1.035,0.394c-0.029,0.857-0.139,1.271-0.395,1.488
				c-0.285,0.247-0.848,0.315-2.533,0.315c-1.932,0-2.218-0.098-2.218-0.759v-0.67h-1.883v0.503h-1.095
				c0.04-0.306,0.06-0.621,0.06-0.976V6.478c0-0.375-0.02-0.651-0.05-0.946c0.268,0.029,0.514,0.04,0.938,0.04h5.204
				c0.444,0,0.71-0.01,0.976-0.04c-0.029,0.266-0.039,0.513-0.039,0.956V7.996z M204.73,3.678c0.157,0.029,0.237,0.029,0.513,0.029
				h0.867c0.217,0,0.375-0.01,0.503-0.029v0.66c-0.157-0.02-0.267-0.029-0.503-0.029h-0.867c-0.236,0-0.355,0.01-0.513,0.029V3.678z
				 M204.73,4.604c0.157,0.03,0.237,0.03,0.513,0.03h0.867c0.227,0,0.375-0.01,0.503-0.03v0.661c-0.138-0.02-0.257-0.03-0.503-0.03
				h-0.867c-0.246,0-0.346,0.01-0.513,0.03V4.604z M205.145,6.33v0.454h1.883V6.33H205.145z M205.145,7.483v0.493h1.883V7.483
				H205.145z M208.052,6.783h2.051V6.33h-2.051V6.783z M208.052,7.976h2.051V7.483h-2.051V7.976z M208.052,9.119
				c0,0.079,0.021,0.128,0.07,0.148c0.127,0.069,0.591,0.108,1.389,0.108c0.721,0,1.242-0.049,1.4-0.128
				c0.118-0.059,0.158-0.147,0.188-0.483h-3.047V9.119z M208.516,3.678c0.147,0.029,0.237,0.029,0.513,0.029h1.006
				c0.227,0,0.364-0.01,0.502-0.029v0.66c-0.168-0.02-0.266-0.029-0.502-0.029h-1.006c-0.236,0-0.365,0.01-0.513,0.029V3.678z
				 M208.516,4.604c0.147,0.03,0.237,0.03,0.513,0.03h1.006c0.227,0,0.374-0.01,0.502-0.03v0.661c-0.147-0.02-0.256-0.03-0.502-0.03
				h-1.006c-0.246,0-0.346,0.01-0.513,0.03V4.604z"/>
			<path fill="#FFFFFF" d="M215.614,6.32c0-0.345,0-0.444,0.02-1.104c-0.227,0.355-0.631,0.867-1.016,1.281
				c-0.196-0.582-0.227-0.631-0.521-1.163c0.631-0.641,0.956-1.064,1.38-1.754c0.522-0.868,0.888-1.774,0.995-2.445l1.154,0.335
				c-0.09,0.197-0.129,0.305-0.218,0.542c-0.227,0.631-0.267,0.72-0.71,1.715v5.293c0,0.404,0.02,0.848,0.06,1.262h-1.212
				c0.049-0.434,0.068-0.808,0.068-1.281V6.32z M219.519,8.695c0,0.266,0.177,0.325,0.965,0.325c0.888,0,1.242-0.059,1.371-0.217
				c0.167-0.227,0.227-0.611,0.275-1.804c0.385,0.187,0.72,0.306,1.064,0.384c-0.078,1.222-0.217,1.873-0.453,2.168
				c-0.306,0.375-0.848,0.483-2.445,0.483c-1.596,0-1.893-0.168-1.893-1.065V2.476c0-0.493-0.02-0.897-0.059-1.183h1.232
				c-0.039,0.296-0.059,0.67-0.059,1.183v2.198c1.133-0.602,2.148-1.4,2.69-2.12l0.857,0.868c-0.079,0.059-0.118,0.099-0.217,0.177
				c-1.075,0.966-2.001,1.607-3.331,2.307V8.695z"/>
			<path fill="#FFFFFF" d="M229.288,7.187c-0.562,1.272-1.193,1.854-2.002,1.854c-1.123,0-1.932-1.144-1.932-2.73
				c0-1.084,0.385-2.1,1.084-2.869c0.828-0.907,1.992-1.38,3.391-1.38c2.366,0,3.904,1.439,3.904,3.657
				c0,1.706-0.887,3.066-2.396,3.677c-0.474,0.197-0.857,0.296-1.548,0.414c-0.168-0.522-0.285-0.739-0.602-1.153
				c0.907-0.118,1.498-0.276,1.962-0.542c0.858-0.473,1.37-1.41,1.37-2.464c0-0.946-0.424-1.715-1.213-2.188
				c-0.305-0.177-0.561-0.256-0.995-0.295C230.126,4.713,229.78,6.073,229.288,7.187z M227.839,3.658
				c-0.828,0.591-1.341,1.607-1.341,2.662c0,0.808,0.345,1.449,0.778,1.449c0.326,0,0.66-0.414,1.016-1.262
				c0.375-0.887,0.699-2.218,0.818-3.332C228.598,3.234,228.243,3.373,227.839,3.658z"/>
			<path fill="#FFFFFF" d="M238.535,6.103c-0.621,0.512-0.897,0.926-0.897,1.35c0,0.641,0.721,0.917,2.386,0.917
				c1.173,0,2.464-0.178,3.095-0.414l0.109,1.351c-0.168,0.01-0.227,0.01-0.434,0.039c-1.184,0.168-1.814,0.217-2.662,0.217
				c-1.074,0-1.941-0.108-2.464-0.325c-0.849-0.325-1.262-0.877-1.262-1.646c0-0.749,0.384-1.4,1.271-2.139L238.535,6.103z
				 M237.037,2.052c0.759,0.177,1.636,0.246,2.957,0.246c1.252,0,1.952-0.049,2.603-0.187l0.039,1.104
				c-0.592,0.266-1.656,0.926-2.632,1.636l-0.857-0.68c0.513-0.325,0.995-0.621,1.448-0.877c-0.434,0.059-0.857,0.079-1.479,0.079
				c-0.502,0-1.32-0.049-1.803-0.119c-0.197-0.02-0.227-0.029-0.365-0.029L237.037,2.052z"/>
			<path fill="#FFFFFF" d="M248.68,1.381c0.04,0.66,0.335,2.08,0.651,3.085c0.641-0.237,0.641-0.237,2.553-0.868
				c0.178-0.059,0.227-0.079,0.374-0.148l0.424,1.242c-0.857,0.167-2.149,0.542-3.253,0.946c-1.439,0.532-2.158,1.163-2.158,1.873
				c0,0.719,0.67,1.025,2.257,1.025c1.232,0,2.444-0.148,3.185-0.404l0.107,1.351c-0.217,0-0.266,0.01-0.798,0.069
				c-1.064,0.108-1.616,0.148-2.307,0.148c-1.37,0-2.228-0.167-2.858-0.542c-0.543-0.325-0.857-0.937-0.857-1.646
				c0-0.661,0.314-1.292,0.877-1.765c0.385-0.325,0.699-0.522,1.34-0.848c-0.246-0.798-0.413-1.459-0.66-2.671
				c-0.098-0.473-0.107-0.493-0.157-0.641L248.68,1.381z"/>
			<path fill="#FFFFFF" d="M258.991,1.44c-0.059,0.188-0.059,0.188-0.157,0.661c-0.05,0.236-0.099,0.434-0.207,0.867
				c0.681-0.069,1.192-0.158,1.577-0.276l0.029,1.133c-0.107,0.01-0.128,0.01-0.314,0.049c-0.355,0.059-0.957,0.128-1.568,0.178
				c-0.285,0.985-0.641,1.922-1.084,2.858c-0.227,0.483-0.315,0.661-0.689,1.351c-0.129,0.236-0.129,0.236-0.188,0.354l-1.134-0.631
				c0.345-0.453,0.621-0.897,0.956-1.577c0.385-0.788,0.553-1.192,0.927-2.326c-0.444,0.01-0.503,0.01-0.621,0.01
				c-0.128,0-0.187,0-0.394-0.01l-0.523-0.01V2.949c0.355,0.069,0.73,0.088,1.331,0.088c0.118,0,0.286,0,0.503-0.01
				c0.168-0.7,0.275-1.291,0.295-1.715L258.991,1.44z M263.457,9.425c-0.354-0.424-0.927-0.887-1.509-1.222
				c0.011,0.088,0.021,0.158,0.021,0.197c0,0.365-0.167,0.789-0.424,1.045c-0.345,0.355-0.937,0.552-1.636,0.552
				c-1.302,0-2.149-0.651-2.149-1.656c0-0.996,0.877-1.695,2.129-1.695c0.296,0,0.503,0.02,0.917,0.089
				c-0.029-0.454-0.049-0.838-0.049-1.134c0-0.384,0.02-0.67,0.078-0.996l1.144,0.059c-0.099,0.365-0.118,0.592-0.118,0.996
				c0,0.395,0.02,0.789,0.088,1.351c0.711,0.315,0.809,0.365,1.559,0.907c0.147,0.099,0.188,0.138,0.345,0.266
				c0.079,0.079,0.079,0.079,0.147,0.138L263.457,9.425z M259.958,7.621c-0.641,0-1.055,0.266-1.055,0.68
				c0,0.404,0.354,0.641,0.966,0.641c0.671,0,0.995-0.276,0.995-0.828c0-0.099-0.02-0.335-0.02-0.335
				C260.5,7.66,260.263,7.621,259.958,7.621z M263.507,4.891c-0.857-0.572-1.735-0.996-2.84-1.38l0.592-0.956
				c1.163,0.444,1.902,0.789,2.779,1.321L263.507,4.891z"/>
			<path fill="#FFFFFF" d="M268.317,3.373c-0.148,0.542-0.315,1.458-0.443,2.425c-0.02,0.138-0.02,0.138-0.049,0.286l0.02,0.02
				c0.571-0.552,1.793-0.937,2.986-0.937c1.676,0,2.779,0.828,2.779,2.09c0,0.719-0.384,1.449-1.015,1.902
				c-0.642,0.463-1.459,0.67-2.603,0.67c-0.848,0-1.39-0.069-2.514-0.345c-0.01-0.611-0.029-0.808-0.148-1.271
				c0.967,0.335,1.814,0.493,2.652,0.493c1.39,0,2.355-0.582,2.355-1.419c0-0.66-0.621-1.055-1.666-1.055
				c-0.877,0-1.793,0.266-2.454,0.72c-0.177,0.128-0.236,0.187-0.443,0.424l-1.242-0.04c0.03-0.177,0.03-0.217,0.079-0.591
				c0.078-0.611,0.236-1.706,0.414-2.869c0.039-0.236,0.049-0.354,0.059-0.572L268.317,3.373z M268.446,1.44
				c0.68,0.375,2.562,0.937,3.676,1.094l-0.404,1.133c-1.686-0.384-2.721-0.709-3.844-1.232L268.446,1.44z"/>
		</g>
	</g>
	<path fill-rule="evenodd" clip-rule="evenodd" fill="#FFFFFF" d="M28.574,7.342c0,3.334,0,6.679-0.004,10.013
		c-0.004,5.979,0.004,11.957-0.029,17.936c-0.014,2.324-0.912,3.271-2.877,3.199c-1.875-0.07-2.772-1.173-2.772-3.385
		c-0.005-8.457-0.011-16.912-0.024-25.371c-0.004-2.874-0.008-2.883-2.984-2.892C14.419,6.84,8.955,6.768,3.49,6.868
		C0.484,6.924-0.85,3.497,0.568,1.843c0.746-0.876,2.133-1.578,3.281-1.657c3.12-0.219,6.264-0.062,9.4-0.068
		C29.287,0.077,45.32,0.025,61.353,0c3.432-0.007,4.893,1.387,4.428,4.104c-0.359,2.102-1.773,2.739-4.689,2.739
		C50.533,6.832,39.974,6.948,29.416,7.022C29.283,7.022,29.147,7.118,28.574,7.342z M13.273,34.022
		c0.029,2.292,1.471,3.843,3.529,3.872c2.145,0.025,3.809-1.635,3.809-3.848c0.006-7.447,0-14.89-0.019-22.33
		c-0.005-2.392-1.526-3.753-4.055-3.699c-2.474,0.049-3.741,1.345-3.726,3.84c0.008,1.531-0.029,3.067,0.1,4.59
		c0.176,2.034-1.096,1.922-2.494,1.968c-1.475,0.053-2.152-0.369-2.041-1.961c0.111-1.672,0.227-3.394-0.072-5.02
		C8.13,10.457,7.377,9.25,6.533,8.792c-2.937-1.609-5.803,0.165-5.809,3.59c-0.02,7.22,0.096,14.438,0.199,21.657
		c0.035,2.321,1.346,3.645,3.443,3.681c2.162,0.042,3.975-1.739,3.994-3.962c0.021-2.459,0.004-4.908,0.004-7.445
		c1.682,0,3.038,0,4.902,0C13.267,28.95,13.244,31.486,13.273,34.022z M30.527,36.977c0.006,0.436,0.666,1.242,1.02,1.242
		c4.371,0.007,8.747-0.014,13.113-0.227c2.217-0.104,3.357-2.075,3.17-4.896c-0.158-2.402-1.607-4.087-3.609-4.123
		c-1.824-0.039-3.65,0.057-5.469-0.037c-0.959-0.05-2.479,0.566-2.467-1.157c0.004-0.342,1.557-0.892,2.425-0.964
		c1.81-0.148,3.648,0.044,5.462-0.067c1.795-0.104,3.029-1.714,3.121-3.81c0.102-2.301-0.938-4.006-2.869-4.167
		c-2.166-0.183-4.361,0.035-6.535-0.09c-0.617-0.035-1.201-0.651-1.803-1.001c0.629-0.35,1.236-0.962,1.887-1.011
		c2.176-0.159,4.377-0.041,6.559-0.171c2.006-0.12,3.223-1.652,3.301-3.896c0.088-2.593-0.666-4.072-2.541-4.124
		c-4.867-0.137-9.74-0.047-14.805-0.047C30.486,18.177,30.468,27.575,30.527,36.977z M49.086,31.174
		c0.657,4.188,2.444,6.107,6.605,6.623c5.257,0.656,9.396-1.128,9.663-7.468c0.07-1.673,0.127-3.356,0.088-5.03
		c-0.042-1.912-1.438-3.01-3.334-2.742c-2.188,0.312-2.83,1.143-2.958,4.203c-0.069,1.618-0.876,2.142-2.361,2.17
		c-1.46,0.029-1.919-0.702-1.907-2.019c0.025-2.914-0.055-5.832,0.045-8.74c0.059-1.802,1.715-2.774,3.182-1.806
		c0.6,0.402,0.835,1.523,1.002,2.362c0.275,1.359,0.531,2.63,2.273,2.66c1.495,0.023,3.252,0.396,3.874-1.547
		c2.279-7.154-3.18-13.165-10.529-11.848c-3.15,0.567-5.057,2.191-5.613,5.226c-0.518,2.833-0.742,5.722-1.057,8.271
		C48.417,24.975,48.603,28.099,49.086,31.174z"/>
</g>
</svg>
