<?xml version="1.0" encoding="utf-8"?>
<!-- Generator: Adobe Illustrator 16.0.0, SVG Export Plug-In . SVG Version: 6.00 Build 0)  -->
<!DOCTYPE svg PUBLIC "-//W3C//DTD SVG 1.1//EN" "http://www.w3.org/Graphics/SVG/1.1/DTD/svg11.dtd">
<svg version="1.1" id="レイヤー_1" xmlns="http://www.w3.org/2000/svg" xmlns:xlink="http://www.w3.org/1999/xlink" x="0px"
	 y="0px" width="83.645px" height="83.645px" viewBox="0 0 83.645 83.645" enable-background="new 0 0 83.645 83.645"
	 xml:space="preserve">
<g>
	<circle fill="#005ABE" cx="41.823" cy="41.822" r="41.823"/>
	<g enable-background="new    ">
		<path fill="#FFFFFF" d="M21.961,38.577h2.111l3.825,6.72v-6.72h1.876v9.638h-2.013l-3.923-6.838v6.838h-1.876V38.577z"/>
		<path fill="#FFFFFF" d="M39.781,40.284h-5.1v2.046h4.681v1.674h-4.681v2.479h5.335v1.732h-7.303v-9.638h7.068V40.284z"/>
		<path fill="#FFFFFF" d="M43.888,38.577l1.272,5.52l0.277,1.535l0.277-1.504l1.089-5.551h2.125l1.146,5.519l0.293,1.536
			l0.297-1.477l1.285-5.578H54l-2.712,9.638H49.36l-1.163-5.636l-0.34-1.863l-0.341,1.863l-1.163,5.636h-1.87l-2.733-9.638H43.888z"
			/>
		<path fill="#FFFFFF" d="M57.658,45.24c0.062,0.44,0.184,0.77,0.366,0.987c0.334,0.396,0.905,0.595,1.716,0.595
			c0.485,0,0.879-0.053,1.182-0.157c0.574-0.2,0.861-0.573,0.861-1.118c0-0.317-0.141-0.564-0.422-0.738
			c-0.281-0.17-0.728-0.32-1.338-0.451l-1.043-0.229c-1.025-0.227-1.73-0.474-2.114-0.739c-0.649-0.444-0.974-1.14-0.974-2.086
			c0-0.863,0.317-1.58,0.953-2.15c0.635-0.571,1.568-0.857,2.799-0.857c1.028,0,1.905,0.27,2.631,0.808
			c0.727,0.539,1.107,1.32,1.143,2.345h-1.936c-0.035-0.58-0.295-0.992-0.777-1.236c-0.322-0.161-0.722-0.242-1.2-0.242
			c-0.532,0-0.956,0.105-1.273,0.314s-0.476,0.501-0.476,0.876c0,0.345,0.156,0.602,0.469,0.771
			c0.201,0.113,0.628,0.246,1.281,0.398l1.69,0.399c0.741,0.174,1.297,0.407,1.667,0.699c0.574,0.453,0.861,1.109,0.861,1.968
			c0,0.881-0.34,1.612-1.021,2.194c-0.681,0.581-1.643,0.872-2.885,0.872c-1.269,0-2.267-0.286-2.993-0.859
			c-0.728-0.573-1.091-1.361-1.091-2.363H57.658z"/>
	</g>
</g>
</svg>
