<?xml version="1.0" encoding="utf-8"?>
<!-- Generator: Adobe Illustrator 16.0.0, SVG Export Plug-In . SVG Version: 6.00 Build 0)  -->
<!DOCTYPE svg PUBLIC "-//W3C//DTD SVG 1.1//EN" "http://www.w3.org/Graphics/SVG/1.1/DTD/svg11.dtd">
<svg version="1.1" id="レイヤー_1" xmlns="http://www.w3.org/2000/svg" xmlns:xlink="http://www.w3.org/1999/xlink" x="0px"
	 y="0px" width="180px" height="170px" viewBox="0 0 180 170" enable-background="new 0 0 180 170" xml:space="preserve">
<g>
	<g>
		<g>
			<g>
				<path fill="none" stroke="#CDCDCD" stroke-width="3.0769" d="M86.887,92.371c-0.016-17.05-0.053-49.214-0.053-53.109
					c4.951-3.452,32.484-21.766,43.649-28.99c11.125,7.199,38.498,25.403,43.594,28.948c0,3.751,0.055,53.742,0.055,61.872
					c-0.043-0.003-0.055-0.003-0.055-0.003s-43.594,0-87.185,0C86.892,99.281,86.89,96.206,86.887,92.371L86.887,92.371z"/>
				<path fill="none" stroke="#CDCDCD" stroke-width="3.0769" d="M130.159,10.826c2.705,1.745,5.398,3.514,8.092,5.279
					c3.365,2.212,6.725,4.436,10.082,6.658c3.455,2.29,6.91,4.585,10.359,6.88c2.973,1.984,5.945,3.968,8.912,5.959
					c1.916,1.287,3.838,2.574,5.736,3.883c0.139,0.099,0.275,0.189,0.412,0.286c0.285,0.2,0.713,0.05,0.875-0.232
					c0.188-0.318,0.055-0.677-0.229-0.876c-1.736-1.203-3.494-2.38-5.248-3.564c-2.871-1.927-5.744-3.849-8.623-5.766
					c-3.422-2.283-6.848-4.56-10.275-6.83c-3.4-2.256-6.801-4.503-10.207-6.747c-2.795-1.835-5.594-3.674-8.4-5.495
					c-0.277-0.182-0.559-0.361-0.838-0.542C130.114,9.268,129.472,10.373,130.159,10.826L130.159,10.826L130.159,10.826z"/>
				<path fill="none" stroke="#CDCDCD" stroke-width="3.0769" d="M130.159,9.719c-2.701,1.748-5.395,3.513-8.086,5.284
					c-3.365,2.212-6.727,4.433-10.086,6.654c-3.454,2.29-6.907,4.583-10.359,6.881c-2.973,1.98-5.943,3.97-8.912,5.959
					c-1.916,1.285-3.833,2.574-5.736,3.885c-0.137,0.094-0.273,0.187-0.41,0.281c-0.283,0.199-0.414,0.561-0.229,0.876
					c0.163,0.279,0.589,0.433,0.875,0.232c1.737-1.208,3.494-2.383,5.25-3.565c2.866-1.93,5.744-3.852,8.62-5.768
					c3.421-2.281,6.847-4.559,10.276-6.83c3.398-2.255,6.802-4.503,10.208-6.746c2.795-1.839,5.59-3.675,8.396-5.496
					c0.281-0.181,0.561-0.363,0.842-0.54C131.495,10.373,130.856,9.268,130.159,9.719L130.159,9.719L130.159,9.719z"/>
			</g>
			<path fill="none" stroke="#CDCDCD" stroke-width="3.0769" d="M173.438,39.22c0,0.779,0,1.562,0,2.344
				c0.002,1.488,0.002,2.984,0.004,4.475c0.004,2.057,0.004,4.108,0.006,6.162c0,2.443,0.004,4.887,0.008,7.331
				c0.002,2.657,0.006,5.312,0.008,7.976c0.002,2.73,0.006,5.461,0.006,8.189c0.004,2.622,0.008,5.236,0.008,7.855
				c0.004,2.361,0.004,4.726,0.006,7.089c0.002,1.935,0.006,3.867,0.006,5.798c0,1.332,0,2.663,0.002,3.996c0,0.216,0,0.438,0,0.654
				c0,0.825,1.279,0.825,1.279,0c0-1.167,0-2.335,0-3.504c-0.004-1.793-0.004-3.59-0.004-5.384
				c-0.004-2.271-0.006-4.544-0.008-6.816c0-2.581-0.004-5.161-0.006-7.74c-0.002-2.708-0.002-5.416-0.006-8.128
				c-0.004-2.697-0.008-5.398-0.01-8.1c-0.002-2.499-0.004-5.004-0.006-7.506c-0.002-2.165-0.004-4.33-0.008-6.494
				c-0.002-1.651-0.004-3.301-0.004-4.948c0-0.964,0-1.937-0.002-2.899c0-0.119,0-0.231,0-0.35
				C174.718,38.394,173.438,38.394,173.438,39.22L173.438,39.22L173.438,39.22z"/>
			<path fill="none" stroke="#CDCDCD" stroke-width="3.0769" d="M86.196,39.22c0,0.828,0.002,1.661,0.002,2.489
				c0.001,1.495,0.002,2.988,0.003,4.481c0.003,2.02,0.005,4.039,0.007,6.059c0.003,2.377,0.006,4.751,0.008,7.128
				c0.002,2.594,0.005,5.187,0.007,7.784c0.003,2.676,0.005,5.351,0.008,8.024c0.003,2.601,0.005,5.192,0.007,7.788
				c0.004,2.352,0.006,4.706,0.008,7.061c0.002,1.971,0.003,3.949,0.005,5.922c0.003,1.457,0.003,2.907,0.003,4.362
				c0,0.258,0,0.515,0,0.771c0,0.825,1.279,0.825,1.279,0c0-1.299,0-2.6,0-3.901c-0.002-1.859-0.002-3.719-0.008-5.579
				c0-2.287-0.002-4.571-0.004-6.859c-0.003-2.539-0.004-5.078-0.008-7.623c-0.002-2.657-0.005-5.314-0.009-7.969
				c-0.001-2.645-0.003-5.278-0.009-7.919c-0.002-2.45-0.004-4.908-0.007-7.359c-0.001-2.114-0.003-4.223-0.005-6.338
				c0-1.632-0.004-3.268-0.004-4.899c-0.002-1.008-0.002-2.014-0.004-3.026c0-0.13,0-0.265,0-0.396
				C87.475,38.394,86.196,38.394,86.196,39.22L86.196,39.22L86.196,39.22z"/>
			<path fill="none" stroke="#CDCDCD" stroke-width="3.0769" d="M169.45,95.636c0-4.022,0-19.035,0-21.434
				c-3.682,0-9.674,0-12.979,0c0.018,5.295,0,17.372,0,21.434"/>
			<path fill="none" stroke="#CDCDCD" stroke-width="3.0769" d="M174.185,95.663c0,1.539,0,4.047,0,5.426
				c-8.455-0.003-17.088,0-23.576,0c0-1.303,0-4.037,0-5.426C157.036,95.663,170.356,95.663,174.185,95.663L174.185,95.663z"/>
			<path fill="none" stroke="#CDCDCD" stroke-width="3.0769" d="M151.776,100.894c0-1.218,0-2.433,0-3.646c0-2.377,0-4.757,0-7.133
				c0-2.812,0-5.63,0-8.441c0-2.479,0-4.96,0-7.437c0-1.414,0-2.821,0-4.236c0-0.065,0-0.128,0-0.194c0-0.821-1.277-0.821-1.277,0
				c0,1.235,0,2.463,0,3.697c0,2.39,0,4.778,0,7.165c0,2.819,0,5.634,0,8.445c0,2.469,0,4.942,0,7.41c0,1.394,0,2.787,0,4.181
				c0,0.062,0,0.123,0,0.189C150.499,101.712,151.776,101.712,151.776,100.894L151.776,100.894L151.776,100.894z"/>
			<g>
				<path fill="none" stroke="#CDCDCD" stroke-width="3.0769" d="M159.493,84.769c0.014,0.985,0,1.973,0,2.958
					c0,0.335,0.295,0.657,0.641,0.64c0.348-0.015,0.641-0.278,0.641-0.64c0-0.985,0.014-1.973,0-2.958
					c-0.008-0.333-0.291-0.656-0.641-0.639C159.792,84.145,159.485,84.41,159.493,84.769L159.493,84.769L159.493,84.769z"/>
				<path fill="none" stroke="#CDCDCD" stroke-width="3.0769" d="M86.892,101.73c5.556,0,11.11,0,16.663,0c6.842,0,13.688,0,20.53,0
					c6.957,0,13.916,0,20.873,0c5.904,0,11.805,0,17.705,0c3.582,0,7.164,0,10.742,0c0.225,0,0.447,0,0.672,0
					c0.822,0,0.824-1.281,0-1.281c-3.246,0-6.486,0-9.732,0c-5.662,0-11.32,0-16.984,0c-6.889,0-13.779,0-20.668,0
					c-6.955,0-13.912,0-20.868,0c-5.748,0-11.494,0-17.238,0c-0.565,0-1.13,0-1.694,0C86.066,100.449,86.066,101.73,86.892,101.73
					L86.892,101.73L86.892,101.73z"/>
			</g>
			<path fill="none" stroke="#CDCDCD" stroke-width="3.0769" d="M128.817,45.303c-2.41,0-6.338,0-8.504,0
				c0.014,2.863,0,5.786,0,7.981c2.043,0,6.33,0,8.504,0C128.817,51.11,128.817,46.601,128.817,45.303L128.817,45.303z"/>
			<path fill="none" stroke="#CDCDCD" stroke-width="3.0769" d="M140.655,45.303c-2.416,0-6.342,0-8.508,0
				c0.016,2.863,0,5.786,0,7.981c2.043,0,6.33,0,8.508,0C140.655,51.11,140.655,46.601,140.655,45.303L140.655,45.303z"/>
			<path fill="none" stroke="#CDCDCD" stroke-width="3.0769" d="M128.817,34.004c-2.41,0-6.338,0-8.504,0
				c0.014,2.861,0,5.779,0,7.979c2.043,0,6.33,0,8.504,0C128.817,39.81,128.817,35.296,128.817,34.004L128.817,34.004z"/>
			<path fill="none" stroke="#CDCDCD" stroke-width="3.0769" d="M140.655,34.004c-2.416,0-6.342,0-8.508,0
				c0.016,2.861,0,5.779,0,7.979c2.043,0,6.33,0,8.508,0C140.655,39.81,140.655,35.296,140.655,34.004L140.655,34.004z"/>
		</g>
		<g>
			<g>
				<path fill="#FFFFFF" d="M86.887,92.371c-0.016-17.05-0.053-49.214-0.053-53.109c4.951-3.452,32.484-21.766,43.649-28.99
					c11.125,7.199,38.498,25.403,43.594,28.948c0,3.751,0.055,53.742,0.055,61.872c-0.043-0.003-0.055-0.003-0.055-0.003
					s-43.594,0-87.185,0C86.892,99.281,86.89,96.206,86.887,92.371L86.887,92.371z"/>
				<path fill="#CDCDCD" d="M130.159,10.826c2.705,1.745,5.398,3.514,8.092,5.279c3.365,2.212,6.725,4.436,10.082,6.658
					c3.455,2.29,6.91,4.585,10.359,6.88c2.973,1.984,5.945,3.968,8.912,5.959c1.916,1.287,3.838,2.574,5.736,3.883
					c0.139,0.099,0.275,0.189,0.412,0.286c0.285,0.2,0.713,0.05,0.875-0.232c0.188-0.318,0.055-0.677-0.229-0.876
					c-1.736-1.203-3.494-2.38-5.248-3.564c-2.871-1.927-5.744-3.849-8.623-5.766c-3.422-2.283-6.848-4.56-10.275-6.83
					c-3.4-2.256-6.801-4.503-10.207-6.747c-2.795-1.835-5.594-3.674-8.4-5.495c-0.277-0.182-0.559-0.361-0.838-0.542
					C130.114,9.268,129.472,10.373,130.159,10.826L130.159,10.826L130.159,10.826z"/>
				<path fill="#CDCDCD" d="M130.159,9.719c-2.701,1.748-5.395,3.513-8.086,5.284c-3.365,2.212-6.727,4.433-10.086,6.654
					c-3.454,2.29-6.907,4.583-10.359,6.881c-2.973,1.98-5.943,3.97-8.912,5.959c-1.916,1.285-3.833,2.574-5.736,3.885
					c-0.137,0.094-0.273,0.187-0.41,0.281c-0.283,0.199-0.414,0.561-0.229,0.876c0.163,0.279,0.589,0.433,0.875,0.232
					c1.737-1.208,3.494-2.383,5.25-3.565c2.866-1.93,5.744-3.852,8.62-5.768c3.421-2.281,6.847-4.559,10.276-6.83
					c3.398-2.255,6.802-4.503,10.208-6.746c2.795-1.839,5.59-3.675,8.396-5.496c0.281-0.181,0.561-0.363,0.842-0.54
					C131.495,10.373,130.856,9.268,130.159,9.719L130.159,9.719L130.159,9.719z"/>
			</g>
			<path fill="#CDCDCD" d="M173.438,39.22c0,0.779,0,1.562,0,2.344c0.002,1.488,0.002,2.984,0.004,4.475
				c0.004,2.057,0.004,4.108,0.006,6.162c0,2.443,0.004,4.887,0.008,7.331c0.002,2.657,0.006,5.312,0.008,7.976
				c0.002,2.73,0.006,5.461,0.006,8.189c0.004,2.622,0.008,5.236,0.008,7.855c0.004,2.361,0.004,4.726,0.006,7.089
				c0.002,1.935,0.006,3.867,0.006,5.798c0,1.332,0,2.663,0.002,3.996c0,0.216,0,0.438,0,0.654c0,0.825,1.279,0.825,1.279,0
				c0-1.167,0-2.335,0-3.504c-0.004-1.793-0.004-3.59-0.004-5.384c-0.004-2.271-0.006-4.544-0.008-6.816
				c0-2.581-0.004-5.161-0.006-7.74c-0.002-2.708-0.002-5.416-0.006-8.128c-0.004-2.697-0.008-5.398-0.01-8.1
				c-0.002-2.499-0.004-5.004-0.006-7.506c-0.002-2.165-0.004-4.33-0.008-6.494c-0.002-1.651-0.004-3.301-0.004-4.948
				c0-0.964,0-1.937-0.002-2.899c0-0.119,0-0.231,0-0.35C174.718,38.394,173.438,38.394,173.438,39.22L173.438,39.22L173.438,39.22z
				"/>
			<path fill="#CDCDCD" d="M86.196,39.22c0,0.828,0.002,1.661,0.002,2.489c0.001,1.495,0.002,2.988,0.003,4.481
				c0.003,2.02,0.005,4.039,0.007,6.059c0.003,2.377,0.006,4.751,0.008,7.128c0.002,2.594,0.005,5.187,0.007,7.784
				c0.003,2.676,0.005,5.351,0.008,8.024c0.003,2.601,0.005,5.192,0.007,7.788c0.004,2.352,0.006,4.706,0.008,7.061
				c0.002,1.971,0.003,3.949,0.005,5.922c0.003,1.457,0.003,2.907,0.003,4.362c0,0.258,0,0.515,0,0.771c0,0.825,1.279,0.825,1.279,0
				c0-1.299,0-2.6,0-3.901c-0.002-1.859-0.002-3.719-0.008-5.579c0-2.287-0.002-4.571-0.004-6.859
				c-0.003-2.539-0.004-5.078-0.008-7.623c-0.002-2.657-0.005-5.314-0.009-7.969c-0.001-2.645-0.003-5.278-0.009-7.919
				c-0.002-2.45-0.004-4.908-0.007-7.359c-0.001-2.114-0.003-4.223-0.005-6.338c0-1.632-0.004-3.268-0.004-4.899
				c-0.002-1.008-0.002-2.014-0.004-3.026c0-0.13,0-0.265,0-0.396C87.475,38.394,86.196,38.394,86.196,39.22L86.196,39.22
				L86.196,39.22z"/>
			<path fill="#A8998D" d="M169.45,95.636c0-4.022,0-19.035,0-21.434c-3.682,0-9.674,0-12.979,0c0.018,5.295,0,17.372,0,21.434"/>
			<path fill="#CDCDCD" d="M174.185,95.663c0,1.539,0,4.047,0,5.426c-8.455-0.003-17.088,0-23.576,0c0-1.303,0-4.037,0-5.426
				C157.036,95.663,170.356,95.663,174.185,95.663L174.185,95.663z"/>
			<path fill="#CDCDCD" d="M151.776,100.894c0-1.218,0-2.433,0-3.646c0-2.377,0-4.757,0-7.133c0-2.812,0-5.63,0-8.441
				c0-2.479,0-4.96,0-7.437c0-1.414,0-2.821,0-4.236c0-0.065,0-0.128,0-0.194c0-0.821-1.277-0.821-1.277,0c0,1.235,0,2.463,0,3.697
				c0,2.39,0,4.778,0,7.165c0,2.819,0,5.634,0,8.445c0,2.469,0,4.942,0,7.41c0,1.394,0,2.787,0,4.181c0,0.062,0,0.123,0,0.189
				C150.499,101.712,151.776,101.712,151.776,100.894L151.776,100.894L151.776,100.894z"/>
			<g>
				<path fill="#FFFFFF" d="M159.493,84.769c0.014,0.985,0,1.973,0,2.958c0,0.335,0.295,0.657,0.641,0.64
					c0.348-0.015,0.641-0.278,0.641-0.64c0-0.985,0.014-1.973,0-2.958c-0.008-0.333-0.291-0.656-0.641-0.639
					C159.792,84.145,159.485,84.41,159.493,84.769L159.493,84.769L159.493,84.769z"/>
				<path fill="#CDCDCD" d="M86.892,101.73c5.556,0,11.11,0,16.663,0c6.842,0,13.688,0,20.53,0c6.957,0,13.916,0,20.873,0
					c5.904,0,11.805,0,17.705,0c3.582,0,7.164,0,10.742,0c0.225,0,0.447,0,0.672,0c0.822,0,0.824-1.281,0-1.281
					c-3.246,0-6.486,0-9.732,0c-5.662,0-11.32,0-16.984,0c-6.889,0-13.779,0-20.668,0c-6.955,0-13.912,0-20.868,0
					c-5.748,0-11.494,0-17.238,0c-0.565,0-1.13,0-1.694,0C86.066,100.449,86.066,101.73,86.892,101.73L86.892,101.73L86.892,101.73z
					"/>
			</g>
			<path fill="#B4CDF0" d="M128.817,45.303c-2.41,0-6.338,0-8.504,0c0.014,2.863,0,5.786,0,7.981c2.043,0,6.33,0,8.504,0
				C128.817,51.11,128.817,46.601,128.817,45.303L128.817,45.303z"/>
			<path fill="#B4CDF0" d="M140.655,45.303c-2.416,0-6.342,0-8.508,0c0.016,2.863,0,5.786,0,7.981c2.043,0,6.33,0,8.508,0
				C140.655,51.11,140.655,46.601,140.655,45.303L140.655,45.303z"/>
			<path fill="#B4CDF0" d="M128.817,34.004c-2.41,0-6.338,0-8.504,0c0.014,2.861,0,5.779,0,7.979c2.043,0,6.33,0,8.504,0
				C128.817,39.81,128.817,35.296,128.817,34.004L128.817,34.004z"/>
			<path fill="#B4CDF0" d="M140.655,34.004c-2.416,0-6.342,0-8.508,0c0.016,2.861,0,5.779,0,7.979c2.043,0,6.33,0,8.508,0
				C140.655,39.81,140.655,35.296,140.655,34.004L140.655,34.004z"/>
		</g>
	</g>
	<g>
		<defs>
			<rect id="SVGID_1_" x="3.333" y="10" width="173.334" height="160"/>
		</defs>
		<clipPath id="SVGID_2_">
			<use xlink:href="#SVGID_1_"  overflow="visible"/>
		</clipPath>
		<g clip-path="url(#SVGID_2_)">
			<path fill="#FFFFFF" d="M72.449,58.948c0.673-0.608,1.675-0.9,2.606-0.761c0.934,0.141,1.782,0.701,2.21,1.468
				c0.303,0.54,0.4,1.151,0.456,1.751c0.206,2.353-0.26,4.759-1.329,6.908c-0.521,1.044-1.198,2.046-2.14,2.811
				c-0.76,0.601-2.127,0.558-3.078,0.729c-0.186,0.643-0.374,1.177-0.474,1.478c-0.692,1.879-4.356,8.223-9.085,11.185
				c-0.002,1.892-0.114,4.188,0.57,5.883c1.062,2.618,6.782,5.925,7.177,6.094c0,0-3.132,13.561-20.036,13.561
				S32.031,96.032,32.031,96.032c0.395-0.172,5.222-3.015,6.284-5.633c0.752-1.867,0.537-4.469,0.578-6.455
				c-1.555-1.115-3.016-2.505-4.35-4.104c-2.326-2.786-3.594-5.897-4.319-8.592c-0.156,0.041-0.241,0.061-0.241,0.061
				c-1.3,0.326-2.323-0.325-3.047-0.902c-0.944-0.765-1.621-1.768-2.143-2.814c-1.067-2.146-1.533-4.546-1.33-6.904
				c0.058-0.598,0.155-1.214,0.457-1.748c0.427-0.772,1.276-1.335,2.211-1.472c0.936-0.144,1.934,0.153,2.608,0.763
				c0,0,0.269-19.153,21.3-19.153C74.411,39.078,72.449,58.948,72.449,58.948L72.449,58.948z"/>
			<path fill="#7A7473" d="M62.19,41.866c2.48,0.493,3.916,2.354,4.649,5.202c0.772,3.015,3.63,9.198,3.401,11.964
				c0.066-0.004,0.146-0.007,0.146-0.007l2.062-0.1c0.673-0.598,1.675-0.886,2.606-0.751c0.554,0.081,1.077,0.31,1.498,0.64
				c0.921-1.704,1.789-3.309,1.789-3.309c1.041-2.591,2.008-4.188,0.798-6.071c-1.885-3.092-0.771-5.05-1.251-6.981
				c-1.012-4.046-2.145-5.22-3.959-6.877c-1.022-0.933-2.41-3.733-3.662-4.325c-1.25-0.591-3.023-0.211-3.551,1.069l-3.744-3.654
				c-0.404-2.15-4.971-4.847-9.158-6.081c-3.364-0.989-7.119-1.727-10.115,0.102c-2.283,1.392-4.102,3.979-6.775,4.017
				c-0.679,0.007-1.355-0.158-2.031-0.091c-1.592,0.156-2.779,1.546-3.513,2.972c-0.731,1.419-1.216,3.005-2.272,4.208
				c0,0,0.18,0.698,0.404,1.575c-1.852,1.589-3.541,3.37-5.031,5.302c-1.133,1.461-2.202,3.322-1.597,5.07
				c0.278,0.814,0.905,1.521,0.95,2.385c0.047,0.845-0.043,2.468-0.377,3.243c-1.414,3.284,0.637,4.459,1.508,6.521
				c0.35-0.214,0.75-0.361,1.166-0.42c0.936-0.144,1.934,0.148,2.608,0.749l3.686-0.482c-1.251-3.748,6.415-5.828,7.814-9.274
				c1.397-3.444,8.967-5.104,11.879-7.292L62.19,41.866L62.19,41.866z"/>
			<path fill="#201614" d="M60.286,85.108c-0.016,1.986-0.064,4.11,0.753,5.96c0.515,1.163,1.473,2.125,2.419,2.945
				c1.055,0.921,2.199,1.747,3.372,2.509c0.598,0.389,1.21,0.82,1.862,1.117c0.65,0.294,1.43,0.186,1.818-0.479
				c0.33-0.569,0.178-1.516-0.479-1.812c-0.585-0.266-1.132-0.65-1.672-0.994c-0.49-0.312-0.975-0.639-1.447-0.98
				c-0.576-0.407-0.843-0.61-1.369-1.056c-0.476-0.402-0.938-0.827-1.355-1.288c-0.083-0.093-0.164-0.188-0.242-0.282
				c-0.099-0.121-0.105-0.125-0.018-0.012c-0.045-0.062-0.093-0.124-0.137-0.187c-0.141-0.204-0.275-0.413-0.382-0.642
				c-0.124-0.27,0.061,0.271-0.066-0.197c-0.065-0.233-0.14-0.465-0.191-0.701c-0.085-0.385-0.133-0.77-0.161-1.163
				c-0.069-0.914-0.058-1.824-0.053-2.738C62.952,83.4,60.297,83.397,60.286,85.108L60.286,85.108L60.286,85.108z"/>
			<path fill="#201614" d="M37.561,84.895c0.009,1.516,0.094,3.103-0.33,4.578c-0.105,0.368-0.088,0.353-0.258,0.669
				c-0.119,0.219-0.256,0.428-0.4,0.628c-0.094,0.121-0.104,0.139-0.029,0.044c-0.046,0.047-0.086,0.102-0.129,0.152
				c-0.092,0.102-0.18,0.205-0.271,0.305c-0.204,0.223-0.422,0.438-0.643,0.65c-0.867,0.814-1.53,1.311-2.506,1.968
				c-0.52,0.354-1.061,0.737-1.633,1.001c-0.65,0.297-0.811,1.239-0.477,1.813c0.393,0.667,1.16,0.774,1.814,0.476
				c0.646-0.296,1.251-0.732,1.832-1.131c1.072-0.735,2.123-1.538,3.049-2.452c0.968-0.946,1.786-2.026,2.186-3.335
				c0.523-1.719,0.458-3.588,0.447-5.366C40.204,83.188,37.553,83.183,37.561,84.895L37.561,84.895L37.561,84.895z"/>
			<path fill="#201614" d="M51.448,40.021c-1.542,1.137-3.41,1.814-5.151,2.576c-1.935,0.843-3.891,1.719-5.528,3.079
				c-1.329,1.104-1.771,2.719-2.988,3.825c-1.401,1.269-3.067,2.207-4.513,3.424c-1.524,1.291-2.753,3.086-2.12,5.164
				c0.494,1.629,3.057,0.933,2.557-0.705c-0.029-0.095-0.063-0.19-0.078-0.284c0,0.026,0.015,0.159-0.003,0.004
				c-0.007-0.067,0.013-0.462-0.019-0.249c0.057-0.385,0.081-0.397,0.301-0.754c0.299-0.492,0.963-1.084,1.509-1.52
				c1.386-1.108,2.926-2.014,4.242-3.208c0.606-0.548,1.192-1.188,1.574-1.915c0.366-0.689,0.581-1.161,1.153-1.681
				c1.359-1.238,3.203-1.987,4.865-2.725c1.865-0.82,3.885-1.522,5.539-2.74c0.576-0.421,0.865-1.148,0.477-1.814
				C52.93,39.931,52.03,39.596,51.448,40.021L51.448,40.021L51.448,40.021z"/>
			<path fill="#201614" d="M61.836,43.143c3.163,0.692,3.52,3.906,4.428,6.511c0.549,1.574,1.146,3.134,1.669,4.722
				c0.44,1.345,0.935,2.779,0.991,4.186c0.072,1.702,2.729,1.709,2.654,0c-0.149-3.517-1.85-6.919-2.959-10.208
				c-0.547-1.617-0.865-3.333-1.816-4.79c-1.002-1.525-2.467-2.586-4.262-2.978C60.877,40.222,60.167,42.778,61.836,43.143
				L61.836,43.143L61.836,43.143z"/>
			<g>
				<path fill="#201614" d="M67.863,32.989c0.3-0.629,1.039-0.851,1.7-0.597c0.658,0.245,1.148,1.102,1.542,1.657
					c0.548,0.776,1.063,1.615,1.725,2.307c0.517,0.536,1.1,1.011,1.595,1.575c1.143,1.299,1.737,3.051,2.15,4.729
					c0.185,0.772,0.104,1.553,0.089,2.348c-0.019,1.035,0.075,2.089,0.397,3.074c0.231,0.709,0.562,1.375,0.934,2.021
					c0.249,0.437,0.416,0.829,0.374,1.343c-0.1,1.269-0.833,2.547-1.305,3.705c-0.271,0.663,0.294,1.46,0.927,1.635
					c0.758,0.203,1.359-0.263,1.631-0.928c0.519-1.272,1.162-2.537,1.348-3.916c0.197-1.452-0.349-2.479-0.995-3.729
					c-1.073-2.072-0.336-4.359-0.917-6.542c-0.568-2.137-1.408-4.155-2.92-5.798c-0.557-0.606-1.229-1.105-1.74-1.748
					c-0.725-0.916-1.312-1.933-2.067-2.827c-0.852-1.007-1.929-1.634-3.279-1.646c-1.41-0.018-2.856,0.695-3.478,1.994
					C64.84,33.188,67.125,34.532,67.863,32.989L67.863,32.989L67.863,32.989z"/>
				<path fill="#201614" d="M64.252,28.315c-0.547-2.426-3.355-4.052-5.377-5.102c-2.794-1.454-5.893-2.456-9.02-2.847
					c-1.504-0.194-3.05-0.184-4.525,0.206c-1.496,0.389-2.74,1.2-3.932,2.154c-1.017,0.812-1.979,1.779-3.176,2.332
					c-1.339,0.619-2.759,0.002-4.148,0.356c-1.547,0.396-2.74,1.645-3.543,2.966c-0.871,1.436-1.27,3.167-2.361,4.469
					c-1.092,1.299,0.775,3.188,1.877,1.877c0.924-1.099,1.482-2.335,2.072-3.63c0.478-1.044,1.027-2.192,2.021-2.838
					c1.098-0.709,2.586-0.105,3.824-0.346c1.174-0.228,2.224-0.854,3.164-1.569c0.994-0.754,1.898-1.633,2.942-2.326
					c1.126-0.74,2.384-1.089,3.731-1.121c2.701-0.062,5.55,0.773,8.024,1.807c1.409,0.585,2.797,1.314,4.034,2.212
					c0.74,0.534,1.654,1.311,1.831,2.101C62.07,30.685,64.628,29.982,64.252,28.315L64.252,28.315L64.252,28.315z"/>
			</g>
			<path fill="#201614" d="M35.062,29.89c-4.116,2.289-7.834,5.335-10.831,8.975c-1.504,1.826-3.163,4.012-2.783,6.525
				c0.158,1.043,0.98,1.898,1.066,2.912c0.076,0.886-0.032,1.881-0.336,2.715c-0.43,1.175-0.671,2.319-0.397,3.564
				c0.22,0.992,0.794,1.86,1.337,2.703c0.926,1.431,3.222,0.103,2.292-1.34c-0.46-0.711-1.03-1.448-1.105-2.323
				c-0.056-0.672,0.209-1.281,0.434-1.9c0.183-0.519,0.27-1.044,0.336-1.584c0.156-1.259,0.181-2.488-0.368-3.658
				c-0.231-0.496-0.584-0.977-0.66-1.531c-0.086-0.622,0.145-1.278,0.42-1.822c1.189-2.361,3.322-4.423,5.258-6.179
				c2.032-1.854,4.277-3.432,6.68-4.765C37.897,31.349,36.56,29.059,35.062,29.89L35.062,29.89L35.062,29.89z"/>
			<path fill="#201614" d="M45.153,34.296c0.499,0.01,0.996,0.036,1.49,0.088c0.115,0.008,0.229,0.021,0.345,0.036
				c0.249,0.032-0.31-0.054,0.128,0.019c0.229,0.04,0.455,0.076,0.687,0.122c0.499,0.103,0.995,0.224,1.484,0.38
				c0.22,0.066,0.438,0.143,0.655,0.222c0.129,0.049,0.26,0.095,0.385,0.149c-0.16-0.064,0.071,0.034,0.124,0.062
				c0.432,0.197,0.851,0.42,1.249,0.679c0.188,0.12,0.373,0.244,0.551,0.379c-0.17-0.129,0.148,0.129,0.145,0.129
				c0.085,0.072,0.167,0.146,0.246,0.223c0.18,0.163,0.348,0.339,0.51,0.522c0.059,0.064,0.116,0.133,0.174,0.199
				c0.254,0.305-0.105-0.183,0.113,0.155c0.123,0.186,0.247,0.373,0.357,0.564c0.067,0.119,0.129,0.241,0.189,0.364
				c0.016,0.031,0.164,0.376,0.088,0.188c0.267,0.662,0.884,1.13,1.631,0.924c0.631-0.169,1.196-0.961,0.928-1.631
				c-1.848-4.575-6.865-6.353-11.479-6.426C43.444,31.614,43.442,34.269,45.153,34.296L45.153,34.296L45.153,34.296z"/>
			<path fill="#201614" d="M56.915,33.317c0.119,0.07,0.237,0.15,0.352,0.229c0.146,0.103-0.03-0.011-0.068-0.053
				c0.039,0.048,0.11,0.091,0.16,0.135c0.194,0.174,0.35,0.382,0.537,0.563c-0.222-0.207-0.095-0.124-0.032-0.039
				c0.038,0.053,0.079,0.113,0.114,0.17c0.074,0.112,0.145,0.233,0.208,0.352c0.06,0.105,0.108,0.218,0.162,0.332
				c0.073,0.149-0.1-0.279-0.022-0.054c0.022,0.064,0.049,0.13,0.07,0.193c0.083,0.249,0.147,0.496,0.195,0.755
				c0.01,0.056,0.014,0.115,0.026,0.169c-0.082-0.344-0.021-0.169-0.012-0.066c0.013,0.138,0.021,0.278,0.026,0.418
				c0.002,0.125,0.001,0.252-0.007,0.375c-0.007,0.124-0.054,0.295-0.036,0.416c-0.016-0.103,0.044-0.28,0.002-0.06
				c-0.012,0.073-0.025,0.135-0.041,0.208c-0.029,0.139-0.066,0.273-0.107,0.41c-0.197,0.666,0.237,1.475,0.927,1.631
				c0.712,0.163,1.42-0.217,1.631-0.925c0.826-2.78-0.229-5.935-2.747-7.453c-0.595-0.359-1.484-0.148-1.814,0.477
				C56.098,32.144,56.28,32.934,56.915,33.317L56.915,33.317L56.915,33.317z"/>
			<path fill="#201614" d="M39.094,37.229c-1.523,0.113-3.128,0.388-4.424,1.255c-1.197,0.806-2.191,1.944-3.227,2.936
				c-0.895,0.857-0.141,2.159,0.938,2.264c-0.207-0.021-0.2-0.071-0.286-0.184c-0.031-0.043,0.055-0.19,0.034-0.207
				c0.011,0.004-0.186,0.316-0.204,0.34c-0.107,0.184-0.211,0.363-0.309,0.548c-0.307,0.586-0.591,1.185-0.883,1.776
				c-0.316,0.646-0.634,1.294-0.973,1.925c-0.15,0.278-0.303,0.56-0.469,0.826c-0.057,0.093-0.156,0.194-0.196,0.298
				c0.008-0.018,0.171-0.185-0.021,0.017c-1.188,1.224,0.686,3.104,1.876,1.872c0.521-0.537,0.876-1.244,1.218-1.898
				c0.44-0.836,0.848-1.685,1.262-2.529c0.322-0.652,0.717-1.271,1.027-1.927c0.79-1.652-0.321-3.342-2.077-3.509
				c0.314,0.757,0.626,1.508,0.938,2.266c0.691-0.662,1.381-1.324,2.071-1.986c0.11-0.107,0.219-0.211,0.332-0.314
				c0.058-0.045,0.12-0.096,0.177-0.147c0.172-0.162-0.249,0.157,0.033-0.02c0.951-0.606,1.851-0.851,3.16-0.944
				c0.715-0.055,1.328-0.572,1.328-1.327C40.422,37.88,39.813,37.177,39.094,37.229L39.094,37.229L39.094,37.229z"/>
			<path fill="#201614" d="M73.387,59.887c0.812-0.676,2.275-0.505,2.764,0.49c0.308,0.633,0.291,1.439,0.291,2.128
				c-0.002,0.826-0.084,1.636-0.26,2.438c-0.328,1.482-0.906,3.005-1.847,4.21c-0.355,0.457-0.771,0.954-1.347,1.108
				c-0.662,0.172-1.361,0.192-2.038,0.292c-0.712,0.099-1.1,1.004-0.927,1.631c0.209,0.766,0.917,1.027,1.631,0.927
				c0.955-0.138,1.916-0.158,2.807-0.576c0.956-0.45,1.7-1.373,2.294-2.221c1.275-1.814,1.973-4.038,2.242-6.224
				c0.248-2.024,0.251-4.637-1.397-6.107c-1.764-1.575-4.322-1.45-6.09,0.027c-0.549,0.458-0.473,1.401,0,1.876
				C72.056,60.431,72.837,60.349,73.387,59.887L73.387,59.887L73.387,59.887z"/>
			<path fill="#201614" d="M70.337,69.043c-0.046,1.15-0.361,2.261-0.72,3.352c-0.09,0.271-0.18,0.544-0.285,0.815
				c0.142-0.363-0.036,0.07-0.068,0.136c-0.054,0.106-0.102,0.213-0.154,0.318c-0.688,1.39-1.527,2.713-2.43,3.971
				c-2.1,2.937-4.956,6.107-8.607,6.964c-1.66,0.394-0.955,2.951,0.705,2.56c4.289-1.007,7.59-4.589,10.076-8.019
				c2.154-2.97,3.983-6.342,4.138-10.097C73.06,67.339,70.407,67.343,70.337,69.043L70.337,69.043L70.337,69.043z"/>
			<path fill="#201614" d="M29.676,57.292c-1.764-1.478-4.328-1.604-6.088-0.027c-1.744,1.557-1.644,4.337-1.35,6.459
				c0.529,3.838,3.277,9.864,8.095,8.867c1.672-0.343,0.964-2.9-0.704-2.559c-1.174,0.243-2.293-0.912-2.908-1.776
				c-0.896-1.265-1.459-2.758-1.766-4.271c-0.155-0.764-0.216-1.539-0.211-2.32c0.005-0.651,0-1.408,0.295-2.01
				c0.483-0.99,1.949-1.163,2.761-0.486c0.548,0.46,1.337,0.536,1.876,0C30.147,58.694,30.227,57.757,29.676,57.292L29.676,57.292
				L29.676,57.292z"/>
			<path fill="#201614" d="M27.994,66.391c0.548,4.464,1.706,8.881,4.283,12.636c2.955,4.308,7.523,8.159,12.823,8.964
				c0.705,0.106,1.426-0.177,1.631-0.926c0.173-0.627-0.214-1.523-0.927-1.635c-4.719-0.716-8.801-4.083-11.393-7.973
				c-2.196-3.297-3.302-7.3-3.765-11.066c-0.088-0.713-0.549-1.325-1.326-1.325C28.67,65.065,27.906,65.673,27.994,66.391
				L27.994,66.391L27.994,66.391z"/>
			<path fill="#FFFFFF" d="M20.143,179.281c-0.084-0.146-0.166-0.298-0.256-0.444c-0.471-0.8-0.948-1.615-1.426-2.434
				c-0.244-0.416-0.482-0.832-0.722-1.246c-0.006-0.006-0.013-0.018-0.018-0.027c-0.232-0.41-0.471-0.816-0.708-1.231
				c-0.736-1.275-1.471-2.55-2.186-3.806c-0.187-0.316-0.359-0.631-0.537-0.939c-0.203-0.354-0.397-0.702-0.597-1.053
				c-0.323-0.573-0.64-1.139-0.954-1.693c-0.941-1.67-1.818-3.248-2.592-4.677c-0.102-0.181-0.197-0.362-0.288-0.534
				c-0.187-0.357-0.373-0.687-0.548-1.021c-0.271-0.497-0.516-0.964-0.741-1.4c-0.083-0.153-0.155-0.29-0.226-0.427
				c-0.188-0.355-0.354-0.692-0.509-1.003c-0.232-0.46-0.433-0.866-0.593-1.216c-0.67-1.455-1.876-7.92-1.844-13.059
				c0-9.867,1.09-27.871,2.088-30.147c2.912-6.672,8.643-9.337,12.979-12.09c3.986-2.525,10.349-5.25,14.252-6.839
				c0,0,0.303-0.119,0.605-0.242c0-0.021,0.013-0.076,0.043-0.161c0.258-0.676,1.521-3.234,2.166-4.155
				c0.02-0.035,0.045-0.066,0.066-0.091c0.07-0.102,0.096-0.259,0.219-0.288c0.129-0.039,0.262,0.064,0.367,0.159
				c0.095,0.089,0.231,0.199,0.391,0.33c0.304,0.242,0.711,0.551,1.18,0.906c0.166,0.122,0.335,0.253,0.518,0.387
				c0.334,0.245,0.688,0.514,1.061,0.789c0.124,0.09,0.244,0.179,0.368,0.268c0.496,0.368,1.013,0.748,1.515,1.121
				c0.161,0.126,0.322,0.245,0.482,0.36c0.84,0.626,1.617,1.214,2.203,1.682c0.104,0.086,0.207,0.168,0.297,0.245
				c0.284,0.234,0.503,0.427,0.638,0.569c0.015,0.006,0.026,0.018,0.034,0.028c0.032,0.036,0.05,0.056,0.07,0.082
				c0.477,1.114,1.114,2.493,1.287,3.059c0.013,0.047,0.04,0.117,0.078,0.202c0.02,0.05,0.052,0.11,0.078,0.186
				c0.02,0.035,0.033,0.069,0.051,0.106c0.039,0.081,0.078,0.159,0.115,0.245c0.033,0.091,0.078,0.182,0.132,0.285
				c0.05,0.108,0.108,0.22,0.157,0.342c0.033,0.056,0.066,0.115,0.093,0.18c0.323,0.658,0.708,1.439,1.062,2.168
				c0.085,0.157,0.164,0.323,0.238,0.485c0.078,0.163,0.156,0.317,0.227,0.465c0.059-0.127,0.124-0.263,0.193-0.398
				c0.115-0.234,0.231-0.472,0.355-0.714c0.16-0.326,0.32-0.664,0.488-0.993c0.053-0.108,0.104-0.222,0.162-0.328
				c0.205-0.432,0.399-0.83,0.566-1.172c0.045-0.103,0.09-0.195,0.129-0.286c0.09-0.188,0.162-0.348,0.213-0.475
				c0.024-0.059,0.046-0.11,0.062-0.155c0.02-0.046,0.033-0.085,0.039-0.112c0.162-0.564,0.787-1.937,1.265-3.045
				c0.068-0.081,0.193-0.201,0.368-0.342c0.107-0.099,0.242-0.206,0.396-0.314c0.08-0.067,0.162-0.123,0.254-0.195
				c0.076-0.058,0.166-0.125,0.256-0.186c0.092-0.072,0.187-0.138,0.285-0.207c0.198-0.15,0.412-0.296,0.631-0.45
				c0.862-0.606,1.881-1.299,2.866-1.973c0.104-0.072,0.214-0.142,0.323-0.219c0.533-0.362,1.057-0.717,1.532-1.046
				c0.116-0.076,0.24-0.159,0.349-0.238c0.343-0.231,0.652-0.449,0.928-0.647c0.109-0.077,0.214-0.15,0.305-0.212
				c0.088-0.064,0.18-0.13,0.256-0.19c0.154-0.121,0.281-0.225,0.381-0.303c0.117-0.096,0.252-0.194,0.394-0.155
				c0.128,0.043,0.16,0.203,0.244,0.305c0.071,0.09,0.155,0.192,0.247,0.308c0.391,0.522,0.936,1.286,1.408,2.009
				c0.104,0.156,0.207,0.312,0.297,0.461c0.077,0.131,0.155,0.251,0.22,0.366c0.058,0.101,0.108,0.188,0.153,0.272
				c0.064,0.108,0.117,0.212,0.161,0.307c0.033,0.061,0.06,0.124,0.077,0.177c0.619,0.25,1.102,0.44,1.102,0.44
				c0.768,0.312,1.63,0.673,2.552,1.057c0.175,0.075,0.355,0.15,0.535,0.229c1.721,0.741,3.614,1.576,5.452,2.47
				c0.23,0.106,0.457,0.216,0.684,0.334c0.34,0.157,0.675,0.326,1.011,0.501c0.218,0.108,0.438,0.226,0.657,0.33
				c0.154,0.09,0.303,0.167,0.451,0.244c0.302,0.161,0.592,0.321,0.883,0.479c0.721,0.403,1.396,0.804,2.022,1.194
				c1.288,0.817,2.583,1.509,3.848,2.216c0.179,0.098,0.36,0.2,0.54,0.303c0.361,0.207,0.715,0.413,1.071,0.626
				c0.174,0.106,0.352,0.222,0.528,0.327c0.218,0.136,0.437,0.278,0.65,0.428c0.16,0.111,0.321,0.218,0.482,0.334
				c0.129,0.091,0.25,0.182,0.379,0.273c0.587,0.439,1.16,0.918,1.722,1.461c0.084,0.073,0.167,0.16,0.244,0.243
				c0.135,0.133,0.263,0.265,0.393,0.403c0.176,0.191,0.347,0.38,0.517,0.584c0.135,0.156,0.264,0.317,0.393,0.476
				c0.193,0.237,0.372,0.483,0.555,0.748c0.115,0.159,0.232,0.33,0.348,0.503c0.115,0.172,0.231,0.348,0.34,0.528
				c0.266,0.425,0.535,1.052,0.807,1.842l0.115,0.347c0.111,0.317,0.213,0.659,0.317,1.029c0.083,0.289,0.167,0.584,0.251,0.9
				c0.037,0.139,0.076,0.279,0.111,0.425c0.069,0.271,0.141,0.552,0.209,0.84c0.188,0.769,0.374,1.599,0.563,2.469
				c0.077,0.382,0.16,0.775,0.235,1.181c0.099,0.451,0.188,0.912,0.272,1.387c0.071,0.367,0.142,0.745,0.212,1.125
				c0.252,1.401,0.496,2.854,0.734,4.331c0.053,0.323,0.098,0.647,0.147,0.973c0.042,0.259,0.081,0.517,0.116,0.772
				c0.073,0.459,0.138,0.921,0.199,1.388c0.033,0.231,0.068,0.465,0.1,0.697c0.096,0.687,0.186,1.384,0.277,2.062
				c0,0.01,0.006,0.016,0,0.026c0.062,0.446,0.121,0.899,0.172,1.342c0.008,0.042,0.008,0.081,0.014,0.119
				c0.033,0.219,0.058,0.431,0.079,0.643c0.108,0.869,0.204,1.726,0.289,2.557c0.056,0.484,0.103,0.959,0.146,1.425
				c0.033,0.37,0.072,0.728,0.098,1.075c0.04,0.408,0.078,0.809,0.104,1.188c0.063,0.714,0.108,1.4,0.148,2.037
				c0.008,0.121,0.013,0.243,0.02,0.357c0.09,1.475,0.123,2.74,0.098,3.724c-0.073,1.176-0.176,2.457-0.305,3.81
				c-0.053,0.485-0.096,0.973-0.156,1.471c-0.114,1.12-0.256,2.291-0.404,3.466c-0.031,0.244-0.062,0.496-0.096,0.748
				c-0.129,0.986-0.264,1.976-0.405,2.974c-0.052,0.376-0.104,0.745-0.161,1.115c-0.098,0.646-0.187,1.284-0.285,1.917
				c-0.096,0.636-0.193,1.27-0.295,1.893c-0.033,0.208-0.066,0.406-0.098,0.607c-0.053,0.334-0.109,0.675-0.168,1.003
				c-0.026,0.18-0.059,0.359-0.091,0.543c0,0.02,0,0.036-0.005,0.052c-0.058,0.353-0.117,0.7-0.175,1.047
				c-0.058,0.345-0.116,0.688-0.175,1.021c-0.023,0.121-0.043,0.249-0.062,0.374c-0.037,0.199-0.071,0.399-0.104,0.593
				c-0.006,0.006-0.006,0.014-0.006,0.025c-0.052,0.303-0.11,0.607-0.16,0.902c-0.17,0.916-0.33,1.777-0.485,2.585
				c-0.026,0.16-0.058,0.316-0.091,0.47c-0.083,0.45-0.174,0.89-0.258,1.295c-0.039,0.2-0.076,0.4-0.119,0.593
				c-0.043,0.198-0.079,0.383-0.119,0.565c-0.018,0.102-0.045,0.205-0.062,0.302c-0.064,0.304-0.121,0.585-0.183,0.84
				c-0.044,0.174-0.076,0.336-0.115,0.485l-3.853,7.599c-3.376,0-65.013,0.586-66.006,0.586L20.143,179.281L20.143,179.281z"/>
			<path fill="#201614" d="M34.364,92.721c-4.759,1.934-9.579,3.943-13.981,6.607c-3.761,2.278-7.765,4.479-10.72,7.805
				c-1.445,1.622-2.871,3.597-3.545,5.689c-0.349,1.082-0.445,2.282-0.586,3.401c-0.497,3.971-0.744,7.972-0.972,11.966
				c-0.278,4.952-0.479,9.92-0.483,14.882c0,1.707,2.652,1.709,2.654,0c0.004-8.34,0.391-16.747,1.25-25.049
				c0.145-1.407,0.23-2.319,0.492-3.654c0.295-1.486,1.102-2.767,1.998-4.031c2.51-3.535,6.306-5.671,9.92-7.893
				c4.656-2.863,9.621-5.105,14.678-7.169c0.662-0.268,1.133-0.878,0.928-1.628C35.824,93.018,35.032,92.448,34.364,92.721
				L34.364,92.721L34.364,92.721z"/>
			<path fill="#201614" d="M51.745,114.919c-0.007-3.683-0.016-7.367-0.016-11.05c0-1.71-2.652-1.712-2.652,0
				c0,3.683,0.006,7.367,0.016,11.05C49.096,116.63,51.75,116.632,51.745,114.919L51.745,114.919L51.745,114.919z"/>
			<path fill="#201614" d="M51.735,103.302c-0.455-0.941-0.922-1.882-1.381-2.819c-0.195-0.394-0.389-0.789-0.576-1.189
				c-0.073-0.153-0.143-0.308-0.212-0.46c-0.149-0.311,0.022,0.108-0.05-0.114c-0.35-1.051-0.84-2.055-1.283-3.062
				c-0.236-0.545-0.586-0.868-1.025-1.229c-1.199-1.001-2.469-1.924-3.723-2.854c-0.699-0.513-1.397-1.028-2.098-1.548
				c-0.293-0.219-0.588-0.437-0.879-0.655c-0.132-0.099-0.263-0.2-0.396-0.298c-0.068-0.05-0.413-0.317-0.231-0.175
				c-0.529-0.413-1.047-0.987-1.713-1.124c-1.229-0.249-1.828,1.021-2.396,1.885c-0.477,0.725-0.947,1.455-1.332,2.232
				c-0.299,0.6-0.605,1.249-0.402,1.929c0.397,1.338,1.373,2.639,2.086,3.812c1.045,1.717,2.131,3.424,3.352,5.023
				c0.885,1.156,2.34,1.213,3.145-0.058c0.371-0.585,0.79-1.137,1.207-1.687c1.098-1.444,2.415-2.922,3.042-4.648
				c0.583-1.611-1.979-2.305-2.56-0.71c-0.072,0.196,0.104-0.158-0.062,0.135c-0.066,0.113-0.127,0.234-0.192,0.346
				c-0.171,0.297-0.358,0.58-0.549,0.863c-0.422,0.62-0.873,1.225-1.326,1.825c-0.687,0.907-1.343,1.826-1.985,2.762
				c0.16-0.159,0.318-0.312,0.479-0.474c0.018-0.012,0.035-0.023,0.055-0.033c0.234,0,0.47,0,0.705,0
				c0.286,0.303,0.361,0.369,0.225,0.197c-0.055-0.07-0.11-0.146-0.164-0.216c-0.114-0.157-0.227-0.312-0.338-0.467
				c-0.215-0.299-0.427-0.605-0.636-0.912c-0.438-0.646-0.863-1.297-1.279-1.957c-0.75-1.186-1.479-2.387-2.157-3.617
				c-0.194-0.345-0.369-0.702-0.553-1.054c-0.109-0.209,0.08,0.281,0.053,0.125c-0.039-0.246,0.126,0.632,0.012,0.487
				c-0.017-0.018,0.118-0.331,0.061-0.188c-0.061,0.146,0.094-0.181,0.109-0.21c0.307-0.583,0.646-1.148,0.999-1.705
				c0.291-0.462,0.595-1.086,0.99-1.465c-0.429,0.11-0.86,0.225-1.289,0.34c-0.209-0.035-0.21-0.168-0.001,0.005
				c0.092,0.077,0.189,0.152,0.285,0.232c0.302,0.242,0.61,0.472,0.918,0.709c0.659,0.505,1.328,0.996,1.991,1.486
				c1.341,0.992,2.87,2.103,4.059,3.036c0.374,0.296,0.903,0.61,1.183,1.003c0.122,0.168,0.343,0.868,0.508,1.237
				c0.191,0.451,0.369,0.898,0.542,1.352c0.685,1.803,1.66,3.511,2.492,5.247C50.181,106.181,52.467,104.839,51.735,103.302
				L51.735,103.302L51.735,103.302z"/>
			<path fill="#201614" d="M51.473,104.652c0.844-1.765,1.858-3.5,2.513-5.347c0.177-0.494,0.382-0.975,0.591-1.456
				c0.095-0.214,0.244-0.474,0.307-0.7c0.102-0.378-0.025-0.145,0.095-0.306c0.373-0.491,0.585-0.489,1.126-0.875
				c2.536-1.828,5.387-3.771,7.813-5.447c-0.221,0.062-0.446,0.123-0.668,0.185c0.069-0.011,0.138-0.017,0.207-0.024
				c-0.313-0.132-0.626-0.263-0.938-0.39c0.783,0.713,1.584,2.115,2.199,3.163c0.116,0.192,0.203,0.469,0.347,0.64
				c-0.054-0.131-0.066-0.16-0.042-0.081c0.062,0.221,0.072,0.049,0.029-0.512c-0.023,0.157-0.026-0.052,0.02-0.033
				c-0.018-0.007,0.08-0.157-0.016,0.03c-0.048,0.087-0.086,0.176-0.131,0.258c-0.105,0.207-0.217,0.408-0.331,0.614
				c-0.675,1.208-1.403,2.391-2.153,3.555c-0.441,0.687-0.895,1.367-1.361,2.034c-0.377,0.542-0.748,1.195-1.248,1.631
				c0.196-0.108,0.391-0.223,0.587-0.336c0.144,0.027,0.288,0.061,0.429,0.098c0.161,0.156,0.318,0.316,0.479,0.477
				c-0.703-0.948-1.292-2.028-1.938-3.021c-0.435-0.661-0.867-1.331-1.28-2.009c-0.173-0.283-0.343-0.568-0.505-0.861
				c-0.07-0.128-0.141-0.255-0.207-0.385c-0.025-0.051-0.24-0.534-0.108-0.209c-0.27-0.663-0.882-1.133-1.632-0.926
				c-0.628,0.173-1.199,0.965-0.928,1.631c0.633,1.548,1.611,2.949,2.524,4.34c0.435,0.661,0.878,1.315,1.301,1.989
				c0.409,0.65,0.728,1.32,1.559,1.508c1.282,0.29,1.987-0.84,2.642-1.727c0.627-0.848,1.219-1.728,1.797-2.613
				c0.949-1.459,1.902-2.942,2.689-4.499c0.283-0.555,0.52-1.057,0.355-1.692c-0.192-0.757-0.715-1.476-1.133-2.115
				c-0.523-0.799-1.105-1.54-1.659-2.314c-0.754-1.049-1.742-1.083-2.781-0.271c-0.144,0.113,0.214-0.155-0.04,0.027
				c-0.102,0.077-0.203,0.148-0.305,0.223c-0.27,0.194-0.541,0.385-0.817,0.574c-0.665,0.462-1.335,0.92-2.005,1.377
				c-1.391,0.94-2.785,1.879-4.147,2.862c-0.526,0.378-1.089,0.754-1.556,1.212c-0.739,0.713-1.082,2.055-1.465,2.995
				c-0.092,0.225-0.182,0.448-0.258,0.67c-0.03,0.093-0.139,0.399-0.032,0.139c-0.179,0.437-0.403,0.868-0.611,1.299
				c-0.533,1.092-1.079,2.18-1.604,3.279C48.448,104.849,50.735,106.193,51.473,104.652L51.473,104.652L51.473,104.652z"/>
			<path fill="#201614" d="M21.417,117.996c0.254,7.121,0.453,14.253,0.59,21.38c0.031,1.555,0.062,3.112,0.062,4.666
				c0.001,1.71,2.655,1.714,2.653,0c-0.003-7.054-0.274-14.107-0.49-21.155c-0.051-1.629-0.104-3.261-0.161-4.891
				C24.009,116.292,21.356,116.286,21.417,117.996L21.417,117.996L21.417,117.996z"/>
			<g>
				<path fill="#201614" d="M22.068,144.042c0.04,2.347,0.937,4.67,1.823,6.814c0.945,2.27,2.076,4.457,3.227,6.635
					c2.635,4.988,5.475,9.865,8.285,14.76c1.277,2.222,2.557,4.444,3.764,6.704c0.807,1.506,3.098,0.17,2.292-1.339
					c-2.273-4.25-4.75-8.392-7.135-12.576c-2.62-4.591-5.317-9.208-7.497-14.033c-0.961-2.13-2.066-4.593-2.105-6.965
					C24.692,142.338,22.038,142.334,22.068,144.042L22.068,144.042L22.068,144.042z"/>
				<path fill="#201614" d="M22.346,180.39c-3.109-5.201-6.119-10.463-9.077-15.753c-1.382-2.469-2.759-4.95-4.044-7.476
					c-0.171-0.336-0.34-0.672-0.504-1.01c-0.06-0.121-0.117-0.239-0.176-0.359c-0.022-0.05-0.23-0.518-0.123-0.255
					c0.076,0.185-0.057-0.154-0.076-0.224c-0.063-0.192-0.119-0.385-0.174-0.577c-0.257-0.927-0.445-1.871-0.615-2.815
					c-0.529-2.917-0.836-5.889-0.828-8.85c0.004-1.708-2.65-1.71-2.654,0c-0.006,2.766,0.277,5.531,0.706,8.264
					c0.289,1.866,0.574,3.842,1.37,5.574c1.19,2.598,2.631,5.105,4.014,7.61c1.535,2.772,3.104,5.527,4.682,8.275
					c1.715,2.992,3.44,5.975,5.207,8.935C20.929,183.194,23.227,181.858,22.346,180.39L22.346,180.39L22.346,180.39z"/>
			</g>
			<path fill="#201614" d="M23.575,183.341c1.887-1.84,3.965-3.493,6.094-5.04c1.197-0.874,2.416-1.706,3.676-2.481
				c0.56-0.347,1.126-0.68,1.707-0.99c0.289-0.159,0.58-0.309,0.876-0.455c0.139-0.066,0.278-0.13,0.42-0.196
				c0.031-0.014,0.387-0.169,0.22-0.101c0.66-0.273,1.135-0.879,0.926-1.633c-0.173-0.621-0.968-1.197-1.633-0.924
				c-2.705,1.125-5.168,2.771-7.529,4.488c-2.311,1.682-4.584,3.461-6.635,5.453C20.469,182.652,22.346,184.53,23.575,183.341
				L23.575,183.341L23.575,183.341z"/>
			<path fill="#201614" d="M68.444,39.826c-0.391-0.05-0.104-0.006-0.021,0.017c0.047,0.011,0.287,0.073,0.076,0.016
				c-0.199-0.047,0.008,0.017,0.062,0.048c0.059,0.035,0.146,0.11,0.209,0.136c-0.104-0.037-0.197-0.165-0.039-0.023
				c0.051,0.05,0.104,0.098,0.152,0.151c0.045,0.046,0.115,0.16,0.172,0.192c-0.094-0.059-0.146-0.2-0.027-0.024
				c0.096,0.136,0.179,0.272,0.256,0.416c0.037,0.07,0.212,0.323,0.19,0.395c-0.069-0.166-0.087-0.212-0.052-0.116
				c0.015,0.037,0.027,0.069,0.039,0.104c0.023,0.055,0.042,0.108,0.066,0.164c0.053,0.133,0.105,0.263,0.16,0.391
				c0.5,1.201,1.034,2.428,1.768,3.515c0.387,0.574,1.185,0.878,1.814,0.476c0.57-0.373,0.891-1.2,0.475-1.817
				c-0.361-0.535-0.662-1.11-0.948-1.695c-0.155-0.313-0.304-0.63-0.447-0.948c-0.069-0.16-0.138-0.318-0.204-0.476
				c0.164,0.381-0.032-0.075-0.072-0.185c-0.311-0.789-0.64-1.489-1.197-2.139c-0.641-0.737-1.477-1.125-2.432-1.247
				c-0.312-0.042-0.728,0.176-0.939,0.389c-0.23,0.228-0.402,0.604-0.388,0.937c0.016,0.344,0.128,0.696,0.388,0.939
				C67.781,39.692,68.073,39.78,68.444,39.826L68.444,39.826L68.444,39.826z"/>
			<path fill="#201614" d="M66.432,95.271c0.869,0.355,1.75,0.685,2.627,1.026c0.502,0.19,1.002,0.388,1.499,0.583
				c0.249,0.099,0.496,0.196,0.743,0.299c0.068,0.028,0.4,0.167,0.186,0.078c-0.213-0.09-0.009-0.005,0.039,0.018
				c0.062,0.025,0.123,0.053,0.186,0.083c0.341,0.146,0.65,0.235,1.023,0.13c0.309-0.083,0.641-0.322,0.793-0.607
				c0.303-0.574,0.203-1.518-0.476-1.818c-1.945-0.848-3.948-1.554-5.917-2.346c-0.299-0.121-0.756-0.023-1.021,0.129
				c-0.275,0.163-0.539,0.479-0.609,0.799C65.329,94.411,65.74,94.995,66.432,95.271L66.432,95.271L66.432,95.271z"/>
			<path fill="#201614" d="M46.108,75.621c1.296,1.262,3.325,1.647,5.066,1.647c1.742,0,3.771-0.383,5.065-1.647
				c0.499-0.492,0.524-1.396,0-1.881c-0.534-0.489-1.347-0.519-1.877,0c-0.05,0.051-0.288,0.245-0.084,0.088
				c0.202-0.155-0.108,0.066-0.177,0.111c-0.108,0.064-0.215,0.126-0.329,0.185c-0.075,0.036-0.153,0.069-0.23,0.106
				c0.14-0.066,0.193-0.073,0.021-0.015c-0.363,0.124-0.725,0.232-1.1,0.302c-0.018,0.002-0.41,0.063-0.146,0.028
				c-0.111,0.015-0.225,0.028-0.338,0.035c-0.268,0.021-0.537,0.033-0.805,0.033c-0.245,0-0.492-0.008-0.738-0.028
				c-0.135-0.008-0.271-0.02-0.406-0.04c0.191,0.025,0-0.002-0.088-0.02c-0.376-0.066-0.752-0.165-1.112-0.293
				c-0.069-0.026-0.351-0.162-0.025-0.003c-0.064-0.031-0.128-0.062-0.194-0.091c-0.122-0.062-0.245-0.127-0.365-0.2
				c-0.08-0.054-0.175-0.148-0.264-0.18c0.241,0.088,0.222,0.189,0.104,0.073c-0.031-0.028-0.066-0.062-0.099-0.093
				c-0.498-0.484-1.39-0.53-1.878,0C45.625,74.266,45.58,75.099,46.108,75.621L46.108,75.621L46.108,75.621z"/>
			<path fill="#201614" d="M50.482,65.97c0.183,0.697,0.359,1.407,0.463,2.123c-0.013-0.119-0.029-0.234-0.048-0.352
				c0.014,0.097,0.019,0.193,0.01,0.292c0.016-0.116,0.031-0.233,0.048-0.353c-0.009,0.044-0.019,0.084-0.033,0.135
				c0.045-0.104,0.09-0.214,0.135-0.316c-0.015,0.027-0.028,0.057-0.047,0.082c0.069-0.09,0.138-0.181,0.208-0.267
				c-0.024,0.024-0.044,0.045-0.07,0.067c0.09-0.073,0.178-0.139,0.27-0.21c-0.056,0.037-0.111,0.065-0.17,0.09
				c0.105-0.044,0.212-0.09,0.318-0.133c-0.094,0.038-0.187,0.066-0.285,0.084c0.116-0.018,0.235-0.032,0.353-0.05
				c-0.088,0.013-0.177,0.013-0.267,0c0.119,0.018,0.236,0.032,0.354,0.05c-0.102-0.014-0.2-0.041-0.301-0.053
				c-0.176-0.055-0.354-0.065-0.528-0.023c-0.176,0.007-0.341,0.059-0.493,0.156c-0.276,0.159-0.538,0.472-0.611,0.792
				c-0.076,0.338-0.06,0.722,0.134,1.021c0.173,0.271,0.463,0.566,0.795,0.612c0.249,0.034,0.491,0.097,0.745,0.105
				c0.399,0.019,0.77-0.105,1.127-0.27c0.444-0.205,0.794-0.617,0.913-1.098c0.102-0.408,0.061-0.746-0.012-1.161
				c-0.114-0.682-0.271-1.36-0.447-2.034c-0.086-0.32-0.324-0.626-0.611-0.793c-0.285-0.164-0.703-0.237-1.023-0.132
				C50.715,64.562,50.292,65.249,50.482,65.97L50.482,65.97L50.482,65.97z"/>
			<path fill="#201614" d="M39.472,59.887c-0.356,1.152-0.123,3.802,2.06,4.029c2.889-0.015,3.042-3.222,2.07-4.733
				C42.806,57.949,40.465,57.435,39.472,59.887L39.472,59.887z"/>
			<path fill="#201614" d="M62.6,59.887c0.356,1.152,0.124,3.802-2.061,4.029c-2.891-0.015-3.044-3.222-2.07-4.733
				C59.266,57.949,61.604,57.435,62.6,59.887L62.6,59.887z"/>
			<path fill="#A67958" d="M150.983,88.633c-0.674-3.429-1.25-7.982-1.322-13.927c0.275-3.152-0.012-7.706-0.137-9.455
				c-0.432-6.068-3.145-12.842-7.047-16.607c-1.688-1.624-2.178-2.387-4.014-3.382c0,0-1.436-0.781-2.875-1.562
				c-0.766-0.295-1.533-0.589-1.533-0.589c-2.711-1.045-5.234-1.55-9.996-1.55c-7.801,0-14.75,4.021-17.833,6.974
				c-5.113,4.894-8.357,13.837-7.948,26.172c0.001,8.985-0.685,15.469-1.642,19.146c-0.657,2.525-1.213,6.722-1.234,9.286
				c-0.034,4.191,4.188,8.784,10.414,7.367c0,0,7.318-1.887,16.487-2.162c9.168-0.283,21.557,0.957,21.557,0.957
				c5.568,2.149,10.086-2.842,10.053-7.031c-0.023-2.566-0.41-4.543-1.203-7.016C152.245,93.805,151.575,91.657,150.983,88.633
				L150.983,88.633z"/>
			<path fill="#FFFFFF" d="M106.292,110.846c0.297-0.128,8.393-4.226,9.191-6.196c0.607-1.502,0.377-3.637,0.447-5.159
				c-2.295-1.112-4.412-2.901-6.271-5.13c-2.244-2.682-3.412-5.696-4.053-8.253c-0.352-0.01-0.57-0.026-0.57-0.026
				c-0.859-0.13-1.671-0.521-2.334-1.052c-0.861-0.694-1.48-1.612-1.957-2.564c-0.977-1.967-1.398-4.162-1.213-6.314
				c0.053-0.547,0.14-1.106,0.416-1.601c0.391-0.702,1.166-1.218,2.021-1.346c0.773-0.111,1.6,0.1,2.203,0.553
				c4.639-4.945,10.08-8.866,14.777-13.477c-0.247,2.075-1.555,6.471-0.168,6.061c5.827-1.67,10.516-5.072,14.211-9.877
				c0.773,2.583,1.754,6.243,2.654,7.934c1.391,2.606,4.746,9.168,8.881,9.331c0.596-0.435,1.4-0.634,2.154-0.524
				c0.854,0.128,1.633,0.644,2.023,1.346c0.275,0.494,0.365,1.054,0.416,1.601c0.186,2.152-0.238,4.348-1.215,6.314
				c-0.477,0.952-1.096,1.87-1.959,2.564c-0.721,0.575-1.621,0.993-2.57,1.081c-0.219,0.996-0.537,1.891-0.674,2.306
				c-0.699,1.899-4.729,8.801-9.723,10.973c0.086,1.531-0.17,3.723,0.453,5.261c0.795,1.971,8.139,6.068,8.432,6.196
				c0,0-8.449,10.553-19.285,10.553C111.746,121.398,106.292,110.846,106.292,110.846L106.292,110.846z"/>
			<path fill="#201614" d="M96.95,74.706c-0.004,6.039-0.061,12.328-1.455,18.238c-0.708,3.003-1.227,6.049-1.386,9.135
				c-0.136,2.674,0.603,5.133,2.479,7.104c2.491,2.612,6.139,3.341,9.581,2.6c1.668-0.36,0.965-2.919-0.705-2.556
				c-2.533,0.546-5.174-0.002-6.998-1.924c-0.73-0.764-1.27-1.696-1.545-2.714c-0.303-1.121-0.186-2.301-0.095-3.445
				c0.207-2.675,0.733-5.252,1.312-7.86c0.52-2.346,0.803-4.745,1.017-7.132c0.341-3.806,0.448-7.627,0.452-11.445
				C99.606,72.999,96.954,72.995,96.95,74.706L96.95,74.706L96.95,74.706z"/>
			<path fill="#201614" d="M148.333,74.706c0.082,5.824,0.615,11.692,2.061,17.349c0.467,1.818,1.111,3.583,1.574,5.396
				c0.67,2.629,1.135,5.609-0.369,8.026c-1.613,2.594-4.533,3.594-7.385,2.544c-1.605-0.59-2.297,1.975-0.707,2.559
				c3.051,1.124,6.344,0.439,8.734-1.752c2.211-2.025,3.131-4.812,2.961-7.752c-0.166-2.817-1.025-5.409-1.803-8.095
				c-0.613-2.104-1.088-4.253-1.451-6.424c-0.65-3.914-0.906-7.887-0.961-11.851C150.964,72.999,148.31,72.993,148.333,74.706
				L148.333,74.706L148.333,74.706z"/>
			<path fill="#201614" d="M145.239,74.84c0.656-0.546,1.803-0.424,2.271,0.3c0.309,0.481,0.309,1.158,0.324,1.7
				c0.016,0.692-0.02,1.392-0.143,2.069c-0.449,2.46-1.697,5.404-4.428,5.896c-0.707,0.127-1.105,0.983-0.928,1.632
				c0.203,0.743,0.924,1.054,1.631,0.922c4.176-0.747,6.168-5.459,6.482-9.241c0.162-1.948,0.004-4.167-1.68-5.43
				c-1.658-1.24-3.861-1.018-5.408,0.28c-0.549,0.456-0.475,1.396,0,1.871C143.907,75.382,144.688,75.306,145.239,74.84
				L145.239,74.84L145.239,74.84z"/>
			<path fill="#201614" d="M142.259,84.495c-0.041,1.043-0.33,2.047-0.654,3.032c-0.082,0.25-0.166,0.502-0.264,0.744
				c0.146-0.372-0.143,0.292-0.195,0.4c-0.627,1.259-1.387,2.462-2.205,3.604c-1.902,2.666-4.494,5.549-7.807,6.33
				c-1.66,0.389-0.959,2.947,0.705,2.558c3.953-0.932,6.996-4.231,9.285-7.395c1.979-2.732,3.648-5.832,3.789-9.274
				C144.981,82.788,142.327,82.792,142.259,84.495L142.259,84.495L142.259,84.495z"/>
			<path fill="#201614" d="M105.288,72.969c-1.546-1.302-3.744-1.516-5.406-0.28c-1.684,1.257-1.84,3.484-1.679,5.43
				c0.313,3.782,2.308,8.494,6.481,9.241c0.706,0.132,1.43-0.187,1.634-0.922c0.175-0.646-0.22-1.505-0.928-1.632
				c-2.733-0.492-3.979-3.437-4.43-5.896c-0.117-0.646-0.155-1.299-0.144-1.951c0.01-0.557,0-1.235,0.276-1.739
				c0.435-0.795,1.641-0.944,2.319-0.379c0.551,0.463,1.339,0.536,1.875,0C105.761,74.369,105.842,73.425,105.288,72.969
				L105.288,72.969L105.288,72.969z"/>
			<path fill="#201614" d="M103.555,82.067c0.51,4.138,1.584,8.234,3.996,11.702c2.725,3.925,6.883,7.415,11.724,8.154
				c0.709,0.106,1.427-0.178,1.632-0.929c0.172-0.626-0.215-1.522-0.927-1.629c-4.259-0.655-7.941-3.662-10.3-7.171
				c-2.025-3.009-3.048-6.694-3.47-10.128c-0.09-0.709-0.55-1.322-1.329-1.322C104.234,80.745,103.469,81.352,103.555,82.067
				L103.555,82.067L103.555,82.067z"/>
			<path fill="#201614" d="M131.782,57.052c0.617,2.076,1.176,4.185,1.941,6.219c0.547,1.451,1.293,2.809,2.068,4.154
				c1.711,2.955,3.996,6.451,7.475,7.445c1.645,0.471,2.346-2.088,0.705-2.559c-1.412-0.4-2.502-1.501-3.426-2.588
				c-1.031-1.219-1.873-2.595-2.656-3.977c-0.666-1.18-1.314-2.354-1.77-3.631c-0.678-1.894-1.207-3.844-1.779-5.771
				C133.856,54.71,131.296,55.405,131.782,57.052L131.782,57.052L131.782,57.052z"/>
			<path fill="#201614" d="M132.042,55.542c-2.648,3.411-5.91,6.258-9.834,8.11c-0.939,0.449-1.91,0.819-2.903,1.142
				c-0.197,0.064-0.742,0.124-0.876,0.269c0.057-0.011,0.116-0.014,0.173-0.025c0.484,0.044,0.786,0.249,0.901,0.622
				c-0.042-0.006-0.014-0.01-0.018-0.107c-0.007-0.148-0.002-0.295,0.005-0.44c0.076-1.624,0.579-3.219,0.782-4.831
				c0.156-1.2-1.517-1.667-2.264-0.938c-4.762,4.666-9.896,8.934-14.774,13.476c-1.253,1.167,0.627,3.041,1.877,1.874
				c4.876-4.54,10.012-8.811,14.775-13.475c-0.757-0.311-1.51-0.626-2.266-0.938c-0.205,1.615-0.913,3.619-0.782,5.4
				c0.07,0.983,0.587,1.945,1.685,2.003c1.055,0.05,2.354-0.604,3.309-0.993c4.816-1.947,8.906-5.175,12.086-9.271
				c0.439-0.568,0.551-1.324,0-1.877C133.462,55.083,132.485,54.972,132.042,55.542L132.042,55.542L132.042,55.542z"/>
			<path fill="#201614" d="M134.409,41.829c-3.643-1.388-7.639-1.759-11.514-1.564c-4.418,0.222-8.75,1.586-12.604,3.736
				c-2.888,1.605-5.391,3.657-7.361,6.315c-2.066,2.784-3.465,6.054-4.393,9.38c-1.357,4.866-1.74,9.978-1.588,15.01
				c0.055,1.702,2.709,1.71,2.656,0c-0.23-7.417,0.66-15.41,4.747-21.793c3.636-5.678,10.528-9.142,17.111-9.88
				c4.082-0.457,8.389-0.111,12.24,1.355c0.668,0.258,1.455-0.279,1.633-0.929C135.54,42.718,135.081,42.089,134.409,41.829
				L134.409,41.829L134.409,41.829z"/>
			<path fill="#201614" d="M150.987,74.706c0.186-2.268,0.129-4.549,0.02-6.814c-0.094-2.004-0.225-4.006-0.588-5.98
				c-0.861-4.68-2.795-9.356-5.885-13.007c-1.521-1.801-3.33-3.641-5.4-4.788c-1.494-0.83-2.834,1.461-1.338,2.29
				c1.672,0.929,3.016,2.365,4.312,3.753c1.467,1.575,2.592,3.444,3.508,5.381c1.783,3.77,2.506,7.775,2.715,11.908
				c0.127,2.413,0.201,4.844,0.002,7.258C148.192,76.408,150.847,76.396,150.987,74.706L150.987,74.706L150.987,74.706z"/>
			<path fill="#201614" d="M131.673,99.899c0.02,1.683-0.145,3.501,0.48,5.106c0.35,0.894,1.033,1.581,1.752,2.192
				c1.73,1.477,3.688,2.708,5.643,3.859c0.539,0.319,1.078,0.673,1.65,0.936c0.65,0.299,1.43,0.184,1.814-0.475
				c0.334-0.574,0.178-1.513-0.477-1.813c-1.277-0.591-2.49-1.424-3.672-2.185c-0.461-0.293-0.92-0.596-1.373-0.91
				c-0.215-0.15-0.43-0.302-0.641-0.452c-0.113-0.082-0.223-0.162-0.334-0.246c-0.045-0.036-0.094-0.072-0.141-0.105
				c-0.172-0.13,0.236,0.191-0.047-0.038c-0.365-0.291-0.727-0.587-1.064-0.912c-0.139-0.132-0.271-0.268-0.398-0.408
				c-0.051-0.06-0.1-0.124-0.15-0.184c0.166,0.191,0.084,0.132,0.002-0.02c-0.039-0.069-0.08-0.138-0.115-0.209
				c0.125,0.264-0.039-0.182-0.064-0.278c-0.102-0.378-0.146-0.696-0.172-1.09c-0.066-0.918-0.029-1.848-0.041-2.769
				C134.304,98.194,131.649,98.188,131.673,99.899L131.673,99.899L131.673,99.899z"/>
			<path fill="#201614" d="M114.591,99.899c-0.011,0.835,0.019,1.668-0.022,2.504c-0.02,0.359-0.046,0.7-0.113,1.032
				c-0.039,0.188-0.102,0.372-0.145,0.562c-0.068,0.294,0.08-0.059-0.043,0.129c-0.039,0.056-0.08,0.119-0.113,0.174
				c-0.127,0.233,0.176-0.174,0.021-0.022c-0.146,0.136-0.271,0.291-0.418,0.43c-0.155,0.147-0.319,0.286-0.483,0.424
				c-0.092,0.076-0.182,0.149-0.275,0.223c0.228-0.179-0.077,0.05-0.154,0.107c-1.769,1.297-3.702,2.386-5.635,3.42
				c-0.522,0.279-1.046,0.577-1.586,0.824c-0.654,0.295-0.812,1.239-0.478,1.813c0.394,0.671,1.163,0.773,1.817,0.475
				c1.462-0.658,2.871-1.498,4.25-2.316c1.045-0.616,2.082-1.265,3.06-1.987c0.812-0.605,1.677-1.252,2.224-2.124
				c0.48-0.765,0.604-1.758,0.688-2.634c0.096-1.008,0.049-2.021,0.062-3.032C117.264,98.192,114.614,98.188,114.591,99.899
				L114.591,99.899L114.591,99.899z"/>
			<path fill="#FFFFFF" d="M166.573,153.71c-0.02,0.232-0.064,0.477-0.121,0.729c-0.445,1.742-1.908,3.779-3.754,4.137
				c-2.734,0.528-6.221,0.256-8.373-1.143c-0.109-0.07-0.219-0.142-0.33-0.219c-0.133-0.092-0.273-0.191-0.418-0.287
				c-0.16-0.119-0.322-0.236-0.49-0.371c-0.129-0.095-0.256-0.192-0.385-0.294c-0.014-0.017-0.029-0.027-0.039-0.032
				c-0.006,0-0.006-0.011-0.006-0.011c-0.549-0.437-1.115-0.917-1.678-1.422c-0.312,0.937-0.656,1.924-0.977,2.884
				c-0.09,0.248-0.174,0.507-0.26,0.758c-0.037,0.111-0.076,0.214-0.109,0.321c-0.031,0.092-0.064,0.182-0.092,0.266
				c-0.184,0.536-0.359,1.05-0.521,1.526v0.004c-0.037,0.103-0.07,0.21-0.104,0.311c-0.52,1.515-0.873,2.566-0.873,2.566
				c0.57,3.717,2.711,16.615,3.445,21.178l-51.653,0.424c0.191-0.716,0.398-3.937,0.604-4.855c0.16-0.729,0.321-1.511,0.488-2.318
				c0.04-0.204,0.079-0.411,0.124-0.623c0.082-0.434,0.172-0.881,0.256-1.33c0.071-0.383,0.145-0.775,0.213-1.17
				c0.016-0.07,0.027-0.139,0.039-0.217c0.109-0.601,0.22-1.204,0.322-1.803c0.033-0.217,0.072-0.439,0.109-0.649
				c0.367-2.161,0.694-4.239,0.936-5.91c0.064-0.48,0.127-0.921,0.186-1.322c0.02-0.161,0.039-0.316,0.057-0.465
				c0-0.005,0-0.005,0-0.005c-0.418-0.089-0.824-0.186-1.215-0.285c-0.401-0.099-0.787-0.193-1.173-0.295
				c-0.194-0.053-0.381-0.102-0.574-0.162c-0.599-0.162-1.192-0.34-1.791-0.54c-0.419-0.138-0.839-0.284-1.271-0.438
				c-0.27-0.097-0.553-0.2-0.833-0.309c-0.25-0.096-0.501-0.195-0.759-0.29c-0.619-0.249-1.264-0.517-1.945-0.812
				c-1.417-0.613-2.615-1.89-3.305-3.68c-0.27-0.661-0.457-1.396-0.568-2.192c-0.133-0.995-0.225-2.086-0.262-3.277
				c-0.085-2.278-0.014-4.941,0.141-8.074c0-0.005,0-0.005,0-0.005c0.031-0.636,0.07-1.297,0.104-1.973
				c0.146-2.468,0.336-5.2,0.535-8.24c0.469-4.418,1.216-11.409,5.656-16.021c0.09-0.084,0.18-0.188,0.27-0.266
				c0.697-0.716,1.432-1.367,2.172-1.97c1.484-1.203,3.012-2.195,4.428-2.958c1.354-0.728,2.608-1.24,3.625-1.521
				c0.414-0.113,0.787-0.189,1.109-0.227c3.713,2.423,10.529,4.835,17.088,5.081c0.348,0.012,0.689,0.02,1.031,0.02
				c4.549,0.015,10.264-1.289,14.264-2.951c1.617-0.682,2.959-1.414,3.83-2.149l1.035,0.737l2.533,1.819l1.785,1.276l5.232,3.754
				c0.166,0.154,0.328,0.309,0.488,0.478c0.064,0.052,0.129,0.117,0.193,0.188c0.051,0.037,0.092,0.084,0.129,0.13
				c0.199,0.193,0.391,0.393,0.574,0.593c0.07,0.067,0.135,0.137,0.193,0.214c0.107,0.109,0.211,0.216,0.303,0.333l0.006,0.007
				c0.072,0.071,0.137,0.141,0.193,0.215c0.062,0.067,0.123,0.14,0.174,0.2c0.156,0.175,0.297,0.349,0.439,0.526
				c0.127,0.153,0.258,0.306,0.379,0.469c0.07,0.091,0.141,0.188,0.213,0.279c0.152,0.199,0.301,0.39,0.451,0.597
				c0.057,0.077,0.117,0.155,0.174,0.239c0.121,0.171,0.246,0.343,0.365,0.514c0.117,0.171,0.234,0.335,0.344,0.501
				c0.062,0.1,0.129,0.196,0.193,0.298c0.143,0.209,0.275,0.423,0.404,0.633c0.246,0.391,0.486,0.781,0.717,1.181
				c0.154,0.261,0.311,0.533,0.451,0.805c0.203,0.371,0.404,0.746,0.598,1.128c0.123,0.24,0.246,0.474,0.361,0.715
				c0.209,0.422,0.412,0.856,0.605,1.294c0.098,0.206,0.188,0.413,0.279,0.623c0.102,0.229,0.197,0.462,0.287,0.689
				c0.145,0.344,0.285,0.685,0.414,1.026c0.109,0.277,0.211,0.554,0.314,0.833c0.111,0.299,0.219,0.604,0.322,0.907
				c0.096,0.271,0.188,0.542,0.279,0.816c0.264,0.808,0.508,1.621,0.727,2.438c0.104,0.367,0.199,0.733,0.289,1.092
				c0.092,0.356,0.174,0.71,0.252,1.056c0.006,0.026,0.014,0.04,0.02,0.064c0.07,0.318,0.135,0.627,0.201,0.943
				c0.012,0.042,0.02,0.078,0.023,0.11c0.008,0.014,0.008,0.021,0,0.025c0.162,0.742,0.297,1.481,0.412,2.214
				c0.059,0.371,0.119,0.737,0.162,1.105c0.051,0.328,0.092,0.654,0.131,0.986c0.012,0.04,0.012,0.076,0.012,0.117
				c0.012,0.057,0.018,0.119,0.018,0.185c0.041,0.304,0.072,0.604,0.098,0.903c0.014,0.095,0.021,0.193,0.025,0.282
				c0.012,0.08,0.02,0.155,0.02,0.232c0.02,0.192,0.033,0.379,0.045,0.572c0,0.008,0,0.008,0,0.014
				c0.027,0.354,0.045,0.711,0.066,1.065C166.747,150.129,166.722,151.956,166.573,153.71L166.573,153.71z"/>
			<path fill="#201614" d="M106.843,111.973c4.538,2.931,10.104,4.504,15.433,5.096c5.344,0.589,10.854-0.312,15.922-2.04
				c2.275-0.776,4.594-1.718,6.463-3.265c1.314-1.087-0.57-2.956-1.877-1.876c-1.271,1.051-3.189,1.836-4.836,2.424
				c-2.291,0.814-4.662,1.416-7.057,1.828c-5.215,0.891-10.441,0.36-15.477-1.209c-2.527-0.788-5.004-1.808-7.231-3.252
				C106.744,108.75,105.412,111.047,106.843,111.973L106.843,111.973L106.843,111.973z"/>
			<path fill="#201614" d="M107.512,109.498c-4.004,0.519-7.83,3.112-10.808,5.694c-1.835,1.59-3.419,3.417-4.547,5.57
				c-1.042,1.993-1.757,4.151-2.241,6.345c-0.49,2.198-0.751,4.446-0.99,6.688c-0.078,0.715,0.664,1.326,1.327,1.326
				c0.778,0,1.251-0.608,1.326-1.326c0.386-3.62,0.87-7.346,2.384-10.695c1.804-3.984,5.151-6.92,8.906-9.053
				c0.861-0.491,1.752-0.952,2.678-1.309c0.38-0.143,0.763-0.275,1.153-0.384c0.171-0.05,0.342-0.095,0.515-0.136
				c0.08-0.018,0.545-0.1,0.297-0.068c0.711-0.091,1.326-0.54,1.326-1.325C108.838,110.18,108.228,109.403,107.512,109.498
				L107.512,109.498L107.512,109.498z"/>
			<path fill="#201614" d="M146.761,163.784c1.098,7.071,2.307,14.115,3.447,21.181c0.115,0.707,0.996,1.101,1.633,0.925
				c0.752-0.206,1.041-0.923,0.926-1.632c-1.141-7.062-2.35-14.111-3.447-21.179c-0.109-0.712-0.996-1.099-1.631-0.925
				C146.933,162.36,146.651,163.075,146.761,163.784L146.761,163.784L146.761,163.784z"/>
			<path fill="#FFE673" d="M151.106,126.078c1.072,0.314,2.203,1.949,2.668,2.929c2.631,5.559,3.594,11.904,2.672,17.989
				c-0.453,2.991-1.375,5.97-3.148,8.425c-2.287,3.161-5.855,5.232-9.613,6.29c-3.754,1.054-7.711,1.169-11.613,1.007
				c-3.074-0.129-6.504-0.604-8.416-3.02l-4-1.737c-0.165-1.786-0.255-3.659,0.474-5.301c0.658-1.487,1.943-2.637,3.412-3.336
				c0.795-0.373,1.643-0.632,2.506-0.79c0.051-0.618,0.133-1.235,0.252-1.838c-0.252-0.102-0.496-0.225-0.729-0.352
				c-2.453-1.351-4.387-3.46-6.276-5.526c-1.398-1.531-2.796-3.063-4.19-4.594c0.974-1.069,1.95-2.137,2.923-3.201
				c0.242-0.272,0.51-0.554,0.859-0.641c0.445-0.112,0.898,0.109,1.296,0.338c1.492,0.846,2.896,1.851,4.183,2.983
				c1.061-3.303,3.695-5.82,6.234-8.188c0,0,0.18-0.169,0.361-0.334c0.797,0.199,1.6,0.402,1.6,0.402
				c3.277,0.828,12.582,0.59,17.795-1.354L151.106,126.078L151.106,126.078z"/>
			<path fill="#FFFFFF" d="M126.192,102.278c1.541-4.008,5.77-6.069,8.596-6.928c7.322-2.22,15.98,1.503,19.402,8.347
				c2.684,5.364,2.93,11.722-0.062,16.397c-0.977,1.529-3.701,4.371-2.646,5.649c-6.195,3.044-21.586,2.771-19.99,0.845
				c-1.287-0.348-2.484-1.035-3.402-1.999c-1.074-1.126-1.76-2.565-2.289-4.03c-2.102-5.764-2.014-12.301,0.24-18.01
				L126.192,102.278L126.192,102.278z"/>
			<path fill="#201614" d="M127.47,102.63c1.197-2.982,4.256-4.862,7.18-5.841c3.197-1.071,6.604-0.946,9.775,0.161
				c3.143,1.093,6.014,3.219,7.826,6.021c2.111,3.278,3.125,7.508,2.58,11.38c-0.289,2.052-1.047,3.996-2.268,5.678
				c-1.092,1.497-2.551,3.06-2.648,5.005c-0.084,1.707,2.57,1.701,2.654,0c0.023-0.538,0.59-1.332,0.953-1.855
				c0.529-0.772,1.137-1.494,1.658-2.271c1.195-1.791,1.934-3.907,2.236-6.029c0.633-4.44-0.375-9.234-2.752-13.049
				c-4.131-6.63-12.891-10.058-20.391-7.709c-4.027,1.264-7.748,3.777-9.363,7.804c-0.266,0.671,0.293,1.461,0.93,1.633
				C126.595,103.766,127.204,103.297,127.47,102.63L127.47,102.63L127.47,102.63z"/>
			<path fill="#201614" d="M124.761,102.197c-2.076,5.352-2.365,11.377-0.82,16.911c0.711,2.545,1.764,5.298,3.865,7.022
				c2.086,1.71,4.744,2.348,7.387,1.859c1.678-0.312,0.969-2.869-0.707-2.563c-1.971,0.367-4.076-0.329-5.457-1.774
				c-1.598-1.672-2.314-4.187-2.818-6.384c-1.098-4.782-0.662-9.8,1.109-14.367c0.258-0.667-0.285-1.455-0.928-1.63
				C125.642,101.064,125.021,101.524,124.761,102.197L124.761,102.197L124.761,102.197z"/>
			<path fill="#201614" d="M129.659,126.58c-2.701,2.521-5.371,5.185-6.572,8.771c0.74-0.196,1.479-0.391,2.219-0.583
				c-0.924-0.805-1.893-1.562-2.908-2.241c-0.898-0.6-1.992-1.441-3.112-1.488c-1.176-0.047-1.885,0.693-2.615,1.5
				c-0.836,0.915-1.673,1.834-2.506,2.747c-0.5,0.55-0.503,1.329,0,1.877c1.648,1.808,3.289,3.626,4.948,5.422
				c1.501,1.618,3.087,3.193,4.949,4.398c0.947,0.618,2.002,1.19,3.148,1.271c1.178,0.08,2.148-0.509,3.023-1.222
				c0.553-0.446,1.107-0.909,1.514-1.499c0.354-0.518,0.621-1.104,0.945-1.642c0.883-1.465-1.408-2.8-2.291-1.344
				c-0.291,0.488-0.545,0.99-0.832,1.47c-0.016,0.032-0.188,0.261-0.076,0.126c0.109-0.143-0.143,0.14-0.137,0.135
				c-0.23,0.21-0.457,0.423-0.693,0.627c-0.686,0.576-1.182,0.873-2.055,0.484c-0.818-0.363-1.594-0.914-2.291-1.47
				c-1.428-1.139-2.668-2.492-3.896-3.835c-1.462-1.6-2.922-3.201-4.381-4.799c0,0.624,0,1.251,0,1.877
				c0.592-0.647,1.184-1.299,1.775-1.947c0.314-0.343,0.629-0.688,0.939-1.031c0.115-0.123,0.258-0.247,0.358-0.389
				c0.053-0.049,0.104-0.101,0.159-0.157c-0.137,0.016-0.156,0.04-0.062,0.062c0.71,0.199,1.498,0.879,2.097,1.288
				c0.74,0.507,1.443,1.066,2.121,1.652c0.77,0.671,1.887,0.4,2.215-0.584c1.043-3.118,3.557-5.423,5.895-7.603
				C132.788,127.287,130.909,125.415,129.659,126.58L129.659,126.58L129.659,126.58z"/>
			<path fill="#201614" d="M132.948,148.019c-1.582-1.01-3.521-1.146-5.346-1.015c-1.855,0.14-3.717,0.548-5.336,1.496
				c-1.506,0.876-2.75,2.188-3.417,3.805c-0.743,1.796-0.693,3.754-0.52,5.656c0.063,0.718,0.564,1.328,1.325,1.328
				c0.668,0,1.393-0.608,1.331-1.328c-0.141-1.504-0.271-3.087,0.258-4.533c0.414-1.143,1.334-2.038,2.363-2.636
				c1.205-0.703,2.611-1.027,3.996-1.136c1.367-0.097,2.812-0.108,4.006,0.654C133.052,151.228,134.386,148.934,132.948,148.019
				L132.948,148.019L132.948,148.019z"/>
			<path fill="#FFFFFF" d="M118.849,131.228c0.204-0.826,0.097-1.73-0.304-2.478c-0.301-0.563-0.891-1.086-1.511-0.937
				c-0.497,0.119-0.795,0.613-1.038,1.065c-1.297-0.848-2.952-1.446-4.369-0.831c-1.539,0.673-2.206,2.679-1.676,4.274
				c0.529,1.596,2.01,2.742,3.617,3.229L118.849,131.228L118.849,131.228z"/>
			<path fill="#201614" d="M120.128,131.578c0.341-1.511,0.056-3.368-1.179-4.425c-0.666-0.568-1.527-0.854-2.39-0.584
				c-0.795,0.252-1.323,0.932-1.71,1.637c0.603-0.159,1.207-0.318,1.812-0.475c-1.446-0.93-3.262-1.577-4.983-1.102
				c-1.524,0.417-2.643,1.691-3.051,3.194c-0.886,3.271,1.622,6.067,4.589,7.009c0.682,0.214,1.447-0.253,1.633-0.928
				c0.194-0.714-0.244-1.415-0.93-1.632c-0.145-0.045-0.287-0.096-0.428-0.146c-0.086-0.034-0.082-0.033,0.016,0.008
				c-0.059-0.027-0.119-0.054-0.178-0.085c-0.255-0.116-0.501-0.26-0.734-0.417c-0.037-0.022-0.336-0.235-0.15-0.094
				c-0.104-0.079-0.202-0.167-0.295-0.253c-0.189-0.177-0.371-0.359-0.526-0.56c0.14,0.183-0.097-0.163-0.122-0.205
				c-0.067-0.109-0.127-0.222-0.186-0.336c-0.039-0.082-0.039-0.075,0.003,0.025c-0.032-0.077-0.062-0.161-0.089-0.239
				c-0.036-0.115-0.067-0.224-0.092-0.341c-0.016-0.066-0.029-0.393-0.025-0.113c-0.002-0.119-0.016-0.23-0.016-0.35
				s0.01-0.235,0.02-0.356c-0.025,0.305,0.023-0.104,0.039-0.17c0.028-0.115,0.063-0.227,0.097-0.339
				c0.019-0.058,0.04-0.106,0.062-0.164c-0.062,0.138-0.059,0.138,0.007,0c0.059-0.1,0.109-0.204,0.175-0.305
				c0.035-0.056,0.248-0.297,0.063-0.098c0.328-0.357,0.43-0.451,0.893-0.568c0.066-0.019,0.137-0.032,0.204-0.041
				c-0.097,0.009-0.098,0.011-0.003,0.003c0.167-0.007,0.328-0.003,0.494,0c0.139,0.006,0.351,0.053,0.637,0.138
				c0.559,0.166,0.979,0.395,1.539,0.754c0.594,0.38,1.479,0.135,1.816-0.479c0.082-0.151,0.166-0.308,0.266-0.444
				c-0.08,0.112-0.02,0.011,0.038-0.032c-0.112,0.088-0.058,0.008,0.028-0.02c-0.17,0.053-0.224,0.062-0.395,0.016
				c0.066,0.019,0.16,0.099,0.045,0.01c0.027,0.019,0.241,0.252,0.162,0.157c-0.062-0.083,0.068,0.113,0.081,0.133
				c0.018,0.029,0.107,0.207,0.092,0.169c0.03,0.074,0.104,0.338,0.136,0.486c0.05,0.229-0.004-0.145,0.018,0.093
				c0.009,0.097,0.012,0.198,0.012,0.298c-0.002,0.26,0.014,0.166-0.053,0.465c-0.159,0.696,0.212,1.436,0.927,1.632
				C119.163,132.687,119.969,132.28,120.128,131.578L120.128,131.578L120.128,131.578z"/>
			<path fill="#201614" d="M150.757,127.358c0.625,0.223,1.145,1.055,1.471,1.587c0.494,0.797,0.854,1.692,1.189,2.566
				c0.736,1.914,1.281,3.9,1.631,5.921c0.697,4.029,0.578,8.324-0.531,12.272c-1.061,3.779-3.295,6.853-6.697,8.841
				c-3.506,2.049-7.57,2.761-11.582,2.883c-2.193,0.07-4.473,0.081-6.648-0.248c-1.91-0.289-3.734-0.891-4.994-2.418
				c-1.09-1.318-2.955,0.563-1.877,1.877c2.793,3.381,7.805,3.446,11.822,3.464c4.695,0.018,9.477-0.593,13.701-2.763
				c3.975-2.041,6.9-5.374,8.404-9.577c1.568-4.388,1.773-9.298,1.139-13.879c-0.361-2.612-1.031-5.176-2.023-7.624
				c-0.863-2.118-1.977-4.627-4.301-5.463C149.851,124.221,149.157,126.785,150.757,127.358L150.757,127.358L150.757,127.358z"/>
			<path fill="#201614" d="M136.444,111.782c-0.531,0.061-1.07,0.065-1.604-0.004c-0.182-0.011-0.352,0.029-0.51,0.109
				c-0.164,0.054-0.307,0.149-0.426,0.275c-0.131,0.119-0.223,0.262-0.275,0.43c-0.082,0.158-0.119,0.326-0.113,0.511
				c0.016,0.342,0.127,0.696,0.389,0.938c0.088,0.069,0.18,0.135,0.266,0.206c0.209,0.12,0.432,0.179,0.67,0.179
				c0.533,0.071,1.072,0.064,1.604,0.006c0.184,0.01,0.352-0.027,0.51-0.112c0.166-0.055,0.309-0.146,0.428-0.274
				c0.131-0.122,0.223-0.262,0.275-0.43c0.082-0.153,0.119-0.324,0.113-0.509c-0.016-0.345-0.129-0.698-0.389-0.942
				c-0.088-0.065-0.178-0.135-0.27-0.203C136.905,111.843,136.683,111.782,136.444,111.782L136.444,111.782L136.444,111.782z"/>
			<path fill="#201614" d="M127.647,112.014c-0.047,0.009-0.094,0.014-0.143,0.023c0.119-0.019,0.234-0.032,0.354-0.051
				c-0.41,0.056-0.844,0.085-1.256,0.029c0.119,0.015,0.238,0.032,0.355,0.047c-0.014,0-0.029-0.002-0.041-0.002
				c-0.178-0.057-0.352-0.067-0.531-0.026c-0.174,0.008-0.34,0.061-0.492,0.157c-0.154,0.079-0.277,0.195-0.371,0.341
				c-0.117,0.13-0.197,0.282-0.236,0.454c-0.018,0.117-0.035,0.229-0.049,0.35c0,0.238,0.062,0.464,0.18,0.671
				c0.072,0.089,0.141,0.176,0.209,0.267c0.164,0.169,0.361,0.278,0.586,0.343c0.34,0.055,0.666,0.083,1.012,0.07
				c0.377-0.007,0.756-0.05,1.129-0.114c0.174-0.044,0.322-0.12,0.451-0.238c0.145-0.092,0.258-0.217,0.342-0.371
				c0.096-0.153,0.15-0.316,0.156-0.497c0.043-0.17,0.033-0.352-0.021-0.527c-0.104-0.319-0.305-0.627-0.611-0.793
				c-0.105-0.041-0.211-0.085-0.316-0.132C128.116,111.952,127.882,111.952,127.647,112.014L127.647,112.014L127.647,112.014z"/>
			<path fill="#201614" d="M130.888,119.475c-0.354-0.046-0.713-0.043-1.07-0.036c-0.182-0.01-0.354,0.031-0.512,0.113
				c-0.164,0.054-0.307,0.146-0.428,0.273c-0.127,0.124-0.219,0.266-0.273,0.428c-0.084,0.16-0.123,0.33-0.115,0.51
				c0.02,0.119,0.033,0.236,0.047,0.354c0.064,0.227,0.18,0.423,0.342,0.586c0.09,0.067,0.18,0.139,0.27,0.213
				c0.207,0.114,0.43,0.175,0.67,0.175c0.357-0.003,0.717-0.01,1.07,0.036c0.184,0.01,0.354-0.03,0.512-0.112
				c0.166-0.056,0.309-0.145,0.426-0.274c0.131-0.121,0.221-0.265,0.275-0.426c0.084-0.157,0.121-0.332,0.113-0.511
				c-0.014-0.116-0.029-0.237-0.045-0.355c-0.064-0.224-0.176-0.416-0.344-0.584c-0.088-0.069-0.178-0.14-0.268-0.206
				C131.351,119.536,131.128,119.475,130.888,119.475L130.888,119.475L130.888,119.475z"/>
			<path fill="#201614" d="M146.704,114.955c0.09-0.064,0.178-0.121,0.275-0.177c0.197-0.118-0.076-0.01,0.053-0.018
				c0.117-0.012,0.244-0.06,0.051-0.037c0.119-0.013,0.234-0.009,0.354-0.009c-0.037-0.004-0.078-0.012-0.117-0.018
				c0.078,0.014,0.154,0.029,0.229,0.052c0.223,0.04-0.049-0.052,0.051,0.018c0.105,0.073,0.188,0.124,0.049,0.002
				c0.041,0.034,0.078,0.068,0.113,0.107c0.066,0.066,0.053,0.043-0.045-0.073c0.088,0.233,0.012-0.092,0.041,0.06
				c0.018,0.093,0.043,0.188,0.07,0.281c-0.082-0.277,0.004,0.057,0.01,0.123c0.01,0.104,0.02,0.205,0.025,0.312
				c0.016,0.226,0.023,0.453,0.02,0.678c-0.002,0.103-0.004,0.205-0.012,0.307c-0.002,0.043-0.043,0.4-0.021,0.248
				c0.029-0.171-0.029,0.152-0.037,0.188c-0.025,0.117-0.055,0.237-0.092,0.354c-0.031,0.1-0.064,0.195-0.102,0.293
				c-0.033,0.089-0.031,0.077,0.012-0.024c-0.021,0.035-0.041,0.076-0.059,0.113c-0.105,0.188-0.205,0.375-0.324,0.544
				c-0.068,0.101-0.148,0.186-0.025,0.047c-0.078,0.087-0.148,0.17-0.229,0.249c-0.068,0.07-0.148,0.131-0.215,0.201
				c-0.115,0.111,0.125-0.062-0.045,0.027c-0.176,0.098-0.342,0.195-0.523,0.279c0.168-0.08,0.084-0.033-0.037,0.016
				c-0.086,0.026-0.174,0.059-0.26,0.087c-0.191,0.059-0.385,0.107-0.58,0.138c-0.688,0.115-1.131,1.002-0.928,1.632
				c0.24,0.745,0.896,1.05,1.631,0.929c2.639-0.436,4.326-2.742,4.488-5.32c0.076-1.248-0.01-2.848-1.041-3.704
				c-1.131-0.939-2.91-1.104-4.119-0.194c-0.553,0.412-0.893,1.166-0.475,1.813C145.241,115.024,146.11,115.399,146.704,114.955
				L146.704,114.955L146.704,114.955z"/>
			<path fill="#201614" d="M132.698,99.391c-0.023,0.062-0.045,0.122-0.07,0.183c0.047-0.105,0.09-0.209,0.133-0.317
				c-0.141,0.334-0.326,0.645-0.549,0.936c0.068-0.09,0.139-0.182,0.207-0.271c-0.223,0.283-0.482,0.538-0.77,0.763
				c0.092-0.071,0.18-0.138,0.27-0.207c-0.277,0.212-0.578,0.386-0.9,0.529c0.105-0.048,0.211-0.091,0.316-0.14
				c-0.109,0.049-0.217,0.091-0.326,0.125c-0.33,0.11-0.617,0.311-0.793,0.61c-0.166,0.287-0.238,0.702-0.135,1.024
				c0.104,0.32,0.303,0.629,0.609,0.79c0.309,0.164,0.684,0.247,1.023,0.131c0.818-0.268,1.559-0.702,2.182-1.304
				c0.625-0.602,1.062-1.339,1.359-2.146c0.115-0.306,0.027-0.752-0.131-1.024c-0.162-0.272-0.477-0.535-0.793-0.607
				c-0.34-0.077-0.723-0.065-1.025,0.13C133.005,98.797,132.823,99.051,132.698,99.391L132.698,99.391L132.698,99.391z"/>
			<path fill="#201614" d="M136.827,100.86c0.02,0.104,0.035,0.211,0.051,0.312c-0.016-0.114-0.033-0.23-0.049-0.35
				c0.057,0.45,0.066,0.905,0.012,1.354c0.016-0.113,0.033-0.23,0.047-0.349c-0.047,0.33-0.129,0.656-0.258,0.966
				c0.043-0.105,0.088-0.208,0.133-0.317c-0.092,0.212-0.205,0.407-0.344,0.59c0.07-0.096,0.139-0.18,0.209-0.271
				c-0.117,0.149-0.252,0.282-0.4,0.401c0.092-0.072,0.18-0.139,0.27-0.208c-0.156,0.117-0.318,0.211-0.496,0.289
				c0.104-0.046,0.211-0.09,0.318-0.132c-0.064,0.024-0.127,0.048-0.189,0.066c-0.328,0.111-0.613,0.307-0.793,0.609
				c-0.166,0.284-0.238,0.705-0.133,1.025c0.211,0.649,0.928,1.164,1.633,0.924c0.557-0.188,1.062-0.467,1.48-0.886
				c0.418-0.421,0.686-0.913,0.898-1.457c0.408-1.033,0.359-2.196,0.17-3.271c-0.055-0.311-0.346-0.644-0.607-0.794
				c-0.287-0.169-0.705-0.24-1.025-0.137c-0.318,0.104-0.629,0.306-0.791,0.611C136.786,100.169,136.763,100.49,136.827,100.86
				L136.827,100.86L136.827,100.86z"/>
			<path fill="#201614" d="M132.204,128.865c2.74,0.67,5.736,0.574,8.529,0.41c3.344-0.197,6.811-0.609,9.973-1.769
				c1.59-0.584,0.904-3.148-0.703-2.559c-2.955,1.086-6.148,1.488-9.27,1.676c-2.572,0.149-5.428,0.268-7.822-0.316
				C131.251,125.901,130.544,128.459,132.204,128.865L132.204,128.865L132.204,128.865z"/>
			<path fill="#FFFFFF" d="M153.526,140.888c-1.156-3.208-3.148-8.847-4.412-9.313c-0.348-0.13-1.271-0.064-1.652-0.066
				c-0.311-0.009-0.557,0.217-0.744,0.435c-1.229,1.422-0.717,2.836-0.018,4.513c-2.162-0.63-3.656-1.21-5.502-2.149
				c-1.738-0.887-4.293-2.526-5.266-1.404c-1.561,0.109-2.158,1.703-1.787,2.9c-0.586,0.756-0.449,1.828-0.121,2.932
				c1.779,5.981,5.01,7.605,11.031,9.298c0.541,0.147,2.531,1.577,3.014,1.839L153.526,140.888L153.526,140.888z"/>
			<path fill="#FFFFFF" d="M124.495,157.095c1.205,0.364,2.617,0.422,4.223-0.084c1.447-0.455,2.764-1.258,4.137-1.92
				c1.32-0.652,2.684-1.24,4.076-1.756c0.887-0.333,1.875-0.626,2.729-0.256c1.287,0.574,1.521,2.427,0.836,3.647
				c-0.693,1.219-1.98,1.958-3.219,2.63c1.238,0.044,2.482,0.561,3.943,0.131c1.48-0.44,3.275-0.955,4.604-1.734
				c0.693-0.404,1.428-0.804,2.232-0.889c0.809-0.071,1.705,0.258,2.053,0.994c0.551,1.153-0.502,2.404-1.465,3.258
				c-2.586,2.3-5.236,4.637-8.434,5.976c-3.193,1.323-7.088,1.478-9.938-0.478c-0.826-0.571-1.561-1.305-2.529-1.556
				c-0.834-0.236-3.02,0.151-3.875,0.312L124.495,157.095L124.495,157.095z"/>
			<path fill="#201614" d="M147.421,147.868c-0.559-0.358-1.111-0.746-1.727-1.002c-0.562-0.233-1.17-0.367-1.754-0.544
				c-0.951-0.292-1.904-0.606-2.812-1.014c-1.57-0.704-3.035-1.661-4.047-3.08c-0.576-0.808-1.031-1.701-1.373-2.633
				c-0.213-0.575-0.416-1.168-0.549-1.764c-0.061-0.267-0.117-0.546-0.082-0.819c0.039-0.334,0.266-0.535,0.354-0.858
				c0.178-0.647-0.42-1.554,0.434-1.905c0.32-0.134,0.576-0.114,0.871-0.31c0.307-0.203-0.082-0.077,0.102-0.092
				c0.375-0.038,0.852,0.18,1.195,0.322c1.316,0.562,2.531,1.337,3.832,1.925c1.457,0.657,2.955,1.191,4.486,1.64
				c0.883,0.258,2.031-0.673,1.633-1.629c-0.268-0.646-0.611-1.352-0.674-2.059c-0.021-0.234-0.006-0.467,0.074-0.695
				c0.049-0.136,0.135-0.258,0.211-0.386c0.064-0.104,0.344-0.279,0.113-0.191c-0.268,0.098,0.107,0.044,0.172,0.05
				c0.154,0.011,0.371,0.022,0.527-0.006c0.279-0.05,0.145-0.039,0.188-0.021c-0.223-0.08,0.025,0.041,0.137,0.181
				c-0.055-0.069,0.217,0.337,0.27,0.423c1.309,2.162,2.1,4.658,2.955,7.022c0.578,1.591,3.143,0.907,2.561-0.707
				c-0.648-1.782-1.309-3.562-2.064-5.304c-0.529-1.231-1.111-2.694-2.133-3.608c-1.15-1.028-3.504-0.896-4.539,0.193
				c-1.609,1.693-1.166,3.873-0.355,5.808c0.543-0.542,1.088-1.084,1.633-1.63c-2.252-0.66-4.324-1.56-6.395-2.656
				c-1.639-0.868-4.055-2.166-5.67-0.563c0.312-0.128,0.625-0.26,0.939-0.388c-2.291,0.286-3.686,2.32-3.061,4.586
				c0.043-0.339,0.088-0.679,0.133-1.021c-1.291,1.902-0.191,4.517,0.643,6.39c0.662,1.488,1.602,2.88,2.824,3.964
				c1.26,1.112,2.715,1.89,4.264,2.518c0.854,0.349,1.727,0.641,2.607,0.909c0.443,0.137,0.93,0.219,1.357,0.396
				c0.404,0.167,0.955,0.576,1.381,0.851C147.521,151.092,148.851,148.795,147.421,147.868L147.421,147.868L147.421,147.868z"/>
			<path fill="#201614" d="M125.907,158.683c1.932,0.12,3.732-0.499,5.443-1.341c1.818-0.895,3.592-1.833,5.49-2.56
				c0.984-0.378,2.85-1.155,2.705,0.609c-0.117,1.416-1.854,2.229-2.938,2.82c-1.213,0.664-0.578,2.4,0.672,2.47
				c1.365,0.082,2.631,0.45,4.006,0.155c1.289-0.271,2.658-0.562,3.867-1.087c0.533-0.238,2.545-1.73,3.115-0.905
				c0.455,0.658-1.404,2.023-1.803,2.385c-3.699,3.271-8.543,6.82-13.775,5.111c-1.443-0.473-2.424-1.619-3.768-2.248
				c-1.385-0.65-2.836-0.41-4.295-0.196c-0.711,0.103-1.098,0.998-0.926,1.629c0.211,0.763,0.92,1.036,1.631,0.93
				c0.629-0.093,1.344-0.23,1.977-0.138c0.555,0.081,1.152,0.593,1.635,0.953c1.248,0.933,2.609,1.619,4.154,1.914
				c3.121,0.594,6.256-0.111,9.057-1.535c2.645-1.348,5.111-3.382,7.207-5.473c1.098-1.094,2.01-2.615,1.418-4.188
				c-0.549-1.475-2.195-2.153-3.68-1.931c-0.93,0.147-1.736,0.58-2.551,1.03c-0.672,0.367-1.371,0.56-2.113,0.733
				c-0.855,0.194-1.729,0.526-2.609,0.504c-0.854-0.021-1.693-0.247-2.547-0.294c0.223,0.821,0.447,1.646,0.67,2.474
				c1.707-0.937,3.631-2.148,4.115-4.181c0.459-1.921-0.379-4.154-2.443-4.646c-1.197-0.283-2.379,0.12-3.486,0.544
				c-1.193,0.458-2.373,0.962-3.523,1.51c-2.158,1.033-4.211,2.447-6.705,2.297C124.202,155.924,124.208,158.58,125.907,158.683
				L125.907,158.683L125.907,158.683z"/>
			<path fill="#FFFFFF" d="M107.795,165.318c6.688,1.278,10.59,1.839,16.838,1.775c0.572-2.51,1.516-10.988,1.41-12.461
				c-7.659-1.804-16.315-3.769-23.516-5.862L107.795,165.318L107.795,165.318z"/>
			<path fill="#201614" d="M88.926,133.796c-0.299,4.495-0.639,8.994-0.773,13.498c-0.095,3.161-0.281,6.661,0.574,9.74
				c0.539,1.944,1.654,3.72,3.336,4.861c0.746,0.509,1.628,0.811,2.457,1.15c0.988,0.404,1.985,0.787,2.996,1.139
				c4.016,1.367,8.224,2.117,12.387,2.872c4.887,0.881,9.762,1.41,14.731,1.365c0.559-0.003,1.156-0.4,1.281-0.974
				c0.5-2.254,0.734-4.583,0.994-6.873c0.219-1.935,0.58-3.989,0.461-5.942c-0.033-0.567-0.385-1.138-0.975-1.275
				c-7.86-1.854-15.754-3.611-23.513-5.866c-1.645-0.479-2.349,2.088-0.707,2.556c7.761,2.254,15.654,4.013,23.515,5.867
				c-0.324-0.426-0.648-0.852-0.973-1.281c0.113,1.887-0.232,3.87-0.439,5.742c-0.236,2.122-0.459,4.28-0.922,6.366
				c0.426-0.322,0.852-0.648,1.277-0.975c-4.145,0.04-8.236-0.281-12.323-0.972c-4.062-0.682-8.172-1.397-12.129-2.55
				c-1.834-0.538-3.629-1.194-5.39-1.934c-1.554-0.66-2.659-1.653-3.274-3.259c-0.527-1.374-0.617-2.879-0.693-4.335
				c-0.075-1.511-0.074-3.025-0.043-4.535c0.105-4.8,0.48-9.593,0.798-14.387C91.692,132.089,89.039,132.095,88.926,133.796
				L88.926,133.796L88.926,133.796z"/>
			<path fill="#FFFFFF" d="M157.675,142.527c-1.729-1.399-2.637-2.059-3.506-2.848c-1.889,1.997-7.387,6.763-9.061,9.091
				c1.885,1.989,6.062,6.645,9.215,8.662c2.15,1.402,5.639,1.666,8.379,1.143c2.104-0.41,3.715-3.001,3.875-4.869L157.675,142.527
				L157.675,142.527z"/>
			<path fill="#201614" d="M153.87,119.825c5.961,5.867,9.275,14.168,10.756,22.277c0.371,2.045,0.609,4.111,0.709,6.19
				c0.088,1.824,0.258,3.919-0.146,5.715c-0.387,1.736-1.625,3.137-3.404,3.381c-2.037,0.275-4.439,0.168-6.291-0.811
				c-1.969-1.043-3.67-2.743-5.248-4.28c-1.465-1.426-2.877-2.911-4.197-4.473c0.068,0.539,0.139,1.076,0.207,1.611
				c0.379-0.517,1.145-1.334,1.717-1.924c0.848-0.871,1.725-1.717,2.604-2.554c1.514-1.44,3.088-2.831,4.525-4.345
				c-0.623,0-1.248,0-1.875,0c1.125,1.003,2.344,1.898,3.514,2.851c0.559,0.453,1.332,0.541,1.877,0
				c0.465-0.467,0.559-1.426,0-1.874c-1.17-0.954-2.389-1.847-3.516-2.854c-0.523-0.465-1.357-0.542-1.875,0
				c-3.008,3.168-6.672,5.813-9.262,9.362c-0.365,0.498-0.146,1.188,0.207,1.607c2.699,3.182,5.748,6.365,9.229,8.7
				c2.031,1.363,4.594,1.811,7.008,1.738c1.184-0.036,2.471-0.123,3.562-0.606c1.016-0.445,1.824-1.211,2.482-2.09
				c1.363-1.831,1.527-3.915,1.578-6.118c0.049-2.221-0.076-4.444-0.352-6.648c-0.58-4.719-1.74-9.351-3.557-13.747
				c-1.98-4.789-4.664-9.33-8.379-12.985C154.526,116.753,152.651,118.623,153.87,119.825L153.87,119.825L153.87,119.825z"/>
			<path fill="#201614" d="M120.148,90.392c1.203,1.178,3.085,1.542,4.708,1.539c1.623,0,3.506-0.361,4.711-1.539
				c0.498-0.486,0.525-1.398,0-1.876c-0.533-0.49-1.346-0.521-1.875,0c-0.051,0.048-0.275,0.229-0.068,0.071
				c0.215-0.165-0.084,0.051-0.15,0.094c-0.098,0.061-0.197,0.113-0.297,0.164c-0.051,0.025-0.172,0.061-0.213,0.1
				c0.078-0.074,0.26-0.1,0.045-0.022c-0.326,0.111-0.658,0.208-1.004,0.27c-0.035,0.011-0.406,0.061-0.104,0.027
				c-0.102,0.014-0.203,0.025-0.307,0.027c-0.244,0.024-0.494,0.036-0.738,0.036c-0.225,0-0.449-0.011-0.674-0.03
				c-0.123-0.008-0.246-0.014-0.371-0.033c0.188,0.025,0.068,0.008-0.051-0.015c-0.344-0.062-0.686-0.15-1.014-0.269
				c-0.176-0.063-0.176-0.145,0.002,0.009c-0.043-0.039-0.125-0.057-0.178-0.081c-0.113-0.057-0.223-0.118-0.332-0.183
				c-0.082-0.052-0.158-0.123-0.242-0.165c0.35,0.173,0.152,0.125,0.027,0c-0.496-0.484-1.389-0.535-1.876,0
				C119.665,89.039,119.616,89.873,120.148,90.392L120.148,90.392L120.148,90.392z"/>
			<path fill="#201614" d="M124.114,81.522c0.166,0.638,0.328,1.284,0.422,1.939c-0.014-0.114-0.029-0.235-0.045-0.35
				c0.012,0.087,0.016,0.175,0.008,0.27c0.016-0.121,0.029-0.239,0.047-0.356c-0.008,0.044-0.016,0.085-0.029,0.12
				c0.045-0.104,0.088-0.21,0.135-0.318c-0.014,0.033-0.027,0.057-0.043,0.082c0.068-0.091,0.137-0.179,0.207-0.271
				c-0.021,0.024-0.039,0.044-0.062,0.062c0.09-0.069,0.176-0.136,0.268-0.206c-0.049,0.031-0.102,0.059-0.154,0.081
				c0.105-0.044,0.211-0.089,0.316-0.132c-0.084,0.035-0.168,0.062-0.26,0.074c0.119-0.018,0.236-0.031,0.352-0.047
				c-0.08,0.008-0.162,0.008-0.24,0c0.117,0.016,0.234,0.029,0.352,0.047c-0.092-0.013-0.182-0.037-0.273-0.047
				c-0.176-0.054-0.354-0.065-0.529-0.023c-0.178,0.007-0.342,0.058-0.494,0.156c-0.275,0.161-0.535,0.474-0.609,0.792
				c-0.076,0.344-0.059,0.723,0.135,1.026c0.174,0.265,0.461,0.565,0.791,0.604c0.24,0.035,0.471,0.095,0.713,0.103
				c0.387,0.018,0.744-0.104,1.088-0.26c0.432-0.202,0.771-0.607,0.887-1.075c0.098-0.398,0.059-0.719-0.01-1.119
				c-0.105-0.625-0.25-1.243-0.412-1.858c-0.082-0.319-0.324-0.627-0.607-0.793c-0.285-0.169-0.703-0.241-1.021-0.132
				c-0.322,0.1-0.631,0.301-0.793,0.606C124.079,80.816,124.021,81.167,124.114,81.522L124.114,81.522L124.114,81.522z"/>
			<path fill="#201614" d="M114.161,75.931c-0.326,1.054-0.113,3.482,1.885,3.686c2.639-0.014,2.779-2.943,1.891-4.323
				C117.209,74.162,115.07,73.692,114.161,75.931L114.161,75.931z"/>
			<path fill="#201614" d="M135.302,75.931c0.324,1.054,0.113,3.482-1.887,3.686c-2.639-0.014-2.779-2.943-1.891-4.323
				C132.253,74.162,134.392,73.692,135.302,75.931L135.302,75.931z"/>
			<path fill="#FFFFFF" d="M92.502,112.289c-1.481,1.578-3.1,3.063-5.143,3.772c-0.777,0.27-1.627,0.467-2.414,0.238
				c-0.787-0.229-1.463-1.02-1.301-1.827c-3.949,3.178-8.395,6.525-13.457,6.271c-0.606-0.03-1.258-0.108-1.805,0.166
				c-1.273,0.637-1.498,2.897-3.074,2.652c-0.551-0.507-1.377-0.755-2.148-0.641c-0.764,0.114-1.46,0.575-1.809,1.205
				c-0.247,0.44-0.327,0.943-0.374,1.427c-0.166,1.932,0.216,3.899,1.089,5.655c0.424,0.855,0.979,1.677,1.753,2.301
				c0.591,0.474,1.334,0.992,2.31,0.727c0,0,0.165-0.041,0.451-0.121c0.698,1.995,1.873,4.302,3.802,6.461
				c1.579,1.762,3.366,3.195,5.298,4.135c-0.074,0.73-0.141,1.295-0.338,2.413c-0.227,1.309-0.152,2.484-1.984,3.146
				c-0.098,0.034-1.803,0.838-2.561,1.197c0.287,0.208,0.482,0.348,0.482,0.348c1.373,0.993,6.446,3.649,12.646,3.649
				c6.5,0,11.149-2.257,12.452-3.481c-0.064-0.03-0.148-0.073-0.262-0.122c-0.619-0.288-1.854-0.879-2.284-1.096
				c-1.727-0.87-1.819-1.903-2.053-3.214c-0.213-1.209-0.386-1.973-0.464-2.798c4.45-1.838,8.033-7.569,8.657-9.152
				c0.113-0.315,0.361-0.964,0.55-1.707c0.194,0.06,0.308,0.095,0.308,0.095c0.861,0.261,1.457-0.006,2.05-0.479
				c0.772-0.624,1.327-1.445,1.752-2.301c0.875-1.756,1.255-3.724,1.087-5.655c-0.045-0.483-0.122-0.986-0.372-1.427
				c-0.349-0.63-1.046-1.091-1.809-1.205c-0.765-0.114-1.581,0.126-2.136,0.625c-1.466-6.49-6.443-10.894-8.69-11.151"/>
			<path fill="#7A7473" d="M103.672,112.841c-0.66-2.565-1.864-5.22-3.891-7.833c-0.864-1.119-2.575-1.601-3.937-2.12
				c-3.862-5.438-7.938-5.507-12.326-5.542c-12.265-0.094-18.11,5.991-20.06,10.868c-1.064,2.664-2.596,9.498-1.078,14.956
				c0.244-0.122,0.506-0.208,0.779-0.248c0.771-0.114,1.598,0.134,2.145,0.645c1.58,0.241,1.805-2.02,3.078-2.656
				c0.547-0.274,1.198-0.196,1.805-0.166c5.062,0.254,9.508-3.094,13.457-6.271c-0.162,0.808,0.514,1.598,1.301,1.827
				c0.787,0.229,1.637,0.031,2.414-0.238c2.004-0.695,3.596-2.132,5.051-3.675c2.06-0.151,7.455,4.354,8.992,11.16
				c0.555-0.499,1.371-0.739,2.136-0.625c0.173,0.027,0.341,0.069,0.503,0.134C104.467,120.113,104.637,116.571,103.672,112.841
				L103.672,112.841z"/>
			<path fill="#201614" d="M63.579,122.504c-0.672-2.738-0.635-5.649-0.224-8.426c0.177-1.206,0.426-2.403,0.75-3.581
				c0.128-0.46,0.269-0.923,0.427-1.379c0.066-0.184,0.135-0.368,0.208-0.556c0.011-0.03,0.096-0.227,0.013-0.034
				c0.033-0.079,0.07-0.162,0.105-0.241c1.471-3.127,3.916-5.53,7.014-7.151c4.377-2.295,9.525-2.715,14.384-2.387
				c2.11,0.146,4.156,0.713,5.848,2.028c0.483,0.375,0.927,0.805,1.346,1.251c0.548,0.58,0.98,1.411,1.595,1.898
				c0.506,0.402,1.322,0.546,1.921,0.787c0.52,0.207,1.068,0.456,1.495,0.825c0.627,0.543,1.082,1.362,1.516,2.054
				c0.464,0.746,0.885,1.511,1.252,2.306c0.664,1.421,1.131,2.937,1.437,4.474c0.534,2.698,0.468,5.473,0.12,8.186
				c-0.094,0.716,0.675,1.324,1.325,1.324c0.794,0,1.236-0.608,1.328-1.324c0.488-3.806,0.337-7.724-0.874-11.393
				c-0.729-2.206-1.795-4.305-3.158-6.187c-0.649-0.901-1.31-1.65-2.301-2.184c-0.921-0.496-1.928-0.819-2.904-1.188
				c0.266,0.205,0.529,0.407,0.794,0.606c-1.309-1.806-2.847-3.467-4.823-4.553c-1.623-0.889-3.391-1.315-5.219-1.503
				c-4.045-0.415-8.355-0.149-12.261,1.008c-5.8,1.718-10.941,5.766-12.851,11.646c-1.473,4.529-1.961,9.747-0.82,14.399
				C61.424,124.867,63.986,124.166,63.579,122.504L63.579,122.504L63.579,122.504z"/>
			<path fill="#201614" d="M92.712,113.719c-0.507-0.066,0.053,0.034,0.18,0.075c0.073,0.025,0.144,0.056,0.218,0.076
				c-0.354-0.109-0.1-0.041-0.012-0.001c0.379,0.193,0.74,0.396,1.089,0.641c0.123,0.082,0.238,0.17,0.356,0.259
				c-0.186-0.141,0.031,0.022,0.097,0.075c0.19,0.156,0.374,0.318,0.556,0.481c0.446,0.412,0.866,0.839,1.265,1.303
				c1.731,1.986,3.044,4.588,3.664,7.27c0.163,0.702,0.962,1.114,1.633,0.927c0.716-0.195,1.089-0.931,0.927-1.632
				c-0.734-3.163-2.287-6.12-4.439-8.55c-1.433-1.612-3.315-3.287-5.532-3.578c-0.713-0.092-1.323,0.681-1.323,1.331
				C91.389,113.191,91.999,113.624,92.712,113.719L92.712,113.719L92.712,113.719z"/>
			<path fill="#201614" d="M91.566,111.349c-1.062,1.121-2.171,2.21-3.536,2.965c-0.499,0.276-3.207,1.495-3.06,0.159
				c0.142-1.274-1.481-1.563-2.265-0.937c-2.844,2.286-5.904,4.692-9.512,5.584c-0.854,0.213-1.71,0.318-2.59,0.309
				c-0.939-0.013-1.848-0.136-2.73,0.269c-0.703,0.322-1.182,0.894-1.612,1.519c-0.116,0.165-0.604,1.035-0.679,1.038
				c-0.71,0.08-1.324,0.557-1.324,1.329c0,0.657,0.609,1.402,1.324,1.327c0.84-0.091,1.521-0.405,2.07-1.065
				c0.4-0.479,0.702-1.324,1.229-1.678c0.525-0.359,1.645-0.068,2.27-0.09c1.01-0.039,2.032-0.198,3.009-0.464
				c3.958-1.07,7.281-3.679,10.423-6.2c-0.755-0.311-1.51-0.627-2.265-0.94c-0.126,1.147,0.577,2.236,1.544,2.796
				c1.131,0.655,2.53,0.513,3.719,0.119c2.34-0.777,4.195-2.402,5.861-4.159C94.616,111.984,92.744,110.106,91.566,111.349
				L91.566,111.349L91.566,111.349z"/>
			<path fill="#B4CDF0" d="M116.286,183.892c0.037,0.355,0.07,0.719,0.103,1.075H49.95c0.465-5.026,0.982-9.65,1.554-12.993
				c0.123-0.679,0.246-1.301,0.36-1.879c0.342-1.566,0.724-3.146,1.245-4.67c0.462-1.347,1.044-2.646,1.81-3.853
				c0.122-0.192,0.252-0.388,0.386-0.572c0.097-0.136,0.2-0.277,0.304-0.413c0.084-0.106,0.166-0.22,0.258-0.326
				c0.404-0.518,0.85-1.001,1.32-1.453c0.148-0.149,0.297-0.289,0.445-0.426c0.173-0.153,0.348-0.31,0.527-0.455
				c0.162-0.143,0.329-0.28,0.497-0.413c0.021-0.013,0.032-0.022,0.044-0.035c0.182-0.146,0.369-0.288,0.557-0.423
				c0.135-0.102,0.27-0.197,0.398-0.283c0.115-0.092,0.231-0.164,0.355-0.243c0.152-0.111,0.309-0.215,0.463-0.314
				c0.58-0.369,1.172-0.722,1.777-1.053c0.215-0.117,0.428-0.226,0.633-0.336c0.225-0.115,0.449-0.238,0.683-0.351
				c0.213-0.108,0.431-0.211,0.651-0.32c0.275-0.129,0.554-0.256,0.838-0.386c0.771-0.353,1.55-0.69,2.33-1.005
				c0.266-0.104,0.522-0.211,0.781-0.314c0.521-0.215,1.043-0.417,1.559-0.62c0,0,0.516-0.198,1.029-0.401
				c0.021,0.018,0.033,0.026,0.053,0.039c0.245,0.182,0.471,0.342,0.471,0.342c1.379,1.001,6.45,3.652,12.648,3.652
				c0.307,0,0.611-0.005,0.909-0.016c0.309-0.008,0.617-0.021,0.921-0.043c0.136-0.012,0.27-0.016,0.405-0.028
				c0.334-0.022,0.663-0.059,0.979-0.101c0.265-0.031,0.517-0.063,0.768-0.103c0.038-0.004,0.078-0.01,0.116-0.013
				c0.258-0.045,0.516-0.08,0.767-0.135c0.644-0.114,1.257-0.25,1.837-0.404c0.271-0.071,0.529-0.145,0.787-0.216
				c0.135-0.039,0.263-0.089,0.393-0.125c1.795-0.575,3.17-1.269,4.006-1.851c0.059-0.037,0.117-0.075,0.168-0.121l0.008-0.007
				c0.04-0.024,0.075-0.058,0.107-0.079c0.111-0.087,0.201-0.167,0.285-0.243c0.038-0.041,0.084-0.077,0.117-0.117
				c0.012-0.012,0.023-0.031,0.039-0.052c1.313,0.518,2.647,1.038,3.961,1.61c0.438,0.197,0.878,0.39,1.308,0.593
				c0.005,0,0.011,0.008,0.011,0.008c0.352,0.162,0.697,0.328,1.043,0.496c0.338,0.173,0.674,0.351,1.008,0.528
				c0.336,0.184,0.664,0.366,0.991,0.56c0.447,0.258,0.878,0.53,1.304,0.813c0.006,0,0.006,0.007,0.006,0.007
				c0.214,0.14,0.42,0.276,0.617,0.418c0.033,0.025,0.066,0.048,0.098,0.072c0.213,0.153,0.425,0.31,0.631,0.472
				c0.02,0.019,0.046,0.03,0.063,0.048c0.034,0.024,0.065,0.057,0.099,0.079c0.141,0.109,0.291,0.229,0.426,0.35
				c0.122,0.095,0.238,0.198,0.354,0.298c0.143,0.125,0.286,0.256,0.419,0.381c0.058,0.051,0.121,0.114,0.181,0.178
				c0.09,0.083,0.182,0.174,0.27,0.263c0.232,0.231,0.465,0.476,0.684,0.73c0.265,0.301,0.522,0.617,0.768,0.938
				c0.219,0.299,0.432,0.607,0.637,0.921c0.22,0.345,0.42,0.69,0.606,1.044c0.076,0.148,0.156,0.296,0.225,0.443
				c0.085,0.168,0.168,0.335,0.246,0.512c0.005,0.004,0.005,0.02,0.013,0.025c0.07,0.162,0.143,0.325,0.213,0.496
				c0.109,0.258,0.213,0.52,0.309,0.786c0.103,0.265,0.193,0.533,0.289,0.801c0.104,0.319,0.201,0.636,0.291,0.951
				c0.09,0.296,0.175,0.593,0.251,0.891c0.077,0.301,0.155,0.604,0.225,0.9c0.144,0.561,0.265,1.121,0.387,1.673
				c0.034,0.148,0.065,0.305,0.099,0.459c0.258,1.27,0.501,2.799,0.733,4.525c0.078,0.572,0.153,1.164,0.234,1.784
				c0.058,0.473,0.113,0.962,0.173,1.462c0.057,0.462,0.109,0.938,0.158,1.418c0.071,0.662,0.144,1.346,0.214,2.037
				c0.013,0.076,0.021,0.159,0.024,0.239C116.162,182.629,116.227,183.252,116.286,183.892L116.286,183.892z"/>
			<path fill="#201614" d="M89.99,144.769c0.108,1.086,0.341,2.152,0.527,3.226c0.14,0.802,0.296,1.626,0.769,2.311
				c0.583,0.848,1.396,1.377,2.31,1.819c0.825,0.398,1.661,0.883,2.53,1.181c0.655,0.222,1.478-0.258,1.632-0.925
				c0.166-0.742-0.226-1.393-0.926-1.636c0.442,0.153,0.169,0.07,0.06,0.02c-0.094-0.044-0.184-0.087-0.277-0.129
				c-0.18-0.085-0.361-0.17-0.539-0.256c-0.357-0.17-0.709-0.337-1.062-0.509c-0.334-0.158-0.668-0.315-0.98-0.517
				c-0.035-0.021-0.316-0.228-0.17-0.106c0.148,0.114-0.132-0.127-0.157-0.151c-0.027-0.028-0.191-0.183-0.184-0.196
				c-0.008,0.014,0.184,0.268,0.009,0c-0.041-0.068-0.084-0.136-0.119-0.211c-0.02-0.031-0.036-0.068-0.055-0.104
				c-0.043-0.093-0.024-0.047,0.055,0.133c-0.003-0.128-0.107-0.317-0.142-0.449c-0.091-0.353-0.146-0.708-0.209-1.066
				c-0.083-0.479-0.178-0.959-0.262-1.437c-0.038-0.196-0.073-0.395-0.103-0.593c-0.012-0.068-0.021-0.129-0.029-0.191
				c0.021,0.18,0.029,0.219,0.014,0.118c-0.012-0.109-0.023-0.219-0.033-0.331c-0.072-0.687-0.564-1.359-1.328-1.327
				C90.658,143.474,89.918,144.028,89.99,144.769L89.99,144.769L89.99,144.769z"/>
			<path fill="#201614" d="M71.116,152.772c0.928-0.402,1.836-0.864,2.756-1.289c0.278-0.126-0.154,0.031-0.164,0.066
				c0.006-0.018,0.678-0.281,0.535-0.219c0.115-0.051,0.225-0.104,0.332-0.158c0.508-0.275,0.925-0.659,1.262-1.126
				c0.464-0.638,0.607-1.405,0.722-2.172c0.157-1.057,0.341-2.102,0.448-3.164c0.07-0.693-0.66-1.355-1.326-1.325
				c-0.779,0.031-1.251,0.582-1.328,1.325c-0.017,0.17-0.033,0.339-0.053,0.507c-0.01,0.092-0.021,0.194-0.035,0.294
				c-0.037,0.307,0.029-0.196-0.004,0.04c-0.068,0.465-0.15,0.92-0.225,1.381c-0.053,0.332-0.09,0.666-0.16,0.993
				c-0.031,0.142-0.066,0.282-0.113,0.427c-0.011,0.033-0.028,0.063-0.035,0.102c-0.035,0.126,0.066-0.153,0.062-0.151
				c-0.057,0.058-0.092,0.184-0.137,0.254c-0.021,0.033-0.048,0.061-0.062,0.094c-0.057,0.113,0.078-0.118,0.09-0.118
				c-0.033,0.002-0.133,0.141-0.165,0.17c-0.028,0.029-0.063,0.055-0.091,0.082c-0.107,0.106,0.094-0.088,0.094-0.078
				c0,0.04-0.246,0.156-0.281,0.174c-0.088,0.05-0.354,0.155-0.122,0.071c-0.042,0.012-0.086,0.031-0.128,0.046
				c-0.149,0.061-0.295,0.123-0.441,0.189c-0.475,0.213-0.947,0.439-1.42,0.663c-0.447,0.215-0.894,0.438-1.35,0.635
				c-0.639,0.277-0.832,1.26-0.476,1.816C69.727,152.96,70.432,153.074,71.116,152.772L71.116,152.772L71.116,152.772z"/>
			<g>
				<path fill="#201614" d="M61.194,184.967c-0.134-3.643-0.293-7.29-0.297-10.94c-0.002-1.704-2.655-1.711-2.652,0
					c0.003,3.65,0.162,7.298,0.296,10.94c0.026,0.717,0.593,1.327,1.325,1.327C60.566,186.294,61.221,185.689,61.194,184.967
					L61.194,184.967L61.194,184.967z"/>
				<path fill="#201614" d="M108.018,184.967c0.144-4.265,0.323-8.535,0.325-12.808c0.003-1.707-2.648-1.712-2.651,0
					c-0.003,4.272-0.185,8.543-0.329,12.808C105.306,186.676,107.961,186.674,108.018,184.967L108.018,184.967L108.018,184.967z"/>
			</g>
			<path fill="#201614" d="M96.252,153.109c1.646,0.641,3.279,1.307,4.883,2.046c-0.219-0.383-0.437-0.765-0.653-1.149
				c0,0.002,0,0.007,0,0.007c0,0.445,0.245,0.94,0.653,1.149c3.84,1.916,7.539,4.05,9.666,7.991c2.175,4.024,2.807,8.922,3.363,13.4
				c0.35,2.801,0.645,5.606,0.896,8.413c0.065,0.717,0.565,1.327,1.328,1.327c0.668,0,1.392-0.607,1.327-1.327
				c-0.465-5.164-0.91-10.426-2.029-15.503c-0.527-2.38-1.163-4.745-2.234-6.947c-1.068-2.196-2.631-4.132-4.518-5.684
				c-0.967-0.795-1.818-1.397-2.748-1.976c-1.196-0.747-2.451-1.358-3.71-1.986c0.219,0.379,0.438,0.761,0.655,1.142
				c0,0,0-0.005,0-0.007c0-0.43-0.243-0.954-0.655-1.145c-1.812-0.828-3.658-1.582-5.515-2.308c-0.67-0.26-1.457,0.285-1.635,0.925
				C95.122,152.23,95.584,152.848,96.252,153.109L96.252,153.109L96.252,153.109z"/>
			<path fill="#201614" d="M69.373,150.554c-5.172,2.007-10.712,4.246-14.27,8.55c-3.569,4.315-4.595,10.104-5.335,15.507
				c-0.47,3.443-0.822,6.898-1.145,10.356c-0.066,0.717,0.658,1.327,1.326,1.327c0.773,0,1.26-0.607,1.327-1.327
				c0.496-5.341,0.946-10.758,2.202-15.986c0.617-2.574,1.422-5.132,2.971-7.312c1.387-1.947,3.295-3.462,5.318-4.696
				c2.613-1.593,5.465-2.758,8.309-3.862c0.668-0.256,1.133-0.891,0.928-1.631C70.829,150.842,70.043,150.294,69.373,150.554
				L69.373,150.554L69.373,150.554z"/>
			<path fill="#201614" d="M70.611,152.958c2.704,1.925,6.265,3.023,9.507,3.521c4.438,0.677,9.204,0.265,13.396-1.404
				c1.386-0.553,2.851-1.204,3.921-2.273c1.211-1.209-0.664-3.088-1.875-1.878c-0.104,0.108-0.215,0.205-0.33,0.299
				c0.262-0.216-0.123,0.088-0.176,0.124c-0.267,0.18-0.542,0.342-0.824,0.495c-0.763,0.417-1.561,0.749-2.379,1.029
				c-2.502,0.853-5.132,1.252-7.772,1.271c-4.089,0.014-8.74-1.063-12.128-3.474c-0.584-0.417-1.479-0.103-1.814,0.479
				C69.745,151.806,70.027,152.54,70.611,152.958L70.611,152.958L70.611,152.958z"/>
			<path fill="#201614" d="M102.342,124.486c0.271-0.229,0.707-0.299,1.004-0.253c0.379,0.056,0.7,0.271,0.857,0.562
				c0.221,0.419,0.217,0.975,0.225,1.438c0.011,0.59-0.018,1.185-0.123,1.766c-0.217,1.178-0.618,2.312-1.259,3.329
				c-0.261,0.412-0.582,0.826-0.963,1.136c-0.081,0.063-0.171,0.115-0.257,0.175c-0.33,0.206,0.047,0.008-0.154,0.088
				c-0.217,0.078-0.232,0.053-0.49-0.015c-1.65-0.441-2.355,2.117-0.703,2.555c1.998,0.535,3.567-0.744,4.66-2.299
				c1.061-1.515,1.639-3.367,1.861-5.191c0.211-1.738,0.193-3.926-1.209-5.191c-1.543-1.388-3.779-1.269-5.324,0.022
				c-0.552,0.458-0.476,1.4,0,1.879C101.01,125.029,101.792,124.947,102.342,124.486L102.342,124.486L102.342,124.486z"/>
			<path fill="#201614" d="M99.434,132.327c-0.035,0.853-0.299,1.677-0.578,2.475c-0.053,0.146-0.127,0.297-0.162,0.445
				c-0.047,0.219,0.15-0.274,0.033-0.077c-0.096,0.162-0.168,0.351-0.258,0.517c-0.553,1.046-1.256,2.089-1.948,2.986
				c-1.733,2.244-4.092,4.611-6.944,5.231c-1.669,0.366-0.963,2.926,0.705,2.561c3.459-0.753,6.23-3.474,8.323-6.187
				c1.794-2.321,3.354-4.935,3.483-7.951C102.165,130.618,99.51,130.622,99.434,132.327L99.434,132.327L99.434,132.327z"/>
			<path fill="#201614" d="M66.233,122.607c-1.546-1.291-3.784-1.408-5.324-0.022c-1.445,1.303-1.42,3.563-1.19,5.348
				c0.237,1.827,0.854,3.682,1.95,5.185c1.126,1.548,2.804,2.843,4.812,2.403c0.701-0.153,1.108-0.968,0.928-1.635
				c-0.201-0.721-0.931-1.081-1.633-0.926c-0.387,0.085-0.713-0.155-1.041-0.403c-0.305-0.234-0.723-0.679-0.985-1.078
				c-0.679-1.021-1.106-2.181-1.339-3.387c-0.107-0.571-0.148-1.154-0.142-1.736c0.003-0.506-0.007-1.1,0.229-1.56
				c0.147-0.296,0.476-0.502,0.854-0.562c0.295-0.054,0.734,0.024,1.004,0.253c0.547,0.458,1.337,0.537,1.877,0
				C66.704,124.01,66.785,123.067,66.233,122.607L66.233,122.607L66.233,122.607z"/>
			<path fill="#201614" d="M64.627,132.01c0.713,3.479,2.385,6.743,4.731,9.403c2.483,2.821,5.812,5.148,9.597,5.688
				c0.711,0.104,1.428-0.172,1.632-0.924c0.173-0.625-0.21-1.526-0.925-1.631c-6.467-0.926-11.225-7.149-12.477-13.244
				C66.84,129.632,64.283,130.339,64.627,132.01L64.627,132.01L64.627,132.01z"/>
			<path fill="#201614" d="M80.132,137.777c0.962,0.942,2.447,1.248,3.747,1.247c1.299,0,2.783-0.305,3.748-1.247
				c0.496-0.484,0.525-1.393,0-1.876c-0.533-0.489-1.346-0.517-1.877,0c-0.051,0.049-0.238,0.198-0.018,0.029
				c0.232-0.179-0.01,0-0.075,0.04c-0.072,0.045-0.147,0.085-0.222,0.124c-0.053,0.026-0.111,0.046-0.159,0.073
				c0.057-0.03,0.324-0.125,0.116-0.055c-0.247,0.087-0.491,0.158-0.748,0.207c-0.041,0.006-0.084,0.019-0.123,0.022
				c-0.102,0.016-0.057,0.008,0.133-0.019c-0.007,0.022-0.203,0.022-0.227,0.025c-0.182,0.017-0.365,0.021-0.549,0.021
				c-0.169,0-0.335-0.004-0.502-0.02c-0.09-0.004-0.188-0.026-0.275-0.026c0.119,0,0.256,0.042,0.051,0.002
				c-0.257-0.043-0.51-0.11-0.756-0.199c-0.107-0.037-0.279-0.145,0.082,0.041c-0.041-0.023-0.088-0.041-0.131-0.06
				c-0.082-0.043-0.169-0.09-0.248-0.138c-0.062-0.038-0.117-0.084-0.179-0.122c0.388,0.242,0.194,0.156,0.087,0.053
				c-0.494-0.489-1.389-0.532-1.876,0C79.651,136.426,79.603,137.261,80.132,137.777L80.132,137.777L80.132,137.777z"/>
			<path fill="#201614" d="M83.185,129.975c0.151,0.573,0.298,1.163,0.384,1.75c-0.018-0.118-0.033-0.237-0.049-0.354
				c0.012,0.083,0.016,0.162,0.01,0.244c0.015-0.119,0.03-0.234,0.046-0.354c-0.007,0.035-0.013,0.072-0.026,0.109
				c0.043-0.107,0.09-0.21,0.133-0.317c-0.011,0.024-0.023,0.047-0.037,0.072c0.067-0.09,0.139-0.184,0.205-0.27
				c-0.017,0.021-0.035,0.036-0.057,0.055c0.09-0.07,0.178-0.139,0.27-0.209c-0.045,0.029-0.092,0.056-0.137,0.076
				c0.104-0.047,0.207-0.089,0.314-0.136c-0.076,0.032-0.153,0.059-0.234,0.07c0.118-0.015,0.236-0.033,0.354-0.048
				c-0.074,0.008-0.146,0.008-0.22,0c0.118,0.013,0.233,0.03,0.354,0.048c-0.084-0.012-0.165-0.035-0.247-0.045
				c-0.178-0.053-0.353-0.062-0.528-0.023c-0.178,0.012-0.343,0.061-0.495,0.158c-0.275,0.16-0.538,0.478-0.607,0.793
				c-0.08,0.34-0.063,0.718,0.134,1.024c0.067,0.089,0.136,0.178,0.204,0.267c0.167,0.162,0.361,0.279,0.587,0.34
				c0.227,0.033,0.446,0.087,0.677,0.098c0.373,0.017,0.715-0.099,1.048-0.257c0.418-0.194,0.748-0.595,0.858-1.046
				c0.096-0.382,0.059-0.691-0.008-1.079c-0.095-0.562-0.225-1.119-0.371-1.674c-0.084-0.322-0.324-0.629-0.609-0.792
				c-0.284-0.171-0.703-0.239-1.021-0.138c-0.323,0.105-0.632,0.304-0.794,0.611C83.153,129.268,83.094,129.618,83.185,129.975
				L83.185,129.975L83.185,129.975z"/>
			<path fill="#201614" d="M74.437,125.253c-0.288,0.93-0.102,3.068,1.661,3.25c2.329-0.012,2.449-2.602,1.668-3.817
				C77.125,123.69,75.238,123.277,74.437,125.253L74.437,125.253z"/>
			<path fill="#201614" d="M93.004,125.253c0.285,0.93,0.1,3.068-1.664,3.25c-2.326-0.012-2.451-2.602-1.667-3.817
				C90.315,123.69,92.204,123.277,93.004,125.253L93.004,125.253z"/>
		</g>
	</g>
</g>
</svg>
